<?xml version="1.0" encoding="utf-8"?>
<!-- Generator: Adobe Illustrator 16.0.0, SVG Export Plug-In . SVG Version: 6.00 Build 0)  -->
<!DOCTYPE svg PUBLIC "-//W3C//DTD SVG 1.1//EN" "http://www.w3.org/Graphics/SVG/1.1/DTD/svg11.dtd">
<svg version="1.1" id="Layer_1" xmlns="http://www.w3.org/2000/svg" xmlns:xlink="http://www.w3.org/1999/xlink" x="0px" y="0px"
	 width="150px" height="30px" viewBox="0 0 150 30" enable-background="new 0 0 150 30" xml:space="preserve">
<path fill="#282828" d="M83.973,13.845l-8.354-8.356C75.292,5.163,74.902,5,74.448,5c-0.445,0-0.83,0.163-1.155,0.488L72.33,6.451
	c-0.325,0.308-0.487,0.692-0.487,1.155c0,0.462,0.162,0.847,0.487,1.155l3.762,3.774h-9.037c-0.445,0-0.807,0.16-1.085,0.481
	c-0.278,0.32-0.417,0.708-0.417,1.161v1.644c0,0.453,0.139,0.843,0.417,1.162c0.278,0.32,0.64,0.48,1.085,0.48h9.037l-3.762,3.762
	c-0.325,0.325-0.487,0.715-0.487,1.168c0,0.455,0.162,0.844,0.487,1.168l0.963,0.963C73.627,24.842,74.012,25,74.448,25
	c0.445,0,0.835-0.158,1.168-0.475l8.356-8.356c0.314-0.317,0.475-0.706,0.475-1.169C84.447,14.53,84.289,14.145,83.973,13.845z"/>
<path fill="#282828" d="M36.027,16.154l8.356,8.355c0.325,0.327,0.715,0.49,1.169,0.49c0.445,0,0.83-0.163,1.155-0.488l0.963-0.963
	c0.325-0.308,0.487-0.691,0.487-1.154s-0.162-0.848-0.487-1.154l-3.762-3.774h9.037c0.445,0,0.807-0.159,1.085-0.479
	c0.278-0.32,0.417-0.709,0.417-1.161v-1.644c0-0.453-0.139-0.841-0.417-1.161c-0.278-0.321-0.64-0.481-1.085-0.481h-9.037
	l3.762-3.762c0.325-0.325,0.487-0.715,0.487-1.168c0-0.454-0.162-0.843-0.487-1.168l-0.963-0.963C46.373,5.158,45.988,5,45.552,5
	c-0.445,0-0.835,0.158-1.168,0.475l-8.356,8.356c-0.316,0.317-0.475,0.706-0.475,1.169C35.553,15.47,35.711,15.855,36.027,16.154z"
	/>
<path fill="#282828" d="M115.582,15.984c-0.672-0.841-1.531-1.387-2.577-1.636c0.33-0.499,0.495-1.055,0.495-1.666
	c0-0.854-0.302-1.582-0.906-2.187c-0.603-0.603-1.332-0.906-2.185-0.906c-0.765,0-1.433,0.25-2.005,0.75
	c-0.478-1.159-1.232-2.09-2.275-2.789c-1.043-0.701-2.191-1.051-3.447-1.051c-1.705,0-3.162,0.604-4.371,1.811
	c-1.207,1.207-1.811,2.664-1.811,4.371c0,0.104,0.007,0.277,0.021,0.519c-0.948,0.443-1.703,1.106-2.269,1.991
	c-0.563,0.886-0.846,1.852-0.846,2.898c0,1.489,0.528,2.765,1.587,3.82c1.061,1.06,2.333,1.589,3.822,1.589h13.137
	c1.279,0,2.373-0.452,3.275-1.357c0.906-0.906,1.358-1.998,1.358-3.276C116.591,17.785,116.255,16.826,115.582,15.984z
	 M108.742,16.448l-4.237,4.239c-0.071,0.07-0.165,0.106-0.278,0.106c-0.109,0-0.205-0.036-0.274-0.106l-4.251-4.25
	c-0.073-0.074-0.109-0.164-0.109-0.278c0-0.104,0.038-0.194,0.115-0.271c0.077-0.078,0.167-0.115,0.271-0.115h2.705v-4.25
	c0-0.104,0.039-0.194,0.113-0.272c0.077-0.076,0.167-0.113,0.271-0.113h2.316c0.106,0,0.196,0.037,0.272,0.113
	c0.075,0.078,0.116,0.168,0.116,0.272v4.25h2.701c0.111,0,0.207,0.037,0.277,0.106c0.073,0.072,0.107,0.165,0.107,0.278
	C108.863,16.257,108.823,16.352,108.742,16.448z"/>
<g>
	<path fill="#282828" d="M130.085,14.812c0.78-0.36,1.526-0.539,2.239-0.539h9.453v-1.818c0-0.697-0.25-1.296-0.75-1.796
		s-1.098-0.75-1.797-0.75h-6.183V9.545c0-0.697-0.25-1.295-0.749-1.794C131.8,7.25,131.202,7,130.505,7h-3.636
		c-0.697,0-1.296,0.25-1.796,0.75s-0.749,1.098-0.749,1.794v10.909c0,0.029,0.002,0.076,0.006,0.143
		c0.004,0.064,0.005,0.109,0.005,0.141l0.058-0.066l3.83-4.499C128.684,15.625,129.305,15.171,130.085,14.812z"/>
	<path fill="#282828" d="M145.374,15.875c-0.201-0.1-0.431-0.148-0.688-0.148h-12.36c-0.5,0-1.046,0.135-1.632,0.403
		c-0.588,0.271-1.045,0.597-1.368,0.984l-3.818,4.499c-0.233,0.265-0.354,0.516-0.354,0.748c0,0.229,0.103,0.391,0.304,0.49
		c0.201,0.099,0.429,0.146,0.688,0.146h12.361c0.5,0,1.044-0.135,1.631-0.402c0.588-0.271,1.045-0.599,1.37-0.982l3.815-4.499
		c0.234-0.269,0.354-0.517,0.354-0.751C145.676,16.137,145.574,15.973,145.374,15.875z"/>
</g>
<path id="Shape_20_" fill="#282828" d="M25.335,16.441c-0.074,0.074-0.173,0.125-0.274,0.147h-0.05
	c-0.097,0-0.198-0.022-0.298-0.099l-9.72-8.105L5.296,16.49c-0.098,0.072-0.223,0.124-0.348,0.099
	c-0.099-0.022-0.223-0.073-0.299-0.147L3.78,15.397c-0.147-0.174-0.124-0.473,0.074-0.621l10.094-8.404
	c0.597-0.497,1.542-0.497,2.139,0l3.431,2.859V6.498c0-0.249,0.198-0.448,0.446-0.448h2.687c0.247,0,0.447,0.199,0.447,0.448v5.718
	l3.083,2.562c0.148,0.148,0.197,0.447,0.024,0.621L25.335,16.441L25.335,16.441z M23.098,23.104c0,0.498-0.424,0.896-0.895,0.896
	h-5.395v-5.396h-3.605V24H7.809c-0.498,0-0.896-0.422-0.896-0.896v-6.734v-0.075l8.081-6.663l8.079,6.663v0.075v6.734H23.098z"/>
</svg>
