<?xml version="1.0" encoding="utf-8"?>
<!-- Generator: Adobe Illustrator 16.0.0, SVG Export Plug-In . SVG Version: 6.00 Build 0)  -->
<!DOCTYPE svg PUBLIC "-//W3C//DTD SVG 1.1//EN" "http://www.w3.org/Graphics/SVG/1.1/DTD/svg11.dtd">
<svg version="1.1" id="Layer_1" xmlns="http://www.w3.org/2000/svg" xmlns:xlink="http://www.w3.org/1999/xlink" x="0px" y="0px"
	 width="60px" height="60px" viewBox="0 0 60 60" enable-background="new 0 0 60 60" xml:space="preserve">
<path fill="#FFFFFF" d="M30,0C13.432,0,0,13.432,0,30s13.432,30,30,30s30-13.432,30-30S46.568,0,30,0z M20.997,45
	C17.687,45,15,42.316,15,39.002s2.687-6.001,5.998-6.001c3.314,0,6.003,2.687,6.003,6.001S24.312,45,20.997,45z M39.002,45
	c-1.659,0-3.159-0.67-4.245-1.756l-18-18.004C15.67,24.154,15,22.662,15,20.999C15,17.688,17.687,15,20.998,15
	c1.657,0,3.159,0.67,4.246,1.757l17.999,18.002C44.33,35.848,45,37.337,45,39.002C45,42.316,42.312,45,39.002,45z M39.002,26.998
	c-3.314,0-6.002-2.686-6.002-5.999C33,17.688,35.688,15,39.002,15C42.312,15,45,17.688,45,20.999
	C45,24.312,42.312,26.998,39.002,26.998z"/>
</svg>
