<?xml version="1.0" standalone="no"?>
<!DOCTYPE svg PUBLIC "-//W3C//DTD SVG 1.1//EN" "http://www.w3.org/Graphics/SVG/1.1/DTD/svg11.dtd" >
<svg xmlns="http://www.w3.org/2000/svg">
<metadata></metadata>
<defs>
<font id="garamond_premr_proregular" horiz-adv-x="995" >
<font-face units-per-em="2048" ascent="1485" descent="-563" />
<missing-glyph horiz-adv-x="407" />
<glyph unicode="&#xfb01;" horiz-adv-x="1052" d="M55 14q0 19 43 31q49 15 63.5 31t22.5 63q6 41 6 535q0 5 -7.5 13t-14.5 9q-9 1 -33.5 5.5t-40.5 5.5q-7 0 -11.5 7.5t-2.5 14.5q6 24 92 68q18 13 18 26q0 177 56 305q69 156 178 236q126 98 260 98q155 0 217 -92q19 -24 19 -47q0 -33 -41 -66.5t-64 -33.5 q-14 0 -80 63q-68 71 -168 74q-74 0 -127 -64q-98 -114 -98 -475q0 -5 9 -12.5t20 -7.5q27 -2 184 -2q35 1 55.5 0t45.5 1t37 2t30 3t24 3.5t19 4t16 4t14 4t13 4.5q50 15 63 15q4 0 6 -7t2 -24t-0.5 -36t-1.5 -52.5t-1 -63.5q0 -468 6 -536q3 -28 22 -42t68 -28 q27 -8 35 -15.5t8 -19.5q0 -22 -47 -22q-25 0 -78 3t-80 3q-38 0 -96 -4t-80 -4q-39 0 -39 22q0 17 43 33q43 18 60 33.5t18 40.5q10 212 10 549q0 8 -9 18t-16 12q-45 6 -158 6.5t-184 -6.5q-4 0 -12 -8.5t-8 -17.5q0 -395 6 -518q3 -51 20 -68t87 -37q43 -16 43 -35 q0 -22 -45 -22q-15 0 -81 3t-104 3q-41 0 -101 -5t-69 -5q-19 0 -30 7t-11 17z" />
<glyph unicode="&#xfb02;" horiz-adv-x="1058" d="M53 14q0 18 47 31q75 21 84 84q6 45 6 533q0 31 -20 34l-76 11q-12 4 -12 12q0 15 14.5 28t40.5 27.5t31 18.5q22 16 22 34q2 104 27 211q49 217 195 336q109 86 247 86q41 0 113 -35q12 -6 35 7q37 22 61 22q15 0 15 -33l-1 -131q-2 -130 -3.5 -297.5t-1.5 -259.5 q0 -551 2 -590q2 -38 20.5 -58.5t69.5 -33.5q18 -4 30.5 -12t12.5 -14q0 -29 -45 -29q-21 0 -84 2t-84 2q-45 1 -91 -2.5t-53 -3.5q-55 0 -55 24q0 18 43 31q47 12 62 36.5t18 70.5q4 74 5 160t0.5 194.5t0.5 167.5q0 24 -16 24q-27 1 -174.5 3.5t-178.5 3.5q-7 0 -12.5 -8 t-5.5 -21q-1 -50 -0.5 -218.5t2.5 -250.5q1 -65 9.5 -94.5t26.5 -41.5t62 -22q50 -14 50 -30q0 -11 -17.5 -20t-32.5 -9q-30 0 -83 3t-72 3q-67 0 -122.5 -4t-66.5 -4q-18 0 -31.5 6t-13.5 16zM342 817q0 -7 8 -11.5t15 -4.5q-1 0 14.5 -0.5t40.5 -0.5t57 -0.5t66.5 -1 t66 -0.5t59 1t42.5 2q7 1 12.5 8.5t5.5 15.5q-1 21 -10 342q-3 113 -19 129q-23 23 -32 31.5t-41 21.5t-72 13q-95 0 -147 -86q-66 -112 -66 -459z" />
<glyph unicode="&#xfb03;" horiz-adv-x="1593" d="M49 14q0 8 13 18.5t30 14.5q65 19 79 41.5t19 97.5q-1 24 0.5 230.5t-0.5 259.5q0 8 -6.5 14t-15.5 8l-74 2q-22 0 -22 37q1 4 18.5 14.5t42.5 24.5t35 21q11 7 15.5 11t8 9.5t3.5 13.5q0 151 57 275q30 64 83.5 124t117.5 99q119 80 239 80q146 0 221 -78q7 -10 17 0 q55 57 137 94t160 37q148 0 215 -92q16 -24 16 -47q0 -33 -40 -66.5t-64 -33.5q-8 0 -78 63q-68 71 -162 74q-71 0 -127 -62q-102 -119 -102 -475q0 -20 16 -20q21 0 87.5 -1t109.5 -1q84 -1 140 4t68.5 8.5t43.5 13.5q6 2 18 6.5t20.5 6.5t16.5 2t10 -39.5t2 -143.5 q0 -468 6 -536q3 -28 22 -42t68 -28q28 -10 35.5 -17t7.5 -18q0 -22 -47 -22q-25 0 -78 3t-81 3q-37 0 -95 -4t-79 -4q-39 0 -39 24q0 17 43 33q42 15 59 30.5t18 41.5q11 175 11 549q0 8 -7 17t-14 11q-46 6 -163 7.5t-189 -5.5q-1 0 -4.5 -2t-6.5 -7t-3 -11q0 -456 4 -510 v-10q0 -32 1.5 -45t13.5 -28.5t36 -23.5t70 -18q45 -10 45 -33q0 -10 -16 -16t-36 -6q-9 0 -87.5 4t-108.5 4q-40 0 -96.5 -4t-77.5 -4q-18 0 -31.5 6t-13.5 16t13 19t28 12q67 18 84.5 44t17.5 99q0 29 2 231t2 269q0 6 -6.5 12.5t-11.5 6.5h-353q-20 0 -20 -48 q0 -436 8 -487q5 -50 25.5 -76.5t72.5 -40.5q56 -15 56 -37q0 -12 -18 -19t-42 -7q-12 0 -91 4t-101 4q-40 0 -96.5 -5t-57.5 -5q-19 0 -33 7t-14 17zM342 823q0 -8 5.5 -16t14.5 -8h351q6 0 12 5t6 11q0 212 94 385q5 10 -4 23q-79 96 -235 96q-92 0 -162 -98 q-36 -46 -59 -147.5t-23 -250.5z" />
<glyph unicode="&#xfb04;" horiz-adv-x="1593" d="M53 12q0 8 10.5 17.5t28.5 13.5q63 19 78 43.5t20 99.5q-1 28 -1 119.5t0.5 213.5t0.5 157q0 6 -7 13.5t-17 8.5q-58 12 -66 13q-16 0 -16 34q0 4 14 12t36.5 18.5t33.5 17.5q25 17 25 34q0 148 63 285q28 64 81.5 125t117.5 100q110 74 237 74q58 0 117.5 -20.5 t91.5 -53.5q9 -9 14 0q60 60 122 91.5t139 31.5q61 0 133 -35q11 -7 22 -2q44 31 72 31q14 0 14 -33l-1 -131q-2 -130 -3.5 -297.5t-1.5 -259.5q0 -551 2 -590q2 -38 20.5 -58.5t69.5 -33.5q18 -4 30.5 -12t12.5 -14q0 -29 -45 -29q-21 0 -84 2t-84 2q-43 1 -89.5 -2.5 t-53.5 -3.5q-55 0 -55 24q0 20 43 33q47 14 63 37t19 68q4 74 5 160.5t0.5 195.5t0.5 168q0 11 -3.5 18t-7.5 7q-69 2 -176 2t-186 2q-12 0 -12 -27q0 -26 1 -262.5t1 -247.5q0 -35 2 -49.5t14.5 -31t37.5 -24.5t73 -18q43 -12 43 -35q0 -10 -14.5 -16t-34.5 -6q-9 0 -90 4 t-111 4q-40 0 -94.5 -4t-75.5 -4q-18 0 -33.5 8t-15.5 18t13.5 19t29.5 12q68 19 86 43t18 96v502q0 17 -10 17h-363q-18 0 -18 -48q0 -18 3 -253.5t3 -245.5q0 -46 22 -69t78 -38q54 -15 54 -35q0 -12 -17 -19t-41 -7q-12 0 -91 4t-101 4q-40 0 -95 -4t-57 -4q-45 0 -45 20 zM342 823q0 -24 23 -24h356q10 0 10 16q0 220 90 389q2 1 0.5 9t-4.5 12q-79 96 -235 96q-91 0 -160 -96q-36 -45 -58 -148.5t-22 -253.5zM881 817q0 -7 7 -11.5t13 -4.5q-1 0 14.5 0t40 -0.5t56.5 -0.5h66h66t59 1t42 2q9 1 15 8.5t6 15.5q-1 21 -3 165t-3 175 q-3 107 -25 129q-15 16 -22 22.5t-25 19.5t-41 18.5t-53 5.5q-92 0 -142 -88q-31 -53 -51 -172t-20 -285z" />
<glyph horiz-adv-x="2048" />
<glyph horiz-adv-x="2048" />
<glyph unicode="&#xd;" horiz-adv-x="2048" />
<glyph unicode=" "  horiz-adv-x="407" />
<glyph unicode="&#x09;" horiz-adv-x="407" />
<glyph unicode="&#xa0;" horiz-adv-x="407" />
<glyph unicode="!" horiz-adv-x="595" d="M201 106q0 63 44 96.5t85 33.5q62 0 93.5 -42.5t31.5 -87.5q0 -55 -36 -93t-91 -38q-48 0 -87.5 33t-39.5 98zM221 1087q-5 83 33.5 124.5t77.5 41.5q55 0 83.5 -52.5t26.5 -117.5q-2 -25 -18 -168.5t-33 -288.5t-18 -157q-2 -24 -13.5 -49t-27.5 -25q-14 0 -27 24 t-14 58q-1 13 -32 262.5t-38 347.5z" />
<glyph unicode="&#x22;" horiz-adv-x="618" d="M86 1303q0 6 4.5 19.5t9.5 16.5q1 1 15 12.5t25 19.5t26 18.5t27.5 16t21.5 5.5q16 0 24.5 -15.5t8.5 -27.5q0 -75 -55 -362q-21 -62 -46 -62q-10 0 -17 16.5t-9 34.5q-35 289 -35 308zM375 1329q0 10 10.5 24t20.5 19q2 1 20 12.5t30.5 19t29 14.5t26.5 7t18.5 -11 t8.5 -32q0 -56 -17.5 -171.5t-36.5 -194.5q-11 -68 -43 -68q-5 0 -9.5 5t-7.5 12.5t-5.5 14t-4 13.5t-1.5 8q-11 104 -20.5 180t-13.5 105.5t-5 42.5z" />
<glyph unicode="#" d="M55 444q6 32 19.5 60t25.5 28l150 9q16 0 18 14l56 221q0 17 -9 17l-170 -5q1 0 -0.5 8t-3 22t1.5 34q4 14 15.5 36t19.5 23l166 9q3 0 7.5 4t4.5 6l82 317q4 9 23.5 16t38.5 7q5 0 12.5 -7.5t7.5 -11.5l-80 -315q0 -12 6 -12l211 6q10 0 13 16l82 322q7 20 63 20 q3 0 7 -2.5t7 -9.5t0 -16l-79 -310q-4 -18 4 -18l155 2q4 -9 6.5 -27.5t-0.5 -25.5q-17 -70 -32 -70l-156 -6q-7 0 -12 -21l-56 -219q-2 -5 0.5 -9t6.5 -3l165 6q7 0 11 -18t2 -29q-4 -24 -18 -51t-29 -27l-162 -6q-10 0 -12 -14l-93 -351q-3 -12 -20 -20t-35 -8 q-10 0 -19 5.5t-5 16.5l88 351q1 7 -2 12.5t-7 5.5l-198 -8q-3 0 -12 -7t-9 -10l-94 -354q-3 -10 -20.5 -16t-26.5 -6q-10 0 -21.5 10t-9.5 16l88 344q5 21 -12 21l-145 -4q-4 0 -9.5 14t-5.5 18zM348 559q-2 -4 2.5 -10.5t9.5 -5.5l201 8q14 0 17 16l53 213q1 4 1 9t-1.5 9 t-5.5 3l-205 -6q-13 0 -17 -17z" />
<glyph unicode="$" d="M96 293q0 11 5 23t14 12q17 0 32.5 -20t42.5 -68q42 -76 91.5 -117.5t115.5 -59.5q13 -3 13 9l51 485q0 14 -6 18q-63 31 -110 62t-93.5 76t-71.5 104t-26 129q0 120 96 213q46 50 122.5 80t162.5 31q7 0 10 10l16 137q0 6 10 6q16 0 34 -6.5t18 -13.5l-13 -121 q0 -12 8 -12q25 -3 54 -9t47.5 -11.5t44.5 -13.5t31 -9q4 -1 7.5 -3.5t6.5 -6.5t5 -7.5t4 -9.5l3.5 -10.5t4 -13t3.5 -13.5q15 -87 15 -116q0 -54 -19 -54t-34 37q-47 128 -181 172q-4 2 -9 -3t-5 -11l-45 -457q0 -10 8 -18q183 -87 256.5 -172t73.5 -205q0 -148 -150 -260 q-33 -27 -110.5 -49t-145.5 -29q-6 0 -10 -5t-4 -11l-20 -154q-3 -6 -16 -11t-21 -3q-15 0 -27 12l16 158q0 14 -8 14q-61 6 -114 20q-20 5 -113 33q-31 3 -39 49q-5 24 -18 105.5t-13 87.5zM295 981q0 -75 51 -131t127 -92q4 -2 8 1t4 7l47 424q0 16 -10 16 q-100 -3 -163.5 -63t-63.5 -162zM479 70q0 -4 3 -7.5t5 -3.5q103 11 175.5 72.5t72.5 157.5q0 82 -44.5 136.5t-151.5 113.5q-13 0 -13 -11z" />
<glyph unicode="%" horiz-adv-x="1484" d="M84 915q0 73 17.5 138.5t52.5 120t93 86.5t132 32q70 0 127 -35t90 -90t50.5 -115t17.5 -116q0 -70 -17.5 -135.5t-52 -121t-93 -89t-132.5 -33.5q-73 0 -129.5 32t-89.5 85t-49.5 114.5t-16.5 126.5zM225 940q0 -47 8.5 -99.5t26.5 -106.5t52 -89t79 -35q32 0 56.5 23 t38.5 56.5t22.5 78t11 80.5t2.5 72q0 44 -7 92.5t-23 102.5t-50.5 89t-81.5 35q-40 0 -69 -31.5t-42 -82t-18.5 -95.5t-5.5 -90zM297 -4q138 221 414 658t401 636q7 12 17.5 19.5t15.5 7.5q12 0 24.5 -9t18.5 -18.5t4 -11.5q-496 -793 -844 -1337q-4 -4 -20 -2t-21 6 q-27 24 -10 51zM817 330q0 72 18 138t52.5 121t92.5 87.5t132 32.5q57 0 105 -23.5t80.5 -61t55.5 -85t33.5 -95.5t10.5 -92q0 -71 -17 -136.5t-51.5 -121.5t-93 -89.5t-133.5 -33.5q-73 0 -129.5 32.5t-89.5 86t-49.5 115t-16.5 125.5zM956 354q0 -46 9 -99t27.5 -106.5 t52.5 -88.5t77 -35q40 0 68.5 33.5t41.5 87t18 99t5 89.5q0 43 -7.5 92t-23.5 103t-50 89t-80 35q-40 0 -69.5 -31.5t-43 -81.5t-19.5 -96t-6 -90z" />
<glyph unicode="&#x26;" horiz-adv-x="1576" d="M84 326q0 46 14 89.5t32.5 74t47.5 62.5t48.5 48.5t45.5 36.5q77 59 123 86q9 5 2 12q-61 48 -99 110.5t-38 125.5q0 125 96 209q41 34 94.5 54.5t100.5 20.5q78 -1 141 -42t95 -98.5t32 -113.5q0 -25 -6 -47.5t-20.5 -42.5t-27 -34.5t-36.5 -31.5t-37 -25.5t-40.5 -24.5 t-35.5 -21q-3 -2 -3 -5t1 -5t2 -2q62 -39 166.5 -139t171.5 -183q10 -11 15.5 -10.5t15.5 10.5q71 72 211 283q25 38 25 61q0 26 -88 43q-14 2 -27.5 9t-13.5 18q0 10 14 17.5t37 7.5q151 0 207 6q135 18 145 18q20 0 32.5 -6.5t12.5 -13.5q0 -21 -45 -33 q-72 -20 -122 -58.5t-122 -117.5q-30 -34 -123 -146.5t-122 -144.5q-10 -15 0 -25q10 -15 49 -70.5t61 -88.5q74 -107 225 -111q84 0 154 45q11 6 17 2.5t6 -10.5q0 -29 -37 -66q-57 -53 -136 -74.5t-141 -19.5q-76 0 -131 21q-51 22 -84 82q-73 134 -96 168q-1 0 -3.5 1.5 t-4 2t-4.5 -1.5q-54 -64 -122.5 -129t-115.5 -93q-96 -55 -194 -55q-150 0 -257.5 104.5t-107.5 260.5zM246 377q0 -56 25 -109.5t67 -89.5q91 -80 203 -80q75 0 158.5 54.5t138.5 128.5q13 19 -9 47q-69 95 -193 214t-169 144q-20 14 -45 -4q-176 -135 -176 -305zM395 1032 q0 -65 48 -127t114 -102q15 -7 29 2q19 12 55 53q37 43 37 141q0 28 -8.5 59.5t-25.5 63t-49.5 52.5t-74.5 22q-38 0 -81.5 -41t-43.5 -123z" />
<glyph unicode="'" horiz-adv-x="356" d="M88 1313q0 4 4.5 16t9.5 17q19 19 62.5 46t66.5 27q29 0 29 -43q2 -98 -53 -364q-3 -10 -8.5 -22.5t-17 -27t-21.5 -14.5t-20.5 18.5t-12.5 37.5q-19 222 -39 309z" />
<glyph unicode="(" horiz-adv-x="698" d="M154 532q0 156 32.5 307.5t86 271.5t113 212.5t122.5 157.5q13 13 31.5 25t27.5 12q19 0 34 -9.5t15 -19.5q0 -17 -20 -37q-149 -136 -240.5 -375.5t-91.5 -498.5q0 -146 15.5 -263.5t33 -193.5t68.5 -172t82 -143.5t113 -163.5l6 -9q19 -23 4 -41q-26 -22 -45 -22 q-28 0 -62 37q-163 183 -244 418.5t-81 506.5z" />
<glyph unicode=")" horiz-adv-x="698" d="M88 -399q-7 10 16 39q147 153 237.5 383.5t90.5 482.5q0 169 -21.5 303.5t-68 246t-100.5 196.5t-138 190q-13 23 5 41q22 22 45 22q35 0 69 -39q316 -384 316 -911q0 -155 -32.5 -305t-86.5 -268t-112.5 -209t-121.5 -156q-13 -13 -32 -26t-27 -13q-30 0 -39 23z" />
<glyph unicode="*" horiz-adv-x="669" d="M61 1151q0 29 48 14q16 -4 163 -61q1 -1 3.5 -0.5t5 3.5t2.5 7q-7 160 -2 191q3 29 20 32q7 1 15.5 -7.5t13.5 -20.5q7 -19 13 -45.5t14.5 -73t13.5 -68.5q5 -9 14 -2q94 64 147 88q50 14 50 -10q0 -14 -23 -37q-37 -42 -133 -108q-9 -9 2 -17q115 -65 158 -100 q28 -20 28 -31q0 -27 -51 -16q-74 17 -168 65q-1 1 -3.5 -0.5t-4.5 -4.5t-2 -7q2 -59 2 -154q0 -54 -25 -59q-24 0 -38 41q-17 60 -29 168q-4 13 -12 10q-99 -60 -162 -82q-20 -7 -34.5 -3t-14.5 14t7 21.5t15 16.5q30 26 137 99q7 14 -2 18q-93 47 -143 84q-25 17 -25 35z " />
<glyph unicode="+" horiz-adv-x="1277" d="M123 516q0 21 9.5 39t21.5 18l413 -2q6 0 9.5 5t3.5 10v436q0 11 35 20t61 9q13 0 22 -8.5t9 -14.5l-7 -444q0 -13 13 -13l424 4q5 0 10.5 -9.5t5.5 -18.5q0 -34 -9.5 -56t-19.5 -22l-411 -6q-13 0 -13 -19l-4 -442q0 -11 -26.5 -22t-63.5 -11q-8 0 -16 8t-8 15l-2 448 q0 9 -4 16t-9 7l-401 2q-26 0 -34.5 13t-8.5 38z" />
<glyph unicode="," horiz-adv-x="419" d="M68 -199q0 18 36 33q121 74 121 150q0 45 -59 65q-78 27 -78 86q0 46 30.5 70t65.5 24q62 0 109 -52t47 -138q0 -52 -20.5 -97t-50.5 -73t-64 -48.5t-60.5 -29t-40.5 -8.5q-36 0 -36 18z" />
<glyph unicode="-" horiz-adv-x="598" d="M72 387q0 36 11.5 60t22.5 26q125 18 398 45q3 0 9.5 -8t6.5 -14q0 -31 -10 -64.5t-27 -34.5q-121 -14 -379 -39q-13 -1 -22.5 8t-9.5 21z" />
<glyph unicode="." horiz-adv-x="419" d="M96 92q0 57 38.5 88t74.5 31q59 0 87 -39t28 -80q0 -50 -32.5 -84.5t-82.5 -34.5q-44 0 -78.5 29.5t-34.5 89.5z" />
<glyph unicode="/" horiz-adv-x="825" d="M90 -98q74 191 265 672.5t292 744.5q15 31 31 31q22 0 49 -11q8 -3 12.5 -11t1.5 -17q-97 -252 -285.5 -722t-273.5 -689q-8 -20 -17.5 -28.5t-17.5 -6.5q-26 0 -43 10q-6 3 -11 12.5t-3 14.5z" />
<glyph unicode="0" d="M78 623q0 232 70.5 389t177.5 225q86 55 188 55q93 0 166.5 -46t117 -115.5t72.5 -158.5t39.5 -167.5t10.5 -151.5q0 -231 -69 -394.5t-165 -225.5q-92 -61 -188 -58q-88 2 -161 45t-120 110t-79 153.5t-46 171.5t-14 168zM250 647q0 -94 14.5 -193.5t44.5 -198 t86.5 -161.5t130.5 -63q24 0 48.5 13t42.5 33t27.5 32t14.5 20q80 153 80 512q0 225 -49.5 369t-103.5 182q-56 39 -107 39q-36 0 -64.5 -17.5t-60.5 -60.5q-104 -157 -104 -506z" />
<glyph unicode="1" d="M219 10q0 24 68 41q77 18 104.5 43t34.5 88q14 119 14 594q0 277 -8 318q-7 34 -45 41q-12 2 -32.5 5t-35.5 5.5t-24 5.5q-23 6 -31 12t-8 17q0 8 13 17.5t28 12.5q11 2 45 8.5t49 10t40.5 10t44.5 14.5t36 17l78 39q10 1 16 -6t6 -15q0 -2 -3.5 -73.5t-2.5 -161.5 q0 -569 2 -811q0 -40 1 -61t5.5 -43t12 -32.5t23.5 -22t36.5 -18t54.5 -14.5q54 -11 54 -37q0 -22 -50 -22q-24 0 -94.5 4t-103.5 4q-69 0 -171 -5t-106 -5q-51 0 -51 20z" />
<glyph unicode="2" d="M70 16q-6 19 26 47q94 86 326 377q211 270 211 457q0 126 -67 189t-169 63q-81 0 -145.5 -36.5t-106.5 -90.5q-34 -43 -43 -43q-5 0 -13.5 11.5t-8.5 17.5q0 29 26 67q142 217 369 217q137 0 232.5 -102.5t95.5 -243.5q0 -83 -47 -181t-115 -179q-24 -28 -106 -123.5 t-141.5 -164t-123.5 -138.5q-4 -3 -2.5 -9t6.5 -8q65 -6 242 -5.5t227 7.5q47 8 77 24t67 56q31 35 41 35q9 0 14 -8t3.5 -23t-11.5 -34q-54 -117 -64 -185q-4 -18 -30 -18q-2 0 -112.5 2t-238.5 4t-170 2q-132 0 -206 -6q-10 -2 -26 5t-17 17z" />
<glyph unicode="3" d="M86 -2q0 23 16 47q25 39 56 39q16 0 49 -29q84 -73 207 -73q38 0 86 14.5t84 44.5q67 53 100 130.5t33 147.5q0 144 -74 224q-64 69 -184 69q-29 0 -77 -9t-83 -25q-7 -3 -12.5 2.5t-3.5 13.5q0 11 10 28t20 25q30 20 101 58q110 55 153 117t43 141q0 84 -58 143t-140 59 q-132 0 -226 -114q-29 -37 -43 -37q-18 0 -18 28q0 19 32.5 66t80.5 88q110 96 251 96q69 0 126 -26t90 -65.5t51 -82.5t18 -82q0 -97 -72 -174q-56 -59 -120 -102q-11 -15 4 -21q173 -37 248 -129q57 -70 57 -188q0 -125 -81 -244t-214 -196q-147 -86 -303 -86 q-85 0 -146 29.5t-61 72.5z" />
<glyph unicode="4" d="M14 412q0 6 2.5 13t9 17t11.5 16.5t16.5 21.5t16.5 22l657 899q21 29 39 29h22q29 0 29 -17q0 -9 -10 -22l-649 -877q-7 -12 4 -16q61 -5 237 -5.5t197 1.5q10 10 10 14l2 391q0 4 7 16t12 15q17 12 59.5 24.5t67.5 12.5q18 0 18 -54v-403q0 -5 3.5 -10.5t6.5 -5.5l185 4 q5 0 8.5 -6t3.5 -13q0 -18 -10.5 -46.5t-22.5 -33.5l-162 2q-3 0 -7.5 -5.5t-4.5 -8.5v-168q2 -46 5.5 -71t8.5 -44t19 -28.5t29.5 -15t46.5 -11.5q45 -10 45 -33q0 -24 -47 -24q-25 -1 -95 3.5t-98 4.5q-36 0 -107 -5t-106 -5q-24 0 -38.5 7.5t-14.5 18.5q0 8 15 18.5 t38 14.5q80 15 99.5 42t24.5 100v7t0.5 6t0.5 7q6 123 6 162q0 23 -10 26q-21 4 -252 3.5t-291 -7.5q-13 -1 -25 4t-12 13z" />
<glyph unicode="5" d="M135 793q0 40 35.5 159.5t67.5 194.5q9 21 23.5 45t21.5 25q41 17 218.5 45t272.5 28q3 0 10 -8t7 -10q0 -55 -41 -107.5t-64 -54.5q-337 -22 -389 -27q-6 0 -15 -6t-10 -12q-41 -120 -43 -129q-1 -10 3 -18.5t12 -10.5q97 -21 222 -68t185 -83q104 -62 159.5 -156 t55.5 -199q0 -206 -182 -358q-91 -76 -225.5 -118t-231.5 -42q-41 0 -47 2q-28 3 -28 17q0 7 14.5 22.5t26.5 18.5q98 9 186.5 38.5t161 78.5t115 123.5t42.5 164.5q0 97 -54.5 175.5t-151.5 121.5q-164 70 -330 100q-6 1 -16.5 20.5t-10.5 27.5z" />
<glyph unicode="6" d="M82 455q0 125 42.5 249.5t114.5 228t158.5 188t182.5 145.5q101 64 191 100.5t142 36.5q14 0 27.5 -5.5t13.5 -17.5q0 -13 -34 -29q-4 -2 -7 -3q-180 -72 -344 -220q-143 -129 -228 -304.5t-85 -356.5q0 -102 34.5 -195t105.5 -156t163 -63q66 0 111 33q46 34 75 97.5 t29 152.5q0 135 -66.5 208.5t-168.5 73.5q-24 0 -72.5 -15.5t-77.5 -29.5q-4 -2 -11 3.5t-7 13.5q0 21 22 45q14 16 51 40.5t66 35.5q68 37 129 37q138 0 213.5 -93t75.5 -229q0 -119 -50.5 -211.5t-134.5 -153.5q-115 -88 -251 -88q-189 0 -299.5 132.5t-110.5 349.5z" />
<glyph unicode="7" d="M37 987q0 19 22 80q11 26 19 54t11.5 45.5t7.5 39.5t5 27q3 29 21 47q10 8 29 0q36 -14 327 -14q141 -2 336 6q106 4 107 4q30 0 34 -12q0 -12 -16 -39q-24 -33 -176 -334.5t-258 -525.5q-192 -400 -205 -433q-12 -28 -29 -28q-20 0 -35.5 14t-15.5 27t19 47 q30 61 246 487t302 613q2 2 -1.5 8t-6.5 6q-126 14 -432 14q-82 0 -123 -8q-39 -3 -63 -24.5t-64 -81.5q-8 -15 -22 -30t-21 -15q-18 0 -18 26z" />
<glyph unicode="8" d="M111 279q0 46 13 86.5t38 73t44 51t48 42.5q108 88 131 103q1 2 0.5 6t-2.5 6q-104 73 -164 150q-76 92 -76 204q0 74 31 134t80 100q54 46 123.5 70t136.5 24q149 0 248.5 -86t99.5 -219q0 -116 -112 -209q-17 -16 -40 -32.5t-56.5 -37.5t-43.5 -28q-6 -3 -6.5 -9.5 t2.5 -9.5q52 -39 88.5 -70.5t84.5 -83t74 -109.5t26 -118q0 -80 -41.5 -150t-106.5 -116q-104 -78 -252 -78q-91 0 -164 28.5t-116 74t-65.5 98t-22.5 105.5zM268 301q0 -91 66 -186q34 -37 82.5 -60.5t91.5 -23.5q97 0 151 63t54 160q0 54 -20.5 103t-62 93.5t-76.5 74 t-91 69.5q-7 5 -17.5 9t-13.5 1q-63 -43 -113.5 -133t-50.5 -170zM293 1061q0 -50 17.5 -94t55 -84t74 -69.5t95.5 -70.5q15 -10 24 -4q62 46 92 95q60 107 60 204q0 16 -6.5 42t-23 60.5t-40 63.5t-62.5 49.5t-85 20.5q-79 0 -140 -57t-61 -156z" />
<glyph unicode="9" d="M84 860q0 66 19 130.5t71 133t131 113.5q44 26 105 40.5t108 14.5q97 0 174 -42.5t123.5 -112.5t71 -154t24.5 -174q0 -143 -66.5 -304.5t-182.5 -302.5t-254 -227q-82 -51 -137 -71.5t-109 -20.5q-12 0 -25.5 7.5t-13.5 15.5q0 10 29 20q202 100 352 281 q100 116 163.5 277.5t63.5 314.5q0 106 -35.5 210.5t-105.5 161.5q-57 46 -139 46q-93 0 -155.5 -80.5t-62.5 -178.5q0 -145 71 -223t190 -78q20 0 40.5 4.5t29.5 8t29 13t21 9.5q7 3 15 -0.5t8 -9.5q0 -15 -10 -35q-8 -20 -37 -43q-40 -35 -100.5 -56.5t-102.5 -21.5 q-135 0 -219 95.5t-84 238.5z" />
<glyph unicode=":" horiz-adv-x="505" d="M139 94q0 58 39 86.5t76 28.5q56 0 83.5 -38t27.5 -79q0 -47 -33 -81t-80 -34q-42 0 -77.5 29t-35.5 88zM139 629q0 31 12.5 54.5t32 35t37.5 17t33 5.5q56 0 83.5 -37.5t27.5 -78.5q0 -47 -33 -81t-80 -34q-43 0 -78 29t-35 90z" />
<glyph unicode=";" horiz-adv-x="505" d="M115 -201q0 20 26 35q119 69 119 150q0 39 -45 55q-29 7 -57.5 29t-28.5 59q0 45 31 69.5t65 24.5q62 0 108 -50.5t46 -135.5q0 -51 -19.5 -95.5t-48.5 -72t-62 -47.5t-58.5 -28.5t-40.5 -8.5q-35 0 -35 16zM139 623q0 58 39 87t76 29q56 0 83.5 -37.5t27.5 -78.5 q0 -47 -33 -81t-80 -34q-40 0 -76.5 28t-36.5 87z" />
<glyph unicode="&#x3c;" horiz-adv-x="1200" d="M186 508q0 8 15 31q20 33 63 55l662 371q19 10 25.5 11t15.5 -7q14 -14 25.5 -30t18 -34.5t-9.5 -25.5l-632 -342q-2 -2 -3.5 -4.5t-4 -9t5.5 -9.5l643 -350q4 -6 4 -19.5t-10 -36t-27 -38.5q-8 -5 -17 -4.5t-14 2.5l-674 374q-86 48 -86 66z" />
<glyph unicode="=" horiz-adv-x="1277" d="M123 324q0 22 9.5 42.5t21.5 20.5l976 -2q7 0 15 -10t8 -23q0 -35 -9.5 -55.5t-19.5 -20.5l-972 3q-11 0 -20 15.5t-9 29.5zM123 690q0 22 10 48t21 26l979 8q7 0 13.5 -7.5t6.5 -16.5q0 -38 -5.5 -64.5t-14.5 -26.5h-983q-13 0 -20 12t-7 21z" />
<glyph unicode="&#x3e;" horiz-adv-x="1200" d="M183 891q1 15 11.5 39t26.5 41q7 4 17 4t12 -2q333 -187 676 -383q54 -31 69 -42.5t15 -21.5q0 -11 -15 -30q-21 -34 -63 -56l-662 -372q-18 -10 -24.5 -10t-16.5 8q-14 13 -26 30t-16.5 34.5t10.5 25.5q40 21 281 152.5t358 193.5q4 3 1.5 8.5t-6.5 7.5 q-561 306 -645 352q-4 6 -3 21z" />
<glyph unicode="?" horiz-adv-x="731" d="M203 1155q0 24 23.5 49t56.5 25q46 0 92.5 -26.5t103.5 -74.5q17 -14 50.5 -51.5t72.5 -108.5t39 -132q0 -82 -19.5 -126t-56.5 -83q-35 -24 -180 -105q-12 -5 -19.5 -11.5t-11 -16.5t-5 -16t-2 -21t-1.5 -21q-1 -25 -11 -39t-22 -14q-9 0 -19 18.5t-15 38.5 q-27 116 -27 160q0 49 43 81.5t149 78.5q101 44 101 114q0 37 -5 63.5t-20 53.5t-49 41.5t-86 14.5q-7 0 -41.5 -4.5t-54.5 -4.5q-28 0 -57 36.5t-29 80.5zM227 98q0 60 41.5 91.5t81.5 31.5q60 0 89.5 -40t29.5 -83q0 -52 -34.5 -88.5t-86.5 -36.5q-46 0 -83.5 31.5 t-37.5 93.5z" />
<glyph unicode="@" horiz-adv-x="1789" d="M106 303q0 188 76 356t201 284t288 183.5t335 67.5q166 0 297 -51t211.5 -137t122.5 -194t42 -228q0 -105 -45 -205.5t-122.5 -177.5t-190.5 -124.5t-240 -47.5q-67 0 -103 20.5t-36 44.5q-3 16 16 70l56 162q4 6 -4 9q-6 3 -11 -3q-134 -136 -243.5 -219.5t-188.5 -83.5 q-30 0 -50.5 25t-20.5 61q-2 57 46 152.5t148 217.5q93 113 206.5 206t176.5 93q20 0 44.5 -10t37.5 -24q13 -8 16 2q8 21 21 51.5t14 32.5q3 6 16 12.5t23 5.5q38 0 60 -16q6 -1 9 -11.5t1 -15.5q-30 -73 -69 -172.5t-88 -239.5t-60 -204q-8 -44 8 -64t65 -20 q71 0 145 33.5t135.5 92t100.5 149.5t39 196q0 164 -78 288.5t-211.5 189t-300.5 64.5q-140 0 -263 -45t-213 -124t-155 -184t-97.5 -226.5t-32.5 -249.5q0 -90 22 -176t72 -168t121.5 -143.5t179.5 -98.5t239 -37q128 0 258 50t242 149q5 5 13 7.5t14 -1t6 -14.5 q0 -32 -27 -64q-94 -107 -247.5 -162t-305.5 -55q-110 0 -212.5 25.5t-196 82t-162 139t-109.5 204.5t-41 270zM662 213q0 -45 30 -45q56 0 172 102q77 68 147 166t103 172q4 9 3.5 24.5t-5.5 18.5q-32 35 -96 35q-66 0 -166 -108q-72 -80 -130 -185.5t-58 -179.5z" />
<glyph unicode="A" horiz-adv-x="1384" d="M8 10q0 10 11.5 22t33.5 19q36 12 46.5 16t34 15t31.5 19.5t23.5 26.5t27 40.5t26.5 56.5q25 56 177.5 451t192.5 493q13 26 13 43q0 11 4 17q1 1 61 100q22 25 33 25q14 0 33 -54q12 -40 90 -253q73 -207 169 -462t126 -327q26 -63 45 -99.5t42.5 -58.5t44 -30.5 t60.5 -18.5q49 -15 49 -35q0 -26 -65 -26q-31 0 -120.5 5t-137.5 5q-35 0 -78.5 -2t-67.5 -2q-63 0 -63 24q0 9 12 19t37 14q46 9 66.5 26.5t19.5 36.5t-4 42q-5 24 -13 53.5t-22 71t-23 67.5t-29.5 82t-27.5 76q-5 20 -69 20q-279 0 -336 -8q-12 0 -23 -16 q-41 -102 -73.5 -212t-32.5 -147q0 -16 5 -28t28.5 -29.5t66.5 -30.5q55 -16 55 -37q0 -26 -57 -26q-12 0 -65.5 3t-96.5 3q-44 0 -123.5 -5t-89.5 -5q-47 0 -47 20zM485 629q-1 -2 -1 -4q0 -3 2 -7q4 -4 10 -4q27 1 99 1.5t131 1.5t89 4q3 0 5 6q2 4 1 8q0 190 -159 442 q-4 9 -8.5 9t-8.5 -9q-141 -374 -160 -448z" />
<glyph unicode="B" horiz-adv-x="1206" d="M45 23q0 11 15.5 20t35.5 12q44 8 71.5 17t43 17t23.5 24.5t10.5 27.5t5.5 39q16 115 16 672q0 262 -12 324q-6 27 -13 39t-34 23.5t-82 18.5q-21 3 -37 12.5t-16 20.5q0 12 16.5 19.5t38.5 7.5h137q31 0 156.5 7t169.5 7q197 0 289 -59q71 -44 108 -114t37 -144 q0 -181 -166 -271q-4 -2 -2.5 -8t6.5 -8q252 -113 252 -338q0 -195 -164 -305q-67 -48 -171 -71t-195 -23q-24 0 -160 4t-188 4q-25 0 -70.5 -1t-61.5 -1q-25 0 -42 7t-17 20zM428 394q3 -152 10 -206q6 -43 33 -67q29 -32 71.5 -51t67.5 -19q133 0 222.5 87t89.5 231 q0 89 -46.5 158.5t-123.5 107.5q-74 39 -217 39q-22 0 -43 -3t-33.5 -6.5t-14.5 -5.5q-10 -15 -14 -59q-3 -34 -3 -106q0 -43 1 -100zM428 764q0 -27 23 -27q76 0 164 14t124 37q50 33 81.5 90.5t31.5 120.5q0 125 -78.5 197t-220.5 72q-10 0 -41 -5.5t-47 -11.5 q-3 -2 -13.5 -14t-11.5 -18q-12 -99 -12 -455z" />
<glyph unicode="C" horiz-adv-x="1468" d="M102 674q0 83 22.5 164t58.5 143.5t72.5 108t72.5 75.5q233 189 555 189q98 0 241 -33q29 -4 85.5 -20.5t70.5 -18.5q6 0 12.5 -5t12.5 -19.5t6 -36.5q0 -21 14 -179q1 -30 -8.5 -48.5t-22.5 -18.5q-15 0 -32 53q-13 51 -37.5 94.5t-46.5 59.5q-80 59 -158.5 82.5 t-169.5 23.5q-120 0 -223 -47.5t-172 -127t-107.5 -185t-38.5 -221.5q0 -194 72 -338q41 -85 105 -150.5t135.5 -103t142 -56t135.5 -18.5q129 0 223 55q63 33 107 80.5t84 118.5q33 53 43 53q14 0 18 -23q2 -12 2 -22.5t-2 -21.5q-4 -36 -31 -102.5t-51 -104.5 q-6 -12 -26 -28.5t-37 -25.5q-38 -16 -148.5 -36.5t-224.5 -20.5q-103 0 -200 23.5t-170 61t-125.5 77t-86.5 78.5q-172 198 -172 471z" />
<glyph unicode="D" horiz-adv-x="1546" d="M55 27q0 24 45 28q44 5 70.5 14t44 22t26 40.5t12 56.5t5.5 84q6 144 6 281q0 246 -10 526q-1 40 -2 58t-6 41.5t-12 32.5t-22 20t-36 16t-53 10q-18 3 -32.5 13t-14.5 20q0 27 49 27h57q42 0 227.5 9t282.5 9q102 0 197 -19.5t165.5 -51.5t120.5 -63.5t85 -63.5 q83 -79 134.5 -205t51.5 -248q0 -106 -30.5 -205.5t-80.5 -173t-105 -127.5t-112 -86q-199 -115 -487 -115q-173 0 -402 17q-39 2 -108 2q-66 0 -66 31zM432 543q0 -235 8 -355q3 -28 13.5 -51.5t18 -32t13.5 -12.5q28 -21 80.5 -37t87.5 -16q84 0 194 33.5t189 99.5 q96 82 153.5 214t57.5 298q0 133 -60.5 263.5t-158.5 203.5q-75 56 -192.5 88.5t-233.5 32.5q-110 0 -141 -17q-19 -14 -21 -26q-8 -50 -8 -389v-297z" />
<glyph unicode="E" horiz-adv-x="1153" d="M39 16q0 19 57 33q45 11 66.5 18.5t42.5 23.5t29.5 41.5t11.5 66.5q16 229 16 581q0 316 -2 346q-3 68 -25.5 94.5t-89.5 41.5q-33 8 -46 15t-13 19q0 13 17 21t40 8q43 0 141.5 -4t172.5 -4h301q142 0 188 6q4 1 10.5 -7t8.5 -16q0 -54 2 -117t2 -77q0 -22 -9 -37.5 t-22 -15.5q-23 0 -33 49q-19 76 -50 103.5t-87 35.5q-40 7 -132 9q-42 1 -78 1q-44 0 -81 -2q-3 0 -9 -4t-13 -18t-9 -35q-3 -40 -6 -242q-2 -101 -2 -157.5t2 -67.5q5 -20 15 -20h133q53 0 82.5 0.5t56.5 5.5t38.5 9.5t24.5 19t18.5 27t16.5 40.5q17 43 37 43 q10 0 14.5 -15.5t2.5 -29.5q-7 -100 -7 -148q0 -32 3.5 -75t3.5 -50q1 -27 -5.5 -43t-17.5 -16q-10 0 -20 13.5t-15 31.5q-12 39 -19.5 56t-26 30t-42 16t-74.5 5q-66 4 -202 4q-5 0 -12 -7.5t-7 -11.5q-6 -32 -6 -321q0 -112 21 -170q12 -37 39 -45q88 -15 186 -15 q138 0 194 15q53 13 94 47.5t76 103.5q30 58 48 58q10 -1 14 -19q3 -11 3 -22q0 -8 -1 -15q-2 -15 -33.5 -111t-40.5 -108q-5 -7 -16.5 -15.5t-18.5 -8.5q-1 0 -100 4t-258 8t-307 4q-58 0 -127.5 -5t-104.5 -5q-33 0 -47 5t-14 21z" />
<glyph unicode="F" horiz-adv-x="1079" d="M74 8q0 12 15 23.5t40 17.5q39 10 64.5 23t35.5 28.5t13 25t4 24.5q16 168 16 620q0 314 -4 367q-3 52 -32 81t-97 46q-51 12 -51 34q0 25 57 25q48 0 123.5 -3t103.5 -3h267q54 0 132 1.5t134.5 3t60.5 1.5h4q6 -1 12 -5q8 -6 9 -15q-1 -41 -0.5 -63t3 -68t3.5 -70v-8 q0 -17 -7 -30q-9 -17 -22 -17q-27 0 -45 63q-24 74 -47 97.5t-75 31.5q-47 7 -169 7q-14 0 -26 1q-99 0 -123 -4q-13 -1 -23 -10.5t-10 -15.5q-8 -98 -8 -453q0 -76 21 -76q271 0 295 2q47 4 67.5 22.5t42.5 71.5q7 18 11.5 26.5t11.5 16t16 7.5q18 0 18 -46q0 -12 -5 -60.5 t-5 -68.5q0 -56 2 -100.5t2 -60.5q0 -19 -8 -33t-22 -14q-19 0 -31 43q-14 54 -32 71.5t-52 26.5q-58 10 -137 10q-138 0 -181 -6q-4 0 -9 -9t-7 -16q-1 -13 -1 -38q0 -91 9 -347q1 -23 2.5 -35.5t9 -29t22 -26.5t41 -20.5t65.5 -17.5q49 -9 49 -39q0 -10 -15 -17t-43 -7 q-23 0 -87.5 3t-106.5 3q-46 0 -136.5 -6t-107.5 -6q-57 0 -57 20z" />
<glyph unicode="G" horiz-adv-x="1482" d="M94 653q0 313 232 516q97 86 236 135.5t288 49.5q31 0 60.5 -1.5t59.5 -4.5t50.5 -5.5t50.5 -8.5t42.5 -8t43.5 -9t37 -8q51 -10 78 -17q8 0 16 -13.5t8 -35.5q1 -18 15 -99.5t14 -125.5q0 -20 -8 -32.5t-19 -12.5q-18 0 -36 47q-30 83 -78 143q-40 49 -128 88t-200 39 q-128 0 -234.5 -49.5t-176 -134t-108 -194.5t-38.5 -232q0 -220 92 -373q80 -134 214.5 -208t281.5 -74q30 0 88.5 12.5t95.5 36.5q12 7 27.5 46t15.5 60q0 176 -6 213q-5 17 -9.5 27t-17 23.5t-30.5 21t-50 14.5t-77 10q-23 1 -38.5 12t-15.5 23q0 11 17 20t45 9 q16 0 115 -4t131 -4q22 0 85.5 4t98.5 4q25 0 40 -7.5t15 -19.5q0 -19 -47 -34q-22 -6 -36 -13.5t-21.5 -17.5t-9.5 -15t-7 -18q-10 -29 -10 -254q0 -42 29 -59q17 -9 25 -16.5t9 -10.5t1 -10t-7.5 -16t-23.5 -13q-2 -1 -70 -18t-116 -31q-61 -17 -143 -27t-140 -10 q-167 0 -307.5 50t-237.5 137q-54 52 -97.5 115.5t-78.5 168t-35 219.5z" />
<glyph unicode="H" horiz-adv-x="1671" d="M68 12q0 27 47 39q77 20 100 43t29 84q18 252 18 649q0 5 1 72.5t1 135.5t-2 108q-3 56 -22 80t-80 37q-58 11 -58 38q0 10 17.5 16.5t42.5 6.5q29 0 94.5 -2t91.5 -2q48 0 112 2t83 2q31 0 48 -6.5t17 -16.5q0 -15 -13.5 -23.5t-45.5 -14.5q-68 -13 -86 -39t-23 -97 q-4 -47 -6 -194q-1 -74 -1 -118t1 -60q1 -27 6 -34t17 -7q30 0 290.5 3t471.5 3q17 0 22 53q1 9 1 81v87q-1 154 -5 207q-5 57 -24.5 77.5t-88.5 39.5q-51 14 -51 38q0 23 64 23q11 0 96 -2t113 -2q41 0 110.5 3t75.5 3q57 0 57 -25q0 -20 -59 -34q-60 -14 -82 -41t-25 -76 q-16 -166 -16 -676q0 -52 4 -173.5t4 -129.5q2 -31 6.5 -48t20 -29.5t33 -19t57.5 -18.5q47 -16 47 -39q0 -22 -57 -22q-13 0 -74 3t-96 3q-23 0 -121.5 -6t-118.5 -6q-51 0 -51 22q0 25 45 37q82 24 102 57t25 144q8 172 8 330q0 26 -5.5 34.5t-18.5 8.5q-124 0 -329.5 1.5 t-287.5 1.5q-16 0 -31 1q-62 0 -114 -2q-5 0 -14 -12t-9 -23q-2 -24 -2 -101t1 -169.5t1 -104.5q2 -73 24.5 -106.5t86.5 -53.5q34 -9 47 -17.5t14 -23.5q1 -7 -8.5 -12t-22.5 -6.5t-28 -1.5q-4 0 -42.5 2t-88.5 4t-82 2q-21 0 -93 -4t-110 -4q-61 0 -61 20z" />
<glyph unicode="I" horiz-adv-x="694" d="M72 25q0 22 61 34q73 16 93 44.5t26 105.5q10 120 10 459q0 346 -6 448q-2 24 -2.5 32.5t-3 26.5t-5.5 24t-9 17.5t-14 16t-20.5 11t-28.5 10.5t-38 8q-57 10 -57 36q0 25 51 25q25 0 106 -3t117 -3q54 0 120 3t99 3q52 0 52 -25q0 -24 -54 -34q-18 -4 -32.5 -9t-25.5 -9 t-20 -11.5t-15 -11t-11 -14t-7.5 -13.5t-5.5 -15.5t-3.5 -15t-2.5 -16.5t-2 -16q-12 -82 -12 -603q0 -206 6 -305q3 -47 7.5 -71.5t20 -47t44 -35t78.5 -22.5q53 -9 53 -35q0 -11 -17.5 -18.5t-37.5 -7.5q-58 0 -171 6t-134 6q-29 0 -72.5 -2t-83.5 -2q-53 0 -53 29z" />
<glyph unicode="J" horiz-adv-x="675" d="M-150 -342q0 13 16 39.5t32 42.5q6 6 24 16.5t25 10.5t30 -9t33 -16q67 -43 107 -43q27 0 44 7.5t38 31.5q49 52 57 170q12 191 12 639q0 455 -12 602q-2 19 -6.5 33t-16 30.5t-36.5 29t-62 18.5q-63 11 -63 38q0 25 55 25q28 0 103.5 -3t123.5 -3q37 0 111 3t104 3 q56 0 56 -20q0 -29 -62 -41q-64 -13 -90.5 -44t-26.5 -106q0 -83 -4 -461t-4 -467q-1 -172 -66.5 -306t-154.5 -202q-128 -98 -233 -98q-51 0 -92.5 25t-41.5 55z" />
<glyph unicode="K" horiz-adv-x="1398" d="M51 20q0 13 13 20t47 15q79 16 110 49.5t35 120.5q6 210 6 484q0 290 -8 438q-3 53 -26.5 76.5t-86.5 38.5q-53 14 -53 34q0 27 55 27q22 0 94 -3t107 -3q32 0 100 2t91 2q55 0 55 -25q0 -19 -60 -34q-54 -11 -74.5 -33t-23.5 -80q-4 -57 -4 -239q0 -26 -1 -48 q0 -136 3 -153q4 -15 14 -15q5 0 18 8l13 7q47 35 227 209t230 231q35 38 35 63q0 4 -1 8q-6 26 -57 40q-41 13 -46 23q-1 4 -1 7q0 27 53 27q20 0 40 -1t38 -1q24 0 148.5 5t154.5 5q54 0 54 -25q0 -9 -16.5 -19.5t-39.5 -16.5q-83 -18 -137.5 -48t-159.5 -110 q-76 -60 -222.5 -195t-164.5 -163q-5 -16 0 -21q32 -41 547 -569q44 -44 83.5 -68t61 -29.5t70.5 -13.5q16 -4 28.5 -13.5t12.5 -15.5q0 -14 -16 -22t-35 -8q-28 0 -150 8t-149 8q-40 0 -81.5 -1t-61.5 -1t-31.5 12t-11.5 25q0 6 5 10t25 10.5t58 14.5q6 2 9.5 9t0.5 11 q-78 99 -443 475q-9 10 -21 23t-18.5 20t-14.5 15.5t-12.5 12.5t-9.5 8t-9 5.5t-7 1.5q-5 0 -6.5 -6t-2.5 -20t-1 -17q-2 -22 -2 -91q0 -114 6 -355q2 -41 29 -66t94 -43q47 -10 47 -37q0 -26 -53 -26q-20 0 -119 3t-133 3q-33 0 -99.5 -3t-99.5 -3q-18 0 -33.5 8t-15.5 18z " />
<glyph unicode="L" horiz-adv-x="1150" d="M51 12q0 11 13 22t36 15q82 17 113 47.5t39 93.5q10 128 10 674q0 223 -2 291q-1 20 -4.5 33t-14 27.5t-32.5 25t-57 16.5q-29 6 -43.5 16.5t-14.5 22.5q0 25 62 25q27 0 74 -2t77 -2q44 0 145.5 3t122.5 3q52 0 52 -23q0 -22 -47 -34q-82 -19 -108.5 -36t-29.5 -44 q-12 -92 -12 -602q0 -305 14 -424q3 -20 30 -48t40 -30q66 -10 197 -10q99 0 145 6q1 0 5 0.5t6 1t6 1t7 1.5l7.5 2.5t8.5 3.5t9 5l10 6t11 8l12 10q69 69 117 137q28 45 51 45q5 0 8.5 -7t3.5 -19t-4 -29q-47 -141 -63 -221q-1 -15 -20.5 -25t-29.5 -10q-5 0 -33.5 1t-79 3 t-119 4t-173.5 3t-221 1q-83 0 -173 -5t-91 -5q-60 0 -60 22z" />
<glyph unicode="M" horiz-adv-x="1820" d="M43 23q0 7 11 15.5t30 12.5q48 14 75.5 27.5t44 37.5t23 49.5t13.5 74.5q15 103 40.5 434.5t28.5 449.5q0 10 -2.5 22.5t-10 33t-28 37.5t-51.5 26q-86 25 -88 25q-12 3 -22.5 12.5t-10.5 19.5q0 14 11.5 17.5t48.5 3.5q68 0 142 -2t132 -2q3 0 12.5 -10t10.5 -17 q23 -71 77 -186q342 -719 381 -772q3 -5 10.5 -7.5t10.5 1.5q1 2 70 133t142 271t142 274.5t80 164.5q1 3 10 24t20.5 49t16.5 46q1 7 10.5 18t12.5 11q44 0 150 3t108 3q53 0 53 -23t-53 -32q-42 -8 -92 -27q-64 -25 -64 -158q0 -611 29 -886q9 -68 33.5 -94t99.5 -48 q26 -6 40.5 -17t14.5 -22q0 -12 -17.5 -19t-41.5 -7q-5 0 -108 5t-148 5q-18 0 -74 -3t-82 -3q-20 0 -37.5 7.5t-17.5 21.5q0 21 53 36q25 7 41.5 18.5t26 22t15 30.5t7.5 34t4 43q5 61 5 274q-1 53 -1 117q-2 314 -6 399q-3 10 -6 14.5t-10 -1.5q-21 -35 -149.5 -288.5 t-186.5 -375.5q-83 -180 -127 -293q-11 -28 -20 -41t-13.5 -14.5t-13.5 -1.5t-18 11t-13 28q-23 84 -76 217q-64 155 -197.5 434.5t-156.5 333.5q-11 26 -14 -6q-13 -66 -25 -360q-9 -222 -9 -355q0 -43 1 -76q3 -79 25.5 -110.5t99.5 -55.5q33 -9 44 -17t11 -22 q0 -24 -55 -24q-35 0 -107.5 3t-97.5 3q-24 0 -81 -3t-83 -3q-53 0 -53 29z" />
<glyph unicode="N" horiz-adv-x="1579" d="M31 1298q0 25 67 25q15 0 103 -3t147 -3q16 0 43 -27q71 -85 162 -203q71 -90 680 -757q8 -8 14 -0.5t6 14.5q3 19 4.5 55.5t1.5 95t-0.5 116.5t-1 149.5t-0.5 165.5q0 99 -10 204q-1 26 -8.5 45t-37.5 42t-83 38q-55 16 -55 45q0 19 53 19q25 0 83 -1t93 -1 q40 0 104.5 4t88.5 4q47 0 47 -22q0 -11 -12 -22.5t-37 -18.5q-72 -16 -99.5 -44t-31.5 -106q-23 -425 -22 -829q0 -50 6.5 -156.5t6.5 -116.5q0 -16 -7.5 -29.5t-20.5 -13.5q-20 0 -48 22t-44 44q-16 19 -56.5 73t-70.5 91q-88 104 -360.5 418t-370.5 432q-6 7 -14.5 5 t-8.5 -10q-1 -15 -3 -54.5t-4 -93t-3 -124.5q0 -69 -2 -214t-2 -216v-28q0 -55 2 -105q6 -71 31 -101.5t98 -52.5q51 -12 51 -37q0 -26 -66 -26q-28 0 -104 5t-115 5q-24 0 -70.5 -2t-62.5 -2q-53 0 -53 22q0 23 41 35q73 25 93 41q39 31 48 123q1 13 2 29q39 647 39 827 q0 77 -14 98q-37 44 -63.5 58.5t-89.5 31.5q-12 3 -19 5q-45 12 -45 32z" />
<glyph unicode="O" horiz-adv-x="1599" d="M102 659q0 337 267 551q76 62 194.5 103t224.5 41q195 0 357.5 -87.5t258 -243.5t95.5 -347q0 -201 -83 -353t-208 -241q-88 -62 -199.5 -90.5t-203.5 -28.5q-155 0 -296.5 63t-236.5 171q-82 91 -126 210.5t-44 251.5zM301 688q0 -91 25.5 -185t75 -177.5t115.5 -149.5 t154 -104.5t183 -38.5q180 0 270 98q71 64 122.5 189.5t51.5 293.5q0 167 -66.5 318.5t-180.5 243.5q-61 50 -148 80t-160 30q-67 0 -148.5 -32.5t-133.5 -84.5q-160 -156 -160 -481z" />
<glyph unicode="P" horiz-adv-x="1116" d="M72 18q0 10 12.5 19t28.5 14q83 19 110.5 51.5t32.5 100.5q10 163 10 370q0 370 -6 568q-1 25 -1.5 34t-3.5 25.5t-10 22.5t-19.5 15t-32 13.5t-48.5 8.5q-63 9 -63 30q0 12 13 19.5t34 9.5q6 1 18.5 1t28.5 -0.5t21 -0.5q38 0 163.5 8t178.5 8q255 0 383 -121 q66 -63 92 -137.5t26 -140.5q0 -64 -13 -117.5t-37.5 -92t-44.5 -61.5t-48 -47q-43 -37 -108 -63.5t-127 -26.5q-68 0 -109 15q-35 14 -35 32q0 7 7 13t18 6h51q43 0 87 19.5t83.5 57.5t64.5 104.5t25 150.5q0 142 -96 245t-238 103q-29 0 -59 -19q-18 -14 -21 -79 q-1 -19 -1.5 -96.5t-1 -211.5t-1.5 -225q0 -110 2 -255.5t2 -154.5q1 -69 11 -100.5t33 -47t79 -32.5q55 -14 55 -39q0 -24 -67 -24q-21 0 -93 4t-122 4q-29 0 -102 -4t-105 -4q-57 0 -57 28z" />
<glyph unicode="Q" horiz-adv-x="1597" d="M102 651q0 186 76.5 332t202.5 236q188 135 430 135q137 0 263 -52.5t219 -142t148.5 -216t55.5 -267.5q0 -311 -215 -512q-53 -49 -138 -100t-155 -74q-5 -2 -6.5 -8.5t2.5 -12.5q25 -32 104 -93t150 -105q209 -131 358 -131q28 0 53 3t56 10t33 7q9 2 17.5 -2.5 t8.5 -11.5q0 -8 -9 -22t-21 -23q-37 -30 -98.5 -50t-116.5 -20q-215 0 -451 154q-91 54 -295 211q-108 84 -231 122q-197 64 -319 241t-122 392zM301 670q0 -111 42 -226.5t116 -207.5q62 -81 178 -140t188 -59q152 0 256 69q99 69 159 214t60 284q0 160 -57 301.5 t-158 235.5q-64 63 -161 102t-185 39q-129 0 -231 -80q-105 -84 -156 -210.5t-51 -321.5z" />
<glyph unicode="R" horiz-adv-x="1292" d="M74 20q0 15 38 28q5 2 7 3q34 11 49 16.5t34.5 15.5t27 20.5t14 27t8.5 39.5q12 189 12 403q0 462 -12 582q-6 54 -25 68.5t-94 33.5q-49 13 -49 35q0 25 55 25h115q34 0 153 5t179 5q114 0 195 -19t139 -67q51 -42 83.5 -112.5t32.5 -143.5q0 -83 -45.5 -162 t-120.5 -125q-2 -1 -28.5 -14.5t-34.5 -19.5q-5 -3 -8 -14t0 -17q19 -47 126 -209.5t191 -255.5q42 -51 88.5 -79.5t112.5 -41.5q11 -3 22 -13t11 -16q0 -12 -29 -26q-38 -15 -113 -15q-72 0 -150 38.5t-122 95.5q-98 134 -258 385q-58 86 -82 102q-7 7 -55 17t-90 10 q-9 0 -17 -9.5t-8 -15.5q-1 -11 -1 -42q0 -46 2 -137q3 -151 7 -235q3 -65 27.5 -92.5t95.5 -44.5q49 -14 49 -35q0 -13 -18 -19.5t-31 -6.5q-36 0 -112 6t-152 6q-20 0 -88 -4t-78 -4q-53 0 -53 28zM428 942q-1 -80 0 -134q0 -85 2 -103q3 -12 13.5 -21.5t19.5 -9.5 q80 0 154 18t102 35q51 33 93 100t42 154q0 41 -25.5 102.5t-66.5 102.5q-36 34 -94 56t-109 22q-14 0 -48.5 -4.5t-49.5 -10.5q-7 -3 -16 -19.5t-9 -23.5q-6 -56 -8 -264z" />
<glyph unicode="S" horiz-adv-x="968" d="M80 276q0 6 11.5 22.5t17.5 16.5q22 0 75 -116q25 -53 75.5 -92t100 -55.5t91.5 -16.5q107 0 177 69.5t70 178.5q0 73 -53.5 146.5t-202.5 168.5q-145 94 -221 189t-76 217q0 72 30 137.5t83 111.5q112 101 303 101q45 0 95 -7.5t96.5 -18t52.5 -11.5q8 -3 16 -18.5 t8 -20.5q2 -16 7 -56.5t9.5 -73.5t4.5 -36q0 -31 -2 -43t-12 -12q-14 0 -29 11.5t-21 31.5q-17 50 -49 92.5t-51 54.5q-60 47 -145 47q-102 0 -169 -68t-67 -171q0 -51 14.5 -90t58 -80.5t75.5 -65.5t115 -79q14 -10 22 -15q67 -45 112 -82t87 -86t62.5 -105.5t20.5 -123.5 q0 -80 -43.5 -158.5t-123.5 -130.5q-49 -32 -129 -53t-150 -21q-54 0 -139 15.5t-129 37.5q-14 8 -30.5 33.5t-16.5 32.5q-4 27 -12 70.5t-13.5 75.5t-5.5 46z" />
<glyph unicode="T" horiz-adv-x="1366" d="M47 1096q0 9 19.5 104t19.5 166q0 10 11 21.5t20 11.5q4 0 7 -4t9.5 -13t16.5 -16q37 -37 69 -39q106 -12 479 -12q301 0 469 4q94 5 140 37q21 12 28 12q5 0 9 -6t4 -17q0 -10 -5 -24q-29 -91 -45 -234q-2 -14 -12 -26t-22 -12q-21 0 -29 65q-5 41 -12.5 63t-28 35.5 t-47 18t-78.5 6.5q-16 1 -76 1h-71q-123 -1 -140 -5q-7 -1 -12.5 -11.5t-5.5 -15.5v-501q0 -432 8 -508q4 -39 9.5 -58.5t21 -37.5t42 -28.5t75.5 -21.5q21 -5 38 -16t17 -21q0 -24 -57 -24q-5 0 -45 2.5t-94.5 5t-94.5 2.5q-60 0 -144.5 -7t-88.5 -7q-29 0 -45.5 7 t-16.5 17t12.5 21t26.5 14q37 9 61 16.5t41.5 21.5t26 26t14.5 39t7.5 49.5t3.5 68.5q14 424 14 697v243q0 11 -5.5 19t-10.5 8q-68 10 -254 10q-59 0 -94 -10.5t-58 -36.5q-22 -16 -68 -106q-8 -20 -16.5 -29.5t-12 -10.5t-9.5 -1q-9 0 -15 15.5t-6 31.5z" />
<glyph unicode="U" horiz-adv-x="1560" d="M76 1298q0 25 59 25q44 0 109 -3t102 -3q42 0 111 2t88 2q63 0 63 -23q0 -25 -61 -38q-60 -11 -88 -35t-37 -82q-8 -54 -8 -572q0 -158 29 -242.5t85 -148.5q42 -47 129.5 -79.5t167.5 -32.5q43 0 86 8t91 28.5t87.5 51.5t71.5 82t47 116q45 196 45 514q0 165 -8 265 q-5 62 -29 88t-106 45q-15 3 -29 15t-14 22q0 20 47 20q24 0 81.5 -3t92.5 -3q45 0 102.5 2t82.5 2q51 0 51 -23q0 -20 -45 -36q-70 -20 -100 -58.5t-33 -130.5q-1 -49 -9 -215t-10 -207q-14 -483 -256 -618q-117 -66 -295 -66q-123 0 -223 38.5t-147 82.5 q-89 84 -126.5 217t-37.5 385q0 364 -9 486q-7 67 -110 88q-47 11 -47 34z" />
<glyph unicode="V" horiz-adv-x="1343" d="M-2 1300q0 12 18.5 19.5t42.5 7.5q13 0 85.5 -5t129.5 -5q39 0 111 2t92 2t34.5 -7.5t14.5 -17.5q0 -28 -49 -36q-39 -7 -62.5 -19t-29.5 -25.5t-7.5 -28t3.5 -26.5q27 -80 151 -402.5t179 -453.5q15 -15 20 -2q7 19 68.5 165t144.5 342.5t119 283.5q18 42 19.5 70 t-16 46.5t-38 28t-59.5 21.5q-21 6 -33 16t-12 20t17 17.5t42 7.5q21 0 73.5 -2t90.5 -2q31 0 98 4t86 4q24 0 42 -7t18 -20q0 -23 -54 -34q-65 -17 -104.5 -54.5t-73.5 -107.5q-26 -56 -78 -164.5t-94 -203.5t-98 -234q-27 -66 -60 -145.5t-46.5 -112t-31.5 -77.5 t-29.5 -80t-25.5 -81q-16 -47 -43 -47q-10 0 -19.5 11t-12.5 28q-26 128 -107 334q-50 134 -160 415t-135 340q-32 79 -70 120t-104 61q-47 15 -47 34z" />
<glyph unicode="W" horiz-adv-x="2021" d="M-4 1300q0 8 15 15.5t38 7.5q46 0 112 -3t107 -3q27 0 97 3t75 3q52 0 52 -25q0 -22 -56 -38q-49 -13 -61 -32.5t-2 -49.5q51 -125 181 -426.5t220 -495.5q2 -5 8 -5.5t9 3.5q15 25 72.5 142t103.5 220q7 14 -2 29q-126 301 -197 451q-45 95 -69 121t-83 43 q-51 14 -51 36q0 23 60 23q9 0 69.5 -1t98.5 -1q56 0 124.5 3t69.5 3q21 0 36 -6.5t15 -16.5q0 -29 -49 -38q-64 -12 -75 -31q-4 -6 -4 -15q0 -19 16 -53q28 -72 147 -336q2 -4 8 -3.5t9 3.5q59 120 129 281q19 42 24 69.5t-5.5 44.5t-29.5 26.5t-53 17.5q-18 4 -30.5 13.5 t-12.5 16.5q0 25 59 25q15 0 60.5 -2t83.5 -2q34 0 94 2t74 2q45 0 45 -21q0 -14 -13 -22t-45 -16q-55 -13 -85.5 -42t-73.5 -106q-86 -150 -195 -364q-2 -5 0.5 -18.5t5.5 -16.5q136 -319 205 -447q2 -6 5.5 -9.5t8 -1.5t9.5 11q85 182 374 836q22 49 22 81q0 14 -4 24 q-14 35 -83 55q-47 14 -47 32q0 25 53 25q25 0 73 -2t66 -2q30 0 96.5 3t98.5 3q53 0 53 -23q0 -25 -51 -36q-62 -12 -98 -43.5t-78 -112.5q-1 -2 -26 -50.5t-51 -99t-62 -123.5t-77 -160t-79 -173q-150 -343 -207 -484q-6 -16 -23 -31.5t-30 -15.5q-20 0 -31 39 q-14 51 -49 135t-93 213t-77 174q-10 14 -16 5q-8 -18 -54 -112.5t-71.5 -149t-60 -135t-52.5 -134.5q-6 -17 -22 -32t-25 -15q-12 0 -20 8t-17 31q-55 157 -127 326q-72 174 -182 426t-160 348q-8 14 -23 43.5t-20.5 39t-19 27.5t-25 25.5t-31 16t-45.5 14.5q-21 3 -37 13 t-16 23z" />
<glyph unicode="X" horiz-adv-x="1421" d="M-14 12q0 33 77 47q68 13 134 53t106 85q165 180 326 403q13 18 6 29q-12 32 -133 219.5t-197 292.5q-70 96 -203 125q-55 11 -55 37q0 24 59 24q15 0 111.5 -5t136.5 -5q43 0 96 2t80 2q50 0 50 -23q0 -22 -48 -34q-49 -14 -49 -45q0 -15 11 -33q47 -86 140.5 -232 t117.5 -170q4 -4 11.5 -5.5t8.5 1.5q53 59 153 194.5t126 184.5q10 24 11.5 40t-11.5 28t-31.5 19.5t-48.5 13.5q-26 5 -38.5 15t-12.5 19q0 27 59 27q31 0 93 -2t89 -2q25 0 108.5 3t106.5 3q19 0 33.5 -7t13.5 -16q0 -24 -45 -36q-81 -15 -137 -49t-115 -103 q-231 -270 -317 -389q-1 -3 -1 -11.5t1 -13.5q8 -22 134 -210.5t173 -254.5q32 -42 45 -58.5t36.5 -41.5t43.5 -35.5t50 -23t71 -23.5q23 -6 36 -17.5t13 -21.5q0 -24 -61 -24q-30 0 -123.5 6t-163.5 6q-33 0 -97 -4t-73 -4q-26 0 -38.5 8t-12.5 18q0 12 9.5 20t35.5 15 q61 16 78 27q7 6 10.5 15.5t-2.5 21.5q-41 72 -151 243t-128 187q-13 13 -20 6q-128 -154 -225 -299q-35 -54 -50 -88t-7.5 -55t23 -31t50.5 -23q49 -17 49 -37q0 -26 -51 -26q-24 0 -100 3t-111 3q-47 0 -120.5 -5t-92.5 -5q-53 0 -53 22z" />
<glyph unicode="Y" horiz-adv-x="1273" d="M6 1305q0 22 55 22q7 0 92.5 -5t141.5 -5q25 0 68.5 2t87.5 2q45 0 45 -23q0 -26 -45 -38q-54 -12 -54 -38q0 -22 23 -57q44 -83 268 -448q3 -5 10.5 -3.5t10.5 7.5q62 88 264 422q20 38 20 61q0 11 -4 18q-14 24 -76 38q-22 6 -32.5 17t-10.5 23q0 19 48 19 q27 0 68.5 -1t64.5 -1q43 0 129.5 4t97.5 4q18 0 30.5 -5.5t12.5 -14.5q0 -22 -53 -37q-69 -18 -119.5 -55.5t-104.5 -104.5q-57 -71 -158 -226.5t-114 -174.5q-18 -26 -34.5 -65.5t-16.5 -59.5q0 -336 12 -435q6 -34 35 -54.5t111 -41.5q55 -13 55 -37q0 -22 -62 -22 q-14 0 -83 4t-95 4q-73 0 -177.5 -6t-108.5 -6q-52 0 -52 22q0 26 58 37q128 29 133 98q6 84 6 424q0 26 -18 74q-52 111 -261 430q-75 112 -110.5 145t-100.5 48q-28 6 -42.5 17t-14.5 22z" />
<glyph unicode="Z" horiz-adv-x="1269" d="M66 27q0 7 10.5 23t37 51.5t40.5 54.5q56 72 354.5 524.5t335.5 521.5q6 11 2.5 19t-10.5 10q-100 10 -371 10q-102 0 -150 -10q-114 -26 -184 -156q-11 -23 -23.5 -34t-21.5 -11q-7 0 -12 7t-6.5 22.5t6.5 40.5q1 4 18 48t36 99t28 94q1 12 9 19.5t17 7.5q5 0 16.5 -5.5 t16.5 -12.5q16 -16 36.5 -22t65.5 -9q165 -6 324 -6q376 0 451 10q34 5 34 -10q0 -21 -24 -51q-8 -8 -20 -23.5t-30.5 -41t-35.5 -50t-45 -65t-49 -70.5q-72 -107 -171.5 -259.5t-174.5 -269.5t-148 -231.5t-82 -128.5q-11 -15 8 -27q14 -9 112 -15.5t193 -6.5q224 0 261 6 q55 7 84 18.5t68 51t102 126.5q5 7 13 18t11.5 15.5t9 10.5t10 8t9.5 2q18 0 18 -45q0 -34 -102 -260q-19 -35 -119 -35q-90 0 -390.5 4t-338.5 4h-195q-11 0 -22.5 9t-11.5 20z" />
<glyph unicode="[" horiz-adv-x="700" d="M223 1409q0 46 15 57q7 7 49 7h264q20 0 34.5 -8.5t14.5 -20.5t-16.5 -23.5t-34.5 -13.5q-15 0 -95.5 -6.5t-91.5 -7.5q-12 0 -21 -16t-11 -36q-8 -153 -8 -690q0 -68 14 -852q2 -97 37 -102q141 -16 194 -16q13 0 33.5 -10t20.5 -25q0 -14 -18.5 -21.5t-41.5 -7.5 q-9 0 -76 -2t-100 -2q-35 0 -80.5 -1t-46.5 -1q-20 0 -26.5 15t-6.5 57v1245q0 147 -0.5 259.5t-1 165.5t-0.5 56z" />
<glyph unicode="\" horiz-adv-x="743" d="M78 1311q-2 7 1 16t11 12q39 11 55 11q15 0 27 -25q228 -662 498 -1427q2 -6 -4 -17t-15 -12q-24 -6 -37 -6q-13 -3 -21.5 6t-10.5 18q-339 939 -504 1424z" />
<glyph unicode="]" horiz-adv-x="700" d="M86 1442q0 13 20 23t46 10q3 0 65.5 -1t97.5 -1t84 1t50 1q28 0 28 -72v-1247q0 -146 0.5 -262.5t1 -174.5t0.5 -61q0 -29 -10 -39q-6 -6 -53 -6q-72 0 -155 -1t-89 -1q-28 0 -49 10t-21 21q0 12 18.5 24t49.5 15q13 1 80.5 6.5t87.5 7.5q28 4 31 43q8 156 8 698 q0 100 -2.5 228.5t-6.5 314t-6 305.5q0 102 -34 105q-42 3 -104 11t-79 9q-24 3 -41.5 13t-17.5 20z" />
<glyph unicode="^" horiz-adv-x="960" d="M94 611.5q0 5.5 8 23.5l308 596q42 84 73 84q11 0 33 -26t35 -52l305 -596q15 -32 2 -45q-20 -22 -49 -33t-41 6l-274 564q-14 21 -23 2l-283 -572q-5 -4 -17 -4.5t-32.5 9t-36.5 26.5q-8 12 -8 17.5z" />
<glyph unicode="_" horiz-adv-x="1013" d="M0 -254h1014v-100h-1014v100z" />
<glyph unicode="`" horiz-adv-x="819" d="M193 1288q0 8 9 18.5t23 16.5q24 12 54 12q22 0 53 -71q24 -49 64.5 -144.5t60.5 -154.5q6 -13 4.5 -32.5t-12.5 -19.5q-24 0 -48 33q-46 59 -108.5 156t-81.5 131q-18 30 -18 55z" />
<glyph unicode="a" horiz-adv-x="813" d="M82 569q0 80 154 181q43 31 101 54t89 23q118 0 184 -96q23 -32 32 -69t9 -101q0 -47 -4 -201.5t-4 -158.5q0 -33 10 -55.5t25.5 -31.5t26.5 -12.5t20 -3.5q8 0 35.5 10t42.5 21q6 4 12 -6q6 -6 6 -21q0 -33 -60 -80t-124 -47q-40 0 -77 25t-54 78q0 2 -4.5 5.5t-7.5 2.5 q-49 -34 -104.5 -60t-80.5 -34q-35 -12 -82 -12q-55 0 -98 57t-43 133q0 55 39 104q5 7 11.5 12.5t11.5 9.5t14.5 9t13.5 7t16 7.5t15 6.5q18 7 123 37.5t116 33.5q60 18 60 37q4 36 4 168q0 45 -45.5 91t-114.5 46q-53 0 -84 -22q-16 -8 -16 -51q0 -14 2 -33q0 -11 -12 -23 q-15 -12 -70.5 -39.5t-63.5 -27.5q-9 0 -16.5 9t-7.5 17zM236 209q0 -60 43.5 -91.5t85.5 -31.5t110 35q8 5 16.5 25.5t8.5 25.5q4 49 4 160q0 5 -5.5 10.5t-11.5 5.5q-40 0 -102.5 -19t-108.5 -42q-13 -9 -20 -16t-13.5 -23t-6.5 -39z" />
<glyph unicode="b" d="M43 1346q0 2 10.5 14.5t14.5 13.5q14 5 43.5 14.5t47.5 16t40.5 15.5t36.5 18q40 24 51 24q6 0 14 -10t8 -16q-18 -405 -18 -494q0 -153 4 -176q0 -3 5 -6.5t7 -1.5q49 32 114.5 50.5t119.5 18.5q150 0 254 -90q67 -57 101 -137.5t34 -171.5q0 -118 -50.5 -209 t-127.5 -151q-57 -48 -135.5 -70.5t-143.5 -22.5q-51 0 -136.5 14t-123.5 27q-15 8 -43 -6q-12 -6 -25 -6q-12 0 -12 27q12 192 12 680q0 144 -3.5 324t-6.5 202q-6 32 -51 70q-38 28 -40 34q-1 2 -1 5zM293 557q0 -150 16 -328q3 -64 41 -102q38 -40 97 -63t94 -23 q18 0 55 19.5t70 50.5q41 40 67.5 121t26.5 153q0 62 -26 136.5t-75 127.5q-38 38 -96.5 63t-126.5 25q-83 0 -123 -30q-13 -9 -16 -31q-4 -36 -4 -119z" />
<glyph unicode="c" horiz-adv-x="802" d="M66 381q0 109 53 200.5t145 153.5q55 39 137 62.5t131 23.5q51 0 107.5 -12.5t83.5 -34.5q13 -9 22 -29.5t9 -31.5q0 -22 -29.5 -52t-38.5 -30q-24 0 -80 39q-7 5 -23.5 17.5t-22.5 16t-19.5 13t-20 12.5t-18.5 8.5t-21.5 7.5t-21.5 3.5t-25 1.5q-26 0 -64.5 -20.5 t-62.5 -49.5q-86 -95 -86 -236q0 -124 53 -204q38 -64 108 -101t150 -37q94 0 183 62q11 7 20 9t14 -1t5 -8q0 -33 -27 -60q-53 -59 -133.5 -93t-161.5 -34q-94 0 -173 44.5t-130 119.5q-27 44 -45 110.5t-18 129.5z" />
<glyph unicode="d" horiz-adv-x="1021" d="M66 373q0 72 19 134.5t52.5 108t69 78t76.5 56.5q64 39 141.5 58t128.5 19q81 0 131 -8q5 -1 9.5 6.5t6.5 16.5q5 37 5 144v67q-2 164 -7 207q-2 10 -4.5 16t-25.5 25.5t-66 41.5q-20 11 -20 19q0 6 12.5 20t21.5 15q34 4 100.5 22.5t108.5 34.5q18 6 27 6q5 0 11 -10.5 t5 -22.5q-7 -72 -9.5 -121t-5.5 -221t-3 -467q0 -349 6 -466q2 -84 31 -84q13 0 59 7.5t51 8.5q5 0 9 -5t4 -7q0 -10 -13.5 -30t-21.5 -22q-127 -20 -184 -40q-62 -21 -74 -21q-6 0 -14.5 10t-8.5 17q0 8 2 38t2 46q0 5 -4 8.5t-8 3.5q-114 -102 -266 -102q-72 0 -140 30 t-116 82q-98 110 -98 281zM231 430q0 -84 35 -163.5t103.5 -134t152.5 -54.5q83 0 150 49q3 3 10 21.5t14.5 51t8.5 62.5q1 42 1 83q0 136 -8 257q-2 13 -15 37t-30 41q-39 39 -89.5 59.5t-86.5 20.5q-88 0 -160 -72q-33 -33 -59.5 -105.5t-26.5 -152.5z" />
<glyph unicode="e" horiz-adv-x="802" d="M68 387q0 127 64.5 237t180.5 164q78 37 156 37q56 0 111 -20t92 -57q71 -68 71 -173q0 -11 -11 -22.5t-27 -11.5q-373 0 -467 2q-4 0 -9.5 -6t-7.5 -11q-10 -27 -10 -71q0 -59 22 -124t56 -110q36 -48 97.5 -80t131.5 -32q137 0 187 73q17 25 26 25q17 0 17 -25 q0 -24 -15 -49q-106 -153 -297 -153q-165 0 -266.5 113t-101.5 294zM242 621q-1 -3 -1 -7q-1 -4 1 -8q4 -8 8 -8q45 -2 111 -2t153 2q38 0 54 10.5t16 40.5q0 45 -40.5 84t-94.5 39q-69 0 -124 -40t-83 -111z" />
<glyph unicode="f" horiz-adv-x="602" d="M53 12q0 7 13 17t30 16q27 8 43 16t26.5 16t15 25t5.5 32t2 48q5 210 5 441q0 75 -21 75q-63 0 -86 -4q-8 0 -15 12.5t-3 22.5q1 3 15 12t39.5 24.5t45.5 31.5q27 23 27 34q7 200 51 306q33 79 76 136t108 105q113 84 234 84q83 0 131 -39q34 -27 34 -69q0 -23 -17 -51 t-38 -35q-15 -6 -37 -6q-10 0 -20 8t-35 33q-70 63 -143 63q-74 0 -127 -84q-38 -66 -53 -167t-15 -298q0 -6 4 -12t8 -6q55 0 113 0.5t93 0.5l36 1q11 0 20 -27t9 -59q0 -5 -12 -13t-19 -8q-6 0 -116.5 3t-123.5 3q-3 0 -8.5 -6.5t-5.5 -9.5q-2 -15 -2 -81t2 -183 q3 -233 6 -260q6 -56 29.5 -76t107.5 -33q23 -4 35 -13.5t12 -17.5q0 -24 -53 -24q-9 0 -75 2t-95 2q-44 0 -123 -5t-82 -5q-51 0 -51 22z" />
<glyph unicode="g" horiz-adv-x="851" d="M43 -313q0 39 11 67.5t20.5 38t23.5 20.5q3 2 4 3q28 24 79.5 62.5t62.5 47.5q7 7 -6 15q-1 0 -32.5 14.5t-47.5 26.5q-32 22 -51 62.5t-19 88.5q0 9 10 19q10 8 71.5 47.5t80.5 58.5q5 5 -8 18q-26 15 -49 34.5t-49.5 51t-42 77t-15.5 98.5q0 141 125 233q87 66 209 66 q15 0 29 -0.5t24.5 -1t24 -2.5t20 -3t20.5 -4t18.5 -4t21 -5t20.5 -5q12 -2 31 -6.5t26 -5.5q2 0 107 -5.5t131 -11.5q18 -3 18 -22q0 -20 -15 -43t-22 -23q-86 0 -137 4q-6 0 -10 -5.5t-2 -10.5q16 -50 16 -102q0 -171 -114 -258q-100 -78 -224 -78q-6 0 -35 1t-36 1 q-20 3 -31 -2q-16 -8 -40.5 -33.5t-24.5 -36.5q0 -35 30 -62.5t53 -29.5q28 -1 116.5 -3.5t160 -5.5t100.5 -7q14 -2 44 -16t55 -34q40 -35 63 -86t23 -94q0 -105 -56.5 -184t-136.5 -131q-134 -88 -295 -88q-154 0 -256 75q-42 33 -68 84t-26 95zM197 -262q0 -95 71 -156 q81 -63 201 -63q91 0 162 37q57 37 84.5 88.5t27.5 101.5q0 70 -28 107q-36 48 -109 63q-55 10 -207 10q-80 0 -110 -20q-45 -31 -68.5 -79t-23.5 -89zM248 553q0 -54 22 -111.5t70.5 -101t110.5 -43.5q20 0 67 29q36 23 57 86t21 131q0 86 -45 153q-62 90 -148 90 q-27 0 -57.5 -16t-44.5 -35q-53 -56 -53 -182z" />
<glyph unicode="h" horiz-adv-x="1050" d="M23 20q0 19 59 35q41 14 58.5 38t21.5 79q20 287 20 848q0 165 -6 209q-4 39 -14 52.5t-53 41.5q-7 3 -14 16.5t-7 24.5q0 4 1.5 6.5t2.5 3.5h2q5 1 49 13t62 18t47.5 17.5t46.5 23.5q28 14 39 14q5 0 8.5 -8t3.5 -14q-13 -94 -20.5 -353.5t-7.5 -363.5q0 -5 3 -8.5 t6.5 -4t4.5 0.5q130 118 258 118q148 0 217 -94q59 -79 59 -221q1 -66 4.5 -192.5t4.5 -186.5q0 -36 18.5 -53t60.5 -27q58 -11 58 -33q0 -26 -55 -26q-35 0 -81 3t-81 3q-22 0 -69.5 -2t-78.5 -2q-41 0 -41 24q0 19 43 29q39 12 49.5 27.5t16.5 73.5q2 17 2 81t-1 137.5 t-1 77.5q0 166 -33 205q-58 68 -166 68q-40 0 -79 -10.5t-59 -20.5t-26 -16q-4 -4 -10 -13.5t-13.5 -34.5t-8.5 -53q-4 -59 -6 -217q-1 -68 0 -116q0 -64 1 -93q3 -47 21 -64.5t59 -27.5q21 -6 33 -15.5t12 -17.5q0 -24 -51 -24q-4 0 -71.5 2t-96.5 2q-25 0 -82 -3t-73 -3 q-17 0 -32 6.5t-15 19.5z" />
<glyph unicode="i" horiz-adv-x="518" d="M55 14q0 19 49 33q34 9 56.5 25t25.5 32q9 44 9 211q0 307 -2 320q-1 10 -17.5 24t-66.5 50q-17 11 -17 22t12 21.5t29 13.5q45 9 121 38.5t82 31.5q5 0 11.5 -10t6.5 -13q0 -7 -3 -84.5t-6 -173.5t-3 -147q0 -129 4 -273q0 -16 5 -28.5t9 -19.5t17.5 -14t18 -9t25 -8 t23.5 -7q45 -14 45 -35q0 -9 -14.5 -14.5t-32.5 -5.5q-3 0 -68.5 3t-90.5 3q-38 0 -99.5 -4t-74.5 -4q-54 0 -54 22zM174 1143q0 38 25 74q29 26 80 26q38 0 64 -34t26 -66q0 -39 -33 -70t-66 -31q-12 0 -32.5 7t-32.5 18q-31 35 -31 76z" />
<glyph unicode="j" horiz-adv-x="481" d="M-61 -524q101 63 131 102q110 140 110 512q0 484 -8 543q-4 29 -84 72q-20 10 -20 20q0 6 10.5 16.5t23.5 14.5q141 40 193 67q19 11 35 11q2 0 8 -9.5t6 -13.5q-2 -65 -5.5 -393t-4.5 -348q-6 -237 -90 -379q-74 -127 -193 -211q-49 -37 -69 -37q-33 0 -45 10q-2 4 -2 9 q0 10 4 14zM154 1155q0 50 39 84q21 21 51 21q55 0 81.5 -36t26.5 -67q0 -50 -32.5 -76t-67.5 -26q-30 0 -63.5 30t-34.5 70z" />
<glyph unicode="k" horiz-adv-x="980" d="M8 14q0 17 47 31q59 14 79 32t28 58q6 28 10 255.5t4 447.5q0 326 -12 432q0 15 -62 53q-26 19 -26 29q0 16 26 26q1 0 28 7.5t49.5 14t52.5 18.5t49 24q30 18 41 18q3 0 9 -10t5 -16q-7 -33 -13 -313t-6 -441q0 -186 7 -207q6 -18 16 -18q11 0 41 26q178 165 217 221 q4 6 4 11q0 16 -41 27l-41 8q-18 3 -18 14q0 7 12.5 22t22.5 15h96q76 0 162.5 12t113.5 12q6 0 10.5 -4.5t4.5 -9.5q0 -16 -15.5 -29t-25.5 -16q-79 -18 -121.5 -38t-116.5 -71q-42 -31 -100.5 -87t-65.5 -68q-6 -12 -2 -21q49 -60 163 -184.5t167 -177.5q31 -29 62 -46.5 t77 -27.5q24 -5 36.5 -15.5t12.5 -17.5q0 -24 -51 -24q-16 0 -106 6t-150 6h-92q-51 0 -51 27q0 18 45 28q39 9 39 30q0 12 -13 28q-9 11 -44.5 50.5t-89 99t-97.5 110.5q-38 47 -51 47q-10 0 -10 -17q-8 -18 -8 -116v-13q0 -110 10 -155q5 -31 19.5 -44.5t55.5 -23.5 q45 -11 45 -31q0 -22 -49 -22q-25 0 -85 2t-85 2q-39 0 -96 -4t-76 -4q-47 0 -47 22z" />
<glyph unicode="l" horiz-adv-x="499" d="M16 16q0 21 45 29q66 14 83 44.5t22 115.5q14 273 14 622q0 87 -3 248t-3 180q0 10 -2 16t-13.5 17t-33.5 25q-26 19 -33.5 26t-7.5 13q0 20 29 28q28 10 79 26t79 27t53 27q1 1 2 1q4 -1 9 -7q7 -8 7 -14q-6 -48 -12 -210t-6 -347q0 -65 -0.5 -183.5t-0.5 -195.5 t0.5 -163t2 -137t4.5 -67q7 -36 25 -54.5t79 -35.5q47 -12 47 -31q0 -10 -16.5 -16t-36.5 -6q-26 0 -91.5 3t-82.5 3q-24 0 -91.5 -3t-88.5 -3q-58 0 -58 22z" />
<glyph unicode="m" horiz-adv-x="1560" d="M51 16q0 20 49 31q48 12 64 39t22 96q7 103 7 408q0 40 -15 55q-8 8 -17 16t-15 13.5l-12 11t-9.5 9l-7 7l-5.5 5.5t-3.5 4.5t-2 4t-0.5 3.5q0 16 41 37q28 11 82 40.5t74 43.5q11 8 16 8q7 -1 16 -9.5t9 -11.5q0 -16 -4 -57.5t-4 -50.5q0 -5 3.5 -10.5t8.5 -1.5 q48 41 129 80.5t146 39.5q103 0 159 -41q39 -31 70 -77q4 -9 16 -9q2 1 70.5 41t79.5 45q63 31 123 31q107 0 176 -69q60 -68 67 -197q5 -66 5 -410q2 -34 20 -58t68 -38q39 -12 39 -29q0 -22 -58 -22q-19 0 -69.5 3t-77.5 3q-32 0 -75 -2t-65 -2q-51 0 -51 27q0 14 45 26 q48 14 61 37t13 80q0 22 -2 162t-2 176q0 52 -7.5 79.5t-25.5 55.5q-45 74 -155 74q-42 0 -76 -10.5t-47.5 -20t-34.5 -27.5q-5 -5 -13 -27t-8 -32q0 -1 -0.5 -46.5t-1 -104t-0.5 -121t0.5 -111t1.5 -61.5q5 -52 20 -71.5t66 -31.5q17 -5 30 -13.5t13 -15.5q0 -24 -49 -24 q-22 0 -75.5 2t-77.5 2q-21 0 -73 -2t-73 -2q-53 0 -53 24q0 4 3 8.5t13 10.5t25 10q51 12 64.5 32.5t13.5 78.5v403q0 70 -27 105q-47 61 -153 61q-89 0 -164 -57q-20 -17 -23 -54q-4 -51 -4 -473q0 -34 14.5 -56t59.5 -36q30 -9 42.5 -17t12.5 -20q0 -20 -55 -20 q-1 0 -26 1t-63.5 2t-72.5 1q-37 0 -85.5 -3t-68.5 -3q-51 0 -51 22z" />
<glyph unicode="n" horiz-adv-x="1067" d="M57 20q0 20 43 31q50 15 65.5 36.5t20.5 78.5q11 112 11 448q0 20 -9.5 37.5t-40.5 42.5q-38 25 -38 35t12.5 23t23.5 18q104 36 138 59q38 23 49 23q7 0 13.5 -12t6.5 -19q0 -20 -4 -57.5t-4 -44.5q0 -3 1.5 -5t3.5 -2h5l2 1q167 112 275 112q118 0 186 -77 q34 -40 53 -106.5t19 -143.5q0 -286 6 -373q7 -53 76 -72q51 -13 51 -35t-61 -22q-22 0 -72 2t-80 2q-29 0 -80 -2t-61 -2q-16 0 -31.5 6.5t-15.5 17.5q0 20 47 35q37 13 48.5 32.5t14.5 70.5q6 102 6 374q0 51 -19.5 93.5t-41.5 58.5q-19 14 -58.5 26.5t-72.5 12.5 q-109 0 -183 -66q-6 -6 -13 -21.5t-7 -27.5q0 -466 2 -491q2 -24 16 -37.5t60 -26.5q37 -11 37 -30q0 -11 -14.5 -18t-36.5 -7q-10 0 -55.5 1t-69.5 1q-43 0 -100.5 -3t-69.5 -3q-54 0 -54 26z" />
<glyph unicode="o" horiz-adv-x="987" d="M66 395q0 199 143 320q128 112 303 112q77 0 150 -29.5t131 -82t93.5 -132.5t35.5 -173q0 -117 -56 -213.5t-123 -139.5q-114 -82 -254 -82q-69 0 -141 29t-131 78q-65 53 -108 144t-43 169zM240 444q0 -106 24 -182q36 -109 111.5 -168t154.5 -59q58 0 125 67 q38 41 65.5 122.5t27.5 148.5q0 194 -103 313q-33 36 -82 58t-90 22q-64 0 -133 -59q-41 -38 -70.5 -112t-29.5 -151z" />
<glyph unicode="p" horiz-adv-x="1015" d="M-4 -510q0 7 12.5 17t34.5 14q81 17 101 47t26 141q6 102 6 445v413q0 94 -16 105q-76 55 -76 65q0 7 11.5 21t17.5 16q53 14 155 72q36 18 41 18t14 -9t9 -15q-2 -20 -4 -61t-2 -44q0 -7 5 -10.5t11 0.5q73 49 133 74q57 24 152 24q56 0 118.5 -31.5t108.5 -82.5 q40 -45 68 -117t28 -152q0 -90 -42 -187.5t-132 -164.5q-134 -104 -325 -104q-61 0 -115 8q-4 0 -9 -9.5t-5 -17.5q0 -264 8 -340q5 -42 23.5 -63t74.5 -39q57 -17 57 -37q0 -12 -16 -19.5t-37 -7.5q-18 0 -109 5.5t-135 5.5q-23 0 -61 -3.5t-70 -3.5q-25 0 -43 7t-18 20z M320 446q-1 -27 -1 -50q0 -94 5 -144q7 -66 26 -90q38 -53 99 -83t106 -30q53 0 94 35q68 57 103.5 149.5t35.5 151.5q0 159 -83 250q-37 38 -91.5 61t-93.5 23q-119 0 -166 -37q-19 -15 -26 -61q-7 -45 -8 -175z" />
<glyph unicode="q" horiz-adv-x="1001" d="M66 381q0 77 22 144t58 112t68.5 73.5t66.5 47.5q46 28 116 48.5t119 20.5q109 0 176 -20q71 -23 78 -23q13 0 49 33q31 27 49 27q4 0 8 -4.5t5.5 -13.5t-2.5 -23q-23 -80 -23 -723q0 -307 6 -440q2 -58 19.5 -77.5t87.5 -31.5q14 -2 29.5 -11.5t15.5 -19.5 q0 -11 -14 -18.5t-37 -7.5q-92 0 -227 -12.5t-167 -12.5q-51 0 -51 25q0 10 15 19.5t36 12.5q45 9 72.5 21t39.5 30t15.5 29.5t5.5 34.5q3 34 7 175t4 235q0 9 -3.5 15t-7.5 5q-152 -76 -235 -76q-180 0 -299 123q-47 50 -74.5 128.5t-27.5 154.5zM236 428q0 -162 102 -272 q43 -43 105.5 -65.5t125.5 -22.5q23 0 63.5 10t59.5 24q6 3 13.5 28t7.5 36q0 254 -11 369q-2 18 -14 62t-20 56q-31 47 -88.5 79t-112.5 32q-71 0 -119 -43q-112 -99 -112 -293z" />
<glyph unicode="r" horiz-adv-x="696" d="M68 16q0 12 41 27q59 20 72.5 48t15.5 122v391q0 48 -23 62q-19 15 -38.5 28.5t-25.5 18t-6 8.5q0 26 27 35q100 34 152 65q39 25 41 25q5 0 11.5 -10t6.5 -15q0 -18 -2 -55t-2 -57q0 -5 5 -8t9 -1q61 58 124 92.5t110 34.5q55 0 78.5 -23.5t23.5 -45.5q0 -9 -12 -29 q-17 -25 -46 -57.5t-38 -36.5q-3 -1 -13.5 1t-15.5 5q-20 17 -52 31t-60 14q-66 0 -91 -29q-20 -23 -20 -45q0 -31 5.5 -225t6.5 -217q7 -96 54 -104q16 -3 50 -13t44 -12q37 -11 37 -33q0 -18 -50 -18q-17 0 -95 5t-146 5q-32 0 -72 -4t-63 -4q-43 0 -43 24z" />
<glyph unicode="s" horiz-adv-x="657" d="M72 176q0 43 16 43q18 0 43 -47q42 -77 86 -111t100 -34q39 0 82 30q22 18 34.5 50t12.5 63q0 80 -92 137q-73 52 -125 86q-53 34 -90 87.5t-37 119.5q0 116 113 184q67 43 164 43q58 0 104 -12q34 -6 66 -22q4 -2 10 -11.5t6 -17.5q0 -21 3 -69t3 -52q0 -15 -6.5 -26 t-17.5 -11q-16 0 -31 35q-64 137 -164 137q-57 0 -90 -43t-33 -84q0 -50 47 -94t156 -104q85 -50 122.5 -105t37.5 -125q0 -114 -119 -200q-29 -20 -78 -34t-94 -14q-52 0 -113.5 12.5t-85.5 32.5q-6 11 -18 64t-12 92z" />
<glyph unicode="t" horiz-adv-x="659" d="M68 725q0 11 12 23q137 109 164 141q39 45 47 45q7 0 17.5 -9.5t10.5 -13.5v-96q0 -5 5.5 -10.5t11.5 -5.5q20 0 81 2t115 4t56 2t12 -6t10 -10l6 -77v-1q0 -12 -18.5 -17.5t-34.5 -5.5h-223q-7 0 -12.5 -5t-5.5 -9q-5 -102 -5 -440q0 -66 35 -101q43 -39 125 -39 q48 0 101 31q22 12 30 12q2 0 4.5 -1.5t5.5 -7t3 -13.5q0 -22 -29 -51q-94 -91 -219 -91q-59 0 -109 30t-71 67q-27 41 -27 135q0 39 4 229t4 226q0 17 -78 40q-12 4 -20 11t-8 12z" />
<glyph unicode="u" horiz-adv-x="1019" d="M51 772q0 6 9 12.5t26 6.5q25 0 77.5 5.5t95 11t44.5 5.5q6 0 11 -10.5t5 -20.5v-28q-1 -64 -3 -250q-4 -238 -3 -271q0 -35 15 -67t37 -47q25 -19 50 -28.5t41.5 -11t47.5 -1.5q73 0 155 72q9 7 20 25t11 24l4 471q0 9 -13 25.5t-22 19.5q-87 22 -94 24q-14 4 -27.5 13 t-13.5 20q0 6 16 12.5t31 6.5q134 0 220 22q27 8 49 8q7 0 10.5 -10.5t3.5 -19.5q-4 -53 -12 -309.5t-8 -370.5q0 -6 7 -17.5t17 -11.5q6 0 47.5 5t55.5 5q5 0 13 -15t11 -24q0 -5 -8 -12.5t-14 -7.5q-49 -4 -187 -39q-66 -19 -71 -19q-6 0 -13.5 9.5t-7.5 19.5q0 5 3.5 36 t4.5 50q0 7 -3.5 11.5t-6.5 2.5q-129 -89 -168 -104q-62 -25 -137 -25q-117 0 -180 97q-29 48 -29 96q0 378 -4 487q0 10 -2.5 19t-5 15.5t-8.5 12.5t-9.5 9t-12 7.5t-11.5 6t-14 5.5t-13 5q-37 16 -37 37z" />
<glyph unicode="v" horiz-adv-x="866" d="M-16 786q0 10 16.5 16.5t32.5 6.5q20 0 90 -5t80 -5q30 0 74.5 2t52.5 2q47 0 47 -23q0 -17 -45 -30q-27 -7 -39.5 -19.5t-10.5 -25t5 -25.5q41 -122 105.5 -272t76.5 -160q7 -10 16 8q24 56 84 212.5t72 199.5q11 38 -1.5 54t-61.5 34q-33 12 -33 26q0 10 11 16.5 t30 6.5t51 -3t59 -3q18 0 69 5t71 5q15 0 28 -7t13 -16t-9 -14.5t-34 -15.5q-34 -12 -55 -29.5t-48 -50.5q-13 -20 -39 -79t-69 -163t-60 -145q-26 -66 -39.5 -105.5t-27.5 -88t-25 -81.5q-7 -24 -21.5 -38.5t-27.5 -14.5q-7 0 -15 10.5t-12 26.5q-6 19 -17 53.5t-23 68 t-33 87.5q-39 105 -106.5 258t-106.5 223q-27 52 -86 68q-39 13 -39 30z" />
<glyph unicode="w" horiz-adv-x="1339" d="M-12 782q0 25 59 25q16 0 65.5 -4t73.5 -4q28 0 78 3t66 3q26 0 39.5 -7t13.5 -16q0 -20 -51 -32q-45 -8 -45 -45q0 -15 8 -35q18 -57 91.5 -246t84.5 -209q3 -6 6.5 -7.5t6.5 0.5t5 7q42 83 144 311q10 23 10 41q-7 48 -33 99q-16 29 -23 40t-24 25.5t-39 20.5 q-45 13 -45 32q0 21 49 21q12 0 62 -3t76 -3q18 0 69 3t74 3q22 0 35.5 -7t13.5 -16q0 -24 -49 -32q-24 -5 -38.5 -15t-17.5 -17t-3 -13q0 -7 24 -74q0 -1 34 -91t69.5 -182.5t54.5 -136.5q2 -7 5 -8.5t6.5 1.5t6.5 9q16 33 38.5 89.5t56 143t42.5 109.5q35 90 35 123 q0 13 -3.5 22t-22.5 21.5t-54 20.5q-1 0 -4 1q-43 14 -43 31q0 9 15.5 15t31.5 6q10 0 60 -3t67 -3q38 0 89 5t63 5q19 0 31 -6t12 -15q0 -19 -47 -30q-13 -4 -23.5 -8.5l-17.5 -7.5t-15 -10t-11.5 -10t-10.5 -13.5l-9 -13.5t-10.5 -17.5t-11.5 -18.5q-68 -121 -196 -440 q-76 -186 -86 -221q-8 -25 -27 -25q-16 0 -39 31q-52 150 -53 152q-7 17 -57 140.5t-70 172.5q-1 3 -7 2.5t-7 -4.5q-131 -273 -187 -414q-9 -27 -24 -55.5t-27 -28.5q-27 0 -37 31q-3 7 -61 176q-11 32 -78 198.5t-98 239.5q-29 66 -52.5 97t-62.5 41q-51 11 -51 30z" />
<glyph unicode="x" horiz-adv-x="872" d="M-6 14q0 21 51 33q95 26 154 94q23 27 86 113.5t84 114.5q6 9 0 20q-8 19 -55.5 101.5t-86.5 142.5q-66 99 -143 123q-53 14 -53 37q0 18 53 18q9 0 79.5 -6t98.5 -6q22 0 63 2t58 2q45 0 45 -19q0 -11 -11 -20.5t-28 -13.5q-7 -2 -12.5 -4.5t-9.5 -4.5t-7 -4.5t-5 -4.5 t-3.5 -5t-2 -4.5t-1 -4.5t-0.5 -4v-4v-3q0 -9 43 -82.5t66 -106.5q4 -8 14 2q69 90 109 168q13 25 9.5 35t-24.5 18q-34 14 -44.5 21.5t-10.5 17.5t11.5 16.5t29.5 6.5q8 0 37.5 -2t50.5 -2q27 0 95 5t83 5q43 0 43 -23q0 -5 -2.5 -8.5t-8.5 -7t-9.5 -5.5t-11.5 -5l-7 -2 q-67 -19 -106.5 -39.5t-71.5 -59.5q-81 -100 -143 -188q-6 -11 -2 -22q17 -39 72 -134t98 -157q28 -41 58.5 -66t49.5 -33t47 -14q47 -11 47 -31q0 -24 -49 -24q-34 0 -107.5 5t-113.5 5q-20 0 -52 -2t-52 -2q-21 0 -32 8t-11 19q0 15 39 26l19.5 7.5t13.5 9t7 14t-4.5 20.5 t-15.5 31q-83 161 -100 176q-8 7 -15 0q-27 -27 -77.5 -104.5t-51.5 -98.5q0 -19 12 -32t42 -25q10 -3 19 -12.5t9 -18.5q0 -20 -43 -20q-23 0 -48 2t-40 2q-38 0 -94 -4t-72 -4q-59 0 -59 22z" />
<glyph unicode="y" horiz-adv-x="847" d="M-10 780q0 25 49 25q25 0 77 -4t83 -4q33 0 84 2t59 2q15 0 30 -6t15 -17q0 -24 -47 -35q-43 -12 -50.5 -25.5t7.5 -53.5q22 -70 93.5 -246.5t84.5 -196.5q1 -2 4 -2.5t6.5 2t6.5 8.5q18 39 85.5 215t75.5 203q6 20 6 36q0 18 -9 30q-16 22 -75 35q-18 4 -30.5 13 t-12.5 15q0 25 52 25q21 0 65 -2t56 -2q11 0 55 4t74 4q40 0 40 -19q0 -20 -45 -34q-33 -11 -55 -34t-45 -73q-92 -209 -225 -545q-40 -104 -113.5 -303t-99.5 -268q-7 -22 -36 -39.5t-71 -17.5q-48 0 -70 30.5t-22 69.5q0 30 25.5 60t64.5 30q4 0 33.5 -1t40.5 -1 q8 0 14.5 5.5t8.5 10.5t8 19q13 24 50 124t48 140q1 3 4 16.5t3.5 17.5t1.5 13.5t0 15.5t-3 11q-9 22 -31 84q-33 92 -110 275t-123 278q-11 23 -18 33.5t-26 23t-52 23.5q-41 14 -41 30z" />
<glyph unicode="z" horiz-adv-x="802" d="M59 20q0 8 144 220q63 88 299 471q8 12 -6 16q-11 3 -103.5 7.5t-161.5 4.5q-14 0 -54 -43t-66 -86q-16 -32 -31 -32q-6 0 -13.5 11t-7.5 23q0 17 17 70q20 68 20 127q0 10 6 16q12 11 19 11q3 0 4 -2q49 -35 106 -35h187q82 1 174 5q75 4 101 3h9q9 0 17 -6q6 -5 8 -15 t-2 -16l-46 -59q-46 -59 -77 -105t-313 -502q-5 -6 -2 -12t8 -8q12 -4 106 -10t156 -6q25 0 49 24q51 51 101 121q30 45 43 45q10 0 14 -14q2 -9 3 -16q0 -5 -1 -9q-2 -10 -24.5 -86t-30.5 -119q0 -6 -10.5 -15t-16.5 -9q-4 0 -86 2.5t-180.5 5t-141.5 2.5q-40 0 -75.5 -1.5 t-68 -3.5t-46.5 -3q-6 0 -16.5 10.5t-10.5 17.5z" />
<glyph unicode="{" horiz-adv-x="700" d="M51 586q0 5 6.5 12t18.5 10q105 23 151.5 77.5t46.5 121.5q0 38 -26.5 182t-26.5 172q0 49 32 121t95 123q124 94 246 94q37 0 37 -18q0 -5 -9.5 -21.5t-15.5 -19.5q-5 -2 -74 -17q-178 -45 -178 -252q0 -42 28 -158.5t28 -170.5q0 -70 -58 -134t-145 -110 q-16 -11 -2 -18q112 -58 159.5 -126.5t47.5 -160.5q0 -80 -45 -277q-23 -98 -23 -114q0 -102 68 -157t186 -81q9 -2 18 -7t9 -9q0 -17 -17 -27t-33 -10q-86 0 -157.5 31.5t-115.5 83t-67.5 113.5t-23.5 126q0 19 25.5 157t25.5 185q0 101 -30.5 148t-116.5 73 q-29 10 -46.5 27.5t-17.5 30.5z" />
<glyph unicode="|" horiz-adv-x="530" d="M203 -508v2030h125v-2030h-125z" />
<glyph unicode="}" horiz-adv-x="700" d="M47 1462q0 10 17.5 23.5t29.5 13.5q86 0 157 -31t115.5 -82t68.5 -113.5t24 -127.5q0 -17 -24.5 -134.5t-24.5 -162.5q0 -101 30 -148.5t115 -74.5q32 -11 47.5 -25.5t15.5 -26.5q0 -15 -22 -26q-106 -23 -153.5 -78t-47.5 -121q0 -40 25.5 -209t25.5 -190 q0 -54 -29.5 -123.5t-92.5 -120.5q-66 -53 -132 -73.5t-102 -20.5q-14 0 -25.5 9t-11.5 18q0 14 23 26q28 16 82 31q89 23 122 87t33 157q0 42 -25.5 179.5t-25.5 192.5q0 73 59.5 140t147.5 110q11 8 0 14q-117 58 -163 125t-46 164q0 81 43 232q21 94 21 112 q0 42 -13.5 76t-33.5 56.5t-56 43t-68 32.5t-81 28q-25 10 -25 18z" />
<glyph unicode="~" horiz-adv-x="1277" d="M129 393q19 58 46 109t64 95t87 69.5t106 25.5q53 0 117 -36t113 -79.5t104 -79.5t92 -36q74 0 113.5 48t87.5 167q8 18 22 18q26 0 51.5 -18.5t18.5 -38.5q-45 -133 -123.5 -215t-179.5 -82q-47 0 -97 24t-92.5 58.5t-83 68.5t-81 58t-74.5 24q-57 0 -101 -47t-92 -155 q-13 -31 -26 -31q-18 0 -47.5 17.5t-24.5 35.5z" />
<glyph unicode="&#xa1;" horiz-adv-x="552" d="M135 795q0 52 35 88.5t88 36.5q47 0 84 -32t37 -95q0 -60 -40.5 -91.5t-82.5 -31.5q-59 0 -90 40.5t-31 84.5zM141 -190q1 37 33 308.5t39 317.5q2 22 14.5 42t28.5 20q15 0 25.5 -18.5t11.5 -51.5q1 -18 31.5 -272.5t37.5 -348.5q4 -45 -7 -79.5t-30 -52.5t-38 -26.5 t-35 -8.5q-33 0 -56.5 18t-34.5 47t-15.5 54.5t-4.5 50.5z" />
<glyph unicode="&#xa2;" d="M123 600q0 123 55.5 222.5t157.5 166.5q36 23 98.5 47t114.5 33q12 3 12 12l19 148q0 3 3.5 7.5t8.5 4.5q14 0 31.5 -5t17.5 -9l-10 -137q0 -15 8 -15q119 -3 195 -55q34 -25 34 -62q0 -21 -23.5 -43t-37.5 -22q-15 0 -82 57q-46 39 -98 49q-2 1 -4 -0.5t-3 -3.5l-2 -2 l-63 -655q0 -19 12 -21q16 -4 33 -4q47 0 102.5 21.5t86 41t53.5 38.5q6 5 13 0.5t7 -11.5q0 -38 -31 -69q-53 -57 -128.5 -90t-149.5 -41q-3 0 -7.5 -5.5t-4.5 -11.5l-17 -159q-3 -3 -20.5 -9t-24.5 -6q-8 0 -14 4.5t-6 8.5l18 163q0 4 -5.5 10.5t-10.5 6.5 q-83 12 -156.5 57.5t-116.5 110.5q-28 44 -46.5 106t-18.5 121zM276 678q0 -128 54 -211.5t145 -126.5q5 -2 9.5 2t4.5 10l62 643q-4 11 -8 11q-105 0 -186 -102t-81 -226z" />
<glyph unicode="&#xa3;" d="M-20 20q0 37 47.5 95t117.5 88q12 5 33 26q68 68 88 346q0 3 -3 11t-7 8l-133 -2q-4 -1 -7 4.5t-5 13t-2 13.5q0 13 5 23.5t11 12.5l137 11q5 2 9.5 8t4.5 10q25 223 79.5 346.5t142.5 190.5t204 67q90 0 142.5 -46t52.5 -109q0 -57 -29.5 -90t-60.5 -33q-7 0 -13 4.5 t-6 9.5q0 4 1.5 17t1.5 20q0 69 -35 121.5t-90 52.5q-36 0 -66 -23t-61 -80t-56 -167.5t-43 -270.5q0 -16 13 -16l254 10q7 0 12.5 -9.5t3.5 -18.5q0 -11 -7.5 -25t-13.5 -14l-253 -17q-5 0 -13.5 -6.5t-9.5 -13.5q-24 -124 -57 -201.5t-97 -146.5q-4 -3 -2.5 -10t9.5 -7 q40 0 94 -12.5t96 -34.5q35 -16 90 -50.5t96.5 -55.5t71.5 -21q80 0 108.5 34.5t30.5 109.5q0 32 -10 110q0 8 7.5 17.5t15.5 9.5q31 0 54.5 -29t22.5 -78q-1 -50 -30.5 -104t-76.5 -98t-112 -72.5t-131 -28.5q-21 0 -44 7t-40.5 15.5t-45.5 28.5t-44.5 33t-52.5 43t-55 45 q-14 11 -26.5 19.5t-23 13.5t-17.5 8.5t-16 4.5t-12.5 1.5t-11.5 0t-10 -0.5q-5 0 -17.5 -15.5t-31 -42.5t-31.5 -42q-58 -64 -92 -64q-23 0 -40 14t-15 31z" />
<glyph unicode="&#xa4;" d="M109 963q-8 9 0 28t18 29q33 30 51 14l105 -106q3 -3 14 -5t14 1q88 53 191 53q99 0 194 -57q13 -6 21 2l102 106q6 6 10 8.5t17 -2t31 -20.5q18 -14 22 -30.5t-4 -22.5l-102 -111q-4 -12 0 -23q63 -95 63 -209q0 -107 -70 -208q-2 -2 -3.5 -5t-1.5 -5.5t1 -2.5l109 -118 q7 -6 3 -25t-20 -33q-7 -7 -23 -13t-20 -1l-124 112q-6 6 -21 -2q-98 -61 -184 -61q-104 0 -189 53q-9 4 -24 -2l-105 -102q-15 -19 -51 10q-36 36 -16 66l94 104q6 13 0 21q-68 103 -68 210q0 87 70 201q2 2 3 11.5t-3 13.5zM254 616q0 -111 72.5 -180t175.5 -69 q100 0 174 70t74 179q0 104 -77 180t-171 76q-107 0 -177.5 -73t-70.5 -183z" />
<glyph unicode="&#xa5;" d="M18 1253q0 21 48 21q14 0 62 -3t77 -3q33 0 98.5 3t83.5 3q21 0 32 -7t11 -14q0 -20 -41 -32q-40 -12 -46 -32t13 -59q4 -7 75.5 -159t107.5 -219q7 -13 16 2q78 140 141 276q52 115 52 131q0 36 -76 60q-41 12 -41 32q0 9 14.5 15t34.5 6q21 0 62.5 -3t60.5 -3 q28 -1 78.5 2.5t68.5 3.5q17 0 30 -5.5t13 -15.5q0 -21 -37 -30q-19 -6 -34 -12.5t-28.5 -16.5t-21.5 -16t-20.5 -22t-17.5 -22.5t-20 -29l-21 -31.5q-34 -53 -107.5 -188.5t-93.5 -179.5q-3 -5 -2.5 -11t6.5 -6l217 -2q8 0 8 -16q0 -14 -8.5 -29.5t-15.5 -15.5h-215 q-4 0 -6.5 -7t-2.5 -10v-131q0 -3 4.5 -9.5t6.5 -6.5h211q4 0 8 -6t4 -17q0 -15 -7.5 -27t-15.5 -12l-196 -4q-7 0 -11 -7t-4 -13v-80q0 -99 4.5 -142.5t15 -59.5t36.5 -25q40 -15 69 -21q37 -7 37 -29q0 -8 -14.5 -15t-32.5 -7q-25 0 -89.5 2t-86.5 2q-29 0 -102.5 -4 t-104.5 -4q-39 0 -39 20q0 21 45 33q68 17 84 45.5t21 126.5q2 45 2 154q0 24 -12 24h-211q-17 0 -17 23q0 11 6.5 27t12.5 16h204q7 0 12 4.5t5 9.5v129q0 21 -10 21h-193q-14 0 -14 18q0 12 6.5 29.5t11.5 17.5l178 -2q8 0 0 19q-11 31 -88 181t-123 224q-38 58 -53 72 q-24 22 -74 37q-18 6 -29.5 15t-11.5 17z" />
<glyph unicode="&#xa6;" horiz-adv-x="530" d="M203 -354v708h125v-708h-125zM203 659v709h125v-709h-125z" />
<glyph unicode="&#xa7;" horiz-adv-x="866" d="M84 698q0 90 42 185t95 161q8 40 37.5 87.5t71.5 85.5q105 88 205 88q68 0 116 -35q23 -23 23 -37q0 -17 -22 -43.5t-38 -40.5q-10 -8 -49 2q-82 57 -123 57q-116 0 -116 -131q0 -29 28 -74t59 -79.5t78 -83.5t60 -64q51 -53 94.5 -111.5t82 -143t38.5 -156.5 q0 -40 -4 -77.5t-13 -72.5t-16.5 -60t-22 -56.5t-21 -44.5t-21.5 -41t-17 -31q-49 -88 -133 -159t-145 -87q-51 -15 -76 -15q-44 0 -76 13.5t-44.5 28t-12.5 26.5q0 13 26.5 48.5t59.5 53.5q14 7 45 -14q53 -43 117 -43q116 0 116 133q0 40 -69.5 133t-132.5 156 q-67 70 -125 149t-84 130q-33 78 -33 163zM176 801q0 -106 63.5 -209t172.5 -217q76 -76 137 -156.5t84 -134.5q0 -1 2 -2.5t5 -1.5t5 4q37 65 37 149q0 55 -14 106t-45.5 102.5t-56.5 85.5t-71 91q-15 18 -22 27q-22 26 -84.5 94t-103 117.5t-58.5 87.5q-3 3 -5.5 4t-3.5 0 t-3 -4l-2 -2q-37 -61 -37 -141z" />
<glyph unicode="&#xa8;" horiz-adv-x="819" d="M147 1133q0 38 25.5 67t65.5 29q36 0 60 -28.5t24 -65.5q0 -43 -27 -67t-62 -24q-31 0 -58.5 24.5t-27.5 64.5zM492 1133q0 42 28.5 68t63.5 26t61.5 -29t26.5 -63q0 -37 -27.5 -64t-64.5 -27q-35 0 -61.5 26t-26.5 63z" />
<glyph unicode="&#xa9;" horiz-adv-x="1417" d="M82 653q0 128 49.5 245t133.5 202t200.5 135.5t245.5 50.5q176 0 320 -85.5t224 -230t80 -317.5q0 -128 -49 -245.5t-132 -203t-199 -136t-244 -50.5q-179 0 -324 86t-225 231t-80 318zM158 655q0 -116 46 -223t122 -184t177 -122.5t208 -45.5q151 0 277 75t199 207.5 t73 292.5q0 117 -44.5 223t-118.5 182t-175 120.5t-211 44.5q-154 0 -281 -75.5t-199.5 -206.5t-72.5 -288zM358 659q0 90 37.5 154t85.5 102q59 51 132 73t132 22q71 0 125 -13q14 -2 53.5 -12t47.5 -12q15 -5 18 -47q2 -29 2 -90q0 -37 -22 -37q-7 0 -15.5 11t-11.5 21 q-15 54 -68 90.5t-116 36.5q-111 0 -182.5 -76.5t-71.5 -197.5q0 -70 17.5 -126.5t44.5 -91t63 -58t70 -32.5t67 -9q41 0 73 9.5t54.5 30.5t33.5 34.5t27 39.5q27 41 45 41q11 0 11 -26q-1 -20 -11 -58t-18 -53q-4 -11 -21 -26t-26 -19q-88 -35 -184 -35q-99 0 -178.5 37.5 t-120.5 83.5q-93 102 -93 233z" />
<glyph unicode="&#xaa;" horiz-adv-x="557" d="M49 922q0 20 19 49t41 49q36 28 89 52t89 24q76 0 119 -54t43 -129q0 -14 -1.5 -47.5t-3 -78t-2.5 -64.5q-2 -35 11 -57.5t39 -22.5q20 0 51 21q3 2 5.5 0.5t4.5 -6.5t2 -13q0 -17 -16 -37q-48 -51 -113 -51q-34 0 -57 18.5t-33 47.5q-3 12 -12 6q-107 -72 -158 -72 q-40 0 -76.5 38t-36.5 91q0 72 70 96q4 2 85.5 26t113.5 36q13 13 14 18q2 20 2 74q0 41 -30.5 68.5t-67.5 27.5q-46 0 -64 -10q-14 -8 -14 -59q0 -12 -12 -21q-2 0 -35 -14.5t-45 -16.5q-21 -4 -21 11zM164 705q0 -25 25 -47.5t51 -22.5q14 0 36 10.5t35 24.5q19 16 19 28 q2 14 2 86q-1 8 -6 11.5t-9 1.5q-86 -21 -119.5 -40.5t-33.5 -51.5z" />
<glyph unicode="&#xab;" horiz-adv-x="1411" d="M205 404.5q-3 17.5 6 21.5q132 74 266.5 162.5t194.5 140.5q48 41 73 41q8 0 10 -8t-2.5 -22t-15.5 -29q-54 -78 -301 -277q-12 -10 -12.5 -20.5t6.5 -14.5q8 -7 50 -44t59.5 -53t54 -50.5t57 -56t44 -49t36.5 -48.5q6 -9 10.5 -17t8 -18.5t-0.5 -17t-16 -6.5 q-22 0 -47 22q-224 189 -461 318q-17 8 -20 25.5zM661.5 405.5q-2.5 16.5 6.5 20.5q133 72 262 159t194 144q48 41 68 41q8 0 11.5 -8t-0.5 -22t-15 -29q-34 -49 -123 -129.5t-174 -147.5q-23 -18 -6 -35q237 -195 303 -305q7 -10 11 -22.5t1.5 -22.5t-14.5 -10 q-15 0 -43 22q-218 185 -463 318q-16 10 -18.5 26.5z" />
<glyph unicode="&#xac;" horiz-adv-x="1277" d="M123 637q0 24 10 51t21 27h940q12 0 17.5 -8t6 -14.5t0.5 -20.5v-561q0 -21 -31.5 -31t-64.5 -10q-25 0 -25 30v465q0 24 -7.5 32.5t-26.5 8.5h-797q-29 0 -36 5t-7 26z" />
<glyph unicode="&#xad;" horiz-adv-x="598" d="M72 387q0 36 11.5 60t22.5 26q125 18 398 45q3 0 9.5 -8t6.5 -14q0 -31 -10 -64.5t-27 -34.5q-121 -14 -379 -39q-13 -1 -22.5 8t-9.5 21z" />
<glyph unicode="&#xae;" horiz-adv-x="477" d="M33 1094q0 91 65.5 158t161.5 67t160.5 -64.5t64.5 -160.5q0 -87 -63 -159.5t-166 -72.5q-95 0 -159 67t-64 165zM78 1094q0 -82 52 -136.5t130 -54.5q79 0 129.5 54.5t50.5 136.5q0 80 -53.5 134t-126.5 54q-78 1 -130 -52.5t-52 -135.5zM153.5 1191.5q-1.5 4.5 2 7 t8.5 3.5q64 6 100 6q40 0 64 -16.5t24 -44.5q0 -7 -2.5 -13.5t-5.5 -10.5t-8 -7.5t-8 -5.5t-7.5 -4t-5.5 -2q-4 -4 -2 -8q39 -74 66 -92q12 -6 12 -13q0 -10 -29 -10q-36 0 -55 31q-30 49 -35 59q-3 8 -18 8q-10 0 -12 -1.5t-2 -6.5v-22q0 -23 4 -28.5t28 -14.5 q6 -3 7.5 -7.5t-0.5 -8t-7 -3.5h-55h-53q-6 0 -8.5 7t4.5 10q28 11 28 36v105q0 21 -4 26.5t-18 10.5q-11 5 -12.5 9.5zM240 1114q0 -6 2 -7t16 -1q22 0 30.5 8.5t8.5 28.5q0 16 -10.5 28.5t-26.5 12.5q-20 0 -20 -8v-62z" />
<glyph unicode="&#xaf;" horiz-adv-x="819" d="M172 1087q0 30 10 58.5t21 28.5l428 8q5 0 11.5 -13t6.5 -20q0 -34 -12 -60t-31 -26h-418q-5 0 -10.5 6t-5.5 18z" />
<glyph unicode="&#xb0;" horiz-adv-x="577" d="M51 1067q0 103 73.5 169.5t172.5 66.5q94 0 160.5 -64t66.5 -172q0 -109 -69.5 -173.5t-165.5 -64.5q-101 0 -169.5 63.5t-68.5 174.5zM147 1067q0 -74 44.5 -119t111.5 -45q53 0 90 45.5t37 118.5q0 70 -41 117t-106 47q-59 0 -97.5 -47t-38.5 -117z" />
<glyph unicode="&#xb1;" horiz-adv-x="1277" d="M123 -72q0 24 10 52t21 28h968q20 0 25.5 -5t5.5 -19q0 -36 -9.5 -61t-19.5 -25h-958q-29 0 -36 4.5t-7 25.5zM123 616q0 24 10 51t21 27h399q9 0 18 8t9 17v397q0 11 32.5 21t57.5 10q21 0 25.5 -6.5t4.5 -34.5v-387q0 -15 5 -20t18 -5h399q20 0 25.5 -5t5.5 -19 q0 -36 -9.5 -60t-19.5 -24h-403q-9 0 -15 -8.5t-6 -18.5v-389q0 -22 -31.5 -32.5t-64.5 -10.5q-12 0 -18 6t-6 25v393q0 22 -6.5 28.5t-26.5 6.5h-383q-27 0 -34 4.5t-7 25.5z" />
<glyph unicode="&#xb2;" horiz-adv-x="612" d="M47 1405q0 23 19 47q40 56 97 93.5t122 37.5q87 0 145.5 -60.5t58.5 -144.5q0 -89 -88 -184q-63 -70 -190 -190q-6 -8 -2.5 -12.5t8.5 -4.5q16 0 78.5 -0.5t107 -0.5t48.5 1q26 0 73 60q18 22 33 22q10 0 12 -16.5t-4 -30.5q-32 -63 -47 -137q-5 -13 -16 -13q-1 0 -40 1 t-86 2t-96 2t-69 0l-125 -3q-13 0 -25 6.5t-12 12.5q0 15 17 29q102 91 200 206q90 109 90 228q0 55 -33.5 86t-84.5 31q-40 0 -78 -18.5t-62 -45.5q-23 -20 -37 -20q-6 0 -10 5.5t-4 10.5z" />
<glyph unicode="&#xb3;" horiz-adv-x="612" d="M72 920q0 20 15 38t30 23q13 5 22 -4q66 -57 148 -57q50 0 89.5 49.5t39.5 99.5q0 63 -35 106.5t-100 43.5q-14 0 -24.5 -1.5t-27 -6t-28.5 -7.5q-6 -2 -13.5 -0.5t-7.5 4.5q0 13 4 21q11 19 21 27.5t33 17.5q68 29 90 53t22 76q0 35 -28.5 65.5t-65.5 30.5 q-54 0 -121 -55q-34 -31 -40 -12q-1 2 -1 6q0 14 6 26q31 50 83.5 86.5t119.5 36.5q74 0 119 -43.5t45 -93.5q0 -46 -26 -78t-79 -67q-3 -1 -2 -6.5t5 -6.5q79 -9 122 -49.5t43 -107.5q0 -76 -50.5 -143t-137.5 -109q-66 -35 -149 -35q-38 0 -79.5 23t-41.5 49z" />
<glyph unicode="&#xb4;" horiz-adv-x="819" d="M384 929.5q-1 20.5 5 35.5q46 137 127 315q10 20 24.5 31.5t24.5 11.5q64 0 78 -16q4 -7 1 -23.5t-11 -32.5q-30 -57 -87.5 -152.5t-94.5 -150.5q-10 -15 -25.5 -27t-28.5 -12q-12 0 -13 20.5z" />
<glyph unicode="&#xb5;" horiz-adv-x="927" d="M125 793q0 20 18 32q18 9 45 9q19 0 38 -7t26.5 -11.5t28.5 -18.5q2 0 11 -20.5t9 -26.5q0 -28 -31 -197q-10 -56 -24.5 -158.5t-16.5 -111.5q-4 -33 7 -88q14 -74 98 -74q67 0 141.5 77.5t112.5 176.5q12 39 16 80q6 136 29 323q3 19 14 38.5t19 19.5q68 0 120 -52 q8 -8 8.5 -24.5t-3.5 -46.5q-6 -67 -46 -199.5t-71 -198.5q-8 -20 -8 -51q-3 -71 33 -109t77 -38q84 0 137 65q5 6 11.5 2.5t9.5 -12.5q4 -15 -2 -48t-17 -54q-55 -107 -153 -107q-58 0 -99 56.5t-42 181.5q0 1 -2.5 2t-5.5 1t-5 -3q-73 -122 -129 -173t-110 -51 q-29 0 -56 16.5t-47 42t-32 46.5t-21 41q-2 8 -9 -4l-3 -6q-4 -34 -8.5 -174t0.5 -195q25 -145 139 -215q7 -5 2 -31q-8 -19 -60 -45q-28 -14 -59 -14q-29 0 -63 51q-25 46 -25 219q0 92 14 463q3 59 -2 111q-6 47 -11 222t-3 288z" />
<glyph unicode="&#xb6;" horiz-adv-x="1118" d="M102 754q0 113 38 196.5t118 163.5q61 63 157 102t177 50q48 6 171.5 11t176.5 5h72q35 0 35 -43q0 -8 -8 -18.5t-13 -10.5q-6 0 -97.5 -2t-111.5 -2q-5 0 -9.5 -11t-4.5 -21q0 -273 2 -563t4 -469t2 -185q0 -62 -3 -110t-12 -109t-28 -105t-48.5 -83.5t-77.5 -60.5 t-110 -21q-96 0 -155.5 63.5t-59.5 138.5q0 73 49.5 133t122.5 60q43 0 75 -30.5t32 -65.5q0 -52 -31.5 -77.5t-56.5 -25.5q-36 0 -55 12q-19 13 -29 13q-23 0 -23 -27q0 -58 38.5 -92.5t105.5 -34.5q95 0 137.5 91.5t44.5 267.5q1 103 2.5 197t1.5 126q0 9 -5 18.5 t-11 10.5q-124 2 -232.5 34.5t-195 93t-136 158.5t-49.5 222z" />
<glyph unicode="&#xb7;" horiz-adv-x="419" d="M84 399q0 65 42.5 96t84.5 31q63 0 94 -42t31 -89q0 -54 -36 -90.5t-91 -36.5q-47 0 -86 32.5t-39 98.5z" />
<glyph unicode="&#xb8;" horiz-adv-x="819" d="M243.5 -447.5q-0.5 23.5 4.5 29.5q11 15 22 15q67 -13 86 -13q35 0 54.5 23t19.5 55q0 41 -35 68.5t-80 27.5q-18 0 -32 -2q-8 0 -20.5 12t-12.5 19q0 11 14 27q98 123 154 196h65q-79 -101 -88 -110q-5 -13 13 -25q34 -17 51.5 -27.5t39 -29t31 -42t9.5 -55.5 q0 -87 -101 -167q-85 -64 -139 -64q-34 0 -49 29q-6 10 -6.5 33.5z" />
<glyph unicode="&#xb9;" horiz-adv-x="612" d="M121 893q0 13 11 20.5t44 14.5q41 9 56 22.5t18 42.5q10 72 10 289q0 95 -4 145q0 8 -7 18t-16 13q-4 1 -27.5 10t-37.5 13q-37 11 -37 24q0 17 35 21q57 4 117.5 24.5t81.5 32.5q6 5 13 2t7 -16q0 -4 -0.5 -22.5t-1.5 -58t-2 -83.5q0 -163 4 -389q1 -48 14 -61.5 t64 -29.5q11 -3 16 -5q31 -12 31 -23q0 -25 -37 -25q-6 0 -72 2.5t-92 2.5q-48 0 -99 -3l-50 -2q-12 0 -25.5 6.5t-13.5 14.5z" />
<glyph unicode="&#xba;" horiz-adv-x="657" d="M51 827q0 111 82 190t197 79q110 0 193 -75.5t83 -199.5q0 -108 -82 -186t-200 -78q-109 0 -191 79.5t-82 190.5zM180 840q0 -91 47 -160.5t121 -69.5q68 0 99.5 62t31.5 145q0 86 -50.5 160t-111.5 74q-49 0 -81.5 -35.5t-44 -80.5t-11.5 -95z" />
<glyph unicode="&#xbb;" horiz-adv-x="1411" d="M205 66q3 13 14 28q52 78 301 281q22 17 6 33q-93 77 -182.5 163t-126.5 144q-10 13 -10 34t16 21q17 0 45 -22q202 -176 461 -320q17 -10 20 -26.5t-6 -20.5q-132 -70 -261 -156.5t-195 -144.5q-48 -41 -70 -41q-8 0 -11.5 7t-0.5 20zM658.5 759.5q3.5 10.5 19.5 10.5 q22 0 47 -22q91 -79 215 -165.5t244 -154.5q17 -8 20 -25.5t-6 -21.5q-129 -71 -264 -159.5t-197 -141.5q-48 -41 -73 -41q-18 0 -5 31l15 28q34 49 125.5 130t175.5 145q12 10 12.5 20.5t-6.5 14.5q-11 10 -76.5 69t-96.5 88t-74 74.5t-62 75.5q-8 11 -12.5 22.5t-1 22z " />
<glyph unicode="&#xbc;" horiz-adv-x="1345" d="M121 590q0 13 11 20.5t44 14.5q41 9 56 22.5t18 42.5q10 72 10 289q0 95 -4 145q0 8 -7 18t-16 13q-4 1 -27.5 10t-37.5 13q-37 11 -37 24q0 17 35 21q57 4 117.5 24.5t81.5 32.5q6 6 13 2t7 -16q0 -4 -0.5 -22.5t-1.5 -58t-2 -83.5q0 -163 4 -389q1 -51 15.5 -64 t78.5 -33q31 -12 31 -22q0 -25 -37 -25q-6 0 -72 2t-92 2q-48 0 -99 -2l-50 -2q-12 0 -25.5 6.5t-13.5 14.5zM290.5 -32.5q-5.5 14.5 2.5 30.5q107 170 308.5 491.5t339.5 542t165 260.5q15 25 33 25q21 0 34 -13t3 -30q-102 -161 -320 -509t-351 -558t-171 -264 q-2 -4 -9.5 -4.5t-15.5 4.5q-13 10 -18.5 24.5zM760 240q0 4 6.5 11.5t16 17l12.5 12.5q5 6 46 53t75 87t76.5 90.5t73 89.5t42.5 58q13 19 39 38.5t43 19.5q5 0 10.5 -6.5t5.5 -16.5q0 -1 0.5 -82t1 -175.5t0.5 -129.5q0 -14 11 -14l114 4q10 0 10 -18q0 -13 -6.5 -35 t-13.5 -23l-104 2q-1 0 -3 -2t-4 -5.5t-2 -8.5q0 -15 1.5 -94t0.5 -99q0 -20 -18 -26q-7 -3 -45.5 -7t-46.5 -4q-5 0 -12 6.5t-7 14.5q0 175 2 213q0 5 -3.5 8.5t-8.5 3.5q-181 0 -299 -8q-6 0 -10 8.5t-4 16.5zM879.5 298q2.5 -5 7.5 -5l184 -2q16 0 16 10q0 17 4.5 106.5 t4.5 141.5q0 4 -6 5t-7 -1q-14 -16 -58.5 -68t-79 -94.5t-64.5 -81.5q-4 -6 -1.5 -11z" />
<glyph unicode="&#xbd;" horiz-adv-x="1390" d="M121 590q0 13 11 20.5t44 14.5q41 9 56 22.5t18 42.5q10 72 10 289q0 95 -4 145q0 8 -7 18t-16 13q-4 1 -27.5 10t-37.5 13q-37 11 -37 24q0 17 35 21q57 4 117.5 24.5t81.5 32.5q6 6 13 2t7 -16q0 -4 -0.5 -22.5t-1.5 -58t-2 -83.5q0 -163 4 -389q1 -51 15.5 -64 t78.5 -33q31 -12 31 -22q0 -25 -37 -25q-6 0 -72 2t-92 2q-48 0 -99 -2l-50 -2q-12 0 -25.5 6.5t-13.5 14.5zM251.5 -32.5q-5.5 14.5 2.5 30.5q107 170 308.5 491.5t339.5 542t165 260.5q15 25 33 25q21 0 34 -13t3 -30q-102 -161 -320 -509t-351 -558t-171 -264 q-2 -4 -9.5 -4.5t-15.5 4.5q-13 10 -18.5 24.5zM825 528q0 23 19 47q40 56 97 94t122 38q87 0 146 -60.5t59 -144.5q0 -90 -88 -185q-58 -64 -191 -190q-6 -7 -2.5 -11.5t8.5 -4.5h234q28 0 74 59q18 23 32 23q10 0 12 -17.5t-4 -30.5q-32 -63 -47 -137q-5 -12 -16 -12 q-1 0 -40 1t-86 2t-96 1.5t-69 -0.5l-125 -2q-13 0 -25 6t-12 12q0 15 17 29q99 88 200 207q91 110 91 227q0 55 -33.5 86t-85.5 31q-40 0 -77.5 -18.5t-61.5 -45.5q-23 -20 -37 -20q-6 0 -10.5 5.5t-4.5 10.5z" />
<glyph unicode="&#xbe;" horiz-adv-x="1298" d="M72 616q0 20 15.5 38.5t29.5 23.5q13 5 22 -4q67 -58 148 -58q50 0 89.5 50t39.5 100q0 63 -35 106t-100 43q-15 0 -80 -14q-6 -2 -13.5 -0.5t-7.5 4.5q0 13 4 21q11 19 21 27.5t33 17.5q68 29 90 53t22 76q0 35 -28.5 65.5t-65.5 30.5q-54 0 -121 -55q-34 -31 -40 -12 q-1 2 -1 6q0 14 6 26q31 50 83.5 86.5t119.5 36.5q74 0 119 -43.5t45 -93.5q0 -46 -26 -79t-79 -67q-3 -1 -2 -6t5 -6q79 -9 122 -50t43 -108q0 -76 -50.5 -142.5t-137.5 -108.5q-66 -35 -149 -35q-38 0 -79.5 22.5t-41.5 48.5zM247.5 -32.5q-5.5 14.5 2.5 30.5 q107 170 308.5 491.5t339.5 542t165 260.5q15 25 33 25q21 0 34 -13t3 -30q-102 -161 -320 -509t-351 -558t-171 -264q-2 -4 -9.5 -4.5t-15.5 4.5q-13 10 -18.5 24.5zM711 240q0 4 6.5 11.5t15.5 17t12 12.5q1 1 61.5 70.5t101.5 117.5t89 107t62 83q13 19 39 38.5t43 19.5 q5 0 10.5 -6.5t5.5 -16.5q0 -1 0.5 -82t1 -175.5t0.5 -129.5q0 -14 10 -14l115 4q10 0 10 -18q0 -13 -6.5 -35t-13.5 -23l-105 2q-1 0 -3 -2t-3.5 -5.5t-1.5 -8.5q0 -15 1.5 -94t0.5 -99q0 -20 -18 -26q-7 -3 -45.5 -7t-46.5 -4q-5 0 -12 6.5t-7 14.5q0 175 2 213 q0 5 -4 8.5t-8 3.5q-181 0 -299 -8q-6 0 -10 8.5t-4 16.5zM830 298q3 -5 8 -5l184 -2q16 0 16 10q0 17 4.5 106.5t4.5 141.5q0 4 -5.5 5t-7.5 -1q-16 -19 -59 -69t-79 -93t-65 -82q-4 -6 -1 -11z" />
<glyph unicode="&#xbf;" horiz-adv-x="688" d="M86 59q0 80 19.5 125t56.5 82q25 18 180 105q8 4 14 8.5t10.5 11t7 10.5t4 13t2 12.5t2 15.5t1.5 15q1 25 10.5 39t20.5 14q10 0 21 -18t14 -37q24 -129 24 -162q0 -48 -41.5 -79.5t-148.5 -80.5q-52 -24 -76.5 -51t-24.5 -64q0 -38 5 -64t20 -53t48.5 -41t84.5 -14 q8 0 43.5 4.5t54.5 4.5q22 0 53 -33t31 -86q0 -23 -22.5 -47.5t-55.5 -24.5q-82 0 -198 98q-12 11 -33.5 35t-52.5 66t-52.5 95t-21.5 101zM262 795q0 50 33 84t84 34q45 0 80 -30t35 -90q0 -58 -39.5 -87.5t-79.5 -29.5q-50 0 -81.5 39t-31.5 80z" />
<glyph unicode="&#xc0;" horiz-adv-x="1384" d="M8 10q0 10 11.5 22t33.5 19q36 12 46.5 16t34 15t31.5 19.5t23.5 26.5t27 40.5t26.5 56.5q25 56 177.5 451t192.5 493q13 26 13 43q0 11 4 17q1 1 61 100q22 25 33 25q14 0 33 -54q12 -40 90 -253q73 -207 169 -462t126 -327q26 -63 45 -99.5t42.5 -58.5t44 -30.5 t60.5 -18.5q49 -15 49 -35q0 -26 -65 -26q-31 0 -120.5 5t-137.5 5q-35 0 -78.5 -2t-67.5 -2q-63 0 -63 24q0 9 12 19t37 14q46 9 66.5 26.5t19.5 36.5t-4 42q-5 24 -13 53.5t-22 71t-23 67.5t-29.5 82t-27.5 76q-5 20 -69 20q-279 0 -336 -8q-12 0 -23 -16 q-41 -102 -73.5 -212t-32.5 -147q0 -16 5 -28t28.5 -29.5t66.5 -30.5q55 -16 55 -37q0 -26 -57 -26q-12 0 -65.5 3t-96.5 3q-44 0 -123.5 -5t-89.5 -5q-47 0 -47 20zM391 1608q0 21 37 47q24 24 41 24q10 0 23 -8.5t57 -40.5q52 -37 215 -168q28 -28 20 -43 q-10 -10 -28.5 -9.5t-38.5 9.5q-52 23 -157.5 77t-129.5 69q-39 22 -39 43zM485 629q-2 -6 1.5 -10.5t9.5 -4.5q27 1 99 1.5t131 1.5t89 4q2 0 4.5 6t1.5 10q-135 402 -159 440q-9 18 -17 0q-141 -374 -160 -448z" />
<glyph unicode="&#xc1;" horiz-adv-x="1384" d="M8 10q0 10 11.5 22t33.5 19q36 12 46.5 16t34 15t31.5 19.5t23.5 26.5t27 40.5t26.5 56.5q25 56 177.5 451t192.5 493q13 26 13 43q0 11 4 17q1 1 61 100q22 25 33 25q14 0 33 -54q12 -40 90 -253q73 -207 169 -462t126 -327q26 -63 45 -99.5t42.5 -58.5t44 -30.5 t60.5 -18.5q49 -15 49 -35q0 -26 -65 -26q-31 0 -120.5 5t-137.5 5q-35 0 -78.5 -2t-67.5 -2q-63 0 -63 24q0 9 12 19t37 14q46 9 66.5 26.5t19.5 36.5t-4 42q-5 24 -13 53.5t-22 71t-23 67.5t-29.5 82t-27.5 76q-5 20 -69 20q-279 0 -336 -8q-12 0 -23 -16 q-41 -102 -73.5 -212t-32.5 -147q0 -16 5 -28t28.5 -29.5t66.5 -30.5q55 -16 55 -37q0 -26 -57 -26q-12 0 -65.5 3t-96.5 3q-44 0 -123.5 -5t-89.5 -5q-47 0 -47 20zM485 629q-2 -6 1.5 -10.5t9.5 -4.5q27 1 99 1.5t131 1.5t89 4q2 0 4.5 6t1.5 10q-135 402 -159 440 q-9 18 -17 0q-141 -374 -160 -448zM622.5 1423.5q-0.5 6.5 5.5 18.5t21 24q131 110 277 207q31 21 57 10q18 -8 38.5 -27.5t20.5 -37.5q0 -10 -13 -27t-28 -26q-185 -101 -307 -148q-48 -21 -69 0q-2 0 -2.5 6.5z" />
<glyph unicode="&#xc2;" horiz-adv-x="1384" d="M8 10q0 10 11.5 22t33.5 19q36 12 46.5 16t34 15t31.5 19.5t23.5 26.5t27 40.5t26.5 56.5q25 56 177.5 451t192.5 493q13 26 13 43q0 11 4 17q1 1 61 100q22 25 33 25q14 0 33 -54q12 -40 90 -253q73 -207 169 -462t126 -327q26 -63 45 -99.5t42.5 -58.5t44 -30.5 t60.5 -18.5q49 -15 49 -35q0 -26 -65 -26q-31 0 -120.5 5t-137.5 5q-35 0 -78.5 -2t-67.5 -2q-63 0 -63 24q0 9 12 19t37 14q46 9 66.5 26.5t19.5 36.5t-4 42q-5 24 -13 53.5t-22 71t-23 67.5t-29.5 82t-27.5 76q-5 20 -69 20q-279 0 -336 -8q-12 0 -23 -16 q-41 -102 -73.5 -212t-32.5 -147q0 -16 5 -28t28.5 -29.5t66.5 -30.5q55 -16 55 -37q0 -26 -57 -26q-12 0 -65.5 3t-96.5 3q-44 0 -123.5 -5t-89.5 -5q-47 0 -47 20zM448 1424q8 8 19 18q19 15 83.5 70.5t92.5 78.5q49 39 76 39q21 0 76 -45q120 -103 168 -143 q27 -19 24 -39q-1 -14 -20 -14q-21 0 -58 16q-47 22 -182 88q-15 7 -33 -2q-96 -43 -176 -84q-2 -1 -24 -9.5t-31 -8.5q-45 0 -15 35zM485 629q-2 -6 1.5 -10.5t9.5 -4.5q27 1 99 1.5t131 1.5t89 4q2 0 4.5 6t1.5 10q-135 402 -159 440q-9 18 -17 0q-141 -374 -160 -448z " />
<glyph unicode="&#xc3;" horiz-adv-x="1384" d="M8 10q0 10 11.5 22t33.5 19q36 12 46.5 16t34 15t31.5 19.5t23.5 26.5t27 40.5t26.5 56.5q25 56 177.5 451t192.5 493q13 26 13 43q0 11 4 17q1 1 61 100q22 25 33 25q14 0 33 -54q12 -40 90 -253q73 -207 169 -462t126 -327q26 -63 45 -99.5t42.5 -58.5t44 -30.5 t60.5 -18.5q49 -15 49 -35q0 -26 -65 -26q-31 0 -120.5 5t-137.5 5q-35 0 -78.5 -2t-67.5 -2q-63 0 -63 24q0 9 12 19t37 14q46 9 66.5 26.5t19.5 36.5t-4 42q-5 24 -13 53.5t-22 71t-23 67.5t-29.5 82t-27.5 76q-5 20 -69 20q-279 0 -336 -8q-12 0 -23 -16 q-41 -102 -73.5 -212t-32.5 -147q0 -16 5 -28t28.5 -29.5t66.5 -30.5q55 -16 55 -37q0 -26 -57 -26q-12 0 -65.5 3t-96.5 3q-44 0 -123.5 -5t-89.5 -5q-47 0 -47 20zM449 1411q0 11 22 49q26 42 68 96q16 19 51 19q255 0 289 8q11 3 20.5 9t17 14t12 14.5t9.5 15t6 9.5 q14 14 19 14q7 0 16.5 -10.5t13.5 -18.5q8 -17 -6 -31q-13 -14 -54 -67t-50 -62q-12 -12 -29 -12q-9 0 -63.5 0.5t-96.5 0.5t-85 -1t-54 -4q-21 -6 -57 -55q-9 -15 -19 -15q-13 0 -21.5 10t-8.5 17zM485 629q-2 -6 1.5 -10.5t9.5 -4.5q27 1 99 1.5t131 1.5t89 4q2 0 4.5 6 t1.5 10q-135 402 -159 440q-9 18 -17 0q-141 -374 -160 -448z" />
<glyph unicode="&#xc4;" horiz-adv-x="1384" d="M8 10q0 10 11.5 22t33.5 19q36 12 46.5 16t34 15t31.5 19.5t23.5 26.5t27 40.5t26.5 56.5q25 56 177.5 451t192.5 493q13 26 13 43q0 11 4 17q1 1 61 100q22 25 33 25q14 0 33 -54q12 -40 90 -253q73 -207 169 -462t126 -327q26 -63 45 -99.5t42.5 -58.5t44 -30.5 t60.5 -18.5q49 -15 49 -35q0 -26 -65 -26q-31 0 -120.5 5t-137.5 5q-35 0 -78.5 -2t-67.5 -2q-63 0 -63 24q0 9 12 19t37 14q46 9 66.5 26.5t19.5 36.5t-4 42q-5 24 -13 53.5t-22 71t-23 67.5t-29.5 82t-27.5 76q-5 20 -69 20q-279 0 -336 -8q-12 0 -23 -16 q-41 -102 -73.5 -212t-32.5 -147q0 -16 5 -28t28.5 -29.5t66.5 -30.5q55 -16 55 -37q0 -26 -57 -26q-12 0 -65.5 3t-96.5 3q-44 0 -123.5 -5t-89.5 -5q-47 0 -47 20zM418 1499q0 38 26.5 66t65.5 28q36 0 63 -29.5t27 -68.5q0 -43 -28.5 -66.5t-69.5 -23.5q-31 0 -57.5 25 t-26.5 69zM485 629q-2 -6 1.5 -10.5t9.5 -4.5q27 1 99 1.5t131 1.5t89 4q2 0 4.5 6t1.5 10q-135 402 -159 440q-9 18 -17 0q-141 -374 -160 -448zM827 1495q0 42 28 69t67 27q35 0 60.5 -29.5t25.5 -66.5q0 -36 -28 -63t-65 -27q-34 0 -61 25.5t-27 64.5z" />
<glyph unicode="&#xc5;" horiz-adv-x="1384" d="M8 10q0 10 11.5 22t33.5 19q36 12 46.5 16t34 15t31.5 19.5t23.5 26.5t27 40.5t26.5 56.5q25 56 177.5 451t192.5 493q13 26 13 43q0 11 4 17q1 1 61 100q22 25 33 25q14 0 33 -54q12 -40 90 -253q73 -207 169 -462t126 -327q26 -63 45 -99.5t42.5 -58.5t44 -30.5 t60.5 -18.5q49 -15 49 -35q0 -26 -65 -26q-31 0 -120.5 5t-137.5 5q-35 0 -78.5 -2t-67.5 -2q-63 0 -63 24q0 9 12 19t37 14q46 9 66.5 26.5t19.5 36.5t-4 42q-5 24 -13 53.5t-22 71t-23 67.5t-29.5 82t-27.5 76q-5 20 -69 20q-279 0 -336 -8q-12 0 -23 -16 q-41 -102 -73.5 -212t-32.5 -147q0 -16 5 -28t28.5 -29.5t66.5 -30.5q55 -16 55 -37q0 -26 -57 -26q-12 0 -65.5 3t-96.5 3q-44 0 -123.5 -5t-89.5 -5q-47 0 -47 20zM485 629q-2 -6 1.5 -10.5t9.5 -4.5q27 1 99 1.5t131 1.5t89 4q2 0 4.5 6t1.5 10q-135 402 -159 440 q-9 18 -17 0q-141 -374 -160 -448zM555 1552q0 64 44 110t114 46t113.5 -46t43.5 -110q0 -65 -43.5 -112t-113.5 -47t-114 47t-44 112zM627 1552q0 -48 24.5 -75t61.5 -27q39 0 62.5 27t23.5 79q0 40 -25 68.5t-61 28.5q-37 0 -61.5 -29t-24.5 -72z" />
<glyph unicode="&#xc6;" horiz-adv-x="1849" d="M-16 14q0 11 18.5 23t50.5 18q85 13 138.5 49t125.5 138q103 141 564 964q14 23 -15 31q-16 4 -80 13.5t-81 13.5q-39 12 -39 32q0 25 59 25q37 0 150.5 -2t156.5 -2h412q28 0 57 1.5t51 4t39.5 5t28.5 4t12 1.5q7 0 16 -11t9 -22q0 -31 31 -213q2 -13 -5.5 -25.5 t-17.5 -12.5q-25 0 -45 45q-63 132 -137 143q-23 4 -87 4.5t-143.5 -1t-81.5 -1.5q-8 0 -14 -8t-6 -14q-3 -17 -3 -91.5t1.5 -203.5t1.5 -201q0 -14 5 -29.5t15 -15.5q238 0 277 8q19 4 40.5 30t35.5 60q7 13 23 24t24 11t13 -13.5t1 -35.5q-6 -28 -8 -75.5t-2 -85t1 -79.5 l1 -41q0 -17 -7 -28t-16 -11q-25 0 -43 49q-16 62 -37.5 80.5t-87.5 18.5q-14 0 -84 1t-124 1q-9 0 -16 -8t-9 -19q-5 -59 -3 -180t5 -186q3 -59 28.5 -85.5t67.5 -33.5q30 -3 113.5 -6t144.5 -2q59 1 101.5 32t122.5 125q39 45 49 45t19 -16.5t5 -30.5q-8 -25 -43 -108.5 t-43 -98.5q-7 -13 -29.5 -20.5t-43.5 -7.5q-12 0 -85.5 2.5t-197 5t-258.5 2.5q-26 0 -135 -5t-137 -5q-21 0 -34.5 7.5t-13.5 14.5q0 27 52 39q77 16 100 42t31 89q8 71 8 373q0 23 -14 23q-59 3 -177 4t-153 -2q-6 0 -20 -11.5t-19 -19.5q-16 -30 -59 -111t-61 -115.5 t-44 -86.5t-36.5 -78.5t-10.5 -38.5q0 -36 90 -60q41 -10 41 -24t-13.5 -27.5t-37.5 -13.5q-20 0 -79 3t-105 3q-32 0 -131 -6t-111 -6q-19 0 -36 8t-17 18zM680 696q-3 -9 1 -15.5t13 -8.5q31 -2 264 -2q9 0 14 11t5 21q0 3 2 225.5t2 250.5q0 35 -5 35q-6 1 -28 -33 l-8 -13q-46 -71 -125 -215.5t-135 -255.5z" />
<glyph unicode="&#xc7;" horiz-adv-x="1468" d="M102 674q0 83 22.5 164t58.5 143.5t72.5 108t72.5 75.5q233 189 555 189q98 0 241 -33q29 -4 85.5 -20.5t70.5 -18.5q6 0 12.5 -5t12.5 -19.5t6 -36.5q0 -21 14 -179q1 -30 -8.5 -48.5t-22.5 -18.5q-15 0 -32 53q-13 51 -37.5 94.5t-46.5 59.5q-80 59 -158.5 82.5 t-169.5 23.5q-120 0 -223 -47.5t-172 -127t-107.5 -185t-38.5 -221.5q0 -194 72 -338q42 -84 106 -149t135 -103t141.5 -57t135.5 -19q124 0 225 55q62 33 105.5 81t83.5 118q22 36 28.5 43.5t16.5 7.5q13 0 17 -24t-1 -41q-4 -35 -30 -99.5t-50 -107.5q-7 -14 -27 -30 t-38 -24q-31 -14 -128 -32.5t-202 -22.5q-12 -16 -25 -33.5t-19.5 -26t-8.5 -11.5q-6 -15 14 -27q36 -18 53.5 -29t40.5 -30.5t33 -44.5t10 -58q0 -90 -106 -178q-90 -68 -150 -68q-32 0 -51 31q-8 16 -7.5 34t7.5 30q13 21 29 18q77 -14 86 -14q37 0 58.5 25.5t21.5 58.5 q0 43 -38.5 72.5t-86.5 29.5q-21 0 -37 -2q-6 0 -18.5 12t-12.5 19q0 11 15 28q17 24 127 162q-98 3 -191.5 27t-163.5 61t-121 75.5t-84 76.5q-172 198 -172 471z" />
<glyph unicode="&#xc8;" horiz-adv-x="1153" d="M39 16q0 19 57 33q45 11 66.5 18.5t42.5 23.5t29.5 41.5t11.5 66.5q16 229 16 581q0 316 -2 346q-3 68 -25.5 94.5t-89.5 41.5q-33 8 -46 15t-13 19q0 13 17 21t40 8q43 0 141.5 -4t172.5 -4h301q142 0 188 6q4 1 10.5 -7t8.5 -16q0 -54 2 -117t2 -77q0 -22 -9 -37.5 t-22 -15.5q-23 0 -33 49q-19 76 -50 103.5t-87 35.5q-40 6 -132 8.5t-159 -0.5q-3 0 -9 -4t-13 -18t-9 -35q-3 -40 -6 -242.5t0 -224.5q5 -20 15 -20h133q53 0 82.5 0.5t56.5 5.5t38.5 9.5t24.5 19t18.5 27t16.5 40.5q17 43 37 43q10 0 14.5 -15.5t2.5 -29.5 q-7 -100 -7 -148q0 -32 3.5 -75t3.5 -50q1 -27 -5.5 -43t-17.5 -16q-10 0 -20 13.5t-15 31.5q-12 39 -19.5 56t-26 30t-42 16t-74.5 5q-66 4 -202 4q-5 0 -12 -7.5t-7 -11.5q-6 -32 -6 -321q0 -112 21 -170q12 -37 39 -45q88 -15 186 -15q138 0 194 15q53 13 94 47.5 t76 103.5q30 58 48 58q10 0 14.5 -18.5t1.5 -37.5q-2 -15 -33.5 -111t-40.5 -108q-5 -7 -16.5 -15.5t-18.5 -8.5q-1 0 -100 4t-258 8t-307 4q-58 0 -127.5 -5t-104.5 -5q-33 0 -47 5t-14 21zM293 1622q0 21 37 47q25 25 41 25q10 0 23 -8.5t57 -40.5q52 -37 215 -168 q28 -28 20 -43q-10 -10 -29.5 -9.5t-38.5 9.5q-53 23 -158 76.5t-128 68.5q-39 22 -39 43z" />
<glyph unicode="&#xc9;" horiz-adv-x="1153" d="M39 16q0 19 57 33q45 11 66.5 18.5t42.5 23.5t29.5 41.5t11.5 66.5q16 229 16 581q0 316 -2 346q-3 68 -25.5 94.5t-89.5 41.5q-33 8 -46 15t-13 19q0 13 17 21t40 8q43 0 141.5 -4t172.5 -4h301q142 0 188 6q4 1 10.5 -7t8.5 -16q0 -54 2 -117t2 -77q0 -22 -9 -37.5 t-22 -15.5q-23 0 -33 49q-19 76 -50 103.5t-87 35.5q-40 6 -132 8.5t-159 -0.5q-3 0 -9 -4t-13 -18t-9 -35q-3 -40 -6 -242.5t0 -224.5q5 -20 15 -20h133q53 0 82.5 0.5t56.5 5.5t38.5 9.5t24.5 19t18.5 27t16.5 40.5q17 43 37 43q10 0 14.5 -15.5t2.5 -29.5 q-7 -100 -7 -148q0 -32 3.5 -75t3.5 -50q1 -27 -5.5 -43t-17.5 -16q-10 0 -20 13.5t-15 31.5q-12 39 -19.5 56t-26 30t-42 16t-74.5 5q-66 4 -202 4q-5 0 -12 -7.5t-7 -11.5q-6 -32 -6 -321q0 -112 21 -170q12 -37 39 -45q88 -15 186 -15q138 0 194 15q53 13 94 47.5 t76 103.5q30 58 48 58q10 0 14.5 -18.5t1.5 -37.5q-2 -15 -33.5 -111t-40.5 -108q-5 -7 -16.5 -15.5t-18.5 -8.5q-1 0 -100 4t-258 8t-307 4q-58 0 -127.5 -5t-104.5 -5q-33 0 -47 5t-14 21zM481.5 1420q-1.5 5 5 17.5t21.5 24.5q134 113 276 207q31 21 58 10 q18 -8 38.5 -27.5t20.5 -37.5q0 -10 -13 -27t-28 -26q-185 -101 -307 -148q-49 -21 -70 0q0 2 -1.5 7z" />
<glyph unicode="&#xca;" horiz-adv-x="1153" d="M39 16q0 19 57 33q45 11 66.5 18.5t42.5 23.5t29.5 41.5t11.5 66.5q16 229 16 581q0 316 -2 346q-3 68 -25.5 94.5t-89.5 41.5q-33 8 -46 15t-13 19q0 13 17 21t40 8q43 0 141.5 -4t172.5 -4h301q142 0 188 6q4 1 10.5 -7t8.5 -16q0 -54 2 -117t2 -77q0 -22 -9 -37.5 t-22 -15.5q-23 0 -33 49q-19 76 -50 103.5t-87 35.5q-40 6 -132 8.5t-159 -0.5q-3 0 -9 -4t-13 -18t-9 -35q-3 -40 -6 -242.5t0 -224.5q5 -20 15 -20h133q53 0 82.5 0.5t56.5 5.5t38.5 9.5t24.5 19t18.5 27t16.5 40.5q17 43 37 43q10 0 14.5 -15.5t2.5 -29.5 q-7 -100 -7 -148q0 -32 3.5 -75t3.5 -50q1 -27 -5.5 -43t-17.5 -16q-10 0 -20 13.5t-15 31.5q-12 39 -19.5 56t-26 30t-42 16t-74.5 5q-66 4 -202 4q-5 0 -12 -7.5t-7 -11.5q-6 -32 -6 -321q0 -112 21 -170q12 -37 39 -45q88 -15 186 -15q138 0 194 15q53 13 94 47.5 t76 103.5q30 58 48 58q10 0 14.5 -18.5t1.5 -37.5q-2 -15 -33.5 -111t-40.5 -108q-5 -7 -16.5 -15.5t-18.5 -8.5q-1 0 -100 4t-258 8t-307 4q-58 0 -127.5 -5t-104.5 -5q-33 0 -47 5t-14 21zM319 1450q8 8 19 18q19 16 83.5 72t92.5 78q49 39 76 39q21 0 76 -45 q146 -126 168 -144q27 -19 24 -39q-1 -14 -20 -14q-18 0 -58 17q-47 22 -182 88q-14 7 -33 -2q-96 -43 -176 -84q-3 -1 -24.5 -10t-30.5 -9q-45 0 -15 35z" />
<glyph unicode="&#xcb;" horiz-adv-x="1153" d="M39 16q0 19 57 33q45 11 66.5 18.5t42.5 23.5t29.5 41.5t11.5 66.5q16 229 16 581q0 316 -2 346q-3 68 -25.5 94.5t-89.5 41.5q-33 8 -46 15t-13 19q0 13 17 21t40 8q43 0 141.5 -4t172.5 -4h301q142 0 188 6q4 1 10.5 -7t8.5 -16q0 -54 2 -117t2 -77q0 -22 -9 -37.5 t-22 -15.5q-23 0 -33 49q-19 76 -50 103.5t-87 35.5q-40 6 -132 8.5t-159 -0.5q-3 0 -9 -4t-13 -18t-9 -35q-3 -40 -6 -242.5t0 -224.5q5 -20 15 -20h133q53 0 82.5 0.5t56.5 5.5t38.5 9.5t24.5 19t18.5 27t16.5 40.5q17 43 37 43q10 0 14.5 -15.5t2.5 -29.5 q-7 -100 -7 -148q0 -32 3.5 -75t3.5 -50q1 -27 -5.5 -43t-17.5 -16q-10 0 -20 13.5t-15 31.5q-12 39 -19.5 56t-26 30t-42 16t-74.5 5q-66 4 -202 4q-5 0 -12 -7.5t-7 -11.5q-6 -32 -6 -321q0 -112 21 -170q12 -37 39 -45q88 -15 186 -15q138 0 194 15q53 13 94 47.5 t76 103.5q30 58 48 58q10 0 14.5 -18.5t1.5 -37.5q-2 -15 -33.5 -111t-40.5 -108q-5 -7 -16.5 -15.5t-18.5 -8.5q-1 0 -100 4t-258 8t-307 4q-58 0 -127.5 -5t-104.5 -5q-33 0 -47 5t-14 21zM287 1524q0 38 26.5 66t65.5 28q36 0 63 -29.5t27 -68.5q0 -43 -28.5 -66.5 t-69.5 -23.5q-31 0 -57.5 25t-26.5 69zM696 1520q0 42 28 69t67 27q35 0 60.5 -29.5t25.5 -66.5q0 -36 -28 -63t-65 -27q-34 0 -61 25.5t-27 64.5z" />
<glyph unicode="&#xcc;" horiz-adv-x="694" d="M61 1628q0 21 37 47q25 25 41 25q10 0 23 -8.5t57 -40.5q52 -37 215 -168q28 -28 21 -43q-10 -10 -29.5 -9.5t-38.5 9.5q-53 24 -158.5 77.5t-128.5 67.5q-39 22 -39 43zM72 25q0 22 61 34q73 16 93 44.5t26 105.5q10 120 10 459q0 346 -6 448q-2 24 -2.5 32.5t-3 26.5 t-5.5 24t-9 17.5t-14 16t-20.5 11t-28.5 10.5t-38 8q-57 10 -57 36q0 25 51 25q25 0 106 -3t117 -3q54 0 120 3t99 3q52 0 52 -25q0 -24 -54 -34q-18 -4 -32.5 -9t-25.5 -9t-20 -11.5t-15 -11t-11 -14t-7.5 -13.5t-5.5 -15.5t-3.5 -15t-2.5 -16.5t-2 -16q-12 -82 -12 -603 q0 -206 6 -305q3 -47 7.5 -71.5t20 -47t44 -35t78.5 -22.5q53 -9 53 -35q0 -11 -17.5 -18.5t-37.5 -7.5q-58 0 -171 6t-134 6q-29 0 -72.5 -2t-83.5 -2q-53 0 -53 29z" />
<glyph unicode="&#xcd;" horiz-adv-x="694" d="M72 25q0 22 61 34q73 16 93 44.5t26 105.5q10 120 10 459q0 346 -6 448q-2 24 -2.5 32.5t-3 26.5t-5.5 24t-9 17.5t-14 16t-20.5 11t-28.5 10.5t-38 8q-57 10 -57 36q0 25 51 25q25 0 106 -3t117 -3q54 0 120 3t99 3q52 0 52 -25q0 -24 -54 -34q-18 -4 -32.5 -9t-25.5 -9 t-20 -11.5t-15 -11t-11 -14t-7.5 -13.5t-5.5 -15.5t-3.5 -15t-2.5 -16.5t-2 -16q-12 -82 -12 -603q0 -206 6 -305q3 -47 7.5 -71.5t20 -47t44 -35t78.5 -22.5q53 -9 53 -35q0 -11 -17.5 -18.5t-37.5 -7.5q-58 0 -171 6t-134 6q-29 0 -72.5 -2t-83.5 -2q-53 0 -53 29z M256.5 1441q-1.5 5 5 17.5t21.5 24.5q134 113 276 207q31 20 57 10q18 -8 39 -28t21 -38q0 -10 -13 -27t-28 -26q-179 -98 -307 -147q-49 -21 -70 0q0 2 -1.5 7z" />
<glyph unicode="&#xce;" horiz-adv-x="694" d="M72 25q0 22 61 34q73 16 93 44.5t26 105.5q10 120 10 459q0 346 -6 448q-2 24 -2.5 32.5t-3 26.5t-5.5 24t-9 17.5t-14 16t-20.5 11t-28.5 10.5t-38 8q-57 10 -57 36q0 25 51 25q25 0 106 -3t117 -3q54 0 120 3t99 3q52 0 52 -25q0 -24 -54 -34q-18 -4 -32.5 -9t-25.5 -9 t-20 -11.5t-15 -11t-11 -14t-7.5 -13.5t-5.5 -15.5t-3.5 -15t-2.5 -16.5t-2 -16q-12 -82 -12 -603q0 -206 6 -305q3 -47 7.5 -71.5t20 -47t44 -35t78.5 -22.5q53 -9 53 -35q0 -11 -17.5 -18.5t-37.5 -7.5q-58 0 -171 6t-134 6q-29 0 -72.5 -2t-83.5 -2q-53 0 -53 29z M94 1465q8 8 19 18q19 15 83.5 70.5t92.5 78.5q49 39 76 39q20 0 75 -45q120 -103 168 -143q27 -19 24 -39q-1 -14 -20 -14q-20 0 -57 16q-47 22 -182 88q-15 7 -33 -2q-96 -43 -176 -84q-2 0 -23.5 -9t-31.5 -9q-45 0 -15 35z" />
<glyph unicode="&#xcf;" horiz-adv-x="694" d="M57 1524q0 38 27 66t66 28q36 0 63 -29.5t27 -68.5q0 -43 -29 -66.5t-70 -23.5q-31 0 -57.5 25t-26.5 69zM72 25q0 22 61 34q73 16 93 44.5t26 105.5q10 120 10 459q0 346 -6 448q-2 24 -2.5 32.5t-3 26.5t-5.5 24t-9 17.5t-14 16t-20.5 11t-28.5 10.5t-38 8 q-57 10 -57 36q0 25 51 25q25 0 106 -3t117 -3q54 0 120 3t99 3q52 0 52 -25q0 -24 -54 -34q-18 -4 -32.5 -9t-25.5 -9t-20 -11.5t-15 -11t-11 -14t-7.5 -13.5t-5.5 -15.5t-3.5 -15t-2.5 -16.5t-2 -16q-12 -82 -12 -603q0 -206 6 -305q3 -47 7.5 -71.5t20 -47t44 -35 t78.5 -22.5q53 -9 53 -35q0 -11 -17.5 -18.5t-37.5 -7.5q-58 0 -171 6t-134 6q-29 0 -72.5 -2t-83.5 -2q-53 0 -53 29zM467 1520q0 42 27.5 69t66.5 27q35 0 60.5 -29.5t25.5 -66.5t-27.5 -63.5t-64.5 -26.5q-34 0 -61 25.5t-27 64.5z" />
<glyph unicode="&#xd0;" horiz-adv-x="1546" d="M55 27q0 23 43 30q44 5 71 13.5t45.5 22t27 39.5t12 56.5t4.5 83.5q0 62 2 171t2 171q0 7 -4 15t-8 8l-150 2q-4 0 -9.5 2t-11 9.5t-5.5 19.5q0 10 4 27.5t12 17.5l156 2q6 0 11 7.5t5 14.5q-1 55 -4 179t-4 161q-1 40 -2 58t-6 41.5t-12 32.5t-22 20t-36 16t-53 10 q-19 3 -33 12t-14 19q0 29 49 29h59q40 0 225 9t283 9q102 0 197 -19.5t165.5 -51.5t120.5 -63.5t85 -63.5q83 -79 134.5 -205.5t51.5 -247.5q0 -107 -30.5 -206.5t-80.5 -173t-105 -127t-112 -85.5q-199 -115 -487 -115q-173 0 -402 17q-39 2 -108 2q-66 0 -66 31zM432 616 q5 -377 8 -419q4 -48 14.5 -71t30.5 -34q28 -21 81 -37t89 -16q83 0 192 33.5t189 99.5q97 82 154 213.5t57 298.5q0 134 -60.5 264t-158.5 205q-75 56 -192 87.5t-234 31.5q-112 0 -139 -17q-19 -13 -23 -28q-2 -10 -3 -92.5t-2 -206t-3 -191.5q0 -7 4 -13.5t10 -6.5h353 q15 0 23.5 -5.5t8.5 -11.5q0 -20 -8 -39.5t-18 -19.5l-361 -4q-4 0 -8 -7.5t-4 -13.5z" />
<glyph unicode="&#xd1;" horiz-adv-x="1579" d="M31 1298q0 25 67 25q15 0 103 -3t147 -3q16 0 43 -27q71 -85 162 -203q71 -90 680 -757q8 -8 14 -0.5t6 14.5q3 19 4.5 55.5t1.5 95t-0.5 116.5t-1 149.5t-0.5 165.5q0 99 -10 204q-1 26 -8.5 45t-37.5 42t-83 38q-55 16 -55 45q0 19 53 19q25 0 83 -1t93 -1 q40 0 104.5 4t88.5 4q47 0 47 -22q0 -11 -12 -22.5t-37 -18.5q-72 -16 -99.5 -44t-31.5 -106q-23 -425 -23 -829q0 -50 7 -156.5t7 -116.5q0 -16 -7.5 -29.5t-20.5 -13.5q-20 0 -48 22t-44 44q-16 19 -56.5 73t-70.5 91q-88 104 -360.5 418t-370.5 432q-6 7 -14.5 5 t-8.5 -10q-1 -15 -3 -54.5t-4 -93t-3 -124.5q0 -69 -1.5 -214t-2 -216t1.5 -133q6 -71 31 -101.5t98 -52.5q51 -12 51 -37q0 -26 -66 -26q-28 0 -104 5t-115 5q-24 0 -70.5 -2t-62.5 -2q-53 0 -53 22q0 23 41 35q73 25 93 41q39 31 48 123q1 13 2 29q39 647 39 827 q0 77 -14 98q-37 44 -63.5 58.5t-89.5 31.5q-12 3 -19 5q-45 12 -45 32zM551 1432q0 11 22 49q26 42 68 96q15 18 51 18q250 0 289 9q9 2 18 7t15 10.5t12 12.5t9 12t7 11.5t5 7.5t5 5.5t6.5 6.5t6.5 2q7 0 17 -10.5t14 -17.5q8 -17 -6 -31q-12 -13 -54 -66.5t-51 -62.5 q-12 -12 -29 -12q-9 0 -63.5 0.5t-96.5 0.5t-85 -1t-54 -4q-20 -6 -57 -56q-8 -14 -18 -14q-13 0 -22 10t-9 17z" />
<glyph unicode="&#xd2;" horiz-adv-x="1599" d="M102 659q0 337 267 551q76 62 194.5 103t224.5 41q195 0 357.5 -87.5t258 -243.5t95.5 -347q0 -201 -83 -353t-208 -241q-88 -62 -199.5 -90.5t-203.5 -28.5q-155 0 -296.5 63t-236.5 171q-82 91 -126 210.5t-44 251.5zM301 688q0 -91 25.5 -185t75 -177.5t115.5 -149.5 t154 -104.5t183 -38.5q180 0 270 98q71 64 122.5 189.5t51.5 293.5q0 167 -66.5 318.5t-180.5 243.5q-61 50 -148 80t-160 30q-67 0 -148.5 -32.5t-133.5 -84.5q-160 -156 -160 -481zM539 1649q0 22 36 47q24 24 41 24q10 0 23 -8.5t57 -40.5q52 -37 215 -168q28 -28 21 -43 q-10 -10 -29.5 -9.5t-38.5 9.5q-52 23 -157 77t-129 69q-39 22 -39 43z" />
<glyph unicode="&#xd3;" horiz-adv-x="1599" d="M102 659q0 337 267 551q76 62 194.5 103t224.5 41q195 0 357.5 -87.5t258 -243.5t95.5 -347q0 -201 -83 -353t-208 -241q-88 -62 -199.5 -90.5t-203.5 -28.5q-155 0 -296.5 63t-236.5 171q-82 91 -126 210.5t-44 251.5zM301 688q0 -91 25.5 -185t75 -177.5t115.5 -149.5 t154 -104.5t183 -38.5q180 0 270 98q71 64 122.5 189.5t51.5 293.5q0 167 -66.5 318.5t-180.5 243.5q-61 50 -148 80t-160 30q-67 0 -148.5 -32.5t-133.5 -84.5q-160 -156 -160 -481zM671.5 1458.5q-0.5 6.5 5.5 18.5t21 24q131 110 277 207q31 20 57 10q18 -8 39 -27.5 t21 -37.5q0 -11 -13 -28t-28 -26q-177 -97 -308 -147q-48 -21 -69 0q-2 0 -2.5 6.5z" />
<glyph unicode="&#xd4;" horiz-adv-x="1599" d="M102 659q0 337 267 551q76 62 194.5 103t224.5 41q195 0 357.5 -87.5t258 -243.5t95.5 -347q0 -201 -83 -353t-208 -241q-88 -62 -199.5 -90.5t-203.5 -28.5q-155 0 -296.5 63t-236.5 171q-82 91 -126 210.5t-44 251.5zM301 688q0 -91 25.5 -185t75 -177.5t115.5 -149.5 t154 -104.5t183 -38.5q180 0 270 98q71 64 122.5 189.5t51.5 293.5q0 167 -66.5 318.5t-180.5 243.5q-61 50 -148 80t-160 30q-67 0 -148.5 -32.5t-133.5 -84.5q-160 -156 -160 -481zM544 1479q8 8 19 18q19 16 83.5 72t92.5 78q49 39 76 39q20 0 76 -46q120 -103 168 -143 q27 -19 24 -39q-1 -14 -20 -14q-20 0 -57 16q-62 29 -183 88q-14 7 -32 -2q-105 -47 -177 -84q-2 0 -24 -9t-31 -9q-45 0 -15 35z" />
<glyph unicode="&#xd5;" horiz-adv-x="1599" d="M102 659q0 337 267 551q76 62 194.5 103t224.5 41q195 0 357.5 -87.5t258 -243.5t95.5 -347q0 -201 -83 -353t-208 -241q-88 -62 -199.5 -90.5t-203.5 -28.5q-155 0 -296.5 63t-236.5 171q-82 91 -126 210.5t-44 251.5zM301 688q0 -91 25.5 -185t75 -177.5t115.5 -149.5 t154 -104.5t183 -38.5q180 0 270 98q71 64 122.5 189.5t51.5 293.5q0 167 -66.5 318.5t-180.5 243.5q-61 50 -148 80t-160 30q-67 0 -148.5 -32.5t-133.5 -84.5q-160 -156 -160 -481zM524 1470q0 10 23 50q30 49 67 96q15 18 52 18q254 0 288 8q11 3 20.5 9t17.5 14.5 t12.5 14t9.5 14.5l6 10q1 1 5 5.5t6.5 6.5t6.5 2q7 0 17 -10t14 -18q8 -17 -6 -31q-12 -13 -54 -66.5t-51 -62.5q-12 -12 -28 -12q-280 0 -299 -5q-22 -6 -58 -55q-8 -14 -18 -14q-13 0 -22 10t-9 16z" />
<glyph unicode="&#xd6;" horiz-adv-x="1599" d="M102 659q0 337 267 551q76 62 194.5 103t224.5 41q195 0 357.5 -87.5t258 -243.5t95.5 -347q0 -201 -83 -353t-208 -241q-88 -62 -199.5 -90.5t-203.5 -28.5q-155 0 -296.5 63t-236.5 171q-82 91 -126 210.5t-44 251.5zM301 688q0 -91 25.5 -185t75 -177.5t115.5 -149.5 t154 -104.5t183 -38.5q180 0 270 98q71 64 122.5 189.5t51.5 293.5q0 167 -66.5 318.5t-180.5 243.5q-61 50 -148 80t-160 30q-67 0 -148.5 -32.5t-133.5 -84.5q-160 -156 -160 -481zM510 1544q0 38 26.5 66t65.5 28q36 0 63 -29.5t27 -68.5q0 -43 -28.5 -66.5t-69.5 -23.5 q-31 0 -57.5 25t-26.5 69zM920 1540q0 42 27.5 69t66.5 27q35 0 60.5 -29.5t25.5 -66.5t-27.5 -63.5t-64.5 -26.5q-34 0 -61 25.5t-27 64.5z" />
<glyph unicode="&#xd7;" horiz-adv-x="1277" d="M190 874q-14 12 46 72q13 15 24 16t33 -18l330 -332q13 -12 19 -12t17 10l336 346q21 24 37 5q18 -17 28.5 -34t11 -26.5t-2.5 -15.5l-340 -348q-7 -8 -5 -21t9 -20l342 -340q30 -32 -33 -95q-18 -18 -41 5l-350 352q-17 15 -25 15t-22 -15l-321 -326 q-20 -19 -30.5 -20.5t-23.5 10.5q-15 14 -26 40.5t-4 35.5l336 338q7 7 7.5 16.5t-7.5 17.5z" />
<glyph unicode="&#xd8;" horiz-adv-x="1599" d="M102 657q0 339 263 547q76 63 197.5 106.5t225.5 43.5t213.5 -32.5t190.5 -84.5q8 -4 20 8q11 13 31.5 40t28.5 36q22 29 33 29q8 0 18 -7.5t16 -17.5q4 -3 4.5 -11t-2.5 -11q-30 -43 -77 -105q-6 -6 0 -12q112 -95 173.5 -231t61.5 -281q0 -199 -84 -351t-211 -241 q-171 -119 -403 -119q-207 0 -377 109q-19 6 -25 -2q-90 -110 -100 -123q-4 -8 -23 -6.5t-28 10.5q-9 7 -11 21t3 18q16 22 46 61t50 66q6 10 -4 20q-108 98 -169 231.5t-61 288.5zM305 690q0 -233 137 -424q6 -10 15 2q140 182 657 848q6 11 0 17q-160 149 -377 149 q-67 0 -143.5 -30.5t-128.5 -82.5q-160 -150 -160 -479zM499 197.5q0 -6.5 3 -9.5q65 -66 162.5 -111.5t181.5 -45.5q63 0 139.5 22.5t132.5 71.5q72 67 126 195.5t54 295.5q0 108 -36 227.5t-93 209.5q-2 3 -7.5 4.5t-8.5 -2.5q-270 -366 -651 -848q-3 -3 -3 -9.5z" />
<glyph unicode="&#xd9;" horiz-adv-x="1560" d="M76 1298q0 25 59 25q44 0 109 -3t102 -3q42 0 111 2t88 2q63 0 63 -23q0 -25 -61 -38q-60 -11 -88 -35t-37 -82q-8 -54 -8 -572q0 -158 29 -242.5t85 -148.5q42 -47 129.5 -79.5t167.5 -32.5q43 0 86 8t91 28.5t87.5 51.5t71.5 82t47 116q45 196 45 514q0 165 -8 265 q-5 62 -29 88t-106 45q-15 3 -29 15t-14 22q0 20 47 20q24 0 81.5 -3t92.5 -3q45 0 102.5 2t82.5 2q51 0 51 -23q0 -20 -45 -36q-70 -20 -100 -58.5t-33 -130.5q-1 -49 -9 -215t-10 -207q-14 -483 -256 -618q-117 -66 -295 -66q-123 0 -223 38.5t-147 82.5 q-89 84 -126.5 217t-37.5 385q0 364 -9 486q-7 67 -110 88q-47 11 -47 34zM530 1620q0 21 37 47q25 25 41 25q12 0 63 -37q3 -3 5 -4.5t5.5 -4t6.5 -4.5q63 -45 215 -167q28 -28 21 -43q-10 -10 -29.5 -9.5t-38.5 9.5q-53 24 -158.5 77.5t-128.5 67.5q-39 22 -39 43z" />
<glyph unicode="&#xda;" horiz-adv-x="1560" d="M76 1298q0 25 59 25q44 0 109 -3t102 -3q42 0 111 2t88 2q63 0 63 -23q0 -25 -61 -38q-60 -11 -88 -35t-37 -82q-8 -54 -8 -572q0 -158 29 -242.5t85 -148.5q42 -47 129.5 -79.5t167.5 -32.5q43 0 86 8t91 28.5t87.5 51.5t71.5 82t47 116q45 196 45 514q0 165 -8 265 q-5 62 -29 88t-106 45q-15 3 -29 15t-14 22q0 20 47 20q24 0 81.5 -3t92.5 -3q45 0 102.5 2t82.5 2q51 0 51 -23q0 -20 -45 -36q-70 -20 -100 -58.5t-33 -130.5q-1 -49 -9 -215t-10 -207q-14 -483 -256 -618q-117 -66 -295 -66q-123 0 -223 38.5t-147 82.5 q-89 84 -126.5 217t-37.5 385q0 364 -9 486q-7 67 -110 88q-47 11 -47 34zM716.5 1423.5q-0.5 6.5 5.5 18.5t21 24q131 110 277 207q31 21 57 10q18 -8 39 -27.5t21 -37.5q0 -10 -13 -27t-28 -26q-183 -100 -308 -148q-48 -21 -69 0q-2 0 -2.5 6.5z" />
<glyph unicode="&#xdb;" horiz-adv-x="1560" d="M76 1298q0 25 59 25q44 0 109 -3t102 -3q42 0 111 2t88 2q63 0 63 -23q0 -25 -61 -38q-60 -11 -88 -35t-37 -82q-8 -54 -8 -572q0 -158 29 -242.5t85 -148.5q42 -47 129.5 -79.5t167.5 -32.5q43 0 86 8t91 28.5t87.5 51.5t71.5 82t47 116q45 196 45 514q0 165 -8 265 q-5 62 -29 88t-106 45q-15 3 -29 15t-14 22q0 20 47 20q24 0 81.5 -3t92.5 -3q45 0 102.5 2t82.5 2q51 0 51 -23q0 -20 -45 -36q-70 -20 -100 -58.5t-33 -130.5q-1 -49 -9 -215t-10 -207q-14 -483 -256 -618q-117 -66 -295 -66q-123 0 -223 38.5t-147 82.5 q-89 84 -126.5 217t-37.5 385q0 364 -9 486q-7 67 -110 88q-47 11 -47 34zM564 1470l14 13q19 15 83.5 70.5t92.5 78.5q49 39 75 39q21 0 76 -45q120 -103 168 -143q27 -19 24 -39q-1 -14 -20 -14q-20 0 -57 16q-47 22 -182 88q-14 7 -33 -2q-96 -43 -176 -84q-1 0 -23.5 -9 t-32.5 -9q-49 0 -9 40z" />
<glyph unicode="&#xdc;" horiz-adv-x="1560" d="M76 1298q0 25 59 25q44 0 109 -3t102 -3q42 0 111 2t88 2q63 0 63 -23q0 -25 -61 -38q-60 -11 -88 -35t-37 -82q-8 -54 -8 -572q0 -158 29 -242.5t85 -148.5q42 -47 129.5 -79.5t167.5 -32.5q43 0 86 8t91 28.5t87.5 51.5t71.5 82t47 116q45 196 45 514q0 165 -8 265 q-5 62 -29 88t-106 45q-15 3 -29 15t-14 22q0 20 47 20q24 0 81.5 -3t92.5 -3q45 0 102.5 2t82.5 2q51 0 51 -23q0 -20 -45 -36q-70 -20 -100 -58.5t-33 -130.5q-1 -49 -9 -215t-10 -207q-14 -483 -256 -618q-117 -66 -295 -66q-123 0 -223 38.5t-147 82.5 q-89 84 -126.5 217t-37.5 385q0 364 -9 486q-7 67 -110 88q-47 11 -47 34zM537 1522q0 38 26.5 66t65.5 28q36 0 63 -29.5t27 -68.5q0 -43 -28.5 -67t-69.5 -24q-31 0 -57.5 25.5t-26.5 69.5zM946 1518q0 42 27.5 69t66.5 27q35 0 60.5 -29.5t25.5 -66.5t-27.5 -64 t-64.5 -27q-34 0 -61 25.5t-27 65.5z" />
<glyph unicode="&#xdd;" horiz-adv-x="1273" d="M6 1305q0 22 55 22q7 0 92.5 -5t141.5 -5q25 0 68.5 2t87.5 2q45 0 45 -23q0 -26 -45 -38q-51 -11 -54 -33.5t23 -61.5q44 -83 268 -448q3 -5 10.5 -3.5t10.5 7.5q62 88 264 422q30 56 16 79.5t-76 37.5q-22 6 -32.5 17t-10.5 23q0 19 48 19q27 0 68.5 -1t64.5 -1 q43 0 129.5 4t97.5 4q18 0 30.5 -5.5t12.5 -14.5q0 -22 -53 -37q-69 -18 -119.5 -55.5t-104.5 -104.5q-57 -71 -158 -226.5t-114 -174.5q-18 -26 -34.5 -65.5t-16.5 -59.5q0 -336 12 -435q6 -34 35 -54.5t111 -41.5q55 -13 55 -37q0 -22 -62 -22q-14 0 -83 4t-95 4 q-73 0 -177.5 -6t-108.5 -6q-52 0 -52 22q0 26 58 37q128 29 133 98q6 84 6 424q0 26 -18 74q-52 111 -261 430q-75 112 -110.5 145t-100.5 48q-28 6 -42.5 17t-14.5 22zM583.5 1419.5q-0.5 6.5 5.5 18.5t21 24q131 110 277 207q31 21 57 10q18 -8 39 -27.5t21 -37.5 q0 -10 -13 -27t-28 -26q-183 -100 -308 -148q-48 -21 -69 0q-2 0 -2.5 6.5z" />
<glyph unicode="&#xde;" horiz-adv-x="1124" d="M76 20q0 25 45 37q35 10 51 14.5t33.5 17.5t22.5 22t11.5 38.5t8 54.5t4.5 81q8 112 8 809q0 26 -0.5 45t-4 34.5t-5 25.5t-9 19t-11.5 13.5t-16.5 9.5t-18.5 7t-24 7.5t-28 8.5q-41 12 -41 32q0 11 15 18t35 7q28 0 98.5 -2t95.5 -2q21 0 94.5 2t110.5 2q51 0 51 -27 q0 -21 -53 -34q-29 -7 -38 -9t-27 -9t-22 -10.5t-13.5 -16t-10 -21.5t-3.5 -31.5t-3 -42.5v-57q0 -7 5 -13t9 -6t66 3.5t104 3.5q63 0 122 -11.5t115 -39.5t97.5 -69t66.5 -104t25 -141q0 -178 -125 -283.5t-307 -105.5q-99 0 -161 22q-17 3 -17 -10q0 -93 6.5 -139.5 t16.5 -60.5t32 -23q55 -20 105 -29q15 -2 31 -11.5t16 -20.5q0 -31 -66 -31q-17 0 -101 3t-136 3q-38 0 -111.5 -3t-101.5 -3q-47 0 -47 26zM432 422q0 -10 7.5 -21.5t13.5 -13.5q58 -16 108 -16q72 0 139 33t113.5 103t46.5 163q0 86 -28 150t-75.5 98.5t-101.5 50.5 t-116 16q-40 0 -66 -9.5t-31 -21.5l-3 -9l-3.5 -10.5t-2.5 -16.5t-1 -31v-465z" />
<glyph unicode="&#xdf;" horiz-adv-x="1028" d="M53 12q0 21 53 35q30 9 47 22.5t22 24t9 27.5q9 46 9 350q0 60 -1.5 125.5t-1.5 69.5q0 14 -9 23t-19 11q-1 0 -68 11q-8 2 -8.5 19.5t6.5 25.5q3 3 76 53q25 21 25 41q0 123 36 252.5t121 222.5q128 137 295 137q61 0 111.5 -19.5t83 -50.5t55 -70t32 -77t9.5 -74 q0 -21 -1.5 -39.5t-5.5 -34.5t-6.5 -28t-10 -25.5t-11 -20.5t-13.5 -19.5t-13 -16t-15 -16.5t-14 -15q-11 -13 -31 -31.5t-53 -48t-47 -42.5q-2 -2 -14.5 -14t-16 -15t-13.5 -13.5t-13 -15t-9.5 -14.5t-9 -17t-4.5 -16.5t-2 -19.5q0 -23 15.5 -44.5t35.5 -33.5 q20 -14 86 -63.5t90 -69.5q28 -24 41.5 -37.5t31 -39t25 -56.5t7.5 -72q0 -93 -63 -169.5t-157 -117.5q-71 -31 -127 -31q-21 0 -43.5 5t-46.5 26t-24 55q0 16 11.5 42t21.5 36q8 5 19 8.5t22 -0.5q31 -25 76.5 -43t70.5 -18q66 0 98.5 33t32.5 82q0 37 -12.5 67t-44.5 59.5 t-61 50t-86 57.5q-17 11 -25 16q-127 79 -127 200q0 48 39 92q74 74 127 123q85 78 117 147t32 152q0 78 -58 147.5t-163 69.5t-152.5 -59.5t-76.5 -189.5q-25 -115 -25 -594q0 -305 10 -418q3 -29 17.5 -44t46.5 -24q49 -17 49 -33q0 -24 -57 -24q-9 0 -56 2t-88 2 q-24 0 -84 -4t-74 -4q-51 0 -51 20z" />
<glyph unicode="&#xe0;" horiz-adv-x="813" d="M82 569q0 80 154 181q43 31 101 54t89 23q118 0 184 -96q23 -32 32 -69t9 -101q0 -47 -4 -201.5t-4 -158.5q0 -33 10 -55.5t25.5 -31.5t26.5 -12.5t20 -3.5q8 0 35.5 10t42.5 21q6 4 12 -6q6 -6 6 -21q0 -33 -60 -80t-124 -47q-40 0 -77 25t-54 78q0 2 -4.5 5.5t-7.5 2.5 q-49 -34 -104.5 -60t-80.5 -34q-35 -12 -82 -12q-55 0 -98 57t-43 133q0 55 39 104q5 7 11.5 12.5t11.5 9.5t14.5 9t13.5 7t16 7.5t15 6.5q18 7 123 37.5t116 33.5q60 18 60 37q4 36 4 168q0 45 -45.5 91t-114.5 46q-53 0 -84 -22q-21 -11 -14 -84q0 -11 -12 -23 q-15 -12 -70.5 -39.5t-63.5 -27.5q-9 0 -16.5 9t-7.5 17zM188 1288q0 8 9.5 18.5t23.5 16.5q24 12 53 12q23 0 54 -71q24 -49 64.5 -144.5t60.5 -154.5q6 -13 4 -32.5t-13 -19.5q-23 0 -47 33q-46 59 -108.5 156t-81.5 131q-19 32 -19 55zM236 209q0 -60 43.5 -91.5 t85.5 -31.5t110 35q8 5 16.5 25.5t8.5 25.5q4 49 4 160q0 5 -5.5 10.5t-11.5 5.5q-40 0 -102.5 -19t-108.5 -42q-13 -9 -20 -16t-13.5 -23t-6.5 -39z" />
<glyph unicode="&#xe1;" horiz-adv-x="813" d="M82 569q0 80 154 181q43 31 101 54t89 23q118 0 184 -96q23 -32 32 -69t9 -101q0 -47 -4 -201.5t-4 -158.5q0 -33 10 -55.5t25.5 -31.5t26.5 -12.5t20 -3.5q8 0 35.5 10t42.5 21q6 4 12 -6q6 -6 6 -21q0 -33 -60 -80t-124 -47q-40 0 -77 25t-54 78q0 2 -4.5 5.5t-7.5 2.5 q-49 -34 -104.5 -60t-80.5 -34q-35 -12 -82 -12q-55 0 -98 57t-43 133q0 55 39 104q5 7 11.5 12.5t11.5 9.5t14.5 9t13.5 7t16 7.5t15 6.5q18 7 123 37.5t116 33.5q60 18 60 37q4 36 4 168q0 45 -45.5 91t-114.5 46q-53 0 -84 -22q-21 -11 -14 -84q0 -11 -12 -23 q-15 -12 -70.5 -39.5t-63.5 -27.5q-9 0 -16.5 9t-7.5 17zM236 209q0 -60 43.5 -91.5t85.5 -31.5t110 35q8 5 16.5 25.5t8.5 25.5q4 49 4 160q0 5 -5.5 10.5t-11.5 5.5q-40 0 -102.5 -19t-108.5 -42q-13 -9 -20 -16t-13.5 -23t-6.5 -39zM349 929.5q-1 20.5 5 35.5 q46 137 127 315q10 20 24.5 31.5t24.5 11.5q64 0 78 -16q4 -7 1 -23.5t-11 -32.5q-30 -57 -87.5 -152.5t-94.5 -150.5q-10 -15 -25.5 -27t-28.5 -12q-12 0 -13 20.5z" />
<glyph unicode="&#xe2;" horiz-adv-x="813" d="M82 569q0 80 154 181q43 31 101 54t89 23q118 0 184 -96q23 -32 32 -69t9 -101q0 -47 -4 -201.5t-4 -158.5q0 -33 10 -55.5t25.5 -31.5t26.5 -12.5t20 -3.5q8 0 35.5 10t42.5 21q6 4 12 -6q6 -6 6 -21q0 -33 -60 -80t-124 -47q-40 0 -77 25t-54 78q0 2 -4.5 5.5t-7.5 2.5 q-49 -34 -104.5 -60t-80.5 -34q-35 -12 -82 -12q-55 0 -98 57t-43 133q0 55 39 104q5 7 11.5 12.5t11.5 9.5t14.5 9t13.5 7t16 7.5t15 6.5q18 7 123 37.5t116 33.5q60 18 60 37q4 36 4 168q0 45 -45.5 91t-114.5 46q-53 0 -84 -22q-21 -11 -14 -84q0 -11 -12 -23 q-15 -12 -70.5 -39.5t-63.5 -27.5q-9 0 -16.5 9t-7.5 17zM182 920q-4 15 2 32q28 67 148 285q38 68 57 68q17 0 57 -78q68 -121 136 -256q30 -70 -4 -70q-22 0 -50 39q-14 19 -64.5 89t-70.5 99q-2 4 -7.5 5.5t-10.5 -3.5q-82 -124 -137 -194q-21 -31 -43 -31q-9 0 -13 15z M236 209q0 -60 43.5 -91.5t85.5 -31.5t110 35q8 5 16.5 25.5t8.5 25.5q4 49 4 160q0 5 -5.5 10.5t-11.5 5.5q-40 0 -102.5 -19t-108.5 -42q-13 -9 -20 -16t-13.5 -23t-6.5 -39z" />
<glyph unicode="&#xe3;" horiz-adv-x="813" d="M82 569q0 80 154 181q43 31 101 54t89 23q118 0 184 -96q23 -32 32 -69t9 -101q0 -47 -4 -201.5t-4 -158.5q0 -33 10 -55.5t25.5 -31.5t26.5 -12.5t20 -3.5q8 0 35.5 10t42.5 21q6 4 12 -6q6 -6 6 -21q0 -33 -60 -80t-124 -47q-40 0 -77 25t-54 78q0 2 -4.5 5.5t-7.5 2.5 q-49 -34 -104.5 -60t-80.5 -34q-35 -12 -82 -12q-55 0 -98 57t-43 133q0 55 39 104q5 7 11.5 12.5t11.5 9.5t14.5 9t13.5 7t16 7.5t15 6.5q18 7 123 37.5t116 33.5q60 18 60 37q4 36 4 168q0 45 -45.5 91t-114.5 46q-53 0 -84 -22q-21 -11 -14 -84q0 -11 -12 -23 q-15 -12 -70.5 -39.5t-63.5 -27.5q-9 0 -16.5 9t-7.5 17zM145 1022q0 2 16.5 25t49 56.5t65.5 53.5q15 12 31 8q18 -5 87.5 -11.5t107.5 -6.5q42 0 59 12q24 19 51 51q7 7 25 -7t18 -21q0 -9 -6 -13l-127 -127q-11 -14 -22 -14q-9 0 -104.5 10.5t-141.5 10.5q-18 0 -61 -48 q-10 -12 -21 -12q-4 0 -15.5 15t-11.5 18zM236 209q0 -60 43.5 -91.5t85.5 -31.5t110 35q8 5 16.5 25.5t8.5 25.5q4 49 4 160q0 5 -5.5 10.5t-11.5 5.5q-40 0 -102.5 -19t-108.5 -42q-13 -9 -20 -16t-13.5 -23t-6.5 -39z" />
<glyph unicode="&#xe4;" horiz-adv-x="813" d="M82 569q0 80 154 181q43 31 101 54t89 23q118 0 184 -96q23 -32 32 -69t9 -101q0 -47 -4 -201.5t-4 -158.5q0 -33 10 -55.5t25.5 -31.5t26.5 -12.5t20 -3.5q8 0 35.5 10t42.5 21q6 4 12 -6q6 -6 6 -21q0 -33 -60 -80t-124 -47q-40 0 -77 25t-54 78q0 2 -4.5 5.5t-7.5 2.5 q-49 -34 -104.5 -60t-80.5 -34q-35 -12 -82 -12q-55 0 -98 57t-43 133q0 55 39 104q5 7 11.5 12.5t11.5 9.5t14.5 9t13.5 7t16 7.5t15 6.5q18 7 123 37.5t116 33.5q60 18 60 37q4 36 4 168q0 45 -45.5 91t-114.5 46q-53 0 -84 -22q-21 -11 -14 -84q0 -11 -12 -23 q-15 -12 -70.5 -39.5t-63.5 -27.5q-9 0 -16.5 9t-7.5 17zM129 1133q0 38 25 67t65 29q36 0 60 -28.5t24 -65.5q0 -43 -26.5 -67t-61.5 -24q-31 0 -58.5 24.5t-27.5 64.5zM236 209q0 -60 43.5 -91.5t85.5 -31.5t110 35q8 5 16.5 25.5t8.5 25.5q4 49 4 160q0 5 -5.5 10.5 t-11.5 5.5q-40 0 -102.5 -19t-108.5 -42q-13 -9 -20 -16t-13.5 -23t-6.5 -39zM473 1133q0 42 28.5 68t63.5 26t61.5 -29t26.5 -63q0 -37 -27.5 -64t-64.5 -27q-35 0 -61.5 26t-26.5 63z" />
<glyph unicode="&#xe5;" horiz-adv-x="813" d="M82 569q0 80 154 181q43 31 101 54t89 23q118 0 184 -96q23 -32 32 -69t9 -101q0 -47 -4 -201.5t-4 -158.5q0 -33 10 -55.5t25.5 -31.5t26.5 -12.5t20 -3.5q8 0 35.5 10t42.5 21q6 4 12 -6q6 -6 6 -21q0 -33 -60 -80t-124 -47q-40 0 -77 25t-54 78q0 2 -4.5 5.5t-7.5 2.5 q-49 -34 -104.5 -60t-80.5 -34q-35 -12 -82 -12q-55 0 -98 57t-43 133q0 55 39 104q5 7 11.5 12.5t11.5 9.5t14.5 9t13.5 7t16 7.5t15 6.5q18 7 123 37.5t116 33.5q60 18 60 37q4 36 4 168q0 45 -45.5 91t-114.5 46q-53 0 -84 -22q-21 -11 -14 -84q0 -11 -12 -23 q-15 -12 -70.5 -39.5t-63.5 -27.5q-9 0 -16.5 9t-7.5 17zM219 1122q0 67 46.5 116.5t119.5 49.5t119.5 -49.5t46.5 -116.5q0 -68 -46.5 -118t-119.5 -50t-119.5 50t-46.5 118zM236 209q0 -60 43.5 -91.5t85.5 -31.5t110 35q8 5 16.5 25.5t8.5 25.5q4 49 4 160q0 5 -5.5 10.5 t-11.5 5.5q-40 0 -102.5 -19t-108.5 -42q-13 -9 -20 -16t-13.5 -23t-6.5 -39zM293 1122q0 -49 26 -77.5t66 -28.5q41 0 66.5 28t25.5 82q0 40 -27.5 70.5t-66.5 30.5t-64.5 -30.5t-25.5 -74.5z" />
<glyph unicode="&#xe6;" horiz-adv-x="1150" d="M82 571q0 16 15 44t48 57q97 81 203 137q43 22 92 22q45 0 83.5 -18.5t57.5 -37.5t40 -48q8 -8 16 0q72 53 128 78.5t116 25.5q71 0 123.5 -37t75 -87t22.5 -103q0 -11 -11.5 -27t-25.5 -20q-275 -78 -393 -115q-19 -8 -19 -24q0 -140 6 -182.5t31 -73.5q48 -62 172 -62 q41 0 78.5 11.5t59 24t45.5 30t30 20.5q11 6 21 5t10 -7q0 -28 -14 -49q-44 -66 -130 -113t-182 -47q-160 0 -237 119q-13 12 -19 6q-72 -53 -142 -89t-108 -36q-65 0 -124.5 59t-59.5 148q0 61 32.5 97t98.5 59q30 10 116 41.5t124 42.5q33 10 41 18t8 25q0 33 0.5 69 t1 53.5t0 36.5t-2.5 28.5t-5.5 18t-9.5 15.5q-54 51 -136 51q-46 0 -75 -24q-19 -15 -17 -39q2 -43 -6 -51q-115 -78 -154 -78q-9 0 -16.5 8.5t-7.5 17.5zM244 211q0 -55 36 -90t87 -35q33 0 76 22t59 52q8 21 8 57v143q0 2 -3.5 5.5t-10 6t-15.5 -0.5q-135 -44 -186 -74.5 t-51 -85.5zM653 504q0 -3 7 -6.5t10 -1.5q44 11 124 36t103 35q49 20 49 68q0 11 -4.5 26.5t-17.5 37t-43.5 35.5t-73.5 14q-67 0 -129 -56q-25 -21 -25 -65v-123z" />
<glyph unicode="&#xe7;" horiz-adv-x="802" d="M66 377q0 227 202 364q56 40 129 63t125 23q148 0 215 -51q29 -21 29 -63q0 -19 -24.5 -46.5t-47.5 -27.5q-8 0 -17 4t-16 9t-24 18.5t-31 23.5q-52 36 -83 47t-79 11q-32 0 -71.5 -21t-61.5 -49q-86 -103 -86 -242q0 -156 89.5 -247t224.5 -91q57 0 110 21t84 49 q9 8 17 4.5t8 -16.5q0 -38 -27 -62q-82 -85 -199 -110q-15 -20 -31 -41t-25 -33t-11 -14q-5 -13 12 -25q34 -17 51.5 -27.5t39 -29t31 -42t9.5 -55.5q0 -85 -100 -167q-83 -64 -141 -64q-35 0 -50 29q-15 30 -2 61q14 20 29 17q67 -13 82 -13q35 0 54.5 23t19.5 55 q0 41 -35 68.5t-80 27.5q-21 0 -35 -2q-8 0 -19.5 12t-11.5 19q0 10 13 27q46 62 129 161h-19q-99 0 -180.5 44.5t-134.5 121.5q-61 103 -61 236z" />
<glyph unicode="&#xe8;" horiz-adv-x="802" d="M68 387q0 127 64.5 237t180.5 164q78 37 156 37q56 0 111 -20t92 -57q71 -68 71 -173q0 -11 -11 -22.5t-27 -11.5q-373 0 -467 2q-4 0 -9.5 -6t-7.5 -11q-10 -27 -10 -71q0 -59 22 -124t56 -110q36 -48 97.5 -80t131.5 -32q137 0 187 73q17 25 26 25q17 0 17 -25 q0 -24 -15 -49q-106 -153 -297 -153q-165 0 -266.5 113t-101.5 294zM236 1288q0 8 9 18.5t23 16.5q24 12 54 12q22 0 53 -71q24 -49 64.5 -144.5t60.5 -154.5q6 -13 4.5 -32.5t-12.5 -19.5q-24 0 -48 33q-46 59 -108.5 156t-81.5 131q-18 30 -18 55zM242 621q-3 -7 0.5 -15 t7.5 -8q90 -3 264 0q38 0 54 10.5t16 40.5q0 45 -40.5 84t-94.5 39q-69 0 -124 -40t-83 -111z" />
<glyph unicode="&#xe9;" horiz-adv-x="802" d="M68 387q0 127 64.5 237t180.5 164q78 37 156 37q56 0 111 -20t92 -57q71 -68 71 -173q0 -11 -11 -22.5t-27 -11.5q-373 0 -467 2q-4 0 -9.5 -6t-7.5 -11q-10 -27 -10 -71q0 -59 22 -124t56 -110q36 -48 97.5 -80t131.5 -32q137 0 187 73q17 25 26 25q17 0 17 -25 q0 -24 -15 -49q-106 -153 -297 -153q-165 0 -266.5 113t-101.5 294zM242 621q-3 -7 0.5 -15t7.5 -8q90 -3 264 0q38 0 54 10.5t16 40.5q0 45 -40.5 84t-94.5 39q-69 0 -124 -40t-83 -111zM384 929.5q-1 20.5 5 35.5q46 137 127 315q10 20 24.5 31.5t24.5 11.5q64 0 78 -16 q4 -7 1 -23.5t-11 -32.5q-30 -57 -87.5 -152.5t-94.5 -150.5q-10 -15 -25.5 -27t-28.5 -12q-12 0 -13 20.5z" />
<glyph unicode="&#xea;" horiz-adv-x="802" d="M68 387q0 127 64.5 237t180.5 164q78 37 156 37q56 0 111 -20t92 -57q71 -68 71 -173q0 -11 -11 -22.5t-27 -11.5q-373 0 -467 2q-4 0 -9.5 -6t-7.5 -11q-10 -27 -10 -71q0 -59 22 -124t56 -110q36 -48 97.5 -80t131.5 -32q137 0 187 73q17 25 26 25q17 0 17 -25 q0 -24 -15 -49q-106 -153 -297 -153q-165 0 -266.5 113t-101.5 294zM225 928.5q-4 15.5 2 32.5q27 63 148 284q38 68 57 68q17 0 57 -78q68 -121 136 -256q30 -70 -4 -70q-22 0 -50 39q-11 15 -63 87t-72 102q-2 4 -7.5 5.5t-10.5 -3.5q-86 -130 -137 -195q-21 -31 -43 -31 q-9 0 -13 15.5zM242 621q-3 -7 0.5 -15t7.5 -8q90 -3 264 0q38 0 54 10.5t16 40.5q0 45 -40.5 84t-94.5 39q-69 0 -124 -40t-83 -111z" />
<glyph unicode="&#xeb;" horiz-adv-x="802" d="M68 387q0 127 64.5 237t180.5 164q78 37 156 37q56 0 111 -20t92 -57q71 -68 71 -173q0 -11 -11 -22.5t-27 -11.5q-373 0 -467 2q-4 0 -9.5 -6t-7.5 -11q-10 -27 -10 -71q0 -59 22 -124t56 -110q36 -48 97.5 -80t131.5 -32q137 0 187 73q17 25 26 25q17 0 17 -25 q0 -24 -15 -49q-106 -153 -297 -153q-165 0 -266.5 113t-101.5 294zM176 1133q0 38 25 67t65 29q36 0 60 -28.5t24 -65.5q0 -43 -26.5 -67t-61.5 -24q-31 0 -58.5 24.5t-27.5 64.5zM242 621q-3 -7 0.5 -15t7.5 -8q90 -3 264 0q38 0 54 10.5t16 40.5q0 45 -40.5 84t-94.5 39 q-69 0 -124 -40t-83 -111zM520 1133q0 42 28.5 68t63.5 26t61.5 -29t26.5 -63q0 -37 -27.5 -64t-64.5 -27q-35 0 -61.5 26t-26.5 63z" />
<glyph unicode="&#xec;" horiz-adv-x="518" d="M37 1288q0 8 9.5 18.5t23.5 16.5q24 12 53 12q22 0 53 -71q24 -49 64.5 -144.5t60.5 -154.5q6 -13 4.5 -32.5t-12.5 -19.5q-23 0 -47 33q-46 59 -109.5 156.5t-81.5 130.5q-18 30 -18 55zM55 14q0 19 49 33q34 9 56.5 25t25.5 32q9 44 9 211q0 307 -2 320q-1 10 -18 25.5 t-62 48.5q-21 13 -21 26q0 10 12 19t29 12q45 9 121 38.5t82 31.5q5 0 11.5 -10t6.5 -13q0 -7 -3 -84.5t-6 -173.5t-3 -147q0 -129 4 -273q0 -16 5 -28.5t9 -19.5t17.5 -14t18 -9t25 -8t23.5 -7q45 -14 45 -35q0 -9 -14.5 -14.5t-32.5 -5.5q-3 0 -68.5 3t-90.5 3 q-38 0 -99.5 -4t-74.5 -4q-54 0 -54 22z" />
<glyph unicode="&#xed;" horiz-adv-x="518" d="M55 14q0 19 49 33q34 9 56.5 25t25.5 32q9 44 9 211q0 307 -2 320q-1 10 -18 25.5t-62 48.5q-21 13 -21 26q0 10 12 19t29 12q45 9 121 38.5t82 31.5q5 0 11.5 -10t6.5 -13q0 -7 -3 -84.5t-6 -173.5t-3 -147q0 -129 4 -273q0 -16 5 -28.5t9 -19.5t17.5 -14t18 -9t25 -8 t23.5 -7q45 -14 45 -35q0 -9 -14.5 -14.5t-32.5 -5.5q-3 0 -68.5 3t-90.5 3q-38 0 -99.5 -4t-74.5 -4q-54 0 -54 22zM200 929.5q-1 20.5 5 35.5q46 137 127 315q10 20 24.5 31.5t24.5 11.5q64 0 78 -16q4 -7 1 -23.5t-11 -32.5q-74 -140 -183 -303q-26 -39 -53 -39 q-12 0 -13 20.5z" />
<glyph unicode="&#xee;" horiz-adv-x="518" d="M55 14q0 19 49 33q34 9 56.5 25t25.5 32q9 44 9 211q0 307 -2 320q-1 10 -18 25.5t-62 48.5q-21 13 -21 26q0 10 12 19t29 12q45 9 121 38.5t82 31.5q5 0 11.5 -10t6.5 -13q0 -7 -3 -84.5t-6 -173.5t-3 -147q0 -129 4 -273q0 -16 5 -28.5t9 -19.5t17.5 -14t18 -9t25 -8 t23.5 -7q45 -14 45 -35q0 -9 -14.5 -14.5t-32.5 -5.5q-3 0 -68.5 3t-90.5 3q-38 0 -99.5 -4t-74.5 -4q-54 0 -54 22zM57 928.5q-4 15.5 2 32.5q27 63 148 284q38 68 57 68q18 0 58 -78q58 -104 135 -256q30 -70 -4 -70q-22 0 -50 39q-11 15 -63 87t-72 102q-2 4 -7.5 5.5 t-10.5 -3.5q-86 -130 -137 -195q-21 -31 -43 -31q-9 0 -13 15.5z" />
<glyph unicode="&#xef;" horiz-adv-x="518" d="M4 1133q0 38 25 67t65 29q36 0 60 -28.5t24 -65.5q0 -43 -26.5 -67t-61.5 -24q-31 0 -58.5 24.5t-27.5 64.5zM55 14q0 19 49 33q34 9 56.5 25t25.5 32q9 44 9 211q0 307 -2 320q-1 10 -18 25.5t-62 48.5q-21 13 -21 26q0 10 12 19t29 12q45 9 121 38.5t82 31.5 q5 0 11.5 -10t6.5 -13q0 -7 -3 -84.5t-6 -173.5t-3 -147q0 -129 4 -273q0 -16 5 -28.5t9 -19.5t17.5 -14t18 -9t25 -8t23.5 -7q45 -14 45 -35q0 -9 -14.5 -14.5t-32.5 -5.5q-3 0 -68.5 3t-90.5 3q-38 0 -99.5 -4t-74.5 -4q-54 0 -54 22zM348 1133q0 42 28.5 68t63.5 26 t61.5 -29t26.5 -63q0 -37 -27.5 -64t-64.5 -27q-35 0 -61.5 26t-26.5 63z" />
<glyph unicode="&#xf0;" horiz-adv-x="983" d="M66 401q0 128 71 236q57 83 163 137.5t232 54.5q28 0 76.5 -9.5t79.5 -22.5q8 -3 15 1t6 11q-32 174 -131 305q-5 6 -13 8.5t-14 -0.5q-16 -7 -72.5 -33.5t-107.5 -51t-84 -40.5q-7 -4 -16 0.5t-9 12.5q-3 20 0 34q4 10 17 19q28 16 221 115q10 7 6 16q-74 76 -168 133 t-172 78q-11 2 -23 10t-12 19t11 19.5t28 8.5q88 0 215.5 -61.5t224.5 -143.5q4 -4 13.5 -4.5t13.5 2.5q34 17 101.5 53.5t105.5 55.5q5 3 12.5 -1.5t7.5 -12.5q3 -27 -2 -43q-6 -17 -26 -29q-140 -74 -146 -78q-13 -9 -2 -20q211 -259 211 -652q0 -332 -194 -477 q-104 -76 -220 -76q-177 0 -298 119.5t-121 306.5zM242 406q0 -81 32 -163.5t97.5 -142t146.5 -59.5q48 0 85 28t75 93q29 54 45 136.5t16 156.5q0 146 -57 211q-41 43 -92.5 68.5t-95.5 25.5q-117 0 -181 -96q-34 -49 -52.5 -105t-18.5 -153z" />
<glyph unicode="&#xf1;" horiz-adv-x="1067" d="M57 20q0 20 43 31q50 15 65.5 36.5t20.5 78.5q11 112 11 448q0 20 -9.5 37.5t-40.5 42.5q-38 25 -38 35t12.5 23t23.5 18q104 36 138 59q38 23 49 23q7 0 13.5 -12t6.5 -19q0 -20 -4 -57.5t-4 -44.5q0 -3 1.5 -5t3.5 -2h5l2 1q167 112 275 112q118 0 186 -77 q34 -40 53 -106.5t19 -143.5q0 -286 6 -373q7 -53 76 -72q51 -13 51 -35t-61 -22q-22 0 -72 2t-80 2q-29 0 -80 -2t-61 -2q-16 0 -31.5 6.5t-15.5 17.5q0 20 47 35q37 13 48.5 32.5t14.5 70.5q6 102 6 374q0 51 -19.5 93.5t-41.5 58.5q-19 14 -58.5 26.5t-72.5 12.5 q-109 0 -183 -66q-6 -6 -13 -21.5t-7 -27.5q0 -466 2 -491q2 -24 16 -37.5t60 -26.5q37 -11 37 -30q0 -11 -14.5 -18t-36.5 -7q-10 0 -55.5 1t-69.5 1q-43 0 -100.5 -3t-69.5 -3q-54 0 -54 26zM279 1024q0 2 16.5 25t49 56.5t65.5 53.5q14 12 30 8q18 -5 87.5 -11.5 t107.5 -6.5q42 0 59 12q24 19 51 51q7 7 25 -7t18 -21q0 -9 -6 -13q-4 -4 -32 -31.5t-61 -61t-34 -34.5q-11 -14 -22 -14q-9 0 -104.5 10.5t-141.5 10.5q-19 0 -61 -47q-11 -13 -21 -13q-4 0 -15 14.5t-11 18.5z" />
<glyph unicode="&#xf2;" horiz-adv-x="987" d="M66 395q0 199 143 320q128 112 303 112q77 0 150 -29.5t131 -82t93.5 -132.5t35.5 -173q0 -117 -56 -213.5t-123 -139.5q-114 -82 -254 -82q-69 0 -141 29t-131 78q-65 53 -108 144t-43 169zM240 444q0 -106 24 -182q36 -109 111.5 -168t154.5 -59q58 0 125 67 q38 41 65.5 122.5t27.5 148.5q0 194 -103 313q-33 36 -82 58t-90 22q-64 0 -133 -59q-41 -38 -70.5 -112t-29.5 -151zM291 1292q0 8 9.5 18.5t23.5 16.5q24 12 53 12q22 0 53 -71q24 -49 64.5 -144.5t60.5 -154.5q6 -13 4.5 -32t-12.5 -19q-24 0 -47 32q-46 59 -109.5 156.5 t-81.5 130.5q-18 30 -18 55z" />
<glyph unicode="&#xf3;" horiz-adv-x="987" d="M66 395q0 199 143 320q128 112 303 112q77 0 150 -29.5t131 -82t93.5 -132.5t35.5 -173q0 -117 -56 -213.5t-123 -139.5q-114 -82 -254 -82q-69 0 -141 29t-131 78q-65 53 -108 144t-43 169zM240 444q0 -106 24 -182q36 -109 111.5 -168t154.5 -59q58 0 125 67 q38 41 65.5 122.5t27.5 148.5q0 194 -103 313q-33 36 -82 58t-90 22q-64 0 -133 -59q-41 -38 -70.5 -112t-29.5 -151zM431 929.5q-1 20.5 5 35.5q46 137 127 315q10 20 24.5 31.5t24.5 11.5q64 0 78 -16q4 -7 1 -23.5t-11 -32.5q-30 -57 -87.5 -152.5t-94.5 -150.5 q-10 -15 -25.5 -27t-28.5 -12q-12 0 -13 20.5z" />
<glyph unicode="&#xf4;" horiz-adv-x="987" d="M66 395q0 199 143 320q128 112 303 112q77 0 150 -29.5t131 -82t93.5 -132.5t35.5 -173q0 -117 -56 -213.5t-123 -139.5q-114 -82 -254 -82q-69 0 -141 29t-131 78q-65 53 -108 144t-43 169zM240 444q0 -106 24 -182q36 -109 111.5 -168t154.5 -59q58 0 125 67 q38 41 65.5 122.5t27.5 148.5q0 194 -103 313q-33 36 -82 58t-90 22q-64 0 -133 -59q-41 -38 -70.5 -112t-29.5 -151zM284.5 928.5q-3.5 15.5 2.5 32.5q30 71 147 284q38 68 58 68q17 0 57 -78q58 -104 135 -256q30 -70 -4 -70q-21 0 -49 39q-11 15 -63 87t-72 102 q-2 4 -8 5.5t-11 -3.5q-86 -130 -137 -195q-21 -31 -43 -31q-9 0 -12.5 15.5z" />
<glyph unicode="&#xf5;" horiz-adv-x="987" d="M66 395q0 199 143 320q128 112 303 112q77 0 150 -29.5t131 -82t93.5 -132.5t35.5 -173q0 -117 -56 -213.5t-123 -139.5q-114 -82 -254 -82q-69 0 -141 29t-131 78q-65 53 -108 144t-43 169zM238 1010q0 2 16.5 25t49 56.5t65.5 53.5q14 12 30 8q18 -5 87.5 -11.5 t107.5 -6.5q42 0 59 12q27 21 52 51q7 7 25 -7.5t18 -21.5t-7 -12l-127 -127q-11 -14 -22 -14q-9 0 -104.5 10t-141.5 10q-19 0 -61 -47q-10 -12 -21 -12q-4 0 -15 14.5t-11 18.5zM240 444q0 -106 24 -182q36 -109 111.5 -168t154.5 -59q58 0 125 67q38 41 65.5 122.5 t27.5 148.5q0 194 -103 313q-33 36 -82 58t-90 22q-64 0 -133 -59q-41 -38 -70.5 -112t-29.5 -151z" />
<glyph unicode="&#xf6;" horiz-adv-x="987" d="M66 395q0 199 143 320q128 112 303 112q77 0 150 -29.5t131 -82t93.5 -132.5t35.5 -173q0 -117 -56 -213.5t-123 -139.5q-114 -82 -254 -82q-69 0 -141 29t-131 78q-65 53 -108 144t-43 169zM236 1133q0 38 25 67t65 29q36 0 60 -28.5t24 -65.5q0 -43 -26.5 -67 t-61.5 -24q-31 0 -58.5 24.5t-27.5 64.5zM240 444q0 -106 24 -182q36 -109 111.5 -168t154.5 -59q58 0 125 67q38 41 65.5 122.5t27.5 148.5q0 194 -103 313q-33 36 -82 58t-90 22q-64 0 -133 -59q-41 -38 -70.5 -112t-29.5 -151zM580 1133q0 42 28.5 68t63.5 26t61.5 -29 t26.5 -63q0 -37 -27.5 -64t-64.5 -27q-35 0 -61.5 26t-26.5 63z" />
<glyph unicode="&#xf7;" horiz-adv-x="1277" d="M123 498q0 22 10 48.5t21 26.5h968q20 0 25.5 -4.5t5.5 -19.5q0 -34 -9.5 -58t-19.5 -24h-958q-29 0 -36 5t-7 26zM528 180q0 41 32 73t77 32q43 0 73.5 -32t30.5 -73q0 -47 -30 -79.5t-74 -32.5q-46 0 -77.5 32.5t-31.5 79.5zM532 852q0 44 32.5 77.5t72.5 33.5 q46 0 77 -33t31 -78q0 -44 -31 -75.5t-77 -31.5q-40 0 -72.5 32.5t-32.5 74.5z" />
<glyph unicode="&#xf8;" horiz-adv-x="987" d="M66 389q0 103 39 187t102 137q55 48 135 81t174 33q99 0 193 -51q2 -2 8 -3t10 3l53 64q18 18 29 18q12 0 24.5 -15.5t6.5 -23.5q-12 -17 -28 -38t-30 -42q-5 -9 4 -18q136 -129 136 -326q0 -102 -57.5 -201t-121.5 -141q-108 -78 -254 -78q-98 0 -210 64q-17 8 -23 0 l-70 -84q-7 -7 -18 -2q-13 9 -19.5 18.5t-5.5 14.5t2 8q38 50 64 80q6 6 -8 20q-60 57 -97.5 134.5t-37.5 160.5zM236 444q0 -149 51 -231q2 -4 8.5 -6.5t11.5 2.5q111 143 342 459q3 2 2 6t-2 6.5t-3.5 5.5t-2.5 4q-80 76 -172 76q-73 0 -131 -53q-41 -38 -72.5 -114.5 t-31.5 -154.5zM342 156q-9 -12 2 -29q92 -92 178 -92q41 0 72 15t65 50q38 42 65.5 126.5t27.5 154.5q0 127 -47 221q-2 5 -6.5 8t-7.5 3.5t-5 -1.5q-56 -72 -170.5 -226t-173.5 -230z" />
<glyph unicode="&#xf9;" horiz-adv-x="1019" d="M51 772q0 6 9 12.5t26 6.5q25 0 77.5 5.5t95 11t44.5 5.5q6 0 11 -10.5t5 -20.5q1 -40 -2.5 -278.5t-3.5 -270.5q0 -35 15 -67t37 -47q25 -19 50 -28.5t41.5 -11t47.5 -1.5q73 0 155 72q9 7 20 25t11 24l4 471q0 9 -13 25.5t-22 19.5q-87 22 -94 24q-14 4 -27.5 13 t-13.5 20q0 6 16 12.5t31 6.5q134 0 220 22q27 8 49 8q7 0 10.5 -10.5t3.5 -19.5q-4 -53 -12 -309.5t-8 -370.5q0 -6 7 -17.5t17 -11.5q6 0 47.5 5t55.5 5q5 0 13 -15t11 -24q0 -5 -8 -12.5t-14 -7.5q-49 -4 -187 -39q-66 -19 -71 -19q-6 0 -13.5 9.5t-7.5 19.5q0 5 3.5 36 t4.5 50q0 7 -3.5 11.5t-6.5 2.5q-129 -89 -168 -104q-62 -25 -137 -25q-117 0 -180 97q-29 48 -29 96q0 378 -4 487q0 10 -2.5 19t-5 15.5t-8.5 12.5t-9.5 9t-12 7.5t-11.5 6t-14 5.5t-13 5q-37 16 -37 37zM283 1288q0 8 9 18.5t23 16.5q24 12 54 12q22 0 53 -71 q24 -49 64.5 -144.5t60.5 -154.5q6 -13 4.5 -32.5t-12.5 -19.5q-23 0 -47 33q-46 59 -109.5 156.5t-81.5 130.5q-18 30 -18 55z" />
<glyph unicode="&#xfa;" horiz-adv-x="1019" d="M51 772q0 6 9 12.5t26 6.5q25 0 77.5 5.5t95 11t44.5 5.5q6 0 11 -10.5t5 -20.5q1 -40 -2.5 -278.5t-3.5 -270.5q0 -35 15 -67t37 -47q25 -19 50 -28.5t41.5 -11t47.5 -1.5q73 0 155 72q9 7 20 25t11 24l4 471q0 9 -13 25.5t-22 19.5q-87 22 -94 24q-14 4 -27.5 13 t-13.5 20q0 6 16 12.5t31 6.5q134 0 220 22q27 8 49 8q7 0 10.5 -10.5t3.5 -19.5q-4 -53 -12 -309.5t-8 -370.5q0 -6 7 -17.5t17 -11.5q6 0 47.5 5t55.5 5q5 0 13 -15t11 -24q0 -5 -8 -12.5t-14 -7.5q-49 -4 -187 -39q-66 -19 -71 -19q-6 0 -13.5 9.5t-7.5 19.5q0 5 3.5 36 t4.5 50q0 7 -3.5 11.5t-6.5 2.5q-129 -89 -168 -104q-62 -25 -137 -25q-117 0 -180 97q-29 48 -29 96q0 378 -4 487q0 10 -2.5 19t-5 15.5t-8.5 12.5t-9.5 9t-12 7.5t-11.5 6t-14 5.5t-13 5q-37 16 -37 37zM423 931.5q-1 20.5 5 35.5q46 137 127 315q10 20 24.5 31.5 t24.5 11.5q64 0 78 -16q4 -7 1 -23.5t-11 -32.5q-74 -140 -183 -303q-26 -39 -53 -39q-12 0 -13 20.5z" />
<glyph unicode="&#xfb;" horiz-adv-x="1019" d="M51 772q0 6 9 12.5t26 6.5q25 0 77.5 5.5t95 11t44.5 5.5q6 0 11 -10.5t5 -20.5q1 -40 -2.5 -278.5t-3.5 -270.5q0 -35 15 -67t37 -47q25 -19 50 -28.5t41.5 -11t47.5 -1.5q73 0 155 72q9 7 20 25t11 24l4 471q0 9 -13 25.5t-22 19.5q-87 22 -94 24q-14 4 -27.5 13 t-13.5 20q0 6 16 12.5t31 6.5q134 0 220 22q27 8 49 8q7 0 10.5 -10.5t3.5 -19.5q-4 -53 -12 -309.5t-8 -370.5q0 -6 7 -17.5t17 -11.5q6 0 47.5 5t55.5 5q5 0 13 -15t11 -24q0 -5 -8 -12.5t-14 -7.5q-49 -4 -187 -39q-66 -19 -71 -19q-6 0 -13.5 9.5t-7.5 19.5q0 5 3.5 36 t4.5 50q0 7 -3.5 11.5t-6.5 2.5q-129 -89 -168 -104q-62 -25 -137 -25q-117 0 -180 97q-29 48 -29 96q0 378 -4 487q0 10 -2.5 19t-5 15.5t-8.5 12.5t-9.5 9t-12 7.5t-11.5 6t-14 5.5t-13 5q-37 16 -37 37zM284.5 928.5q-3.5 15.5 2.5 32.5q30 71 147 284q38 68 58 68 q17 0 57 -78q58 -104 135 -256q30 -70 -4 -70q-21 0 -49 39q-11 15 -63 87t-72 102q-2 4 -8 5.5t-11 -3.5q-86 -130 -137 -195q-21 -31 -43 -31q-9 0 -12.5 15.5z" />
<glyph unicode="&#xfc;" horiz-adv-x="1019" d="M51 772q0 6 9 12.5t26 6.5q25 0 77.5 5.5t95 11t44.5 5.5q6 0 11 -10.5t5 -20.5q1 -40 -2.5 -278.5t-3.5 -270.5q0 -35 15 -67t37 -47q25 -19 50 -28.5t41.5 -11t47.5 -1.5q73 0 155 72q9 7 20 25t11 24l4 471q0 9 -13 25.5t-22 19.5q-87 22 -94 24q-14 4 -27.5 13 t-13.5 20q0 6 16 12.5t31 6.5q134 0 220 22q27 8 49 8q7 0 10.5 -10.5t3.5 -19.5q-4 -53 -12 -309.5t-8 -370.5q0 -6 7 -17.5t17 -11.5q6 0 47.5 5t55.5 5q5 0 13 -15t11 -24q0 -5 -8 -12.5t-14 -7.5q-49 -4 -187 -39q-66 -19 -71 -19q-6 0 -13.5 9.5t-7.5 19.5q0 5 3.5 36 t4.5 50q0 7 -3.5 11.5t-6.5 2.5q-129 -89 -168 -104q-62 -25 -137 -25q-117 0 -180 97q-29 48 -29 96q0 378 -4 487q0 10 -2.5 19t-5 15.5t-8.5 12.5t-9.5 9t-12 7.5t-11.5 6t-14 5.5t-13 5q-37 16 -37 37zM221 1133q0 38 25 67t65 29q36 0 60 -28.5t24 -65.5 q0 -43 -26.5 -67t-61.5 -24q-31 0 -58.5 24.5t-27.5 64.5zM565 1133q0 42 28.5 68t63.5 26t61.5 -29t26.5 -63q0 -37 -27.5 -64t-64.5 -27q-35 0 -61.5 26t-26.5 63z" />
<glyph unicode="&#xfd;" horiz-adv-x="847" d="M-10 780q0 25 49 25q25 0 77 -4t83 -4q33 0 84 2t59 2q15 0 30 -6t15 -17q0 -24 -47 -35q-43 -12 -50.5 -25.5t7.5 -53.5q22 -70 93.5 -246.5t84.5 -196.5q1 -2 4 -2.5t6.5 2t6.5 8.5q18 39 85.5 215t75.5 203q14 44 -2.5 66t-75.5 35q-18 4 -30.5 13t-12.5 15 q0 25 52 25q21 0 65 -2t56 -2q11 0 55 4t74 4q40 0 40 -19q0 -20 -45 -34q-33 -11 -55 -34t-45 -73q-92 -209 -225 -545q-40 -104 -113.5 -303t-99.5 -268q-7 -22 -36 -39.5t-71 -17.5q-48 0 -70 30.5t-22 69.5q0 30 25.5 60t64.5 30q4 0 33.5 -1t40.5 -1q8 0 14.5 5.5 t8.5 10.5t8 19q13 24 50 124t48 140q1 3 4 16.5t3.5 17.5t1.5 13.5t0 15.5t-3 11q-9 22 -31 84q-33 92 -110 275t-123 278q-11 23 -18 33.5t-26 23t-52 23.5q-41 14 -41 30zM409 929.5q-1 20.5 5 35.5q46 137 127 315q10 20 24.5 31.5t24.5 11.5q64 0 78 -16q10 -14 -11 -56 q-30 -57 -87.5 -152.5t-94.5 -150.5q-26 -39 -53 -39q-12 0 -13 20.5z" />
<glyph unicode="&#xfe;" horiz-adv-x="978" d="M-33 -506q0 7 13.5 17t35.5 14q31 8 47.5 12.5t32 15t21 19t11.5 31t7.5 43t3.5 63.5q6 102 6 445v421q0 482 -8 682q0 31 -10 41q-13 10 -28 20.5t-24 16.5t-17 11.5t-11.5 10t-3.5 7.5q0 6 16 18.5t23 14.5q10 3 43.5 11.5t65 17.5t47.5 18q36 18 43 18q6 0 15 -8.5 t9 -15.5q-3 -20 -4.5 -145t-2 -307t-1.5 -234q0 -6 6 -10t10 -1q55 32 133 60q58 20 142 20q57 0 120.5 -30.5t108.5 -81.5q41 -46 69.5 -118t28.5 -151q0 -89 -43 -187t-133 -165q-131 -102 -315 -102q-72 0 -109 6q-5 0 -12.5 -10t-7.5 -17q0 -283 6 -340q5 -42 23.5 -64 t72.5 -40q60 -15 60 -35q0 -11 -17 -19t-37 -8q-18 0 -109 5.5t-134 5.5q-23 0 -61.5 -2.5t-71.5 -2.5q-60 0 -60 29zM292 458q-2 -133 3 -196q7 -64 24 -90q38 -54 99 -87.5t104 -33.5q54 0 92 35q69 57 103.5 148t34.5 151q0 156 -84 248q-38 39 -93.5 64.5t-91.5 25.5 q-118 0 -157 -27q-20 -16 -25 -61q-7 -44 -9 -177z" />
<glyph unicode="&#xff;" horiz-adv-x="847" d="M-10 780q0 25 49 25q25 0 77 -4t83 -4q33 0 84 2t59 2q15 0 30 -6t15 -17q0 -24 -47 -35q-43 -12 -50.5 -25.5t7.5 -53.5q22 -70 93.5 -246.5t84.5 -196.5q1 -2 4 -2.5t6.5 2t6.5 8.5q18 39 85.5 215t75.5 203q14 44 -2.5 66t-75.5 35q-18 4 -30.5 13t-12.5 15 q0 25 52 25q21 0 65 -2t56 -2q11 0 55 4t74 4q40 0 40 -19q0 -20 -45 -34q-33 -11 -55 -34t-45 -73q-92 -209 -225 -545q-40 -104 -113.5 -303t-99.5 -268q-7 -22 -36 -39.5t-71 -17.5q-48 0 -70 30.5t-22 69.5q0 30 25.5 60t64.5 30q4 0 33.5 -1t40.5 -1q8 0 14.5 5.5 t8.5 10.5t8 19q13 24 50 124t48 140q1 3 4 16.5t3.5 17.5t1.5 13.5t0 15.5t-3 11q-9 22 -31 84q-33 92 -110 275t-123 278q-11 23 -18 33.5t-26 23t-52 23.5q-41 14 -41 30zM190 1133q0 38 25.5 67t65.5 29q36 0 60 -28.5t24 -65.5q0 -43 -27 -67t-62 -24q-31 0 -58.5 24.5 t-27.5 64.5zM535 1133q0 42 28.5 68t63.5 26t61.5 -29t26.5 -63q0 -37 -27.5 -64t-64.5 -27q-35 0 -61.5 26t-26.5 63z" />
<glyph unicode="&#x152;" horiz-adv-x="2170" d="M102 655q0 337 256 547q79 65 192.5 107.5t219.5 42.5q286 0 481 -226q5 -3 10 0.5t5 10.5q0 26 -2 71t-2 62t5.5 32t16.5 15h193h286q38 0 102.5 2t76.5 2q6 0 16 -9t10 -18q2 -8 4.5 -88.5t-0.5 -105.5q-2 -23 -11 -38t-24 -15q-16 0 -30 43q-12 43 -22 68.5 t-28.5 48.5t-41.5 26q-64 10 -340 10q-19 0 -25 -31q-14 -82 -14 -481q0 -8 6.5 -17t15.5 -9h168q79 0 116 10t54.5 32t36.5 78q11 33 35 33q22 0 22 -41q0 -13 -4 -60t-4 -71q-1 -40 3.5 -105.5t4.5 -76.5q0 -47 -28 -47q-23 0 -33 39q-23 67 -37 86q-27 33 -82 36 q-95 5 -260 5q-6 0 -10 -7t-4 -14q0 -352 2 -379q9 -91 17 -109q2 -4 5 -8q18 -26 58 -35.5t159 -9.5q71 0 107.5 1t76.5 9.5t58.5 18t46.5 38t46.5 56t53.5 84.5q22 37 35 37q12 0 18.5 -16t6.5 -31q0 -13 -43 -126.5t-53 -125.5q-20 -20 -52 -20q-6 0 -242 7t-274 7 q-28 0 -88.5 -2t-85.5 -2q-18 0 -22 13t-4 52l4 142q0 8 -3.5 10t-9.5 -6q-84 -113 -212 -177.5t-281 -64.5q-137 0 -260 56t-209.5 149.5t-137.5 220.5t-51 264zM305 688q0 -117 36.5 -230.5t102.5 -206.5t170.5 -150.5t229.5 -57.5q55 0 121 21.5t112 56.5 q82 63 133.5 195t51.5 323q0 176 -36 289t-122 202q-145 152 -340 152q-178 0 -291 -104q-168 -155 -168 -490z" />
<glyph unicode="&#x153;" horiz-adv-x="1423" d="M66 395q0 109 43.5 200.5t132.5 149.5q58 39 118 60.5t152 21.5q84 0 159.5 -37.5t112.5 -74.5q5 -5 14 -5.5t15 3.5q131 108 279 108q61 0 111 -18t81.5 -46t53 -63t30 -67t8.5 -60q0 -20 -27 -39.5t-67 -19.5h-397q-5 0 -11.5 -4.5t-7.5 -11.5q-8 -21 -8 -62 q0 -87 25.5 -158t86.5 -118.5t150 -47.5q75 0 121 22.5t92 64.5q9 10 20 8.5t11 -17.5q0 -25 -25 -57q-57 -71 -138.5 -107t-162.5 -36q-80 0 -148 33.5t-106 76.5q-10 10 -18 -4q-115 -115 -287 -115q-115 0 -212 63t-149 159t-52 198zM240 424q0 -65 16.5 -130.5 t48 -123.5t85.5 -94.5t122 -36.5q32 0 69.5 14t61.5 41q70 91 70 309q0 69 -11.5 128t-38 114t-78 87t-124.5 32q-27 0 -58.5 -13t-54.5 -34q-44 -37 -76 -115.5t-32 -177.5zM877 592q-7 -16 10 -25q7 0 121 4t135 4q26 0 44.5 19.5t18.5 34.5q0 20 -6 40.5t-19.5 42t-42 35 t-67.5 13.5q-71 0 -120.5 -47.5t-73.5 -120.5z" />
<glyph unicode="&#x178;" horiz-adv-x="1273" d="M6 1305q0 22 55 22q7 0 92.5 -5t141.5 -5q25 0 68.5 2t87.5 2q45 0 45 -23q0 -26 -45 -38q-51 -11 -54 -33.5t23 -61.5q44 -83 268 -448q3 -5 10.5 -3.5t10.5 7.5q62 88 264 422q30 56 16 79.5t-76 37.5q-22 6 -32.5 17t-10.5 23q0 19 48 19q27 0 68.5 -1t64.5 -1 q43 0 129.5 4t97.5 4q18 0 30.5 -5.5t12.5 -14.5q0 -22 -53 -37q-69 -18 -119.5 -55.5t-104.5 -104.5q-57 -71 -158 -226.5t-114 -174.5q-18 -26 -34.5 -65.5t-16.5 -59.5q0 -336 12 -435q6 -34 35 -54.5t111 -41.5q55 -13 55 -37q0 -22 -62 -22q-14 0 -83 4t-95 4 q-73 0 -177.5 -6t-108.5 -6q-52 0 -52 22q0 26 58 37q128 29 133 98q6 84 6 424q0 26 -18 74q-52 111 -261 430q-75 112 -110.5 145t-100.5 48q-28 6 -42.5 17t-14.5 22zM397 1524q0 38 26.5 66t65.5 28q36 0 63.5 -29.5t27.5 -68.5q0 -43 -29 -66.5t-70 -23.5 q-31 0 -57.5 25t-26.5 69zM807 1520q0 42 27.5 69t66.5 27q35 0 60.5 -29.5t25.5 -66.5t-27.5 -63.5t-64.5 -26.5q-34 0 -61 25.5t-27 64.5z" />
<glyph unicode="&#x2c6;" horiz-adv-x="819" d="M202.5 928.5q-3.5 15.5 2.5 32.5q30 71 147 284q38 68 58 68q17 0 57 -78q58 -104 135 -256q30 -70 -4 -70q-21 0 -49 39q-11 15 -63 87t-72 102q-2 4 -8 5.5t-11 -3.5q-86 -130 -137 -195q-21 -31 -43 -31q-9 0 -12.5 15.5z" />
<glyph unicode="&#x2dc;" horiz-adv-x="819" d="M156 1028q0 2 16.5 25t49 56.5t65.5 53.5q14 12 30 8q18 -5 87.5 -11.5t107.5 -6.5q42 0 59 12q25 19 52 52q7 7 25 -7.5t18 -21.5t-7 -12l-127 -127q-12 -15 -22 -15q-9 0 -104.5 10.5t-141.5 10.5q-19 0 -61 -47q-11 -13 -21 -13q-4 0 -15 14.5t-11 18.5z" />
<glyph unicode="&#x2000;" horiz-adv-x="860" />
<glyph unicode="&#x2001;" horiz-adv-x="1721" />
<glyph unicode="&#x2002;" horiz-adv-x="860" />
<glyph unicode="&#x2003;" horiz-adv-x="1721" />
<glyph unicode="&#x2004;" horiz-adv-x="573" />
<glyph unicode="&#x2005;" horiz-adv-x="430" />
<glyph unicode="&#x2006;" horiz-adv-x="286" />
<glyph unicode="&#x2007;" horiz-adv-x="286" />
<glyph unicode="&#x2008;" horiz-adv-x="215" />
<glyph unicode="&#x2009;" horiz-adv-x="344" />
<glyph unicode="&#x200a;" horiz-adv-x="95" />
<glyph unicode="&#x2010;" horiz-adv-x="598" d="M72 387q0 36 11.5 60t22.5 26q125 18 398 45q3 0 9.5 -8t6.5 -14q0 -31 -10 -64.5t-27 -34.5q-121 -14 -379 -39q-13 -1 -22.5 8t-9.5 21z" />
<glyph unicode="&#x2011;" horiz-adv-x="598" d="M72 387q0 36 11.5 60t22.5 26q125 18 398 45q3 0 9.5 -8t6.5 -14q0 -31 -10 -64.5t-27 -34.5q-121 -14 -379 -39q-13 -1 -22.5 8t-9.5 21z" />
<glyph unicode="&#x2012;" horiz-adv-x="598" d="M72 387q0 36 11.5 60t22.5 26q125 18 398 45q3 0 9.5 -8t6.5 -14q0 -31 -10 -64.5t-27 -34.5q-121 -14 -379 -39q-13 -1 -22.5 8t-9.5 21z" />
<glyph unicode="&#x2013;" horiz-adv-x="1128" d="M102 410q0 29 14 55.5t23 26.5l869 -3q6 0 12 -8.5t6 -17.5q2 -21 -10.5 -52.5t-22.5 -31.5l-868 2q-8 0 -15.5 11.5t-7.5 17.5z" />
<glyph unicode="&#x2014;" horiz-adv-x="1951" d="M102 410q0 29 14 55.5t23 26.5l1696 -3q6 0 12 -8.5t6 -17.5q0 -22 -11 -53t-21 -31l-1696 2q-8 0 -15.5 11.5t-7.5 17.5z" />
<glyph unicode="&#x2018;" horiz-adv-x="432" d="M84 1159q0 68 46.5 127.5t99.5 89t87 29.5q31 0 31 -21q0 -14 -31 -30q-120 -77 -120 -148q0 -43 21.5 -61.5t68.5 -30.5q31 -8 40 -23q9 -14 9 -38q0 -33 -28.5 -57.5t-65.5 -24.5q-76 0 -117 53.5t-41 134.5z" />
<glyph unicode="&#x2019;" horiz-adv-x="432" d="M84 991q0 3 1.5 6.5t3 6t5 6l5.5 5.5t6.5 5t5.5 4q55 29 88.5 67t33.5 78q0 24 -4.5 39.5t-19 26t-25.5 15t-39 14.5q-32 7 -42 24q-7 13 -7 35q0 33 28 57.5t64 24.5q76 0 118 -55.5t42 -135.5q0 -49 -20.5 -91.5t-50 -69.5t-62.5 -46.5t-57.5 -27.5t-36.5 -8 q-37 0 -37 20z" />
<glyph unicode="&#x201a;" horiz-adv-x="438" d="M78 -203q0 16 28 35q58 31 95 71.5t37 80.5t-22.5 61t-72.5 37q-17 6 -35 24.5t-18 40.5q0 34 30.5 62.5t67.5 28.5q82 0 125 -58.5t43 -144.5q0 -63 -33 -116t-77 -82t-81 -44.5t-54 -15.5q-33 0 -33 20z" />
<glyph unicode="&#x201c;" horiz-adv-x="757" d="M92 1155q0 48 21 91.5t51.5 71.5t64.5 48.5t59 29.5t36 9q32 0 32 -19t-30 -32q-123 -73 -123 -148q0 -43 20 -59.5t72 -32.5q32 -7 41 -24q8 -15 8 -37q0 -33 -29 -57.5t-65 -24.5q-76 0 -117 53t-41 131zM399 1161q0 49 21 92t51 69.5t64 46t59 28t37 8.5q35 0 35 -19 q0 -20 -33 -32q-54 -31 -87.5 -70t-33.5 -78q0 -43 19.5 -59.5t70.5 -32.5q33 -7 44 -23q9 -15 9 -38q0 -33 -30 -57.5t-66 -24.5q-76 0 -118 55t-42 135z" />
<glyph unicode="&#x201d;" horiz-adv-x="757" d="M90 989q0 16 31 37q121 64 121 143q0 24 -4.5 39.5t-19 26t-25.5 15t-39 14.5q-11 2 -16.5 4t-15.5 8t-15 18t-5 29q0 33 29.5 57.5t65.5 24.5q77 0 118 -55t41 -136q0 -49 -21 -91.5t-51 -69.5t-63.5 -46.5t-58.5 -27.5t-37 -8q-35 0 -35 18zM395 989q0 15 33 37 q123 65 123 143q0 24 -4.5 39.5t-19 26t-25.5 15t-39 14.5q-11 2 -16.5 4t-15 8t-14.5 18t-5 29q0 33 30 57.5t66 24.5q74 0 116 -55.5t42 -135.5q0 -49 -21.5 -91.5t-52.5 -69.5t-65.5 -46.5t-59 -27.5t-35.5 -8q-37 0 -37 18z" />
<glyph unicode="&#x201e;" horiz-adv-x="788" d="M78 -201q0 14 31 35q129 72 129 154q0 22 -5.5 36.5t-19.5 24.5t-27.5 16t-40.5 15q-19 6 -37 25t-18 45q0 35 30.5 61.5t69.5 26.5q80 0 124 -59t44 -144q0 -60 -33 -112t-77.5 -82t-82 -47t-52.5 -17q-35 0 -35 22zM426 -201q0 17 31 35q53 27 91 69.5t38 84.5 q0 22 -5 36.5t-19.5 25t-26.5 15.5t-39 15q-16 5 -25.5 9t-21 20.5t-11.5 40.5q0 35 31.5 61.5t69.5 26.5q81 0 125.5 -59t44.5 -144q0 -51 -22.5 -96t-54 -73.5t-67.5 -49.5t-63 -30t-39 -9q-37 0 -37 22z" />
<glyph unicode="&#x2022;" horiz-adv-x="886" d="M121 397q0 139 97.5 236.5t225.5 97.5q123 0 221.5 -98t98.5 -236q0 -136 -98 -233.5t-220 -97.5q-134 0 -229.5 96t-95.5 235z" />
<glyph unicode="&#x2026;" horiz-adv-x="1441" d="M121 92q0 58 36.5 85.5t73.5 27.5q55 0 81 -37t26 -76q0 -46 -32 -79t-77 -33q-43 0 -75.5 27t-32.5 85zM594 92q0 41 22.5 70t48 39t48.5 10q56 0 84 -39.5t28 -79.5q-2 -50 -34.5 -84.5t-79.5 -34.5q-45 0 -81 29.5t-36 89.5zM1077 92q0 60 39 89.5t78 29.5 q57 0 86 -39.5t29 -79.5q-2 -50 -35 -84.5t-82 -34.5q-45 0 -80 29.5t-35 89.5z" />
<glyph unicode="&#x202f;" horiz-adv-x="344" />
<glyph unicode="&#x2039;" horiz-adv-x="989" d="M203.5 407.5q-2.5 18.5 7.5 22.5q141 72 279 158.5t206 140.5q51 41 74 41q8 0 11.5 -6t0.5 -18t-14 -27q-35 -50 -135.5 -137t-190.5 -156q-20 -14 0 -29q81 -67 122 -101t108.5 -99t93.5 -105q5 -8 8.5 -16t5 -17t-3 -14.5t-16.5 -5.5q-16 0 -47 24q-84 66 -228 160.5 t-262 157.5q-17 8 -19.5 26.5z" />
<glyph unicode="&#x203a;" horiz-adv-x="989" d="M206 45.5q-3 6.5 0.5 19t14.5 27.5q36 50 141.5 141t184.5 148q20 14 0 29q-80 65 -122.5 101t-109.5 101t-92 105q-5 8 -8.5 16t-5 17t3 14.5t16.5 5.5q15 0 47 -25q79 -65 223 -159.5t265 -159.5q17 -8 19.5 -26.5t-7.5 -22.5q-140 -72 -277 -157.5t-208 -139.5 q-51 -41 -74 -41q-8 0 -11 6.5z" />
<glyph unicode="&#x205f;" horiz-adv-x="430" />
<glyph unicode="&#x20ac;" d="M8 539q0 13 14.5 28t24.5 17h64q14 0 14 14q0 10 1 56t1 55q0 12 -12 12l-52 2q-7 0 -12.5 4.5t-5.5 7.5q0 14 13 28.5t24 14.5h43q3 0 8.5 7t5.5 10q5 43 20.5 97.5t54 128t91.5 132t142.5 100t197.5 41.5q84 0 143 -20q87 -28 121 -33q8 0 12.5 -24.5t4.5 -45.5v-129 q0 -18 -4.5 -31t-9.5 -17.5t-9 -4.5q-23 0 -35 43q-16 50 -31.5 81t-45.5 61q-17 20 -64 43.5t-94 23.5q-134 0 -214 -118.5t-108 -325.5q-1 -6 2.5 -11.5t8.5 -5.5l417 8q4 0 8.5 -8.5t4.5 -13.5q0 -20 -11.5 -36.5t-25.5 -16.5l-400 6q-2 0 -7 -4.5t-5 -9.5q-1 -20 -1 -58 t1 -49q2 -12 14 -12l381 4q6 0 11.5 -18.5t5.5 -26.5q0 -13 -12.5 -23t-20.5 -10l-365 6q-6 0 -6 -14q7 -116 47 -216.5t116.5 -167.5t174.5 -67q73 0 130 46.5t91 121.5q28 60 45 60q10 0 16.5 -13.5t6.5 -29.5q0 -33 -13 -80t-28 -74q-6 -10 -10.5 -16.5t-10 -11.5 t-9.5 -7.5t-14.5 -8.5t-18.5 -11q-28 -16 -88 -29.5t-136 -13.5q-193 0 -322.5 140t-158.5 378q-1 10 -4 12t-14 4l-80 2q-14 0 -18.5 3.5t-4.5 13.5z" />
<glyph unicode="&#x2122;" horiz-adv-x="792" d="M27 1159q0 1 2 36.5t2 43.5q2 3 9.5 5t12.5 -1q13 -10 37 -12h184q38 0 62 12q4 1 10 -1t6 -5q-8 -28 -8 -90q0 -11 -11 -11.5t-16 9.5q-2 3 -6.5 19.5t-11.5 25t-18 8.5h-58v-176q0 -22 0.5 -29.5t4.5 -15t14 -10.5q7 -2 15.5 -5t10.5 -4q12 -4 10.5 -16t-12.5 -12 q-9 0 -38.5 1t-39.5 1q-22 0 -42.5 -1t-34.5 -1q-11 0 -14.5 10t9.5 16q4 2 25 9q27 12 27 63v129q0 41 -11 41h-45q-16 0 -24 -5.5t-14.5 -20t-8.5 -17.5q-8 -16 -14 -16q-14 0 -14 20zM369 940q-4 10 10 16q33 15 40 25t9 25q18 123 18 149q3 16 -6 31q-3 4 -5 6.5t-5 3.5 t-5 1.5l-8 2t-11 2.5q-26 7 -25 19q3 13 22 12q29 -2 68 -2h18q10 0 23 -29q24 -60 82 -155q5 -10 10 -3q72 141 86 177q3 10 15 10q3 0 43 1t45 1q16 0 18.5 -9.5t-14.5 -17.5q-5 -2 -15 -3t-14 -3q-11 -5 -14 -29q0 -55 4 -149q1 -31 3.5 -38.5t8.5 -12.5q5 -2 14.5 -5 t14.5 -5q20 -9 14.5 -19t-20.5 -10h-64q-9 0 -27 -1t-26 -1q-14 0 -20.5 3.5t-3.5 9.5t18 13q17 7 20.5 15t5.5 37q2 34 2 147q0 14 -6 2q-38 -73 -80 -174q-19 -48 -20 -49q-10 -10 -19 0q-4 8 -16 37q-50 110 -76 157q-1 4 -2.5 5t-3 -0.5t-2.5 -4.5q0 -26 -2 -65t-2 -57 q0 -11 1.5 -17t9.5 -11.5t14 -7.5t26 -9q17 -6 12.5 -18.5t-20.5 -12.5q-14 0 -36.5 1t-35.5 1t-30.5 -1t-22.5 -1q-14 0 -18 10z" />
<glyph unicode="&#x25fc;" horiz-adv-x="808" d="M0 0v809h809v-809h-809z" />
</font>
</defs>
</svg>
