<?xml version="1.0" standalone="no"?>
<!DOCTYPE svg PUBLIC "-//W3C//DTD SVG 1.1//EN" "http://www.w3.org/Graphics/SVG/1.1/DTD/svg11.dtd" >
<svg xmlns="http://www.w3.org/2000/svg">
<metadata></metadata>
<defs>
<font id="IMFELLGreatPrimerItalic" horiz-adv-x="1976" >
<font-face units-per-em="2048" ascent="1638" descent="-410" />
<missing-glyph horiz-adv-x="430" />
<glyph unicode=" "  horiz-adv-x="430" />
<glyph unicode="&#x09;" horiz-adv-x="430" />
<glyph unicode="&#xa0;" horiz-adv-x="430" />
<glyph unicode="!" horiz-adv-x="497" d="M104 82v8q0 27 12 64q14 45 60 51q17 2 17 6l28 16h23q34 0 63 -25q51 -45 51 -76.5t-8 -57t-22 -46.5q-33 -49 -89 -49t-88 23.5t-47 85.5zM346 500.5q0 26.5 12.5 45.5t19.5 37.5t13 35t15 35.5q15 34 22 61l35 108q2 8 15.5 37t26.5 61.5t25.5 62.5t15.5 36q7 14 7 29 q10 41 21.5 68.5t23.5 59.5t16 59.5t11.5 47.5t14.5 45t15.5 51.5t15.5 47t9 25.5t10 21.5t17.5 34t17.5 34t11 21.5t7.5 19t9.5 29q14 43 20.5 51t21 11t22.5 7h10q4 -4 25 -10q61 -17 67.5 -45.5t11.5 -46.5t5 -23v-16q0 -4 -2 -4l-19 -72q0 -4 -12 -18q-15 -18 -17.5 -39 t-6.5 -25q-10 -47 -35 -83.5t-45 -65t-19.5 -39t-5.5 -21t-7 -14.5q0 -1 -13 -20q-37 -91 -46.5 -106t-21.5 -25.5t-18 -17.5t-7.5 -21.5t-8.5 -34.5q-27 -75 -56 -117q-51 -75 -51 -102l-35 -74q-8 -18 -17.5 -51t-22.5 -65.5t-29.5 -57.5t-37 -25t-39 16t-18.5 42.5z" />
<glyph unicode="&#x22;" horiz-adv-x="1001" d="M449 944q0 28 25.5 50t39.5 33t20.5 17.5t21.5 20.5t31.5 31.5t30 32t17.5 18.5q4 2 14 12l23 23q12 12 22.5 22t13.5 14q15 17 22 24t16.5 34t9.5 51v8q-24 71 -72 84l-27 -2q-10 0 -12 1t-19.5 18.5t-29.5 33.5q-18 23 -18 62q0 131 131 131l12 -2h8q66 -13 72 -21 q18 -18 29 -28q31 -30 38.5 -38.5t15 -26t12.5 -37.5q13 -54 13 -78.5t-13 -60.5t-15 -73q-9 -34 -38.5 -84.5t-33.5 -55.5t-16.5 -19.5t-30 -31.5t-34.5 -34.5t-29.5 -28.5t-42 -33t-63.5 -42.5t-66.5 -34.5t-55 -14t-22.5 24zM870 948q0 12 11.5 27.5t26 28t28.5 23.5 t20 17.5t21.5 20.5t32 31.5t30 32t17.5 18.5q4 2 14 12l39 39t19 20q9 10 19.5 20.5t20 37.5t9.5 51v8q-24 71 -72 84l-27 -2q-10 0 -12 1t-19.5 18.5t-29.5 33.5q-19 24 -19 62q0 131 131 131l13 -2h8q66 -13 72 -21q18 -18 29 -28q31 -30 38.5 -38.5t15 -26t12.5 -37.5 q13 -54 13 -78.5t-13 -60.5t-15 -73q-6 -26 -37 -80.5t-35 -59.5t-16.5 -19.5t-30 -31.5t-34.5 -34.5t-29.5 -28.5t-42 -33t-63.5 -43q-80 -48 -120 -48q-12 0 -18.5 8t-6.5 20z" />
<glyph unicode="#" horiz-adv-x="1601" d="M137 231q0 51 31 74t78 33h8q36 0 72 -62q29 -52 34 -92q4 -10 5.5 -22t3.5 -24q5 -29 28 -36l60 -8h6q13 0 44 14q55 26 64 39l27 72q2 4 13.5 19.5t15.5 17.5v29q0 33 -9.5 51t-15.5 34.5t-13 39.5q-6 19 -12 29.5t-6 15.5q-4 4 -16 13t-24.5 19.5t-24.5 18.5 q-21 14 -26 22t-17 23.5t-27 30.5q-37 40 -48 57t-17 48.5t-12.5 51t-14.5 38t-8 22.5v6q0 82 47 146.5t83.5 97t59.5 41t45.5 15.5t39 15t16.5 25v16q-20 31 -41 57.5t-36 55.5q-34 66 -34 108.5t9.5 59t18.5 36t15 32t13 21.5q17 25 26.5 36.5t17 24t11.5 14.5t26.5 8 t26.5 8l63 35q59 35 128 42t138 7t135 -21.5t119.5 -41t98.5 -43t88 -23.5q82 0 143 45q27 18 39.5 41t30.5 33q43 24 68 24h18q45 0 71.5 -39t26.5 -78t-14 -57t-33.5 -29.5t-42 -21.5t-37 -25.5t-24.5 -51.5t-17.5 -49t-11.5 -19.5t-9 -14.5t-8 -15t-6.5 -21.5t-6.5 -30 t-5 -28.5t-4 -17l-35 -72q-2 -2 -2 -8v-10q0 -16 6.5 -21.5t26.5 -5.5h4l121 16q29 0 49.5 -8t20.5 -33.5t-11.5 -40t-29.5 -23.5q-38 -20 -72 -20h-4l-29 9q0 4 -18 4h-45t-25.5 -3t-24 -20.5t-21.5 -22.5t-7 -19.5t-8 -32t-8.5 -32t-6.5 -20.5q-15 -46 -28 -67 q-16 -45 -28.5 -88t-33.5 -84q0 -7 -16 -39l-10 -27q0 -4 -4.5 -21.5t-8.5 -37.5q-9 -49 -14 -58l-43 -125v-8l2 -39l16 -2q27 0 76 41t68.5 62.5t32.5 35.5q14 14 28.5 33t31.5 35q41 39 81 39q0 -87 -91 -174q-26 -25 -50 -51q-63 -77 -214 -187q-14 -10 -18 -14 q-76 -61 -174 -72q-23 0 -44 18q-38 31 -38 54v6q0 2 2 4l8 19q4 6 11.5 26.5t7.5 26.5q34 126 129 336l6 26q29 102 70 197.5t65 200.5q0 14 -16.5 25.5t-26.5 11.5h-164q-23 0 -25.5 15t-2.5 32q0 59 82 59q17 0 28 -8h99l20 8q4 2 26.5 5t26.5 5q4 8 9 15.5t9.5 15.5 t8.5 15q16 28 17 34t4 28.5t13.5 55.5t39 91.5t28.5 121.5l-4 21q0 10 -35.5 19t-55 11t-28.5 4l-53 19q-4 2 -19.5 3t-33.5 3q-38 4 -53 4l-35 6q-15 10 -60 10q-4 4 -29.5 7.5t-51 5.5t-67.5 -15.5t-64.5 -24.5t-41 -11.5t-40 -15.5t-64.5 -46t-72 -70q-23 -45 -25.5 -88 t-2.5 -90v-26q27 -41 133 -66q112 -28 112 -125q0 -35 -29.5 -63.5t-62.5 -28.5t-55.5 17.5t-41.5 38t-41.5 38t-39.5 17.5t-37 -4l-18 2q-28 0 -58 -11q-30 -36 -45 -98v-6q0 -21 45 -115q2 -2 10.5 -9t17.5 -15q26 -25 32 -27q0 -4 6 -6t21.5 -13t37 -42t40 -67 t33.5 -70.5t32 -63.5q14 -54 14 -94q0 -84 -12 -105.5t-14 -27.5q-37 -88 -114 -153t-177 -65h-25q-14 0 -16 5q-4 0 -27.5 6t-30.5 10q-33 6 -73.5 13t-73.5 36t-54.5 59.5t-21.5 81.5z" />
<glyph unicode="$" horiz-adv-x="3768" d="M266 629q0 146 27 213q31 94 144 171q106 72 212 72q63 0 152 -24q65 -21 129 -96q0 -9 8 -17q0 -7 5 -36t7 -47.5t4 -28.5v-7q0 -41 -26.5 -78.5t-49.5 -54.5q-25 -18 -83 -18l-39 2q-24 0 -48 47q-22 41 -22 64.5t5 36t13 21.5q17 21 17 43.5t-13.5 34t-33.5 18.5 q-30 11 -74 11h-31q-9 0 -33 -11t-32 -12t-14 -3q-25 -9 -50 -39q-33 -37 -40 -43t-13 -25.5t-9 -27.5q-16 -43 -16 -70l-12 -45v-4q0 -93 88 -211q16 -23 38 -55.5t48 -49.5q6 -2 34 -11t44.5 -16t39 -22.5t50.5 -28.5q36 -16 133 -32q37 -6 72 -15.5t76 -9.5h61 q88 0 172 6.5t170 36.5h8q120 16 234 103q2 2 10 8t16 13q15 12 22 18t28 16q41 19 78 51q142 123 220 246q19 29 49.5 78t94.5 131l4 12q0 12 26.5 50t43.5 67q23 31 29 64.5t10 54t9 24.5t23.5 39t56.5 100.5t54 137.5l-4 24l-55 -8l-101 8h-12q-70 -6 -139.5 -10 t-113.5 -16t-67.5 -28.5t-45.5 -38.5q-48 -51 -48 -91.5t21.5 -63t48.5 -41t48.5 -40t21.5 -54.5v-2q-12 -53 -34 -74.5t-75 -21.5h-31q-2 0 -11 5t-21 10q-23 10 -35 22q-72 47 -72 151q0 70 33 129.5t64 102.5q49 69 112 115q12 6 18 18q43 54 102 71q21 5 48 13t49.5 15 t48.5 12h232l53 8h70l24 -8l70 8h12q82 0 82 -107v-37q0 -62 -16 -96v-129q-9 -18 -11 -70.5t-1 -117t-6 -117.5t-15 -88t-10 -74v-80q0 -48 -11 -90l11 -217q0 -10 8 -18.5t18 -8.5h4q2 0 3 2.5t14.5 15.5t19.5 17q41 49 87 108.5t76 90.5l68 67q37 37 78 79t78 78t51 52 l17 25l260 260q64 98 104 135q2 4 20.5 18.5t31 24.5t28 34t31.5 46q4 2 19 17q16 16 24 43q2 2 9 11t16.5 19t17.5 18.5t18 22.5q38 56 95 66q2 2 36.5 4t53 3t25.5 2t32 1h61q76 0 76 -35q0 -46 -48 -55q-21 -4 -43.5 -5t-32.5 -7q-23 -13 -23 -21q-29 -49 -44.5 -104.5 t-31.5 -108.5q-4 -4 -10 -21.5t-6 -21.5l-29 -53l-16 -68q-10 -35 -26.5 -69.5t-25.5 -69.5l-8 -68q0 -8 -18 -26l-17 -8l-8 -9q-2 -6 -5 -21t-8 -31.5t-8 -31t-5 -19.5t-13.5 -25.5t-12.5 -24.5t-4 -20.5t-6 -34t-5 -33t-6 -37.5q-5 -23 -32 -76q-34 -69 -35 -75 q-3 -15 -7 -19t-13.5 -17.5t-12.5 -17.5t-5 -25.5t-4 -25.5l-103 -258v-25q11 -22 17 -22h215q25 0 43 -55q4 -13 4 -19q0 -55 -37 -61h-112l-130 18h-258q-46 0 -61 10h-10q-20 0 -39 -10t-35 -10t-34.5 2t-36.5 7q-44 13 -44 40v4q16 23 36 33t44 20l135 6q29 7 35 19 q63 110 89 180t36 95.5t18.5 48t11.5 26.5t9 17.5t14 27.5q15 28 23 45q47 119 83 243t58 186q32 87 42 106q16 29 23 63q11 53 17 53v7q0 14 -17 14t-24.5 -8t-13.5 -14.5t-13.5 -12.5t-14.5 -13t-14 -13.5t-8 -9.5t-12.5 -9t-11.5 -8q-21 -35 -60.5 -68t-42.5 -35 t-6.5 -13t-7.5 -20t-16 -16.5t-19.5 -15.5t-20.5 -25.5t-18 -21.5t-18.5 -18.5t-27.5 -29.5q-37 -40 -45 -44q-23 -13 -27 -18t-14.5 -23.5t-14.5 -22.5t-16 -21.5t-19.5 -25.5t-36 -36.5t-60.5 -61.5t-59.5 -62.5t-39.5 -40.5q-52 -30 -121 -104q-2 0 -4 -7t-5 -11.5 t-9.5 -14.5t-8.5 -12l-34 -23q-98 -93 -146 -164l-11 -22q-9 -18 -13 -23q-22 -21 -40.5 -41t-25 -35.5t-12.5 -27.5q-12 -25 -53.5 -25t-46.5 30t-5 52v47l10 19q28 73 30.5 163.5t2.5 117.5t3 72.5t5 103t5.5 121t5.5 120.5q5 136 8 172q18 36 18 91t-6 98t-4 94l-8 10 q-2 2 -15.5 -5t-19.5 -13q0 -4 -13.5 -22.5t-22.5 -32t-12 -35t-22 -29.5q0 -64 -4 -73q-15 -33 -18 -50q-12 -25 -18.5 -50.5t-23.5 -68.5q-51 -132 -106 -217q-4 0 -6 -7t-8 -21.5t-24.5 -36t-32.5 -45.5l-25 -60q-19 -38 -43 -64q-80 -84 -119 -137l-18 -18 q-68 -48 -131.5 -99t-100.5 -69l-81 -41q-4 -2 -7 -4l-59 -8q-27 -8 -48.5 -25.5t-36.5 -23.5t-32.5 -11.5t-37 -11.5t-40 -13t-46.5 -16q-39 -14 -156 -14l-154 -6h-16q-19 0 -29 10l-92 17q-6 2 -28.5 8t-49 14t-51.5 16.5t-55.5 18.5t-70.5 46t-61.5 52.5t-29.5 21.5 t-16.5 11t-15.5 11t-9 5q-10 10 -35 48t-25 40q-5 5 -15.5 27.5t-34.5 57.5q-46 68 -46 225z" />
<glyph unicode="&#x26;" horiz-adv-x="2703" d="M344 569l2 76v105l16 61q4 4 6 29q4 34 33 90.5t33 62.5l37 37l10 19q45 76 160 163l21 9q29 10 54 25.5t58 31.5t76 25.5t84 23.5h153q10 0 64 -27h27l34 -8h13q19 0 50.5 34t37.5 41t20.5 21.5t28.5 30t26.5 27.5t14.5 16t8 15.5t8 15.5l230 221q45 56 45 84t-7.5 37.5 t-17.5 13.5t-23.5 8.5t-22.5 10.5q-27 18 -48 39v4q0 33 79 71q17 9 48.5 27.5t84 23.5t111.5 15h11l135 -6q4 -2 13 -13.5t14 -15.5v-12q0 -19 -11 -33q-76 -112 -252 -260q-8 -8 -18 -8q-2 -4 -20.5 -22.5t-22.5 -23.5t-18.5 -23.5t-19.5 -23.5t-33.5 -33t-60.5 -59.5 t-60.5 -59.5t-32.5 -33t-12.5 -15t-17.5 -21q-15 -17 -28 -30q-2 -2 -4 -5t-5 -5t-19.5 -13.5t-35.5 -24.5q-46 -31 -52 -34q-2 -4 -16.5 -23.5t-17.5 -21.5q-30 -20 -48 -29l-27 -6v-10q-13 -50 -43 -90q-12 -16 -22.5 -21.5t-16.5 -23.5l-172 -172q-12 -31 -35.5 -44.5 t-39.5 -20.5q-43 -18 -49.5 -37t-18.5 -25q-23 -8 -39.5 -13.5t-24.5 -31.5l-172 -173q-35 -10 -62.5 -34.5t-27.5 -65.5v-8q29 -87 29 -90q0 -2 15 -19.5t34 -38.5q83 -95 151 -131q0 -6 26 -12t28 -6t8 -4t6 -6q12 0 23.5 -10.5t29 -17.5t36 -16.5t34.5 -16.5t25 -11h45 q2 0 12 -4l22 -9q13 -5 23 -9.5t13 -4.5t14.5 -1t25.5 -3t28.5 -3t20.5 -3l60 2q20 0 24 -2l56 -8h61l45 10l21 -2q212 15 331 72q4 4 22.5 15t22.5 14.5t29 9.5t27 8l24 18q6 2 19.5 9.5t28 14.5t27.5 13t19 10t24 22l38 38q49 49 61 65q33 28 66 111q55 137 55 336 q0 38 -24 99q-35 85 -76 141q0 2 -9.5 4t-36.5 24q-93 72 -206 96q-20 6 -37.5 13.5t-41.5 7.5t-42 -11q-31 -20 -57 -20l-31 2q-76 -18 -174 -136q-41 -49 -43 -76t-2 -51t12 -55.5t32 -59.5q50 -66 105 -66q32 0 62 48q12 19 24.5 39.5t27.5 32.5q20 15 62.5 15t59 -10 t29.5 -27q28 -37 28 -77t-7 -69q-7 -31 -65 -60q-47 -22 -65 -31q-26 -13 -42 -13h-32q-12 0 -14 1t-18.5 6.5t-36 10.5t-38 10t-26.5 7q-2 4 -22.5 13.5t-28.5 17.5q-8 0 -11 6t-11.5 19.5t-16.5 25.5l-15 23q-35 52 -45 96.5t-10 84.5t7.5 58.5t14.5 51t13 78.5t37 87 t67 65.5t61.5 40t37.5 22.5l24 14l23 14q11 7 28 11.5t35 10.5q42 13 72.5 21t115 8t185.5 -45q4 0 19.5 -10t17.5 -14.5t14 -7.5q31 -9 31 -13q4 -2 22.5 -18.5t34.5 -26.5q86 -52 115 -82q11 -5 39 -36q45 -47 56.5 -57.5t32 -28t43.5 -36.5q54 -45 69 -53q24 -14 88 -14 t98.5 46t34.5 103v31q-2 0 -2 2t-2 2v2l-4 4q-20 12 -42 24.5t-38 28.5q-39 37 -39 86t38 78t71 29q63 0 85 -12t38 -38t25 -57q16 -54 16 -91v-52q0 -14 -3 -14q0 -17 -11 -47.5t-22 -61.5q-34 -94 -110 -143q-31 -20 -63 -21q-33 0 -64 -16h-113q-46 0 -57 4 q-18 6 -28.5 16.5t-16.5 12.5t-22.5 9t-41 23.5t-55.5 24.5l-32 -6l-3 -61l-2 -60l13 -26v-84q0 -62 -7.5 -77.5t-14.5 -29.5l-16 -32q-27 -57 -29.5 -68t-5.5 -21q-9 -30 -9 -33l-39 -51q0 -35 -50 -98q-12 -16 -22 -32.5t-27.5 -39t-45 -44t-60.5 -48.5t-66.5 -56.5 t-52 -41.5t-27 -16.5t-17.5 -9.5q-23 -13 -26 -14t-11.5 -7t-17.5 -14.5t-17.5 -14.5t-18.5 -13t-38.5 -10.5t-51.5 -13.5l-61 -24q-11 -6 -41 -12q-59 -14 -62 -16q-12 -9 -20 -9t-23.5 -7.5t-19.5 -11.5h-19q-8 0 -23.5 -1t-31.5 -2t-41 -3q-12 -12 -31.5 -12t-31.5 12 h-11q-221 23 -351 72t-213 102t-132 110q-133 157 -144 229q-6 42 -27.5 87t-29.5 97.5t-8 121.5zM455 676q0 -25 7 -49.5t38 -24.5h10q4 0 6 2q53 27 84 69t59.5 67.5t51 34.5t33 19.5t16.5 22.5t19.5 28.5t40 43t52.5 59.5v2q0 4 27 22.5t47 35.5q52 44 60 67q2 0 2 11v18 q0 67 -104 71q-25 1 -49 1t-56.5 -6.5t-66.5 -16.5q-117 -34 -130 -54q-38 -57 -54.5 -85.5t-28 -46t-11.5 -19.5q0 -5 -8 -25q-14 -34 -18.5 -51.5t-11.5 -40t-7 -26.5l-2 -23l2 -59q-8 -16 -8 -37v-10z" />
<glyph unicode="'" horiz-adv-x="579" d="M449 944q0 28 25.5 50t39.5 33t20.5 17.5t21.5 20.5t31.5 31.5t30 32t17.5 18.5q4 2 14 12l23 23q12 12 22.5 22t13.5 14q15 17 22 24t16.5 34t9.5 51v8q-24 71 -72 84l-27 -2q-10 0 -12 1t-19.5 18.5t-29.5 33.5q-18 23 -18 62q0 131 131 131l12 -2h8q66 -13 72 -21 q18 -18 29 -28q31 -30 38.5 -38.5t15 -26t12.5 -37.5q13 -54 13 -78.5t-13 -60.5t-15 -73q-9 -34 -38.5 -84.5t-33.5 -55.5t-16.5 -19.5t-30 -31.5t-34.5 -34.5t-29.5 -28.5t-42 -33t-63.5 -42.5t-66.5 -34.5t-55 -14t-22.5 24z" />
<glyph unicode="(" horiz-adv-x="790" d="M389 619q0 234 29 430q8 18 9 42.5t4 48.5q7 61 38 81q23 59 44.5 117.5t40.5 105.5t41.5 76.5t45.5 58.5q61 104 96 152q77 104 146 104q16 0 31.5 -27.5t15.5 -52.5t-15.5 -47t-28.5 -41.5t-19.5 -33t-12.5 -25.5q-10 -18 -43 -35q-28 -60 -65 -116t-47.5 -83.5 t-19.5 -56.5q-18 -58 -27 -94t-20 -57t-22 -44l-6 -55q-2 0 -5 -8t-10 -26.5t-11.5 -54.5t-18.5 -73l-16 -241v-13l8 -41l8 -92v-53l2 -51l6 -31q24 -104 37 -215q31 -41 38 -80t22.5 -86t40 -81t45.5 -75q0 -4 7 -24.5t11 -22.5q0 -4 3 -12t6 -18.5t6 -22.5t5 -24 q3 -11 16 -23t15 -15t9 -18q12 -24 20 -24q10 -16 27.5 -37t22.5 -31t7 -21.5t4 -15.5q4 -2 15 -11q14 -11 14 -20v-6q0 -41 -26.5 -59.5t-55.5 -18.5t-51.5 24t-42 54.5t-34.5 62t-32 59.5t-44 63.5t-48 74.5q0 4 -5 16.5t-10 27t-11.5 28.5t-20 51.5t-38.5 97.5t-44.5 113 t-36 95t-19.5 66.5t-5 36t-4 24.5q-4 28 -6 62.5t-8.5 94.5t-6.5 146z" />
<glyph unicode=")" horiz-adv-x="567" d="M23 1739q0 37 22.5 59.5t52 22.5t64.5 -35t70.5 -89.5t72.5 -121t67 -129.5q39 -78 83 -186q8 -23 22.5 -46.5t18.5 -38t6 -22.5t3 -17.5t3 -16.5t3 -10t12.5 -26.5t21.5 -48t17 -72t10 -94.5t4.5 -96t5.5 -96l8 -76v-29q0 -18 -7 -50.5t-8.5 -90t-11.5 -115.5l-26 -172 q-6 -33 -16.5 -55t-22.5 -53l-9 -45q-11 -44 -40 -129.5t-35 -104.5q-16 -50 -66 -114l-31 -31q0 -17 -5 -23q-29 -34 -32.5 -47.5t-6.5 -18.5q-29 -48 -35 -52q-10 -16 -20.5 -23.5t-14.5 -24.5q-8 -6 -35 -19q-39 -19 -53 -19q-34 0 -49 12q-6 10 -19.5 29.5t-14.5 21.5 t-1 15v20q0 34 14 49.5t25.5 27t25.5 27.5l6 19q30 40 37.5 46.5t27 6.5t26.5 16q23 55 44 110.5t46 106.5q4 4 15 22.5t11 20.5l23 76q0 2 6 16.5t10 18.5q7 33 16 64q19 63 19 70t3 37t6 63.5t5 62.5t3 35q5 32 10 37v37l-9 71l9 90v19q-9 9 -9 26v101q9 15 9 38.5 t-10.5 43.5t-21.5 68q-37 161 -40 255q-12 23 -21 27q0 4 -15 23.5t-18 22.5t-5.5 13.5t-6.5 17.5t-20 40.5t-34.5 70.5t-35 71t-22.5 43q-30 45 -42 54.5t-19 17t-23 23.5q-53 67 -53 152z" />
<glyph unicode="*" horiz-adv-x="1216" d="M557 1029.5q0 21.5 11.5 41t28.5 34.5t37 27q34 21 46 33q27 16 62.5 19.5t54 6.5t32 10t25.5 17q33 26 33 38.5t-14.5 24t-34 19t-39 12.5t-29.5 9q-50 20 -57.5 21t-22 13.5t-34 27t-52.5 41t-33 72.5t54 46q23 0 41 -11t36 -19.5t36 -16.5q24 -11 46.5 -37t33.5 -38 q29 -34 34 -36q14 -16 35.5 -36.5t48.5 -20.5q16 0 16 31l-2 26v35q-14 28 -14 96t3 96.5t13 56.5q22 67 72 67q41 0 57 -72q4 -18 4 -68.5t-20 -138.5q0 -19 -11.5 -44t-20.5 -42q-13 -26 -13 -37q0 -23 8 -33q41 0 70.5 27t46 45.5t46.5 45.5q92 81 191 81q27 0 39 -22 v-27q0 -57 -37.5 -86t-85.5 -53q-8 0 -20 -6q-36 0 -48.5 -9.5t-19 -12.5t-30 -9t-48.5 -14q-67 -23 -67 -39t13.5 -20.5t27.5 -8.5l63 -21q40 -20 54 -20q86 -32 114 -48q64 -38 64 -92.5t-23 -68.5l-30 -2q-47 0 -79 26.5t-51 41.5q-22 17 -55 34q-18 14 -31.5 34 t-29.5 37q-38 42 -76 42l-4 -84q6 -12 6 -29l6 -36v-99q8 -24 8 -57v-4l2 -8q0 -27 -17 -53.5t-46 -26.5q-70 0 -78 98q-2 26 -2 49v8q0 25 6 37l8 78l29 86v43q-8 8 -31.5 8t-44 -20.5t-53.5 -51t-87 -72.5t-126 -42q-18 0 -31.5 14.5t-13.5 36z" />
<glyph unicode="+" horiz-adv-x="1298" d="M309 543l10 51q25 25 70.5 24.5t63.5 -4.5h161q79 0 101 17q12 15 12 76q-4 50 -4 99.5t-10 129.5q0 59 18 77.5t55 18.5h35q59 0 63 -32q1 -15 6 -35.5t5 -51.5l-2 -45v-34l-2 -60l6 -61v-60q0 -35 6 -35l152 -2l211 5q47 0 47 -29l2 -39q0 -40 -19.5 -62t-45 -25 t-43 -3t-181.5 8l-45 -2l-84 -8q-8 -16 -8 -64l2 -108l4 -88l-2 -33v-27l4 -55q0 -18 -8 -31q-16 -10 -45 -10q-72 0 -92 10q-15 24 -15 76v53l-2 90v23q0 10 2 20v101q0 10 -15 25t-42 16l-66 -2l-39 4l-30 -2l-96 2l-72 -4q-38 0 -49 18q-19 29 -19 68z" />
<glyph unicode="," horiz-adv-x="589" d="M-6 -389q39 47 84 84t90 73q109 85 156 177q4 4 6 10t14 27v16q0 49 -50 59q-20 4 -44.5 6.5t-45.5 12.5q-48 24 -48 110v29q6 5 34 53q36 45 106 45t115.5 -33.5t58.5 -64t21.5 -48t12.5 -30.5v-14l-2 -57q0 -22 -5 -58.5t-7 -39.5q-5 -11 -25 -36q-20 -31 -32.5 -56.5 t-25 -42.5t-20.5 -27.5t-17 -23.5q-25 -34 -32 -44l-21 -21q-31 -25 -60.5 -50t-60.5 -45q-76 -46 -145 -46h-41q-16 6 -16 29v6z" />
<glyph unicode="-" horiz-adv-x="722" d="M231 460q0 78 56 105q4 4 23.5 7t21.5 6l39 8q84 -2 163.5 4t163.5 6h62q10 -4 26.5 -17.5t16.5 -28.5t-10.5 -29.5t-18.5 -28.5q-16 -18 -33.5 -40t-38 -26t-42 -8t-45 -8t-43 -7.5t-23.5 -3.5h-283l-30 25q-5 10 -5 36z" />
<glyph unicode="." horiz-adv-x="522" d="M168 148.5q0 51.5 32 85.5q58 63 97 63h12q24 0 63.5 -23.5t43.5 -29.5q22 -44 22 -87.5t-6 -73.5q-7 -35 -62 -61q-12 -6 -14 -6h-34q-59 0 -106.5 40.5t-47.5 92z" />
<glyph unicode="/" horiz-adv-x="1116" d="M223 -446q0 10 3 16t4 12t7.5 17t14.5 26t24 21l211 508q4 26 20.5 66t18.5 47q4 15 19.5 50t21.5 43q21 21 28 41q9 25 9 54q0 4 6 16t9.5 23.5t9.5 17.5v16l41 103l12 10l117 281q23 23 40 62.5t25 71t28 82t50.5 109t45.5 93t22.5 52t14.5 36.5q13 38 26 63 q-2 8 -2 15v22q0 30 15 66q28 69 73 69q16 0 37 -9q43 -19 43 -73q0 -20 -7 -39q-4 -4 -16 -20.5t-15 -21.5t-10.5 -21.5t-16.5 -34.5q-21 -41 -26 -55q-5 -15 -23 -57t-27 -63.5t-12 -27.5t-13.5 -28.5t-23.5 -49t-24.5 -48t-12.5 -26t-5 -13.5t-9 -19t-10 -20.5t-20 -45.5 t-35 -98.5t-35.5 -98t-21.5 -49t-12 -32t-12.5 -31.5t-8.5 -20q-25 -21 -34.5 -48.5t-20 -65.5t-21 -59.5t-11.5 -28.5t-5 -14.5t-5 -12.5t-8 -9t-9 -4q-2 -2 -2 -4l-3 -4v-31l-366 -873q-2 -4 -16 -9q-21 -7 -32 -7q-16 0 -28 6q-37 16 -37 56z" />
<glyph unicode="0" horiz-adv-x="1372" d="M266 526v33q0 75 14 110q24 66 52 126q0 6 6 29.5t8 26.5t10.5 9t12.5 6l6 31q42 71 123 135q33 26 58.5 29.5t28.5 5.5t14 9t25 14q35 20 40 20l81 29q27 2 44.5 4l35 4t29.5 2h8q59 -20 118.5 -30.5t120 -35.5t105.5 -64.5t85 -80.5t56.5 -85t23.5 -69.5t10 -37 t15 -40.5q38 -89 38 -204v-15q0 -8 -4 -8q0 -11 -16.5 -53.5t-18.5 -46.5l-4 -21q-10 -51 -43 -93t-60 -77q-16 -16 -28.5 -34.5t-31 -42t-50 -40t-49 -26.5t-32 -22.5t-18.5 -13.5q-42 -11 -59.5 -15t-40.5 -6t-36.5 -6t-29.5 -11.5t-45 -7.5h-41q-127 0 -150 19.5t-56 33 t-59 23.5q-66 26 -97 51q-119 100 -162 246q-6 6 -18 55q-19 52 -19 135zM430 531q0 -57 4 -87q4 -33 23 -84q12 -9 19 -26t11.5 -24t4.5 -9q41 -66 111.5 -112t141.5 -60q0 -2 9 -2l18 2q23 -4 44.5 -11t40.5 -7t57 9t77 24q100 40 125 65q14 27 41 48.5t31 24.5 q18 14 19 17.5t3 14t10 24.5q11 18 26 58q34 89 34 132q0 60 -15.5 116t-17.5 75.5t-6 23.5q-25 65 -128 149q-106 87 -174 87q-38 0 -112 -23h-6q-16 0 -30.5 11.5t-42 11.5t-59 -24.5t-68.5 -32.5q-30 -15 -95 -91q-2 -2 -11 -20t-20.5 -40.5t-21.5 -46.5t-15 -35 q-20 -44 -24 -72.5t-4 -85.5z" />
<glyph unicode="1" horiz-adv-x="978" d="M281 1104q0 43 65 43l78 -4q17 0 27 10h14l145 -10h13l63 10h8q4 0 19.5 -7t23.5 -10t11 -6l65 13h105q13 10 41 10t54.5 -13.5t30 -18.5t3.5 -15v-16q0 -33 -21.5 -40.5t-50.5 -7.5l-31 2q-20 0 -33 -10q-29 -4 -53 -6t-42 -8q-42 -13 -42 -70l10 -174v-12l-10 -100v-33 l-2 -125v-68l2 -88l-18 -162v-20q8 -10 17 -28.5t23 -21.5q21 -4 99 -14h31q33 0 54 -8t38 -53v-8q0 -12 -12.5 -25.5t-22.5 -13.5l-123 4h-373q-29 -10 -92 -10h-51q-39 10 -39 50t28.5 49t61.5 9l39 -2l17 2q36 0 71 35q19 140 19 248l-9 182v86l9 25v4q0 45 -8.5 83 t-10.5 85l2 90l-2 35q-2 37 -40 46t-83 14t-81.5 17.5t-36.5 55.5z" />
<glyph unicode="2" horiz-adv-x="1099" d="M250 763q0 15 5 28.5t8 22.5t7 21.5t8 26.5q10 31 20.5 52.5t45.5 59.5t78 70q97 74 176 74h31l53 -8h61q33 -5 76 -34t59 -45q71 -68 93 -128q0 -44 16 -92v-6l-6 -39q-2 -2 -3 -13.5t-3 -23.5q-4 -24 -4 -35l-29 -53q-4 -23 -4 -39q0 -25 -15.5 -38t-15.5 -15l-8 -25 q-2 -4 -6 -10t-4 -8q-2 -2 -10.5 -8t-17.5 -14q-25 -20 -25 -23q-16 -16 -23.5 -41t-22 -40t-28.5 -27.5t-26 -26.5q-29 -34 -29 -64l-2 -12q0 -25 65 -25q14 0 51 -3t61.5 -4t39.5 -3h14q6 2 22.5 3t33.5 3q36 4 57 4q25 -12 59 -12l27 2h61q25 3 59.5 25t53 32.5 t41.5 10.5q0 -41 -28 -73t-44 -56q-29 -35 -56.5 -76t-62.5 -70l-16 -8h-137q-8 -8 -25 -8h-10l-117 8h-39l-313 -16h-10q-46 0 -62 8l-39 8v10q0 53 59 106q25 21 50.5 41.5t37 35t23.5 27.5t25.5 28.5t26 29t15.5 17.5t5 10t4 8l6 29q21 21 27 31t8 23.5t3 18.5t8 14 t11 11q0 6 4.5 23.5t8.5 36.5q11 52 14 59q0 13 16 45v25q0 59 -8 137q-39 49 -70.5 84t-76.5 35q-69 0 -142 -27q-10 -4 -13 -17.5t-14 -20.5t-30.5 -21.5t-42.5 -27.5q-58 -34 -74 -34t-19 5.5t-3 20.5z" />
<glyph unicode="3" horiz-adv-x="940" d="M295 829v9q0 59 26.5 95t61.5 77q98 111 246 110q102 0 139 -13q60 -21 113 -64.5t62 -84t20 -86.5q6 -12 8 -15t2 -17v-41q0 -14 -1 -18.5t-6 -22t-11.5 -38t-12.5 -37.5q-9 -26 -12.5 -32t-9 -16t-11.5 -21.5t-13 -24.5q-13 -24 -13 -38q-4 -4 -11.5 -14.5t-11.5 -15.5 t-23.5 -25.5t-40.5 -41.5l-42 -42q-19 -19 -27 -25q-25 0 -53 -14l-8 -51q-2 -2 -2 -5v-4q13 -39 22.5 -46t23 -17t31 -29.5t21.5 -19.5q35 -29 76 -51q49 -25 70 -82q24 -63 36 -68l19 -119v-35q0 -4 -2.5 -16t-5.5 -27.5t-6 -32t-9 -42t-31.5 -62.5t-52.5 -76 q-4 0 -10 -11t-9 -13t-27 -13.5t-32 -15.5t-18 -16.5t-45 -30.5q-83 -41 -201 -41q-53 0 -102.5 23.5t-79.5 66.5q-8 4 -8 29q0 10 25.5 10t46 -19.5t41.5 -19.5t47 6t50 13q62 19 76 16q20 10 34.5 22.5t25 20.5t15.5 13t15.5 19.5t21.5 32t20.5 34t13.5 22.5 q2 35 19.5 58.5t17.5 50t-11 34.5q-22 15 -22 35q-4 24 -4 29q-8 8 -11 8q0 6 -14 24.5t-20 27.5q-7 11 -17 16.5t-10 7.5l-100 61q-5 0 -45.5 13.5t-64 20.5t-35 10t-28 5t-33.5 7q-40 11 -40 36q0 24 20.5 35.5t32.5 16t18.5 9.5t26 18t22.5 17t21.5 14.5t22.5 13.5 t14 15.5t13 13.5t22.5 7t22.5 9l43.5 43.5l20.5 20.5t22.5 17t23.5 17q0 2 7 12t25 39q50 85 77 186v27q0 33 -12.5 57t-26 52t-20.5 39t-27.5 24.5t-44.5 22.5q-56 22 -93 22h-2q-41 -10 -77.5 -22.5t-55 -29t-32 -29.5t-27 -27.5t-26.5 -28t-17 -19.5h-8q-29 0 -29 55z " />
<glyph unicode="4" horiz-adv-x="1374" d="M221 90q0 82 115 203q85 89 119 157t51 90q24 34 31 48q4 2 6 8t6 10q6 0 24.5 21.5t20.5 23.5q8 16 8 19q23 33 49.5 61.5t46.5 57.5t32.5 51t23.5 34l57 56q0 27 6 34t20.5 20t23.5 23t22.5 30t28.5 37q37 38 81 38q35 0 35 -45v-20l-10 -27l-10 -119v-622 q0 -30 16 -59q31 -58 61 -58h7q0 4 11 11t14 8t20.5 3t25.5 6q41 6 82 10.5t79 14.5q103 27 150 111q28 48 45 65t25 14.5t16.5 -8.5t8.5 -8q0 -72 -3 -132t-5 -126q-10 -4 -11 -22q0 -57 -11 -75t-38 -18l-49 11h-12l-54 -9l-81 -2l-158 11q-25 0 -47.5 -11.5t-46.5 -15.5 q-2 -6 -4 -24.5t-5 -39.5q-10 -55 -10 -63v-33q0 -97 31 -164q8 -55 8 -172q0 -26 -35 -40q-19 -7 -49 -7q-90 0 -130 33t-40 113q0 134 17 270q12 15 12 51v19l-2 41q-27 18 -52.5 18t-56.5 6l-28 10l-62 -10h-35l-37 -8h-280q-16 0 -32.5 8t-19.5 15.5t-10.5 13.5t-9.5 8z M401 231.5q0 -14.5 21 -14.5l252 -18q16 -19 45 -19h10q77 0 96 53l4 82l-2 47q0 14 -2 35l-6 64l-8 190l-10 35q0 37 -10 62q-4 2 -16.5 2t-29 -16.5t-32 -40t-27.5 -46t-19 -31.5q-30 -36 -49 -47q-16 -20 -31.5 -48.5t-32.5 -52.5t-38.5 -49.5t-37.5 -48.5 q-17 -24 -34.5 -62.5t-30 -50t-12.5 -26z" />
<glyph unicode="5" horiz-adv-x="1058" d="M276 746.5q0 23.5 9.5 30.5t21.5 14.5t25.5 14.5l27 14t24.5 12.5t21.5 17.5t24 23t41 22.5t49.5 34.5l17 24q10 20 26.5 37t22.5 28t13 24.5t14.5 28.5t13.5 28.5t11 19.5t17 6h9q31 0 48 -20.5t30 -27.5q26 -13 49.5 -22t67.5 -28.5t91 -26.5h35q29 0 49 -10h13 q37 0 71.5 13.5t62 13.5t35 -3t7.5 -20q0 -31 -32 -94q-60 -118 -79 -130q-21 -13 -53 -13h-17q-22 11 -262 71l-116 35h-9q-10 -2 -22 -2q-67 0 -88 -43v-14q0 -38 46 -94.5t94 -112t85 -119.5l10 -28q12 -25 25.5 -44.5t18.5 -39t6 -42t12 -38.5v-252q-18 -29 -23.5 -57.5 t-21.5 -59.5q-9 -26 -16 -31.5t-13 -8.5t-16 -15q0 -8 -29 -38t-65.5 -69t-76.5 -72q-89 -72 -190 -98q-15 -10 -29 -10q-46 0 -71 10q-6 6 -6 18.5t14 19.5t20 16q4 2 21 11q23 11 37 18t41.5 31t69.5 73t83 90q10 35 30 64.5t24 62.5q10 36 10 92.5t-1 71t-4 28t-8 27.5 q-20 50 -20 59v11q-27 116 -156 280q-20 28 -96 111q-23 16 -48.5 34.5t-25.5 42z" />
<glyph unicode="6" horiz-adv-x="1212" d="M266 442l19 127l10 82q8 47 26.5 90t27.5 63.5t15.5 32t12.5 23.5q16 32 16 37q55 121 135 214t172 185q4 2 15.5 8.5t13.5 6.5q35 31 65.5 64.5t54 46t33 17.5t19.5 11q27 16 29 16l24 11q6 2 23.5 21.5t20.5 22.5t11.5 6t11.5 4t13 8t15.5 10t20.5 11.5t32.5 16.5 t33 15t18.5 10.5t17.5 8.5t30.5 11q41 16 58.5 22t51.5 19.5t79 13.5t45 -18t-12.5 -32.5t-29 -27t-35 -22.5t-32.5 -19t-42 -25.5t-33 -21t-29.5 -25t-53 -43t-54 -43t-31.5 -23.5q-31 -14 -46 -29q-150 -101 -299 -263q-18 -16 -33.5 -42.5t-31.5 -47.5q12 -27 39 -37 q14 2 28 3h27q172 0 334 -127q4 -4 9 -10.5t8 -8.5t10.5 -14.5t9.5 -14.5q16 -16 25.5 -25t17.5 -17.5t10 -10.5t4 -17.5t4 -19.5q10 -21 21 -26q53 -94 53 -187v-4q-8 -8 -9 -21t-3 -30.5t-4 -37.5q-5 -37 -5 -64q-2 -4 -8 -18.5t-8 -19.5t-8 -21.5t-15 -34.5 q-19 -39 -27.5 -70t-11.5 -35t-11.5 -11t-17.5 -16.5t-16.5 -17.5t-10.5 -10t-10 -13.5t-13 -21.5t-27.5 -18.5t-32 -14.5t-16.5 -11t-14 -11q-21 -19 -23 -19q-10 -10 -55 -10l-35 -6q-4 -2 -14.5 -7.5t-13.5 -5.5h-23q-18 0 -21 5h-8q-12 0 -29.5 1l-35 2t-33 3t-20.5 2 t-16 2t-23.5 5t-22.5 5t-12 4h-35l-29 10q-18 9 -37 9q-11 0 -31 21.5t-22 23.5q-151 120 -172 256l-10 69q-2 2 -2 6q-4 26 -4 29zM494 464q0 -152 38 -228q2 -4 5.5 -8.5t6.5 -25t5 -24.5q14 -28 14 -35q33 -33 37 -40q7 -13 16 -23t10 -14.5t5 -4.5l55 -16 q20 -8 37.5 -18.5t45.5 -10.5q58 0 103 45q86 76 127 183q2 4 10.5 19.5t10.5 19.5l8 69v74l10 117v10l-10 16q-42 155 -90 226q-8 16 -22.5 20t-23.5 18.5t-12 22.5t-19.5 13t-44.5 17q-33 13 -42 13q-66 0 -113 -42t-83 -89q-55 -63 -69.5 -150t-14.5 -154z" />
<glyph unicode="7" horiz-adv-x="1239" d="M215 688v19q13 25 13.5 28.5t21.5 55.5q91 231 172 356q8 12 13 27.5t13 29.5q16 29 45.5 29t36.5 -13.5t7 -31.5l-2 -45q0 -29 14 -39h55q7 -3 71 -11t71 -8t34 2.5t58 5.5q81 8 90 11h35l102 -12h6q25 6 117 12t102 6h17q4 -4 23 -22q22 -21 22 -29v-21q0 -6 -2 -6 l-23 -55q-4 -4 -8 -19q-5 -16 -10.5 -23t-7 -21.5t-5.5 -18.5q-7 -34 -29 -95l-30 -85q-4 -6 -7 -28.5t-5 -27.5q-2 -4 -13.5 -18t-11.5 -18q-23 -41 -28 -88.5t-13 -74.5q-18 -60 -33.5 -90t-17.5 -34l-10 -53q-12 -58 -33 -119q-16 -29 -25.5 -63.5t-15.5 -50t-9 -27 t-6 -23.5t-6.5 -23.5t-5.5 -24t-13 -25.5t-25 -49q-58 -149 -62 -178.5t-6 -40.5t-3 -25q-2 -32 -5.5 -37.5t-16 -19t-20.5 -18.5q-13 -8 -46 -8q-81 0 -81 70q0 37 20.5 71t43 79.5t41 113.5t37.5 123q26 76 77 180q12 29 20.5 58.5t24.5 58.5q2 10 15.5 38t21.5 38 q10 25 16 48.5t11.5 37.5t17.5 20q14 41 21.5 82t15.5 63q15 41 28.5 63t18 53.5t12.5 66.5l4 4q0 4 6 10q-4 14 -35.5 25.5t-45.5 11.5h-70l-82 11h-47q-122 0 -342 -11l-111 -24q-24 -10 -67 -47t-49 -46t-16.5 -23.5t-21.5 -29.5q-28 -37 -46.5 -37t-20.5 8.5t-2 20.5z " />
<glyph unicode="8" horiz-adv-x="1255" d="M266 1239v27q10 45 33 81.5t36 54.5q19 25 19 36q25 55 74 89t98 64l29 19q36 0 46 4q24 10 65 22h16l35 4l8 -2l37 7h10l19 2q116 0 198 -25t96.5 -34t28.5 -24.5t18 -17.5q27 -16 27 -20q119 -123 119 -262t-45 -215q0 -4 -16.5 -21.5t-24.5 -27t-14 -15.5 q-22 -23 -47 -46.5t-58 -35.5t-59 -43v-6q0 -44 106 -98q84 -43 131 -134q40 -78 51 -122.5t11 -48.5q4 0 4 -35v-94q0 -37 -10.5 -54.5t-13.5 -23.5t-8 -18.5t-11 -26t-10 -23.5t-6.5 -13t-4.5 -17.5t-3 -16.5t-8 -12.5t-17.5 -23.5t-21.5 -27q-20 -24 -32 -32.5t-21 -15 t-18 -11.5t-14.5 -12t-11.5 -13q-15 -17 -21 -17q0 -4 -11 -6t-13 -6q-134 -51 -316 -51h-28q-19 0 -19 4q-50 0 -53 6q-4 0 -13 7t-33 17q-88 37 -127.5 62.5t-63 56.5t-42.5 67q-44 81 -57 134l-4 86q0 101 12 135q29 72 77 123t108 96q16 16 47 25.5t51 19.5v4 q0 26 -88 57q-20 7 -28.5 13t-27.5 25l-42 42q-21 21 -40.5 39.5t-35.5 36.5q-17 19 -55 109zM487 1206.5q0 -12.5 7 -12.5q0 -15 18 -65.5t47 -86.5t63.5 -63t76.5 -51.5t68 -44t28 -19.5l12 -4q4 -4 21.5 -5t25.5 -5h6q8 4 25.5 9t28.5 12t20.5 17.5t14.5 23t8.5 25.5 t9.5 22.5t11 17.5t11 17.5t11.5 17.5t5.5 10q30 70 30 211q0 120 -49 178q-2 2 -11 12.5t-22 22.5q-33 32 -37 34.5t-6 10.5t-6 10q-27 29 -72 45.5t-86.5 16.5t-76.5 -19.5t-54 -31.5q-24 -17 -24 -21q-4 0 -6 -8q-2 -9 -13 -15q-8 -4 -12 -4q-6 -6 -7 -13q-4 -29 -7 -32 l-29 -28q-8 -16 -12 -32.5t-4 -47.5l-8 -92q-7 0 -7 -12.5zM537 317q0 -60 63 -163q2 -6 11.5 -18.5t19.5 -27t20.5 -28t14.5 -19.5q10 0 16 -6q2 -4 12.5 -14t14.5 -14l53 -9q16 -8 29 -8h4q105 0 176 64q35 36 71 71l19 54q0 18 19.5 55t19.5 46v17q0 8 -2 9l-13 90 l-24 55q-10 14 -20.5 45t-20.5 39t-21.5 16.5t-26.5 17.5q-35 22 -40.5 27.5t-26 22t-44 35t-43 35t-30.5 23.5q-14 9 -36 9h-19q-4 -8 -19.5 -21t-22.5 -21.5t-9 -10.5t-9 -14t-7 -15q-33 -35 -68 -73.5t-43 -87.5l-8 -136q0 -16 -10 -26v-19z" />
<glyph unicode="9" horiz-adv-x="1214" d="M266 602l2 53l2 39q0 2 4.5 17.5t10.5 37t12 44t10 38.5q12 49 37 91q71 99 201 163h18q35 6 74 25.5t74 22.5l71 2l66 -2l74 -19h8q16 0 19 -2t13.5 -7t12.5 -8t13 -6.5t13 -5.5q92 -39 145.5 -100t92.5 -156l4 -8q0 -2 6 -8q19 -47 19 -55l2 -19l-2 -45l8 -55v-74 q0 -47 -10 -57l-9 -162q-16 -18 -21 -37.5t-11 -34.5q-15 -38 -19 -48.5t-10 -20.5t-12 -22.5t-11.5 -24t-7.5 -13.5l-24 -84q-10 -23 -25.5 -38t-32.5 -33q-35 -47 -65.5 -97.5t-54 -77t-47.5 -49.5l-31 -32q-10 0 -20.5 -10.5t-17.5 -12.5t-9 -4q0 -7 -12.5 -20.5t-29 -31 t-36 -36t-36.5 -35t-22.5 -20.5t-11.5 -7t-9 -6.5t-19.5 -14.5t-35.5 -26q-44 -35 -50.5 -38.5t-22.5 -15t-44 -27t-71 -43t-98 -27.5h-8q-43 0 -43 20q0 12 8 18.5t31.5 27t61.5 52t88.5 79.5t114.5 110t123 126q133 144 206 290v8q0 20 -27 28.5t-44.5 8.5t-29.5 -8 t-50 -8t-81 12t-90 22h-29q-5 0 -16 11q-128 76 -141 95q-2 3 -7 9t-18.5 23.5t-26.5 34.5q-34 43 -35 47q-11 37 -23.5 53t-14.5 20q0 36 -19 74zM498 653q0 -59 3 -110t15 -80t24 -53q17 -30 23 -53t8 -27t14.5 -14.5t14.5 -13.5t4 -10t6 -13t18 -28q59 -89 177 -89h18 q21 0 41 20q2 2 16.5 8.5t30 13.5t28.5 14t16 8q8 3 38 67q63 121 64 258q0 171 -51 275q-69 139 -121 178q-70 45 -107 45q-61 0 -99 -8.5t-63.5 -43t-44 -56t-24.5 -26t-8 -14.5t-6.5 -26.5t-9.5 -35t-9 -35t-5 -23.5t-9 -23v-21l-2 -63v-21z" />
<glyph unicode=":" horiz-adv-x="548" d="M152 139q0 55 32.5 102.5t95 47.5t105.5 -41t61 -94v-13q0 -60 -60 -103q-54 -38 -112.5 -38t-90 42t-31.5 97zM438 856v45q0 18 16.5 37.5t25.5 32t18 20.5q6 10 22.5 18.5t51.5 8.5q58 0 139 -90q10 -12 10 -45t-15.5 -58.5t-41.5 -40.5q-45 -28 -113.5 -28t-90.5 34 t-22 66z" />
<glyph unicode=";" horiz-adv-x="577" d="M-139 -309q0 20 12 39q0 8 10 8q4 8 20.5 9t42 3t54.5 5q68 7 90 7q37 24 58.5 37t40 24t37.5 21q24 12 87 84q8 6 9 27q0 24 -17 72q-47 10 -87 41.5t-40 85.5q0 82 74 125h2q59 0 109 -19q89 -33 112 -88q10 -10 10 -45l27 -55l2 -43l-2 -47q0 -4 -8 -18.5t-9 -16.5 t-4.5 -10.5t-6.5 -17.5t-5 -17t-13 -31q-18 -39 -116 -115q-182 -135 -401 -135q-42 0 -59 10.5t-17 18.5q-12 20 -12 41zM387 918q0 40 25 73q31 53 62.5 67.5t73.5 14.5t64.5 -15.5t41.5 -39.5q38 -51 38 -89.5t-17.5 -60.5t-25.5 -37.5t-18 -30t-29 -18.5l-90 -8 q-17 7 -47.5 25t-36.5 21t-13 16.5t-13 29.5q-15 34 -15 52z" />
<glyph unicode="&#x3c;" horiz-adv-x="989" d="M-168 -396q0 45 39 81q27 39 102 39l113 -13q76 0 178 45q2 2 13.5 4t16.5 6.5t22.5 16.5t21.5 16q12 25 24.5 35t22.5 20q22 20 37.5 31.5t35 31.5t38.5 43q41 50 50 99q17 93 17 159.5t-9 105t-9 77.5l12 68q0 121 -7 239.5t-5 241.5q-18 12 -35 13q-16 0 -26.5 -4.5 t-26.5 -8.5q-18 -47 -52 -86q-65 -75 -86 -114q-14 -29 -15 -57.5t-12 -44.5q-22 -34 -27 -34t-16 8.5t-11 12.5v29q0 101 76 222q66 104 105.5 150.5t45.5 55.5q27 23 52.5 43t55.5 20q80 0 100 -47q17 -41 17 -78l10 -172v-315l-10 -64v-10l10 -61v-117q-2 -2 -2 -7t9 -14 h36q202 280 246 525l8 82l9 28q18 45 18 62l8 110q6 37 43 54.5t71 17.5q79 0 79 -71t-24.5 -124t-49.5 -112l-10 -35q-9 -18 -21 -40t-20 -38t-11.5 -21t-11.5 -15.5t-8 -13.5t-2 -4t-6 -9t-9 -24.5t-10 -35.5q-16 -51 -17 -53t-12.5 -19.5t-15.5 -25.5t-17 -27.5 t-28.5 -42t-29.5 -42.5q-21 -31 -21 -36.5t-3 -8.5q-7 -7 -14 -19t-10.5 -18.5t-9.5 -13.5l-12 -14q-18 -21 -18 -24l-17 -61q-10 -31 -39 -56q-22 -11 -24 -17.5t-3 -8.5t-7.5 -22.5t-8.5 -23.5t-11 -12.5t-20.5 -19.5t-20.5 -20.5t-11 -12.5q-12 -12 -27 -38 q-41 -73 -110 -132q-15 -7 -15 -10q-10 0 -23.5 -20.5t-16.5 -24.5t-18.5 -20.5t-32.5 -34t-33.5 -31.5t-20.5 -19.5t-14.5 -11.5t-12.5 -10l-29 -6q-4 -2 -14 -13.5t-12 -15.5q-59 -47 -125 -87t-132 -40t-108.5 8.5t-79.5 55.5q-16 26 -16 46z" />
<glyph unicode="=" horiz-adv-x="843" d="M307 389q0 78 74 105l186 6h8l74 -6h27q12 2 26 2h54q14 0 21 1t24.5 1t19.5 2h10q20 0 37 -13.5t17 -36.5q0 -63 -31 -100q-16 -16 -41 -19t-47 -9h-334l-82 8q-29 4 -36 20t-7 39zM307 700q0 78 74 105l186 6h8l74 -6h27q12 2 26 2h54q14 0 21 1t24.5 1t19.5 2h10 q20 0 37 -13.5t17 -35.5q0 -65 -31 -100q-16 -16 -41 -19.5t-47 -9.5h-334l-82 8q-29 4 -36 20t-7 39z" />
<glyph unicode="&#x3e;" horiz-adv-x="1363" d="M133 102q0 53 33 138l16 166q10 25 12.5 38t5.5 30t12 29.5t13 28.5q4 2 7.5 21.5t5.5 24.5q2 4 7 16q6 15 17 31h6q2 -2 4 -7.5t6.5 -11.5t8.5 -17q8 -21 18 -65q26 -50 38.5 -114t12.5 -70q27 -23 57.5 -61.5t61.5 -57.5q8 -8 10 -11t9.5 -12.5t9.5 -13.5q4 -2 17.5 -9 t17.5 -7q25 -16 56.5 -36.5t66 -25t54 -6.5t62.5 -8q86 -12 162 -12h31q7 0 47.5 19.5t50.5 23.5q59 31 71.5 72t12.5 106v14q0 6 -4 21.5t-8 33.5q-8 36 -16.5 67.5t-32 67.5t-41.5 73q-4 0 -6.5 10t-6.5 14q-8 25 -26.5 43.5t-25.5 31.5t-10 26.5t-15.5 33t-49.5 58.5 t-56 62q-57 69 -99 153q-45 80 -79 156.5t-34 170.5v45l16 60q6 27 7.5 53.5t6.5 38.5t13 26.5t11 24.5t4 21.5t15.5 30t35 46t36 36.5t27.5 17.5t27 15.5q23 11 46 26q28 18 90.5 18t147.5 -10l78 -8l27 -9q45 -12 88 -23t88 -32l25 -6q8 -4 18 -14.5t22 -20.5 q33 -26 46.5 -26t18.5 3t12 6t17.5 12t20.5 20.5t20.5 21.5t14.5 16h14q20 0 42 -9t22 -29q0 -66 -22 -138q-46 -144 -46 -156v-61q0 -61 -37 -92q-13 -8 -22 -8q-55 0 -77 105q-9 42 -17.5 84t-16.5 53.5t-19 21.5t-11 14q-4 2 -18 25q-35 60 -79.5 78t-62.5 32 q-34 24 -39.5 28.5t-21 11t-33.5 12.5q-46 16 -54 16h-22l-33 -2l-45 2q-37 -9 -72 -22l-36 -56q-68 -98 -68 -157v-2q16 -39 32.5 -78t23.5 -59.5t10.5 -26.5t4.5 -9t6 -11.5t11 -16.5q16 -21 17 -25q6 -23 12 -26q11 -34 38 -54l43 -31q26 -20 35 -45.5t13 -27.5 q16 -27 42.5 -41t39.5 -39q4 0 7 -6t5 -8t10 -11.5t19.5 -18.5t19.5 -18.5t11 -12.5t12.5 -17t13.5 -16t10 -17.5t13 -29t25.5 -32t25.5 -32.5q14 -25 14 -47q53 -106 53 -150l-2 -51q0 -194 -43 -280q0 -14 -15.5 -39t-32 -43.5t-39.5 -53t-52 -67.5q-6 -2 -11 -6 t-9.5 -7.5t-6.5 -5.5l-8 -4q-2 -2 -6 -2h-2q-1 0 -19 -18q-16 0 -22 -5t-19.5 -7t-17.5 -5l-113 -16l-51 -12h-40.5t-26.5 4q-42 0 -109.5 5t-73.5 7l-45 8q-2 2 -21.5 9.5t-29.5 11.5q-2 4 -20.5 11t-35.5 15q-84 38 -116 70q-20 14 -37.5 29.5t-30 15.5t-20.5 -12 q-8 -4 -34 -29q-59 -57 -132 -57q-41 0 -41 65z" />
<glyph unicode="?" horiz-adv-x="886" d="M342 139v6q20 72 51 113t113 41q61 0 112 -51q50 -50 50 -126q0 -149 -172 -149h-23q-37 0 -49 13q-41 33 -61.5 67.5t-20.5 85.5zM477 621q0 135 125 311q2 2 14.5 13t14.5 13q6 8 20.5 22.5t28.5 31t25.5 30t28 31t31.5 48t51 86t82 123t70.5 123t35 73.5t10.5 47 q0 47 -68.5 47t-142.5 -18l-6 -11q-37 -43 -73 -84t-54.5 -70.5t-31.5 -60t-28 -62.5q-37 -83 -57 -83q-49 0 -49 86v18q0 16 2 23q25 16 45 54t31.5 59.5t16.5 31.5t12 24.5t30 38.5q59 63 178 115l53 29l31 6l2 4l56 4q16 0 27 -5t34 -12t45.5 -12t45.5 -16.5t39.5 -26 t21.5 -14.5q27 -23 33 -65q12 -75 12 -122q0 -138 -64 -230q-2 -4 -14.5 -13.5t-14.5 -11.5q-2 -4 -12 -18.5t-12 -18.5q-37 -35 -80 -58.5t-99.5 -61t-132 -89t-131.5 -119.5q-4 -2 -14 -21t-20 -33t-30 -37t-20 -56v-6q23 -57 26 -71.5t11.5 -29t19.5 -27.5q27 -32 44 -32 h153q9 -5 13 -10.5t6 -7.5v-8q0 -34 -72 -67q-61 -28 -102 -28t-77 19.5t-63 52.5q-57 72 -57 152z" />
<glyph unicode="@" horiz-adv-x="1892" d="M393 756l8 37l-8 71q0 47 15 121q31 144 34 163q8 41 31 65t28 53.5t29 69.5q32 51 183 196q25 12 49 24.5t38 20.5q24 13 36 25l55 20l162 82q182 52 317 59h68l98 -24l84 -27q10 -6 32.5 -14t47.5 -18q70 -29 80 -38q44 -44 112 -86q31 -18 77 -89.5t52 -90.5t9.5 -39 t19.5 -51q8 -41 17.5 -87t16.5 -85t12 -66.5t5 -45t-5 -32t-11 -36.5q-16 -27 -29.5 -45.5t-13.5 -28.5q-16 -23 -24.5 -40t-16.5 -32q-19 -37 -57.5 -68.5t-66.5 -53t-55 -38.5q-26 -18 -124 -75l-88 -76q-4 -2 -14 -9q-31 -23 -39.5 -25.5t-25 -10.5t-30.5 -24.5 t-35 -24.5l-41 -14h-4l-80 14q-4 0 -6 2l-8 4q-4 4 -12 11q-28 22 -29 59v10q37 55 36 74.5t-1 23.5v8q0 6 -6 16.5t-11 10.5q-7 0 -16.5 -6t-11.5 -9t-5 -5q-9 -6 -34 -31l-72 -47l-21 -22q-18 -17 -24 -19q-61 -65 -153 -74h-62q-49 0 -55 12q-47 30 -68 97q-8 19 -8 57 v25q0 32 21 69q45 114 91 179q7 10 10 17t5 10q5 7 16 20.5t20 25.5q21 28 28.5 36.5t18.5 16t17 17.5l103 78q0 4 4 8q11 11 27 30t26 29t13 14q17 17 26.5 18t15.5 6q71 54 113.5 73.5t84.5 28.5q51 10 97 10h13q12 -4 19 -10.5t13.5 -8.5t10.5 -4t11 -2t24.5 4t21.5 15.5 t15 24.5q34 40 71 40h12q35 -28 35 -73.5t-14 -75t-31 -60.5q-4 -12 -5 -21.5t-2 -19.5t-7 -12l-133 -275q-2 -6 -2 -16t-6 -24.5t-14.5 -36t-20.5 -41.5v-8q-2 -8 -8 -20q-15 -28 -15 -50.5t17 -22.5q22 0 47 23l135 80q12 8 18 10q72 59 136 129q85 94 85 250 q0 16 -4 34.5t-6 39.5q-29 68 -50.5 121t-45.5 94h-4l-88 114q-37 16 -65.5 37t-61.5 39q-91 60 -139 66q-6 -2 -19 -2l-43 2q-27 0 -76 12q-35 0 -71.5 -5t-63.5 -34q-198 -16 -290 -127q-33 -39 -72 -92l-31 -35l-45 -70q-17 -14 -17 -45l-59 -149q-12 -29 -18 -69 t-9.5 -58t-15.5 -50t-12 -50q15 -189 90 -332q16 -27 26.5 -59.5t38.5 -73.5q16 -31 40 -58.5t46 -57.5q44 -59 107 -112q31 -4 68.5 -18t52.5 -19l74 -20q29 -2 58.5 -5t61 -5t69.5 -6.5t69 -4.5l26 5q35 6 73 17t73 21q14 14 82.5 50.5t70.5 36.5q66 0 66 -33 q0 -35 -49 -84q-35 -49 -51.5 -59.5t-31.5 -10.5q-17 0 -51 -14q-87 -35 -161 -35q-35 -4 -59 -4h-46q-61 0 -160 6q-72 0 -145.5 19.5t-110.5 26.5q-44 8 -64 24q-42 33 -132 75l-41 21q-30 10 -82.5 62.5t-54.5 60.5l-97 170q-39 89 -66.5 202t-27.5 136zM995 571 q0 -37 27 -47q6 -14 30 -14q40 0 87 49q16 16 42.5 40t49.5 46l55 55l103 134l49 59l59 113l25 96l2 14q0 31 -15 39q-2 2 -2 4q0 6 -6 6h-4q-4 0 -6 1t-8 1t-6 2l-21 -2q-75 -25 -86 -39q-4 -2 -14 -12t-23.5 -21.5t-24.5 -21.5q-4 -3 -43 -35q-100 -80 -106 -125 q-6 -6 -16 -24t-18.5 -28.5t-15.5 -19.5t-17.5 -27.5t-33.5 -58.5q-63 -106 -63 -184z" />
<glyph unicode="A" d="M-41 51q0 64 37 70q19 0 71 8t56 9t84 18q100 22 112 34q8 0 29 21q4 2 22.5 8t40 18.5t54.5 46t57 55t47 33t32 20.5t21.5 20.5t15.5 14.5t21.5 13.5t21.5 13.5t15.5 14t26.5 25.5t25.5 25.5t15.5 16q4 4 24.5 19t43 31.5t43 31t24.5 18.5t25.5 24.5t25.5 25.5t7.5 12.5 t6.5 9.5t22.5 13t43 27.5t64.5 52.5t65.5 54t35.5 25.5t25.5 16.5t27 17.5t16.5 8.5l59 65q8 0 16 8q19 19 23 19q11 15 56.5 55.5t52.5 46.5t28 22.5t24 19.5t14 9.5t23 13.5q51 28 98.5 77t76.5 75.5t49 39.5t47 29q45 28 95 78l68 68q17 17 32.5 32t19.5 19.5t10 15.5 t9 16t22.5 22.5t32.5 21.5l80 8l28 7h56q20 0 31.5 -6.5t11.5 -47t-19.5 -77.5t-32 -62.5t-15.5 -40t-5 -18.5l-43 -70q-2 -4 -5 -19.5t-7 -17.5q-18 -49 -40 -96t-32 -72.5t-12 -35t-5.5 -20.5t-6.5 -19.5t-6 -14t-3 -24.5q-39 -68 -55 -113t-28.5 -60.5t-27 -56.5 t-41 -103.5t-40 -95t-15.5 -49t-6 -31t-14 -22.5t-21 -31l-8 -32q0 -6 -6 -19.5t-9 -16.5t-15.5 -18.5t-14.5 -17.5q-6 -6 -6 -53v-13q-12 -12 -18.5 -26t-16.5 -33q-16 -29 -27.5 -63.5t-13.5 -38.5v-11q0 -25 37 -30.5t82 -11t82 -17.5t37 -49v-19q0 -8 -21 -8l-203 2 l-202 -2l-209 -16h-80q-33 0 -62.5 8t-29.5 49l2 25q12 24 22 24q37 6 78 6l47 -2q75 0 123 23q28 18 54 64.5t40.5 73t19.5 36.5q16 32 32 45q7 27 7.5 31t6.5 24.5t22.5 61.5t31.5 76t30.5 59.5t15.5 54.5q0 64 -53 64h-299q-86 0 -199 -76q-12 -6 -23 -23.5t-17.5 -23.5 t-15.5 -14.5t-20 -17.5q-43 -33 -75.5 -71t-45.5 -49.5t-30.5 -31t-35.5 -36t-41 -37t-44.5 -49t-31 -37.5t-23.5 -27.5t-27 -31.5q-32 -32 -32 -50t12 -21h98q18 -4 50 -20.5t32 -34t-4 -24.5t-12 -24q-20 -26 -76 -26l-57 2h-35q-33 0 -49 8h-402q-8 -8 -24 -8 q-70 -19 -120 -19q-72 0 -105 39q-11 14 -11 37zM1350 813h8q8 0 10 4l21 6h43l139 -10q47 0 90 7t88 14q43 31 57.5 82t31.5 95t37.5 84t31 66.5t14.5 46t10 38.5q14 44 35 57v83q-36 0 -43 -10q-4 -2 -13 -11l-20 -21q-12 -11 -21 -21t-11 -12q-20 -10 -28.5 -19.5 t-21 -16.5t-15.5 -10t-20.5 -19.5t-36.5 -35.5l-38 -38q-17 -17 -22 -21t-21.5 -20.5t-36.5 -34.5q-39 -38 -50 -48t-17.5 -17t-14.5 -16t-14 -17.5t-19 -22t-41 -30.5t-57 -38q-2 -4 -17 -15q-13 -9 -26 -22q-12 -20 -12 -43v-14z" />
<glyph unicode="B" horiz-adv-x="1558" d="M78 53l2 27l10 10q93 10 154 10l63 -10h8q43 0 62 37q14 20 18 38.5t21 76t47.5 143.5t49.5 148.5t23.5 82t22.5 46.5l121 344l14 108q11 11 11 29q7 14 28 35q2 6 8.5 32.5t9.5 31.5t6 15.5t5 14.5l33 76q20 33 20 47l37 155v29q0 29 -10.5 37t-30.5 8l-23 -2 q-16 0 -32.5 1t-32.5 9l-90 6q-37 6 -37 68q0 23 7 34t30 11h26q12 0 46 -3t73 -6q98 -8 119 -11q3 -7 17 -8t38 -1l72 2q102 -8 256 -13t178 -7q10 -12 29 -12q50 0 154 -74q49 -35 88 -107q0 -2 4 -11t8 -11q0 -14 8 -31q16 -36 16 -43v-166q-6 -18 -13 -33.5t-13 -31 t-16 -42.5q-24 -66 -183 -200l-55 -8q-62 -25 -62 -49q0 -5 27 -41.5t39 -53t14 -18.5t8.5 -9t14.5 -15.5t14 -14.5t6 -8q47 -53 56.5 -113.5t9.5 -113.5q0 -98 -27 -154q-6 -10 -14 -28.5t-17.5 -36t-15.5 -30.5t-8 -14t-13.5 -13.5t-27.5 -28t-33 -31.5l-26 -27 q-94 -91 -254 -129q-25 -4 -42.5 -5t-39.5 -9h-170l-349 8h-59q-12 0 -46 -3t-72 -6t-71.5 -5t-47.5 -4q-18 -11 -48 -11h-26q-91 0 -116 37q-11 16 -11 45zM641 100q17 -26 96 -26h37q107 0 238 43q27 8 53.5 14t38.5 15.5t19 16.5t14.5 14t13.5 14.5t8 9.5q16 8 23.5 11 t33 17.5t25.5 16.5q16 10 20.5 32.5t11.5 31.5q21 27 21 34q45 112 45 229q0 33 -14 59.5t-23.5 42t-14.5 25t-11 19.5q-16 27 -18 32t-11.5 15t-19.5 20q-25 27 -34 30t-17 7t-15.5 5t-11.5 6q-84 36 -181 36h-5q-60 0 -73 -16t-18.5 -33.5t-19.5 -42.5 q-41 -127 -86 -245.5t-73.5 -202.5t-40 -115t-11.5 -76v-39zM920 973q0 -18 8.5 -19.5t58.5 -11.5l74 -8h4q33 0 66.5 16.5t62.5 30.5l47 6q2 2 12.5 4t44.5 19q102 49 168 149q11 27 29 45q2 10 3 38t13 44v51q0 66 -13 95q-16 38 -51 80.5t-54 60.5t-54 22h-36 q-16 4 -26.5 16.5t-39.5 12.5t-59 -8q-39 -11 -60 -88q-4 -15 -8 -26t-6 -16t-13.5 -32t-13.5 -32t-7 -20.5t-11 -33.5q-15 -45 -19 -53q-2 -4 -7 -15.5t-11 -24.5t-11 -25.5t-10 -26t-7 -37.5q-6 -55 -19.5 -79t-24.5 -42q-28 -43 -28 -76z" />
<glyph unicode="C" horiz-adv-x="1564" d="M326 571v60l16 145q13 16 33 96q37 149 51 156l63 127q10 8 18.5 35t13.5 34t13.5 19t17.5 25.5t16 26t12 16.5l16 6q4 10 14 14l23 23q42 96 133 174q4 2 19.5 8t17.5 7t14 13.5t18 18.5t27 23.5t42 35.5q47 40 51.5 43.5t18 11t33 16.5t47 22.5t53.5 22.5q64 22 116 22 h51l43 -11q53 -4 111.5 -5t105.5 -19l94 -47q41 -20 41 -27q14 -10 27.5 -25.5t29.5 -31.5q35 -35 68 -35q11 0 17 17.5t9 27.5t6 15q12 20 22.5 20t19 -7.5t12.5 -16.5q6 -13 6 -33.5t-7 -45t-17 -48.5q-36 -83 -40.5 -124t-10 -71.5t-8.5 -57t-5 -35.5q-4 -4 -13 -18 t-12 -18q-16 -21 -20 -21h-6q-10 0 -21.5 10.5t-19.5 16.5q0 6 -12 18v137q-14 11 -27 63q-23 98 -29 110q-14 28 -20 34l-29 10q-10 8 -23.5 28t-18.5 25q-22 22 -48 35q-29 25 -45 36.5t-55 11.5h-51l-119 -9q-2 -2 -16.5 -9t-18.5 -9q-11 -11 -43.5 -32t-46.5 -30.5 t-18.5 -12.5t-18.5 -9t-18 -8q-35 -31 -60.5 -69t-42 -57t-24.5 -27l-18 -18q-9 -9 -17 -17.5t-10 -10.5q-9 -9 -10 -14q-5 -28 -11 -31q-2 -4 -22 -23q-21 -20 -25 -32t-6 -16.5t-8.5 -20.5t-14.5 -35q-20 -46 -21 -51.5t-3 -21t-5 -18.5t-9.5 -16.5t-14.5 -28.5t-14 -28.5 t-21 -43.5q-50 -103 -67 -206q-11 -22 -11 -71l-8 -119l-10 -27v-34q0 -21 10 -31q2 -8 5 -29.5t7.5 -46.5t8.5 -47.5t6 -30.5l15 -28q5 -8 11.5 -28t9.5 -23t11 -18t18 -33q20 -32 33 -58q27 -27 87 -57.5t70.5 -31.5t20.5 -1h29q76 0 137 34q62 34 164 107q4 9 32 27 l41 27q34 23 65.5 68.5t60.5 86.5q74 102 127 102q45 0 45 -55q0 -35 -14.5 -68.5t-28.5 -86.5q-38 -143 -56 -259q-8 -10 -16 -24.5t-27.5 -14.5t-26.5 18.5t-10.5 42t-7.5 42t-22 18.5q-29 0 -55.5 -21.5t-41.5 -34.5q-38 -31 -222 -93q-91 -31 -205 -35q-2 4 -13.5 6 t-13.5 6q-121 25 -169 48.5t-69 33.5q-40 20 -43 25l-135 135q-27 27 -43 90q-65 138 -65 274z" />
<glyph unicode="D" horiz-adv-x="2039" d="M344 -6v59q7 3 12 15q35 24 107 24l92 -10q56 0 63 29q8 23 11.5 45t9.5 36.5t17.5 35t14.5 25.5t10 14q19 24 19 59q0 8 4.5 19t11.5 30.5t11 21.5q2 8 11.5 36t19.5 58.5t19 56t11 31t9.5 18.5t15.5 28.5t14.5 29t8.5 17.5l24 80q2 4 14.5 18t13.5 17t5 12.5t9 20.5 t9 20.5t6.5 12.5t12.5 26.5t14 28.5t10.5 22.5t6.5 21.5v43q4 35 23.5 59.5t26.5 41t15 36t17.5 43t16.5 43.5q8 25 21 44.5t29 47.5q26 47 59 206q5 5 10 26t8 31t3 12v23q0 45 -34 57t-75 12h-20l-135 -10q-17 0 -46.5 -13.5t-33.5 -14.5q-29 -7 -35 -12t-15.5 -9 t-20.5 -8q-27 -10 -32 -15l-63 -63q-20 -23 -48 -55.5t-28 -65.5t20.5 -57.5t20.5 -53.5l-2 -2q-2 0 -2 -2l-14 -84q-21 -53 -45 -53h-111q-31 0 -73 59q-9 13 -9 21v12q4 22 9 62.5t8.5 59t4.5 33t16 32.5t22.5 33.5t18.5 31t14 18.5t4 6t24 21.5t61.5 54t67.5 51t39 20.5 t22 12q46 26 62 26l20 12l25 -2q8 0 11 1t26.5 7.5t40 11.5t46.5 5t56 4l94 8l189 8l73 7h9q74 -6 146 -6h12q4 0 8 1q75 0 149 -10l23 -8q2 -2 24.5 -5t24.5 -7q41 -10 82 -36t73 -44l19 -8q37 -16 55.5 -39t32.5 -39t23.5 -25.5t20.5 -19.5t20.5 -20.5t29 -34t46 -82 t43.5 -121.5q30 -115 30 -248l-2 -8v-8q0 -2 -3 -12.5t-6 -23.5q-8 -32 -12 -36l-2 -72q0 -60 -2 -69t-8 -27t-13 -39.5t-15.5 -42t-27 -68t-76.5 -133.5t-96 -133t-62.5 -62.5t-49.5 -31.5q-12 -16 -41 -45l-44 -44q-15 -15 -21 -24q-4 -2 -18.5 -8t-18.5 -8t-21.5 -8 t-37 -13.5t-38 -14.5t-22.5 -9l-72 -37h-12l-51 -4q-50 0 -106 -15.5t-69 -19.5t-30 -4q-16 0 -31 -2l-45 -4q-6 -2 -32 -2h-33q-2 -2 -16.5 -7t-18.5 -5h-29q-123 20 -240 20h-145l-100 -2h-21q-24 0 -81.5 -8t-63.5 -10h-12q-25 0 -25 12zM854 137q3 -39 13 -45t21 -7 t30 -3l26 -8h55l70 8q28 3 52 3h13q30 -1 49 8t30.5 14.5t23.5 11.5q30 15 32.5 16.5t8.5 10.5q13 18 29 18q29 10 56.5 10t40.5 8t27.5 20.5t41 28t75.5 46t67.5 55t26 40t9.5 19.5q25 25 45 35q2 4 8 18.5t8 17.5t12.5 15t21.5 25.5t20.5 25t11.5 15.5l8 26q2 4 18.5 19.5 t20.5 19.5l6 35q2 2 8 13.5t13 23.5q16 30 17 34.5t2 21t2 34.5q3 51 5 61q11 52 27 76v133l8 37v66q0 2 4 9t6 7v29q0 63 -20.5 109t-32.5 79t-20 56q-8 27 -26 44t-27 27t-16 21.5t-18.5 20.5t-21.5 18.5t-21.5 17.5t-29.5 23l-39 8q-29 12 -52.5 25.5t-59.5 13.5 t-59.5 -22.5t-38 -53.5t-23.5 -65.5t-15 -48t-12.5 -25t-12.5 -23.5t-11 -22.5t-19.5 -41t-37 -90t-49 -116.5t-46 -115.5t-38 -87.5t-29.5 -43t-13 -17t-4.5 -22.5t-6.5 -23.5l-8 -27q-20 -53 -39.5 -109.5t-44.5 -107.5l-14 -27q-10 -15 -10 -37q-8 -12 -23.5 -43.5 t-33 -66.5t-33 -64.5t-27.5 -56.5q-37 -83 -37 -156v-2z" />
<glyph unicode="E" horiz-adv-x="1708" d="M139 61q0 8 21 29q4 2 13 2t15 2l23 2h125q31 25 41 80q4 10 6 20.5t5 13.5q6 6 20 42.5t18 42.5v2q18 33 22.5 61.5t6.5 43t8 30.5l4 4q0 2 4 4q49 127 53 165t5 49q2 20 7 31t8 21q5 18 11 31q14 30 16 51q2 24 11 33q9 36 26 85.5t26 78.5t13 37l15 45q15 45 18 90 q4 0 11 7t13 20q8 17 21.5 57.5t19 56t10.5 32.5q9 32 33 79q20 49 39 101.5t19 105.5v18q0 32 -12 41q-12 0 -59.5 6.5t-71 8.5t-32.5 3t-24.5 4t-30.5 9q-36 15 -36 35l2 14q4 8 17 21.5t17 13.5l37 -10h162l250 -19h29l65 11l66 -11h26q4 0 6.5 1t11.5 4q17 6 70 8l21 6 h8l172 10h27l157 -10h15l55 -8l41 8q64 0 99 -30q12 -11 12 -42q0 -60 -14.5 -119t-14.5 -63l-8 -17l-8 -114q0 -47 -12.5 -66.5t-23.5 -19.5t-18.5 12t-12.5 29q-11 39 -11 67v4q-2 8 -3 16.5t-5 32.5q-13 74 -31 105q-35 58 -35 65q-8 14 -43 24.5t-85 17t-127 6.5h-113.5 t-53 -2.5t-11.5 -3.5t-21.5 -3t-25 -3t-19.5 -3l-21 -6q-7 -2 -41.5 -4t-51 -3t-22.5 -1l-22 -64q-14 -29 -21.5 -49t-8.5 -31.5t-5 -28.5q-8 -32 -18.5 -43t-18.5 -36.5t-16 -73.5l-19 -59q-16 -47 -37 -90q-53 -109 -53 -185v-43q4 -4 20.5 -10t26.5 -6l23 4l30 2l27 -2 q20 -4 57.5 -6t65.5 -2h45q16 0 37 2l57 2q24 6 45 6h45q11 6 27 37q6 6 8 7t6 5t9 7q9 6 17.5 23t8.5 24l4 26q2 8 2 19v6q2 4 8 10q12 12 17.5 23.5t8.5 17.5t6 21q11 59 54 59q12 0 39 -27l4 -39q0 -51 -59 -198q-4 -12 -4 -17l-10 -45l-27 -55q-4 -6 -5 -29.5t-5 -36.5 l-8 -14q-5 -65 -17 -118.5t-14 -62.5t-6 -20l-4 -26q-4 -23 -13.5 -42.5t-34.5 -19.5q-55 0 -55 43l8 19q11 42 11 92l-2 153q-44 19 -112.5 22t-94.5 13h-279q-35 0 -39 -18l-4 -27q-6 -18 -6 -37q-6 -10 -15 -41q-16 -54 -24 -67q-11 -20 -17.5 -33.5t-11 -21t-9.5 -20.5 q-9 -21 -19 -69.5t-14 -64t-13.5 -37.5t-22.5 -58q-44 -122 -44 -172.5t18 -58.5q0 -2 23.5 -6t33.5 -4h252q57 14 126 14t90 -8q44 -16 69 -16h35l43 18h117q32 9 68 42.5t44 37.5q0 4 12 10q14 8 26.5 23.5t14.5 18.5t6.5 12.5t8.5 18.5t7 17.5t11 18.5q24 30 43 56t24 31 t6 8t6 10.5t9 15.5l6 4l13 12h6q2 -2 6 -2l2 -22q4 -16 4 -21v-6q0 -31 -9 -60.5t-11 -44t-7 -26.5v-35q0 -17 -8 -55.5t-10 -42.5q-6 -52 -17.5 -82.5t-50.5 -34.5l-106 2l-104 -2l-68 -6h-14l-109 6q-19 0 -29 10q-23 0 -40 -6q-28 -10 -48 -10q-70 -12 -112 -12h-23 q-26 7 -117.5 12.5t-99.5 5.5h-154q-137 0 -172 10h-34l-93 -4q-47 -6 -92 -6h-20q-41 0 -48 13q-18 34 -18 48z" />
<glyph unicode="F" horiz-adv-x="1449" d="M117 28q0 11 10 21t23 19q27 16 55 16h119q23 3 53 43q10 29 20.5 53.5t16.5 42t10 23.5l25 53v27q6 47 25 86q27 53 41.5 142t33.5 134q34 34 38.5 60t10.5 46.5t10 32t10 23.5q13 29 13 34q0 24 10 36q12 72 36.5 134t43.5 132l8 45l27 72q2 2 3 11t3 19q4 20 4 33 l25 43q4 4 7 23.5t5 21.5l26 55q6 16 13 49q11 48 22 93q0 39 -108 39l-17 -2h-10l-63 -7q-97 0 -97 54q0 37 88 37q38 0 64 -11l395 4l37 4h231h14q40 -1 76 9q44 12 91 12h55l143 -12h58q9 0 39 12h6l30 -18q9 -14 9 -36v-61q0 -20 -1 -24t-3.5 -17.5t-5.5 -31.5 q-27 -156 -58 -236q0 -8 -6 -8h-10q-16 0 -25.5 19t-9.5 26v33q-2 2 -2 4l-2 6l-4 8l-9 62q-4 4 -11 19t-8 17t-5 17.5t-8 39t-10 32.5t-23.5 22.5t-47.5 17.5q-68 9 -175 9l-19 -2h-10l-72 -7q-24 -4 -110 -4q-83 0 -109 4q-29 -10 -34 -33.5t-13 -37.5q-15 -28 -24 -37 q-10 -23 -15.5 -39t-19.5 -35q0 -14 -9.5 -51t-13.5 -56.5t-6 -25.5l-25 -74q-10 -20 -16 -40.5t-11 -42.5t-7 -36t-11 -34l-28 -54q-2 -6 -4 -23.5t-13 -21.5v-92l17 -8h28q92 0 242 27q61 10 116.5 17t110.5 38q12 8 17.5 25.5t12.5 35t13.5 50t16.5 62.5q24 71 86 71 q30 0 35 -19l2 -41q0 -35 -12.5 -65.5t-16.5 -65.5l-10 -74l-4 -8q-2 -2 -2 -4l-4 -4q-29 -72 -41 -156q-4 -2 -6.5 -11t-5.5 -12t-11 -18.5t-8 -19.5l-8 -88q-4 -23 -12.5 -33t-12.5 -23q-12 -41 -13 -51q-4 -36 -6.5 -40.5t-17 -17.5t-18.5 -17h-13q-35 0 -34 38 q1 89 16 179q4 14 13.5 26.5t9.5 24.5t-2 12q-31 47 -80 55.5t-101 8.5l-176 -13l-172 13q-18 0 -24.5 -11.5t-10.5 -27t-7 -31.5t-15 -24q0 -115 -74 -304q-2 -6 -8 -26.5t-13 -42t-18.5 -55t-18.5 -52t-18.5 -41t-11.5 -26.5q-6 -3 -6 -51t6 -48l8 -12h90l99 12 q20 0 37.5 -17t17.5 -35q0 -32 -45 -40q-40 -10 -61 -9t-67 1h-198q-45 0 -96 -1t-97 -9t-59.5 -10t-29.5 -6q-41 -9 -43 -11h-4q-40 0 -68 41q-8 11 -8 22z" />
<glyph unicode="G" horiz-adv-x="1595" d="M352 598q0 166 29 307q0 52 10 62q0 6 5 19t10.5 28.5t10.5 31t11 32.5q22 61 36.5 90.5t24.5 35.5q7 14 13 22.5t12 22t14.5 28.5t14.5 28.5t11 18.5t6 7t7 9t14.5 18.5t27 33t53 54.5t69.5 61.5t73 54t58 40.5q21 15 56 36q2 4 12 10.5t12 6.5q208 104 424 104 q143 0 195.5 -20.5t75 -33.5t46 -27.5t46.5 -28.5q14 -12 30 -21l15 -16q47 -47 57 -47h29l71 57h11q22 0 22 -33v-33q-2 -4 -2 -10v-4q-8 -20 -26 -55q-54 -109 -62 -141q-10 -20 -10 -31l-11 -39q-13 -61 -45 -105v-2q-3 -5 -24 -24q-20 -23 -39.5 -23t-30.5 23 q0 8 5 18.5t11 25.5q19 43 19 84q0 72 -63 185q-4 8 -11.5 22.5t-14.5 29.5q-16 32 -20 32q-10 21 -34.5 40.5t-28.5 19.5q-7 8 -51 22h-2q0 2 -3 2t-12.5 5t-24.5 13t-32.5 16.5t-21.5 10.5q-49 4 -60.5 5t-20 2t-12.5 1h-6q-73 0 -169 -49q-52 -27 -98 -66.5t-54.5 -45 t-21.5 -14.5q-32 -22 -63 -59q-58 -68 -122 -204q-6 -15 -19 -32q-28 -34 -32 -44t-9.5 -22.5t-12.5 -32.5q-21 -59 -27 -66q-6 -9 -14.5 -42t-31.5 -70q-10 -39 -15 -71t-9 -53.5t-4 -29.5v-71q0 -38 -11 -89q-8 -46 -8 -94q0 -60 14.5 -83t14.5 -25l8 -76l10 -29 q0 -2 2.5 -3t5.5 -5t9 -6q2 -4 10 -19.5t8 -19.5q65 -100 256 -133q4 -4 38 -4q65 0 151 67l12 15h2q105 161 157 319q7 23 15 46q18 53 18 81.5t-23.5 35.5t-53 11t-54 11.5t-24.5 33.5v9q0 14 8 18l117 8h32q83 0 193 -14h20q7 -2 39 -6l47 -6q17 -2 23 -2h57 q4 0 13.5 -3.5t17.5 -5.5l23 -6q0 -2 3 -2t6 -3t6 -4t3 -12t-15.5 -20.5t-31.5 -11.5t-56 -2t-61 4q-2 -2 -5 -3t-7 -3t-10 -7q-9 -7 -9 -20q-23 -78 -34 -100.5t-13 -30.5q-1 -3 -14 -31q0 -6 -2 -15l-6 -28q-6 -18 -40 -84.5t-38 -74.5q-9 -18 -22 -56q-15 -45 -21 -59 q0 -26 43 -37q37 -11 37 -35q0 -18 -14 -24q-4 -4 -29 -19l-43 -20l-64 -6q-4 0 -21.5 -4.5t-37.5 -9.5t-36.5 -9t-41.5 -8q-36 -6 -149 -6h-25q-209 0 -380 103q-170 103 -257 292q-2 10 -7 32.5t-10 50.5t-10.5 54.5t-7.5 38.5q-4 24 -4 35z" />
<glyph unicode="H" horiz-adv-x="2084" d="M135 6v27q0 47 24.5 56t67.5 13h111q23 0 32 20.5t13 40t6 22.5t9.5 13.5t7.5 12.5q2 2 9 24.5t10 28.5t6 20.5t7 31t7.5 30.5t4.5 18.5t7 21.5t12 34.5t11 34t9 20.5q2 4 5 15q16 50 21 70t10 39t8.5 30.5t2.5 16.5t23 38l8 27v2q3 0 26 103q38 167 56 185 q12 35 18.5 72t8.5 49q1 9 14 47q40 121 58 193q10 4 11 11t5 16q4 8 5 12q14 57 26 74q0 9 7 41q3 12 7 32.5t7 24.5t6 12q9 24 9 47v17q-2 4 -13 12t-19 8h-152q-2 0 -15.5 6t-19.5 13q-16 8 -16 42t25.5 51t52.5 17h8l47 -16q6 -3 125 -10l39 -3h281q2 0 71 11h15 q72 -9 73.5 -10t19 -15t17.5 -31.5t-23.5 -31t-48.5 -13.5l-100 9h-12q-20 0 -44 -16.5t-38 -37.5h-2l-2 -2q0 -4 -14 -32q-24 -52 -43 -120q-26 -96 -30.5 -103t-8.5 -9q-30 -54 -41 -97.5t-17 -62t-10 -33t-9 -22.5t-12 -27.5t-18.5 -46t-11.5 -54.5t19.5 -44t45.5 -16 l21 2q16 4 37 4l182 -6h49l80 6l24 2l37 -2l72 -6h18q12 -2 24 -2h22q70 -5 110 -17l146 6l20 21q25 41 31 69.5t5 33.5t4 16.5t15 17.5q4 14 7.5 33.5t7.5 34t3 20.5t5 20.5t13 28t10 30.5t5.5 23.5t7.5 27t12 28.5q17 19 17 16l11 37q0 15 8 47q2 33 11 51.5t16 32.5 q20 40 20 59q0 13 -10 33q-20 39 -49.5 39t-55.5 17q-6 -2 -23 -2h-67t-41.5 1t-25 15t-11.5 26q0 28 8 32q14 8 72 20h10l310 -19h30l41 8q31 0 49 -10l123 4h27l102 -8q14 -6 27.5 -14t13.5 -27t-18.5 -36t-36.5 -17t-34.5 4t-31.5 7q-47 9 -82.5 9t-54.5 -18 q-6 -12 -16 -47q-4 -14 -7 -22.5t-3 -12.5l-17 -18q0 -23 -26 -105q1 -1 1 -2q0 -15 -44 -108l-13 -25q-10 -10 -10 -19t-4 -36t-5 -39t-4 -19.5t-4 -9.5t-6 -10t-14 -51l-6 -39q0 -2 -3 -5q-34 -34 -34 -98q-4 -2 -12 -10q-2 -4 -5 -16t-6 -17.5t-8.5 -14.5t-10.5 -18 q-13 -24 -21 -58t-14 -49q-10 -25 -17.5 -71t-9.5 -66t-6 -34t-10.5 -25.5t-12.5 -22.5t-13 -23q-16 -30 -24 -72l-6 -23q-11 -53 -41 -149l-12 -13l-8 -24l-2 -49q0 -12 -12.5 -40t-12.5 -55v-14q0 -22 12 -22h78q9 -9 25 -11t31.5 -3t30 -6t14.5 -40v-14q0 -12 -9 -17 q-27 -18 -59 -18l-21 -2q-43 0 -80.5 9t-76.5 9h-31q-6 -2 -29.5 -4t-50.5 -5q-61 -7 -76 -7h-10l-37 6h-6l-153 -16q-53 0 -62 24q-8 24 -7 40q1 23 38 30q0 -2 15.5 -3t24.5 -4t20 -3h24q92 0 124 40q54 68 81 197q19 77 26 80q6 23 13.5 45.5t12.5 44.5t8 41t10 40 q7 22 29.5 73t38 88t15.5 72v18q0 23 -20 29h-51q-45 0 -60 -10h-153q-17 10 -43 10l-111 -10l-242 10h-116q-10 -2 -40 -8.5t-40 -8.5l-29 -30h-2q-2 -4 -8 -17.5t-13.5 -28t-14.5 -26.5t-15 -29.5t-14.5 -49.5t-12.5 -56t-12 -41t-9 -28t-9.5 -35.5t-8.5 -27.5t-6 -10.5 t-8 -15.5l-8 -16t-6 -13t-8 -34.5t-14 -47.5q-34 -71 -34 -135v-20q0 -6 1 -15t5 -22q2 -2 17.5 -10t19.5 -8h99l71 -9q4 -4 17.5 -5t18.5 -4t17.5 -15t18.5 -17v-10q-27 -47 -70 -59t-70 -12h-32q-10 0 -12 3t-22.5 8t-29.5 9l-71 2h-9q-6 0 -12 2l-22 4h-15q-24 4 -101 4 t-175 -20l-66 -19h-32z" />
<glyph unicode="I" horiz-adv-x="935" d="M92 29v14q0 57 49 57q0 -4 15 -8q16 -12 30 -12q10 4 23.5 5t35.5 4t47 7t37.5 17.5t13.5 18.5t3 25.5t5 23.5t8.5 16.5t10.5 28.5q12 39 15.5 44.5t5.5 18t4 20.5t2 13.5t6.5 16.5t10.5 13q31 69 52 133t30 86l28 62q16 49 31.5 95t24.5 76q17 51 23.5 62.5t10.5 20 t7.5 15.5t8.5 26.5t15 42.5q6 25 13.5 44t13.5 36.5t19.5 48t23.5 61.5q54 122 63.5 154.5t15.5 52.5q17 53 17 59l37 93q9 35 26 57l21 31v20q0 14 -3 24.5t-7 28.5l-19 2q-10 0 -30 -10q-40 -4 -84.5 -4t-71.5 2q-39 3 -59 23q-5 12 -5 30q6 10 8.5 20.5t8.5 16.5 q19 11 54 11q38 0 102 -8q117 -13 167 -13l195 21q0 -2 9 -3.5t15.5 -4.5t26.5 -3q44 0 76 6q68 13 90 13t43 -13.5t21 -31.5t-27 -33.5t-43 -18.5l-154 -10q-10 10 -27.5 10t-28.5 -14t-22 -33q-27 -42 -30.5 -54.5t-9 -28t-11.5 -33.5q-16 -50 -17 -54t-8 -17t-16 -29 q-20 -37 -20 -44l-6 -20q-4 -12 -5 -20.5t-7.5 -28t-9.5 -23.5t-14 -26.5t-13 -26.5t-3.5 -14.5t-4.5 -24.5q-11 -51 -28.5 -82t-17.5 -33l-18 -92q-4 -23 -16.5 -52.5t-38.5 -92.5q-23 -76 -50 -127q-41 -75 -41 -80q-4 -4 -8 -26.5t-12 -45.5q-9 -57 -15 -72 q-11 -33 -22 -55q-18 -27 -22 -51v-23q-6 -23 -15.5 -42t-21.5 -48q-37 -89 -37 -133v-31q18 -2 57 -12l36 -9q20 -5 36 -5l35 10h10q16 0 38.5 -15.5t22.5 -35.5q-2 0 -4 -4t-4 -6q-4 -2 -9 -5.5t-10 -7.5q-9 -7 -18 -12h-55l-98 2q-25 2 -48.5 4t-60.5 2t-85 -4l-96 -8 t-97 -10t-101 -6h-6q-8 4 -24.5 20t-18.5 25z" />
<glyph unicode="J" horiz-adv-x="1492" d="M18 -461q0 51 38 84t91 33t91 -84l2 -25q0 -3 -7 -59v-37q0 -10 3 -14q0 -38 18 -45h41q182 0 385 225q0 12 5 17t16.5 20.5t14.5 18.5t9 16.5t13 29t17 32.5q35 64 44 75q102 184 149 317q3 3 11 29q15 46 17.5 50.5t8.5 18t14.5 29t14.5 28.5t14 31.5t17.5 57.5 t29.5 74q3 2 19 16q15 23 30 89.5t15 74.5q0 25 -26 34t-46 9h-193q-14 9 -19 19t-9 19t-8 15v6q0 27 16 37.5t41 20.5h4q55 0 96 -13.5t75 -13.5q83 0 112 19q11 3 26 34t20 48.5t15 42t25.5 73.5t24.5 71.5t21.5 41t14.5 24.5l8 35q8 23 22.5 48.5t14.5 48.5v4q-8 8 -10 8 h-33l-108 -10q-98 0 -227 92q-50 37 -61 61.5t-17 32.5t-34 11t-46 14q-14 4 -41 19t-36 23.5t-18.5 18.5t-19.5 20q-23 25 -43 25h-100q-4 0 -17.5 -14.5t-17.5 -22.5q-16 -16 -38 -40.5t-22 -50.5t25 -37t54.5 -24.5t54 -36t24.5 -71.5t-30.5 -80t-80 -31t-84 35t-46.5 66 q-15 36 -15 111t43 154q54 100 164 147q111 49 182 49h23q82 -10 135 -46q71 -48 120 -150q43 -90 93 -114q8 -2 27.5 -6t41 -9t41 -11t27.5 -8l35 -19l35 19l65 10q66 21 108 125q32 79 71.5 102t64.5 51h41q47 0 87 -7t71 -46l6 -18q6 -9 6 -48t-6 -55t-25.5 -46t-40 -38 t-42 -10t-43 -5t-47.5 -25t-42 -49t-28 -44q-17 -24 -17 -35l-10 -61q0 -15 -12 -27l-7 -18q0 -2 -3 -13.5t-6 -23.5t-5 -22.5t-4 -13.5q-18 -27 -19 -34.5t-7.5 -23t-14.5 -33.5t-14 -33q-8 -20 -20.5 -40.5t-13.5 -22.5t-1 -18v-31q0 -10 2 -17q4 -2 20.5 -8t26.5 -11 t44 -7t67.5 -8.5t59.5 -19.5t26 -38.5t-15.5 -42t-34.5 -16.5h-6q-138 26 -191 26t-74 -21.5t-34.5 -52t-21.5 -65.5t-15 -59l-16 -99l-8 -30q-2 -2 -8 -10.5t-14.5 -18.5t-15.5 -20.5t-16 -25t-18.5 -42t-25.5 -64t-35 -85t-41 -95.5l-8 -24q-10 -30 -26 -51 q-35 -45 -56.5 -99.5t-27 -73t-18.5 -34.5q-41 -55 -55 -68q-44 -69 -60.5 -86.5t-27 -29t-21.5 -24t-21.5 -22.5t-13.5 -12q-18 -12 -44 -25q-2 -2 -13.5 -14t-22.5 -19t-23.5 -10.5t-21.5 -8.5t-16.5 -8t-35.5 -21q-63 -38 -201 -38q-207 0 -293 59q-41 28 -59 77 q-15 45 -19 53v12z" />
<glyph unicode="K" horiz-adv-x="1748" d="M84 41q0 19 6 29t16.5 15t22.5 10q26 11 35 11l92 -8q41 0 63.5 14.5t36 36t22.5 42t13 24.5l10 64q8 31 15.5 43t21.5 38q20 59 44 119t39 102t27.5 65.5t25.5 59t28.5 80.5t32 91t40 96.5t48.5 119t56.5 155.5t63.5 151.5t62.5 114t30.5 96.5t-26.5 55t-61.5 8l-43 -2 q-29 0 -45.5 7.5t-16.5 33t21.5 29.5t38.5 4l110 -12l80 12l195 -12h16q2 2 17.5 7t17.5 5h135q23 -8 35 -18.5t12 -34.5v-13q-6 -6 -18 -6h-119q-84 -17 -98 -47q-39 -70 -59.5 -132t-40 -112.5t-32 -76t-25.5 -59.5t-24.5 -68.5t-20.5 -55.5q-21 -51 -21 -55v-14 q0 -23 14 -23q64 0 185 72q14 8 17 10q17 12 28 15q46 13 50 22q4 2 14.5 13.5t29 27t59.5 28.5t61.5 26t40 28.5t22.5 17.5q24 16 31 19q15 5 23 20q14 7 33.5 20t32 21t40 27.5t78.5 67.5q61 56 80 114q0 36 -26 57q-13 0 -121 9q-53 0 -53 30q0 70 92 70h16q32 0 53 -12 l359 4l168 -4q26 0 26 -35v-8q0 -12 -10 -17q-72 -43 -149.5 -70.5t-134.5 -59.5q-112 -62 -169 -100t-79.5 -57.5t-67.5 -43t-96 -52.5l-27 -16l-49 -25q-4 -2 -21.5 -14t-21.5 -19t-24.5 -19.5t-45 -23t-48 -20.5t-36.5 -16q-6 0 -6 -9l-145 -69v-15q0 -29 17.5 -44 t17.5 -44v-36l18 -72l29 -55l8 -25q32 -109 63 -183.5t42.5 -92t21.5 -48.5l8 -57q23 -72 51.5 -139.5t46.5 -141.5l19 -16l203 -16q2 0 15 -8.5t20 -12.5q10 -6 10 -29.5t-12.5 -33.5t-32.5 -19h-58q-41 0 -73.5 8.5t-71.5 12.5l-213 8h-17l-77 -8q-57 0 -79 14t-22 35 t20.5 27t44 11t44 15t20.5 49q0 58 -55 183q-2 4 -8 13l-8 12t-5.5 26.5t-12.5 61t-37.5 100.5t-42 98t-17.5 46t-8 25q-13 46 -29 79q-36 72 -39 81q-10 14 -20.5 29.5t-30.5 15.5l-10 -2q-6 -4 -20.5 -12t-17.5 -13q-34 -56 -41 -76.5t-9 -46.5t-8 -54.5t-37 -83 t-50 -103.5l-10 -43q-11 -42 -16 -53q-2 -4 -13.5 -27.5t-14.5 -26.5t-9 -24.5t-13 -47.5t-29 -71t-22 -75q0 -38 21 -64q12 -12 36.5 -18t50.5 -13.5t44 -20.5t16 -44q-20 -8 -51 -8t-59 8l-35 2q-20 0 -176 4q-13 8 -31 8l-63 -8l-72 10q-28 0 -52 -10q-43 -18 -62 -18 h-36q-16 0 -20 1t-18.5 10t-14.5 15q-10 10 -10 33z" />
<glyph unicode="L" horiz-adv-x="1779" d="M86 29v2q0 8 3 13t20.5 19.5t23.5 16.5l45 10q33 4 62.5 5t55.5 7q60 16 89 62q4 0 7 16.5t9 33t16.5 49t24.5 63.5l7 24q10 31 20 48.5t19 51t17.5 83t16.5 72t17.5 36.5t11.5 17t5 14.5t7 24t8 22.5t4 14q29 29 29 43v45q8 31 27.5 59.5t25.5 59.5l9 80q14 40 28 55 l8 64q4 6 10.5 18t16.5 30t13 35t9.5 35.5t10.5 26.5t9 17.5t9 16.5t22 60t19 58l8 57q4 14 13.5 27.5t18.5 27.5q24 36 24 58q0 54 -25 65q-4 2 -21.5 4t-25.5 4h-10q-4 0 -18.5 4.5t-16.5 6.5h-111q-18 6 -18 27t17.5 31.5t39.5 15.5q37 8 80 8l180 -11q108 0 172 11l27 6 q63 20 149.5 20t86.5 -33q0 -11 -16.5 -33t-23.5 -23t-32 -4t-52.5 -6t-52 -6t-45 -6t-51.5 -24q-9 -20 -13.5 -35.5t-9.5 -29t-8.5 -23.5t-5.5 -12l-8 -54q0 -8 -13 -31.5t-13 -33.5v-25q-4 -29 -15.5 -54.5t-11.5 -53.5v-13q-4 -4 -10 -17t-14 -27q-22 -41 -23.5 -53.5 t-2.5 -25t-2 -23.5t-6 -29.5t-18 -49.5q-28 -72 -39.5 -123t-21.5 -76l-33 -71q-2 -4 -6 -26.5t-8 -28.5l-23 -54q-16 -31 -24.5 -63.5t-15.5 -49t-14 -29.5t-14.5 -28.5t-14.5 -29t-17 -34t-17.5 -62.5t-16.5 -76t-17.5 -54t-15.5 -40q-15 -44 -15 -95v-35l10 -8h225l74 8 h16l64 -8h98l37 -10q20 0 25 10q24 -1 48 -1q124 0 234 35q132 42 228 165q0 2 8 10q16 10 25.5 14t22.5 24t30.5 46.5t46.5 32.5q14 -35 14 -74t-11 -70.5t-20 -64.5l-8 -53q-4 -10 -10 -38t-10 -37t-7.5 -24.5t-10.5 -30.5q-16 -32 -44 -32h-463q-47 14 -79 14h-19 q-48 -6 -55 -6h-13l-63 -2h-121q-158 0 -237 8l-45 10h-99l-45 -10q-78 -2 -155.5 -5t-155.5 -3l-62 2q0 -2 -6 2t-8 4q-4 8 -4 23z" />
<glyph unicode="M" horiz-adv-x="2377" d="M8 21.5q0 31.5 19 37.5l102 11q6 2 27 7q71 16 77.5 18.5t29 4.5t26.5 4l18 17q27 17 70 62.5t64 81.5q40 68 61 155q10 18 16 39.5t15 47.5q10 29 34 78q39 80 50.5 106.5t19.5 44.5t19 48.5t30 73.5t29 70q17 46 30 63q1 6 21 39q16 36 43 92.5t47.5 105t34 76t21 35.5 t14 23t22 48.5t28.5 70.5q33 93 42 135v2q-4 6 -22.5 23.5t-21.5 20.5q-11 11 -16 11l-40 2q-24 4 -39 4q-131 33 -131 78q0 31 57 31q59 -10 119.5 -13t110.5 -5.5t95.5 -3.5t86.5 -5q11 -5 36 -37v-43q-2 -4 -2 -6l-6 -37l2 -28l6 -33v-283q0 -9 4 -39l3 -32q2 -10 3 -48 t3 -82q4 -88 4 -149v-135l10 -109v-159q0 -64 8 -72q4 -14 8 -25.5t17 -11.5q6 0 16 20q16 31 27 40l61 63q0 2 4 7t9 14q8 18 16 26h-2q11 11 23 29q22 35 39.5 52t29.5 32q24 28 30.5 35.5t9.5 13.5t7 12t9 14.5t24 35.5q45 63 174 182h-2q16 45 50 83.5t56.5 62t30.5 33 t15.5 17.5t14.5 18q11 17 20 32q20 32 65 79q0 -6 4 1t7 10.5t4 8.5t11 15q15 16 15 21q0 2 6 8q8 32 26.5 42.5t20.5 12.5q16 25 35.5 48.5t27.5 35.5q25 38 46 65t42 60t40.5 56.5t36 37.5t18.5 14h377q6 0 14 -7t8 -15v-6q0 -29 -91.5 -29t-129.5 -96q-2 0 -11.5 -14.5 t-9.5 -18.5l-12 -53q-9 -44 -28 -78.5t-22 -43.5t-5 -21.5t-5 -28t-5 -30.5t-4 -24.5t-14 -62.5q-22 -105 -79 -253q-108 -283 -120.5 -335.5t-18.5 -60.5q-4 -16 -4 -22.5t-7 -16.5q-11 -16 -12 -20.5t-3.5 -27t-5.5 -28.5t-6 -8t-5 -6l-24 -43q0 -2 -9 -47 q-6 -16 -11 -33.5t-16 -49.5q-38 -111 -38 -173q0 -21 31 -21l40 2q15 -7 51 -12.5t40 -5.5h12q18 -2 27.5 -8t9.5 -29v-4q0 -28 -13 -33h-239l-51 10h-39l-21 -10l-33 -2q-44 -6 -59 -14l-153 -19h-33q-27 0 -54.5 6.5t-27.5 38.5v9q4 6 22.5 24.5t24.5 20.5q23 2 35 4 t20 3t13.5 2t13.5 1h10q10 2 43 8t51 16q35 18 78 146q10 18 17.5 36.5t15.5 32.5v3l4 8q2 2 5 4t5 6t4 6v29q0 13 5.5 28t7.5 23t4 13t11 29t21 50q25 56 31 74v8q4 8 7 17.5t14 11.5q31 105 59.5 184t34.5 100t18 55.5t18 71.5q8 39 17 81q14 60 27 95q22 65 33 117 q0 21 -13 43l-18 -12q-74 -62 -185 -205q-18 -23 -34.5 -42t-32.5 -37.5t-51 -55.5t-60.5 -69.5t-48.5 -64.5q-33 -47 -51 -67h2q-18 -36 -27 -45l-55 -53q-2 0 -9 -12.5t-8 -15.5t-5.5 -8t-8.5 -10t-6 -8q-6 -9 -8 -9v-5q-8 -4 -25.5 -20t-36.5 -31q-21 -17 -47 -28 q-7 -7 -30 -60q-26 -60 -38.5 -74t-25 -25t-27 -25.5t-26.5 -25.5q-25 -25 -41 -59q-75 -123 -154 -235q-10 -4 -20 -8.5t-21 -4.5q-28 0 -28 52q-10 78 -10 188v61q-26 364 -29 390v55q-2 53 -5 109.5t-20 107.5v248q0 2 -1 13t-2 23q-3 37 -14 55.5t-20 18.5h-4 q-16 -4 -18 -19t-6 -35t-8 -36t-19 -26q-4 -81 -39 -162q-2 -4 -3 -9t-3 -11q-8 -21 -20 -33q0 -4 -6.5 -13.5t-10.5 -24t-8 -28.5q-10 -35 -17 -63.5t-27.5 -56t-26 -38t-11.5 -20.5t-9 -25q-19 -101 -38.5 -147.5t-24 -59t-13.5 -32t-18 -47.5q-32 -102 -77 -207 q-27 -78 -27 -120t28 -56.5t61.5 -23.5t61 -22.5t27.5 -56.5q0 -14 -13 -21t-25 -7h-99q-14 -9 -39 -9q-45 15 -48 15t-11 2h-12l-82 -17l-70 -2l-33 -2q-6 -2 -18 -2h-23q-10 0 -26 4h-72l-76 -16q-35 0 -62.5 17.5t-27.5 49z" />
<glyph unicode="N" horiz-adv-x="2088" d="M59 25q0 43 26 50q11 3 27.5 2t28.5 2t37 9t33 8q0 4 4 7t7 4t14.5 5.5t24.5 8.5q31 10 37.5 14t25 9.5t22.5 9.5q39 45 77 91t55 86t18.5 70.5t8.5 46t13 28.5t13.5 28.5t14.5 29.5q11 21 13 35.5t4 18.5l10 26l27 56q0 2 3 14t6 28q8 43 12 48l45 88l6 39q23 49 45 98 t40.5 90t22.5 80t24 86t45 93t37.5 92.5t22 75t9.5 46.5v23q0 8 -3 8q-16 37 -99 71q-32 13 -71.5 17t-72.5 10q-82 15 -82 47.5t39 38.5q58 9 164 9q57 0 186 -11l90 -8q18 -9 38.5 -34t27.5 -31q0 -34 10 -46q6 -25 18.5 -48t22.5 -52q4 0 6 -11t3 -14q9 -27 9 -36 q0 2 10.5 -8.5t13.5 -22.5t10 -27.5t26 -36.5q30 -33 46.5 -89t28.5 -87q100 -196 107.5 -215.5t17.5 -46t24.5 -69.5t25.5 -65q16 -36 24 -46t18.5 -30.5t12.5 -22.5l6 -58q4 -10 18.5 -28.5t19.5 -26.5t13 -24.5t20 -31.5q29 -40 52 -40h6q34 48 43.5 95.5t14.5 78.5 t10.5 46t11.5 31.5t14 34.5q21 49 21 56q10 10 10 28.5t10 43.5l27 57l16 104q4 4 12.5 19.5t8.5 17.5l45 119q0 4 7 19.5t9 18.5t5 19.5t5 24.5v35l27 71q16 50 16 127v37q-59 69 -184 76q-35 2 -68 6l-8 8l-10 21q-4 8 -5 16t8 26.5t26 18.5l206 -4h29l129 -4l68 8h190 q2 0 21.5 4t23.5 7h33q78 0 78 -41t-33 -50.5t-65 -9.5h-50q-9 -3 -44 -13q-71 -19 -79 -28.5t-20 -23t-27.5 -29.5t-28 -30.5t-18.5 -20.5q-10 -33 -16 -64.5t-21.5 -67.5t-43 -86.5t-38 -76t-12.5 -45t-4 -22.5q-6 -9 -6 -17q-20 -40 -21 -49q-6 -56 -10 -58 q-4 -29 -20.5 -48t-20.5 -34q-12 -43 -12 -57t-10 -14q0 -18 -19.5 -77.5t-29 -88.5t-12.5 -34t-10 -18.5t-14 -28.5t-14.5 -28.5t-8.5 -16.5t-3 -20.5t-5 -38t-6 -37t-7 -40t-20.5 -48t-23.5 -44t-11 -35.5q-5 -25 -13 -33v-10q20 -76 53 -111q2 0 10.5 -4t17.5 -8t17.5 -7 t10.5 -5l16 -19q25 -18 129 -39q20 -2 41 -3t38 -7q40 -14 40 -55v-25q-29 -15 -49.5 -18.5t-38.5 -7.5q-51 -9 -60 -9h-8l-37 11q-58 12 -98 18h-180h-4q-37 0 -62 37l-8 24q-16 40 -17 44.5t-8.5 15t-14.5 23.5q-17 30 -30.5 51.5t-26.5 64.5t-47 129t-93.5 215 t-109.5 247.5t-89 225.5t-98 207q0 2 -7.5 17.5t-10.5 18.5q-8 8 -44 26h-10q-31 -22 -35 -45t-9 -34t-13.5 -35t-14.5 -31q-17 -19 -20.5 -43.5t-5.5 -29t-13.5 -27t-20.5 -45t-15.5 -63.5t-24.5 -82q-9 -12 -11.5 -17t-4.5 -7l-19 -139q-29 -31 -40 -73t-17 -62.5 t-14.5 -36t-11.5 -19.5q-9 -12 -17 -72l-6 -59q-6 -20 -15.5 -32.5t-16.5 -23.5q-18 -30 -18 -64q0 -52 19 -118q10 -23 41 -29.5t41 -12t21.5 -7.5t24.5 -5q30 -7 46.5 -9t39.5 -4t45 -9q47 -14 69 -59v-10q0 -33 -35 -50q-23 -11 -64 -11h-47l-135 10q-31 2 -45 4t-51 4 h-183l-36 -2q-6 0 -20.5 -1t-30 -2l-31 -2t-36 -3t-48 -10.5t-60.5 -8.5q-82 0 -82 54z" />
<glyph unicode="O" horiz-adv-x="1630" d="M305 526.5q0 80.5 10 100.5l-2 32q0 10 2 11l7 39v43q4 4 11 19t18 39t20.5 74t23 74.5t24.5 43t23 40.5q31 58 34 62t9.5 19.5t8.5 17.5t7 8t11 13q18 21 21 25.5t8.5 20t12.5 29.5q20 39 40 39l209 207q23 10 37 26.5t25 23.5t21.5 12t23.5 11q31 17 36 17 q23 14 44.5 29.5t47 25.5t54 14.5t55.5 22.5q6 2 26.5 5t43 8t44 8.5t29.5 5.5h35q11 -11 82 -11h37l53 -26q17 0 23 -6t17 -11.5t23 -10.5q30 -12 35 -17q2 -2 14.5 -5t14.5 -4.5t8 -4.5t8 -5q2 -4 13.5 -22.5t13.5 -21.5t10.5 -11t17.5 -18q22 -23 27 -23l7 -22 q104 -169 104 -357l-2 -31q0 -10 -3 -34.5t-6 -52.5q-11 -109 -26 -138q-2 -4 -6 -15t-9 -25q-14 -37 -14 -42q-29 -57 -38 -69q0 -12 -17 -29l-6 -62q-20 -55 -58 -100t-61 -98q-10 -10 -33.5 -38t-51 -57.5t-52.5 -56t-32 -34t-16 -22.5t-15 -21t-26 -15.5t-26 -15.5 t-15 -12.5t-19.5 -14.5t-18.5 -14t-11 -8t-13.5 -13.5t-14.5 -11.5q0 -10 -26 -10q-35 -16 -72 -33.5t-74 -28.5q-5 -10 -43 -10q-77 -31 -119 -31h-67h-53t-52 4q-23 14 -44 12.5t-47 5.5t-54.5 23.5t-41.5 24.5t-28.5 15.5t-15.5 9.5q-38 25 -100 108q-14 16 -32 36.5 t-30 68t-25.5 106.5t-13.5 139.5zM551 465q0 -53 5 -108.5t9 -108.5q10 -20 23 -29q2 -4 11 -22.5t12 -21.5t19 -13q18 -11 26 -20t15 -17q18 -21 21 -21l56 -18q2 -4 17 -10t17 -8h35l27 -2q20 0 30 10l146 16q2 4 6 6t5 3t5 3t22.5 13.5t22.5 11.5l27 8q4 4 14.5 10.5 t13.5 10.5q15 20 38.5 48.5t73.5 81.5q59 63 93 132q62 80 138 225q8 16 8 25q4 4 5 19.5t4 18.5t10 16t14.5 28.5t14.5 29t7 17.5l17 90q8 8 8 24q37 129 37 138v53l12 90l-12 29q-4 43 -5.5 85t-8.5 70.5t-18 43t-25.5 28.5t-29 27.5t-21.5 24.5t-10 18.5t-6 13.5 q-9 18 -52 29q-69 17 -76 20l-19 8h-8q-51 0 -118.5 -30.5t-80.5 -38.5q0 -2 -3 -5t-5 -8q-4 -2 -17.5 -8t-28.5 -14q-39 -21 -44 -21q-33 -20 -59.5 -54t-37.5 -47t-31.5 -37.5t-59.5 -71t-58 -74.5q-32 -44 -45 -70q-2 -2 -13 -12t-11 -15l-11 -45q0 -2 -5 -12l-11 -22 q-16 -34 -22 -43l-43 -95q-27 -78 -37.5 -159.5t-18.5 -123.5t-8 -44v-4l2 -11z" />
<glyph unicode="P" horiz-adv-x="1826" d="M367 28q0 28 29.5 41t69.5 19t79 7t49 2q19 2 25 6.5t16 15t21 23.5q29 30 34 38q20 47 33.5 98.5t25 77t21.5 48t14 30.5l9 45q2 4 12 26.5t13 25.5q9 9 10 27.5t7.5 36t12.5 35.5q14 39 17 44.5t14.5 29t15.5 29.5l25 78q2 6 6 18.5t8 23.5q10 27 10 32q83 191 137 381 l11 20q41 66 57 130.5t25.5 103t12.5 49t6 20.5q7 23 7 31v4q0 17 -24 41q-40 8 -78 8h-6q-14 0 -55.5 -8t-45.5 -10l-151 -15q-23 -18 -39.5 -24t-42.5 -23q-11 0 -23 -12t-25.5 -23.5t-26.5 -23.5t-23 -22q-15 -12 -21 -25.5t-10 -18.5v-12q0 -23 18.5 -41t28.5 -41 l26 -61v-4q0 -63 -45 -108.5t-93 -45.5t-74.5 16.5t-43.5 42.5q-34 51 -34 118.5t28.5 133.5t74.5 124q135 169 307 182q44 4 85 4h60l133 -11h235l66 -10q29 -4 59 -4h62l137 2q52 0 90.5 -4t73.5 -14.5t71 -24.5q81 -32 113 -70q25 -38 47 -65q69 -107 80 -214 q4 -38 4 -87l-4 -90q-2 -6 -13.5 -34t-15.5 -38l-43 -90q-10 -23 -18 -47.5t-26.5 -42.5t-39 -29.5t-34 -21t-32 -22.5t-34.5 -27q-20 -18 -61 -33q-77 -28 -93 -41q-55 -19 -153 -19h-31q-115 0 -240 29l-53 18h-71q-24 -14 -31.5 -36.5t-13 -41t-9.5 -39t-8 -39t-4 -24.5 q-20 -23 -24.5 -45t-15.5 -60t-36.5 -87t-42.5 -101l-18 -100q-4 -27 -19.5 -51.5t-15.5 -57.5v-6q0 -10 6 -10l195 -18q20 -2 37.5 -16.5t17.5 -36t-10 -33t-24 -16.5q-21 -7 -64 -7h-41l-88 16l-78 5l-49 -2l-127 -9q-2 -2 -8 -2h-13q-8 0 -16 -2h-6q-46 0 -123 10 q-3 5 -37 5l-35 -5h-20q-25 0 -56.5 11.5t-31.5 39.5zM1227 879q0 -15 2 -21q0 -8 8 -8q2 -2 19.5 -4t24.5 -5t31.5 -5t35.5 -5h4q135 0 261 52.5t214 156.5q2 0 4 6.5t5 13.5t15.5 33.5t25.5 55.5t25.5 53.5t16.5 34.5v63q0 67 -15.5 96t-28.5 49.5t-22.5 34t-12.5 26 t-5 15.5t-14.5 12t-13.5 13q-10 40 -14.5 45.5t-20 12t-34.5 17.5q-27 16 -96 34q-10 4 -34.5 16t-40.5 12h-21q-49 0 -63 -28q-4 -2 -15.5 -23.5t-11.5 -27.5q-11 -22 -20 -58l-27 -61q-6 -20 -22.5 -72.5t-34.5 -112.5q-46 -147 -62 -188q-63 -102 -63 -213v-20z" />
<glyph unicode="Q" horiz-adv-x="1560" d="M10 -71.5q0 22.5 3 43t12.5 36t26 29.5t29.5 25.5t24.5 21.5t25.5 22.5t27 23.5q21 19 48.5 28.5t77.5 31t97 25.5h100l35 8q8 0 16 2l23 2q158 0 305 -39q2 0 16.5 -7t18.5 -9t31 -20l69 -7q4 -2 26.5 -7t27.5 -5h18q29 12 69 33.5t50 56.5q14 14 33.5 28.5t31 24 t15.5 12.5t10 18.5t7 18.5t9 13t32 48t67 112q47 82 70 178q5 19 7 44t7 30q6 20 14 38.5t12 40.5l8 101q11 129 11 190v35q-19 38 -29 71t-23 90q-23 108 -86 159l-20 16t-16 11t-13.5 9.5t-23.5 15.5q-41 23 -71 23t-54.5 -6t-36.5 -8t-34.5 -14.5t-32 -17.5t-17.5 -12 t-12 -10t-19.5 -10.5t-18.5 -10.5t-12.5 -9t-19.5 -13q-23 -16 -29 -21t-29.5 -15t-26.5 -12q-23 -15 -30 -15q0 -2 -6 -5t-13 -5t-14.5 -6t-17.5 -8t-16 -8.5t-12.5 -9.5t-12.5 -13t-16 -21.5t-17.5 -22.5t-13.5 -19q-8 -13 -37 -38q-40 -36 -75 -90.5t-39.5 -60.5 t-7.5 -11t-5 -10.5t-8 -15.5q-10 -72 -10 -118.5t8 -100.5l8 -31q0 -2 1 -9t2 -16q3 -24 10 -43q19 -54 49 -95.5t39.5 -62.5t20.5 -36q23 -33 87 -33h8q41 0 66.5 10.5t34 13.5t13.5 6t17.5 7t16.5 8q2 4 11 28t12 27t9.5 12t10.5 11q3 8 19.5 23.5t20 23t12.5 30t24.5 51 t15.5 75.5v6q0 74 -35 74q-13 0 -42 -15q-54 -30 -71 -30h-10q-86 19 -113 56q-12 18 -12 62.5t12.5 81.5t75.5 60q22 12 41 12q12 0 28.5 -7t31 -11t40 -10.5t42.5 -20.5q12 0 44.5 -32.5t41.5 -43t19.5 -38t17.5 -58.5q14 -56 14 -125t-51.5 -143t-112.5 -125 q0 -4 -17.5 -13.5t-30.5 -18.5t-50 -19.5t-60 -17.5q-44 -13 -75 -13q-44 0 -75.5 6t-58 9t-60.5 27t-77 68t-76 97q-71 117 -71 223v10q12 193 50 270q67 137 150 230q17 12 26 20.5t17.5 15.5t10.5 9t10 9t17 16q13 13 48 46t109 66t109 48q65 26 67 30q31 8 96 8h158 q133 -37 207 -82q4 0 17.5 -10t17.5 -13t15 -13.5t23.5 -20.5t22.5 -21q18 -18 33 -18l8 -18l8 -11q11 -27 37 -53l6 -26q2 -4 5 -11.5t8 -7.5q0 -7 25.5 -47.5t26.5 -42.5q8 -16 13.5 -61.5t5.5 -49.5v-92q0 -88 -7 -173t-27 -139q-53 -136 -66 -136l-6 -45q0 -2 -5 -9.5 t-10 -9.5q-49 -97 -77 -135q-16 -27 -37 -48.5t-37 -49.5l-154 -156q-8 -12 -30.5 -31.5t-22.5 -29.5v-11q21 -21 37 -45q20 -26 28.5 -31t18.5 -9.5t21 -9.5q30 -13 34 -13q2 0 17.5 -12.5t22.5 -17.5t18 -14t40 -12t41.5 -11.5t24.5 -15.5t26 -16q36 -26 44 -26 q4 -4 25.5 -10t35 -12t36 -18.5t89.5 -41.5q108 -47 264 -106.5t185.5 -62.5t58.5 -4q76 -3 117 -24h24l80 -2h60l77 2h19l55 7h17l84 12l45 2q4 4 18 7t18 9q5 0 17 6q47 34 47 177q0 39 -13.5 56t-28.5 28.5t-27.5 27t-12.5 49.5v25q2 4 19.5 22.5t25.5 20.5l29 8l35 -2 q30 0 34 -4q57 -23 84 -47.5t27 -91.5v-19q0 -14 -4 -14q0 -84 -10.5 -101.5t-18.5 -31.5q-20 -35 -24 -39q-7 -24 -18 -31.5t-20 -14.5t-20.5 -14.5t-21.5 -14.5t-13.5 -9t-12.5 -9t-21 -17q-30 -25 -33 -25l-148 -90q-70 -47 -157.5 -56.5t-167.5 -17.5l-64 -8h-12 l-102 -2l-97 8h-18l-51 12q-19 4 -29 5t-20.5 3t-26.5 4q-61 7 -111 35q-72 31 -200 99q-11 0 -45.5 16t-62.5 35.5t-64 36.5l-25 8q-7 7 -22 15.5t-28 19t-25.5 20.5t-22.5 18.5t-13 8.5q-8 8 -20 29.5t-33 23.5l-135 129q-27 7 -56.5 36.5t-48 40.5t-50 11t-62.5 -22.5 t-52.5 -32.5t-40 -20.5t-37.5 -20.5q-50 -25 -63 -29q-4 -4 -25.5 -11t-25.5 -7l-63 -8q-5 -5 -33.5 -17t-53 -21t-76.5 -12.5t-99 -15.5h-207q-25 0 -51.5 7t-49.5 11q-38 13 -82 50q-42 33 -47.5 63.5t-5.5 53zM246 -39v-6q15 -34 27 -39q27 -13 40 -25h4 q20 -7 69.5 -12.5t55.5 -5.5l43 -4h11q16 0 25 2t21.5 4t25.5 5q28 6 38 11l45 25q20 10 58 10q16 8 24 8q4 4 22.5 10.5t22.5 10.5q29 6 91.5 47t62.5 45q0 42 -72 54q-18 3 -52 15.5t-86 29t-119 16.5q-107 0 -249 -64q-64 -29 -108 -137z" />
<glyph unicode="R" horiz-adv-x="1615" d="M102 54q0 17 21.5 26.5t36.5 9.5h6l72 -8h20q35 0 73 7t50 46q2 4 7 18.5t14 34.5q23 53 29 79q18 71 34 112t24 70l9 57l28 90q0 44 37 100l25 88q20 20 23 36t7 28q9 33 13 49.5t17.5 42t29.5 87.5q65 241 122 371q11 23 15 27l10 29q0 41 9 53q8 33 22 65t14 66v13 q-12 31 -55 32q-40 -4 -75 -4q-57 0 -113 4q-29 4 -29 41t35 54h131l63 -2h15l98 -15l66 6h16l72 -6l49 2l80 2h26l58 -4q85 0 202 -37q2 -2 13.5 -9t21.5 -14t41 -12.5t36 -12.5t12 -23.5t11.5 -22.5t6.5 -18.5t4 -17.5q17 -43 23 -48q18 -14 30 -39q6 -3 7 -11.5t4 -22 t7 -28.5q9 -41 9 -56q10 -15 10 -60v-10q0 -39 -11.5 -61.5t-25.5 -47.5q-14 -35 -19.5 -70.5t-30.5 -76.5q-41 -66 -175 -154q-38 -9 -56 -24l-61 -17q-12 -6 -28.5 -15t-27.5 -14q-26 -11 -26 -22v-33q10 -39 22.5 -75.5t19.5 -61t12 -38t7.5 -32t7.5 -27.5t12 -20.5 t7 -15.5q16 -23 17.5 -44t11.5 -46q4 -4 15 -25.5t18 -40t23 -62.5t37 -87q54 -106 116 -119q24 -8 46 -8h38q59 0 59 -49q0 -14 -4 -26.5t-23 -12.5h-253l-35 6h-19l-35 -6l-4 -4q-47 0 -69 26q-20 31 -25.5 68t-13.5 56.5t-13.5 31.5t-11.5 26q-28 68 -31.5 94.5t-24 73 t-46 116t-51.5 139.5q0 20 -9.5 44.5t-25 55.5t-37.5 55q-47 55 -115 55h-37q-45 -39 -58 -87t-18.5 -79.5t-13.5 -62.5q-6 0 -57 -153l-45 -91l-14 -141q-4 -4 -12.5 -26.5t-8.5 -26.5l-2 -23q0 -35 101 -61q24 -6 38 -8l54 -9q8 -4 22 -22t14 -26.5t-8 -14.5t-20 -10 q-22 -8 -39 -8h-15l-110 12l-45 6l-98 -6q0 -4 -11 -4h-22.5t-9.5 4l-66 6l-107 -6q-2 -4 -11 -4h-19q-6 0 -6 4q-6 0 -24.5 1t-38 2l-39 2t-30.5 3t-30 18.5t-19 33.5zM887 950q0 -22 9 -34.5t22 -21.5q27 -20 53 -20h6q42 21 45 21h2l47 -10q23 0 41 9t37 15l98 37 q20 8 36.5 18.5t27 15.5t26.5 13l109 109q8 22 14 36q12 26 18.5 44t12.5 42.5t10 28.5l8 82l11 29v18q0 29 -10.5 70t-19.5 53.5t-15.5 20.5t-13.5 17t-14 17q-10 13 -20 27.5t-20 26.5t-19.5 23.5t-13.5 13.5t-13 6t-21.5 8t-23.5 8t-13 4l-19 11h-20q-47 0 -85 -7.5 t-67 -48.5q-2 0 -5 -11t-3 -15l-29 -33l-8 -92q0 -6 -11 -29q-22 -41 -28 -69q-12 -55 -17 -74t-18.5 -44.5t-21.5 -54.5q-18 -41 -30.5 -80.5t-24.5 -75.5q-29 -82 -29 -104z" />
<glyph unicode="S" horiz-adv-x="1236" d="M129 37q0 60 25 122q53 135 57 155t7 35.5t6 32.5q8 47 11 56.5t9 35.5t15 50q22 58 60 58l19 -4q8 -2 24.5 -17.5t20.5 -20.5q12 -16 20 -57v-65l9 -21q25 -61 49 -117.5t68 -111.5t111 -92t127 -37t108.5 21.5t90.5 55.5q93 75 117 158q11 53 11 86v95q-6 43 -58 123 q-10 20 -21 43.5t-24 42.5q-25 13 -28 18q-14 10 -19.5 26.5t-13.5 24.5q-15 15 -23 16q-18 2 -47 30t-65.5 59.5t-70.5 66.5q-81 83 -112 154q-4 10 -11 26.5t-7 20.5q-2 4 -6 19.5t-10 32.5q-13 43 -14 50q-5 29 -19 58v28q0 52 15 100q16 52 32 79t27.5 59.5t31.5 56.5 q86 111 283 180l45 9l98 8l45 12l29 -12l86 -8l56 -34q26 -15 30 -17t16.5 -12.5t25.5 -25t24.5 -26.5t15.5 -18h10q15 0 32 35q39 80 62 94l9 4q26 0 41 -9q8 -16 8 -26v-2q0 -52 -21 -115l-16 -37q-3 -3 -8.5 -24t-9 -30t-8.5 -24.5t-18 -40t-21.5 -46t-18.5 -61.5 t-24 -80q-37 -101 -76 -101h-17q-10 88 -10 149t4 107l-23 57l-34 45l-21 57q-37 103 -217 103q-41 0 -70 -16l-81 -48q-87 -50 -109 -194q-6 -39 -6 -74t17.5 -82t42.5 -92q61 -108 112 -145q2 -2 18.5 -8.5t19.5 -9.5t11 -9t17.5 -13.5t16.5 -14.5t11 -9l152 -151 q6 -20 16 -30.5t28 -38.5t32 -56.5t23 -56.5q15 -48 15 -121.5t-14 -137t-40 -123.5q-57 -133 -146 -204q-2 0 -28 -14.5t-38 -21.5q-48 -28 -74.5 -38t-55 -11t-50.5 -18h-57q-188 0 -302 57q-4 2 -10 9.5t-9 9.5t-3 4l-2 6l-4 8q-37 37 -77 59.5t-75 63.5h-8q-12 0 -20 -8 q-16 -23 -29.5 -47.5t-29.5 -44.5q-37 -43 -93 -43z" />
<glyph unicode="T" horiz-adv-x="1845" d="M473 1327v43q0 55 21.5 103.5t39 91.5t23.5 76.5t12 68.5q14 84 49 133q14 19 37 19q51 0 78 -19q2 -2 10.5 -10t17.5 -17q34 -36 46 -36q57 -19 80 -19h110l17 8h10q229 -16 346 -16h51l64 8q28 0 80 -8l28 -8h516q14 0 55.5 17t78 40t71.5 23q21 0 21 -43v-17 q0 -45 -21.5 -89t-34 -69.5t-16.5 -42t-7 -36t-7 -43t-8.5 -43t-4.5 -25.5q-10 -5 -10 -35l-8 -55q-12 -6 -18 -19.5t-11.5 -28.5t-11.5 -31q-15 -38 -34 -38t-19 9v237q-15 30 -15 43l-10 37q-31 74 -172 90q-35 4 -63 8h-279q-29 0 -59 -72q-24 -57 -31 -100 q-4 -4 -19 -49q-27 -86 -30 -92l-8 -59q-26 -77 -45 -107l-17 -29v-22q-10 -56 -25.5 -91.5t-25.5 -58t-18 -45t-18.5 -56.5t-22.5 -69q-34 -94 -35.5 -110.5t-3.5 -26.5t-3 -20.5t-3 -12.5l-35 -55q-23 -41 -29 -85t-27 -91q-42 -98 -71 -195l-10 -34v-11q22 -22 30 -26 q97 0 142 -13q120 0 120 -53q0 -43 -30.5 -56t-65.5 -13h-49l-227 10h-82l-25 8l-209 -18h-35l-108 10q-31 3 -31 37v10q0 6 4 6q0 2 17.5 19.5t23.5 25.5q29 23 79.5 23t72.5 -8.5t45 -8.5h18q15 0 29 15.5t23 23.5l6 29q20 47 27 94t18.5 71.5t18.5 38t14.5 29t14.5 28.5 t7 17l10 52q0 11 25 36q4 4 6 30t6 30q10 43 28.5 84t26 64.5t10.5 31.5t6 19.5t6 20.5t10 34.5t27.5 73t36 90.5t22.5 81.5t22 75.5q4 2 12 13.5t13 17.5t5 11t5.5 21.5t11.5 35t11 36t7 20.5t9.5 13t8.5 12.5t4 12.5t6 20.5t6 19.5t3 11l45 117q8 16 8 33.5t-2 17.5v4 q0 4 -13 16.5t-19 17.5q-12 11 -29 11l-17 8h-200q-37 -14 -71 -15t-67 -8q-35 -7 -116 -48q-6 -6 -6 -9q0 -2 -14.5 -18.5t-38 -35.5t-41 -38.5t-25.5 -31t-17 -23.5q-21 -26 -30 -35l-51 -51q-12 -12 -32 -12t-32 18z" />
<glyph unicode="U" horiz-adv-x="1789" d="M375 420q0 74 6 92q15 44 22 51q16 47 20.5 95.5t11.5 83t20.5 58t21.5 46.5l15 61q2 8 11 28.5t11 25.5v4q0 4 2 7t10 35.5t20.5 94t28.5 123t39 122t33 92t14.5 44t9.5 27.5q12 35 15 38v76q-18 20 -34.5 25.5t-36 8.5t-44 5t-47 5t-57.5 7l-45 37v8q0 47 74 47t144 -6 q53 -5 107 -5q18 0 35 1q34 -6 60 -6t59 6h254l16 -28v-7q0 -59 -163 -80q-50 -6 -62 -18l-12 -12q-4 -8 -13.5 -28.5t-13.5 -27.5l-6 -51q-2 -4 -10 -19.5t-13 -31t-9.5 -42t-10.5 -44.5q-19 -57 -20 -62q-7 -22 -19 -34v-23l-63 -231q-4 -4 -4 -29q-2 -2 -7.5 -17.5 t-9.5 -17.5q-20 -59 -33.5 -118.5t-24.5 -101.5t-21 -66q-17 -37 -19 -53.5t-4 -28.5q-4 -22 -4 -31q-8 -12 -8 -18.5t-3 -8.5v-4q0 -84 22 -146.5t47.5 -97t43 -56t22.5 -28.5q14 -20 21 -20q2 -2 12.5 -5t14.5 -5t19.5 -9t33.5 -17q48 -25 53 -25l94 -11q2 -2 21 -2h45 q25 0 32 8.5t27 20.5l29 8q106 43 227 199q58 76 63 86t9 12q0 41 6 56q18 18 27 36q41 59 55 133t33 140q10 23 21.5 44t14.5 34.5t6 24.5t6 25.5t6 26t10 40t29 78.5t34 102q14 41 19 81.5t20 75.5l35 82q2 2 2 26v72q0 30 -11.5 53t-16.5 36l-9 22q-10 16 -38 22.5 t-44 12.5q-78 11 -172 16q-20 18 -20.5 48t28.5 38t61 8l54 -2l184 -10q32 0 47 10q20 -2 39 -2h41l317 9h56q3 0 21 -10q32 -16 32 -29q0 -2 -2 -2v-2l-2 -2q-15 -24 -45.5 -27.5t-49.5 -3.5t-30 -3q-40 -11 -53.5 -16.5t-31 -11.5t-21.5 -9q-8 -5 -54 -28l-35 -6 q-4 -4 -7 -6t-10 -15.5t-23.5 -39t-28.5 -58.5t-23.5 -73.5t-24.5 -72t-26.5 -56.5t-17.5 -40.5t-5.5 -23.5t-3.5 -18.5t-3 -20.5t-2 -14t-5 -19.5l-8 -31t-8 -28.5t-4 -20l-11 -26l-8 -25v-10q-35 -70 -35 -72v-10q-10 -20 -10 -45l-18 -37q-14 -35 -22.5 -68.5t-15.5 -51 t-11 -25.5t-8 -17q-10 -21 -15 -26q-10 -23 -11 -36t-9 -43t-24.5 -65.5t-27.5 -72.5l-28 -82q-2 -2 -10.5 -13.5t-17.5 -23.5q-25 -33 -28 -35q0 -4 -6 -14t-8 -15q-5 -2 -15 -23q-19 -35 -28 -44l-20 -19q-24 -25 -33 -28q0 -2 -7 -8.5t-15.5 -14.5t-16.5 -14t-11 -9 t-13.5 -10.5t-12.5 -11.5q-43 -23 -84 -51.5t-88 -36.5h-29l-98 -16q-26 -13 -37 -13h-18l-72 13q-127 6 -182 26l-27 17q-31 12 -64.5 19t-62.5 28q-190 135 -190 342z" />
<glyph unicode="V" horiz-adv-x="1925" d="M244 36q0 36 9 55.5t14 33.5t7 33q2 17 11.5 29t9.5 14q4 0 21 40t36 84t29 70.5t15 38.5t10.5 26.5t10.5 27.5q11 27 37 108q72 227 195 508q10 10 10 26q12 53 25.5 123t35 116t43 82t21.5 71.5t-10 40.5h-6l-37 -11l-10 2q-25 0 -88.5 8.5t-72.5 12.5t-23.5 18.5 t-14.5 30.5t12.5 28.5t31.5 19.5q29 11 69.5 11t82.5 -16t79 -16t64.5 11t60 11t53.5 -10h115q101 29 152 29q101 0 101 -58q0 -23 -19 -32t-36 -13l-98 -6q-2 0 -19.5 -4t-38.5 -8q-62 -11 -69 -15q0 -6 -9.5 -30.5t-19.5 -52t-19 -52t-18 -45t-24 -44t-21 -42.5 q-12 -40 -12 -61l-47 -119q0 -4 -7 -30.5t-15 -45t-22.5 -45t-29.5 -57.5q-5 -27 -14.5 -52.5t-14 -40t-5.5 -17.5t-2 -12t-3 -19.5t-3 -19.5t-2 -11t-8 -13.5t-13 -26.5q-33 -79 -33 -151q0 -19 -6 -39q-19 -19 -19 -34t25 -15l18 6q8 4 27.5 26t23.5 27q13 14 22 27 t17.5 20t17.5 14t17 13.5t11.5 8.5t13.5 13t23 24l28 28t19.5 18.5t20.5 16.5t19.5 15t11.5 9.5t10 6.5t7 8q6 0 27.5 22.5t33 32.5t14.5 13t18.5 10.5t17.5 9.5l8 27q8 8 24.5 18t42 36.5t48.5 54.5q77 91 112 113q36 22 45.5 26.5t18.5 12.5q17 18 30 31t15 17l16 6 q16 12 23.5 28.5t48.5 43.5q108 73 219 192q4 6 15.5 22.5t11.5 26.5v4q-36 51 -211 87q-31 6 -33 12v18q0 35 15.5 41t45.5 14l37 9q4 -2 14.5 -4.5t14.5 -4.5l170 -4q25 -4 45 -9t55 -5q33 8 66 8h188l135 10q74 0 105 -31q12 -12 12 -26q0 -35 -8 -43q-36 -18 -49 -18 h-135q-9 -9 -29.5 -11t-42 -4t-34.5 -7q-37 -14 -43 -23q-16 -21 -30 -21l-45 -18l-53 -33q-18 -10 -33.5 -16.5t-49 -37t-85 -83t-78 -77t-41 -33.5t-66.5 -47q-56 -41 -319 -286l-24 -16q-4 0 -11.5 -4t-7.5 -8q-2 0 -10 -8.5t-17.5 -17.5t-16.5 -17.5t-9 -10.5 q-4 -2 -15.5 -8t-15.5 -8q0 -12 -16 -20l-16 -23q-41 -35 -90.5 -63.5t-94.5 -55.5q-22 -37 -32.5 -44t-10.5 -11q-6 -4 -28.5 -14.5t-26.5 -12.5q-2 -4 -13.5 -18t-13.5 -19q-31 -31 -67.5 -55t-67.5 -53q-41 -33 -78 -71t-69 -66q-49 -43 -85 -72t-54.5 -45t-40.5 -35 q-35 -30 -60 -55q-12 -6 -30.5 -20.5t-37.5 -14.5q-32 0 -32 36z" />
<glyph unicode="W" horiz-adv-x="2576" d="M246 35v63q0 16 5 27.5l10 23t10 23.5q13 32 20 35q4 6 10 23.5t8 21.5l6 37q4 4 15.5 23.5t15.5 23.5l23 82q14 29 35.5 64.5t29.5 68.5l8 65q10 37 30 73t28 54.5t12 28.5t8 22.5t8 23.5t5 16.5t7.5 14.5t14.5 21q16 23 23 41l12 64q6 31 18.5 51.5t20.5 37.5t14 36.5 t13.5 43t13.5 43t9 24.5t13 27t22 46q32 63 36 74l8 24q8 27 24.5 56.5t31.5 59.5q38 76 38 118v29q-13 20 -21 20h-180q-16 0 -22 21.5t-6 29.5q0 43 33.5 54.5t66.5 11.5l86 -12h4q13 13 64 12h18l72 -12h139q74 0 131 12l20 6l3 2l6 2q61 0 98 -40q12 -13 12 -33 t-27.5 -29t-63.5 -14t-71.5 -8t-54.5 -15q-23 -10 -26 -29.5t-11 -42.5q-6 -6 -8 -6q-4 -8 -9 -26.5t-8 -28t-3 -11.5l-17 -26q-16 -35 -24.5 -69t-27 -79.5t-48 -104.5t-47.5 -120l-25 -96q-27 -63 -59.5 -118.5t-47 -89.5t-16.5 -47.5t-6 -17.5l-43 -137q-2 -2 -7 -21.5 t-8 -28.5t-7 -13t-4 -15.5t2 -11.5h6q27 18 35 18q19 19 34 31q20 16 30.5 25.5t22 16.5t15.5 11v2q0 7 6 13q4 10 8 11q34 9 39 20q9 4 37 35q54 57 58 61t12 7t17 7t17.5 8t10.5 4q80 80 92 95q2 0 15.5 10t17.5 13t16 10.5t42.5 35t83 81.5t112.5 112q4 0 15 6t15 8 q23 23 29 45.5t17 35.5q22 28 26 28q2 4 8 18q9 21 26 36t26 28q20 30 30 63t16.5 49.5t14.5 37.5q19 47 24 58q6 25 11.5 36.5t5.5 35t-27.5 32.5t-59.5 14t-59.5 13.5t-27.5 32.5q0 51 55 52q36 0 92 -9h406q51 0 62 -11t11 -26l-2 -10v-4q0 -4 -17 -15.5t-23.5 -14.5 t-17.5 -5t-13 -4h-82q-14 0 -40 -15.5t-30 -27.5q-4 -4 -7 -23.5t-4 -22.5q-8 -23 -20 -38q-25 -43 -40 -91t-31 -95q0 -17 -12.5 -40.5t-14.5 -28.5t-12 -36.5t-22 -68.5q-39 -114 -56.5 -146t-22.5 -44.5t-4.5 -40t-10.5 -58.5t-30.5 -71t-35.5 -82q-41 -103 -41 -147 t10 -44t26 8q8 15 15.5 20t23 18t32.5 29q41 39 45.5 41.5t17 14.5t26 26.5t24.5 27t15 16.5q5 3 30 25q44 39 54 44q8 10 14.5 17.5t10.5 21.5q10 10 38.5 38t60.5 59.5t60.5 60.5t35.5 35t18.5 17t25.5 24q32 29 38.5 33.5t21 20t32 32t30.5 31t51.5 51.5t111 99 t137.5 138l8 21v4q0 10 -7 23.5t-11 27.5q-10 12 -20.5 27.5t-24.5 24.5t-42 15.5t-55 14.5q-67 20 -67 49q0 55 102 55q21 0 77.5 -7t101.5 -9t92 -8l37 -11h6l129 11h51l109 -11q10 -8 24 -20t14 -28t-28 -25q-15 0 -54.5 -8.5t-43.5 -9.5t-13.5 -4t-20.5 -7 q-27 -9 -32 -14q-131 -51 -180 -100l-17 -17q-2 -4 -10 -15.5t-8 -15.5q-18 -20 -42 -33.5t-40 -35.5q-4 -2 -10 -14.5t-6 -14.5q-4 -2 -13.5 -11.5t-20.5 -19.5q-24 -22 -35 -36.5t-19.5 -23.5t-14.5 -17q-7 -10 -17.5 -19.5t-22.5 -20.5q-14 -15 -23 -25q-17 -19 -17 -26 q-8 -6 -27.5 -22.5t-41 -34.5t-40 -34.5t-34 -29.5t-31.5 -39t-32 -49l-54 -53q-53 -43 -101 -86t-99 -86l-17 -16q-31 -31 -47 -51.5t-18 -22.5l-25 -16q-17 -7 -30 -19t-25.5 -25.5t-27.5 -28.5l-35 -35t-20 -15t-9 -6l-107 -109q-2 -2 -5 -8t-6 -8t-14 -13l-21 -21 q-11 -11 -21.5 -22.5t-13.5 -15.5t-12 -11t-20.5 -16.5t-21.5 -17.5t-17 -15t-39 -40t-68 -68t-68 -67l-46 -46q-34 -34 -61 -34h-10q-29 14 -34 35.5t-5 58.5t22.5 81t44 87t52 99t47 108.5t32 106.5t32.5 107.5t39 101.5t22 105l-25 5q-19 -14 -23 -15.5t-7 -3.5t-17 -13 t-19 -13q-3 -6 -41 -31t-41 -27t-15.5 -15t-28 -28.5t-28.5 -30t-18 -16.5q-2 -4 -16 -12t-39.5 -26.5t-66.5 -57.5t-84 -76q-2 0 -13.5 -7t-13.5 -11q-23 -16 -37 -47t-20 -37q-17 -15 -31 -15q-27 -10 -45.5 -28.5t-73.5 -61.5t-135 -122t-172 -150q-10 -4 -29.5 -18.5 t-25.5 -16.5h-7q-58 0 -73 35z" />
<glyph unicode="X" horiz-adv-x="1824" d="M0 14v21q0 46 80 69q68 19 115 21t75.5 11t43 24.5t43 35t68.5 43t61.5 41t29.5 22.5t17.5 11t17.5 11.5t10 5.5l17 28q4 0 18 7q6 6 6 12q42 55 158 151q29 10 43 38t27.5 38t27.5 20.5t21.5 15.5t10.5 15.5t9 15.5t19.5 13t26.5 17.5t25.5 17.5t14.5 10l17 17 q17 17 36 25.5t32 16.5q32 18 32 47t-21.5 65t-38.5 77q-48 111 -75 213q-4 16 -16.5 26.5t-18.5 26.5l-17 53q-84 197 -88 222.5t-12 45.5q-24 63 -47 87q-32 14 -74 14q-74 0 -103 11q-39 15 -54 46q-2 4 -5 7q0 36 56 36q0 2 26 2h80q43 0 66 -8h352q58 8 90 8 q34 0 64 -28l8 -17q-2 -2 -11.5 -13t-17.5 -15q-4 -8 -12 -9t-23.5 -5.5t-34 -8.5t-35 -8t-20.5 -4q-29 -10 -33 -30.5t-4 -44.5t12.5 -59.5t30.5 -74.5q56 -125 71 -176t22.5 -70.5t9.5 -23.5q13 -26 20.5 -36.5t17 -37.5t31 -27t28.5 3t17.5 12.5t32.5 31.5l44 44 q22 22 42.5 43.5t26.5 27.5q19 19 29 39q6 6 24.5 23.5t37.5 38.5q49 52 65 63q25 25 46 39t37 32q35 36 35 105l-4 31l-24 26q-20 0 -43 3.5t-36.5 5.5t-23.5 4t-27.5 7t-32.5 15q-36 23 -36 51.5t28.5 39t47.5 10.5h6q68 -15 184 -15l277 8h35q18 0 34 -2q18 9 29 9h6 l49 -9q24 0 34 11q19 18 39 18q24 0 87 -35q21 -12 21 -48t-37 -42l-43 2q-78 0 -148 -20q-33 -12 -64.5 -35t-51 -34t-37 -21.5t-34.5 -20.5q-42 -24 -45 -25t-11.5 -9.5t-17.5 -18.5t-18.5 -18.5t-11.5 -10.5t-16 -13t-17 -13t-10.5 -13.5t-7.5 -13.5q-18 -16 -42.5 -30.5 t-50.5 -34.5t-38 -49q-16 -39 -60 -57q-16 -7 -16 -11q-4 -2 -14 -12.5t-22.5 -22.5t-22.5 -23.5t-12 -13.5q-4 -2 -17.5 -12.5t-29 -22.5t-28.5 -23.5t-17 -14.5t-20.5 -18.5t-35 -33.5t-34 -34.5t-24.5 -24.5t-19.5 -13.5t-10.5 -23.5q0 -22 14.5 -51t20.5 -47.5t19.5 -45 t27.5 -75.5t24.5 -77t15.5 -40t11 -26.5t11.5 -29t8.5 -17.5t10 -19.5t7 -20.5l19 -104q5 -10 12 -29q14 -42 20 -58t13.5 -47.5t17.5 -60.5q24 -72 80 -96q10 -4 44 -9t71 -13q94 -19 94 -58q0 -18 -16.5 -27.5t-28.5 -9.5q-193 27 -418 27h-6l-90 -8l-29 8h-119 q-26 10 -26 24t4 17.5l12 10.5q34 30 44.5 33t31 5t39.5 7q43 12 43 54v29q-19 38 -19 53q-10 20 -13 49q-8 73 -25 113.5t-21 50t-8 20.5t-8.5 21.5t-4.5 13.5t-6 12t-6 17v11q0 2 -3 12t-6 23.5t-8 25.5t-11 27.5t-13.5 42t-30.5 41.5l-2 4h-4q-2 0 -2 -4q-35 -14 -50 -39 t-29.5 -40.5t-23.5 -25.5t-21 -22q-28 -28 -58.5 -52t-38.5 -31t-35.5 -36t-59.5 -60.5t-60.5 -59.5t-36.5 -37t-17.5 -26.5t-18.5 -37.5q-22 -47 -22 -65q0 -26 66 -54q6 -2 17 -7t22.5 -9.5t20.5 -8.5t11 -4l70 -16q29 -8 29 -33q0 -49 -66 -49h-31l-276 10h-23l-81 -10 l-48 10h-41l-163 -12l-47 2q-20 0 -61.5 8t-47.5 10z" />
<glyph unicode="Y" horiz-adv-x="1548" d="M457 20q0 33 18.5 42.5t35.5 16.5q32 13 60 13l82 6q18 4 43 18.5t31 37.5q61 182 135 432l8 28q3 3 19 44.5t19 50.5t18.5 50.5t32 87.5t29.5 88q18 58 21 62t6 11q27 58 27 118v244q0 11 -10 31q-34 109 -143 168q-35 23 -64.5 26.5t-68.5 3.5h-39q-52 -13 -105 -77 q-14 -17 -19 -29t-13 -29q-17 -32 -17 -92q0 -36 5 -63t12.5 -36t15.5 -17q20 -18 20 -48q-12 -6 -28 -6t-31 15q-94 76 -94 217q0 115 50 198q35 59 175 119q64 27 136 27q165 0 253 -80q47 -41 83 -91t40 -62.5t9 -26.5q12 -32 32 -48h8q28 0 55 54q7 12 9 20l117 117 q4 4 27.5 18.5t38.5 25.5q62 48 106 56q85 0 100 11l37 6h8q87 0 176 -65q96 -70 96 -157q0 -25 -25 -67q-47 -80 -69 -80h-4q-21 0 -39 3t-37 5q-54 54 -59 119q-4 16 -5 36.5t-4 39.5q-7 44 -38 65q-4 4 -21 4h-20q-139 0 -240 -118q-10 -10 -25.5 -42t-24.5 -49.5 t-18 -35.5q-19 -40 -24 -45l-6 -56l-29 -80q0 -9 -18 -45l-8 -71q-12 -53 -35 -101.5t-39 -97.5q-38 -150 -76.5 -284t-51.5 -159.5t-24.5 -55.5t-18.5 -61.5t-17.5 -68.5t-22.5 -75.5t-12 -75.5t18 -48.5t44 -13.5t53.5 -1t38.5 -3q38 -14 89 -65v-13q0 -22 -26 -22 q-63 -21 -66 -21q-2 -4 -23 -4h-32q-59 0 -114.5 15.5t-115.5 15.5h-12l-82 -6q-2 -2 -16 -2l-47 2q-47 -4 -89 -20q-33 -12 -64 -12q-8 0 -16 1q-91 10 -91 57z" />
<glyph unicode="Z" horiz-adv-x="1593" d="M143 18q0 22 11 29q11 21 49.5 58.5t42.5 41.5q20 40 24 46q50 25 89.5 92t59 89.5t31 33t13.5 13.5t9 12t16.5 19.5t16.5 19.5t9 11q4 2 20.5 13.5t27.5 21.5t20.5 29.5t21.5 33t19.5 20.5t14.5 14.5t16 16.5t21.5 25.5t26.5 34.5q29 41 36 48l20 20q12 12 25.5 26.5 t25.5 26.5l15 15q20 20 50 62q117 163 190 232q35 34 45.5 46t42 46t82 102t114.5 128q20 0 28 29.5t12 38.5t12.5 18.5t17.5 16.5q22 17 22 50v19l-217 10h-45q-29 0 -37 8h-6q-16 -8 -53.5 -8t-47.5 10h-10q-47 -8 -96 -12t-76 -11t-39 -9t-23 -6q-25 -7 -32 -7 q-2 -2 -15.5 -19.5t-17.5 -17.5q-25 -25 -52.5 -45t-49.5 -47l-15 -37q-7 -3 -21 -24t-22 -32t-12 -17q-10 -6 -24.5 -20.5t-24.5 -14.5t-17.5 11t-7.5 20v4q8 64 14.5 74t12.5 19t12 17q8 10 12 22.5t5 12.5l6 47q28 28 31 46t6 31q8 28 8 42q4 0 11 15.5t11 19.5l6 74 q2 4 9.5 24.5t10.5 27.5t16.5 27.5t29.5 20.5t26.5 -17.5t16.5 -39t11 -43t13.5 -27.5t30 -12.5t29.5 -6.5h111l276 11l287 -11h96q25 2 41 3.5t29.5 3.5t21.5 3t17 3q19 4 26 4h53q111 0 111 -41q0 -26 -60 -90q-14 -15 -19 -19t-13 -11t-17.5 -15t-17.5 -14.5t-12 -10.5 t-14.5 -15t-22.5 -22.5t-21.5 -20.5t-11.5 -12t-13.5 -22.5t-14.5 -23t-14 -15.5t-25 -25q-44 -41 -58 -59t-21.5 -26.5t-9.5 -12.5t-13 -14t-22 -22q-39 -42 -51 -42h-4q-21 -42 -26 -47q-4 -4 -22.5 -25.5t-40.5 -45.5q-56 -65 -62 -72.5t-28.5 -36.5t-49.5 -60.5 t-49.5 -59t-27.5 -33t-22.5 -22.5t-38.5 -38l-38 -38q-17 -17 -20 -22t-15 -20.5t-25.5 -34t-25.5 -35t-16 -18.5q-7 -5 -27 -29q-25 -12 -35 -28q-4 -2 -10 -13.5t-11 -11.5q-45 -55 -88 -114.5t-68.5 -88t-34.5 -38t-19.5 -19.5t-19.5 -19.5t-15 -11.5q-27 -27 -43.5 -44 t-16.5 -57t15 -62l112 -9h58q49 0 89 7q83 16 259 16q88 0 143.5 30.5t88 54t51 37t34 19.5t30 16t19.5 23.5t25 42.5q4 2 14.5 11.5t12.5 13.5t17 25.5t21 33.5t9.5 30.5t13.5 28.5l100 99l11 4q28 0 28 -64v-18q0 -33 -14 -61.5t-27.5 -66.5t-29 -86t-24.5 -73.5t-11 -45 t-4 -22.5t-8.5 -16.5t-13.5 -29t-14 -28.5t-9 -20q-18 -23 -45 -24l-101 2l-98 -2l-94 -10h-189l-43 -11h-78l-174 11l-79 -9l-56 11h-18l-55 -2h-101q-45 -2 -78.5 -13.5t-69.5 -11.5t-68 10t-32 49z" />
<glyph unicode="[" horiz-adv-x="804" d="M152 -506q0 21 12 27v948q16 98 16 203.5t-10 164t-10 114.5t10 105.5t10 100.5l-10 111l10 141v68q-10 10 -10 20v8q0 9 10 29v178l-10 64q4 33 35 45t46 15t29.5 4t29.5 3q31 4 48 4l50 -10h131q44 21 90 21h59q23 0 44.5 -8.5t23.5 -12.5q5 -27 18 -43v-10 q-11 -55 -22 -66q-19 -16 -80 -16h-23l-182 10q-31 -6 -53.5 -13t-39.5 -7h-26q-8 0 -16 2q-10 -4 -13.5 -23.5t-5.5 -21.5l-8 -127v-254q0 -50 -10 -60v-37q2 -4 3 -13t3 -20q4 -20 4 -30v-223q-10 -20 -10 -51l10 -86l-10 -74l10 -107q0 -57 -10 -125q4 -4 11 -18t7 -21 v-18q0 -298 -12 -415t-12 -177v-31l6 -211q12 -29 31.5 -30.5t44.5 -18.5h241q40 15 82.5 15t50.5 -2q20 -4 31.5 -33t11.5 -43v-21q0 -6 -4 -10t-17 -20.5t-22 -16.5q-12 -12 -49 -12h-75q-27 0 -66 5t-44 6t-26 1l-100 -2h-84t-41 2q-53 0 -79.5 23t-26.5 76z" />
<glyph unicode="\" horiz-adv-x="1638" d="M498 1582q0 54 47 73q16 8 37 8q40 0 63 -59q21 -48 21 -69v-30v-14t8 -25.5t15 -37t14.5 -37t23 -52t46 -93t49.5 -109t27.5 -82t20.5 -60.5q20 -48 45 -73l117 -281l12 -10l41 -103v-16q6 -6 9.5 -17t9.5 -23.5t6 -16.5q0 -33 4 -37l8 -19q5 -17 18 -32q17 -20 42 -82 q4 -10 6 -17.5t9 -23.5q25 -59 30 -90l211 -508q26 -10 41 -52q4 -6 5 -12t4 -12t3 -16q0 -44 -47 -60q-6 -2 -13 -2t-15 1q-31 4 -36 15l-368 873v31l-4 8q-2 0 -8.5 4t-7.5 9t-5 12t-7 14.5t-12 29t-19.5 59.5t-19.5 63.5t-15.5 32.5t-20.5 18q-2 6 -8 20t-12.5 31.5 t-12.5 32t-21.5 49t-36 98t-34.5 98.5t-19.5 45.5t-10.5 20.5q-13 26 -15 31t-12.5 27t-22.5 48.5t-23.5 49t-14.5 28.5t-12 27.5t-20 45.5q-27 65 -30 75q-5 14 -20 44q-24 46 -31 68q-4 4 -16.5 20.5t-16.5 20.5q-6 18 -6 40z" />
<glyph unicode="]" horiz-adv-x="792" d="M16 1770.5q0 36.5 5.5 49.5t15.5 18t25.5 8t35.5 9q0 2 8.5 6.5t12.5 4.5h14q2 -2 15.5 -5t29.5 -7q33 -7 45 -7l82 8h6l49 -8h9l39 11l71 -11h15l100 8h10q18 -4 23 -22l2 -23v-575q0 -25 -8.5 -39t-8.5 -39v-24q29 -284 29 -347v-92q0 -29 -1 -31.5t-4 -14t-6 -24.5 q-8 -37 -12 -40v-35q11 -11 11 -37v-63l-11 -160v-4q4 -2 12.5 -16.5t8.5 -18.5l2 -2v-2q0 -11 -12 -23v-88l12 -258l-12 -215l12 -184v-33q0 -74 -47 -74h-307l-64 -6q0 -2 -8 -2l-27 2q-10 -10 -45 -10t-45 10h-14q-20 0 -40.5 5t-20.5 28v6q0 4 4 4q0 42 8 74 q41 25 70.5 31t76.5 6h58q33 -11 54.5 -11t65.5 11h97l20 18l6 80q4 0 7.5 12.5t3.5 14.5v10q0 29 -3.5 64.5t-4.5 58t-3 28.5v11q2 4 3 19t4 33q4 34 4 54v10q0 12 -3.5 24.5t-4.5 21t-2 11.5t-1 19l2 82v82q0 16 -2 21l-6 108v94l10 205q0 47 -10 93t-10 93l10 181v59 q-10 16 -10 24.5t10 28.5v307q10 78 10 91q0 225 -81 225l-52 2h-49l-213 -10h-4q-48 13 -56 22q-16 18 -16 54.5z" />
<glyph unicode="^" horiz-adv-x="776" d="M588 1167v9q4 10 6 18t10 29.5t21.5 46t23.5 44t17.5 33t15.5 29t15.5 27.5t8.5 15t6 12.5t11 19.5t11 20.5t6 13.5q21 63 67 128q9 18 20 36q23 36 27 44q6 13 34 32q36 25 56 25q15 0 23 -4q2 -4 9 -12.5t14 -18.5q20 -29 25 -48.5t10 -35.5t10 -37.5t10.5 -38 t10.5 -52.5t8 -71.5t7 -59t7 -36t8.5 -29t9.5 -33t8 -27.5q10 -28 10 -38q0 -32 -15 -45q-54 -45 -80 -22q-16 14 -41.5 54t-33.5 67t-13 75.5t-18.5 73t-20 46.5t-20.5 22t-28.5 -21.5t-30.5 -41.5t-39.5 -55.5t-45.5 -72.5q-69 -112 -104 -136q-8 -5 -18 -5q-18 0 -18 20z " />
<glyph unicode="_" horiz-adv-x="1003" d="M-74 -136.5q0 52.5 41 74t84 21.5l101 -10h30l170 10l82 -10l37 8h14l23 2l22 -2h15l24 -8q2 -2 33 0t57 2l82 -10l37 8h15l22 2l23 -2h14l25 -8q4 -2 9 -2h9l29 2q25 0 44 -10.5t27 -45.5q2 0 2 -8v-12q0 -82 -81 -85q-23 -1 -48 -1h-53l-37 8l-102 -2l-43 2h-125 q-9 0 -27 6q-80 -14 -82 -14h-82q-23 0 -45 8t-26 12q-40 4 -56 4l-98 -16h-82q-23 0 -63 16q-21 8 -21 60.5z" />
<glyph unicode="`" horiz-adv-x="1024" d="M694 1702q0 36 56 70q41 26 69 26q51 -10 86 -96q16 -38 35 -57q18 -29 22.5 -68t16.5 -72l49 -104q2 -2 9 -23q23 -68 33.5 -89t10.5 -39q0 -38 -14 -48q-16 -6 -27.5 -6t-27.5 4l-107 152q-17 57 -89 144q-32 41 -43 66t-14 29t-16.5 11.5t-13.5 11.5q-35 41 -35 88z " />
<glyph unicode="a" horiz-adv-x="1165" d="M152 182q0 78 55 215q0 11 18 29q0 18 11 18q2 2 9 12.5t16 23t16.5 22.5l10.5 14t9 20.5t8 18.5t12.5 11t20.5 19.5t19.5 18.5t12.5 11t10 14.5t16 24.5q22 27 26 36q2 0 14.5 12.5t12.5 14.5q10 10 20 24q25 33 46.5 39t25.5 8t18 18.5t24.5 20.5t10.5 7q8 4 28.5 22 t28.5 23q2 2 12.5 14t14.5 14h4q3 0 23 6q63 31 117.5 62t111 31t98.5 -19l27 -16h6q8 0 24.5 17.5t36.5 36.5q55 54 89 54q63 0 63 -78q0 -48 -49 -167l-9 -18q-14 -30 -36 -52q-2 -4 -5 -15.5t-7 -25.5q-14 -41 -44 -85q-53 -78 -114 -230q-4 -4 -10.5 -17.5t-8.5 -17.5 l-10 -47q-2 0 -9 -11.5t-14 -26.5q-38 -85 -38 -114q25 0 51 16.5t39 12.5q17 8 38 24q44 32 55 39.5t28.5 23t38.5 28.5q50 34 74.5 34t27 -6t2.5 -24.5t-11.5 -36t-27.5 -29.5t-35.5 -23.5t-30 -18.5t-25.5 -26.5t-15 -23.5q-6 -4 -20.5 -17.5t-16.5 -17.5 q-31 -27 -59.5 -52.5t-60.5 -46.5q-73 -46 -145 -46l-34 -2q-18 0 -33 12q-41 34 -41 65t10 59.5t21 57.5q32 79 32 106t-13 27t-26.5 -23.5t-23.5 -31.5q-4 -2 -17.5 -13.5t-21.5 -13.5q-2 -4 -20.5 -14t-22.5 -10q-18 -16 -30.5 -38t-32.5 -36q-53 -47 -127 -88t-148 -41 q-151 0 -151 182zM360 176q0 -57 60 -57q50 0 154 91q40 35 89 84l69 68q24 25 33 42q11 22 29 40q36 36 54 72q2 4 14 19.5t31 46.5q59 94 92 206q4 10 14.5 37t14.5 35q-18 37 -29 37l-49 2l-49 -2q-27 0 -87 -61q-23 -22 -40 -28.5t-23 -10.5q-37 -25 -41 -25 q-2 -2 -7 -10t-11 -18q-11 -17 -18 -25t-22 -23.5t-33.5 -34t-35 -34t-19.5 -19.5t-13.5 -23.5t-18.5 -33t-18.5 -24.5t-20.5 -40q-18 -18 -18 -32q-4 -12 -39 -47q0 -11 -16 -35l-7 -27q-2 -4 -6 -11t-9 -17q-13 -24 -15 -27.5t-4.5 -37.5t-4.5 -50v-27z" />
<glyph unicode="b" horiz-adv-x="1042" d="M166 112.5q0 49.5 15.5 89.5t27.5 83l8 45q0 2 2 2t8 6l27 72q4 4 14.5 23.5t11.5 22.5q11 33 11 46q8 29 25.5 55.5t29.5 50.5q0 33 30 86.5t39 71.5l11 22q2 2 5 14.5t7 27t8.5 25.5t4.5 15l22 45l23 56q2 2 6 21.5t6 22.5t13 18.5t11 19.5q35 47 51.5 105.5t28.5 87.5 q21 47 40.5 76.5t46 92t26.5 115.5v26q-2 6 -16.5 20.5t-22.5 14.5h-100q-14 4 -48 6t-42 7q-11 0 -37 26v15q0 25 13 30.5t36 16.5h30q83 0 156 9q86 11 183 11q27 0 54 -15.5t27 -39.5t-8 -48t-20 -46.5t-24.5 -45t-17.5 -33.5q-11 -24 -11 -52q-2 -4 -8.5 -22.5 t-18.5 -43.5q-72 -150 -72 -168l-8 -37q-2 -6 -12 -24.5t-20.5 -40t-20.5 -40t-11 -21.5t-4.5 -15t-5.5 -14q-8 -8 -21 -30t-15.5 -25t-4.5 -17t-7 -31t-18.5 -40t-13.5 -53t23 -30h4q6 4 21 10q15 7 25.5 19t21 22.5t18.5 19.5q15 16 70 55.5t84.5 61t60.5 36.5 q59 30 152 30h51q20 -20 41.5 -40.5t27 -38t5.5 -36.5v-53q0 -18 -4 -24q0 -26 -19.5 -97t-25.5 -89.5t-24 -39t-28 -43.5l-8 -36q-14 -35 -31.5 -54.5t-42.5 -42.5q-2 -4 -9 -15t-7 -15l-74 -88q0 -5 -9 -21t-14 -25.5t-13.5 -16.5t-17.5 -14q-22 -17 -40 -37 q-145 -161 -410 -231q-29 -4 -54 -11t-54 -7h-10q-2 0 -12.5 4t-12.5 8l-29 -2q-49 0 -82 53q-24 41 -24 90.5zM358 180q0 -78 4 -94q8 -14 28 -27.5t37 -16.5h4q17 0 49 20q36 22 76 52q57 41 92.5 71t43.5 37t16 16q18 20 23 30q29 31 47.5 58.5t45 59.5t56 64.5 t58.5 85.5q73 132 100 263v14q0 57 -30 57q-16 0 -29.5 -8t-36.5 -8l-61 8h-4q-25 -12 -46.5 -26.5t-44.5 -26.5q-8 -8 -25.5 -17.5t-25.5 -17.5t-15 -16q-18 -21 -30 -26t-27 -5t-24.5 -10t-19 -21.5t-19.5 -25.5q-21 -31 -27 -38t-15 -15.5t-19.5 -18.5t-19.5 -19.5 t-11 -12.5t-9 -18.5t-14.5 -31.5t-15.5 -31.5t-9 -20.5q-4 -22 -16 -34q-8 -4 -8 -8q0 -2 -1 -3t-2 -10.5t-2 -20.5q-3 -30 -5 -33t-11 -22.5t-20.5 -43t-22 -43t-12.5 -25.5t-2 -41z" />
<glyph unicode="c" horiz-adv-x="870" d="M211 301q0 150 57 297q6 18 17 25q2 4 14 19t14 20v4q0 8 2 12l4 16q4 6 5.5 13.5t5.5 9.5q2 2 13 14t23.5 25.5t22.5 26t14 14.5q2 2 17 39q31 47 76 84.5t75.5 67t65.5 45.5t73 28q82 26 140 26t86 -12l27 -14q29 -14 51 -24.5t41 -37.5q0 -4 5 -16t10 -27 q14 -43 20 -53v-2l2 -4q0 -43 -32 -82t-79 -39q-30 0 -51.5 16.5t-32 53.5t-19.5 77q-24 101 -44 101q-2 0 -3 -2h-4q-55 -16 -91 -44t-54 -52q-21 -29 -31 -40t-22.5 -24.5t-27.5 -29t-29 -28.5q-23 -23 -23 -28.5t-2 -7.5q-92 -154 -127 -332v-37q-4 -31 -10.5 -61.5 t-6.5 -53t1.5 -43t5.5 -41.5q10 -50 39 -67q8 -2 24 -8t21 -6l45 14q5 5 26 11t31 9t29.5 9t56.5 35.5t53 46t30.5 30t30 29.5t30.5 31l20 20h4q12 0 12 -22v-15q0 -61 -28.5 -99t-69.5 -85q-76 -76 -113 -101q-73 -48 -153 -48h-39q-21 0 -29 8l-65 8q-17 7 -19 12 q-80 47 -107.5 126t-27.5 163z" />
<glyph unicode="d" horiz-adv-x="1275" d="M164 181.5q0 105.5 47 221t122 221.5q156 223 347 337q70 43 146 83q66 34 140 34q11 0 23 -1q6 0 23.5 -2t35.5 -4q49 -5 60 -8q23 4 25 20.5t12 32.5l16 17q6 14 11.5 38.5t9.5 34.5l32 109l14 49q15 58 25 88q0 10 4.5 14t10.5 12.5t12 17.5q16 24 16 28q0 8 13 28 l16 72v10l-10 17h-45l-137 10q-16 2 -39 13.5t-23 31.5t28.5 31.5t73 11.5t116 6t136.5 10q43 11 71 11t51.5 -8.5t23.5 -39.5t-13.5 -58.5t-33 -82.5t-48 -140t-63.5 -167l-6 -20q-14 -23 -42 -92.5t-31 -75.5q-9 -18 -11 -31.5t-8 -39.5t-13 -53q-20 -68 -27 -79.5 t-14.5 -22t-13.5 -24.5t-6 -33q0 -13 -10 -37.5t-15.5 -55t-12.5 -48.5q-20 -54 -34 -68q-12 -29 -19 -55.5t-20 -71.5t-33 -102.5t-29 -88t-12 -36.5t-3 -10l-19 -27l4 -25q43 0 88 19.5t72 50.5q68 82 154 154q12 10 30 10t21.5 -7.5t3.5 -20.5q0 -16 -8 -36 q-17 -17 -44.5 -57.5t-29.5 -41.5t-5 -8t-6 -11t-16 -18l-18 -17l-20 -11q-12 -12 -35 -41q-42 -51 -73 -72q-120 -77 -204 -77h-12q-37 12 -60.5 44t-23.5 73v10q10 72 30.5 139.5t20.5 139.5l-14 2q-85 -95 -101 -117q0 -4 -11 -22.5t-14 -21.5t-14.5 -16.5t-23.5 -26.5 q-33 -38 -33 -40q-4 -2 -11 -13.5t-11 -17.5t-25.5 -22.5t-46.5 -32.5q-60 -40 -75 -47.5t-32.5 -15t-35 -14.5t-31.5 -12t-16 -7h-52q-100 0 -146 47t-46 152.5zM365 182q0 -23 1 -27.5t11 -20.5q11 -17 18 -17h6q64 0 113 25.5t81 60.5t77 59q10 10 35.5 38t54.5 58 q75 79 90 99q4 2 13 13t19.5 23.5t18.5 23.5t12 15l11 29q20 41 42.5 81t41.5 81q45 94 45 151q0 99 -80 99h-25q-10 -4 -36.5 -14.5t-31.5 -13.5t-14.5 -12t-19.5 -21q-17 -19 -31 -33q-2 0 -8 -4.5t-15 -8.5q-19 -9 -24 -14q-76 -66 -135.5 -140.5t-97 -128t-55 -78 t-23.5 -38.5t-11.5 -27.5t-11.5 -27t-11 -25.5t-7 -15q-53 -80 -53 -155v-35z" />
<glyph unicode="e" horiz-adv-x="909" d="M237 262q-4 66 -4 118q0 108 18 158q7 19 15 42l25 92q4 8 14 30.5t21.5 47t21.5 46t14 29.5l13 9q25 38 40 52.5t30.5 25t17.5 13.5t9 12t16 21q47 64 86.5 85.5t61 33.5t30.5 19q74 50 139 61.5t131 11.5h82q96 -44 112 -108q3 -12 3 -45v-58q0 -25 -3 -30 q-10 -25 -12 -31t-5 -13t-13 -22.5t-22 -31.5q-23 -34 -35.5 -43t-22.5 -16t-13 -9t-18.5 -8t-17.5 -10q-14 -24 -24.5 -33.5t-35 -25t-52.5 -29.5q-61 -32 -105 -38q-2 -2 -15 -2l-28 2l-49 -10l-33 -6l-97 -12l-45 2q-46 0 -59 -37q-2 -10 -4 -30.5t-5 -42.5 q-7 -53 -7 -74q-4 -8 -7 -20.5t-4 -16.5l11 -41l8 -82q0 -6 6 -19.5t10 -15.5q41 -35 90 -41t93.5 -6t75 28.5t55 62.5t46 62.5t48 28.5t26.5 -38t-12 -65.5t-30 -54.5q-30 -48 -60.5 -81t-32.5 -33q-86 -43 -90 -47l-16 -17q-25 -10 -37 -7t-29 -11h-63q-86 0 -130 28 q-51 34 -102 136q-28 59 -31 104zM473 696q0 -25 15.5 -28.5t31.5 -3.5h27l69 34q4 2 22 4q17 3 26.5 9t19.5 12l20 12q41 23 95.5 66t87.5 81q74 85 74 179q0 14 -19.5 28.5t-36.5 14.5l-35 -6q-156 -51 -262 -201q-12 -20 -20 -37.5t-25 -34.5q-23 -29 -48.5 -60.5 t-41.5 -66.5v-2z" />
<glyph unicode="f" horiz-adv-x="763" d="M-504 -502q0 66 34 95.5t88.5 29.5t78.5 -74v-8q0 -20 8 -28t28.5 -29t24.5 -25l47 -6h15q68 0 111.5 36t65 67.5t37 52t15.5 24.5q0 16 14.5 46.5t32 52.5t22.5 36q15 40 19 49t9.5 25.5t11.5 35t11 33.5l6 18t7 14.5t12 22.5q19 31 19 34l27 68l18 53q4 11 42 99.5 t55.5 129.5t20.5 49t10 29t16.5 45.5t17.5 46t10 25.5q14 28 19 28q23 37 30.5 86.5t24.5 92.5q56 138 69 192v10q0 4 -3 6.5t-5 4.5q-8 -2 -26 -2h-82q-18 0 -25 2l-53 8l-49 -8h-6q-16 0 -18.5 13t-2.5 28q0 57 37 57h207l26 -8h7q58 0 134 245q17 52 26 77.5t30 50 t32 53.5t20 56.5t31 64.5q35 58 131 143q20 17 31 30t22 23t51 19.5t58 14.5q31 9 56 9l35 2h92l45 -2q122 -27 170 -89q21 -26 21 -66.5t-32 -76.5t-72 -36t-55 12t-24.5 30.5t-16.5 41t-21 44.5t-46 37t-58 15q-58 0 -73.5 -11t-32.5 -28l-24 -24q-89 -115 -199 -363 q-8 -16 -20 -39q-25 -46 -26 -52q-9 -48 -11 -59t-10 -26.5t-8 -30.5q0 -28 30 -28h197q4 0 17 -4q30 -10 30 -33q0 -47 -13 -52.5t-41 -11.5t-36 -10h-37l-27 12l-59 -2q-20 0 -23 2l-28 6q-12 0 -33.5 -11t-28.5 -23q-53 -124 -91.5 -245.5t-56.5 -155.5t-27 -54 t-11 -34.5t-16.5 -55.5t-43 -117t-55.5 -153q-25 -15 -43 -93q-7 -13 -17.5 -46.5t-12.5 -36.5q-32 -47 -44 -89.5t-20 -58.5t-14 -28.5t-14.5 -26t-14.5 -25.5t-8 -15t-8 -22.5t-11 -21.5q-117 -180 -354 -291l-16 2q-29 0 -56.5 -9.5t-56.5 -9.5l-153 -10h-33 q-28 9 -39.5 16t-21 12t-11.5 9q-39 26 -39 92z" />
<glyph unicode="g" horiz-adv-x="925" d="M51 -197q0 121 172 201q36 8 70 8l45 -2q37 0 47 10q10 5 10 26t-8 36.5t-17 31.5q-24 38 -24 62q0 27 16 48q33 43 33 61v14q-106 120 -106 254q0 95 17 142t27.5 84.5t33 75.5t63.5 86t91 86q112 85 220.5 85t225.5 -154l29 30q8 9 36.5 32t49 40t63.5 17q74 0 74 -59 q0 -98 -62 -98q-8 0 -12 4l-43 26q-16 6 -45 6t-56 -10q-20 -16 -28 -23t-11.5 -19.5t-7.5 -16.5v-35l-8 -29q0 -17 -3 -44t-4 -43.5t-2 -20.5t-4 -17.5t-6 -23.5t-10.5 -31.5t-14.5 -42.5q-17 -53 -17 -59q0 -2 -7.5 -11.5t-15.5 -20.5t-17 -21.5t-29 -33.5 q-66 -73 -140 -108l-55 -18q-38 -15 -59 -25q-46 -22 -50 -23t-14.5 -11.5t-12.5 -16.5v-10q0 -84 59 -126q27 -18 62 -31t55.5 -22.5t36 -16.5t32.5 -16q40 -22 52 -26q269 -159 320 -274q14 -32 14 -69q0 -73 -12 -96t-34.5 -47t-49.5 -48q-59 -51 -84 -60 q-64 -22 -77 -23t-25 -1l-39 2q-11 -11 -39 -11h-54q-92 0 -174 33t-168 58q-64 9 -90 28q-21 10 -66.5 43t-49.5 39q-103 77 -103 225zM250 -171q0 -24 6 -58.5t18 -68.5q26 -78 66 -108q18 -9 38 -22q64 -41 81 -41q11 0 14.5 -6t13 -11.5t20.5 -11.5q29 -16 34 -16 q39 0 43 -2q67 -34 145 -35l84 12l18 -2q39 31 77 69t38 93q0 64 -36 92q-11 8 -21 17.5t-20.5 16.5t-12.5 9q-78 72 -146.5 107t-124 64.5t-95.5 29.5q-60 0 -95 -12q-63 -9 -68 -13t-23.5 -22.5l-25.5 -25.5q-28 -31 -28 -55zM442 445q0 -23 6.5 -53t32.5 -30t47 13.5 t40 32.5q37 37 53 60t30.5 43.5t15.5 22.5q5 13 17 37q2 4 9 18.5t12 21.5t9 11q17 17 23 40q25 57 41.5 106t16.5 111v14q-10 41 -14.5 69.5t-6.5 32.5q-10 37 -37.5 37t-50 -15.5t-44.5 -36.5q-42 -43 -64 -87q-11 -11 -23 -30t-19 -29q-22 -32 -22 -50q-4 -2 -9 -11 t-5 -13q-6 0 -6 -19q-38 -118 -45 -252q-7 -21 -7 -44z" />
<glyph unicode="h" horiz-adv-x="1159" d="M150 65.5q0 32.5 18 77.5t37 93q32 110 59 166q28 57 43 74.5t17 23.5v69q2 10 8 24.5t23.5 54.5t40 117t45.5 136t46 104.5t45 90.5q0 10 9 28q0 37 5 51.5t17 47t24.5 69.5t25 70t15.5 40t9 19.5t14 27.5t15.5 28.5t9.5 17.5l6 47q4 0 7 11.5t12.5 36t9.5 40.5v6 q0 8 -29 23l-178 8q-8 0 -33 5t-25 20v12q6 10 31 22.5t35 12.5h39q21 0 41 10q43 4 87 5t85 5l63 6l47 2l46 -2q14 -4 16 -12t2 -32.5t-21.5 -58.5t-40.5 -90q-68 -195 -112 -294l-27 -74q0 -2 -4 -14t-8 -26q-11 -37 -12.5 -39.5t-10 -9.5t-11.5 -12t-13 -21.5t-12 -20.5 l-7 -45q-4 -4 -11 -19.5t-9 -15.5l-10 -29l-27 -100q-8 -31 -22.5 -48.5t-14.5 -52t17.5 -34.5t26.5 15.5t16.5 24.5t20.5 22.5t28.5 27.5t29.5 27l17 18q2 2 8 13.5t9 14.5t13.5 13t22.5 21.5t22.5 22.5t26 25.5t48 44t68.5 56.5q81 61 145 61t107.5 -25.5t84.5 -74.5 q24 -38 24 -113v-34q0 -101 -10 -152q-8 -16 -10 -21t-8 -30t-12 -48.5t-14.5 -69.5t-26.5 -85q-4 -4 -14.5 -22.5t-14.5 -22.5q-18 -41 -34.5 -80t-33 -58.5t-36.5 -39.5l-23 -23q0 -2 -9.5 -18.5t-13.5 -24.5t-6 -10t-15 -17.5t-46 -42t-92.5 -66.5t-141.5 -40 q-64 0 -115 42t-51 94q0 114 74 114q63 0 117 -39q12 -6 23.5 -21.5t28.5 -15.5t31.5 10.5t26 24.5t20.5 30.5t23.5 36t41 43t41.5 54.5q53 110 56 138t4 39t2 21.5t1 12.5q3 3 11 28q17 48 21 63q7 23 7 64v35q0 63 -5 107.5t-40 99.5q-12 14 -16.5 16.5t-34.5 2.5t-68 -11 l-18 -14q-2 -4 -18.5 -15.5t-18.5 -14.5t-15.5 -18t-29 -31.5t-29.5 -32t-16 -18.5t-5.5 -4t-5.5 -5q-110 -89 -146 -166q-13 -27 -35 -52.5t-37 -56t-32 -59.5q0 -8 -14 -8q-39 -51 -61.5 -108.5t-50.5 -108.5t-53 -98.5t-43.5 -81t-23.5 -51t-14 -30.5q-16 -24 -63 -24 l-33 2q-10 4 -18 18.5t-8 47z" />
<glyph unicode="i" horiz-adv-x="741" d="M233 96q0 32 19.5 74.5t30 66t19.5 43.5q12 27 39.5 66t54 110.5t45 108.5t25.5 47l15 23q77 116 142 287v10l-15 12l-4 -2h-2q-39 -9 -94 -63t-85 -76.5t-47 -22.5t-26.5 9.5t-9.5 21.5v6q16 43 48 72t63 63l6 17q30 15 55 37q33 18 62.5 38.5t61.5 39.5q70 40 124.5 40 t75 -27.5t20.5 -48.5v-30q0 -10 -1 -15.5t-19 -23.5l-41 -98q-16 -33 -28.5 -67t-22 -50t-15.5 -26.5t-13 -23t-14.5 -22.5t-20 -31.5t-29.5 -65.5t-34.5 -76t-34 -50t-23.5 -33q-19 -39 -19 -65q-25 -61 -32 -72.5t-19.5 -21t-14.5 -11.5q-8 -16 -8 -47q-16 -16 -16 -26 l-2 -9q0 -18 28.5 -18t46 12t41.5 35l21 6q4 4 13 6t13 4l62 62q8 11 39.5 34t50 36.5t39.5 13.5v-25q0 -19 -8 -30t-22.5 -28.5t-29 -35.5t-26.5 -34.5t-22.5 -28.5t-35 -38t-53.5 -51q-67 -58 -105 -72q-98 -38 -145 -38t-85 24.5t-38 77.5zM612 1647.5q0 66.5 39 96.5 t81.5 30t64.5 -11.5t39 -28.5q38 -38 38 -85q0 -39 -24 -72q-44 -62 -76 -66h-13q-58 0 -101 33q-48 37 -48 103.5z" />
<glyph unicode="j" horiz-adv-x="620" d="M-416 -408q0 26 58 46q14 4 33.5 4t30.5 -25t41 -47q75 -57 159 -57h24q20 0 24.5 3t18 16t27.5 27.5t27.5 27t16.5 15.5t9 19.5t8 20.5q4 4 10.5 13t10.5 11q56 77 95.5 192t60 180.5t37 109t27.5 66t18.5 37.5t13.5 38.5t8 27.5t9 13.5t7 13.5q5 0 13 16l8 50q2 0 9 10 t12 25.5t18.5 54.5t18.5 56t8.5 30.5t7.5 15.5q10 49 27.5 88t33.5 84v4l-6 33q-56 0 -99.5 -25.5t-69.5 -45t-45 -32.5t-34.5 -26.5t-33 -13.5t-19.5 11t-2 23q0 35 9 44.5t25.5 27t35 35.5t35.5 35l24 24q6 3 18 27l50 50l23 23q6 6 44 25q87 64 120 82q73 37 146 37 q68 0 68 -90q0 -41 -15.5 -74t-30.5 -72.5t-32.5 -76.5t-25 -59.5t-13.5 -44t-12 -40t-18.5 -50.5t-22.5 -62q-4 -4 -12.5 -18.5t-8.5 -18.5l-37 -133q0 -11 -15 -39.5t-30 -53.5q-24 -42 -42.5 -118t-35 -105.5t-23.5 -48t-9 -34t-5 -20.5t-9.5 -25.5t-13.5 -42t-13 -40 t-12 -34t-24.5 -47t-40.5 -62.5q-48 -66 -68.5 -83t-32 -23.5t-15.5 -10.5q-5 -5 -49.5 -25t-48.5 -22l-72 -45q-8 0 -16 -8l-27 -8q-10 -4 -31.5 -15.5t-30.5 -20.5t-11 -9l-62 -8q-22 -11 -37 -11h-18q-66 9 -105.5 29t-45 29.5t-10.5 19.5t-10 21.5t-10 21.5t-6 13.5 t-12 37.5v6zM702 1739q0 39 29 59.5t48.5 27.5t39.5 17q129 -14 129 -119v-22q0 -20 -6 -27.5t-16.5 -18.5t-22.5 -22.5t-22.5 -21.5t-14.5 -15h-28q-2 2 -12.5 6.5t-12.5 4.5l-45 8q-27 11 -58 94q-8 19 -8 29z" />
<glyph unicode="k" horiz-adv-x="1042" d="M156 41v45q0 47 15 83t27.5 57.5t15.5 32.5t13 46t37 100.5t41 100.5t18.5 46t8.5 24.5t8 25.5t4 16l10 46q0 4 5.5 16t11.5 26.5t11 28t9 19.5l35 71q2 4 4 22.5t6 22.5q0 16 29 74q0 10 5 28.5t7 29t4 14.5l35 71q0 4 3 17.5t6 29t5 29t4.5 18.5t14.5 34.5t27 63.5 q41 97 44 107.5t6 20.5q7 23 7 33q14 37 35.5 82t21.5 79t-40 40t-87 8t-87 8t-40 35q0 16 15 30l73 15h353q29 0 33.5 -12.5t4.5 -34.5q0 -61 -63 -179q-4 0 -11 -8t-7 -12q-4 0 -7.5 -19.5t-12.5 -48.5t-9 -39q-2 -2 -9.5 -8t-7.5 -10l-18 -53q0 -4 -12.5 -22.5 t-14.5 -21.5t-5 -22.5t-4 -22.5t-7 -13.5t-12 -22.5t-11.5 -23.5t-7.5 -13.5l-14 -64q-12 -12 -12 -28q0 -2 -6.5 -13.5t-12.5 -25.5t-11 -26.5t-7 -15.5t-4 -17.5t-6 -16.5l-35 -74v-10q0 -16 6 -21t23 -5t27.5 8t17 19t13.5 23.5t21 22.5q21 0 27 6q15 15 27 39 q40 50 99 85q104 61 164 61t98 -25.5t57 -48.5q34 -38 34 -53q4 -8 4 -29v-49q0 -32 -10 -59q-34 -61 -133 -118q-29 -16 -45 -23t-38 -14t-44 -15q-50 -17 -55.5 -18t-20.5 -1l-45 2q-4 -4 -18.5 -6t-26.5 -14q-10 -30 -10 -54l10 -53q10 -80 30.5 -134t41 -104.5t31 -71 t29.5 -20.5q25 0 39 8.5t34 29t31.5 30.5t21.5 19.5t20 18.5q27 23 27 26l23 8q16 0 16 -19q0 -25 -33.5 -74t-40.5 -61l-28 -53q0 -4 -6.5 -11.5t-9.5 -9.5t-11 -11t-16 -20.5t-16.5 -19.5t-17.5 -19q-16 -20 -87 -20h-78q-66 37 -108 144q-2 8 -6.5 21t-4.5 18.5t-3 26 t-6 44t-5 45t-5 42t-14.5 54t-19.5 68.5l-10 62q0 16 -14 48q-28 62 -44 62h-6q-2 -4 -13 -9t-13 -11l-9 -54q-10 -43 -33.5 -82.5t-39.5 -80.5v-19q-8 -57 -62 -143v-8q-4 -10 -14 -42t-13 -38q-16 -32 -28 -63.5t-28.5 -58t-56 -26.5t-58.5 29zM598 700q4 -4 17.5 -11 t17.5 -7l55 -4l55 4q19 0 61 11.5t48 15.5l45 26l53 19q37 16 73 48t36 73.5t-33 60t-75 18.5q-100 0 -181 -55q-4 -2 -14.5 -12t-22.5 -20.5t-23.5 -20.5t-20.5 -17t-25.5 -19.5t-31.5 -25.5q-34 -30 -34 -71v-13z" />
<glyph unicode="l" horiz-adv-x="630" d="M131 86q0 71 69 182q17 29 30 60t20.5 64.5t21.5 68.5q4 2 12.5 13t8.5 13t2 4.5t4 6.5t9 26.5t23.5 58t31 70.5t23.5 69t28 74.5t46 92t39.5 81t18.5 47t14 35.5q13 27 19 43.5t6 22.5t2 10l4 17q2 4 9.5 14t7.5 12q51 80 84.5 169.5t57 147t37 80.5t13.5 52l-2 25 q-2 12 -35 14t-70.5 5t-69.5 11t-32 33q0 51 117 51h39q104 0 159.5 -6t79 -18.5t23.5 -46t-19.5 -66.5t-37.5 -68l-9 -28q-2 -4 -8 -19.5t-14 -34t-14.5 -35t-8.5 -19.5t-5 -18.5t-8 -32.5t-8 -31.5t-6 -17.5q-16 -16 -16 -26q-16 -20 -20 -44.5t-11.5 -38t-15.5 -23.5 t-10 -15.5t-12 -31t-22.5 -56t-24 -57.5t-18.5 -47.5t-24.5 -48t-30.5 -59.5q-32 -78 -47 -130.5t-37 -98.5t-48 -100q-90 -182 -115 -253v-17q0 -16 3 -22t20 -6h12q47 16 73.5 38.5t52 42t45 34t41.5 26.5q55 31 80 31t25 -25t-16 -47q-14 -11 -49 -47q-59 -62 -80 -78 q0 -6 -11.5 -20.5t-13.5 -16.5t-5 -6t-28 -20q-119 -77 -168.5 -106.5t-78.5 -39.5t-84 -10q-78 0 -78 86z" />
<glyph unicode="m" horiz-adv-x="1953" d="M252 104v19q16 57 43 99t47 93q29 61 56.5 131t62.5 132q8 4 28 24q0 3 9.5 24t14.5 32.5t8 16.5t11.5 24.5t11.5 25.5t12 24.5t18.5 38t17.5 37t22 41.5q25 44 25 125l-10 2q-2 0 -4 -2l-47 -16q-2 -2 -20.5 -4t-22.5 -3t-14.5 -9.5t-22.5 -17.5q-24 -17 -32 -24 q-25 -22 -34 -22q-29 -16 -60.5 -44t-70.5 -28q-14 0 -14 23t11 39t37 47t64.5 69.5t83.5 69.5q99 68 207 68q35 0 56.5 -8.5t21.5 -49.5v-24l-8 -37v-45l-6 -37q-2 -2 -4 -11t-4 -19q-5 -19 -5 -31q0 -2 -4 -14.5t-6 -14.5v-8q0 -17 29 -29q6 6 23.5 19.5t43 33t68.5 59.5 t99.5 75.5t124 74.5t128 39t73.5 -4t16 -14.5t4 -25.5t18 -40q-4 -8 -14.5 -39t-17.5 -56.5t-23.5 -62t-16.5 -82.5v-2l6 -20h13q53 31 92 76t65.5 63.5t32.5 21.5t39 26.5t88 65.5t96 59.5t59.5 25.5t35 15t29.5 13.5t16 6.5h40l29 2q34 0 52 -13q69 -53 69 -102v-6 q-50 -140 -74 -186q0 -10 -10 -11q-33 -100 -82 -185t-90 -169q-29 -22 -79 -151q-11 -29 -11 -35q0 -33 18 -33h9q45 20 147 100q18 16 37.5 37t40.5 39q52 43 98 43h33q10 -13 10 -18.5t-14.5 -28.5t-32.5 -46q-31 -41 -63 -73q-38 -29 -147 -129t-120 -108 q-30 -25 -43 -25l-24 -8q-87 0 -120 13q-73 28 -73 93v13q18 76 52 139t50.5 99t23.5 58.5t11 26.5q0 6 9.5 24.5t20.5 40t21.5 40t12.5 23.5t8 19.5t13.5 31t13.5 30.5t13 33t16.5 46.5t24.5 60t38.5 56t23.5 64.5v4l-18 37h-37q-57 0 -100 -35t-86 -67q-9 0 -39 -15 q-2 -4 -13.5 -18t-14.5 -17t-13 -14.5t-12 -13.5l-11 -39l-36 -37q-11 0 -27 -16l-4 -8q-2 -2 -2 -7v-2q-8 -12 -20.5 -33.5t-24.5 -42.5q-31 -50 -31 -53q-8 -6 -14 -12l-15 -14q0 -6 -11 -35t-17 -41.5t-20.5 -29.5t-30 -40t-21.5 -48t-33 -44q-37 -78 -76 -148.5 t-106 -129.5h-31q-55 0 -94 8q-10 20 -19.5 38.5t-9.5 38.5q0 47 5 60.5t14.5 31t19.5 37t19.5 38t13.5 25.5t15.5 21.5t14.5 19.5t16 26.5t15 27.5q13 7 21 37q18 69 74 160q4 8 16 20q2 6 9 24.5t14 39.5q12 30 18 48q15 43 27 50q16 37 34.5 82t18.5 74q0 53 -41 53 q-36 0 -60 -12t-27 -14.5t-13.5 -14.5t-14.5 -13t-16 -8.5t-25.5 -15.5t-26 -15t-22.5 -13t-24.5 -27t-27.5 -41q-34 -52 -67 -61q-33 -78 -78 -143.5t-73.5 -117t-43 -82t-30.5 -57.5l-127 -190q-12 -20 -26.5 -45t-32.5 -45q-42 -50 -86 -50q-74 0 -74 84z" />
<glyph unicode="n" horiz-adv-x="1261" d="M225 123q0 53 30 97t44 68.5t23.5 45t13.5 26.5t10 24.5t9 24t18.5 32t35 57t37 60.5t34.5 58q63 105 78 140t26.5 56.5t20.5 39.5l11 22l7 54v10q-31 0 -50.5 -18.5t-35 -28.5t-37.5 -19q-30 -13 -48 -29q-31 -28 -34.5 -29t-6.5 -4q-5 -5 -15.5 -12t-22 -15.5 t-24.5 -18.5t-24.5 -19.5t-15.5 -11.5q0 -4 -4 -4h-2q-23 0 -22 21q0 26 27 51q66 65 117.5 130.5t91.5 100.5q91 80 196 80q27 0 55.5 -15.5t28.5 -48t-10.5 -62.5t-24.5 -59.5t-29.5 -57t-25.5 -54.5v-2l6 -35l2 -2q55 29 98 69t91 76t99.5 57t77 38.5t40 28t17.5 11.5 t12 5t20 9q30 13 34 14t26.5 4.5t36 6.5t34 10t45.5 7q75 0 75 -80q0 -60 -28.5 -109t-48 -77.5t-26.5 -45.5q-28 -69 -124 -214q-10 -19 -22.5 -42.5t-20.5 -41t-12 -23.5q-14 -21 -25 -65q-15 -26 -43 -72q-49 -77 -49 -113q57 0 100 29t79 51q87 53 132 53q0 -16 -5 -22 q-4 -4 -19 -30.5t-32.5 -47t-66.5 -63.5t-105 -79q-129 -83 -228 -83q-35 0 -71 14t-36 56t18.5 68t34.5 61q7 4 27 63q23 51 52.5 96t45 71.5t26.5 47.5t23.5 45.5t22.5 46t14 28.5t16.5 31.5t16.5 27.5t10 13.5t13.5 20.5t14.5 19.5t13 17.5t6 18q0 33 17.5 56.5 t28.5 37.5q24 34 24 72q0 25 -27 25q-50 0 -143 -55q-23 -13 -35 -23q-16 -16 -32.5 -35.5t-41.5 -19.5q-154 -139 -317 -414q-45 -76 -74.5 -122t-47 -70.5t-33 -53.5t-28 -52.5t-27.5 -39.5q-33 -35 -98 -35t-65 70z" />
<glyph unicode="o" horiz-adv-x="925" d="M225 244v164q11 30 16 75t9 54.5t6 18.5t9 25.5t17.5 44t17.5 40t12 21.5t11.5 18.5t12.5 16.5t7 10t10 22.5t19.5 41t19.5 40t12.5 23.5t15.5 19.5t26 29.5q36 43 39 48q127 164 269 164h41q2 -2 16 -10t16 -8l58 -10l69 -37q2 0 5.5 -3t7.5 -5q77 -110 77 -230 q0 -91 -18 -164t-27 -112l-8 -54q0 -4 -13 -27q-7 -14 -20.5 -31t-19.5 -35.5t-8 -20.5t-18 -23q-20 -26 -29.5 -35.5t-20.5 -32.5q-31 -63 -112 -131q-119 -102 -172 -102q-4 -4 -19 -4h-18l-56 -27h-26q-133 0 -197 121q-14 25 -17 53.5t-20 51.5zM362 258q0 -129 74 -129 q55 0 105.5 37t89.5 72h2q2 0 8 6q2 4 8 19.5t8 17.5q4 2 15.5 14t24 26.5t26.5 45t25 45.5q18 24 22 29t6 12l6 34q29 57 65 110.5t46 115.5l8 65l19 70l4 39q0 75 -66 123q-18 6 -39 6q-25 0 -37 -6l-43 -43q-49 -45 -101 -91q-70 -61 -102 -124q-12 -23 -21 -37.5 t-20.5 -33.5t-21.5 -37q-49 -85 -49 -120l-8 -26q-29 -68 -41.5 -117t-12.5 -123z" />
<glyph unicode="p" horiz-adv-x="1110" d="M-98 -616q0 35 24.5 39t50.5 6l117 10q33 12 40 43t18 59l22 80q2 2 10.5 18.5t18.5 34.5q23 40 33 66q11 26 11 66l-1 10q0 39 6 58q6 22 11 36t11 32q12 31 17 47q14 50 22 54l9 59q2 4 4 17.5t4 17.5l16 35q20 63 26.5 125.5t16.5 108t18.5 70t12.5 52.5v23l55 162 q0 6 19 47v53q-12 12 -17.5 12t-10.5 -5t-20.5 -13t-47 -30.5t-64.5 -44.5q-81 -56 -127 -56q0 53 80 121q10 10 28.5 27.5t36.5 35.5q41 38 51 43q31 29 65 47.5t59.5 44t32.5 57t14 67.5q16 92 71 141q4 2 20.5 12t28.5 14q51 17 78 17q1 0 10 -9l4 -43l-4 -57 q-2 -4 -9 -22.5t-11 -22.5v-10l12 -6q36 6 103 6q62 0 103.5 -4t65 -20.5t54.5 -39.5q76 -53 106.5 -115.5t30.5 -138t-29 -188.5l-8 -62q-25 -88 -70 -155.5t-110 -143.5q-161 -184 -348 -184l-140 14h-22q-23 -31 -25 -68.5t-17.5 -98t-44 -144.5t-38.5 -129t-11 -56.5 t-3 -23.5t-3 -22.5t-3 -12.5l-7 -34v-19q0 -8 7 -10l145 -27q29 -6 29 -45q0 -38 -65 -42q-15 -1 -25 -3l-29 -10h-4l-154 10q-63 0 -120.5 -12t-118.5 -17q-49 0 -68 6q-53 14 -53 29v11zM573 262q14 -29 29.5 -55.5t57.5 -26.5t86.5 33t83.5 80q61 75 114 184 q2 4 9.5 18.5t15.5 30t15 28.5t7 17t3 19.5t6.5 34t5.5 34t4 19.5q16 32 16 55q0 6 2 15l2 24q0 79 -12 98q-31 59 -90.5 102.5t-130.5 43.5q-23 0 -45.5 -15.5t-32.5 -31.5q-33 -86 -46.5 -168t-32.5 -164t-43 -151.5t-24 -151.5v-72z" />
<glyph unicode="q" horiz-adv-x="1060" d="M219 254v20l17 218q27 112 91 219q141 237 233 293q28 18 45.5 21t19.5 5l18 8q2 2 10.5 11.5t17.5 18.5t16 17.5t9 8.5q39 26 105.5 26t101.5 -20.5t54.5 -34.5t33 -37.5t26.5 -48.5q33 -64 46 -64h2q3 0 10 7q0 4 4 16l9 26q4 13 9 24t8 19.5t10 28t19 35.5 q29 41 60 41q48 -24 55.5 -49t7.5 -61.5t-15 -66.5t-32 -65q-12 -35 -25.5 -73.5t-25.5 -73.5q-4 0 -12 -11.5t-15 -27t-8 -39.5q-4 -53 -65 -180q-11 -11 -29 -47l-6 -47q-4 0 -6 -11.5t-15.5 -41t-31 -89t-32.5 -101.5t-29.5 -66.5t-19.5 -39t-8 -31t-8.5 -34.5 t-9.5 -33.5t-5 -18.5t-5 -11.5t-8 -17.5t-9.5 -16t-13.5 -28t-17 -58.5t-19.5 -60t-17.5 -38t-14 -32t-19.5 -44t-26 -46t-13.5 -46t37 -27.5h107q4 0 25.5 -6t28.5 -12q11 -8 11 -37q0 -53 -67 -54q-47 0 -94.5 9.5t-94.5 9.5l-231 -11h-33q-23 0 -31 3q-27 18 -26.5 46 t14.5 35t37 7l33 -2q63 0 88 38q5 14 20 42q24 46 29 57q17 47 20.5 52t8 17.5t8.5 25.5t8 25.5t4 15.5t5 13t10 22q13 29 22 38q12 25 17 46t16 54q4 2 11 16.5t7 18.5q4 4 6 18.5t4 19.5t11.5 32.5t20.5 59.5q30 86 34 95l8 37v6q-36 0 -68 -21.5t-50.5 -35t-37.5 -21.5 q-110 -67 -206.5 -67t-142.5 50t-46 132zM344 193q31 -39 86 -39q14 0 54 26q58 39 87 68q4 0 14.5 16.5t12.5 18.5t18 8q21 8 27 20q16 35 27.5 69t24 51t24.5 26.5t14 12.5q14 21 17 30q10 14 15 30.5t15 30.5q10 23 24.5 41.5t29.5 45t27.5 68.5t26.5 74q27 67 27 128 t-13 86.5t-68 25.5h-19l-65 -26q-2 0 -5.5 -3.5t-3.5 -6.5t-8 -13t-10 -14q-16 -15 -25 -22q-27 -20 -43 -37t-37 -40q-30 -33 -104 -153q-10 -25 -27.5 -49.5t-33.5 -47.5q-16 -35 -23.5 -69.5t-30.5 -69.5q-4 0 -18 -14l-8 -57l-29 -109v-106z" />
<glyph unicode="r" horiz-adv-x="1011" d="M276 752v36q63 133 102 188q80 109 181 148q16 6 30.5 12.5t43.5 6.5t50.5 -25.5t21.5 -66.5t-13.5 -90.5t-23.5 -90.5q-4 -2 -7.5 -14t-7.5 -33t-14 -51v-8l29 -4q0 2 6 9t11 13t21.5 25.5t33.5 40.5q43 53 51 72.5t10 22.5t11 12.5t21.5 20.5t23.5 21.5t16.5 14.5 t12.5 11t15 14t16.5 14.5t11.5 9.5t10 7t16.5 11t16.5 10.5t13 7.5t27.5 15t61.5 12q46 0 91 -10q6 -6 56 -24q8 -8 20 -21.5t33 -34.5q18 -24 18 -76v-14q0 -47 -35.5 -88t-82.5 -41q-7 0 -33.5 13t-38.5 33t-19.5 41.5t-15.5 41t-29 35.5h-30q-73 0 -130 -91 q-45 -69 -58 -93.5t-23.5 -41t-24 -39t-27.5 -65.5t-25 -67q-24 -54 -24 -58q-7 -4 -19.5 -21.5t-20 -29.5t-15.5 -29q-18 -36 -26.5 -49.5t-18.5 -35t-22 -45.5q-31 -58 -37 -73t-22.5 -55.5t-38.5 -81.5q-54 -104 -96 -104t-69.5 21.5t-27.5 70.5t22.5 106.5t46 117 t43 125t45.5 130.5l27 56l18 71q14 49 39 108.5t25 107t-13 47.5t-32 -10.5t-19 -26.5q-6 -6 -22.5 -20.5t-33.5 -32t-31.5 -34t-18.5 -20.5t-12.5 -13t-17.5 -20q-16 -21 -24 -30q-18 -21 -36 -21q-12 0 -13 19z" />
<glyph unicode="s" horiz-adv-x="692" d="M119 139q0 35 4 55.5t12 39.5q18 42 49.5 42t45.5 -7t24 -18t18.5 -25.5t16.5 -23.5t18 -24.5t15 -17.5q10 -16 14 -27.5t10 -17.5q11 -11 44 -11q59 0 81 6.5t34.5 21.5t20.5 34q19 40 19 72.5t-8.5 51.5t-20.5 48v12q-4 34 -28.5 95t-47 108t-40.5 96q-44 115 -44 205 t62 190l12 9l16 6q4 4 17.5 19.5t32 31t65.5 33.5t88 18h4q33 -4 75 -8t80 -17q91 -29 91 -112q0 -49 -28.5 -80t-71.5 -31t-59.5 20.5t-29 45.5t-30.5 45t-70.5 20t-86.5 -16t-34 -82q0 -73 7.5 -89.5t13.5 -26t6 -11.5l10 -18q20 -45 44 -86t32 -65.5t10 -44t6 -24.5 t10.5 -14.5t8.5 -9.5q61 -116 61 -229v-60q-2 -28 -45 -84q-12 -16 -21 -34.5t-21.5 -33.5t-27 -21.5t-23.5 -13.5t-27.5 -20.5t-27.5 -20.5t-34 -14.5t-51 -11.5q-50 -8 -87.5 -8t-62 5t-46.5 15q-26 11 -87 60q-18 18 -18 53z" />
<glyph unicode="t" horiz-adv-x="745" d="M197 96q0 59 29.5 118.5t46 102t26.5 72t17.5 45.5t13.5 30.5t9 17.5q19 19 20 24q9 49 52.5 131t44.5 86t8 21.5t15 40t17.5 44t16.5 39t17.5 39t10.5 49.5v31q-27 27 -56 27h-116q-21 10 -21 29q0 31 37 61q6 6 18 12h218q33 0 66 161q7 34 11 40t14.5 20.5t29 37 t43 44t77.5 21.5h49l25 -37l2 -17q0 -29 -17.5 -53t-27.5 -49q-18 -31 -37.5 -59.5t-19.5 -55t10 -28.5q46 -11 108 -11l62 3q23 0 27 -19.5t4 -36.5q0 -45 -64 -45h-29l-71 -10h-47q-51 0 -72 -35q-4 -4 -10 -27.5t-6 -27.5l-48 -82l-26 -80l-17 -25q-73 -131 -102 -217 l-6 -39q-18 -43 -46 -90t-28 -100v-25l92 45q15 20 70 73.5t61 59.5q17 15 41 31h2q14 0 22.5 -11t8.5 -28q0 -54 -14 -79q-12 -14 -27.5 -34t-32.5 -41q-32 -40 -61 -69q0 -4 -16.5 -14t-30 -22.5t-32.5 -30t-38 -32.5q-40 -34 -80.5 -57.5t-68 -42t-66.5 -18.5 q-108 0 -108 92z" />
<glyph unicode="u" horiz-adv-x="1253" d="M231 123q0 51 17.5 78.5t37.5 82.5q36 105 101 223q97 180 139 298q12 23 25.5 48.5t13.5 53.5q0 13 -22 13h-17q-27 -18 -51 -36t-40.5 -29t-20.5 -14t-11.5 -10.5t-17.5 -15.5t-20.5 -16t-18.5 -15.5t-16 -16.5t-22.5 -9t-14.5 16v6q0 19 31.5 63t61.5 73q45 43 107 92 t112 76.5t99 27.5q95 0 95 -82q0 -35 -17 -74l-8 -26q-72 -145 -142.5 -286.5t-105 -229t-45 -100.5t-20.5 -28q-23 -33 -23 -79v-35q2 -10 23 -10h6q41 0 61.5 13t38 25.5t33.5 25.5q35 30 47 36q29 29 68 71t61.5 65.5t53.5 64.5q106 143 147 225q10 20 16 30.5t9 16.5 t18.5 28.5t34 50.5t36 53.5t27.5 47t22.5 56.5t31.5 63q45 70 106 70q74 0 74 -82q0 -39 -11.5 -65.5t-28.5 -67.5t-31.5 -81t-35.5 -87q-6 -3 -19 -36q-25 -60 -30 -71l-16 -57q-7 -14 -16 -33q-18 -40 -23 -45q-14 -35 -25.5 -71.5t-20 -56t-13.5 -30t-11 -22.5 q-17 -34 -20 -37v-8q0 -18 14 -18t36.5 12t29 18t17.5 19.5t25.5 27t26.5 25.5t17 14q0 4 23 22q43 31 54 42q10 4 25.5 15t26.5 11q23 0 22 -18l-8 -25q0 -2 -2 -3t-4 -17.5t-4 -19.5t-11.5 -13t-19.5 -21.5t-19.5 -22.5t-12.5 -14q-10 -10 -21 -30q-19 -37 -60 -78 l-68.5 -68.5t-31.5 -29.5t-18.5 -13.5t-18.5 -13.5q-14 -7 -33 -26q-16 -8 -26.5 -10.5t-17.5 -7.5q-15 -11 -38 -11h-6q-31 0 -54.5 30.5t-23.5 49t3.5 39t8.5 43.5q14 61 17.5 67t8.5 20.5t12.5 30t12.5 29t8 19.5t9 23.5t12.5 37t11.5 35.5t7 22l9 27l8 24t5.5 10t9.5 16 q11 20 11 28v2l-2 12q-16 0 -22.5 -9t-13.5 -15t-15 -14.5t-17.5 -18.5t-16.5 -18.5t-31 -32.5q-71 -75 -124 -144l-32 -33q-17 -16 -27 -25q-50 -45 -56 -51q-24 -24 -30 -24q-193 -166 -295 -166q-70 0 -90.5 29t-20.5 80z" />
<glyph unicode="v" horiz-adv-x="1212" d="M231 661.5q0 32.5 10.5 79.5t19.5 63q23 39 26.5 42.5t14.5 21t20 23.5q0 4 7 14t9 10l18 27q43 66 111 100l25 15q4 4 15 11t13 11q39 31 81 31t91 4l152 19h20q23 0 43.5 -14.5t20.5 -39.5v-18q-4 -8 -13.5 -26.5t-19.5 -38t-19.5 -38t-18.5 -36t-29.5 -44t-24.5 -45 t-5 -29.5t-2 -23.5l-2 -25t-5 -27t-24 -37.5t-24 -64l-6 -97v-55l10 -174q33 -65 77 -96q18 -12 31 -12t27.5 7t39.5 14q85 23 117 45.5t45.5 52.5t32.5 54t46 53.5t37 62.5q25 84 25 141q0 117 -45 194q-16 35 -35 65.5t-19 62.5t8.5 61.5t25.5 53.5q38 54 95 54 q40 0 79 -84q9 -20 11 -33l7 -161l2 -11q0 -2 -2 -2v-6q-19 -190 -19 -199l-24 -100q-2 -4 -5.5 -21.5t-7.5 -24.5t-14 -30.5t-22.5 -50t-24.5 -49.5t-15 -28t-10.5 -13t-15.5 -17q-21 -25 -29 -38t-19 -40.5t-31 -52t-53.5 -54t-71.5 -54.5q-87 -57 -161 -57h-28 q-17 0 -17 4q-41 0 -53 12q-49 27 -81.5 56.5t-57.5 78.5l-15 144v45q0 111 52 256q11 11 19.5 30t15 33t6.5 25l14 63q12 41 29.5 82t17.5 84v23q-29 18 -58.5 18t-50 -7t-45.5 -11h-100q-26 0 -58 -16q-61 -29 -61 -56q0 -25 23.5 -57.5t32.5 -46.5q19 -31 26 -41v-25 q0 -55 -20.5 -91t-77.5 -36q-32 0 -43 8q-27 23 -46.5 44.5t-19.5 54z" />
<glyph unicode="w" horiz-adv-x="1865" d="M233 708q0 60 32 109t51.5 74.5t24.5 37t11 16.5t25.5 24.5t40.5 42.5q55 56 76 74q39 32 133 32l98 -2l117 6l49 2l57 2q142 0 142 -69l-7 -13q0 -4 -5 -15t-10 -23q-13 -29 -16 -33t-11.5 -15.5t-17.5 -23.5q-15 -20 -30 -35l-6 -22q-4 0 -5 -19.5t-5 -23.5 q-14 -41 -50 -83t-63 -113q-64 -165 -151 -382q-8 -29 -17.5 -48.5t-9.5 -54t25 -34.5h2q150 58 322 307q44 63 87 119q14 35 36 57.5t34 37.5t15 22.5t17.5 43.5t42 104.5t62.5 133.5q19 10 19 17q12 20 24 47.5t28 53.5q36 60 89 60q52 0 64.5 -6t29 -23.5t21.5 -21.5v-27 q0 -73 -20.5 -113t-39.5 -77t-35 -82t-30.5 -68.5t-21.5 -36t-11 -19.5t-13.5 -27.5t-19.5 -40t-19 -36.5q-12 -24 -17 -42.5t-11 -39t-11 -38.5t-6 -22.5t-4.5 -10.5t-16.5 -25q-36 -57 -36 -145v-12q0 -17 39 -43q6 -4 8 -2q19 19 29 24q4 9 45 29q62 54 109 121.5 t69 97.5q4 0 18.5 14.5t21.5 20.5t12 14t15.5 21.5t16.5 30t10.5 21.5t8.5 7t8 3t8 8q16 30 17 35t5.5 13.5t7.5 17.5t6 17.5t3 11.5t11.5 17t15.5 19q23 47 41 82.5t30 78.5t25.5 91.5t35.5 89.5q53 96 148 96q30 0 35 -12q8 0 37 -54q10 -10 10 -18v-10q-5 -25 -6.5 -46.5 t-4.5 -47t-20.5 -49t-26.5 -37t-15.5 -24.5t-13.5 -23.5t-14 -22.5t-16 -27t-20.5 -49.5t-29 -55.5t-51.5 -64.5t-72 -87.5q-96 -117 -132 -157q-84 -96 -178 -172q-8 -8 -33.5 -19t-28.5 -14t-12.5 -11.5t-20.5 -17.5t-25.5 -22.5t-21.5 -16.5l-14 -6q-17 -8 -52 -28 q-96 -53 -187 -53q-43 0 -76 45v8q0 41 19.5 81t35.5 73q29 60 29 162l-21 4q-10 -5 -19 -14t-18.5 -17t-19.5 -19.5t-20.5 -20.5t-44.5 -42q-104 -99 -232 -178q-57 -39 -120.5 -68.5t-139.5 -29.5h-20q-11 0 -29 11q-27 17 -27 50l2 23v10q0 14 15.5 51t21.5 59l88 174 q4 35 24.5 69t33.5 58q35 84 61.5 159t51 115t31.5 49t7 13v11l2 16q0 45 -52 62q-27 10 -89 10l-53 2q-39 0 -51.5 -6.5t-22.5 -13.5t-14 -7l-35 -10q-13 0 -19 -12l-10 -121q-4 -46 -52 -88q-44 -41 -89 -41h-2q-56 18 -56 81z" />
<glyph unicode="x" horiz-adv-x="1142" d="M90 74l2 35q2 4 10.5 20t17.5 34.5t17 34t10 21.5l7 27q4 4 15 18.5t13 17.5t13.5 19t23.5 35.5t23.5 35t17.5 24.5t30.5 24.5t40 15.5t15.5 -28t-8 -48t-18 -40q-27 -49 -27 -74q0 -56 47 -56q49 33 90 66t90 72q39 39 117 127q10 16 15 19t12 20v98l-17 143 q-4 27 -8 60.5t-15 61.5q-28 67 -92 67h-4q-10 -27 -27.5 -46.5t-33.5 -41.5q-15 -12 -37 -56q-12 -18 -21.5 -35.5t-35.5 -17.5q-16 0 -17 25q0 2 6.5 13t12.5 23q15 32 20 37q117 310 246 310q29 0 41 -11q10 -8 30.5 -29.5t22.5 -23.5t4 -11q2 -10 9 -29q13 -39 26 -52 l6 -61l19 -101l10 -72q14 -28 22 -28h3q10 8 37.5 27.5t32.5 24.5t11.5 11t13.5 14.5t14 14.5t23.5 20.5t52.5 38t53 38t32.5 29.5t19.5 18t18.5 8.5t28 15.5t27.5 30.5t28.5 37t30 32t33.5 29.5q43 35 72 35t54.5 -28t25.5 -58l-4 -4q-30 -88 -43 -108.5t-24 -35t-12 -17.5 t-7 -12.5t-12.5 -19.5t-11.5 -20.5t-11 -18.5t-18.5 -28.5t-28.5 -40.5q-38 -48 -68 -48q0 93 10 134q21 21 21 49l-4 28l-25 5q-30 -6 -110 -84t-103.5 -92.5t-39 -21.5t-19.5 -9q-4 -4 -14.5 -15.5t-22.5 -24t-23.5 -25.5t-15.5 -17t-7 -10.5t-5 -10.5v-125q2 -8 5 -35.5 t5 -33.5t5 -22.5t7 -35t7.5 -37t7.5 -32.5t15 -37t37 -23t42 16.5t25.5 27.5t18.5 20.5t17 20t15.5 18.5t17.5 21.5t19.5 40t35.5 46.5l9 -6l4 -31q0 -45 -25 -87t-34 -65.5t-14 -35.5t-11 -27q-15 -39 -21 -45q0 -9 -35 -47q-23 -29 -45 -54.5t-69 -25.5t-79 23.5t-50 60.5 q-29 56 -40 126.5t-13.5 107.5t-18.5 61q-17 -17 -35 -26q-16 -14 -44 -36t-47.5 -50.5t-51.5 -50.5q-50 -34 -60 -45t-12 -11v-2q-19 -31 -31 -31l-39 -39q-7 -7 -23 -18q-30 -21 -37 -27t-22.5 -14t-33.5 -19q-41 -25 -58 -32q-59 0 -96 47z" />
<glyph unicode="y" horiz-adv-x="907" d="M-545 -479q0 41 32 60.5t64 29.5h13q15 0 26 -8q25 -25 58 -58.5t69 -46.5q57 8 101.5 42t68 53.5t32.5 28.5t18.5 19.5t31.5 32.5q0 19 11 19q12 16 24 22t24 19q37 36 66 65t47.5 48.5t24.5 23.5t11 16.5t8 13.5q25 8 30 19q15 11 31 37.5t24.5 38.5t18.5 26 q24 32 33 39q55 78 83.5 161t51.5 175l10 27q2 12 8 34.5t11 43.5q14 53 15 57t1 12v39q10 10 10 31l8 135q2 2 2 6.5t6 28.5v84q-2 4 -12 13.5t-16 11.5h-6l-11 2q-33 0 -53 -26q-31 -40 -39 -60q-12 -29 -19 -37t-15.5 -14.5t-8.5 -8.5q0 -8 -8 -16q-16 -39 -32.5 -72 t-36 -46t-23.5 -13q0 55 28.5 100t51.5 92q33 57 62.5 114.5t56 97t39 53.5t28.5 20t28.5 8t27 5t28.5 5t20 4h15q23 0 47.5 -20.5t30.5 -40.5v-111q0 -166 -27 -323l-37 -148q-8 -8 -8 -22v-6q0 -10 7 -21.5t22.5 -11.5t28 21.5t19.5 29.5t25.5 29.5t21.5 24.5t8 9.5 t11 12.5t11.5 11t8.5 7t9 17.5t9 18.5q24 24 24 28q12 12 12 24l43 111q2 8 8 27.5t13 40.5q16 55 16 67l10 107q10 67 17 73q16 29 53 47.5t69 18.5h13q4 -2 24.5 -13.5t30.5 -15.5q18 -10 18 -72q0 -92 -108 -253q0 -10 -21 -35q-27 -66 -82 -139.5t-78.5 -106.5 t-51 -68.5t-62.5 -74.5t-68 -80l-8 -21q-23 -35 -49.5 -61.5t-41.5 -44.5t-35.5 -40t-24.5 -26t-13 -22l-8 -8q-2 0 -16.5 -14.5t-16.5 -17.5t-10 -18.5t-10 -17.5t-9 -14.5t-12 -14.5q0 -2 -6 -8t-12 -13q-16 -19 -16 -24q-16 -20 -29.5 -28.5t-34.5 -24.5l-8 -10 q-8 -16 -12 -17q-2 -4 -11.5 -8t-11.5 -4q-70 -72 -127 -133t-112.5 -106.5t-92 -59.5t-53.5 -29q-24 -23 -49 -36q-28 -14 -34.5 -19.5t-21 -11.5t-33 -15t-61.5 -18.5t-77 -9.5q-189 0 -189 125z" />
<glyph unicode="z" horiz-adv-x="1366" d="M106 93q0 89 80 149q37 29 80 48t86 45q112 68 195 126q35 20 60.5 48t55.5 48t59.5 37.5t57.5 38.5l47 33l27 6q4 4 21.5 15t38.5 25q63 42 96 79l16 20v8q0 23 -19.5 32t-28.5 11t-19.5 4t-20.5 5q-29 9 -29 12q-4 0 -10 9t-8 9q-31 20 -75 23.5t-79 13.5q-16 0 -69 16 h-21q-72 -14 -74 -25t-2 -28t10.5 -35t10.5 -48t-18.5 -59.5t-62.5 -29.5t-81 18.5t-37 67.5t12.5 74.5t30.5 64.5q4 4 10.5 14.5t18.5 22.5l31 8q20 14 43.5 35t48.5 40q62 44 104 44h27l45 -6l31 -2h32l72 -18q6 -6 26.5 -7.5t32 -2.5t34 -4t61.5 -16t75 -24.5t64.5 -25 t61 -13.5t51 15.5t32 36t25.5 43.5q23 43 51 43h17q75 0 75 -62q0 -59 -94 -146q-80 -74 -170 -119q-14 -7 -31.5 -16.5t-33 -16.5t-17.5 -9q-5 -10 -17.5 -21.5t-22 -18.5t-21.5 -16q-43 -37 -63.5 -40.5t-30 -9t-19.5 -13.5t-13 -10t-13.5 -7t-20.5 -11.5t-19.5 -11.5 t-11.5 -7q-17 -18 -28 -27.5t-22 -16.5t-25 -15q-35 -19 -39 -21t-12.5 -7t-17.5 -11q-21 -14 -25.5 -18.5t-24 -13.5t-23.5 -12t-16 -13.5t-24 -21.5q-29 -28 -29 -36q30 -39 43.5 -50t36 -17.5t60.5 -22t108.5 -54t146.5 -59.5l90 -6q20 -10 37 -10h16q19 0 29 10 q16 2 36.5 4t37.5 8q43 16 43 51.5t-18.5 59t-18.5 55.5q0 66 39 84.5t94 18.5h29q6 -4 19 -18.5t16 -19.5t8.5 -19.5t9.5 -30t8 -29.5t4 -21t-7 -34t-11 -34q-23 -40 -31 -45q-31 -19 -59.5 -42t-72.5 -61.5t-110 -61.5l-61 -10q-18 -4 -28.5 -9.5t-20.5 -9.5 q-27 -10 -84 -10q-155 0 -381 133q-94 55 -147.5 70.5t-100.5 15.5l-51 -2q-18 -12 -26.5 -47t-8.5 -37v-6l8 -37v-2q0 -45 -30.5 -69.5t-72.5 -24.5t-68 24.5t-26 68.5z" />
<glyph unicode="{" d="M-403 -516q0 121 88 121h4l10 -2q2 -4 11 -11.5t18.5 -16.5t18.5 -17.5t19 -16.5t9.5 -23.5t6.5 -25.5q28 -40 50 -53q8 -8 25 -8h20q39 0 60.5 24.5t30.5 42t11.5 28.5t6.5 13l34 55q9 4 9 17q16 49 39.5 95t33.5 72q23 54 27 58t14.5 23.5t14.5 23.5q8 19 11 30t7 21.5 t10 27t13.5 33.5t13.5 30.5t12 25.5t11.5 24.5t12.5 35t16 49t16.5 49t9.5 27t6 14.5q9 22 15.5 38.5t7.5 19.5t8.5 14.5t15.5 25.5t15.5 26.5t26 54.5t49 120t59.5 149l24 60q0 6 10 16l-4 47h-94q-13 13 -57.5 15t-62 8t-17.5 25q0 32 45 71q87 10 119 10h45q14 0 26 -2 q23 12 38.5 22.5t20.5 26t17 45t26.5 65.5t26 65.5t13.5 35.5t14 29t18 36.5t12.5 37.5t14.5 36.5t19.5 28t24.5 33.5t25.5 35.5t20.5 25.5q14 25 34.5 66t52.5 60.5t79 50t99 57.5q112 59 208 59q31 0 111 -22q41 0 61.5 -8t44 -32t60.5 -24t79 14.5t63.5 19.5t35.5 13.5 t33 14.5q26 8 147 8l88 -6q114 -19 145 -81q14 -30 23.5 -50.5t14 -27.5t8.5 -16.5t8 -19.5q10 -25 11 -26.5t1 -26.5t-27.5 -62.5t-70.5 -37.5q-35 0 -43 5t-21.5 11t-17.5 10q-6 0 -12 6t-11 9v147q0 15 -37 45q-67 55 -94 55h-12q0 -10 -16 -10h-43q-22 -11 -39 -23 t-29 -20l-15 -10q-11 -7 -16.5 -21t-20.5 -43.5t-31 -63.5q-41 -84 -46.5 -92.5t-11.5 -21t-14.5 -26t-15.5 -25.5t-19.5 -36.5t-25.5 -77t-24.5 -78t-16.5 -36t-11 -22.5t-11.5 -23.5t-7.5 -13.5v-8q0 -74 95 -74h32l199 11q41 4 81 11t79 7h30q6 -2 28 -13t25 -14.5 t3 -9.5v-8q0 -22 -18 -43q-38 -41 -53.5 -73.5t-34.5 -86t-30.5 -81t-18.5 -41t-14 -29.5q-14 -31 -24 -41q-17 -41 -44 -89.5t-29.5 -83t-32.5 -65.5l6 -10h10q36 18 61 39.5t29 22.5t11.5 6.5t7.5 7.5q22 0 54 27.5t48 39.5q39 31 57 31q31 0 31 -49q0 -54 -70 -121 q-16 -16 -28 -31q-8 -6 -22.5 -20t-16.5 -16t-21.5 -9.5t-21.5 -8.5q-7 -4 -10 -9q-10 -20 -23.5 -33.5t-15.5 -13.5q-4 -4 -4 -6q-4 0 -23.5 -7.5t-23.5 -10.5t-22.5 -18.5t-25.5 -20.5t-29 -12t-45 -12q-57 -12 -71 -12h-27q-32 0 -47.5 37t-15.5 55.5t5 38t12 40.5 q19 51 25.5 59t18.5 19q42 39 53 106t28 104t35 67.5t33 62.5q38 81 38 118t-8.5 49t-23.5 18.5t-35.5 7.5t-43.5 7l-35 8l-67 2l-70 -2q-34 0 -87 -60q-13 -14 -19 -24q-16 -14 -17.5 -35.5t-6.5 -34t-12 -23.5t-9 -14t-5.5 -13.5t-6.5 -21.5q-9 -33 -11 -42.5t-14.5 -25 t-18.5 -34.5l-8 -45q-4 -6 -11 -26.5t-16 -46.5q-21 -59 -32.5 -99.5t-28 -78t-29.5 -72.5q-40 -78 -51 -156q-8 -16 -12 -27.5t-8 -20.5t-7.5 -20.5t-6.5 -20.5t-8 -21l-11 -28q-6 -15 -13.5 -28.5t-10.5 -18.5q-27 -45 -35 -59l-33 -73q-39 -49 -73 -102.5t-65 -100.5 q-74 -109 -126 -129q-16 -8 -57.5 -10t-93.5 -11.5t-90 -9.5t-58.5 3t-42 28t-43 52.5t-21.5 72.5t24.5 73.5t65.5 28.5t54.5 -19.5t25.5 -33.5q32 -37 37 -37l16 -8q4 -4 18.5 -19.5t18.5 -19.5h8q37 0 54.5 16.5t46.5 38.5q21 29 82 154q0 4 6 27.5t9 26.5t14.5 17.5 t15.5 18.5q19 38 16 47q47 104 83 199.5t73 178.5t56 152.5t43 139.5t55.5 141.5t52.5 145.5l10 24v6q0 16 -18.5 25.5t-28.5 14.5q-36 18 -45 18h-232q-17 0 -59 -25q-42 -33 -62 -90q0 -6 -8 -30.5t-17 -52.5t-17 -50l-9 -29l-29 -53q-8 -16 -13 -40t-7 -28t-4 -13t-6 -11 q-14 -42 -21.5 -52t-14.5 -28.5t-16 -39.5q-24 -62 -26 -68.5t-6 -17.5t-9.5 -25.5t-8.5 -27t-5 -15.5t-14 -21.5t-14 -20.5l-23 -63q-31 -66 -66.5 -126.5t-55 -109.5t-34 -70.5t-24.5 -54.5q-4 -2 -11.5 -17t-9.5 -18t-5 -10.5t-8 -15.5t-9 -21q-4 -4 -13.5 -23.5 t-13.5 -25.5q-39 -43 -67.5 -86t-57 -69.5t-45 -27.5t-23.5 -3t-18.5 -6t-24 -9.5t-24.5 -9.5t-28 -7q-39 -7 -80 -7q-23 0 -38.5 4t-37 8t-46 25.5t-29.5 32t-15.5 19.5t-15.5 20t-19 21.5t-14 33.5zM825 981q0 -17 11.5 -23t23.5 -9t25.5 -7t25 -7t15.5 -5h161 q10 10 25 10h102q2 2 4.5 8t4.5 9t7 19.5t11 35t11 34t10.5 27.5t14.5 31.5t19 42.5l9 35q5 15 24 50.5t27 55t17 38.5q40 82 40 115t-19.5 67t-47.5 66q-69 77 -113 77q-83 0 -182 -70l-9 -8q-2 -4 -7 -14.5t-11 -22.5t-11 -23.5t-11 -22.5t-29 -44t-33 -53l-6 -58 q-2 -4 -13.5 -29.5t-13.5 -31.5t-9 -26.5t-9 -26.5t-5 -19.5t-4 -18.5q-2 -10 -18 -26q-37 -81 -37 -158v-18z" />
<glyph unicode="|" horiz-adv-x="835" d="M512 1653v2q0 39 22.5 64.5t59.5 25.5q70 0 70 -76.5t-27 -122.5v-131l10 -270l-10 -141q0 -48 10 -76v-307l6 -15v-108q-6 -12 -6 -19v-61q-10 -20 -10 -35v-21q0 -24 10 -45v-116q0 -62 -10 -107v-549q16 -16 16 -61v-27q0 -23 -17.5 -38t-33.5 -15q-35 0 -43 7 t-19.5 16.5t-11.5 13.5v948l13 29v8q-13 13 -13 16v43l13 160q0 35 -13 49v113l13 272v74l-13 170v160l-6 123q-10 10 -10 47z" />
<glyph unicode="}" horiz-adv-x="2007" d="M-471 -481q0 104 82 104q16 0 22.5 -4t6.5 -20l-9 -58q0 -10 11.5 -23.5t21.5 -17.5q17 -15 55 -32q43 -11 103.5 -11t91.5 30t55 60q10 8 27.5 33t21.5 33l25 70q4 8 16 35q18 39 31.5 68.5t25 55t20.5 50t20.5 49t24.5 57.5t24.5 64.5t22 44t13.5 23.5t7 23.5t8 22.5 t15.5 33.5t34 64.5t30.5 64.5t12 32t8 17.5q11 25 16 34.5t14 33t22 40.5q11 23 26.5 66t30 67t27.5 50q32 61 32 107q0 2 -4 4.5t-10 6.5t-26.5 14t-30.5 12t-38 3t-54.5 6.5t-45 18.5t-18.5 41t13.5 41t31.5 19q27 9 82 9l119 -11q48 0 53 17q0 2 4 12t8 23.5t8.5 26.5 t17.5 53q31 104 118 257q0 4 6 13.5t9 11.5t15.5 14.5t14.5 12.5q23 35 40 72.5t35 72.5q4 4 11.5 10t9.5 8t10 7.5t17 11.5q21 13 28 20q2 2 10.5 9.5t17.5 16.5t16 17.5t10 9.5q33 11 36 17l56 35q4 4 10 6t6 4q53 12 107.5 24.5t105.5 12.5q77 0 186 -37 q12 -10 19.5 -20.5t14.5 -18.5q14 -16 44.5 -16t65.5 17.5t52 24.5t34.5 14t21.5 9l236 17h10q45 0 78 -15.5t62.5 -31t38.5 -38t28 -32.5l35 -8q8 -2 22.5 -15.5t14.5 -21.5v-27q-37 -74 -39 -84t-11.5 -43t-13.5 -55q-25 -31 -40 -74t-24 -64q-24 -59 -29 -65t-7 -15 t-4 -20q-4 -24 -4 -33t-19 -18l-6 -26q-20 -45 -47 -86t-45 -84l-19 -58q-14 -35 -34.5 -66.5t-36.5 -68.5l-19 -63q-84 -179 -106 -279q-2 -4 -2 -17t4 -18q27 0 52.5 24.5t35.5 32.5q40 30 66 45t67 46.5t81 31.5t40 -34v-2q-10 -29 -34 -45.5t-33 -28.5t-16 -26.5 t-10 -19.5t-17 -19l-30 -30q-38 -38 -47.5 -45t-19.5 -15.5t-23.5 -18.5t-25.5 -19.5t-35 -25.5q-28 -21 -147 -76q0 -11 -18.5 -16t-50 -10t-67.5 -5l-53 56l-2 41q0 49 15.5 77.5t26.5 46t18.5 32.5t13.5 30.5t14 32t14.5 33t9.5 21.5t6 17.5t7 25.5t8 25.5t11 27 t15.5 27.5t27.5 52q53 106 77 197v20q-14 27 -35 27l-26 -2q-47 4 -89 12t-85 8t-67.5 -4t-59.5 -25q-74 -100 -144 -288q0 -4 -26 -82l-19 -64q0 -8 -18 -26q-20 -37 -28.5 -80t-22.5 -84q-16 -35 -28.5 -63.5t-22 -46t-11.5 -29.5q-5 -30 -24 -75.5t-25 -64t-13 -41 t-21.5 -46t-21.5 -42t-10 -27t-6 -17.5q-10 -24 -15 -38t-21.5 -37.5t-30.5 -59.5t-27.5 -67.5t-31.5 -56.5q-35 -52 -80.5 -87t-78 -43.5t-59.5 -24.5q-109 -19 -217 0q-4 2 -14 1t-10 3q-41 0 -47 6q-63 11 -78 105q-4 24 -4 51.5t11 51t52 33.5h27q33 -14 52.5 -38.5 t37.5 -48t39.5 -41t60.5 -17.5h27q31 31 35 39l28 16q37 41 55.5 92.5t39 90.5t43 69.5t41 84t46 126t43 113.5t24.5 63.5t19.5 47t18.5 46t18 42t18.5 53t16.5 53t15.5 38t9.5 24.5t15.5 35t27.5 57.5t27.5 57.5t17.5 38q29 16 34 55t5 68l-2 39q-45 35 -95.5 40t-107.5 5 h-53q-89 0 -133 -25q-54 -108 -69 -147t-32.5 -81.5t-30 -67.5t-22.5 -48l-8 -45q-6 -9 -29 -55l-8 -37q-2 -4 -8 -16.5t-14.5 -28t-14.5 -28.5t-19.5 -42.5t-33.5 -77t-55 -100.5l-27 -53q-2 0 -4 -6.5t-8 -20t-13.5 -28.5t-13.5 -29q-10 -23 -35 -74q-24 -70 -43 -100 q-4 -12 -14 -27.5t-12 -18.5q-8 -12 -8 -20l-39 -88q0 -4 -11 -14l-23 -24q-13 -13 -26.5 -25.5t-29 -25.5t-44 -35.5t-59.5 -41.5q-72 -46 -131 -53q-23 -4 -43 -9t-47 -5l-90 8q-108 37 -149 107q-15 26 -15 61zM840 975l26 -25l103 -28h12l135 8h58q8 -8 20 -8t31.5 32.5 t40 75.5t37 84t26.5 63t31 55q39 65 39 97l47 111q0 29 -17.5 49t-23.5 31q-14 24 -19 34q-11 24 -14 29q-9 17 -35 43q-8 6 -29.5 12.5t-25.5 8.5l-72 6h-18q-2 0 -11.5 -6.5t-19.5 -12.5q-27 -16 -33 -16q-2 -4 -21.5 -10t-23.5 -9q-33 -20 -53 -69t-30.5 -68.5t-19.5 -43 t-12 -26.5q-11 -11 -19 -46q-12 -49 -28 -79t-20 -42.5t-7 -15.5t-10 -25.5t-12 -24.5q-10 -41 -21 -75.5t-11 -75.5v-33zM1462 995q0 -57 82 -57h37q28 5 89 6.5t92.5 3.5t43.5 2l19 6q33 27 42 50.5t23 64.5t37 82t43 84q16 43 27.5 80t20.5 60.5t17.5 41t8.5 21.5v123 q-23 45 -80 87q-16 11 -31 13h-43q-41 0 -86 -17q-58 -23 -80 -72l-7 -17.5t-7 -9.5l-12 -14t-11.5 -13.5t-21 -34t-38.5 -83.5t-41 -84q-40 -65 -58.5 -131.5t-27.5 -90t-13 -32.5t-9 -19.5t-9.5 -20.5t-6.5 -12v-17z" />
<glyph unicode="~" horiz-adv-x="993" d="M307 600q0 52 37 105q6 8 14.5 13t18.5 16q20 22 58 36t59 24q37 17 91 17q105 0 131 -23q7 -6 15 -6h10q16 0 40 -12t38 -15t25.5 -10.5t23.5 -7.5l31 2q71 0 123 66q10 12 26.5 28.5t23.5 29.5t18 14q35 0 34 -35q0 -79 -32 -119q-8 -10 -22.5 -29.5t-33 -31t-39 -19.5 t-40 -14t-35.5 -11q-43 -16 -117 -16l-115 8q-10 0 -17 5.5t-16.5 10.5t-22.5 9t-26.5 9t-27 11.5t-24.5 6.5t-15 -3h-6l-23 3l-55 -9q-32 0 -54 -20q-10 -10 -17 -15.5t-12 -17.5q-15 -37 -32 -37h-14q-21 0 -21 37z" />
<glyph unicode="&#xa1;" horiz-adv-x="694" d="M186 98v15q0 6 2 6l19 71q0 4 12 18.5t14 18.5t4.5 22.5t6.5 22.5q10 47 34.5 84t45 65.5t19.5 38.5q-1 15 11 34l15 22q35 87 45 104t22.5 27t18.5 17t7 21.5t8 34.5q23 65 46 100.5t31 47.5q22 34 26 52t5 20l34 74q8 18 17.5 51t23 65.5t29.5 57t36.5 24.5t39 -15.5 t18.5 -42t-12 -45.5t-19.5 -37.5t-13.5 -35t-14 -34.5q-18 -42 -23 -62l-35 -109q-9 -18 -44 -104t-38 -92q-8 -16 -13 -43t-16 -54.5t-23.5 -59.5t-16.5 -59.5t-11 -48t-14.5 -45t-15.5 -51t-15.5 -47t-9.5 -25.5t-10 -21.5t-17 -34t-18.5 -34t-11.5 -21.5t-6 -19.5 t-9 -29.5t-11.5 -29.5t-8.5 -20.5q-8 -8 -22.5 -11.5t-22.5 -7.5h-10q-4 4 -25 11q-60 17 -66.5 45t-12 46.5t-5.5 22.5zM764 1529.5q0 31.5 8 57t22 47.5q33 47 89.5 47t88.5 -23.5t46 -84.5v-8q0 -29 -12 -65q-16 -45 -60 -50q-16 -2 -16 -6q-6 0 -29 -17h-22 q-34 0 -64 26q-51 45 -51 76.5z" />
<glyph unicode="&#xa2;" horiz-adv-x="530" d="M-567 -428q0 44 10 57q5 13 30 37q34 31 62 37h6q38 -17 45.5 -30t10 -25.5t6.5 -28.5t14 -27.5t25 -21.5q43 -30 77.5 -39.5t46.5 -10.5t40 13t54 35q58 44 79.5 71t28.5 40.5t12.5 27.5t9.5 29.5t11 36t20.5 44t19.5 34t10 15.5t15.5 35.5t39 86t40 88t24.5 67.5 t26.5 75t25.5 74t18.5 55.5t27 45t33.5 62.5l8 43q10 41 29.5 73.5t37 76.5t30 96.5t28.5 105.5q8 16 17.5 39.5t19.5 42.5l21 29q0 6 8 32.5t16 69.5t29 84q21 55 80 145q23 37 32 82t37.5 93t73.5 104.5t82 116.5q29 12 52.5 33.5t36.5 31.5t23.5 16.5t12.5 8.5q3 3 27 16 q49 25 63 34q15 9 82 17l45 2q4 -2 6 -2h6l19 -2q10 0 29.5 -3t39.5 -6q47 -7 60.5 -11t36 -14.5t41.5 -23.5q47 -31 47 -72.5t-5.5 -54.5t-15.5 -28q-24 -24 -61 -24t-49.5 19.5t-18.5 46t-15 55t-32 41.5q-49 30 -92 30h-12q-45 -20 -76 -52t-47.5 -50.5t-27.5 -29.5 t-11 -15q-5 0 -13 -17.5t-12 -24.5t-25.5 -44.5t-68.5 -111t-67 -117.5q-31 -71 -31 -81q0 -4 -3 -18t-6.5 -30.5t-6.5 -32t-4 -17.5t-10 -24.5t-21.5 -52t-25.5 -61.5t-18 -43q-11 -28 -16 -28q0 -8 -8 -29.5t-10 -23.5l-52 -111l-10 -43q-12 -57 -33.5 -110t-31 -81 t-11.5 -34t-23.5 -42t-45 -113.5t-55.5 -159.5q-67 -169 -154 -342q0 -19 -12 -44.5t-28.5 -42t-23.5 -27.5q-32 -46 -32 -58q-116 -198 -488 -232l-20 -5q-4 -1 -34 -1q-73 0 -144 45q-27 16 -32 37.5t-5 40.5z" />
<glyph unicode="&#xa3;" horiz-adv-x="3010" d="M201 455v26l16 51q0 4 3 20.5t6 36t5 36t3.5 22.5t6.5 25.5t10 41t10 41t7 27.5q75 120 174 183q2 2 15.5 7t17.5 9l29 8l6 10q39 29 92 33t98 4l103 -12q29 -4 46 -20.5t30.5 -25.5t32 -18.5t20.5 -12.5t8 -14t19.5 -26.5t23.5 -32t10 -54.5t-14 -62.5t-39 -41.5 q-46 -30 -117 -30l-39 2q-28 20 -30 63.5t-6.5 63t-31.5 31.5q-44 20 -106 20l-67 -6q-71 -28 -88 -41.5t-23 -25t-24 -31.5q-51 -57 -97 -162l-8 -16v-9l8 -49l-8 -86q0 -54 65 -132q17 -19 25 -28.5t17.5 -18.5t18.5 -19q20 -24 26 -26.5t15 -8.5t22 -13 q30 -19 39.5 -21.5t18.5 -6.5t11 -4h35q30 -3 86 -25h137l45 -8h33l45 -8l74 24l80 11h8l51 -11q20 0 38.5 6.5t30 9.5t19.5 4t19 3q20 4 27 4t17.5 7t12.5 11q6 0 19.5 6.5t13.5 10.5l45 6q0 2 24.5 16t59.5 27.5t54 26t33.5 23.5t27 19t37 14.5t36.5 14.5t21.5 14.5 t19.5 13.5t19.5 13t12.5 8t24.5 12.5t25.5 14.5t17.5 18.5t16.5 16.5t13 6t21.5 10t21.5 11.5t14 7.5q6 6 9 6q24 36 43 55q5 0 51 23q27 18 50.5 55t34.5 48q40 40 52 48t26.5 17.5t16.5 11.5q2 4 15.5 16.5t27.5 27.5t26 28l17 16q30 15 48 40.5t25 32.5t35.5 34.5 t60.5 59.5q50 49 75.5 76t38 40.5t26.5 28.5q26 31 35.5 40.5t21 25t14.5 17.5t12 8.5t14.5 9.5t24 23.5t23.5 25.5t15 20q12 16 26.5 26t30 22t35 33t38.5 39q45 43 97 59l97 95q0 2 16 10q104 35 207 35h61q4 -4 24.5 -18.5t25 -16.5t16.5 -8t27.5 -14.5t27.5 -14.5 q32 -16 43 -35q8 -6 19.5 -13t19.5 -15q16 -23 33.5 -43.5t17.5 -42t-7 -37t-19 -29.5q-27 -33 -59 -33t-54.5 18.5t-35.5 46t-20 59.5q-11 52 -20 69l-6 6h-12q-43 0 -82 -62q-22 -29 -35 -72q-27 -87 -46.5 -123t-43 -75t-32.5 -62.5t-11 -42t-6 -28.5t-10.5 -35.5 t-12.5 -52.5q-15 -67 -18 -70q-2 -2 -8 -14t-13.5 -26.5t-13.5 -27t-12 -27.5q-19 -46 -30 -78.5t-13 -42t-5 -19.5t-5.5 -18.5t-4.5 -11.5t-12 -18.5t-21 -33.5q-31 -46 -34 -49l-8 -17q0 -17 -3.5 -36t-4.5 -30t-2 -14.5t-7 -15.5l-13 -26q-18 -38 -24 -44 q-12 -27 -24 -92q-10 -37 -26.5 -67.5t-16.5 -69.5v-31q2 -4 11 -14t15 -10l52 10q41 0 61 -10q25 -25 13.5 -35t-22.5 -15.5t-21.5 -9.5t-14.5 -8l-197 -8h-129l-157 -18h-13q-127 0 -127 45q0 25 29 49q76 12 207 18q2 2 8 8.5t13.5 13.5t15.5 16t22.5 31.5t18.5 26.5 q2 0 13 10.5t16 21.5t12.5 52t13.5 56q16 42 31 57q2 4 8 19.5t13 31.5q31 74 37.5 102.5t16 50t24.5 48.5t13 39t-8 18t-10 11q-14 -2 -29 -2h-28l-230 8l-80 -11l-59 11q-17 0 -36 -27t-29.5 -43t-17.5 -25.5t-25.5 -27t-37 -35.5t-35 -34.5l-20.5 -20.5t-22.5 -14.5 t-20.5 -14.5q-29 -20 -44 -50t-32 -42q-24 -18 -47 -27q-6 -6 -6 -8v-2q-8 -4 -30.5 -21.5t-34.5 -26.5q-16 -11 -23 -20l-24 -6q-19 -13 -45 -18q-15 -30 -15 -37q-6 -6 -13 -10t-48 -32q-126 -88 -232 -128q-4 -4 -22.5 -5t-22.5 -5q-25 -6 -45 -26.5t-47 -24.5h-80 l-32 -7q-4 -4 -9 -4h-10l-57 11q-25 0 -64 -17h-231q-33 2 -57.5 10.5t-53.5 16.5l-96 16q-31 8 -61.5 23.5t-59.5 29.5q-7 0 -18.5 5.5t-25 12.5t-15.5 7t-27 25q-29 23 -56.5 43t-56.5 43q-27 27 -46 60.5t-32 53.5q-20 31 -30 85.5t-10 58.5zM2437 857q0 -13 11.5 -26.5 t23.5 -13.5h8l182 8h4l68 -8h31q34 27 47.5 77t20 78.5t13.5 43t18 36t24 48.5q36 70 40 76q15 28 15 55q10 5 10 33q35 90 35 157q-27 0 -51.5 -22.5t-35.5 -32.5t-29.5 -23.5t-22.5 -17.5q-2 -4 -12.5 -22.5t-11.5 -21.5t-10 -11t-19 -18q-16 -16 -25.5 -24.5t-23 -27 t-22.5 -27.5t-25.5 -16.5t-30.5 -21.5q-53 -60 -189 -226q-10 -10 -26.5 -24.5t-16.5 -27.5z" />
<glyph unicode="&#xa4;" horiz-adv-x="1452" d="M-535 -495q0 39 10.5 61t22.5 41.5t29.5 22.5t33 3t23.5 -5t20.5 -13t14.5 -8q10 -12 15 -17l16 -16q4 -8 14 -31.5t12 -27.5q23 -41 72 -61.5t88 -20.5h12q2 0 19.5 12t42.5 35q50 46 80 103q37 71 64 114q71 110 85 159l19 70v2q-3 0 18 25q14 43 24.5 70.5t12.5 36 t11 30t20.5 42t19.5 35.5q10 19 27 46q12 12 12 17q0 12 9 29t15.5 28.5t13.5 22.5q9 14 15 40.5t9.5 37.5t13.5 33.5t20.5 49.5t20.5 50.5t12 26.5t2 6t2 7t5 12.5t13.5 28.5t13.5 25.5t5 10.5t4 8q34 52 37.5 80t7.5 34l6 37l-2 24q-25 25 -38 31q-17 8 -64 8l-23 2 l-61 -2q-4 2 -24 10q-39 17 -42 33v8q10 45 32 56.5t63 11.5l221 -8q16 0 28.5 38t20.5 57.5t16.5 43t13.5 37.5t8 19t20.5 37t37 67t31.5 67q10 14 14 32.5t8.5 29t11.5 30t10 29.5t7 15.5t5 8.5t12 21l23 35q11 16 17 28q19 40 29 50q4 0 10.5 6t34 28.5t68.5 51.5t82 47 q70 31 196 39l90 10h21l166 -84h14q25 0 42.5 12.5t30.5 23.5t21.5 18.5t30.5 21.5q33 22 199 39l174 8l22 -2q41 -14 77 -45q67 -58 67 -94q0 -70 -30 -118t-110 -46q-33 10 -51 38.5t-31.5 55t-24.5 47.5t-26 36q-36 34 -90 34q-39 0 -61 -23l-115 -112q-8 -16 -9 -19.5 t-5 -11.5q-18 -36 -35 -82q-10 -27 -19.5 -49.5t-12.5 -27.5t-12 -25.5t-11 -24.5q-4 -7 -10 -35q-14 -56 -27 -69q-12 -20 -24.5 -40t-12.5 -16q0 -2 -7 -22.5t-15.5 -47t-16.5 -51t-8 -34.5v-49q0 -10 4 -13.5t29 -10.5q39 -11 79 -11h54q14 0 30 2q29 -15 29 -23 q0 -57 -24.5 -82.5t-83.5 -25.5l-179 10q-12 0 -26.5 -10.5t-17.5 -15.5t-9 -24.5t-27 -87t-151 -388.5q0 -18 -8 -39t-18 -30q-19 -18 -26 -44.5t-14 -42.5q-19 -50 -28.5 -89.5t-33.5 -87.5l-54 -108q-16 -33 -34 -69q-36 -73 -40 -86q-8 -25 -20.5 -43.5t-38 -57 t-66.5 -96t-83 -91.5q-46 -37 -103 -63q-8 -8 -56 -22q-23 -10 -40 -16.5t-19 -8.5q-94 -12 -172 -12l-51 16q-30 0 -35 6q-13 16 -34 29.5t-33.5 24t-18.5 14.5q-4 24 -4 38.5t7 39.5t21 46q31 50 70 50t65.5 -20.5t54.5 -47.5q74 -73 134 -73q13 0 55 35q55 53 86 106 t51.5 92t28.5 56.5t15.5 28.5t14.5 24.5t16 28.5q33 53 36 90q11 18 29 65q36 94 62 154.5t30 73t8 25.5l8 26q13 45 27 70.5t21 45.5q13 43 16.5 47.5t7.5 16.5t10 23.5t11.5 20.5t7.5 12t6 18.5t9 35t16.5 44t20.5 43t14 29t10.5 21.5t8.5 18t10 19q15 24 15 67.5 t-35 45.5q-10 2 -29.5 4t-38.5 5q-39 8 -50 8h-25q-46 4 -94 4l-59 -2q-18 -2 -35 -2h-23q-12 -4 -22 -15l-15 -14q-6 -10 -8 -19.5t-4 -14.5t-2 -9q-7 -25 -26 -65q-42 -88 -48 -108.5t-12 -30t-14 -20.5t-25 -58q-110 -307 -139 -345q-4 -4 -8 -24.5t-7.5 -24.5t-5.5 -10 t-13 -13q-22 -14 -50 -100q-4 -6 -6 -15t-6 -17t-9 -19q-8 -20 -35 -72.5t-50 -100.5t-33 -64q-38 -27 -64 -87q-10 -18 -18.5 -34.5t-13.5 -22.5q-31 -37 -54 -45q-16 -16 -45 -39.5t-44 -37t-19 -15.5q-106 -70 -238 -70h-49q-7 0 -21 6t-21 8.5t-11 3.5t-14 2 q-41 4 -57 9q-32 8 -74 71q-7 11 -3 9q-27 27 -27 66zM819 999q0 -14 19 -33l24 -24h10l76 8l92 -8l37 2q10 2 21 2q10 0 34 -2t36 -2q63 0 104 102q2 4 6 18.5t9 31.5q13 42 18 57q9 26 47.5 97t64 125t35.5 112v12l-6 31q-10 20 -19.5 34.5t-24.5 50.5q-36 91 -159 91 q-30 -10 -37 -10q-96 -41 -145 -121t-88 -180q-2 -2 -2 -4q-4 -22 -4 -29q-4 -2 -11.5 -15.5t-7.5 -9.5q-116 -239 -129 -334v-2z" />
<glyph unicode="&#xa5;" horiz-adv-x="1415" d="M-655 -508q0 43 17 72.5t60.5 29.5t61.5 -23.5t32.5 -52t33 -55t55.5 -32.5l59 -11l45 9q50 0 68 18l43 45q25 31 47 63.5t42.5 58t28 54.5t31 67.5t61.5 92t57 82.5q26 40 26 43l37 92q6 24 28.5 63t25.5 44q19 28 36 45q20 33 28 64.5t22.5 58.5t31 41t26.5 40.5 t18.5 59.5t18.5 49t22.5 35.5t25.5 41t25.5 40t14.5 22.5t8 14.5t13 22.5q14 22 22 45q6 6 13.5 19.5t9.5 13.5q12 35 25.5 55.5t13.5 56t-15 35.5h-47q-17 0 -38 3.5t-36.5 5.5t-21.5 4l-64 6q-11 6 -26 28v7q0 28 16 36h33l149 -6q49 0 101 6q2 4 8 9.5t8 7.5t14.5 9 t14.5 11t16.5 29t40 76t70.5 143q88 179 135 203q29 33 54.5 71.5t45 52t27.5 17.5t17 8q15 6 26 17q35 18 66.5 38.5t70.5 31.5q75 21 154 34q189 0 251 -39q29 -18 48 -28q37 -29 67.5 -76t30.5 -94v-23q-45 -45 -55 -45l-35 -35h-4q-77 0 -105 25q-14 29 -23 49 q-12 28 -24 51q-8 16 -8 47q-10 43 -51 66.5t-84 23.5t-76 -14t-52 -23.5t-31.5 -12.5t-12.5 -5q-10 -20 -90 -100q0 -6 -21 -27q-40 -82 -101 -153q-9 -11 -17.5 -21t-20.5 -23t-14 -36t-14.5 -45t-28 -45t-30.5 -46q-36 -54 -36 -86.5t17.5 -36t40.5 -6.5h143l29 11h4 l82 -11l272 11h47l18 -11v-10l3 -16q0 -51 -74 -153q-39 -56 -83 -139t-81 -142l-8 -6q-2 -4 -8.5 -16.5t-13.5 -26.5q-21 -39 -44.5 -73t-39.5 -61q-42 -66 -42 -86q0 -53 31 -45q37 2 68.5 18.5t64.5 34.5q85 48 137 48q14 0 25.5 -3t11.5 -20v-8q-133 -144 -272 -205 q-3 -5 -45.5 -16.5t-98 -35.5t-94 -24t-56 3.5t-32.5 10.5q-37 16 -37 50q0 14 16.5 54t20.5 46q4 2 14.5 12.5t20.5 24t21.5 40t18.5 39.5t17.5 27.5t21.5 32t20 31.5q13 18 19.5 43t10.5 29q0 4 3 11t4 8t8.5 9.5t14.5 17.5t14 17t7 13q6 4 13.5 25.5t15.5 42t30.5 55 t43.5 69.5q53 85 53 154v4q-7 14 -19 14l-407 -2q-35 0 -43 -6q-10 -39 -32.5 -68.5t-32 -49t-16.5 -35t-15.5 -34t-14.5 -34t-24.5 -58.5t-66.5 -116.5t-81 -140t-55.5 -125t-43.5 -100.5t-42 -73.5t-31 -48t-20 -37t-12.5 -24.5t-6.5 -13.5t-8 -20.5q-10 -28 -13 -32 t-14.5 -18.5t-11.5 -18.5l-28 -59q-33 -49 -61 -96t-58 -95q-48 -78 -150 -139q-37 -28 -78 -53t-44 -26t-17 -4t-18 -5q-102 -37 -186 -37q-153 0 -228 109q-10 10 -10 53z" />
<glyph unicode="&#xa6;" horiz-adv-x="1411" d="M-399 -576.5q0 42.5 30 82.5q14 23 64 23q6 0 20.5 -10.5t20.5 -12.5l28 -28q4 -6 15.5 -31t15.5 -29q14 -29 50 -41t67 -12h10q62 7 119 57q12 35 32.5 60.5t31.5 61.5t20.5 69t30 68t37 59t23.5 40q13 31 13 50l11 82q2 6 6 24.5t10 39.5q15 56 19 65.5t10 27t20.5 49 t26.5 78t23.5 77t13.5 40t3 19.5t3 28q29 59 48 119q3 11 50 135q27 45 40 81t28.5 71t23.5 52.5t8 35.5t-7 30.5t-17 12.5l-47 -10h-13q-10 0 -14 2l-51 -2h-23q-17 0 -40 11t-26 20.5t-3 17.5q0 41 33.5 63.5t68.5 22.5t51 -8h123q33 22 37 37l10 61l25 53q10 10 10 45 q4 16 13.5 29.5t20.5 38.5t22.5 64.5t27.5 74.5q12 37 39 71t63.5 90t92 108.5t119.5 83.5q115 55 305 55q41 0 72.5 -13.5t67.5 -21.5t77 -12t65 -43q2 -4 2 -17v-18q0 -42 -21 -78q-46 -79 -57 -115t-28 -87.5t-32 -104.5t-28.5 -111.5t-50.5 -109.5l-28 -125 q-33 -46 -56 -117l-6 -47q-8 -25 -16 -38t-23 -42q0 -4 -6 -21.5t-13 -35t-18.5 -35t-18.5 -31.5t-10 -24.5t-15.5 -49.5t-37 -108.5t-34.5 -147.5h6q18 0 32.5 19.5t20.5 23.5t22.5 11.5t27.5 18.5l23 23q11 11 19 20t11 10q12 4 30 22q12 8 24.5 22.5t27.5 27.5 q58 53 94 20q12 -11 16 -27q-4 -4 -14.5 -21.5t-14.5 -21.5q-12 -12 -26 -60q-2 -2 -11.5 -10t-19.5 -19.5t-20.5 -19.5t-12.5 -10q-2 -4 -16.5 -21.5t-20.5 -25.5q-102 -134 -276 -217q-1 0 -19 -8h-6q-68 0 -95 11q-54 23 -54 72.5t12 91.5t30.5 83t39 80t28.5 59 q17 42 17 63q6 10 12 35.5t35 83.5l8 35q0 10 25 43q65 150 65 232v16q0 26 -22 27q-23 0 -40.5 -9.5t-39.5 -9.5l-127 8q-45 0 -85 -4t-58.5 -18.5t-18.5 -16.5l-6 -6l-10 -37q-17 -17 -17 -26q-14 -23 -15 -46.5t-9 -35.5q-21 -29 -21 -35q-29 -49 -46 -99.5t-27.5 -77 t-16.5 -37.5t-12 -25q-25 -61 -25 -72v-15q-4 -23 -14 -41t-14.5 -32.5t-6.5 -42t-4 -35.5q-27 -19 -43 -84q0 -2 -3 -13.5t-6 -23.5t-5 -22.5t-4 -12.5l-45 -90q-12 -29 -18.5 -63.5t-11.5 -50t-14.5 -27t-11.5 -14.5t-4 -9t-6 -8q-55 -174 -119 -270q-28 -41 -47.5 -66.5 t-27 -36t-13.5 -14.5q-29 -48 -73 -80q4 -11 -34 -27q-65 -27 -94 -40q-44 -19 -149 -19h-39l-45 4q-2 2 -19.5 4t-24.5 3t-21.5 5t-28.5 22.5t-31 41.5q-24 24 -24 66.5zM860 1077q0 -10 13.5 -22.5t17.5 -14.5h49q53 0 101.5 11.5t101.5 17.5l47 -2q14 0 16 1t20.5 7 t32.5 14t21.5 38t13.5 47q21 21 21.5 26t44.5 137q0 19 10 39l6 27q4 2 12.5 13t8.5 14q26 54 26 137v41q0 44 -69 110q-17 15 -29 17l-72 10q-8 0 -28 -10q-47 -16 -80 -31q-36 -15 -75 -90q-26 -50 -48.5 -92.5t-24.5 -48.5l-16 -25q0 -3 -6 -23t-9 -30.5t-5 -12.5 l-15 -24q-2 -6 -7 -16.5t-9 -21.5q-11 -31 -15 -36v-27q-6 -43 -30.5 -83t-24.5 -87v-10z" />
<glyph unicode="&#xa7;" horiz-adv-x="1441" d="M436 864q0 69 10.5 135t19.5 81.5t17 31.5l6 37v25q4 4 10.5 22t9.5 22.5t14.5 24t15.5 23.5q10 29 14 54.5t27 53.5q23 23 42 36t31.5 26.5t22.5 28t15 18.5t15.5 15t22.5 22q29 29 33 36q2 0 16.5 6.5t18.5 10.5q27 10 49 23.5t38 18.5q34 11 57.5 13t45 13.5t52 9.5 t55 -3t44.5 -8q42 -16 66 -77q19 -47 19 -54v-16q0 -47 -20.5 -75.5t-51.5 -63.5q-21 -8 -55.5 -8t-51 17t-30.5 24.5t-23.5 11.5t-19.5 9q-22 11 -29 11h-39q-217 0 -217 -137v-18q0 -32 14.5 -48t24.5 -26t20.5 -22.5t25 -28t22.5 -31.5t22 -41q4 -12 19.5 -14t25.5 -6 q76 -25 132.5 -79.5t89 -85t49 -49t20.5 -18.5q0 -1 8 -27q19 -19 31 -27.5t24.5 -18.5t25.5 -33t30 -51q51 -88 59 -136q12 -43 19.5 -87t12.5 -68.5t6 -27.5t1 -16v-30q0 -10 -1 -14t-3 -17.5t-5 -31.5q-8 -45 -11 -48l2 -47q0 -17 -4.5 -22.5t-4.5 -9t-4 -9.5t-13 -29.5 t-10 -26.5q-15 -45 -22 -52q-5 -15 -23 -43q-33 -49 -41 -68q-20 -41 -32 -54t-22 -23l-19 -19q-10 -10 -20.5 -19.5t-12.5 -12.5q-31 -47 -57.5 -64t-50.5 -33q-2 -4 -16.5 -14.5t-17.5 -12.5q-10 -7 -17 -20q-10 -4 -42 -17.5t-42 -16.5t-33 -10.5t-48 -16.5 q-69 -24 -81 -29h-45q-5 0 -29 12l-43 6q-20 4 -31.5 10t-18.5 19.5t-12.5 23.5t-11.5 22q-14 30 -18 34l-2 43v22q0 8 3 13q26 43 42 66q25 36 111 36h36q13 0 33 -17q16 -8 34.5 -16t31.5 -12h145q4 4 18.5 10t37.5 16.5t34 10.5l6 8q13 8 39 47v90q-4 25 -25.5 42 t-34.5 33.5t-18.5 23.5t-9.5 13.5t-10 12.5l-16 16q-21 21 -27 22t-15.5 10t-19.5 19.5t-19.5 19.5t-11.5 13l-10 19l-8 8q-162 111 -299 313q0 4 -3 7t-17.5 20t-29 44.5t-22.5 56t-13 60t-11 61.5t-13.5 42t-7.5 51zM618 788q16 -29 26.5 -60.5t27.5 -57.5q29 -55 78 -92 t74.5 -60.5t51 -49.5t54.5 -56q71 -73 84 -82q20 -20 40.5 -34.5t39.5 -29.5q50 -36 66.5 -55.5t26 -42.5t26 -23t24.5 11.5t12 27.5q8 34 8 58v12l-8 25q-44 208 -255 373q-62 48 -124 89q-16 12 -24 34t-31 40l-70 51q0 2 -5 6.5t-9 4.5l-88 47h-8q-17 0 -17 -11v-125z " />
<glyph unicode="&#xa8;" horiz-adv-x="1044" d="M623 1360v16q0 39 16 60q45 57 92 57q111 0 111 -98q0 -47 -40 -67.5t-81 -31.5h-21q-77 0 -77 64zM1100 1426q0 60 44 90q15 10 42 10q55 0 112 -10q14 -10 28.5 -32t14.5 -40q0 -53 -39.5 -90t-95.5 -37h-6q-41 16 -70.5 32.5t-29.5 76.5z" />
<glyph unicode="&#xa9;" horiz-adv-x="2115" d="M139 63v95q2 0 1 12t3 12q0 24 9.5 50t14.5 41.5t9 19.5q25 68 66 119t65.5 79.5t30.5 39t8 12.5t13.5 13t23.5 23.5t23 23.5q22 21 22 34l102 102t67 62.5t81 49.5q85 43 100.5 54.5t37.5 26t27 17.5t12 5t7 4l45 9q53 16 102.5 35.5t104.5 19.5h10l43 -8 q4 -4 16.5 -11.5t26.5 -16.5l25 -17q15 -10 18 -13h4q0 2 10.5 6t31 19.5t41.5 30.5q51 37 74 37t30.5 -1t12.5 -10.5t15.5 -25t10.5 -17.5v-24q0 -37 -29 -66q-22 -22 -22 -55q-10 -25 -31 -40t-33 -38l-29 -59l-8 -6q-39 -47 -69.5 -101.5t-55 -90t-37 -56.5t-21.5 -32 q-18 -22 -28 -33t-18 -28.5t-18.5 -37t-20.5 -38t-14 -26.5q-17 -10 -17 -41q0 -10 15.5 -16t40 -4t61.5 18.5t70.5 41t65.5 52t63 52.5q41 26 88 61t64 47q44 32 46 37q4 2 13.5 8t15.5 8l35 13q6 4 19 15t18 15l53 35q14 10 33.5 24.5t26.5 41.5t8 66.5t11.5 71.5t20.5 43 t18.5 35t18.5 52.5t35 44.5q2 2 12 12.5t22.5 21.5t22.5 20.5t14.5 11.5t15.5 5t47 16.5t58 23.5l64 4q86 0 123 -23q2 -2 10 -9t18.5 -17.5t19.5 -20.5t20 -22q18 -20 18 -68.5t-3 -62t-13.5 -22.5t-31 -18.5t-24.5 -12.5t-8 -3h-12q-38 0 -56 10l-37 37q-33 39 -66.5 75 t-74.5 36t-61.5 -21.5t-20.5 -50.5q0 -50 20.5 -99.5t31 -86.5t19.5 -59q14 -34 36 -65t42.5 -91t20.5 -131v-58l-18 -106q-15 -71 -117 -156q-4 -2 -18.5 -17t-16.5 -18q-11 -11 -57 -26l-41 -19l-49 -6q-29 0 -62 -12l-73 -2l-72 2q-10 0 -41 11.5t-45 16.5t-21.5 9 t-24 21.5t-23.5 25.5q-9 10 -9 67.5t37 80t98 22.5h47q7 0 22 -13t34.5 -30.5t38.5 -31.5q48 -36 94 -36h35q67 15 67 219q0 137 -49 201q-20 27 -48 27t-47.5 -22.5t-37.5 -35t-41 -17.5t-39 -19q-55 -35 -105.5 -75t-96.5 -73t-85 -57.5t-74.5 -52t-67.5 -54t-53 -35.5 q-49 -20 -56 -26t-15 -11.5t-17.5 -11.5t-17.5 -11t-11 -8t-16.5 -10.5t-16.5 -8.5t-15 -7t-26.5 -12t-27 -12t-38.5 -18.5t-55 -12.5t-61 23.5t-32 52t9.5 51t22.5 46.5q19 35 58 71q-6 37 -23 37t-41 -15.5t-31 -18.5q-24 -10 -36 -22t-30.5 -22t-35 -24t-43 -25 t-53.5 -27t-46 -27.5t-38 -20.5q-41 -20 -86 -20l-32 -14h-11l-34 -2h-11q-24 0 -69 10q-8 4 -17.5 12.5t-21.5 15.5t-27 25zM410 201q23 -4 37 -16.5t38.5 -12.5t35.5 8t62.5 37t142.5 84q115 70 163 139q8 11 8 13q10 10 24 20q24 18 31 25l6 10q25 31 41.5 63.5 t42.5 65.5q31 26 57 103q5 14 10 25t7 14t8 21.5t6 25.5t3 16l2 24l-5 41q-8 11 -42 11q-61 0 -144 -50q-29 -14 -57.5 -24t-41.5 -21.5t-26.5 -21.5t-17.5 -13.5t-20.5 -14.5t-28.5 -22t-20.5 -18.5t-15.5 -15.5t-15.5 -16.5t-19.5 -21.5t-22.5 -26.5t-31 -38t-43 -61.5 t-37.5 -56.5t-22.5 -32.5t-19.5 -28q-27 -35 -29.5 -41t-9.5 -17t-14.5 -23.5t-14.5 -22.5t-15 -22q-12 -17 -12 -83v-26z" />
<glyph unicode="&#xaa;" horiz-adv-x="1585" d="M217 337q0 95 34 206.5t60.5 160t33.5 59.5t17 25q23 36 26 44q11 28 22 34q2 4 12 28t14 28q0 5 29 24q0 4 17 17q32 27 32 32q2 0 17.5 14.5t22.5 20.5t7 10q35 27 81 46q93 37 93 59q0 27 -17.5 46t-22.5 51q-7 45 -7 115.5t32 129.5t84 99q103 79 263 79l8 2 q108 0 182 -12q8 -4 27 -10.5t39 -13.5t38.5 -13t36 -12t52.5 -10.5t63 -24.5h146q5 0 24 28q16 16 33 41q19 28 56 33q49 0 60 -5q22 -10 43 -35t22 -39.5t1 -34t-16 -47.5q-22 -39 -59 -42q-55 0 -66 -22q-12 -29 -13 -56.5t-8 -43t-15.5 -32t-16.5 -34.5t-16.5 -33.5 t-10.5 -18.5t-5 -12.5t-12 -25.5q-32 -59 -48 -109v-10q16 -16 18 -16l101 -10h55q17 0 55 -19q10 -6 10 -20v-7q0 -16 -16 -35.5t-31 -19.5h-227q-39 0 -76 -138q-8 -30 -13 -43t-19.5 -43t-30 -63.5t-28.5 -64.5t-19 -43q-4 -25 -9.5 -35t-9.5 -21.5t-10 -26.5t-7 -18 t-6.5 -15.5t-12.5 -28.5q-10 -22 -19 -36q-21 -36 -22 -39t-5 -15.5t-8 -25.5q-10 -34 -10 -40q-4 -4 -15.5 -26.5t-13.5 -28.5v-13q0 -33 29 -32q38 0 68 26.5t46.5 45t24.5 26.5t18.5 18t21.5 22q23 23 38 36q20 12 38.5 29.5t34.5 32.5q40 36 62 36q16 0 16 -23v-4 q-11 -33 -39 -69q-60 -75 -231 -250q-4 -2 -14 -9.5t-23.5 -15.5t-26.5 -16q-76 -49 -155 -49q-75 0 -107 44q-12 15 -12 40q3 21 18 60.5t29.5 78.5t26.5 73.5t28 72.5q30 75 79 180.5t71.5 175t35.5 105.5t21.5 54.5t8.5 22.5v6q-8 12 -19 23q-4 -2 -12 -2h-31t-17 1 q-20 4 -46 17q-16 4 -36 8t-20 27v10q2 10 6.5 30.5t22.5 26.5h51l47 7q13 -7 19 -7q4 -4 41 -7q51 -4 63 13q4 5 8 9q0 4 5 12l28 51q0 10 17 27q2 4 5 14t4 15q8 35 12 43q18 31 18 40q71 133 71 213q0 56 -106 56q-25 0 -39 2l-111 16h-98q-10 2 -36 5t-30 7h-69 q-37 -10 -74 -13t-70 -15t-65.5 -38t-60.5 -60q-66 -76 -66 -140q0 -29 7 -62.5t9 -62.5q20 4 57 -9t56 -17q10 -6 33.5 -15.5t28.5 -13.5t15.5 -13.5t21.5 -20.5l36 -36q14 -29 14 -61l-6 -33q-24 -35 -67.5 -35t-68 4.5t-38.5 16.5t-28 26l-30 30q-16 16 -30 31t-20 21 l-19 7h-4q-30 0 -57 -27q-123 -141 -172 -270l-11 -45q-4 -23 -17 -39.5t-17 -34.5l-13 -62q-16 -106 -16 -174.5t5 -110.5t21 -74q36 -69 122 -69t125.5 27t65 50.5t37 33.5t24.5 20q31 27 34 33q4 2 16 21q14 25 21 32q27 18 45 27q10 -2 10 -23.5t-5 -36t-17 -25.5 t-14.5 -14t-9.5 -11.5t-14 -16.5t-14.5 -16.5t-7.5 -10.5l-26 -20l-13 -6q-75 -88 -115 -122t-44 -38t-13.5 -9t-25 -11.5t-32.5 -12.5q-45 -16 -50 -16q-12 -8 -32.5 -8t-35 1l-29 2t-39 5t-41 18.5t-38.5 26.5q-76 49 -97.5 125t-21.5 171z" />
<glyph unicode="&#xab;" horiz-adv-x="1126" d="M268 457q-73 84 45 159q45 33 73 48.5t56 40.5q57 35 93 70.5t57 35.5q16 21 90 71t84 53t29.5 12t33.5 9t15 -12l-8 -35q-4 -10 -20.5 -34.5t-20.5 -38.5q-31 -33 -62 -55.5t-59 -44.5q-62 -49 -109 -115q-16 0 -35 -24q-38 -47 -51 -56q5 -35 24 -68q40 -70 49 -97 q10 -30 36 -65q14 -33 23.5 -49t14.5 -24q11 -19 11 -31l-14 -43q-14 -14 -38 -14t-51.5 19.5t-47 44t-52.5 62.5q-12 10 -32.5 38t-28.5 38q-46 25 -105 105zM694 518.5q0 20.5 4 31.5t24.5 31.5t54.5 44t60.5 39t57.5 40.5q59 35 94 70.5t55 35.5q20 26 93 73.5t83.5 50.5 t28 12t32.5 9t15 -14l-8 -33q-4 -10 -19.5 -34.5t-19.5 -38.5q-31 -33 -61.5 -55.5t-59.5 -44.5q-69 -56 -110 -115q-18 0 -48 -37t-38 -43q9 -41 27 -71q36 -60 45.5 -91t20.5 -45.5t17 -22.5q12 -33 21.5 -49t14.5 -24q12 -21 14 -31l-15 -43q-17 -14 -39 -14 q-30 0 -37 12q-41 27 -62 51.5t-50 62.5q-22 16 -42 43t-22 33q-33 16 -57.5 45t-40.5 53q-33 48 -33 68.5z" />
<glyph unicode="&#xac;" horiz-adv-x="1376" d="M162 88.5q0 67.5 10 89.5l41 90q47 86 112 259q126 332 244 560q27 33 47.5 95.5t32.5 90t14.5 34t6.5 12.5q39 58 43 70l10 6q0 4 6 27.5t12 33.5t20.5 33.5t14.5 52.5l19 107l-31 20l-105 14q-12 0 -47 31q-18 9 -18 25q0 23 24.5 24.5t40.5 3.5h125l64 -10h18l58 2 q84 0 88 -25q2 -10 2 -29.5t-18.5 -50t-28.5 -59.5q-23 -45 -36 -94t-27.5 -92t-41 -77t-43.5 -72l-8 -37q-2 -4 -5 -14.5t-25.5 -55.5t-56.5 -139t-55.5 -141.5t-31.5 -64.5t-14 -28q-20 -29 -27.5 -55.5t-20.5 -67t-38 -83t-41 -84.5t-27.5 -77.5t-27 -71.5t-31 -69.5 t-15.5 -64t5.5 -35t41 -4.5t68.5 26.5t51.5 42t31.5 24.5t28.5 19.5t29 19.5t23.5 18t28.5 30t39.5 40q51 46 94 46q0 -35 -16.5 -56.5t-35.5 -45.5q-70 -98 -155 -172q-16 -16 -33.5 -20.5t-38.5 -16.5l-16 -17q-134 -100 -267 -100h-61q-51 15 -51 82.5zM848 100 q0 35 12 55.5t18.5 37t9.5 36t5 21.5l8 26q2 2 7 13.5t12 24.5q16 31 26 55t24.5 71t34 99t51 112t42 92.5t13.5 43t6 22.5q8 32 18.5 60t39.5 84.5t41 84.5q20 45 27 80q20 59 50 111.5t42.5 84t14.5 51t6 38.5t17 49.5t27 61.5q36 74 36 119t-29 52t-64.5 8t-64.5 4 t-29 29v3q0 2 2 4t4 6t15.5 15t17.5 13h254q119 0 119 -53v-12q0 -9 -8 -21t-13 -12q0 -3 -5 -22t-7 -30t-6 -13l-43 -91q-2 -2 -5 -18t-5 -18l-6 -27q-4 -4 -15.5 -27.5t-15.5 -27.5q-10 -27 -16.5 -57.5t-18.5 -57.5q-12 -39 -29.5 -75t-33.5 -72l-27 -89q-2 -4 -9 -14 t-14.5 -22.5t-14.5 -23.5q-15 -24 -15 -58q-17 -34 -29 -52q0 -15 -10 -30q-27 -92 -67 -179t-68.5 -163t-51 -129.5t-36.5 -112.5l4 -27l32 -2q34 6 68.5 33t47.5 36t26.5 19.5t24 18.5t16.5 15t30.5 31t52.5 52q54 54 72.5 71t32.5 19t19 4h2q12 0 12 -23.5t-10.5 -47 t-25.5 -44t-33.5 -39t-46.5 -49t-66.5 -73.5t-81.5 -80q-94 -81 -197 -115q-35 -10 -68.5 -23t-72.5 -13q-82 -1 -82 77z" />
<glyph unicode="&#xad;" horiz-adv-x="722" d="M231 460q0 78 56 105q4 4 23.5 7t21.5 6l39 8q84 -2 163.5 4t163.5 6h62q10 -4 26.5 -17.5t16.5 -28.5t-10.5 -29.5t-18.5 -28.5q-16 -18 -33.5 -40t-38 -26t-42 -8t-45 -8t-43 -7.5t-23.5 -3.5h-283l-30 25q-5 10 -5 36z" />
<glyph unicode="&#xae;" horiz-adv-x="1480" d="M174 74l2 30q0 7 19.5 42.5t34 62.5t32 57.5t31.5 57.5q27 50 31 57.5t5 10.5t5 14.5t8 23.5q10 32 13 36.5t13.5 22l22.5 37.5q30 51 47.5 71.5t20 28t18.5 25.5q10 31 28.5 64t28.5 52q37 66 37 69q0 2 2 4q4 4 15 26q20 39 20 84l-37 2q-66 -14 -133 -38.5t-139 -24.5 q0 61 117 109q47 20 94 32t69.5 22.5t51 21.5t51.5 22l49 2q39 0 66.5 -7.5t27.5 -43.5q0 -76 -35 -117q-8 -10 -8 -12q-18 -18 -18 -64q0 -8 -16 -32l-21 -31q-18 -29 -34.5 -61t-39.5 -60l-16 -15q-6 -12 -6 -37q-4 -2 -15.5 -17t-14.5 -18t-5 -18.5t-3 -17.5t-4 -9.5 t-15.5 -24t-40 -66.5t-33.5 -67t-10.5 -27.5t-7.5 -22.5q-8 -34 -11 -37q-6 -12 -6 -19l-8 -26v-2q0 -12 8 -23.5t22 -11.5t35 11t40.5 26.5t39 32t34.5 25.5q27 16 83 59l91 91q44 44 97 79q2 4 18.5 12t18.5 8l51 39q25 0 37 12t21.5 22.5t19.5 19.5t15.5 14.5t18.5 22.5 t17 22q2 10 5.5 32.5t8.5 47t8 46t5 28.5t7 21.5t12 29.5q19 43 35 60t31 32q38 39 52 49l27 12q4 4 18.5 9t29 9t26.5 9.5t58 5.5t101.5 -23.5t91.5 -77.5q10 -10 18.5 -37.5t8.5 -56.5t-24.5 -53.5t-50 -24.5t-40 2t-23.5 20t-23.5 46.5t-33.5 54.5q-43 60 -96 60 q-32 0 -61 -46q-27 -44 -27 -93.5t31 -109t61 -121.5q65 -136 107 -273v-9q-10 -33 -11 -68.5t-26 -84t-71 -86t-98 -70.5t-100 -38t-86.5 -5t-76 13.5t-72.5 36.5q-84 57 -84 110t32 77.5t79 24.5h16q13 -6 28 -20.5t23.5 -22.5t11.5 -11t7 -10t8 -16.5t8 -17.5t4 -10 q25 -37 56.5 -42t70.5 -5q119 0 119 133q0 101 -22 149q-14 41 -42 78t-39.5 61.5t-16.5 39t-12 27.5q-17 32 -37 32q-22 0 -48 -13q-4 -4 -14.5 -14t-22.5 -22q-31 -29 -39 -33q0 -4 -11 -11.5t-13 -9.5t-13.5 -12t-24.5 -22q-17 -18 -26 -28q-25 -28 -37 -28 q-33 -22 -45 -37q-68 -63 -136.5 -126.5t-141.5 -116.5q-8 0 -38 -21.5t-54.5 -38t-45 -32t-28.5 -18.5t-30.5 -13t-48.5 -21q-66 -26 -93 -26t-49.5 23.5t-22.5 62.5zM788 1606v16q0 7 26 39q35 45 87.5 45t80.5 -26.5t28 -67.5t-13.5 -58.5t-30 -30t-31.5 -24.5t-20 -14 h-8q-67 0 -107 77q-12 21 -12 44z" />
<glyph unicode="&#xaf;" horiz-adv-x="1112" d="M483 1321q0 74 64 106q38 19 94 19l98 -4h31l139 4h33l41 -2l37 -2l41 2h4l25 2h4q0 -2 28 -2q29 0 105 -6l28 2h15l22 2l23 -2h14l33 -2q6 -2 16 -2l33 2q23 0 40 -9.5t13 -44.5q5 0 -6 -22q-25 -82 -106 -85q-25 -1 -49 -1h-54l-35 6q-4 -2 -16 -2l-98 -2h-39l-41 2 q-46 -8 -84 -8h-102t-54 4l-59 4h-172q-66 0 -66 41z" />
<glyph unicode="&#xb0;" horiz-adv-x="952" d="M514 1350v6q2 10 6 42t12 57.5t44 64.5t82 70q103 67 190 67q40 0 139 -12q14 -2 25.5 -12.5t25.5 -14.5q92 -37 148.5 -115t56.5 -176v-24l-12 -27q-2 -29 -2 -52.5t-3 -45.5q-6 -44 -34 -91q-103 -119 -205 -137l-74 -6l-30 -10h-21l-28 10h-46q-22 0 -39.5 11.5 t-29.5 19.5t-23.5 15t-23.5 16t-37 31t-47 47q-51 54 -56 106q0 7 -18 160zM616 1282q0 -83 141 -184q43 -32 70 -45q93 0 121 18q2 0 17.5 12.5t23.5 18.5t17 12t28 15.5t33 26.5t21.5 39t23.5 36q2 4 6 24.5t6 26.5v2q0 86 -92 178q-10 12 -17 22.5t-13 18.5 q-16 19 -44 29h-75q-1 0 -15 6h-6q-50 0 -74 -37q-2 0 -2 -2h-2l-2 -2q-35 0 -45 -10q-14 -6 -24.5 -15.5t-28.5 -8.5t-26 -5q-35 -28 -35 -45l4 -24v-15z" />
<glyph unicode="&#xb1;" horiz-adv-x="2072" d="M188 104l9 46l51 126q4 2 15 17.5t16 19.5q18 36 27 57q24 59 51.5 96.5t52 70t47.5 84.5q16 27 23 58.5t27 65t40 66.5t20 61.5t-2 38t-10 9.5t-8 -2h-6q-25 -4 -57.5 -20.5t-51.5 -35.5q-31 -25 -64.5 -48t-66.5 -23t-33 19t10.5 36.5t25.5 33.5q23 26 46 42t33 24 t21.5 15.5t27.5 19.5l53 31q14 6 23.5 16t21.5 18q40 23 56 23q21 21 26 21q55 27 93 26.5t62 -1.5t43 -7q48 -15 48 -57.5t-22.5 -73.5t-45 -72t-45 -86t-51.5 -92q-4 -2 -14 -16.5t-12 -18.5t-7.5 -14t-11.5 -21.5t-12 -22.5t-6 -13l-39 -54l-6 -28l-14 -29 q-11 -21 -15 -25l-16 -18q-11 -11 -12 -16.5t-3 -29.5t-10 -43.5t-32.5 -58t-26.5 -79.5q5 -11 26 -11t37.5 14.5t43.5 25.5q78 31 98 47t30 25t22 19q30 28 34 31.5t17 17t29 29.5q41 41 44.5 45t13.5 23.5t19 32t34 38t35 41t16.5 30t8.5 17.5q22 33 41.5 51.5t24.5 36 t11.5 32t20.5 37t27.5 46t40 56t45 58t32 46.5t29.5 39q38 43 84 43q49 0 57 -14t13.5 -26.5t7.5 -16.5v-35q-2 -12 -4 -36t-4 -28t-10.5 -16t-17.5 -25.5t-17.5 -24.5t-10.5 -14.5t-8 -23t-10 -23.5q-11 -11 -38.5 -51.5t-30.5 -45.5t-15 -15t-21 -23t-20.5 -37t-21 -35.5 t-15.5 -19.5t-13 -18q-19 -25 -24 -25q-2 -4 -13 -27q-14 -31 -27 -46t-20 -28.5t-25.5 -46t-36.5 -66.5q-40 -79 -40 -130q0 -2 3.5 -8t5.5 -10q90 24 217 106q2 2 8 6t10 6t22.5 21.5t22.5 21.5t15.5 12.5t25.5 22.5t28.5 22.5t33 25t49 40t65.5 45.5q37 31 87 69t73 63 q43 46 47 55l10 34q6 23 14.5 37.5t21.5 40t18.5 54t27.5 57.5q33 56 131 99q21 9 40 19q50 27 55 27q71 11 89.5 12t26.5 1h21q6 0 6 -2q68 -16 117 -61.5t49 -109t-18.5 -91t-59.5 -27.5t-54.5 4t-22.5 12t-18 19.5t-16.5 19.5t-12.5 15.5t-8 10.5q-15 15 -28 15 q-23 23 -43 44.5t-55 21.5h-10l-64 -9q-2 0 -5 -4t-3 -6l-45 -106v-29l16 -35q2 -4 6.5 -16.5t9.5 -25.5t8 -25.5t5 -16.5t9 -20.5t15.5 -36t15.5 -39t17 -38.5q12 -25 31 -99q2 -2 7 -13.5t5 -13.5l9 -55l2 -45l-11 -111q-2 -4 -9 -16.5t-18 -32t-27.5 -47t-35.5 -51.5 q-40 -47 -110 -76q-16 -8 -35 -8q-6 -6 -55 -6q0 -4 -15 -5h-74q-45 0 -87 4.5t-78 32.5q-99 80 -99 162q0 21 11 43q6 33 37.5 54.5t62.5 21.5t51.5 -26.5t28.5 -55.5l8 -70q9 -54 102 -71q23 -4 39 -4h31q2 2 16.5 11t19.5 16t23.5 23.5t22.5 24.5q20 20 20 98.5 t-12 114.5l-24 93q-11 33 -11 36l-10 82q-2 2 -9 12.5t-12 18.5t-9.5 22.5t-24.5 16.5h-2q-41 -25 -69 -42t-69 -46q-18 -16 -31.5 -31.5t-24.5 -25t-17 -14.5t-13 -11q-2 -4 -9 -14.5t-9 -14.5q-6 -6 -19.5 -14t-15.5 -11t-13 -11q-11 -7 -29.5 -24.5t-26 -24.5t-16.5 -19 q-14 -20 -39 -36.5t-43.5 -31t-42 -35t-66.5 -60.5t-65 -59q-28 -22 -44 -30t-38.5 -23.5t-45.5 -28.5q-59 -34 -86.5 -34t-47 1t-36.5 6q-41 13 -41 51t24.5 73t34 53.5t18.5 37t20 40.5q15 27 23.5 46.5t16 31.5t15.5 25.5t22 41.5v7q0 20 -8 28q-27 0 -34 -5t-15 -14 t-20 -21q-15 -15 -25 -24t-20.5 -15.5t-17.5 -13.5t-33.5 -29.5t-56.5 -47.5q-80 -69 -95 -82l-19 -10q-2 -2 -14 -5t-14 -5t-14.5 -10.5t-26.5 -19.5q-43 -36 -72 -51t-43.5 -24t-34.5 -25t-44 -16q-45 0 -79 13q-29 6 -33 27.5t-4 43.5z" />
<glyph unicode="&#xb2;" horiz-adv-x="1974" d="M-459 -326q0 25 19.5 55.5t39.5 30.5q40 0 52 -12q6 -8 27.5 -28.5t24.5 -24.5t5 -10.5t7 -16.5t14.5 -30.5t23.5 -39.5q31 -42 70 -42h16q6 0 10 2q19 18 23 21t7 6t16.5 21.5t17.5 22.5q17 34 25 54q31 53 63.5 103t59 113.5t53 137.5t45 110.5t24.5 49t14 25.5 q31 49 78 186q16 35 41 66.5t39 68.5q6 3 6 26q28 97 50 146l63 125q0 2 5 14t10.5 26.5t10.5 29t9 22.5l8 26q16 39 24.5 64t17.5 46t13.5 36.5t10.5 33t11 34.5q10 33 26 49q2 2 8 21q8 27 35 61.5t38 71t30 66.5t37.5 54.5t30 50t19.5 56.5q10 38 30 58l31 30 q11 12 22 22t14 14q9 12 47 27q16 12 29.5 25.5t33.5 19.5l33 10l65 9q47 10 92.5 28.5t92.5 18.5h24l53 -11h37q39 -11 71 -30q55 -33 95.5 -33t65 14.5t59.5 20.5l62 12l26 6q2 2 13.5 3t22.5 3q22 4 36 4q7 7 37 7h28l46 2l73 -9q108 -33 148 -140q12 -34 12 -77 q0 -102 -100 -102h-27q-33 16 -37 27t-4 36l10 84q0 32 -32 64q-6 8 -23.5 21.5t-24.5 17.5q-10 6 -69 6h-37q-4 0 -26.5 -4t-35 -5t-21.5 -5t-32.5 -21.5t-32.5 -22.5q-12 -7 -12 -16q-68 -97 -106.5 -196t-55 -143t-39.5 -85q-2 0 -9 -11t-7 -14t-3 -14.5t-6 -23.5 q-11 -44 -17.5 -50.5t-20.5 -26t-16 -22t-5.5 -12.5t-6.5 -20.5t-5 -19.5t-3 -11t-8 -8t-9 -9t-7.5 -11.5t-10.5 -17.5t-9 -17.5t-6 -8.5l-39 -127q0 -2 -12.5 -25.5t-16.5 -39.5q-25 -53 -37 -113.5t-30 -108t-35.5 -80t-32 -66.5t-19.5 -52t-18 -53l-34 -86 q-29 -53 -48.5 -121t-32 -97.5t-18.5 -44t-14 -31.5q-19 -42 -25 -48q-31 -82 -61.5 -153t-78.5 -124t-82 -88t-74 -47t-72.5 -16t-65.5 -17q-43 -6 -85 -6t-67 4q-85 14 -132 83q-23 32 -23 76t18.5 75.5t58.5 31.5t73.5 -31.5t52 -52t23.5 -30.5t11 -17q12 -14 45.5 -14 t51.5 18q2 0 9 8.5t15.5 17.5t14.5 16.5t10 9.5q12 16 26.5 25.5t18.5 31.5q58 51 105 173q14 38 18 60q9 49 20 54q10 23 19.5 38t23.5 57t35 92t32 81t18.5 51.5t15.5 42t14 40t8 23.5q13 33 13 56q16 16 25 42t15.5 43t11.5 32.5t17.5 45t40 85t43.5 97.5t23.5 64.5 t15.5 45.5q23 64 37 97q47 108 70 142q12 23 23 55.5t23 67.5q35 95 42 105q14 18 14 26q39 56 41 84.5t2 48.5v76q-2 4 -17.5 17.5t-19.5 17.5q-22 43 -27 43q-20 29 -57 52.5t-68.5 23.5t-56 -15.5t-39 -23.5t-22.5 -12.5t-17.5 -9.5t-17.5 -9t-11 -6t-11.5 -10 t-18.5 -17.5t-19.5 -19.5t-13.5 -14l-6 -17q-6 -4 -21.5 -24.5t-17.5 -22.5l-18 -63q-36 -150 -63 -212.5t-47.5 -98.5t-30 -68t-12.5 -49l-6 -34q-6 -35 -14 -55t-14 -30t-12 -21.5t-11 -23t-7 -14.5t-4.5 -21.5t-11.5 -45t-26.5 -65.5t-33.5 -71.5t-18.5 -57t-8.5 -35.5 q-13 -25 -24 -36q-16 -33 -34 -68t-24 -53.5t-10 -30.5t-8 -26q-10 -35 -13 -39.5t-15 -18.5q-21 -26 -21 -55l-117 -242q-3 -3 -8.5 -28t-9.5 -29l-9 -8q0 -9 -10 -29q-25 -25 -31 -41t-17 -41t-27.5 -63.5t-53.5 -81.5t-81 -87.5t-89 -91.5q-22 -10 -36 -18 q-39 -21 -54 -25q-10 -10 -27 -10l-96 -18l-94 10q-14 0 -42 7t-30 9t-9 8.5t-15.5 15.5t-16.5 17t-11 13q-11 16 -11 20l-17 55q-4 2 -4 21v22zM1380 115q0 41 27 75.5t37 54t14 31t8 23.5t8.5 22.5t9.5 21.5t21.5 31.5t22.5 32t9 17.5t7 10l23 64q17 17 32 34t17 19 q0 21 8 29l43 88q0 3 12.5 23t17.5 30t12 22.5t18.5 27.5t20.5 31q21 36 21 81l-8 28q-15 15 -61.5 19t-65 8t-18.5 20q0 52 45 82l33 -2q25 0 143.5 9.5t196.5 9.5l18 2q12 0 21.5 -21.5t11.5 -25.5v-4q0 -20 -21.5 -50t-35.5 -48.5t-27.5 -42t-31 -49.5t-29 -45t-21.5 -35 q-26 -43 -42.5 -64.5t-34 -47.5t-34 -48.5t-33 -64.5t-27.5 -65.5t-20.5 -39t-17.5 -32.5q-19 -39 -22 -42l-27 -25q-4 -4 -6 -20.5t-4 -26.5v-6q0 -12 18 -12t30.5 3t22.5 8q12 5 38.5 25.5t52.5 36t55 29.5q70 33 108 33q27 0 27 -39v-14q-35 -39 -35 -45 q-6 -8 -24.5 -25.5t-21.5 -21t-23.5 -13.5t-23.5 -13t-13 -14q-11 -14 -41 -26q-57 -22 -76 -30.5t-53.5 -26t-69.5 -33.5q-80 -35 -145 -35q-97 0 -97 72z" />
<glyph unicode="&#xb3;" horiz-adv-x="1974" d="M-561 -444q0 70 29 103q12 13 30 13h6q39 -16 88 -65q8 -10 14.5 -37t13.5 -54q18 -73 50 -73q63 0 152 69q30 23 39.5 44.5t22 43t40 53.5t54.5 85q73 141 122 256q0 12 6 18q2 2 7.5 12.5t11.5 20.5q17 27 19.5 31t7 17t10.5 29q17 43 30 64t30.5 59t41 109.5 t53.5 137.5q27 66 58 127t56.5 120t46 107.5t42.5 94.5q54 109 109 183q18 33 29.5 52.5t27 58.5t36.5 94t41.5 103.5t48.5 80t64 74.5q107 130 243 153q18 3 34 7q24 6 49 6q32 8 63 8q52 0 80.5 -4t51 -9t41.5 -12q25 -9 57.5 -29.5t42.5 -25.5q9 -4 24 2.5t44 24.5 q74 43 186 43l123 -10q27 0 43 8t38.5 8t56.5 -9t70 -24q90 -39 107 -67q4 -8 4 -43t-6 -56.5t-13 -40t-15.5 -37t-11.5 -32.5t-7 -26.5t-9 -27.5q-13 -37 -16 -54t-17.5 -37.5t-20.5 -36.5q-13 -36 -13 -60t-10 -24q0 -4 -8 -20.5t-12 -16.5l-15 -74q-38 -96 -90 -182 q-6 -35 -21.5 -66.5t-20.5 -51t-8 -33t-8 -29t-9.5 -28.5t-4.5 -15l-55 -131q-16 -53 -29.5 -85t-28.5 -72t-28.5 -65.5t-13.5 -53.5t18 -28h8q29 7 62 41.5t43 45t13 11.5t13 8l23 15q12 8 25.5 17.5t30 19.5t42 27.5t54.5 17.5q0 -51 -5 -56q-18 -20 -28 -40l-6 -25 q-4 -4 -11.5 -15t-38 -45t-94 -83t-98.5 -75.5t-41 -30t-23.5 -10.5t-40 -19t-55.5 -29h-125q-25 0 -36 23.5t-11 42.5v34l11 35q16 27 16 45q27 54 29.5 57.5t35.5 69.5l9 37l26 53q6 18 6 27q0 6 2 9t6.5 22.5t6.5 23.5q0 4 11 23q13 22 20.5 39.5t15.5 36t14 34t9 20.5 t14.5 26.5t17.5 30.5t12.5 21.5t10.5 24t8 23.5q11 32 26 69t24 60t26.5 59.5t26.5 62t18.5 34t15.5 22.5l8 37q2 6 5 17.5t8.5 23.5t9.5 23.5t11 31t26.5 56t24.5 58.5t26 116l6 63q0 23 10 43v8q0 51 -47 100q-46 48 -104 48t-117 -45q-75 -57 -103 -117 q-11 -25 -21.5 -48.5t-12.5 -27.5t-18.5 -21.5t-16.5 -23.5q-4 -2 -7 -16.5t-12 -37t-29 -58t-29 -57t-11 -28t-6 -8.5q0 -4 -8.5 -15t-10.5 -11l-8 -56q-16 -49 -42 -91t-54.5 -107.5t-61 -149.5t-53 -133t-29 -57t-29 -64.5t-63.5 -152t-66 -152.5q-26 -67 -41 -87.5 t-21.5 -38t-8.5 -19.5l-24 -62q0 -2 -4.5 -10t-9.5 -17.5t-9 -17.5t-7 -11t-10.5 -17.5t-7.5 -20.5l-18 -39q-2 -2 -9 -17.5t-16 -37.5q-24 -56 -66 -124.5t-80 -128.5t-99 -108q-45 -31 -82 -54t-101 -31.5t-118.5 -8.5t-114.5 10h-2q-52 0 -84 25q-60 46 -60 96 q0 29 21.5 54.5t40.5 44.5h45q2 0 16.5 -11.5t19.5 -14.5q17 -10 17 -22q2 -2 6 -17q7 -25 29 -60h2q2 -2 2 -4q36 -42 65 -41.5t58 14.5q1 1 48.5 36.5t74.5 68.5q61 76 104 169q56 100 107 214t53 123t12 33t25.5 68t38.5 85t41 81.5t37 75.5q54 96 63.5 127t18 54.5 t14.5 43t8 24.5t11.5 23.5t19.5 40t19.5 40t11.5 24.5q8 4 19 42t30.5 67.5t29.5 62.5q4 4 11.5 26.5t15.5 43t31.5 51.5t30.5 51q19 50 24 53q0 4 7 30t13 36q20 30 33 43q0 2 4.5 15.5t8.5 28.5q11 41 12.5 43.5t6.5 12t11 18.5t12.5 17t11.5 17.5t5 21.5v16 q0 39 -12.5 59.5t-24.5 41t-18 33t-13.5 28t-13.5 27.5t-8 18q-41 29 -98 29h-19q-4 0 -18.5 -7t-19.5 -11t-18 -12.5t-27.5 -16.5t-27 -15.5t-16.5 -9.5l-10 -12l-35 -70q-4 -4 -18.5 -23.5t-17.5 -23.5t-11 -16t-17 -27q-18 -29 -26 -44t-20.5 -27.5t-27.5 -55.5 q-16 -49 -61.5 -155.5t-61 -129t-29 -51.5t-23.5 -58.5t-16.5 -45.5t-11.5 -26.5t-10 -24t-10 -25.5t-8 -17t-13.5 -24.5t-21 -41t-19.5 -41t-12 -22.5t-9 -25.5t-7 -26.5t-6.5 -13.5t-10.5 -21.5q-13 -29 -21 -37q-29 -53 -48.5 -108.5t-39.5 -110.5q-28 -59 -43 -80 q-31 -44 -36 -63t-9.5 -37.5t-8.5 -34t-6 -19.5q-19 -37 -26 -47l-9 -8q-8 -8 -21 -29q-20 -32 -51.5 -102.5t-39.5 -80t-15 -24.5l-8 -36q-10 -20 -10 -24.5t-16 -20.5q-33 -43 -65 -89.5t-69 -87.5q-97 -110 -204 -141q-48 -14 -119 -14q-84 0 -138.5 21t-87 58t-32.5 85z " />
<glyph unicode="&#xb4;" horiz-adv-x="1024" d="M821 1198v6q0 12 10.5 35t16.5 37q4 2 8 6t6 5t5 3t16.5 8.5t14.5 8.5q5 9 38 51q12 8 12 16q18 35 43 57.5t52.5 53.5t52 66.5t54.5 62.5t50.5 54.5t61.5 27.5h10q39 -4 58.5 -40t19.5 -73v-10q-3 -35 -58 -76q-22 -16 -44.5 -31.5t-32 -22.5t-19.5 -16.5t-22 -19.5 q-19 -17 -30 -28t-34 -30.5t-50.5 -41t-50 -41t-37 -31.5t-37 -46t-46.5 -44q-68 18 -68 53z" />
<glyph unicode="&#xb6;" horiz-adv-x="1497" d="M535 1204v19q0 165 65 253q25 33 64 68l36 35q2 2 11.5 10t20.5 17.5t21.5 16.5t14.5 11l76 26q30 11 48 17q54 19 62 27q50 0 62 6t14 6l123 13q137 28 199 28h43l14 -4l29 4h2q55 0 88 -29q12 -10 12 -26q0 -26 -80 -56q-14 -6 -16 -6h-133q-4 0 -8 -8t-7 -12v-104 q4 -129 9.5 -258.5t5.5 -260.5v-79q10 -20 10 -27l-10 -51v-21l10 -143q6 -12 6 -21l-6 -49q0 -16 6 -31.5t6 -42.5l2 -108l-2 -109q6 -12 6 -34v-13l-6 -35l-6 -83v-7q12 -69 12 -106v-10q-4 -41 -4 -84q0 -83 -24 -107q-6 -16 -8.5 -32.5t-22 -47t-53 -64.5t-71.5 -58 q-58 -38 -179 -76l-23 -7h-67q-2 0 -11.5 2.5t-21.5 5.5q-50 13 -66 27.5t-27 29.5q-28 38 -28 54q0 49 27.5 88t75 39t69 -25.5t35.5 -56t28.5 -56.5t39.5 -26h10q2 0 19.5 6.5t20.5 9.5t22.5 8t22.5 5t9 5t7 8t8.5 15.5t16.5 28t17 30.5t13 23q24 37 28 68q6 44 21 131 l6 25v10l-6 144l6 172v8l-6 14q0 46 -9 76v125l-6 28q0 37 -6 48q-39 28 -112 28h-33q-61 0 -73.5 8.5t-16.5 10.5q-34 17 -39 22q-78 35 -144.5 75t-124.5 105q-14 14 -18 33t-11 28t-22.5 26.5t-23.5 27.5q-24 30 -31.5 81.5t-10.5 73.5q-7 50 -7 64z" />
<glyph unicode="&#xb7;" horiz-adv-x="505" d="M295 576q0 39 10 64t12 35.5t11 23.5q23 36 82 57h51q18 0 52 -16.5t44 -26.5t12 -12.5t4 -5.5t15 -23.5t12 -56.5q0 -57 -41 -110q-10 -13 -12 -18q-6 -4 -6 -11t-4 -14t-18.5 -17.5t-31.5 -10.5h-14q-51 0 -88 28q-4 3 -9 7t-20.5 14.5t-22.5 17.5q-12 12 -24 42 q-14 0 -14 33z" />
<glyph unicode="&#xb8;" horiz-adv-x="1001" d="M143 -315q8 31 37 56.5t44.5 40.5t28.5 28.5t17 16.5t12.5 9t17.5 12q20 15 27 21t19 16.5t26 22.5q31 28 39 35q18 16 23 39q62 54 82.5 59.5t49 5.5t28.5 -18q-4 -19 -21 -35q-16 -23 -39 -42q-30 -25 -30 -48q0 -2 -2 -4l8 -11q6 -4 17.5 -16t14.5 -14t22 -11 q54 -23 62 -51q13 -51 13 -81q0 -65 -11.5 -93t-13.5 -33q-11 -22 -36 -49.5l-30 -33t-17.5 -14.5t-28 -20.5t-28.5 -21.5q-21 -16 -42.5 -25.5t-24.5 -10.5t-18.5 -10t-25.5 -13t-36 -16q-30 -15 -46 -15h-27l-51 2q-31 6 -41 23q0 8 -6 20q4 4 5 7t14.5 7t33.5 7.5 t33.5 9.5t26 12t25.5 12.5t29.5 14.5t24.5 16l31 25l33 22q10 10 26 25q19 18 19 20t2 4v6q0 2 2 8q10 33 10 61.5t-2 33.5q-11 22 -39.5 36.5t-33.5 17.5q-8 5 -29 5h-21q-29 -3 -65 -17.5t-62 -34.5q-31 -23 -59 -32q-10 0 -17 13z" />
<glyph unicode="&#xb9;" horiz-adv-x="1384" d="M-514 -447.5q0 27.5 7 47t34 39t44 19.5t29.5 -9t21.5 -22.5t17.5 -28t18.5 -24.5q16 -25 50 -49.5t58.5 -24.5t26.5 1t15.5 8.5t30 16.5t32.5 17q39 19 39 25q2 0 10 8l18 18q26 23 32 30q22 29 23 31.5t3 19t4 18.5q16 16 23.5 25.5t14.5 17.5t16 20.5t20.5 50t23 77.5 t25.5 75t39 51q39 121 103.5 295t85 238.5t46.5 126.5q2 2 11.5 16t11.5 18t10 20.5t18 33.5q16 28 25 55v25l12 22q2 6 8.5 21.5t12.5 32t11 32t7 19.5q0 33 8 49l37 69q6 13 12.5 40.5t10.5 41t4 17.5q10 15 10 26q31 72 66 137.5t52 101.5t21.5 45t9.5 20.5t8 20.5t17 43 q53 120 131 187q17 8 50 35l24 17q16 8 25 8q99 30 260 30l78 -2q29 -14 58.5 -18t55.5 -15q38 -17 74 -55q23 -29 37 -51t18 -59l2 -72l-2 -65q-6 -58 -35 -127q-55 -126 -55 -187l-2 -39q3 -7 35.5 -9.5t43.5 -3.5t13 -1q29 -14 34 -39t5 -39v-24q0 -39 -61 -39l-105 6 q-35 0 -45 -19q-39 -53 -58.5 -114.5t-40.5 -115.5t-47 -96t-46 -91l-13 -35l-10 -25q-9 -24 -25 -46.5t-23 -33.5q-17 -25 -17 -49l-27 -100v-10q28 -3 45 14q10 0 19 6l161 172q6 2 18.5 8t18.5 8h2q16 0 25.5 -20.5t9.5 -36.5t-3 -31.5t-12 -34.5q-10 -19 -67 -98 q-12 -10 -39 -38l-60 -59q-67 -67 -101 -99q-76 -70 -171 -70q-34 0 -65 15q-41 20 -41 59q-2 10 -2 24q0 74 29.5 138.5t42 101.5t14.5 43t18.5 31.5t34 83t36.5 100.5t40.5 72.5t34 53t27 52.5t28.5 58q23 50 39 81q2 14 6 26.5t6 25t4 20.5v4q0 27 -42 27t-64.5 -9.5 t-50.5 -9.5h-6q-4 2 -19 2q-27 0 -30 25q-1 14 -1 23q0 65 50 65l59 4q52 0 79 8q54 16 72 25q27 30 34 46q24 58 32 70q14 22 14 56l19 53q7 22 12.5 44t9.5 36t4 21l4 38q0 47 -8 70.5t-15 33t-11 20t-8 18.5q-9 14 -28.5 46t-63.5 50t-83 18q-68 0 -129 -81 q-4 -2 -10 -16q-9 -21 -16.5 -30.5t-23 -30t-32 -60.5t-27.5 -60q-21 -38 -28 -45q-20 -61 -37.5 -83t-27.5 -42l-7 -37q-18 -45 -18 -55l-16 -35q-5 -10 -10 -33.5t-8 -35t-3 -14.5q0 -20 -8 -28q-23 -53 -47.5 -107t-34.5 -86t-20.5 -62.5t-14.5 -43.5l-8 -36 q-2 -2 -5 -8.5t-5 -8.5q-19 -19 -19 -29l-12 -69q-25 -75 -51 -127q-2 -4 -9 -26.5t-10 -28.5q-2 -6 -6 -19.5t-10 -27t-12 -25.5t-8 -17q-17 -47 -27 -57l-18 -61q-10 -41 -35 -77t-37 -81q-33 -122 -42 -155q-12 -44 -24 -50q0 -4 -10 -17.5t-17 -28t-12.5 -40.5 t-31.5 -68q-79 -130 -181 -198l-34 -16q-8 -6 -24.5 -15.5t-19.5 -12.5l-15 -15q-11 -11 -13 -15h-27q-30 -10 -119.5 -21.5t-142.5 -11.5t-95 10.5t-67 53.5q-10 5 -10 16q-8 23 -8 50.5z" />
<glyph unicode="&#xba;" horiz-adv-x="1757" d="M-547 -397l2 18q2 2 15.5 22.5t22.5 33.5q18 26 53.5 26t54 -15.5t28 -39t14.5 -51t10 -46t11 -26.5t14 -19h3q41 -41 96 -41q35 0 73 19q28 28 46 49t27 32t15.5 29.5t22.5 45.5l8 6q59 96 79 154q24 69 32 69q89 239 106 274l27 109q2 2 9 12t10 14.5t10.5 25 t16.5 42.5q25 63 30 68q0 4 6 17t13 28.5t14 28.5q12 18 14 33.5t4 18.5t6 14t8 23.5t7.5 22.5t11.5 34.5t20.5 64.5t21.5 63.5t13 35t10 24.5q15 35 18 41.5t8 17t11 21.5t12.5 21.5t6.5 14.5l18 66q23 68 53.5 134t42.5 102t15.5 50.5t6.5 21.5t9 26.5t8 22.5t9.5 16.5 t14.5 28.5t14 28.5t9 17.5q0 13 17 47q16 45 37.5 67.5t36 41t16.5 20.5q0 4 10 14q7 22 18 27q2 4 11.5 12.5t19.5 17.5q27 24 41 29q20 7 43 22t27 22l30 6q27 20 107 33.5t94 11.5q41 -10 87 -15.5t75.5 -14.5t49.5 -26.5t40.5 -17.5t41 19.5t52 19.5t31.5 -40t-22.5 -81 t-32.5 -61.5t-13.5 -30.5t-5.5 -14l-18 -99q0 -15 -10.5 -32t-16.5 -31.5t-8 -18.5t-9 -22.5t-11 -24.5l-25 -43l-10 -55l-27 -53q0 -2 -4 -15.5t-8 -28.5q-11 -43 -14 -46.5t-12 -22t-20.5 -40t-20.5 -40t-11 -22.5l-37 -99q-2 -4 -2 -11t6 -17.5t19 -10.5l4 2 q50 18 85.5 53.5t55 57t45.5 39.5l17 12q11 11 29 23t20 12l30 19q2 2 8.5 6t6.5 6l30 16l60 25q0 2 9 2h13q50 0 117 -37q8 0 35.5 -26.5t35 -57.5t17.5 -53q2 -10 2 -45v-45q0 -68 -5 -136q-6 -76 -67 -218q-24 -57 -27 -64.5t-10.5 -18t-7.5 -14.5l-30 -55 q0 -2 -7.5 -8.5t-14.5 -14.5t-14 -14t-9 -8q-6 -12 -9 -18.5t-21 -24.5l-40 -40q-59 -59 -72.5 -67t-47 -27.5t-107.5 -47t-121.5 -27.5t-66.5 9t-31 15q-38 18 -43.5 21.5t-16.5 13.5q-24 23 -24 56q0 37 10 57t10 22t2 7q8 4 22.5 18t16.5 18h25q40 0 51.5 -9t31 -29.5 t28.5 -29.5t14.5 -22.5t10.5 -25.5q10 -23 44 -23h12q14 0 36 21q25 26 42.5 43.5t26 25.5t10.5 11.5t11 15.5t20.5 29.5t22.5 35t15 23.5q11 14 11 22l12 27q6 20 16.5 30.5t18.5 33.5l10 53q2 4 9 27.5t7 27.5l21 117l8 26v19q-2 2 -2 4l-2 10l-4 13l-6 122q-2 6 -7.5 33 t-7.5 35q-15 10 -53 29l-20 4q-24 0 -37.5 -9.5t-28 -18.5t-39 -29.5t-58.5 -49t-53.5 -52t-31.5 -40t-25 -36.5q-33 -50 -39 -57t-22 -27.5t-25 -30.5q-2 0 -11 -7.5t-18 -22t-23.5 -46t-23 -47t-15.5 -24.5t-14 -20q-13 -19 -24 -30q-47 -98 -71 -152q-24 -81 -54 -120 q-2 0 -9 -6.5t-15 -20t-24.5 -43t-49.5 -29.5q-10 0 -20 10q-16 10 -34 22.5t-18 38t13.5 64.5t16.5 54q5 28 22 45q31 66 53 134t35.5 105t18.5 49.5t10 26.5t10.5 28.5t16.5 39.5q29 64 62 161q4 4 15.5 27t13.5 26t7 19.5t11.5 34.5t11.5 34.5t7 19.5t6 10.5t8 16.5 q7 16 12 24t12 26t8 21.5t5 16.5t8 26.5t7.5 25.5t7.5 20.5t13 15.5t16 31t13.5 56.5t14.5 49.5q31 68 37 84.5t33 135.5l6 35v12q0 18 -14.5 39t-24.5 27t-22.5 10t-27.5 9q-40 12 -45 13t-29 1h-67q-25 0 -30 -2q-19 -15 -54 -72q-115 -138 -121 -202q-3 -31 -24 -52 q-4 -8 -11 -30.5t-16.5 -49t-17.5 -48.5q-12 -33 -57 -124l-6 -45q-3 -9 -27 -45l-82 -262q-16 -23 -21.5 -48.5t-15.5 -49.5l-35 -90l-10 -19q-2 -4 -9 -14t-7 -15l-23 -51q0 -40 -4 -46.5t-16.5 -23t-19.5 -37t-11 -58.5t-13.5 -57t-15.5 -32.5t-13 -28t-13 -27.5 t-16.5 -32.5t-27 -56.5t-36.5 -74q-6 -6 -10 -11t-7.5 -9t-3.5 -6l-43 -111l-8 -43q0 -2 -7 -15.5t-13 -17.5q-39 -72 -79 -136.5t-104 -117.5q-12 -6 -15 -9q-18 -18 -38 -28t-33.5 -22t-17.5 -12q-63 -35 -191 -35q-66 0 -96 6q-90 0 -166 93q-22 26 -45 50z" />
<glyph unicode="&#xbb;" horiz-adv-x="1126" d="M150 166l12 43q8 13 25 26q33 24 87 78q10 8 31 22.5t53 45.5q24 30 65 63q67 55 103 99q-4 6 -7 19t-7 26q-10 35 -25 35q-3 59 -28 98t-41.5 61.5t-26.5 55.5q2 6 2 17v42q0 10 1 13t6 21q8 27 32 27q12 0 25.5 -9t21.5 -12t23.5 -19.5t31.5 -37.5q45 -55 48 -67 q11 0 25 -25q35 -64 55 -81q14 -25 33.5 -39.5t41.5 -49.5q31 -31 31 -61q-10 -48 -84 -98q-93 -74 -164 -105q-8 -6 -22.5 -16t-30.5 -21.5t-32.5 -21.5t-35 -22t-40 -28t-41.5 -30q-45 -30 -95 -51q-14 -12 -37.5 -12t-35.5 14zM604 166l12 43q8 14 25 26q31 24 63.5 55 t52 45.5t56.5 45.5q23 28 62 62q78 66 104 100q-4 6 -7 19t-7 26q-10 35 -23 35q-3 56 -30 96.5t-42.5 63t-27.5 55.5l6 73q0 2 5 20t12 22.5t20.5 4.5t26 -9t19.5 -12t22.5 -19.5t31.5 -37.5q42 -54 49 -67q9 0 24 -25q37 -64 56 -81q16 -25 34.5 -39.5t41.5 -49.5 q29 -25 29 -59q0 -25 -28 -53.5t-56 -46.5q-93 -74 -164 -105q-8 -6 -22.5 -16t-30.5 -22t-58 -37q-53 -39 -89 -64t-95 -51q-14 -12 -37.5 -12t-34.5 14z" />
<glyph unicode="&#xbc;" horiz-adv-x="1257" d="M-442 -326q0 25 19.5 55.5t39.5 30.5q39 0 51 -12q15 -20 56 -55q0 -11 8 -19q44 -118 108 -118h17q6 0 10 2q16 16 21.5 20t8.5 7t16 21.5t17 22.5q17 34 25 54q31 53 63.5 103t59.5 113.5t53.5 137.5t45 110.5t24.5 49t14 25.5q34 58 78 186q16 35 40.5 66.5t39.5 68.5 q6 3 6 26q27 93 38 121.5t21.5 47t21.5 40t20 40t10.5 21.5t6.5 15t10 26.5l10 29t9 22.5l9 26q16 39 19 64t12 46t13.5 36.5t10.5 33t11 34.5q10 33 26 49q2 2 8 21q8 27 35 61.5t43 71t35.5 66.5t38 54.5t28.5 52.5q12 23 21 54q11 41 30 59t30 29.5t22.5 21.5t14.5 14 q3 6 46 27q16 12 29.5 25.5t33.5 19.5l33 10l66 9q47 10 92 28.5t92 18.5h25l53 -11h37q38 -10 70 -30q55 -33 96 -33t65.5 14.5t59.5 20.5l61 12l27 6q2 2 13 3t22 3q23 4 36 4q7 7 37 7h29l45 2l74 -9q68 -21 113 -79q46 -58 46 -120t-22.5 -91t-77.5 -29h-27 q-32 16 -36 27t-5 36l11 84q0 31 -33 64q-6 8 -23.5 21.5t-24.5 17.5q-11 6 -69 6h-37q-4 0 -26.5 -4t-35 -5t-21.5 -5t-32.5 -21.5t-31.5 -22.5q-12 -8 -12 -16q-103 -148 -131.5 -221.5t-45 -117.5t-38.5 -85q-2 0 -9.5 -11t-7.5 -14t-3 -14.5t-6 -23.5q-12 -48 -18 -52.5 t-20 -24t-16 -22t-5.5 -12.5t-6.5 -20.5t-5 -19.5t-3 -11t-8 -8t-9 -9t-7.5 -11.5t-10.5 -17.5t-9 -17.5t-6 -8.5l-8 -28l-17 -99q0 -2 -19 -25.5t-34 -58t-27 -95t-30 -108t-35.5 -80t-32 -66.5t-19.5 -52t-18 -53l-34 -86q-29 -53 -48.5 -121t-32 -97.5t-18.5 -44 t-14 -31.5q-19 -42 -25 -48q-31 -82 -61.5 -153t-78.5 -124t-74.5 -88t-66.5 -47t-73 -16t-65 -17q-43 -6 -85 -6t-66 4q-87 14 -134 83q-23 32 -23 76t18.5 75.5t58.5 31.5t74 -31.5t52 -52t23.5 -30.5t11.5 -17q11 -14 44.5 -14t51.5 18q2 0 9.5 8.5t15.5 17.5t14 16.5 t10 9.5q12 16 26.5 25.5t18.5 31.5q58 51 105 173q14 38 18 60q9 48 21 54q10 23 13 38t17 57t35 92t32 81t18.5 51.5t15.5 42t14 40t8 23.5q13 33 13 56q16 16 25 42t15.5 43t11.5 32.5t17.5 45t40 85t43.5 97.5t23.5 64.5t15.5 45.5q23 64 37 97q47 108 70 142 q12 23 23 55.5t23 67.5q34 93 42 104q14 19 14 27q40 60 45 80q10 36 10 100v29q-4 9 -37 35q-22 43 -26 43q-20 29 -57 52.5t-69 23.5t-56.5 -15.5t-39 -23.5t-22.5 -12.5t-17.5 -9.5t-17.5 -9t-11 -6t-11 -10t-18.5 -17.5t-19.5 -19.5t-13 -14l-7 -17q-6 -4 -21 -24.5 t-17 -22.5l-19 -63q-25 -107 -61.5 -191t-57 -120t-29.5 -68t-12.5 -49t-6.5 -34q-6 -31 -13.5 -53t-14 -32t-12.5 -21.5t-11 -23t-7 -14.5t-4 -21.5t-11 -45t-27 -65.5t-34 -71.5t-18 -57t-15 -43.5q0 -10 -18 -28q-16 -33 -33.5 -68t-24 -53.5t-10.5 -30.5t-8 -26 q-10 -35 -13 -39.5t-15 -18.5q-21 -26 -21 -55l-117 -242q-3 -3 -8.5 -28t-17.5 -37q0 -7 -11 -29q-18 -18 -23 -37.5t-16.5 -44.5t-28 -63.5t-53 -81.5t-80.5 -87.5t-90 -91.5q-22 -10 -36 -18q-40 -22 -54 -25q-10 -10 -26 -10l-97 -18l-94 10q-14 0 -41.5 7t-29.5 9 t-9.5 8.5t-15.5 15.5t-16.5 17t-11.5 13q-11 16 -11 20l-16 55q-4 2 -4 21v22z" />
<glyph unicode="&#xbd;" horiz-adv-x="1382" d="M-618 -494q0 38 40 78q13 13 42 12q51 -2 71 -25q7 -8 11 -26q9 -33 34 -67q41 -41 65 -41t49 9t33.5 14t16.5 5q6 4 20.5 19.5t31.5 33.5q79 78 93 113q2 6 17.5 35t31.5 62q44 90 49 96q31 40 50.5 83.5t21.5 46.5t9.5 13t15.5 22.5t14 24t8 13.5q3 3 13 24t15 31t8 15 t9.5 24.5t8.5 22.5t14 13.5t14 14.5l9 35q0 9 21.5 47.5t29.5 59t24.5 63.5t36.5 71q42 59 51 101q7 7 25 44.5t25.5 59t56.5 88.5q0 12 10 17q20 57 43 89t29 42t14 22.5t14.5 22.5t8.5 14q14 28 14 45q47 115 68.5 145.5t29.5 43.5q25 42 32 64q13 41 18 44 q4 15 27.5 52.5t34.5 57t15 24.5t11.5 13.5t15.5 17.5q31 35 39 61q13 43 108 129q4 2 18.5 8t18.5 10l72 51q8 6 37 20l37 19q66 27 122 30q93 5 118 5q72 0 94 -8q44 -3 91 -37q63 -45 105 -98q23 -23 23 -65t-32 -84t-89 -42q-25 0 -53 26q-44 44 -58 76l-6 52 q-10 51 -55 79.5t-76.5 28.5t-62.5 -13t-64 -31q-80 -45 -94 -64q-97 -120 -180 -273q-15 -15 -21 -35l-24 -51l-14 -14q-41 -39 -48.5 -79t-21 -58.5t-22.5 -31.5t-13 -17q-13 -13 -25 -37q-4 0 -15 -17.5t-27 -56.5q-80 -201 -122 -258q-6 -8 -11 -16.5t-24.5 -36t-40 -85 t-37 -84t-21.5 -34.5t-11 -17.5t-11 -17.5t-16 -26.5t-24 -51t-23 -51t-15 -28t-11.5 -19.5t-11.5 -20.5t-11 -21.5t-11 -35.5t-20 -45.5q-23 -43 -44 -82t-47 -85t-48 -99t-44.5 -93.5t-45.5 -65.5t-34 -41.5t-17 -29.5q-5 -12 -17 -28q-31 -23 -61.5 -48.5t-50 -34.5 t-32.5 -14.5t-28.5 -11.5t-29 -11t-16.5 -7t-16 -8t-28.5 -14.5t-28 -14.5t-19.5 -9q-26 -11 -82 -11q-180 0 -229 78q-13 20 -13 46zM793 115q0 41 26.5 75.5t36.5 54t14 31t8.5 23.5t8.5 22.5t9 21.5t21.5 31.5t22.5 32t9 17.5t5 9t6.5 11.5t8.5 19.5q10 28 10 34l49 53 q0 21 8 29l43 88q0 2 6.5 12t12.5 20.5t11 20.5t12 22.5t18.5 27.5t20.5 31q22 37 22 81l-8 28q-15 15 -62 19t-65.5 8t-18.5 20q0 52 45 82l33 -2q25 0 143.5 9.5t196.5 9.5l18 2q13 0 22 -21.5t11 -25.5v-4q0 -20 -21.5 -50t-35.5 -48.5t-27.5 -42t-31 -49.5t-29 -45 t-21.5 -35q-26 -43 -42.5 -64.5t-34 -47.5t-34 -48.5t-33 -64.5t-27.5 -65.5t-20.5 -39t-17.5 -32.5q-19 -39 -22 -42l-27 -25q-4 -4 -6 -20.5t-4 -26.5v-6q0 -12 18 -12t30.5 3t23 8t20.5 13t27.5 20.5t43 28t55.5 29.5q71 33 108 33q26 0 26 -39v-14q-35 -39 -35 -45 q-6 -8 -24.5 -25.5t-21.5 -21t-23.5 -13.5t-23.5 -13t-12 -14q-10 -14 -42 -26q-55 -21 -74.5 -30t-54.5 -26.5t-70 -33.5q-80 -35 -145 -35q-96 0 -96 72z" />
<glyph unicode="&#xbe;" horiz-adv-x="1327" d="M-571 -483q0 46 10 94q29 29 53.5 29t38.5 -14.5t21.5 -35t10.5 -46t10 -52.5t38 -49.5t61 -22.5q67 0 108.5 32t68 82t43 78t28.5 43t26 37q26 42 63.5 126t71.5 151.5t55 122.5t31.5 96t20 62.5t15.5 31t12 19.5t11 19.5t14 25t20.5 49t23.5 57.5q14 32 21 78 q17 17 17 29q27 44 52 136.5t40 123.5l26 53q2 4 8.5 20.5t14.5 35t14 34t8 19.5q9 9 33.5 54t50 122.5t53.5 136.5q78 158 105 205q6 3 25 28q35 44 40 49q17 17 17 30q8 8 27.5 25.5t41 38t41 37.5t24.5 23q12 12 47 29q144 68 267 68q26 0 59.5 -2t53 -14.5t33.5 -18.5 t27.5 -9t21.5 -7q27 -4 55.5 -15.5t52.5 -11.5t43 13.5t42.5 13.5t23.5 -21v-12q0 -29 -11 -48.5t-28 -43.5q-35 -66 -55.5 -138.5t-48.5 -142.5q-27 -57 -46.5 -116.5t-43.5 -118.5q-4 0 -14 -17l-25 -41l-8 -12l-19 -74l-16 -28q-29 -59 -50.5 -123t-44 -115t-46 -87 t-33 -55.5t-11.5 -22.5q-3 -5 -8 -15q-5 -12 -10.5 -17.5t-5.5 -7.5l-17 -69q-10 -29 -26.5 -57.5t-32.5 -58.5q-41 -77 -41 -120q57 0 73.5 15.5t29 25.5t28 21.5t32.5 24.5q44 34 59.5 42t26.5 14q28 17 42.5 26t33.5 28.5t54 19.5t35 -22q0 -42 -37 -68q-35 -41 -70 -84 q-50 -61 -113 -89q-30 -13 -38 -20t-27.5 -25t-49.5 -32q-85 -40 -163 -57h-4q-102 0 -131 90v16q0 27 13.5 56.5t20.5 45t21.5 39t17.5 28.5t7 8.5t9 12.5t10 32.5t10.5 37.5t13.5 27.5t19 50.5t26.5 80t58.5 96q4 16 19.5 53t23.5 56.5t11 25.5q11 24 20 29 q29 55 51.5 111.5t46.5 113.5q2 2 6.5 5.5t16 23t23.5 59t27 77.5t35.5 80t39.5 87q43 106 43 174q0 64 -45 132q-13 20 -31 30q-2 4 -24.5 15.5t-25.5 14.5q-16 16 -38 27q-8 0 -14 3q-57 4 -104.5 -23.5t-88.5 -62.5q-2 -2 -13 -21.5t-14.5 -24t-23 -23t-21.5 -20.5 t-7 -13t-10 -24.5t-16.5 -31t-23.5 -39.5q-29 -68 -63.5 -136.5t-49 -104t-20.5 -54t-14 -40.5q-20 -48 -22 -57q-7 -22 -26 -53q-35 -56 -92 -235q-10 -20 -10 -35l-10 -26q0 -9 -14.5 -35.5t-20.5 -40t-8 -16.5t-5 -16t-11 -30.5t-17.5 -39t-19.5 -40.5q-30 -60 -39.5 -81 t-21 -41.5t-17.5 -41t-8 -40t-7 -21.5q0 -4 -8 -19.5t-10 -15.5l-14 -57q-10 -47 -40 -104.5t-42 -90t-15 -38.5l-12 -27q-52 -123 -91.5 -195.5t-84.5 -148.5t-104 -133q-123 -119 -322 -119h-78q-29 16 -56.5 27.5t-49.5 27.5q-47 34 -47 105z" />
<glyph unicode="&#xbf;" horiz-adv-x="886" d="M188 229q0 149 64 246q6 13 31 25l22 37q37 35 80 58t99.5 61t133 89.5t132.5 118.5q4 2 14 21.5t20 33t28.5 37t21.5 56.5q-18 37 -27 84q-26 51 -46 66.5t-30 15.5h-153q-17 8 -17 18l-2 8q0 34 73 66q61 28 102.5 28t77.5 -19t62 -52q56 -73 56 -152q0 -138 -123 -311 q-8 -4 -31 -27q-6 -8 -20.5 -22.5t-28.5 -30.5q-37 -42 -39 -49q-29 -29 -45 -59.5t-51 -86t-82 -123t-70.5 -123t-35 -73.5t-11.5 -47q0 -47 72 -47q62 0 141 18q4 8 24 30q86 101 106 132.5t34 62.5t28 63q38 83 58 83q49 0 49 -86q0 -32 -6 -41q-25 -21 -44 -56.5 t-30.5 -58t-16.5 -32t-11 -23.5t-11 -18q-70 -76 -196 -136q-6 -2 -28.5 -14t-26.5 -14l-31 -6v-5l-58 -4q-16 0 -27 5.5t-34 12.5t-45.5 12t-45.5 16t-39.5 25.5t-21.5 14.5q-45 39 -45 172zM740 1575q-2 147 171 147h23q40 0 49 -12q41 -33 62.5 -68t21.5 -86v-6 q-32 -118 -99 -143q-26 -10 -63 -10t-65.5 14t-49.5 37q-49 50 -50 127z" />
<glyph unicode="&#xc0;" d="M-41 51q0 64 37 70q19 0 71 8t56 9t84 18q100 22 112 34q8 0 29 21q4 2 22.5 8t40 18.5t54.5 46t57 55t47 33t32 20.5t21.5 20.5t15.5 14.5t21.5 13.5t21.5 13.5t15.5 14t26.5 25.5t25.5 25.5t15.5 16q4 4 24.5 19t43 31.5t43 31t24.5 18.5t25.5 24.5t25.5 25.5t7.5 12.5 t6.5 9.5t22.5 13t43 27.5t64.5 52.5t65.5 54t35.5 25.5t25.5 16.5t27 17.5t16.5 8.5l59 65q8 0 16 8q19 19 23 19q11 15 56.5 55.5t52.5 46.5t28 22.5t24 19.5t14 9.5t23 13.5q51 28 98.5 77t76.5 75.5t49 39.5t47 29q45 28 95 78l68 68q17 17 32.5 32t19.5 19.5t10 15.5 t9 16t22.5 22.5t32.5 21.5l80 8l28 7h56q20 0 31.5 -6.5t11.5 -47t-19.5 -77.5t-32 -62.5t-15.5 -40t-5 -18.5l-43 -70q-2 -4 -5 -19.5t-7 -17.5q-18 -49 -40 -96t-32 -72.5t-12 -35t-5.5 -20.5t-6.5 -19.5t-6 -14t-3 -24.5q-39 -68 -55 -113t-28.5 -60.5t-27 -56.5 t-41 -103.5t-40 -95t-15.5 -49t-6 -31t-14 -22.5t-21 -31l-8 -32q0 -6 -6 -19.5t-9 -16.5t-15.5 -18.5t-14.5 -17.5q-6 -6 -6 -53v-13q-12 -12 -18.5 -26t-16.5 -33q-16 -29 -27.5 -63.5t-13.5 -38.5v-11q0 -25 37 -30.5t82 -11t82 -17.5t37 -49v-19q0 -8 -21 -8l-203 2 l-202 -2l-209 -16h-80q-33 0 -62.5 8t-29.5 49l2 25q12 24 22 24q37 6 78 6l47 -2q75 0 123 23q28 18 54 64.5t40.5 73t19.5 36.5q16 32 32 45q7 27 7.5 31t6.5 24.5t22.5 61.5t31.5 76t30.5 59.5t15.5 54.5q0 64 -53 64h-299q-86 0 -199 -76q-12 -6 -23 -23.5t-17.5 -23.5 t-15.5 -14.5t-20 -17.5q-43 -33 -75.5 -71t-45.5 -49.5t-30.5 -31t-35.5 -36t-41 -37t-44.5 -49t-31 -37.5t-23.5 -27.5t-27 -31.5q-32 -32 -32 -50t12 -21h98q18 -4 50 -20.5t32 -34t-4 -24.5t-12 -24q-20 -26 -76 -26l-57 2h-35q-33 0 -49 8h-402q-8 -8 -24 -8 q-170 -46 -225 20q-11 14 -11 37zM1350 813h8q8 0 10 4l21 6h43l139 -10q47 0 90 7t88 14q43 31 57.5 82t31.5 95t37.5 84t31 66.5t14.5 46t10 38.5q14 44 35 57v83q-36 0 -43 -10q-4 -2 -13 -11l-20 -21q-12 -11 -21 -21t-11 -12q-20 -10 -28.5 -19.5t-21 -16.5t-15.5 -10 t-20.5 -19.5t-36.5 -35.5l-38 -38q-17 -17 -22 -21t-21.5 -20.5t-36.5 -34.5q-39 -38 -50 -48t-17.5 -17t-14.5 -16t-14 -17.5t-19 -22t-41 -30.5t-57 -38q-2 -4 -17 -15q-13 -9 -26 -22q-12 -20 -12 -43v-14zM1856 2064l2 21q2 10 4 14t4 14q3 14 21 19.5t24 10.5t16.5 5 t15.5 -2t15.5 -4t29 -15t31.5 -24.5t21 -20.5q19 -21 56 -48q71 -67 145 -156q16 -23 29 -36q28 -26 28 -48q-10 -20 -22 -20q-44 12 -160 88q-87 45 -115 71q-23 16 -52.5 39t-51.5 38q-33 23 -41 54z" />
<glyph unicode="&#xc1;" d="M-41 51q0 64 37 70q19 0 71 8t56 9t84 18q100 22 112 34q8 0 29 21q4 2 22.5 8t40 18.5t54.5 46t57 55t47 33t32 20.5t21.5 20.5t15.5 14.5t21.5 13.5t21.5 13.5t15.5 14t26.5 25.5t25.5 25.5t15.5 16q4 4 24.5 19t43 31.5t43 31t24.5 18.5t25.5 24.5t25.5 25.5t7.5 12.5 t6.5 9.5t22.5 13t43 27.5t64.5 52.5t65.5 54t35.5 25.5t25.5 16.5t27 17.5t16.5 8.5l59 65q8 0 16 8q19 19 23 19q11 15 56.5 55.5t52.5 46.5t28 22.5t24 19.5t14 9.5t23 13.5q51 28 98.5 77t76.5 75.5t49 39.5t47 29q45 28 95 78l68 68q17 17 32.5 32t19.5 19.5t10 15.5 t9 16t22.5 22.5t32.5 21.5l80 8l28 7h56q20 0 31.5 -6.5t11.5 -47t-19.5 -77.5t-32 -62.5t-15.5 -40t-5 -18.5l-43 -70q-2 -4 -5 -19.5t-7 -17.5q-18 -49 -40 -96t-32 -72.5t-12 -35t-5.5 -20.5t-6.5 -19.5t-6 -14t-3 -24.5q-39 -68 -55 -113t-28.5 -60.5t-27 -56.5 t-41 -103.5t-40 -95t-15.5 -49t-6 -31t-14 -22.5t-21 -31l-8 -32q0 -6 -6 -19.5t-9 -16.5t-15.5 -18.5t-14.5 -17.5q-6 -6 -6 -53v-13q-12 -12 -18.5 -26t-16.5 -33q-16 -29 -27.5 -63.5t-13.5 -38.5v-11q0 -25 37 -30.5t82 -11t82 -17.5t37 -49v-19q0 -8 -21 -8l-203 2 l-202 -2l-209 -16h-80q-33 0 -62.5 8t-29.5 49l2 25q12 24 22 24q37 6 78 6l47 -2q75 0 123 23q28 18 54 64.5t40.5 73t19.5 36.5q16 32 32 45q7 27 7.5 31t6.5 24.5t22.5 61.5t31.5 76t30.5 59.5t15.5 54.5q0 64 -53 64h-299q-86 0 -199 -76q-12 -6 -23 -23.5t-17.5 -23.5 t-15.5 -14.5t-20 -17.5q-43 -33 -75.5 -71t-45.5 -49.5t-30.5 -31t-35.5 -36t-41 -37t-44.5 -49t-31 -37.5t-23.5 -27.5t-27 -31.5q-32 -32 -32 -50t12 -21h98q18 -4 50 -20.5t32 -34t-4 -24.5t-12 -24q-20 -26 -76 -26l-57 2h-35q-33 0 -49 8h-402q-8 -8 -24 -8 q-170 -46 -225 20q-11 14 -11 37zM1350 813h8q8 0 10 4l21 6h43l139 -10q47 0 90 7t88 14q43 31 57.5 82t31.5 95t37.5 84t31 66.5t14.5 46t10 38.5q14 44 35 57v83q-36 0 -43 -10q-4 -2 -13 -11l-20 -21q-12 -11 -21 -21t-11 -12q-20 -10 -28.5 -19.5t-21 -16.5t-15.5 -10 t-20.5 -19.5t-36.5 -35.5l-38 -38q-17 -17 -22 -21t-21.5 -20.5t-36.5 -34.5q-39 -38 -50 -48t-17.5 -17t-14.5 -16t-14 -17.5t-19 -22t-41 -30.5t-57 -38q-2 -4 -17 -15q-13 -9 -26 -22q-12 -20 -12 -43v-14zM2236 1798q0 14 21.5 35.5t50.5 59.5q64 84 131 141 q27 20 38 30.5t20.5 18.5t20.5 18t40 29q14 4 23.5 10t18.5 8t18 -2t20 -7q26 -8 32 -34q6 -8 11 -22l2 -15q-13 -55 -107 -107q-24 -13 -44 -27q-45 -33 -111 -72q-115 -74 -162 -88q-7 0 -14 7t-7 11z" />
<glyph unicode="&#xc2;" d="M-41 51q0 64 37 70q19 0 71 8t56 9t84 18q100 22 112 34q8 0 29 21q4 2 22.5 8t40 18.5t54.5 46t57 55t47 33t32 20.5t21.5 20.5t15.5 14.5t21.5 13.5t21.5 13.5t15.5 14t26.5 25.5t25.5 25.5t15.5 16q4 4 24.5 19t43 31.5t43 31t24.5 18.5t25.5 24.5t25.5 25.5t7.5 12.5 t6.5 9.5t22.5 13t43 27.5t64.5 52.5t65.5 54t35.5 25.5t25.5 16.5t27 17.5t16.5 8.5l59 65q8 0 16 8q19 19 23 19q11 15 56.5 55.5t52.5 46.5t28 22.5t24 19.5t14 9.5t23 13.5q51 28 98.5 77t76.5 75.5t49 39.5t47 29q45 28 95 78l68 68q17 17 32.5 32t19.5 19.5t10 15.5 t9 16t22.5 22.5t32.5 21.5l80 8l28 7h56q20 0 31.5 -6.5t11.5 -47t-19.5 -77.5t-32 -62.5t-15.5 -40t-5 -18.5l-43 -70q-2 -4 -5 -19.5t-7 -17.5q-18 -49 -40 -96t-32 -72.5t-12 -35t-5.5 -20.5t-6.5 -19.5t-6 -14t-3 -24.5q-39 -68 -55 -113t-28.5 -60.5t-27 -56.5 t-41 -103.5t-40 -95t-15.5 -49t-6 -31t-14 -22.5t-21 -31l-8 -32q0 -6 -6 -19.5t-9 -16.5t-15.5 -18.5t-14.5 -17.5q-6 -6 -6 -53v-13q-12 -12 -18.5 -26t-16.5 -33q-16 -29 -27.5 -63.5t-13.5 -38.5v-11q0 -25 37 -30.5t82 -11t82 -17.5t37 -49v-19q0 -8 -21 -8l-203 2 l-202 -2l-209 -16h-80q-33 0 -62.5 8t-29.5 49l2 25q12 24 22 24q37 6 78 6l47 -2q75 0 123 23q28 18 54 64.5t40.5 73t19.5 36.5q16 32 32 45q7 27 7.5 31t6.5 24.5t22.5 61.5t31.5 76t30.5 59.5t15.5 54.5q0 64 -53 64h-299q-86 0 -199 -76q-12 -6 -23 -23.5t-17.5 -23.5 t-15.5 -14.5t-20 -17.5q-43 -33 -75.5 -71t-45.5 -49.5t-30.5 -31t-35.5 -36t-41 -37t-44.5 -49t-31 -37.5t-23.5 -27.5t-27 -31.5q-32 -32 -32 -50t12 -21h98q18 -4 50 -20.5t32 -34t-4 -24.5t-12 -24q-20 -26 -76 -26l-57 2h-35q-33 0 -49 8h-402q-8 -8 -24 -8 q-170 -46 -225 20q-11 14 -11 37zM1350 813h8q8 0 10 4l21 6h43l139 -10q47 0 90 7t88 14q43 31 57.5 82t31.5 95t37.5 84t31 66.5t14.5 46t10 38.5q14 44 35 57v83q-36 0 -43 -10q-4 -2 -13 -11l-20 -21q-12 -11 -21 -21t-11 -12q-20 -10 -28.5 -19.5t-21 -16.5t-15.5 -10 t-20.5 -19.5t-36.5 -35.5l-38 -38q-17 -17 -22 -21t-21.5 -20.5t-36.5 -34.5q-39 -38 -50 -48t-17.5 -17t-14.5 -16t-14 -17.5t-19 -22t-41 -30.5t-57 -38q-2 -4 -17 -15q-13 -9 -26 -22q-12 -20 -12 -43v-14zM1925 1821q9 26 37 49q2 4 16.5 14t31 22.5t30.5 21.5t18 14 q4 14 41 34.5t74 55.5q23 18 41 36.5t55 42.5q39 39 64 39q36 0 63 -43q46 -66 51 -104q4 -8 18.5 -31.5t23.5 -37t15.5 -19.5t9.5 -10q5 -6 15 -41v-4q0 -34 -22 -54h-31q-22 9 -36.5 25t-26.5 27q-14 13 -28.5 19.5t-25 19t-20.5 24.5q-29 35 -53 47q-16 -14 -44 -24.5 t-36 -24.5q-66 -23 -109 -52.5t-76 -45.5l-61 -11h-8q-27 0 -27 11z" />
<glyph unicode="&#xc3;" d="M-41 51q0 64 37 70q19 0 71 8t56 9t84 18q100 22 112 34q8 0 29 21q4 2 22.5 8t40 18.5t54.5 46t57 55t47 33t32 20.5t21.5 20.5t15.5 14.5t21.5 13.5t21.5 13.5t15.5 14t26.5 25.5t25.5 25.5t15.5 16q4 4 24.5 19t43 31.5t43 31t24.5 18.5t25.5 24.5t25.5 25.5t7.5 12.5 t6.5 9.5t22.5 13t43 27.5t64.5 52.5t65.5 54t35.5 25.5t25.5 16.5t27 17.5t16.5 8.5l59 65q8 0 16 8q19 19 23 19q11 15 56.5 55.5t52.5 46.5t28 22.5t24 19.5t14 9.5t23 13.5q51 28 98.5 77t76.5 75.5t49 39.5t47 29q45 28 95 78l68 68q17 17 32.5 32t19.5 19.5t10 15.5 t9 16t22.5 22.5t32.5 21.5l80 8l28 7h56q20 0 31.5 -6.5t11.5 -47t-19.5 -77.5t-32 -62.5t-15.5 -40t-5 -18.5l-43 -70q-2 -4 -5 -19.5t-7 -17.5q-18 -49 -40 -96t-32 -72.5t-12 -35t-5.5 -20.5t-6.5 -19.5t-6 -14t-3 -24.5q-39 -68 -55 -113t-28.5 -60.5t-27 -56.5 t-41 -103.5t-40 -95t-15.5 -49t-6 -31t-14 -22.5t-21 -31l-8 -32q0 -6 -6 -19.5t-9 -16.5t-15.5 -18.5t-14.5 -17.5q-6 -6 -6 -53v-13q-12 -12 -18.5 -26t-16.5 -33q-16 -29 -27.5 -63.5t-13.5 -38.5v-11q0 -25 37 -30.5t82 -11t82 -17.5t37 -49v-19q0 -8 -21 -8l-203 2 l-202 -2l-209 -16h-80q-33 0 -62.5 8t-29.5 49l2 25q12 24 22 24q37 6 78 6l47 -2q75 0 123 23q28 18 54 64.5t40.5 73t19.5 36.5q16 32 32 45q7 27 7.5 31t6.5 24.5t22.5 61.5t31.5 76t30.5 59.5t15.5 54.5q0 64 -53 64h-299q-86 0 -199 -76q-12 -6 -23 -23.5t-17.5 -23.5 t-15.5 -14.5t-20 -17.5q-43 -33 -75.5 -71t-45.5 -49.5t-30.5 -31t-35.5 -36t-41 -37t-44.5 -49t-31 -37.5t-23.5 -27.5t-27 -31.5q-32 -32 -32 -50t12 -21h98q18 -4 50 -20.5t32 -34t-4 -24.5t-12 -24q-20 -26 -76 -26l-57 2h-35q-33 0 -49 8h-402q-8 -8 -24 -8 q-170 -46 -225 20q-11 14 -11 37zM1350 813h8q8 0 10 4l21 6h43l139 -10q47 0 90 7t88 14q43 31 57.5 82t31.5 95t37.5 84t31 66.5t14.5 46t10 38.5q14 44 35 57v83q-36 0 -43 -10q-4 -2 -13 -11l-20 -21q-12 -11 -21 -21t-11 -12q-20 -10 -28.5 -19.5t-21 -16.5t-15.5 -10 t-20.5 -19.5t-36.5 -35.5l-38 -38q-17 -17 -22 -21t-21.5 -20.5t-36.5 -34.5q-39 -38 -50 -48t-17.5 -17t-14.5 -16t-14 -17.5t-19 -22t-41 -30.5t-57 -38q-2 -4 -17 -15q-13 -9 -26 -22q-12 -20 -12 -43v-14zM1835 1875q0 54 37 104q6 8 14 13t18 16q19 21 44.5 30.5t39 15 t35.5 15.5q34 16 89 16q104 0 131 -22q8 -6 16 -6h10q16 0 39.5 -12.5t38 -15.5t25.5 -10t24 -7l31 2q72 0 123 65q10 12 26.5 28.5t23.5 30t17 13.5q35 0 35 -35q0 -78 -33 -119q-8 -10 -22.5 -29.5t-32.5 -30.5t-38.5 -19.5t-40 -14.5t-34.5 -11q-50 -16 -119 -16l-114 9 q-10 0 -17.5 5t-16.5 10t-22.5 9t-26.5 9t-26.5 11.5t-24.5 6.5t-16 -2h-6l-22 2l-56 -8q-32 0 -53 -21q-10 -10 -17 -15t-13 -17q-16 -38 -31 -38h-15q-20 0 -20 38z" />
<glyph unicode="&#xc4;" d="M-41 51q0 64 37 70q19 0 71 8t56 9t84 18q100 22 112 34q8 0 29 21q4 2 22.5 8t40 18.5t54.5 46t57 55t47 33t32 20.5t21.5 20.5t15.5 14.5t21.5 13.5t21.5 13.5t15.5 14t26.5 25.5t25.5 25.5t15.5 16q4 4 24.5 19t43 31.5t43 31t24.5 18.5t25.5 24.5t25.5 25.5t7.5 12.5 t6.5 9.5t22.5 13t43 27.5t64.5 52.5t65.5 54t35.5 25.5t25.5 16.5t27 17.5t16.5 8.5l59 65q8 0 16 8q19 19 23 19q11 15 56.5 55.5t52.5 46.5t28 22.5t24 19.5t14 9.5t23 13.5q51 28 98.5 77t76.5 75.5t49 39.5t47 29q45 28 95 78l68 68q17 17 32.5 32t19.5 19.5t10 15.5 t9 16t22.5 22.5t32.5 21.5l80 8l28 7h56q20 0 31.5 -6.5t11.5 -47t-19.5 -77.5t-32 -62.5t-15.5 -40t-5 -18.5l-43 -70q-2 -4 -5 -19.5t-7 -17.5q-18 -49 -40 -96t-32 -72.5t-12 -35t-5.5 -20.5t-6.5 -19.5t-6 -14t-3 -24.5q-39 -68 -55 -113t-28.5 -60.5t-27 -56.5 t-41 -103.5t-40 -95t-15.5 -49t-6 -31t-14 -22.5t-21 -31l-8 -32q0 -6 -6 -19.5t-9 -16.5t-15.5 -18.5t-14.5 -17.5q-6 -6 -6 -53v-13q-12 -12 -18.5 -26t-16.5 -33q-16 -29 -27.5 -63.5t-13.5 -38.5v-11q0 -25 37 -30.5t82 -11t82 -17.5t37 -49v-19q0 -8 -21 -8l-203 2 l-202 -2l-209 -16h-80q-33 0 -62.5 8t-29.5 49l2 25q12 24 22 24q37 6 78 6l47 -2q75 0 123 23q28 18 54 64.5t40.5 73t19.5 36.5q16 32 32 45q7 27 7.5 31t6.5 24.5t22.5 61.5t31.5 76t30.5 59.5t15.5 54.5q0 64 -53 64h-299q-86 0 -199 -76q-12 -6 -23 -23.5t-17.5 -23.5 t-15.5 -14.5t-20 -17.5q-43 -33 -75.5 -71t-45.5 -49.5t-30.5 -31t-35.5 -36t-41 -37t-44.5 -49t-31 -37.5t-23.5 -27.5t-27 -31.5q-32 -32 -32 -50t12 -21h98q18 -4 50 -20.5t32 -34t-4 -24.5t-12 -24q-20 -26 -76 -26l-57 2h-35q-33 0 -49 8h-402q-8 -8 -24 -8 q-170 -46 -225 20q-11 14 -11 37zM1350 813h8q8 0 10 4l21 6h43l139 -10q47 0 90 7t88 14q43 31 57.5 82t31.5 95t37.5 84t31 66.5t14.5 46t10 38.5q14 44 35 57v83q-36 0 -43 -10q-4 -2 -13 -11l-20 -21q-12 -11 -21 -21t-11 -12q-20 -10 -28.5 -19.5t-21 -16.5t-15.5 -10 t-20.5 -19.5t-36.5 -35.5l-38 -38q-17 -17 -22 -21t-21.5 -20.5t-36.5 -34.5q-39 -38 -50 -48t-17.5 -17t-14.5 -16t-14 -17.5t-19 -22t-41 -30.5t-57 -38q-2 -4 -17 -15q-13 -9 -26 -22q-12 -20 -12 -43v-14zM1903 1927v16q0 39 16 60q45 57 92 57q111 0 111 -98 q0 -47 -40 -67.5t-81 -31.5h-21q-77 0 -77 64zM2380 1993q0 60 44 90q15 10 42 10q55 0 112 -10q14 -10 28.5 -32t14.5 -40q0 -53 -39.5 -90t-95.5 -37h-6q-41 16 -70.5 32.5t-29.5 76.5z" />
<glyph unicode="&#xc5;" d="M-41 51q0 64 37 70q19 0 71 8t56 9t84 18q100 22 112 34q8 0 29 21q4 2 22.5 8t40 18.5t54.5 46t57 55t47 33t32 20.5t21.5 20.5t15.5 14.5t21.5 13.5t21.5 13.5t15.5 14t26.5 25.5t25.5 25.5t15.5 16q4 4 24.5 19t43 31.5t43 31t24.5 18.5t25.5 24.5t25.5 25.5t7.5 12.5 t6.5 9.5t22.5 13t43 27.5t64.5 52.5t65.5 54t35.5 25.5t25.5 16.5t27 17.5t16.5 8.5l59 65q8 0 16 8q19 19 23 19q11 15 56.5 55.5t52.5 46.5t28 22.5t24 19.5t14 9.5t23 13.5q51 28 98.5 77t76.5 75.5t49 39.5t47 29q45 28 95 78l68 68q17 17 32.5 32t19.5 19.5t10 15.5 t9 16t22.5 22.5t32.5 21.5l80 8l28 7h56q20 0 31.5 -6.5t11.5 -47t-19.5 -77.5t-32 -62.5t-15.5 -40t-5 -18.5l-43 -70q-2 -4 -5 -19.5t-7 -17.5q-18 -49 -40 -96t-32 -72.5t-12 -35t-5.5 -20.5t-6.5 -19.5t-6 -14t-3 -24.5q-39 -68 -55 -113t-28.5 -60.5t-27 -56.5 t-41 -103.5t-40 -95t-15.5 -49t-6 -31t-14 -22.5t-21 -31l-8 -32q0 -6 -6 -19.5t-9 -16.5t-15.5 -18.5t-14.5 -17.5q-6 -6 -6 -53v-13q-12 -12 -18.5 -26t-16.5 -33q-16 -29 -27.5 -63.5t-13.5 -38.5v-11q0 -25 37 -30.5t82 -11t82 -17.5t37 -49v-19q0 -8 -21 -8l-203 2 l-202 -2l-209 -16h-80q-33 0 -62.5 8t-29.5 49l2 25q12 24 22 24q37 6 78 6l47 -2q75 0 123 23q28 18 54 64.5t40.5 73t19.5 36.5q16 32 32 45q7 27 7.5 31t6.5 24.5t22.5 61.5t31.5 76t30.5 59.5t15.5 54.5q0 64 -53 64h-299q-86 0 -199 -76q-12 -6 -23 -23.5t-17.5 -23.5 t-15.5 -14.5t-20 -17.5q-43 -33 -75.5 -71t-45.5 -49.5t-30.5 -31t-35.5 -36t-41 -37t-44.5 -49t-31 -37.5t-23.5 -27.5t-27 -31.5q-32 -32 -32 -50t12 -21h98q18 -4 50 -20.5t32 -34t-4 -24.5t-12 -24q-20 -26 -76 -26l-57 2h-35q-33 0 -49 8h-402q-8 -8 -24 -8 q-170 -46 -225 20q-11 14 -11 37zM1350 813h8q8 0 10 4l21 6h43l139 -10q47 0 90 7t88 14q43 31 57.5 82t31.5 95t37.5 84t31 66.5t14.5 46t10 38.5q14 44 35 57v83q-36 0 -43 -10q-4 -2 -13 -11l-20 -21q-12 -11 -21 -21t-11 -12q-20 -10 -28.5 -19.5t-21 -16.5t-15.5 -10 t-20.5 -19.5t-36.5 -35.5l-38 -38q-17 -17 -22 -21t-21.5 -20.5t-36.5 -34.5q-39 -38 -50 -48t-17.5 -17t-14.5 -16t-14 -17.5t-19 -22t-41 -30.5t-57 -38q-2 -4 -17 -15q-13 -9 -26 -22q-12 -20 -12 -43v-14zM1982 1922q0 42 16.5 83t45.5 73q63 71 150 71t143.5 -47.5 t85.5 -120.5q2 -2 5 -14.5t5 -16.5q0 -117 -59.5 -189.5t-176.5 -72.5h-59q-87 48 -111 100q-12 35 -28.5 63.5t-16.5 70.5zM2064 1940q0 -6 4 -25.5t12 -43.5q19 -61 27 -62.5t26.5 -17t29.5 -19.5q17 -6 36 -6h37q38 0 76 55q37 55 37 94t-17.5 65.5t-41.5 44.5 q-55 42 -93.5 42t-55.5 -14.5t-27.5 -24.5t-17.5 -21.5t-14.5 -24t-12.5 -24.5t-5 -18z" />
</font>
</defs>
</svg>
