<?xml version="1.0" standalone="no"?>
<!DOCTYPE svg PUBLIC "-//W3C//DTD SVG 1.1//EN" "http://www.w3.org/Graphics/SVG/1.1/DTD/svg11.dtd" >
<svg xmlns="http://www.w3.org/2000/svg">
<metadata></metadata>
<defs>
<font id="garamond_premier_prosubhead" horiz-adv-x="923" >
<font-face units-per-em="2048" ascent="1485" descent="-563" />
<missing-glyph horiz-adv-x="387" />
<glyph unicode="&#xfb03;" horiz-adv-x="1531" d="M41 8q0 19 35 25q63 15 79 42t19 118q4 139 4 485q0 17 -6 23t-22 8l-58 6q-7 0 -12.5 5t-5.5 9t2 7.5t6.5 7t8.5 6.5t12.5 7t15 7.5t18.5 9t21 10.5q7 4 14.5 14.5t7.5 14.5q0 154 53 277q59 146 191 233q115 72 235 72q48 0 106.5 -21t90.5 -53q12 -12 21 0 q54 57 141 99t168 42q111 0 166 -49q34 -27 34 -72q0 -25 -26.5 -52t-46.5 -27q-15 0 -33 9t-29 21q-74 84 -186 84q-85 0 -145 -96q-39 -71 -56.5 -212.5t-15.5 -254.5q0 -9 6 -17t20 -8h240q44 0 108.5 8.5t88.5 18.5q40 19 53 19q16 0 16 -78q-6 -60 -3.5 -331.5 t5.5 -309.5q1 -35 19.5 -49t71.5 -27q40 -8 40 -23q0 -22 -47 -22q-29 0 -81.5 3t-86.5 3q-42 0 -85 -5t-68 -5q-39 0 -39 18q0 16 39 25q41 9 60 30t22 60q6 68 6 344q0 165 -2 197q0 13 -7.5 30t-17.5 17h-338q-7 0 -13.5 -9t-6.5 -20q0 -438 4 -516q3 -66 23.5 -89 t87.5 -42q32 -9 32 -21q0 -20 -39 -20q-28 0 -91 3t-107 3q-25 0 -74 -4t-78 -4q-41 0 -41 18q0 17 35 23q65 15 81 41t19 116q7 160 7 492q0 10 -5 19.5t-10 9.5h-346q-15 0 -21 -6t-6 -25q0 -422 5 -520q3 -66 22 -89.5t76 -35.5q12 -3 22.5 -10t10.5 -13q0 -18 -39 -18 q-30 0 -86 3t-94 3q-24 0 -76 -3t-80 -3q-39 0 -39 14zM324 811q0 -23 22 -23h338q25 0 25 15q0 249 63 383q8 17 -4 33q-39 51 -97.5 75.5t-117.5 24.5q-94 0 -154 -84q-35 -44 -55 -158t-20 -266z" />
<glyph unicode="&#xfb04;" horiz-adv-x="1550" d="M41 8q0 19 35 25q63 15 78.5 42t17.5 118q4 139 4 487q0 24 -16 27l-68 8q-7 0 -12.5 5t-5.5 9q0 3 1.5 5.5t4 5.5t5 5.5t8 6t9.5 5.5t11.5 6t12.5 7t15 8t17 8q6 5 13 15t7 14q0 149 53 279q63 142 191 225q121 76 235 76q49 0 103 -18t86 -50q11 -11 20 0 q54 57 135.5 96t163.5 39q47 0 93.5 -12.5t68.5 -26.5q14 -8 27 11q17 24 37 24q13 0 10 -43q-15 -264 -15 -936q0 -128 4.5 -230t4.5 -108q2 -48 21.5 -71.5t64.5 -30.5q45 -6 45 -31q0 -6 -13.5 -11t-31.5 -5q-20 0 -71 4t-85 4q-28 0 -95.5 -4t-86.5 -4q-47 0 -47 18 q0 19 47 27q34 7 63.5 30.5t30.5 59.5q8 312 8 567q0 7 -4.5 12t-9.5 5h-369q-7 0 -11.5 -10.5t-4.5 -18.5q0 -399 4 -516q3 -68 20 -91t78 -40q33 -8 33 -21q0 -20 -39 -20q-28 0 -84 3t-100 3q-24 0 -74 -3t-80 -3q-39 0 -39 18q0 19 35 25q65 15 81 39.5t19 113.5 q5 114 5 492q0 6 -6 17.5t-13 11.5h-340q-15 0 -22 -7t-7 -26q0 -372 5 -518q3 -68 19 -90.5t71 -34.5q12 -3 22 -10t10 -13q0 -18 -38 -18q-30 0 -81.5 3t-88.5 3q-24 0 -76 -3t-80 -3q-39 0 -39 14zM322 809q0 -23 22 -23l340 2q23 0 23 15q1 86 3.5 134t17.5 123.5 t42 125.5q2 1 0.5 16t-4.5 19q-38 50 -97.5 74t-121.5 24q-87 0 -150 -84q-34 -44 -54.5 -160t-20.5 -266zM848 817q0 -31 20 -31q29 0 190 2.5t175 2.5q12 0 12 16v403q-5 70 -22 105q-20 35 -63 55.5t-97 20.5q-63 0 -123 -70q-92 -99 -92 -504z" />
<glyph horiz-adv-x="2048" />
<glyph horiz-adv-x="2048" />
<glyph unicode="&#xd;" horiz-adv-x="2048" />
<glyph unicode=" "  horiz-adv-x="387" />
<glyph unicode="&#x09;" horiz-adv-x="387" />
<glyph unicode="&#xa0;" horiz-adv-x="387" />
<glyph unicode="!" horiz-adv-x="485" d="M174 78q0 42 31 78.5t76 36.5t74.5 -32t29.5 -81q0 -46 -30.5 -79.5t-75.5 -33.5q-43 0 -74 32.5t-31 78.5zM178 1063q0 91 30 132.5t68 41.5q49 0 74 -54t23 -116q0 -80 -68 -618q-4 -54 -24 -54q-22 0 -29 51q-6 47 -27.5 201.5t-34 259.5t-12.5 156z" />
<glyph unicode="&#x22;" horiz-adv-x="536" d="M84 1298q-4 18 6 27q21 27 50.5 53.5t49.5 26.5q25 0 25 -80q0 -41 -19 -146t-36 -161q-7 -25 -17.5 -40t-17.5 -17q-6 0 -11 11.5t-5 26.5q-4 173 -25 299zM326 1319q-4 17 6 27q18 21 48.5 45t51.5 24q23 0 23 -78q0 -34 -19.5 -142t-36.5 -167q-5 -17 -11.5 -31 t-12 -20t-8.5 -6q-8 0 -14.5 12t-6.5 27q0 183 -20 309z" />
<glyph unicode="#" horiz-adv-x="921" d="M72 481q16 80 39 80l151 8q16 0 19 13l47 206q2 8 -0.5 15t-8.5 6l-165 -4l-1 7q-1 7 -2 20t3 32q4 14 14 32t18 19l162 7q12 0 17 10l79 309q1 2 3 5.5t3 5t3.5 4.5t5.5 4.5t7.5 2.5t10.5 1q4 0 11.5 -8t7.5 -13l-80 -309q0 -10 6 -10l186 4q20 0 23 16l84 316 q3 8 15 14t20 6q3 0 6 -3t5 -9.5t-1 -16.5l-78 -303q-4 -16 6 -16l156 2q13 -33 6 -47q-1 -2 -7.5 -23t-12.5 -30t-13 -9l-149 -6q-3 0 -9.5 -6t-7.5 -12l-55 -209q-1 -4 6 -8t12 -2l150 4q7 0 13.5 -18t4.5 -27q-4 -21 -16.5 -45.5t-26.5 -24.5l-155 -6q-5 0 -10.5 -2.5 t-8 -5.5t-2.5 -4l-88 -340q-1 -10 -2.5 -14t-7 -8.5t-16.5 -4.5q-9 0 -18 6t-5 17l86 337q1 7 -4.5 12t-9.5 5l-183 -6q-3 0 -11.5 -7t-8.5 -10l-86 -342q-3 -10 -17 -16t-22 -6q-16 0 -10 26l82 332q2 7 -1.5 14t-11.5 7l-143 -4q-4 0 -9 13t-5 17zM328 584q0 -3 3.5 -9.5 t8.5 -5.5l184 9q18 0 23 16l53 203q3 21 -8 18l-193 -4q-12 0 -16 -16z" />
<glyph unicode="$" d="M72 301q0 39 16 39t23 -31q34 -126 110 -188q61 -52 148 -70q4 -1 8 3t4 7l61 517q0 14 -16 24q-53 30 -88.5 53t-78.5 58.5t-68.5 69.5t-43.5 81t-18 99q0 122 94 213q39 41 120.5 71t166.5 31q3 0 6.5 3t3.5 5l17 146q0 3 4 6.5t6 3.5q12 0 23.5 -6.5t9.5 -12.5 l-15 -133q0 -10 8 -10q32 -4 67.5 -11t75 -17t42.5 -11q11 -3 18 -20q9 -21 17 -67.5t8 -72.5q0 -65 -13 -65q-12 0 -16 4t-10 20q-45 119 -100 158q-21 14 -95 35q-5 0 -10 -14l-51 -459q0 -12 8 -17q184 -95 258 -184.5t74 -208.5q0 -166 -146 -264q-41 -29 -113 -52.5 t-153 -27.5q-9 0 -12 -10q-10 -113 -16 -162q-3 -5 -13.5 -8t-17.5 -2q-10 0 -21 8l19 150q4 24 -6 24q-46 4 -118.5 20t-119.5 31q-21 3 -31 45q-6 28 -16 103.5t-10 95.5zM268 999q0 -71 48.5 -125t136.5 -102q3 -1 6.5 1t3.5 5l51 447q0 10 -10 10q-113 -6 -174.5 -67 t-61.5 -169zM432 55q0 -10 8 -10q113 13 187 79t73 175q0 83 -45.5 145.5t-152.5 120.5q-3 1 -8 -3t-7 -9z" />
<glyph unicode="%" horiz-adv-x="1449" d="M82 913q0 165 65 267q83 127 230 127q69 0 124.5 -35t86.5 -90t47 -114.5t16 -117.5q0 -162 -65 -262q-81 -127 -228 -127q-69 0 -124 31.5t-87 83t-48.5 112t-16.5 125.5zM217 952q0 -50 8.5 -105t26 -112.5t52 -95t79.5 -37.5q129 0 129 311q0 46 -7 99t-23.5 113.5 t-50.5 99.5t-81 39q-40 0 -68.5 -32.5t-41.5 -85t-18 -99.5t-5 -95zM282.5 -31.5q-0.5 3.5 2 9t4 8.5t3.5 8l3 4q40 62 356.5 558.5t476.5 743.5q15 27 29 27q11 0 29 -18q7 -7 0 -21q-94 -146 -276.5 -426.5t-323 -499t-260.5 -411.5q-8 -8 -15 -8q-12 0 -26 18 q-2 4 -2.5 7.5zM799 328q0 165 71 264q85 123 222 123q70 0 125.5 -34t87.5 -88t48.5 -114t16.5 -119q0 -181 -78 -280q-44 -54 -92.5 -81.5t-114.5 -27.5q-73 0 -130.5 33t-90 86.5t-49 114t-16.5 123.5zM934 383q0 -66 9.5 -128.5t28 -118.5t52 -90t76.5 -34q34 0 59 22.5 t38.5 54t21.5 74t10 73.5t2 61q0 60 -7.5 120t-24.5 121t-50.5 98.5t-79.5 37.5q-41 0 -70 -30.5t-42 -80t-18 -93t-5 -87.5z" />
<glyph unicode="&#x26;" horiz-adv-x="1622" d="M84 340q2 65 32.5 141t100.5 144q85 82 170 139q7 7 0 14q-74 57 -108 112t-33 122q1 64 24.5 110.5t71.5 89.5q88 70 180 70q106 0 178 -67t70 -158q0 -19 -7 -38t-14.5 -33t-25 -31t-27.5 -26t-34 -24.5t-32.5 -20.5t-35 -19.5t-29.5 -16.5q-7 -3 2 -12 q178 -142 379 -406q3 -3 9.5 -1t9.5 5q68 90 139.5 205t87.5 152q20 41 22 69q1 24 -20.5 36.5t-75.5 21.5q-17 3 -28 11t-11 15q0 8 11 14.5t30 6.5h123q33 0 133.5 7t139.5 7q40 0 40 -23q0 -7 -13 -13.5t-25 -8.5q-97 -13 -150.5 -53.5t-144.5 -159.5q-62 -77 -236 -340 q-7 -14 2 -29q71 -134 109 -172q104 -104 243 -104q114 0 203 67q7 4 13 -4t4 -16q-12 -35 -45 -66q-60 -54 -127 -82t-185 -28q-90 0 -194 43q-7 2 -21.5 20t-25.5 43l-91 193q-1 3 -7 2.5t-9 -6.5q-104 -138 -190 -197q-111 -76 -224 -76q-149 0 -255.5 109t-102.5 262z M244 451q-3 -79 20 -146t62 -106q44 -41 101 -64.5t105 -23.5q93 0 171 47t131 127q3 16 -3 22q-57 98 -180.5 231.5t-210.5 190.5q-25 14 -37 2q-70 -47 -114 -122t-45 -158zM373 1069q-3 -64 37 -116.5t104 -80.5q19 -6 27 2q43 27 72.5 78t29.5 92q3 87 -42 145t-93 58 q-60 0 -96.5 -54t-38.5 -124z" />
<glyph unicode="'" horiz-adv-x="299" d="M84 1317q-3 17 6 26q18 20 51 44t54 24q14 0 19 -13.5t5 -43.5q0 -44 -19 -158t-36 -178q-7 -25 -20.5 -44.5t-20.5 -19.5q-6 0 -11.5 15.5t-5.5 29.5q-9 210 -22 318z" />
<glyph unicode="(" horiz-adv-x="690" d="M168 551q0 164 32 316t86.5 268.5t112.5 203t123 152.5q29 31 60 31q7 0 13.5 -4t6.5 -9q4 -12 -18 -34q-145 -143 -236.5 -382t-91.5 -509q0 -163 22 -297.5t67.5 -248t102.5 -205.5t140 -195q7 -9 10 -22t-2 -17q-25 -25 -35 -25q-28 0 -63 41q-170 194 -250 436.5 t-80 499.5z" />
<glyph unicode=")" horiz-adv-x="690" d="M88 -412q0 15 18 35q145 142 236.5 380.5t91.5 508.5q0 163 -22 297.5t-67.5 248t-102.5 205.5t-140 195q-7 10 -10 23.5t2 17.5q3 2 9 7.5t9 8t8 5t9 2.5q29 0 64 -41q170 -192 249.5 -435t79.5 -499q0 -164 -32 -316t-86 -269t-112.5 -204.5t-123.5 -152.5 q-29 -31 -59 -31q-7 0 -14 4.5t-7 9.5z" />
<glyph unicode="*" horiz-adv-x="602" d="M43 1225q0 5 2 8t6 4t8.5 1t10 -1t9 -2t8 -2.5t5.5 -1.5q60 -18 158 -60q3 -2 6.5 2t3.5 11q-8 105 -4 180q3 39 18 39q9 0 18 -12t13 -31q1 -9 6 -34t11 -61t10 -77q0 -4 4.5 -6.5t7.5 0.5q90 69 141 94q45 25 45 0q0 -20 -26 -43q-41 -36 -131 -103q-9 -5 2 -12 q116 -61 160 -96q35 -28 24 -43q-9 -14 -43 0q-53 15 -164 72q-5 3 -8.5 -1t-3.5 -8v-163q-3 -50 -21 -50q-16 0 -26 43q-17 70 -23 172q0 1 -1.5 3.5t-4.5 3.5t-8 -2q-87 -56 -154 -84q-19 -9 -34 -8t-17 10q-2 14 27 37q11 9 133 94q2 2 2.5 7t-4.5 7q-97 50 -137 78 q-29 19 -29 35z" />
<glyph unicode="+" horiz-adv-x="1064" d="M94 422q0 30 10 53q7 14 15 14h350q6 0 10 6t4 9l-2 364q0 4 4 11t9 8q18 6 73 6q7 0 12 -12.5t5 -24.5v-352q0 -5 5 -10t7 -5l362 -2q5 0 9 -8.5t4 -13.5q0 -40 -8 -53q-7 -13 -21 -13l-344 -4q-5 0 -9.5 -7t-4.5 -11v-371q0 -17 -17 -24q-27 -9 -63 -9q-7 0 -13 7 t-6 16l-4 379q0 5 -2 9.5t-4.5 7.5t-3.5 3l-348 2q-29 0 -29 25z" />
<glyph unicode="," horiz-adv-x="385" d="M59 -215q0 9 23 20q117 56 117 152q0 59 -82 82q-13 4 -21 20.5t-8 34.5q0 33 25.5 57.5t58.5 24.5q53 0 88 -47t35 -121q0 -67 -37 -122.5t-85 -83t-89 -27.5q-25 0 -25 10z" />
<glyph unicode="-" horiz-adv-x="602" d="M82 375q0 33 12 57q3 4 11.5 10.5t11.5 6.5q27 5 186 24.5t199 22.5q8 0 13 -9t5 -16q0 -49 -8 -63q-3 -5 -13 -12t-14 -7q-34 -6 -194 -22.5t-187 -16.5q-9 0 -15.5 8t-6.5 17z" />
<glyph unicode="." horiz-adv-x="385" d="M102 72q0 38 27 69t64 31q41 0 68.5 -28.5t27.5 -69.5q0 -43 -27 -71t-69 -28q-39 0 -65 28.5t-26 68.5z" />
<glyph unicode="/" horiz-adv-x="833" d="M92 -123q86 217 182 466.5t216.5 566.5t177.5 466q17 29 32 29q12 0 27 -12q6 -3 8.5 -12t-0.5 -15q-558 -1446 -577 -1495q-16 -39 -31 -39q-4 0 -9 3t-10.5 8t-7.5 7q-4 2 -7.5 10.5t-0.5 16.5z" />
<glyph unicode="0" d="M66 616q0 248 59.5 409.5t191.5 238.5q74 43 158 43q89 0 159 -44t112 -111.5t69.5 -157t38 -171.5t10.5 -164q0 -246 -64 -403t-153 -223q-77 -62 -178 -62q-90 0 -162 44.5t-115.5 112.5t-73 157t-41 170.5t-11.5 160.5zM229 698q0 -124 13.5 -238t43 -217.5t83 -165 t125.5 -61.5t129 109q33 64 53 192t20 279q0 129 -12.5 242t-39.5 211.5t-76 155.5t-115 57t-113 -56q-50 -65 -80.5 -195t-30.5 -313z" />
<glyph unicode="1" d="M174 6q0 17 47 25q99 20 126.5 45t35.5 98q12 118 12 555q0 321 -4 383q-1 13 -12 25.5t-21 15.5q-47 15 -110 23q-31 4 -31 22q0 14 35 21q181 29 252 69q28 19 41 19q5 0 9.5 -8.5t4.5 -18.5t-0.5 -31t-2 -78.5t-3.5 -115.5q-1 -101 -0.5 -428.5t2.5 -403.5 q1 -42 1.5 -62t6 -42.5t12 -31t24 -19t36.5 -15.5t55 -12q47 -8 47 -27q0 -11 -10.5 -15.5t-44.5 -4.5q-38 0 -96 3t-97 3q-56 0 -160.5 -6t-105.5 -6q-49 0 -49 18z" />
<glyph unicode="2" d="M47 16q0 21 33 50q82 76 207 225q121 150 215 321t94 297q0 132 -64 197t-170 65q-66 0 -132 -36t-111 -88q-28 -33 -39 -33q-14 0 -14 12q0 24 22 57q56 91 127 144q106 80 227 80q138 0 226 -96.5t88 -233.5q0 -94 -42 -188t-128 -207q-109 -140 -346 -416 q-3 -4 2.5 -11.5t7.5 -7.5q168 -16 438 -16q29 0 74 19t80 63q27 35 39 35q7 0 10 -5.5t1 -19.5t-11 -33q-50 -89 -76 -176q-3 -10 -12.5 -17t-16.5 -7q-4 0 -205.5 5t-257.5 5l-202 -2q-64 0 -64 18z" />
<glyph unicode="3" d="M84 -6q0 19 25.5 47.5t42.5 28.5q21 0 49 -21q50 -37 89.5 -48t96.5 -11q89 0 161 56t108 136t36 162q0 143 -71 225q-39 43 -86.5 58.5t-128.5 15.5q-49 0 -121 -27q-9 -3 -18 0t-9 9q0 13 17.5 28t39.5 25q84 39 140 79.5t83.5 81t37.5 75.5t10 77q0 88 -53.5 140.5 t-145.5 52.5q-57 0 -117.5 -32.5t-105.5 -78.5q-12 -12 -23 -12q-7 0 -8.5 10.5t4.5 20.5q23 33 51.5 65t71.5 68.5t99.5 59t115.5 22.5q119 0 187.5 -72.5t68.5 -159.5q0 -26 -6 -51.5t-13 -45t-23 -42.5t-26.5 -37t-33.5 -36.5t-34 -31.5t-38 -32.5t-35 -30.5 q-2 -2 -2 -10t6 -8h29q58 0 126 -29t112 -84q23 -32 39 -84t16 -98q0 -148 -84 -266t-227 -201q-140 -82 -279 -82q-69 0 -121.5 25.5t-52.5 62.5z" />
<glyph unicode="4" d="M27 393q0 4 45 66q407 567 635 899q19 26 41 26h14q22 0 24.5 -9.5t-10.5 -26.5q-59 -78 -170.5 -231.5t-253 -350t-194.5 -268.5q-3 -4 -1.5 -12t7.5 -9q36 -3 200 -6t195 0q10 0 10 18l2 373q0 31 19 43q17 10 52.5 20.5t57.5 12.5q13 1 19 -8t7 -19.5t1 -33.5v-390 q0 -20 21 -20l157 4q6 0 14.5 -6.5t8.5 -11.5q0 -29 -10 -56q-7 -14 -13 -16h-164q-14 0 -14 -14v-211q0 -68 13.5 -88.5t72.5 -30.5q24 -4 31.5 -9t7.5 -14q0 -20 -43 -20q-24 -1 -76 2.5t-78 3.5q-37 0 -102.5 -5t-95.5 -5q-39 0 -39 16q0 19 39 25q34 5 54.5 16t30 29 t13.5 37t7 48q0 10 1 15q6 63 6 182q0 23 -22 23h-78q-336 0 -412 -8q-12 -1 -21 6t-9 14z" />
<glyph unicode="5" d="M115 766q0 60 36.5 208t67.5 216q15 29 60 51q33 15 202 40.5t240 25.5q20 0 20 -15q0 -48 -36.5 -101.5t-73.5 -57.5q-63 -9 -205 -18.5t-162 -12.5q-11 -1 -23.5 -15t-17.5 -26q-14 -39 -27.5 -90t-13.5 -58q0 -29 64 -43q6 -2 62.5 -16.5t92 -24.5t89 -29t90.5 -38 q245 -125 245 -375q0 -195 -180 -346q-92 -78 -216.5 -118t-235.5 -40q-19 0 -41.5 5.5t-22.5 17.5q0 15 49 20q58 8 116.5 23.5t127.5 48.5t120.5 77.5t86.5 115t35 155.5q0 204 -220 293q-26 11 -50.5 21t-49.5 17.5t-42.5 13t-43 11.5t-36.5 8.5t-37.5 8t-32.5 6.5 q-15 3 -26 14t-11 27z" />
<glyph unicode="6" d="M59 379q0 119 32.5 235t83.5 207.5t120.5 176.5t135 144.5t134.5 108.5q99 71 199.5 114.5t155.5 43.5q26 0 26 -8q0 -17 -26 -27q-193 -89 -351 -239q-145 -140 -241.5 -341t-96.5 -409q0 -89 28 -163.5t90.5 -124.5t150.5 -50q47 0 85 16.5t63 44t41.5 65.5t24 79 t7.5 86q0 111 -62.5 188.5t-160.5 77.5q-32 0 -121 -24q-7 -5 -15 -3.5t-8 7.5q0 13 12.5 28.5t30.5 26.5q118 74 209 74q118 0 194.5 -85.5t76.5 -203.5q0 -59 -16 -114t-40.5 -95.5t-58 -76.5t-64.5 -59t-63 -40q-114 -64 -221 -64q-163 0 -259 114.5t-96 289.5z" />
<glyph unicode="7" d="M47 1020q-18 0 0 55q13 32 30.5 95.5t20.5 91.5q1 9 8.5 17.5t12.5 8.5q9 0 48.5 -2.5t108.5 -5t148 -2.5q98 0 179 1t128 2t79.5 2t49 2t19.5 1q32 0 22 -23q-2 -7 -14 -26q-42 -70 -121 -231q-31 -64 -113.5 -236.5t-138.5 -288t-132 -267t-132 -257.5 q-15 -33 -27.5 -45t-32.5 -12q-13 0 -20 10q-6 17 14 53q99 169 298 568t282 585q2 3 -1 6.5t-9 3.5q-126 4 -281 4q-264 0 -297 -4q-34 -4 -92 -75q-21 -31 -37 -31z" />
<glyph unicode="8" d="M115 266q0 54 31 113t85 110q19 18 67.5 56t68.5 55q2 1 1 7.5t-6 10.5q-108 89 -166.5 173.5t-58.5 193.5q0 131 99 227q108 97 251 97q137 0 228.5 -88t91.5 -213q0 -104 -107 -207q-77 -69 -135 -107q-4 -3 -4 -10.5t2 -9.5q113 -87 181.5 -177.5t68.5 -195.5 q0 -87 -49.5 -161t-104.5 -109q-38 -25 -93.5 -42.5t-96.5 -17.5q-145 0 -249.5 80.5t-104.5 214.5zM262 279q0 -92 72.5 -176.5t159.5 -84.5q62 0 114 50q64 61 64 174q0 47 -23.5 95.5t-67 95t-75 74.5t-78.5 66q-4 4 -14 5.5t-11 -0.5q-141 -135 -141 -299zM266 1051 q0 -94 79.5 -194t162.5 -142q11 -4 20 0q58 50 103 122t45 156q0 73 -25 134t-79 101t-128 40q-75 0 -126.5 -69.5t-51.5 -147.5z" />
<glyph unicode="9" d="M66 -90q0 12 28 29q351 204 496 536q43 92 66 178.5t27.5 135t4.5 108.5q0 173 -72.5 263.5t-177.5 90.5q-100 0 -159.5 -79.5t-59.5 -198.5q0 -120 63.5 -193t166.5 -73q27 0 58.5 11.5t49.5 24.5q6 4 16.5 1.5t10.5 -11.5q0 -5 -7 -16t-23.5 -28.5t-37.5 -31.5 q-46 -33 -98 -51t-78 -18q-120 0 -196 83.5t-76 223.5q0 171 133 289q131 123 291 123q166 0 269 -116.5t103 -297.5q0 -100 -25 -201t-64 -181.5t-74.5 -137t-69.5 -97.5q-167 -215 -432 -344q-71 -36 -107 -36q-26 0 -26 14z" />
<glyph unicode=":" horiz-adv-x="446" d="M131 72q0 38 26.5 68t65.5 30q40 0 67 -28t27 -68q0 -43 -27 -71t-69 -28q-38 0 -64 28.5t-26 68.5zM131 657q0 38 25.5 68.5t66.5 30.5t67.5 -28.5t26.5 -70.5q0 -40 -26.5 -69t-67.5 -29q-38 0 -65 28.5t-27 69.5z" />
<glyph unicode=";" horiz-adv-x="446" d="M94 -201q0 10 25 17q54 27 81 65t27 80q0 58 -77 78q-12 4 -20.5 20t-8.5 33q0 31 25 54.5t57 23.5q49 0 82.5 -45t33.5 -117q0 -92 -68 -155.5t-132 -63.5q-25 0 -25 10zM131 657q0 38 25.5 68.5t66.5 30.5t67.5 -28.5t26.5 -70.5q0 -40 -26.5 -69t-67.5 -29 q-38 0 -65 28.5t-27 69.5z" />
<glyph unicode="&#x3c;" horiz-adv-x="1064" d="M176 440q0 18 19 29q23 19 57 37q246 141 559 315q7 5 18 7.5t13 0.5q28 -28 37 -55q3 -2 1.5 -13.5t-10.5 -15.5q-339 -183 -528 -288q-6 -3 -7 -8.5t5 -10.5l537 -299q11 -6 8 -24q-9 -36 -31 -58q-4 -4 -14 -6.5t-15 0.5q-60 34 -190 108t-231 131.5t-156 88.5 q-72 39 -72 61z" />
<glyph unicode="=" horiz-adv-x="1064" d="M94 240q0 47 6 61q2 5 7.5 10.5t9.5 5.5h831q7 0 14 -7t7 -15q0 -39 -8 -55q-3 -6 -9.5 -10.5t-9.5 -4.5h-823q-8 0 -16.5 4.5t-8.5 10.5zM94 594q0 30 10 53q3 5 8 10t7 5l839 -3q5 0 9 -8.5t4 -13.5q0 -40 -8 -53q-7 -13 -21 -13l-819 -2q-29 0 -29 25z" />
<glyph unicode="&#x3e;" horiz-adv-x="1064" d="M178 764q9 35 31 57q4 4 14 6.5t15 -0.5q474 -269 577 -327q72 -39 72 -62q0 -17 -19 -28q-23 -19 -57 -37q-301 -173 -559 -316q-7 -5 -18 -7.5t-13 -0.5q-28 28 -37 55q-3 2 -1.5 13.5t10.5 15.5q281 152 528 289q16 8 2 18l-537 299q-11 6 -8 25z" />
<glyph unicode="?" horiz-adv-x="647" d="M139 1155q0 29 23.5 49.5t54.5 20.5q76 0 191 -97q16 -13 48.5 -52t69.5 -112.5t37 -136.5q0 -78 -18 -123t-58 -73q-32 -22 -98 -56t-76 -40q-30 -18 -39 -36t-12 -63q-3 -49 -20 -49t-31 59q-23 81 -23 138q0 36 19.5 60.5t62.5 49.5q47 23 105 47q52 25 84.5 61 t32.5 77q0 92 -41.5 141t-139.5 49q-10 0 -45 -4t-55 -4q-26 0 -49 30t-23 64zM176 78q0 42 31 78.5t76 36.5q46 0 75 -31.5t29 -81.5q0 -46 -30 -79.5t-74 -33.5t-75.5 32.5t-31.5 78.5z" />
<glyph unicode="@" horiz-adv-x="1665" d="M102 289q0 169 71 327.5t186.5 272.5t267 183t307.5 69q153 0 276 -46t201 -126t119 -183.5t41 -222.5q0 -98 -41.5 -195t-112.5 -174t-176.5 -125.5t-224.5 -48.5q-150 0 -150 50q0 26 15 61q8 23 63 152q3 6 -0.5 9t-9.5 -3q-112 -108 -233 -188.5t-183 -80.5 q-38 0 -59 29t-21 70q0 44 40 140.5t124 199.5q90 112 207.5 193t222.5 81q34 0 76 -33q6 -6 12 5l41 75q9 17 21 17q48 0 71 -13q5 -3 7.5 -12t-0.5 -18q-46 -104 -137.5 -319t-114.5 -277q-15 -37 -4 -60t55 -22q83 3 160 39t136 97t94.5 150t35.5 191q0 245 -152 388.5 t-399 143.5q-136 0 -252.5 -43t-200.5 -118.5t-144 -176.5t-89 -218.5t-29 -243.5q0 -89 22 -177t71 -172t119.5 -147.5t176 -102t232.5 -38.5q229 0 383 102q39 27 42 13l1 -7q0 -10 -11 -26.5t-22 -26.5q-83 -66 -203 -96.5t-233 -30.5q-107 0 -207.5 27.5t-189.5 85.5 t-155 140.5t-104.5 201t-38.5 258.5zM596 158q0 -41 29 -41q9 0 29 8t63 37.5t90 73.5q63 56 133.5 154t108.5 171q14 25 8 49q-9 25 -34 43.5t-54 18.5q-34 0 -63.5 -14.5t-71.5 -53.5q-92 -86 -165 -223t-73 -223z" />
<glyph unicode="A" horiz-adv-x="1327" d="M10 8q0 19 41 27q64 12 96 49t64 113q137 341 364 1015q15 30 15 60v24q0 9 9 20t15 13q12 3 48 4h17q23 0 32 -2q5 -2 11.5 -10t6.5 -14q3 -21 35 -123q172 -501 366 -985q20 -48 38.5 -77t43.5 -45t42.5 -21.5t56.5 -14.5q39 -11 39 -29q0 -22 -52 -22q-6 0 -89 5 t-136 5q-50 0 -121.5 -2t-89.5 -2q-45 0 -45 22q0 15 43 27q42 12 63 30.5t22 38t-1 42.5q-9 46 -49 164t-61 174q-13 26 -48 26q-339 0 -362 -2q-7 0 -15.5 -9.5t-13.5 -21.5q-18 -43 -59 -182t-41 -174q0 -43 22.5 -62.5t90.5 -31.5q20 -3 30.5 -11.5t10.5 -17.5 q0 -18 -52 -18q-26 0 -69.5 5t-94.5 5q-32 0 -85.5 -5t-79.5 -5q-58 0 -58 18zM440 629q-1 -1 -1 -3q1 -3 3 -7q4 -6 11 -7q20 -2 114 -2h52q141 0 157 4q11 6 11 16q0 2 -1 5q-67 203 -168 473q-2 7 -8 10q-2 1 -4 1q-4 0 -6 -5q-10 -23 -78.5 -231.5t-81.5 -253.5z" />
<glyph unicode="B" horiz-adv-x="1146" d="M33 1294q0 23 49 23l125 2q12 0 128.5 6t190.5 6q183 0 293 -61q77 -45 110.5 -113t33.5 -135q0 -181 -177 -264q-5 -3 -1.5 -8t6.5 -5q130 -40 206 -133t76 -217q0 -81 -27.5 -145.5t-77.5 -108.5t-109 -73t-132 -48q-73 -22 -176 -22q-16 0 -97 1t-135 1q-65 0 -131 -3 t-84 -3q-45 0 -45 22q0 15 52 27q59 14 80.5 45t25.5 123q6 94 6 494v109v91.5v70t-0.5 60t-1 44.5t-1.5 40.5t-3 32.5q-6 68 -33.5 91t-97.5 28q-53 4 -53 22zM387 659q-1 -88 -1 -169q0 -162 5 -295q4 -61 35 -80q101 -68 172 -68q126 0 210.5 93t84.5 231 q0 150 -115 237.5t-289 87.5q-71 0 -90 -8q-12 -3 -12 -29zM387 893v-35q0 -50 2 -84q0 -4 1.5 -9.5t12.5 -12.5t29 -7q117 0 189 27q172 66 172 252q0 91 -45 153t-112 88.5t-149 26.5q-37 0 -69 -14q-4 -2 -8.5 -7t-10.5 -18.5t-6 -31.5q0 -23 -2.5 -138.5t-3.5 -189.5z " />
<glyph unicode="C" horiz-adv-x="1425" d="M94 651q0 168 71 312t220 247q211 146 489 146q39 0 76.5 -3t72.5 -8.5t56.5 -9.5t53.5 -11.5t38 -8.5q56 -17 93 -17q7 0 14.5 -12t5.5 -18q-2 -22 -1 -60t2.5 -60t4 -52t2.5 -37q3 -49 -18 -49q-14 0 -27 43q-22 65 -49.5 101t-75.5 69q-46 36 -124 61t-171 25 q-249 0 -389.5 -160.5t-140.5 -417.5q0 -200 70 -350q59 -123 153 -209t187.5 -122t183.5 -36q140 0 231 47q92 50 142 150q20 42 28 53.5t19 11.5q7 0 11 -13q2 -8 2 -16q0 -4 -1 -9l-10 -140q-1 -13 -17.5 -30.5t-35.5 -26.5q-171 -82 -410 -82q-169 0 -329 61t-267 185 q-79 90 -119.5 208.5t-40.5 237.5z" />
<glyph unicode="D" horiz-adv-x="1523" d="M33 18q0 16 47 25q85 16 112.5 40.5t28.5 102.5q2 131 2 480q0 355 -10 493q-3 53 -24 76t-76 35q-50 10 -50 24q0 23 50 23h139q48 0 182.5 9t220.5 9q147 0 272.5 -28t235.5 -103q120 -80 194.5 -219t74.5 -299q0 -123 -39.5 -233.5t-108 -193.5t-156.5 -144t-190 -95 q-129 -43 -313 -43q-63 0 -192 11.5t-187 11.5q-38 0 -92.5 -2t-69.5 -2q-51 0 -51 22zM391 606q0 -304 23 -430q9 -41 20 -62.5t39 -37.5q113 -58 205 -58q57 0 125.5 16t120.5 42q151 69 229 220.5t78 362.5q0 83 -41.5 211t-122.5 220q-91 102 -197 152t-247 50 q-54 0 -100.5 -6.5t-67.5 -13t-27 -10.5q-9 -6 -13 -10.5t-10 -23.5t-8 -50q-6 -153 -6 -312v-260z" />
<glyph unicode="E" horiz-adv-x="1146" d="M0 4q0 17 51 27q90 18 125.5 51t46.5 125q10 84 10 493q0 363 -4 435q-1 20 -4 36t-6 28t-11 22.5t-12 17t-17 13t-17.5 9.5t-22 7.5t-23 5.5t-26.5 6q-45 10 -45 27q0 16 57 16q15 0 97.5 -3t126.5 -3h245q86 0 154.5 3t94 5.5t70 9t46.5 6.5q6 0 15.5 -11.5t9.5 -18.5 q0 -2 10 -89t10 -118q0 -12 -9 -23.5t-16 -11.5q-15 0 -36 74q-15 54 -48.5 78t-99.5 30q-71 6 -338 6q-17 0 -24 -38q-9 -47 -9 -461q0 -14 5.5 -24.5t11.5 -10.5h112q102 0 149.5 9t71 33.5t37.5 78.5q3 16 11.5 29.5t15.5 13.5q24 0 21 -49q-5 -113 -5 -152q0 -79 9 -176 q0 -20 -6 -30.5t-13 -10.5q-20 0 -33 51q-12 57 -35 86t-77 35q-113 10 -240 10q-19 0 -27 -10t-8 -20v-381q0 -56 5.5 -80.5t19.5 -38.5q25 -24 31 -29t30 -14t53.5 -9.5t94.5 -0.5q70 0 105 0.5t77 1.5t61 5t41 9.5t34 15.5t23.5 21.5t24.5 30.5q38 48 60 94q23 47 39 47 q8 0 12 -14t4 -25q0 -13 -26.5 -106.5t-34.5 -118.5q-13 -41 -45 -41h-4q-160 12 -721 12q-57 0 -138.5 -8t-103.5 -8q-43 0 -43 20z" />
<glyph unicode="F" horiz-adv-x="1019" d="M41 12q0 6 4.5 10.5t11.5 7l21 7.5q80 17 102 40.5t31 92.5q12 94 12 592q0 226 -6 364q-3 88 -24.5 116.5t-102.5 37.5q-41 5 -41 23q0 20 57 20q27 0 96.5 -3t106.5 -3h465q37 0 90.5 6t55.5 6q4 0 12 -8.5t8 -17.5q0 -28 2 -94.5t2 -96.5q0 -17 -7 -29t-13 -12 q-13 0 -23 43q-18 83 -54 107t-130 32q-33 3 -83 3q-16 0 -35 1q-38 0 -85 -1q-71 -1 -92 -1q-22 0 -27 -36q-6 -152 -6 -490q0 -5 5.5 -11.5t17.5 -6.5q14 0 96 2t143 2q74 1 103 22t47 82q11 43 30 43t19 -43q0 -9 -4 -59q-4 -41 -4 -67v-11q1 -28 4.5 -72t3.5 -69 q0 -54 -23 -54q-16 0 -28 41q-9 35 -15 52t-22.5 31.5t-42.5 17.5q-79 10 -311 10q-19 0 -19 -31q0 -367 4 -430q6 -80 25 -101t102 -34q47 -7 47 -27q0 -9 -14.5 -15.5t-30.5 -6.5q-14 0 -88.5 3t-122.5 3q-46 0 -131 -3t-96 -3q-43 0 -43 18z" />
<glyph unicode="G" horiz-adv-x="1495" d="M94 664q0 162 85 310t212 236q202 146 506 146q101 0 242 -29q41 -9 78 -9t71 9q5 2 12.5 -5.5t6.5 -14.5q-4 -59 -4 -86q0 -3 1 -6q0 -26 5 -90.5t6 -90.5q3 -51 -19 -51q-18 0 -30 59q-10 43 -40 95.5t-81 89.5q-45 34 -133 57q-84 23 -173 23h-8q-171 -2 -292.5 -82.5 t-179.5 -213t-58 -302.5q0 -141 41 -266.5t117 -221.5t192.5 -152.5t257.5 -56.5q164 0 205 54q43 49 43 190q0 99 -8 156q-8 44 -43.5 65t-126.5 33q-26 5 -36.5 11t-10.5 18q0 8 16 13.5t37 4.5q22 -1 92.5 -4.5t116.5 -3.5q36 0 103 4t79 4q14 0 22 -2t11 -6.5t3.5 -6.5 t0.5 -7q0 -15 -35 -27q-27 -7 -35.5 -18.5t-11.5 -36.5q-4 -23 -6 -50.5t-2.5 -43.5t0 -50t0.5 -45q0 -93 7 -130.5t34 -51.5q20 -12 20 -23q0 -13 -28 -22q-38 -6 -111.5 -23.5t-75.5 -17.5q-167 -37 -274 -37q-194 0 -349 60.5t-261 162.5q-191 191 -191 482z" />
<glyph unicode="H" horiz-adv-x="1611" d="M63 10q0 7 12 15.5t27 11.5q57 11 82 31t31 63q8 70 8 473q0 397 -12 537q-3 30 -5.5 45.5t-9 34t-17 28t-28.5 17.5t-45 12q-19 3 -29.5 11t-10.5 14q0 18 47 18q30 0 93 -2t83 -2q15 0 90.5 2t112.5 2q47 0 47 -21q0 -18 -43 -24q-49 -8 -73 -29.5t-28 -70.5 q-5 -66 -5 -274q0 -69 1 -154q0 -14 6 -26.5t13 -12.5h784q9 0 17 6t8 18q0 281 -2 383q-3 85 -27.5 116t-97.5 46q-45 9 -45 22q0 21 51 21q30 0 95 -2t93 -2q32 0 106 2t105 2q37 0 37 -21q0 -15 -53 -26q-49 -10 -69 -33t-23 -84q-5 -66 -5 -571q0 -152 4 -247t6.5 -116 t10.5 -71q9 -55 33 -79t78 -36q36 -11 36 -23q0 -24 -47 -24q-22 0 -94 5t-111 5q-42 0 -108 -2t-92 -2q-49 0 -49 20t55 31q59 13 81.5 37.5t26.5 99.5q5 114 5 402q-1 11 -4.5 19t-6.5 10.5t-6 2.5h-792q-6 0 -12.5 -9.5t-6.5 -18.5q-1 -52 -1 -99q0 -164 11 -268 q9 -106 28 -134t103 -48q37 -7 37 -29q0 -18 -43 -18q-6 0 -90 3t-131 3q-29 0 -100.5 -6t-91.5 -6q-50 0 -50 22z" />
<glyph unicode="I" horiz-adv-x="602" d="M51 12q0 13 13.5 21t44.5 16q59 14 79.5 35.5t24.5 77.5q10 127 10 524q0 311 -2 385q-5 110 -13 137q-14 41 -62 56q-16 6 -40 10q-45 7 -45 24q0 21 60 21q27 0 85.5 -1t82.5 -1q38 0 109 1t114 1q41 0 41 -16q0 -17 -41 -25q-67 -14 -86 -33.5t-25 -87.5 q-16 -147 -16 -461q0 -275 16 -526q4 -58 27 -78.5t90 -42.5q8 -3 12 -4q25 -8 32 -15.5t7 -17.5q0 -18 -43 -18q-12 0 -92 3t-141 3q-31 0 -101 -3t-98 -3q-43 0 -43 18z" />
<glyph unicode="J" horiz-adv-x="581" d="M-205 -387q0 6 7 21t12 20l8 8q62 61 80 62q19 0 49 -17q88 -43 123 -43q24 0 48.5 14.5t41.5 40.5q26 46 37.5 91.5t17.5 162.5t6 353q0 474 -8 731q-2 89 -14 131.5t-37.5 61t-83.5 30.5q-47 8 -47 27q0 18 49 18q25 0 102.5 -4t118.5 -4q42 0 106.5 3t84.5 3 q45 0 45 -18q0 -17 -43 -27q-68 -17 -83.5 -51t-17.5 -152q-1 -90 -2 -366t-2 -375q-2 -326 -71 -475q-62 -143 -177.5 -231.5t-222.5 -88.5q-50 0 -88.5 23.5t-38.5 50.5z" />
<glyph unicode="K" horiz-adv-x="1378" d="M49 8q0 21 49 33q72 18 93 45t26 88q6 94 6 514q0 312 -10 453q-4 68 -23 93.5t-69 37.5q-60 12 -60 31q0 18 43 18q27 0 104.5 -2t102.5 -2q24 0 91.5 3t105.5 3q41 0 41 -18q0 -8 -14 -16.5t-35 -12.5q-57 -10 -78.5 -27.5t-24.5 -54.5q-12 -210 -12 -455q0 -26 12 -26 q9 0 54 37q152 123 452 393q43 41 49.5 64.5t-15.5 36t-81 24.5q-51 8 -51 26q0 23 57 23q197 0 330 10q86 6 115 6q15 0 29 -5t14 -13q0 -20 -56 -29q-89 -16 -158 -53t-171 -115q-123 -99 -392 -344q-4 -4 -5 -9.5t1 -6.5q452 -512 561 -608q104 -90 263 -123 q41 -5 41 -29q0 -18 -52 -18t-181.5 10t-170.5 10q-46 0 -88 -3t-45 -3q-49 0 -49 22q0 8 13 16t34 11q35 5 46 15t5.5 21t-24.5 30q-46 52 -130 148t-127.5 145t-105.5 117t-115 122q-8 9 -23 18t-24 9q-12 0 -12 -25q0 -350 8 -440q5 -82 25.5 -114.5t89.5 -43.5 q51 -9 51 -31q0 -20 -49 -20q-24 1 -94.5 3.5t-108.5 2.5q-48 0 -113 -5t-88 -5q-57 0 -57 18z" />
<glyph unicode="L" horiz-adv-x="1097" d="M18 16q0 19 43 27q88 18 119 43t35 94q8 136 8 498q0 383 -2 459q-2 62 -28 94t-103 43q-49 8 -49 31q0 16 41 16q17 0 82.5 -2t111.5 -2q47 0 127.5 2t110.5 2q16 0 26.5 -4t13.5 -7.5t3 -6.5q0 -19 -43 -27q-62 -14 -85.5 -33t-29.5 -65q-10 -153 -10 -621 q0 -193 10 -350q5 -70 26 -94.5t87 -30.5q131 -9 222 -9q81 0 132 7t90 45t76 113q25 57 41 57q14 0 14 -41q0 -13 -14 -63t-31 -106.5t-20 -70.5q-10 -20 -72 -20q-122 0 -362.5 3t-288.5 3q-45 0 -127.5 -3t-105.5 -3q-48 0 -48 22z" />
<glyph unicode="M" horiz-adv-x="1767" d="M29 10q0 5 2 9t4 6.5t8 5t10 4t13 5t14 5.5q72 25 96 59t37 138q20 159 40.5 446.5t20.5 437.5q0 24 -18.5 64t-40.5 51q-22 13 -106 37q-33 11 -33 29q0 14 45 14q7 0 110.5 -2t167.5 -2q7 0 14 -9t7 -16q7 -47 123 -301q7 -14 147.5 -315t192.5 -397q1 -3 5 -2.5 t8.5 3.5t6.5 7q44 80 199 407t201 414q14 27 37.5 94t33.5 90q2 7 9 16t14 9q109 2 272 2q41 0 41 -14q0 -19 -43 -29q-48 -8 -77.5 -19t-43.5 -25.5t-18 -28.5t-4 -36q-2 -105 -2 -201q0 -84 2 -161q4 -166 11 -309.5t7 -159.5q2 -66 4 -106t9.5 -73.5t15.5 -50t26.5 -30.5 t37 -19.5t53.5 -13.5q47 -11 47 -33q0 -11 -12.5 -15.5t-49.5 -4.5q-25 0 -114.5 5t-133.5 5q-34 0 -86.5 -3t-72.5 -3q-29 0 -38 5t-9 17q0 19 43 29q50 10 75.5 40t28.5 93q7 176 7 276q-1 8 -1 14q0 100 -4 298.5t-4 308.5q0 8 -8 9l-2 -1q-45 -86 -132 -270.5t-171 -366 t-97 -208.5q-50 -110 -88 -213q-18 -54 -37 -54q-9 0 -21 21t-20 47q-4 12 -15 37t-33.5 79t-47.5 115q-40 90 -153 350.5t-179 407.5q-17 33 -26 -12q-1 -7 -2 -15q-9 -88 -20 -374.5t-11 -401.5q0 -23 1.5 -41.5t5.5 -33.5t7.5 -25.5t12.5 -19.5l14 -14t18.5 -11.5 t20 -9.5t24.5 -9.5t27 -9.5q49 -18 49 -35q0 -22 -53 -22q-3 0 -67 3t-119 3q-53 0 -105 -5t-55 -5q-53 0 -53 20z" />
<glyph unicode="N" horiz-adv-x="1488" d="M20 1303q0 20 48 20q14 0 113 -3t141 -3q18 0 51 -33q11 -11 47.5 -58.5t71.5 -88.5q684 -808 688 -813q4 -4 10 1.5t6 10.5q4 82 4 316q0 33 1 64q0 184 -3 271q-1 31 -1.5 72t-1.5 54t-4.5 35t-10.5 48q-8 29 -40 48t-102 34q-43 10 -43 27q0 16 41 16q4 0 77.5 -2 t113.5 -2t97 2t71 2q49 0 49 -14q0 -19 -43 -29q-65 -16 -88.5 -52.5t-28.5 -109.5q-14 -185 -14 -674q0 -70 2 -216t2 -224q0 -16 -4 -26t-8 -12.5t-7 -2.5q-22 0 -45 23q-7 7 -32 40.5t-73 96t-99 125.5q-103 126 -329.5 399t-350.5 426q-6 6 -9 8.5t-6 3.5t-4 -1.5 t-2 -8.5q-8 -49 -8 -282q0 -402 10 -572q6 -81 32 -112t110 -56q57 -17 57 -33q0 -24 -49 -24q-18 0 -89.5 3t-109.5 3q-42 0 -91.5 -3t-74.5 -3q-55 0 -55 20q0 21 51 33q66 17 89 47t30 109q7 81 14.5 370t7.5 502q0 65 -9 92.5t-38 59.5q-35 37 -121 53q-41 7 -41 23z " />
<glyph unicode="O" horiz-adv-x="1587" d="M94 672q0 105 28 199.5t73.5 164t91 117.5t94.5 82q179 119 399 119q142 0 272 -50.5t227.5 -138.5t155.5 -217.5t58 -277.5q0 -109 -24.5 -202t-69.5 -163t-93.5 -120t-111.5 -95q-84 -63 -190 -97t-181 -34q-198 0 -364.5 91t-265.5 255.5t-99 366.5zM285 725 q0 -148 54 -292.5t150 -246.5q152 -172 353 -172q82 0 159.5 38.5t137.5 99.5q80 77 120.5 208.5t40.5 266.5q0 95 -24 190.5t-73 183.5t-116.5 155.5t-162.5 108t-203 40.5q-83 0 -159.5 -38t-129.5 -93q-25 -26 -47 -60t-46.5 -87.5t-39 -132t-14.5 -169.5z" />
<glyph unicode="P" horiz-adv-x="1062" d="M45 1298q0 19 53 19h181q12 0 86.5 3t130.5 3q233 0 348 -96q70 -57 103.5 -132t33.5 -151q0 -210 -145 -315q-39 -28 -96 -46t-113 -18q-58 0 -92 21q-23 12 -23 28q0 6 7.5 8.5t12.5 0.5q35 -5 52 -5q94 0 158.5 86.5t64.5 223.5q0 157 -92.5 250.5t-243.5 93.5 q-44 0 -63 -19q-15 -15 -15 -82q-2 -88 -2 -544q0 -267 6 -414q2 -52 7.5 -80.5t21.5 -47.5t37.5 -28t64.5 -18q47 -10 47 -31q0 -18 -47 -18q-19 0 -95 5t-124 5q-27 0 -97 -2t-110 -2q-43 0 -43 20q0 2 0.5 4t2.5 4l3.5 3.5t5 3t5.5 2.5t6 2t6.5 2t7 2t6.5 2 q69 23 93.5 47t25.5 84q0 81 1 259t1 271q0 231 -2 424q-3 71 -31 105t-98 41q-47 6 -47 26z" />
<glyph unicode="Q" horiz-adv-x="1585" d="M94 657q0 205 90.5 363t261.5 250q156 86 345 86q142 0 271 -52t224 -142.5t151 -219t56 -274.5q0 -281 -182 -475q-69 -71 -127 -107.5t-156 -79.5q-17 -7 0 -24q64 -59 185.5 -137.5t238.5 -131.5q250 -110 391 -110q111 0 191 26q6 1 13 -2t7 -8q0 -8 -11.5 -20 t-23.5 -19q-117 -69 -288 -69q-167 0 -361 79q-162 68 -502 283q-151 93 -247 117q-227 61 -377 246.5t-150 420.5zM285 713q0 -121 40 -243.5t110 -224t178 -165.5t233 -64q44 0 111.5 18t111.5 46q63 43 110 110t71.5 141.5t36 144.5t11.5 138q0 95 -20.5 189t-66 185 t-111 160.5t-164.5 112t-217 42.5q-149 0 -275 -121q-85 -81 -122 -195t-37 -274z" />
<glyph unicode="R" horiz-adv-x="1226" d="M49 14q0 20 47 29q67 12 90.5 31.5t26.5 62.5q10 142 10 500q0 509 -2 530q-3 44 -27 67.5t-92 37.5q-29 6 -39 11.5t-10 16.5q0 17 49 17h127q15 0 130.5 4t168.5 4q112 0 187.5 -13.5t134.5 -51.5q75 -48 112 -125.5t37 -149.5q0 -121 -68 -197.5t-173 -115.5 q-1 0 -2.5 -2.5t-1.5 -9t4 -13.5q188 -335 327 -487q39 -45 61.5 -67.5t60.5 -43t85 -26.5q31 -3 31 -19q0 -12 -23 -18q-36 -9 -75 -9q-93 0 -168 29.5t-150 116.5q-121 144 -268 395q-39 66 -77.5 88.5t-119.5 22.5q-25 0 -43 -6q-4 -1 -9 -12t-5 -17q0 -336 6 -422 q6 -60 29 -86t90 -43q43 -10 43 -31q0 -6 -14 -12t-35 -6q-20 0 -94.5 3t-110.5 3q-44 0 -118 -3t-81 -3q-51 0 -51 20zM385 711q0 -9 10.5 -20.5t22.5 -14.5q18 -4 117 -4q75 0 135 26q153 66 153 273q0 75 -26 134.5t-69.5 96t-96.5 55.5t-111 19q-52 0 -86 -10 q-11 -3 -20 -16.5t-11 -24.5q-18 -117 -18 -514z" />
<glyph unicode="S" horiz-adv-x="970" d="M80 246q0 37 20 37q5 0 9.5 -2.5t9.5 -8.5t8.5 -12t9.5 -17.5t10 -20.5t12 -26t13 -28q37 -75 113 -113.5t168 -38.5q45 0 86 18.5t71 47.5t52.5 64t33.5 69.5t11 63.5q0 44 -13.5 83t-31.5 66t-56 60t-65.5 52t-81.5 54q-59 38 -95.5 64t-82 67t-70.5 79.5t-43 92 t-18 113.5q0 65 25 124.5t67 102.5q122 119 325 119q42 0 195 -13q15 -1 27 -10.5t14 -17.5q24 -123 24 -172t-18 -49q-15 0 -31 39q-34 90 -90.5 132t-161.5 42t-165 -69.5t-60 -174.5q0 -37 7.5 -68.5t27 -60.5t37.5 -50t56 -49.5t64 -45.5t78 -50q64 -40 114 -79.5 t96.5 -90t72 -109.5t25.5 -122q0 -94 -42 -170t-110 -125q-53 -41 -129 -62.5t-152 -21.5q-154 0 -311 53q-13 4 -24 37q-3 23 -11 68.5t-14 81t-6 47.5z" />
<glyph unicode="T" horiz-adv-x="1398" d="M39 1106q0 5 9.5 51t18.5 104t11 99q0 4 6.5 9t9.5 5q11 0 35 -24q20 -26 82 -29q140 -4 225 -3h529q208 0 275.5 6t84.5 28q16 16 25 16q5 0 10 -10q3 -6 3 -13q0 -4 -1 -8q-23 -97 -33 -241q-2 -41 -18 -41t-31 59q-7 29 -11 43t-13.5 32.5t-24 27.5t-35.5 12 q-100 14 -399 14q-6 0 -14.5 -8t-8.5 -14q-4 -104 -4 -369v-573q1 -54 2 -80t6.5 -55.5t14 -41t28 -25.5t43 -20.5t64.5 -15.5q41 -8 41 -29q0 -18 -51 -18q-26 0 -136.5 3t-152.5 3q-53 0 -120 -4t-85 -4q-51 0 -51 20q0 23 47 29q52 8 84.5 23.5t48.5 42t21 51.5t8 69 q24 365 24 719v271q0 26 -10 26q-12 0 -81 0.5t-113.5 0.5t-97.5 -2t-73 -5q-61 -10 -85.5 -35t-51.5 -86q-24 -47 -39 -47q-16 0 -16 37z" />
<glyph unicode="U" horiz-adv-x="1478" d="M31 1307q0 18 49 18q28 0 101.5 -4t111.5 -4q63 0 127 2t78 2q41 0 41 -14q0 -18 -37 -27q-78 -17 -99.5 -46.5t-27.5 -123.5q-4 -52 -4 -178t4 -326q3 -174 33.5 -266.5t105.5 -167.5q54 -52 137 -77t148 -25q82 0 142 15t111 53t84 106.5t50 171.5q24 139 24 532 q0 155 -12 213q-18 92 -141 115q-15 3 -21 4.5t-15 4.5t-12 6.5t-3 8.5q0 21 57 21q40 0 100.5 -2t81.5 -2q38 0 78.5 2t83.5 2q51 0 51 -16q0 -10 -8.5 -15t-32.5 -10q-63 -11 -87 -40t-30 -105q-5 -68 -10 -168.5t-9 -206t-5 -123.5q-4 -78 -10 -133t-17 -116.5 t-28 -107.5t-43 -91.5t-64 -84t-88 -71.5q-50 -32 -127.5 -51t-150.5 -19q-84 0 -187.5 25t-169.5 78q-96 77 -138.5 189.5t-43.5 338.5q-3 291 -14 553q-2 56 -27.5 88t-89.5 45q-47 9 -47 27z" />
<glyph unicode="V" horiz-adv-x="1310" d="M-10 1305q0 20 49 20q44 0 108 -4t103 -4q44 0 119.5 1t91.5 1q43 0 43 -21q0 -18 -43 -24q-28 -4 -41.5 -7.5t-29.5 -11.5t-20.5 -20t-3.5 -32.5t11 -49.5q72 -214 328 -842q2 -5 9.5 -6.5t12.5 6.5q85 178 285 736q34 91 34 142q0 49 -28 66q-19 13 -78 25 q-37 8 -37 23q0 20 37 20q40 0 99.5 -3t82.5 -3q40 0 103.5 2t74.5 2q19 0 30 -6.5t11 -14.5q0 -14 -41 -22q-67 -9 -103.5 -49t-82.5 -148q-190 -461 -276 -682q-83 -209 -133 -366q-22 -76 -52 -76q-8 0 -17 14t-15 39q-27 106 -78 232q-4 12 -46 122.5t-52 136.5 t-46 119.5t-54 138t-48.5 119.5t-57 135t-53.5 120q-36 82 -63 106.5t-88 38.5q-2 1 -6 1q-35 9 -38 20z" />
<glyph unicode="W" horiz-adv-x="1937" d="M-20 1307q0 16 53 16q2 0 32 -1.5t75 -3t83 -1.5q55 0 119.5 2t67.5 2q47 0 47 -16q0 -11 -10 -17.5t-44 -15.5q-50 -13 -62.5 -35.5t3.5 -52.5q37 -91 213.5 -484t196.5 -421q7 -8 11.5 -7.5t6.5 4.5l160 347q1 0 2 5t1 11.5t-1 11.5q-4 19 -95.5 217.5t-113.5 239.5 q-43 92 -78 125t-98 47q-15 3 -26 10.5t-11 16.5q0 14 39 14q9 0 84 -2t113 -2q46 0 92.5 1t75 2t30.5 1q35 0 35 -18q0 -10 -8.5 -14.5t-38.5 -12.5q-59 -17 -68 -37q-2 -5 -2 -13q0 -21 17 -59q8 -19 27 -63.5t54 -124t66 -150.5q2 -4 6.5 -2t7.5 7q34 43 132 284 q17 45 21 73t-8 46t-30.5 26.5t-54.5 18.5q-35 7 -35 23t43 16q13 0 65.5 -2t90.5 -2q33 0 90.5 2t70.5 2q35 0 35 -12q0 -17 -43 -31q-60 -18 -91 -46t-73 -106q-18 -33 -94 -188t-84 -178q-3 -17 2 -33q28 -75 103 -238.5t110 -222.5q10 -15 17 0q250 553 354 844 q19 50 19 83q0 17 -6 31q-16 38 -87 56q-43 7 -43 23q0 18 43 18q23 0 82 -2t76 -2q31 0 93 2t91 2q41 0 41 -14q0 -11 -7 -16.5t-34 -12.5q-65 -17 -98.5 -47.5t-77.5 -112.5q-71 -125 -266 -600q-174 -410 -215 -514q-10 -23 -19.5 -32t-21.5 -9q-18 0 -29 35 q-26 83 -60.5 170.5t-90.5 215t-72 165.5q-7 13 -8 14q-2 0 -5 -8q-1 -1 -1 -2q-14 -34 -108 -235t-130 -312q-3 -14 -14.5 -28.5t-22.5 -14.5q-2 0 -4 0.5t-3.5 2l-3 3t-3.5 4t-3 4.5t-3 5t-3 5t-2.5 5.5t-2.5 5.5q-2 6 -18 49t-44.5 115.5t-64.5 156.5q-53 130 -164 380.5 t-183 404.5q-46 95 -80 127.5t-96 46.5q-12 3 -23 12t-11 17z" />
<glyph unicode="X" horiz-adv-x="1417" d="M4 12q0 19 51 31q78 19 115 45.5t115 118.5q69 78 167.5 206.5t159.5 215.5q9 19 2 28q-203 286 -360 484q-62 78 -93 100t-102 37q-49 9 -49 31q0 7 14 11q11 4 28 3h7q6 0 76 -3t123 -3q24 -1 113 1q53 1 94 1h49q37 0 37 -16q-4 -20 -39 -27q-83 -16 -83 -62 q0 -24 22 -55q30 -46 63 -94t57.5 -81t71.5 -97t80 -109q8 -10 20 2q134 157 248 320q45 61 49.5 94.5t-12.5 45.5t-72 32q-6 3 -10 4q-41 14 -41 29q0 16 49 16q39 0 84.5 -2t89.5 -2q46 0 113 2t94 2q51 0 51 -16q-3 -22 -55 -31q-63 -11 -113 -46.5t-122 -121.5 q-201 -235 -308 -369q-5 -5 -7.5 -14.5t-0.5 -11.5q29 -45 145 -203.5t187 -249.5q52 -67 76.5 -96t57 -57.5t60.5 -40t72 -21.5q27 -6 36 -12t9 -17q0 -8 -12 -14t-33 -6q-8 0 -100.5 3t-157.5 3q-44 0 -124.5 -4t-86.5 -4q-55 0 -55 20t45 29q77 21 89 49q3 7 4 15 q0 25 -27 61q-41 67 -137.5 202t-149.5 201q-5 5 -13.5 4t-13.5 -6q-47 -55 -93 -118t-71 -101t-73 -112q-22 -36 -34.5 -59t-16.5 -42.5t-1.5 -30.5t17.5 -22t32 -17.5t50 -17.5q41 -13 41 -33q0 -9 -13 -14.5t-32 -5.5q-2 0 -70 3t-131 3q-38 0 -106.5 -3t-98.5 -3 q-47 0 -47 18z" />
<glyph unicode="Y" horiz-adv-x="1206" d="M-25 1311q0 16 48 16q21 0 101.5 -5t133.5 -5q50 0 99.5 2t70.5 2q49 0 49 -16q0 -18 -53 -33q-49 -14 -58.5 -34t7.5 -48q7 -14 62 -127.5t108 -218t92 -174.5q2 -4 8.5 -2.5t9.5 6.5q16 23 110 191.5t142 256.5q30 59 30 88q0 8 -2 13q-9 28 -81 51q-47 15 -47 31 t39 16q31 0 97.5 -2t94.5 -2q44 0 104 2t72 2q39 0 39 -18q0 -10 -10 -17t-43 -14q-38 -7 -67 -20t-53.5 -35.5t-39.5 -41.5t-41 -55q-38 -48 -147.5 -238.5t-165.5 -277.5q-8 -12 -13 -42t-5 -44q0 -235 12 -340q8 -72 29 -91.5t93 -36.5q15 -3 23 -5q49 -12 49 -31 q0 -9 -15.5 -15.5t-33.5 -6.5q-39 0 -110 4t-109 4q-47 0 -130 -4t-105 -4q-52 0 -52 24q0 16 45 27q89 22 110.5 52.5t21.5 117.5q0 287 -2 324q-2 49 -48 143q-49 101 -111 216t-95 181q-52 100 -97.5 144.5t-120.5 62.5q-45 11 -45 27z" />
<glyph unicode="Z" horiz-adv-x="1239" d="M66 23q0 2 0.5 4t2.5 5.5l4 7t6 9.5t7.5 11.5t10 14t12 16.5t14 20.5t16.5 23.5q142 199 393.5 592.5t321.5 499.5q3 3 1.5 11t-9.5 9q-54 8 -250 8q-166 0 -268 -12q-49 -6 -80.5 -40t-69.5 -107q-20 -40 -26 -45q-4 -2 -9 -2q-6 0 -9.5 2t-4.5 8t-1.5 12t-0.5 19 q0 14 5 50.5t14 90t12 76.5q7 45 30 45q6 0 9.5 -1t11.5 -6t14 -8q42 -20 103 -20h727q21 0 34 -5.5t13 -13.5q0 -13 -37 -65q-87 -118 -235.5 -347.5t-298.5 -468.5t-187 -296q-5 -6 -4.5 -15t6.5 -10q73 -18 352 -18q194 0 250 10q62 9 94.5 41t89.5 131q21 43 41 43 q15 0 15 -37q0 -23 -11.5 -66t-28.5 -93t-20 -60q-8 -31 -44 -43q-33 -11 -120 -10h-16q-285 4 -616 4q-52 0 -126.5 -1t-86.5 -1q-22 0 -36.5 7.5t-14.5 19.5z" />
<glyph unicode="[" horiz-adv-x="684" d="M221 1444q0 8 4.5 20t10.5 15q6 6 55 6q68 0 150.5 1t86.5 1q56 0 56 -23q0 -18 -58 -28q-21 -3 -95.5 -8.5t-86.5 -6.5q-19 -2 -25 -51q-10 -185 -10 -770q0 -98 2.5 -221t6.5 -301t6 -285q3 -99 45 -104q54 -11 190 -17q11 0 26 -8t15 -18q0 -25 -51 -25h-176 q-34 0 -79.5 -1t-47.5 -1q-8 0 -14.5 15t-6.5 30l2 1186q0 140 -1.5 281.5t-3 226t-1.5 86.5z" />
<glyph unicode="\" horiz-adv-x="811" d="M84 1356q0 15 16 24q22 13 33 13q5 0 12 -9.5t9 -15.5q36 -98 166.5 -454.5t217 -589.5t171.5 -453q2 -7 -1 -17.5t-10 -11.5q-16 -12 -28 -12q-4 0 -12.5 6.5t-10.5 9.5q-106 274 -563 1510z" />
<glyph unicode="]" horiz-adv-x="684" d="M84 1458q0 25 51 25h174q34 0 79.5 1t47.5 1q8 0 14.5 -14t6.5 -29v-1186q0 -140 1 -281.5t2 -226t1 -86.5q0 -28 -12 -37q-8 -6 -58 -6q-67 0 -150 -1t-87 -1q-54 0 -54 23q0 18 56 28q21 3 97 9.5t87 7.5q16 2 22 51q11 204 11 770q0 98 -2.5 221t-6.5 300t-6 286 q-3 96 -43 104q-56 10 -190 15q-11 0 -26 8t-15 18z" />
<glyph unicode="^" horiz-adv-x="1064" d="M209.5 683q1.5 12 5.5 19l258 525q34 69 55 69q24 0 58 -65l262 -516q13 -24 4 -33q-28 -28 -49 -33q-5 -2 -15.5 0t-11.5 6l-239 475q-1 3 -8 0t-9 -6l-233 -471q-2 -5 -10.5 -9t-12.5 -3q-30 4 -53 27q-3 3 -1.5 15z" />
<glyph unicode="_" horiz-adv-x="1013" d="M0 -254h1014v-100h-1014v100z" />
<glyph unicode="`" horiz-adv-x="819" d="M258 1229q1 14 27.5 39.5t36.5 25.5q22 0 49 -82q45 -128 90 -274q12 -43 -2 -43q-15 0 -31 25q-89 138 -152 260q-18 35 -18 49z" />
<glyph unicode="a" horiz-adv-x="782" d="M70 154q0 21 4 38.5t12.5 30.5t16.5 23t20.5 18t19.5 12.5t19 10t14 6.5q5 2 41 13.5t100 33t138 47.5q30 11 32 41q5 57 5 172q0 15 -8.5 37t-25.5 46t-48 41t-70 17q-19 0 -30.5 -1t-28.5 -7.5t-27 -18.5t-17.5 -36.5t-7.5 -59.5q0 -2 -7.5 -9.5t-12.5 -10.5 q-7 -5 -58.5 -31t-56.5 -26q-8 0 -14 6.5t-6 11.5q0 32 21.5 66t56 63.5t66 51t63.5 38.5q83 49 137 49q43 0 86 -20t74 -57q24 -27 36 -66.5t13.5 -65.5t1.5 -73v-13v-26q1 -18 -3 -120q-3 -80 -3 -144v-35q0 -70 23.5 -99.5t58.5 -29.5q37 0 77 24q4 2 10.5 -2t6.5 -12 q0 -12 -8 -25q-54 -92 -170 -92q-99 0 -134 103q-1 3 -8 4.5t-8 -0.5q-146 -107 -240 -107q-65 0 -113 47.5t-48 135.5zM221 188q0 -53 32 -86.5t87 -33.5q77 0 115 41q28 28 28 227q0 6 -3.5 10t-6.5 4q-122 -29 -187 -66.5t-65 -95.5z" />
<glyph unicode="b" horiz-adv-x="997" d="M66 1370q0 17 47 31q86 17 145 41q27 10 33 10q12 0 12 -49q0 -3 -2 -105t-4 -257.5t-2 -286.5q0 -3 4.5 -8.5t7.5 -4.5q42 29 111.5 54.5t132.5 25.5q59 0 126 -22t111 -60q68 -56 107 -136.5t39 -174.5q0 -121 -55.5 -219.5t-161.5 -159.5q-118 -69 -271 -69 q-127 0 -215 45q-24 12 -32 -2q-14 -25 -33 -25q-16 0 -16 53q0 100 2 356t2 394q0 239 -11 475q0 18 -9.5 30.5t-43.5 39.5q-24 18 -24 24zM294 551q0 -24 0.5 -64t0.5 -53q0 -156 22 -246q20 -68 78.5 -111.5t122.5 -43.5q30 0 68 13t63 34q50 42 84.5 123t34.5 174 q0 74 -19 138t-56.5 115t-99.5 80t-142 29q-84 0 -123 -26q-15 -11 -19.5 -18.5t-7.5 -30.5t-5 -56t-2 -57z" />
<glyph unicode="c" horiz-adv-x="819" d="M72 371q0 243 184 366q49 35 125 62.5t149 27.5q68 0 127 -14.5t84 -34.5q21 -21 21 -47q0 -20 -14.5 -52t-28.5 -32q-12 0 -55 37q-50 45 -96.5 69.5t-108.5 24.5q-49 0 -99.5 -34.5t-83.5 -77.5q-55 -73 -55 -220q0 -56 20.5 -117.5t59 -117.5t104 -92.5t146.5 -36.5 q48 0 86 9t65.5 26.5t41.5 30t32 32.5q6 5 11.5 1t5.5 -9q0 -35 -35 -70q-53 -61 -133 -96t-172 -35q-161 0 -273 117q-55 56 -81.5 133t-26.5 150z" />
<glyph unicode="d" horiz-adv-x="999" d="M72 367q0 268 241 393q115 59 250 59q79 0 123 -16q4 -1 8 2t4 8q0 210 -6 420q-1 23 -1.5 31.5t-4 23.5t-11 24.5t-20.5 23.5t-34 30q-13 13 -13 20q0 15 29 23q58 12 156 43q22 10 43 10q12 0 12 -45q-8 -276 -8 -799q0 -203 2 -475q0 -52 8.5 -68t26.5 -16 q53 0 114 19q5 0 10 -4.5t5 -10.5q0 -9 -6.5 -26.5t-14.5 -18.5q-165 -30 -201 -38q-10 -2 -28.5 -6.5t-30.5 -7.5t-16 -3q-8 0 -14.5 9t-6.5 14q2 16 2 80q0 7 -5 12.5t-9 1.5q-59 -49 -127.5 -74.5t-126.5 -25.5q-106 0 -187 55.5t-122 142.5t-41 189zM229 436 q0 -148 83 -257t218 -109q72 0 129 39q9 7 19.5 26t11.5 39q4 98 4 190q0 115 -6 220q0 9 -8.5 37.5t-17.5 40.5q-84 100 -197 100q-55 0 -109 -33q-58 -38 -92.5 -117.5t-34.5 -175.5z" />
<glyph unicode="e" horiz-adv-x="772" d="M72 375q0 76 17.5 145t67 140.5t128.5 117.5q68 45 180 45t182 -67t70 -170q0 -17 -18 -28t-44 -9q-156 6 -260.5 6.5t-158.5 -6.5q-16 -3 -25 -29q-6 -12 -6 -84q0 -79 38.5 -158t112 -134.5t160.5 -55.5q79 0 122 27t81 80q9 12 17.5 10t8.5 -21q0 -24 -28 -57 q-58 -74 -138 -115t-157 -41q-108 0 -189.5 57.5t-121 148t-39.5 198.5zM223 602q0 -4 3 -9t7 -5q49 0 148 2t119 2q40 5 56 18q15 12 15 43q1 55 -45 95q-44 40 -86 40q-66 0 -127 -51t-90 -135z" />
<glyph unicode="f" horiz-adv-x="544" d="M43 8q0 17 35 23q62 14 75.5 40.5t16.5 121.5q6 212 6 477q0 24 -12 24l-80 -2q-3 0 -9.5 6.5t-6.5 10.5q0 14 24 26q6 6 32.5 23t35.5 24q16 11 16 33q0 84 13.5 177.5t37.5 150.5q41 111 99 174.5t135 103.5q70 41 162 41q34 0 75 -13t68 -34q43 -34 43 -78 q0 -25 -26 -53.5t-56 -28.5q-22 0 -59 37q-73 80 -160 80q-63 0 -104 -41.5t-66 -150.5q-24 -109 -24 -288q0 -37 1 -77q2 -10 7.5 -18.5t11.5 -8.5l231 -2q5 0 10 -8t5 -22q0 -16 -12 -38t-17 -22q-15 0 -109.5 2t-107.5 2q-7 0 -12 -8t-5 -18q0 -370 5 -514q1 -28 2 -40.5 t6 -28.5t12 -21.5t23 -13.5t36.5 -11.5t53.5 -7.5q14 -2 25.5 -8.5t11.5 -14.5q0 -20 -41 -20q-29 0 -102 3t-113 3q-25 0 -76 -5t-78 -5q-39 0 -39 18z" />
<glyph unicode="g" horiz-adv-x="864" d="M37 -297q0 45 55 100q11 14 72.5 63.5t73.5 61.5q2 3 3 7t0.5 7t-1.5 3q-31 13 -63.5 34.5t-63.5 64t-31 89.5q0 7 2.5 17t5.5 16t4 6q100 49 148 94q4 5 3.5 11t-3.5 8q-70 38 -116 101t-46 146q0 87 47 158t111 107q74 45 182 45q47 0 86.5 -9t62 -19.5t50.5 -25.5 q7 -4 10 -6q20 -10 41 -10q88 0 223 -6q4 -1 9 -14.5t5 -20.5q0 -24 -8.5 -40.5t-15.5 -16.5q-13 0 -75 4t-79 4q-6 0 -6 -12q4 -32 4 -86q0 -68 -29.5 -138t-87.5 -120q-104 -80 -209 -80q-61 3 -100 12q-17 0 -25 -8q-32 -21 -46.5 -40t-14.5 -44q0 -45 50.5 -69.5 t86.5 -24.5q28 0 140.5 2t130.5 2q55 0 100 -25q133 -71 133 -205q0 -100 -72.5 -203t-173.5 -155q-119 -61 -248 -61q-151 0 -243 77q-82 75 -82 199zM166 -250q0 -93 90 -168q92 -76 203 -76q142 0 217.5 73t77.5 185q0 71 -35.5 113t-93.5 45q-43 2 -308 2q-39 0 -77 -33 q-74 -66 -74 -141zM231 559q0 -57 19 -118t64.5 -109.5t107.5 -48.5q42 0 67.5 17t53.5 52q39 51 39 176q0 133 -48 208t-145 75q-41 0 -86 -45q-29 -27 -50.5 -82t-21.5 -125z" />
<glyph unicode="h" horiz-adv-x="1009" d="M33 12q0 14 53 25q36 9 48.5 37t15.5 98q12 252 12 434q0 696 -2 717q0 14 -10.5 26.5t-45.5 34.5q-24 15 -24 29q0 11 31 21q23 5 135 22q37 6 53 6q12 0 12 -55q-8 -453 -8 -707q0 -2 1.5 -3.5t3.5 -2t3 1.5q152 131 281 131q42 0 86 -13.5t63 -31.5q91 -69 101 -215 q10 -113 10 -385q0 -87 11.5 -110.5t70.5 -36.5q26 -6 34.5 -11.5t8.5 -15.5q0 -16 -49 -16q-22 0 -76 4t-82 4q-37 0 -79.5 -3t-57.5 -3q-45 0 -45 18q0 13 35 21q45 13 60 34t15 89v338q0 43 -9 88.5t-19 64.5q-40 85 -162 88h-5q-62 0 -110 -24q-50 -25 -76 -62 q-10 -20 -10 -51q-5 -160 -5 -282q0 -95 3 -166q3 -65 15.5 -84t64.5 -31q41 -9 41 -21q0 -22 -49 -22q-26 0 -77 4t-81 4q-32 0 -83.5 -4t-69.5 -4q-33 0 -33 20z" />
<glyph unicode="i" horiz-adv-x="475" d="M41 8q0 16 41 25q43 10 64 28t24 54q6 43 6 323q0 78 -8 178q-1 20 -9.5 35t-17.5 23t-37 31q-2 1 -7 4t-6 5t-1 7q0 7 10.5 15.5t24.5 13.5q29 12 74 32.5t74.5 33.5t35.5 13t10.5 -8t4.5 -16q-7 -82 -7 -369q0 -255 5 -321q3 -36 21 -50t71 -26q41 -8 41 -23 q0 -22 -47 -22q-29 0 -81.5 3t-86.5 3q-42 0 -88.5 -5t-69.5 -5q-41 0 -41 18zM176 1098q0 34 27.5 63t56.5 29q35 0 59.5 -24.5t24.5 -61.5q0 -40 -24.5 -64t-59.5 -24q-36 0 -60 25t-24 57z" />
<glyph unicode="j" horiz-adv-x="464" d="M-47 -547q0 8 14 19q91 39 135 125q30 56 46 146.5t18 151t2 162.5q0 372 -8 539q-1 16 -2.5 27.5t-2 20t-5 16t-6 11.5t-10 11t-11.5 9l-16.5 11t-18.5 13q-16 16 -16 24q0 11 43 25q79 26 164 61q21 9 28 9q1 0 3.5 -4t4.5 -11.5t2 -13.5q-3 -101 -4 -223t-1 -280 t-1 -243q0 -249 -63 -383q-61 -128 -211 -221q-38 -22 -49 -22q-7 0 -21 7t-14 13zM150 1100q0 37 30.5 64.5t57.5 27.5q37 0 60.5 -23.5t23.5 -62.5t-26 -67.5t-58 -28.5q-37 0 -62.5 27.5t-25.5 62.5z" />
<glyph unicode="k" horiz-adv-x="931" d="M16 2q0 14 45 27q48 15 64 37t20 84q15 161 15 536q0 339 -8 551q0 40 -11.5 59.5t-52.5 53.5q-14 14 -14 22q0 16 37 27q41 11 155 53q23 10 33 10t10 -41q0 -20 -4.5 -278t-5.5 -492v-192q0 -4 3 -10.5t7 -6.5q35 0 76 35q44 37 104.5 99.5t81.5 89.5q29 37 29 55 q0 4 -1 7q-7 18 -67 30q-32 7 -32 22q0 19 37 19h135q21 0 202 16q44 0 44 -18q0 -8 -14 -17t-32 -12q-75 -14 -123 -39t-128 -94q-129 -117 -152 -141q-9 -10 -2 -17q147 -201 274 -317q79 -70 118.5 -91.5t94.5 -31.5q37 -7 37 -25t-49 -18q-29 0 -135.5 3t-169.5 3 l-59 -2q-37 0 -37 14q0 10 8.5 15.5t32.5 11.5q38 10 38 28q0 11 -14 25q-24 29 -61.5 72.5t-67 76t-72 79.5t-55.5 61q-31 31 -41 31t-10 -17q0 -153 6 -258q2 -35 21.5 -62.5t60.5 -35.5q41 -10 41 -27q0 -18 -51 -18q-29 0 -65 3t-54 3q-15 0 -199 -16h-6q-15 0 -25 4 q-12 5 -12 14z" />
<glyph unicode="l" horiz-adv-x="464" d="M8 16q0 14 29 21q68 15 87.5 36t25.5 81q10 103 10 608q0 401 -10 495q-2 33 -13.5 49.5t-54.5 43.5q-21 18 -21 22t7 11t14 10q31 19 113 44t102 25q3 0 7.5 -9.5t4.5 -20.5q-8 -454 -8 -658q0 -395 8 -600q3 -84 15 -103t73 -36q35 -11 35 -27t-43 -16q-16 0 -79 4 t-105 4q-36 0 -88.5 -3t-69.5 -3q-13 0 -26 6.5t-13 15.5z" />
<glyph unicode="m" horiz-adv-x="1540" d="M47 12q0 6 7.5 13t19.5 10q52 11 70 25.5t22 50.5q10 205 10 518q0 23 -2.5 34t-15 25.5t-41.5 32.5q-21 13 -21 22q0 16 25 27q1 0 21 6t39.5 12t46.5 16.5t46 20.5q28 17 29 17q5 0 10.5 -6.5t5.5 -12.5q0 -8 -1 -56.5t-1 -57.5q0 -6 4.5 -10t8.5 -1q69 55 145.5 90 t140.5 35q77 0 133 -34t82 -89q0 -1 2.5 -2.5t6 -1.5t6.5 2q34 27 115 76q90 49 153 49q259 0 262 -313q4 -262 4 -375q0 -47 17.5 -68t70.5 -30q19 -3 30 -11t11 -14q0 -22 -30 -22q-14 0 -93 5t-102 5q-21 0 -64.5 -3t-62.5 -3q-49 0 -49 20q0 18 39 27q47 10 59.5 28.5 t20.5 80.5q4 40 7 157q2 70 2 123q0 35 -1 62q0 125 -55 184q-53 57 -131 57q-51 0 -89 -11.5t-51.5 -22t-31.5 -28.5l-5 -5q-7 -8 -12.5 -30.5t-5.5 -29.5q0 -393 2 -450q3 -62 16 -83t66 -32q41 -7 41 -29q0 -18 -47 -18q-11 0 -56.5 3t-82.5 3q-31 0 -85 -3t-75 -3 q-45 0 -45 20q0 17 35 25q50 10 64.5 31.5t14.5 76.5l5 367q0 70 -14 113.5t-58 74.5q-46 31 -98 31q-45 0 -79.5 -7t-58 -21.5t-34.5 -23.5t-27 -26q-6 -7 -14.5 -35t-8.5 -36q-1 -45 -1 -104q0 -139 5 -357q3 -38 21.5 -57t58.5 -25q50 -9 50 -27q0 -9 -12.5 -14.5 t-26.5 -5.5q-30 0 -91 3t-90 3q-31 0 -77.5 -3t-55.5 -3q-49 0 -49 18z" />
<glyph unicode="n" horiz-adv-x="1007" d="M51 14q0 19 37 27q41 9 56.5 28t17.5 54q14 259 14 446q0 76 -10 104.5t-53 53.5q-17 10 -17 21q0 14 34 22q2 1 3.5 1.5t3.5 0.5q15 3 34.5 11t33.5 14.5t36 17t31 14.5q19 11 31 11q10 0 10 -29q0 -21 -1 -60t-1 -40v-3.5t1 -5t2.5 -3.5t4.5 1q60 48 137 85.5t150 37.5 q59 0 106.5 -22t71.5 -53q38 -46 50.5 -102t15.5 -183l6 -318q2 -52 17 -74t59 -32q37 -12 37 -29q0 -18 -54 -18q-10 0 -65.5 4t-85.5 4q-24 0 -68.5 -3t-64.5 -3q-45 0 -45 22q0 17 55 31q28 7 39.5 21t16 45.5t5.5 107.5l5 185v24q0 104 -8 152q-9 54 -33 88 q-24 30 -65.5 49.5t-86.5 19.5q-113 0 -186 -77q-5 -5 -9 -26.5t-4 -27.5q0 -346 2 -409q2 -88 16 -118t68 -42q39 -8 39 -25q0 -20 -47 -20q-32 0 -83.5 3t-73.5 3q-26 0 -69.5 -3t-66.5 -3q-49 0 -49 20z" />
<glyph unicode="o" horiz-adv-x="976" d="M72 391q0 183 121 307q60 60 138 94.5t152 34.5q174 0 299 -117t125 -296q0 -232 -190 -367q-50 -36 -108 -56t-105 -20q-182 0 -307 120.5t-125 299.5zM238 414q0 -100 30 -188.5t93.5 -148t148.5 -59.5q26 0 67.5 19.5t73.5 62.5q86 115 86 295q0 61 -18.5 127.5 t-51.5 124.5t-85 95.5t-111 37.5q-45 0 -83.5 -20.5t-76.5 -77.5q-73 -99 -73 -268z" />
<glyph unicode="p" horiz-adv-x="978" d="M27 -516q0 15 43 24q47 9 65 32t21 77q6 135 6 500q0 290 -8 493q-1 20 -3 30t-13.5 28t-33.5 34q-26 15 -26 25q0 13 33 27q66 26 159 88q20 10 29 10q3 0 5.5 -6.5t2.5 -11.5q0 -8 -3 -55t-3 -54q0 -4 3.5 -7.5t8.5 -0.5q65 50 166 88q39 14 109 14q117 0 225 -108 q40 -42 68 -117.5t28 -136.5q0 -141 -75.5 -251t-196.5 -169q-46 -24 -116 -37.5t-105 -13.5q-57 0 -97 4q-16 0 -16 -21q-1 -73 -1 -133q0 -141 5 -211q5 -62 29.5 -89.5t95.5 -31.5q45 -3 45 -24q0 -19 -47 -19q-25 0 -99.5 4.5t-103.5 4.5t-85 -3.5t-72 -3.5 q-43 0 -43 21zM305 629q0 -390 12 -447q2 -12 11 -32.5t16 -26.5q81 -74 180 -74q32 0 92 29q50 23 92 125.5t42 191.5q0 162 -76 244q-81 90 -209 90q-84 0 -137 -41q-20 -16 -23 -59z" />
<glyph unicode="q" horiz-adv-x="991" d="M72 371q0 248 233 381q116 67 244 67q55 0 114 -14.5t99 -34.5q14 -5 22 6q28 41 47 41q15 0 15 -35q-10 -245 -10 -641q0 -326 2 -471q1 -88 19.5 -117t74.5 -38q49 -9 49 -23q0 -24 -53 -24q-29 0 -76 1t-74 1q-38 0 -110 -8.5t-97 -8.5q-45 0 -45 21q0 18 43 28 q71 15 94 38.5t27 92.5q8 117 8 408q0 3 -3.5 8t-6.5 4q-46 -29 -108 -51t-113 -22q-136 0 -238 75q-70 52 -113.5 135t-43.5 181zM236 449q0 -161 88 -269q52 -63 113.5 -92t119.5 -29q59 0 119 31q8 5 14 19.5t6 19.5q0 327 -14 446q-1 4 -5 19.5t-7.5 28t-7.5 16.5 q-90 121 -222 121q-61 0 -129 -68q-75 -94 -75 -243z" />
<glyph unicode="r" horiz-adv-x="653" d="M41 14q0 19 45 29q56 14 73 49t17 115q0 335 -6 403q0 4 -1 14.5t-1.5 14t-1.5 11.5t-3 11.5t-5.5 10t-8.5 10.5t-11.5 10t-16 11.5t-21.5 11.5q-16 8 -16 14q0 7 11 17t26 16q121 41 151 61q26 15 33 15q12 0 12 -25q0 -28 -2 -64.5t-3.5 -61.5t-0.5 -32q0 -2 2.5 -4 t5.5 0q33 37 52.5 57t56.5 52.5t72 48.5t69 16q37 0 62.5 -21.5t25.5 -45.5q0 -44 -30.5 -75.5t-51.5 -31.5q-11 0 -49 21q-37 24 -82 24q-23 0 -50.5 -19t-45.5 -46q-10 -14 -17.5 -32.5t-9.5 -29t-2 -14.5q-3 -39 -3 -106q0 -47 2 -109q4 -148 12 -209q6 -40 33 -61.5 t96 -34.5q45 -8 45 -29q0 -18 -51 -18q-36 0 -115 6t-115 6q-24 0 -75 -3t-66 -3q-19 0 -30 6t-11 14z" />
<glyph unicode="s" horiz-adv-x="645" d="M68 154q0 20 6.5 37.5t17.5 17.5q6 0 21 -31q26 -67 76.5 -116.5t111.5 -49.5q42 0 87.5 42.5t45.5 99.5q0 48 -17.5 77t-62.5 66q-9 6 -53.5 41t-69.5 53q-118 92 -118 211q0 56 25.5 101.5t60.5 68.5q77 55 200 55q30 0 99 -12l43 -8q7 -2 15 -13.5t11 -27.5 q6 -60 6 -96q0 -16 -6 -25.5t-12 -9.5q-12 0 -33 41q-30 56 -61 81t-82 25q-45 0 -89 -37t-44 -96q0 -49 26 -86t105 -94q101 -74 134 -109q71 -75 71 -167q0 -60 -35 -109.5t-90 -75.5q-75 -37 -162 -37q-93 0 -137 15q-42 14 -60 43q-30 46 -30 125z" />
<glyph unicode="t" horiz-adv-x="622" d="M76 725q0 18 45 45q71 47 147 123q20 20 33 20q10 0 10 -28q0 -11 -1 -44.5t-1 -37.5q0 -3 3 -9t7 -6l275 3q3 0 7 -12t6.5 -31t2.5 -37q0 -6 -8 -16.5t-16 -10.5q-9 0 -125 5t-146 5q-8 0 -8 -18l2 -404q0 -127 49 -170q17 -17 51.5 -26.5t57.5 -9.5q50 0 100 26 q20 12 23 12t6.5 -5t3.5 -7q0 -11 -5 -21.5t-17.5 -22.5t-16 -15t-18.5 -15q-28 -20 -75.5 -33.5t-90.5 -13.5q-52 0 -95.5 18t-66.5 42q-36 36 -47.5 84t-11.5 125q10 400 10 422q0 25 -12 28l-56 17q-6 1 -14 8t-8 10z" />
<glyph unicode="u" horiz-adv-x="970" d="M51 782q0 17 43 17q64 0 131 5t80 5q2 0 4.5 -4.5t4.5 -12t1 -14.5q-10 -225 -10 -493q0 -72 13.5 -114t46.5 -65q44 -28 115 -28h14q14 0 26.5 1.5t22 3t20 6t16.5 6.5t14.5 8t12 7.5t11.5 9t9 9t9 9.5l8 9q23 31 23 101q0 340 -2 424q0 59 -33 69q-16 7 -53 17 q-41 7 -41 28q0 13 36 13q143 0 183 6q24 4 47 4q14 0 14 -57q0 -24 -1.5 -84t-3 -184.5t-1.5 -305.5q0 -71 8.5 -94t34.5 -23q17 0 64.5 9.5t48.5 9.5q4 0 8 -5t4 -9q0 -36 -18 -39q-109 -15 -234 -54q-21 -8 -43 -8q-6 0 -12 12t-6 25q0 25 2 65t2 46q0 3 -5 4.5t-6 -0.5 q-105 -88 -155 -113q-65 -33 -135 -33q-47 0 -91.5 19t-72.5 51q-49 52 -49 160q0 48 1 173q1 83 1 142v54q0 70 -4 98q-1 7 -2 20t-1.5 16.5t-3 12t-6 11t-11 8t-17.5 9.5t-25 9q-37 14 -37 28z" />
<glyph unicode="v" horiz-adv-x="811" d="M-16 791q0 16 36 16q14 0 68.5 -4t97.5 -4q25 0 72.5 3t69.5 3q34 0 34 -19q0 -16 -55 -30q-38 -9 -38 -47q0 -16 7 -37q53 -154 179 -436q5 -9 16 2q10 18 83 195.5t97 240.5q13 37 3.5 56.5t-46.5 31.5q-35 11 -35 24q0 8 9 13.5t24 5.5q22 0 47 -3t39 -3q30 0 83.5 4 t62.5 4q32 0 32 -14q0 -16 -34 -27q-46 -16 -69 -38t-56 -87q-12 -23 -40 -85.5t-64.5 -145.5t-51.5 -117q-21 -47 -43 -100.5t-46.5 -117.5t-33.5 -85q-8 -23 -22 -23q-15 0 -29 47q-22 70 -55 150q-121 311 -215 514q-17 40 -36.5 57t-60.5 31q-30 10 -30 25z" />
<glyph unicode="w" horiz-adv-x="1275" d="M-18 793q0 16 32 16q15 0 71.5 -5t96.5 -5q33 0 82 2t60 2q18 0 28 -5t10 -12q0 -20 -40 -26q-16 -3 -26.5 -6t-18 -6t-10.5 -9.5t-4.5 -10.5t1 -14t4.5 -15.5t8 -20t9 -23.5q18 -51 48.5 -141.5t54.5 -158.5t46 -122q9 -23 19 -2q25 56 76 179t75 176q10 27 10 51 q0 5 -6.5 21.5t-9.5 27.5q-19 42 -38 57t-56 25q-29 9 -29 20q0 17 33 17q24 0 77 -3t79 -3q22 0 74.5 3t76.5 3q35 0 35 -14q0 -7 -9.5 -14.5t-23.5 -8.5q-45 -9 -61 -19.5t-15 -31.5q0 -17 15 -60q62 -186 164 -424q4 -7 6.5 -8.5t4.5 1.5t5 12q64 138 149 397 q13 40 13 67q0 21 -19.5 39t-50.5 27q-35 9 -35 23t33 14q32 0 74 -3t59 -3q20 0 62 4t59 4q37 0 37 -19q0 -8 -37 -20q-29 -12 -38.5 -16.5t-27.5 -19t-31 -38t-30 -63.5q-33 -77 -174 -441l-70 -186q-6 -14 -15 -23.5t-15 -9.5q-13 0 -25 33q-20 63 -51 135 q-23 57 -77.5 199.5t-76.5 193.5q0 1 -2 1t-4.5 -1t-3.5 -4q-151 -335 -209 -493q-26 -64 -45 -64q-13 0 -20 23q-3 12 -9 29.5t-18 50.5t-23 65q-17 56 -78 216.5t-100 250.5q-5 11 -14.5 35t-12.5 31t-10.5 23.5t-12 21.5t-13 15.5t-17 15t-20.5 11t-27 11.5q-28 8 -28 23 z" />
<glyph unicode="x" horiz-adv-x="841" d="M-12 788q3 17 41 17q25 0 84.5 -3t81.5 -3q19 0 74 3t89 3q18 0 24.5 -4t4.5 -13q0 -14 -45 -24q-45 -8 -45 -37q-2 -12 52.5 -98t86.5 -121q2 -3 7.5 -2.5t7.5 2.5l102 154q18 28 25 45t0.5 27.5t-17.5 15.5t-37 12q-30 10 -30 20q2 7 10.5 13t19.5 6q18 0 44.5 -1 t31.5 -1q24 0 97 6t87 6q35 0 35 -14q-3 -16 -33 -25q-38 -12 -68 -29t-41.5 -26.5t-39.5 -36.5q-23 -27 -79 -101.5t-81 -113.5q-2 -3 -2.5 -11.5t0.5 -11.5q39 -68 121 -183t117 -155q37 -51 116 -69q18 -4 27.5 -11.5t7.5 -13.5q0 -8 -13 -14t-30 -6q-49 0 -114 5t-80 5 q-40 0 -90 -3t-62 -3q-41 0 -41 18q2 14 45 25q55 12 55 45q0 17 -14 39q-61 105 -125 190q-3 7 -14 0q-147 -199 -150 -221q0 -19 13 -30t49 -23q12 -4 21 -10.5t8 -14.5q0 -18 -35 -18q-26 0 -64 2t-55 2q-32 0 -78.5 -5t-56.5 -5q-41 0 -41 14q0 16 39 29q31 8 54 20.5 t33 21t27 25.5q10 8 21 19.5t30.5 35t36 44.5t54 70t69.5 89q3 4 3.5 12t-1.5 9q-168 258 -229 325q-39 46 -104 62q-37 8 -37 24z" />
<glyph unicode="y" horiz-adv-x="796" d="M-29 791q0 14 43 14q19 0 76 -3t78 -3q29 0 88 3t72 3q37 0 37 -17q0 -12 -48 -24q-43 -11 -50 -36q-2 -6 -2 -14q0 -29 20 -89q1 -3 37.5 -104t72.5 -195.5t49 -118.5q2 -5 6 -6t7 6q90 196 188 452q7 20 7 36q0 51 -72 67q-41 9 -41 26t41 17q14 0 55 -3t59 -3 q14 0 61.5 3t63.5 3q35 0 35 -21q0 -2 -1 -4t-5 -4t-7 -3t-10.5 -4t-13.5 -5q-35 -13 -55.5 -32t-42.5 -58q-14 -27 -133.5 -297t-155.5 -336q-10 -18 -61 -139q-20 -42 -72 -168t-90 -207q-12 -29 -37 -42t-49 -13q-33 0 -60.5 22.5t-27.5 65.5q0 39 23 63.5t63 24.5 q4 0 24 -4t25 -4q12 0 51 61q20 33 64.5 137t60.5 154q8 24 2 49q-2 5 -9 24t-17 49t-21 64q-12 37 -39 105t-74.5 186t-62.5 156q-26 70 -48 100.5t-63 38.5q-41 9 -41 27z" />
<glyph unicode="z" horiz-adv-x="755" d="M55 629q0 3 1 12.5t2.5 22t2.5 20.5q9 88 9 121q0 22 12 22q13 0 24 -8q22 -15 89 -18q86 -4 211 -4q39 0 124 1l84 1q27 0 35 -8q6 -9 -12 -33q-24 -32 -74 -127q-11 -23 -129.5 -251t-146.5 -300q-8 -25 6 -27q65 -6 130 -6q52 0 105 4q51 3 79.5 24.5t68.5 92.5 q19 37 31 37q5 0 8.5 -9.5t3.5 -17.5q0 -54 -19 -170q-1 -11 -13 -18.5t-21 -7.5q-17 1 -114.5 5.5t-192.5 8.5t-132 4q-20 0 -71 -3t-58 -3t-12.5 8.5t-5.5 15.5q0 2 21 39.5t55.5 99t56.5 103.5q210 413 227 471q0 12 -10 12q-52 1 -94 1q-96 0 -133 -5q-37 -6 -60 -28.5 t-43 -73.5q-17 -39 -28 -39q-17 0 -17 31z" />
<glyph unicode="{" horiz-adv-x="694" d="M51 571q0 9 23 17q188 45 188 205q0 41 -24.5 187.5t-24.5 168.5q0 90 53 169.5t136 125t171 45.5q37 0 37 -12q0 -19 -49 -29q-99 -18 -166 -89t-67 -177q0 -53 24.5 -176.5t24.5 -176.5q0 -73 -58.5 -138t-164.5 -109q-12 -8 -2 -15q227 -119 227 -288q0 -70 -30 -201 t-30 -191q0 -94 67 -158t183 -98q8 0 15.5 -8.5t7.5 -13.5q0 -12 -45 -12q-153 0 -247.5 106t-94.5 248q0 18 22.5 156.5t22.5 187.5q0 102 -29 150.5t-110 74.5q-28 10 -44 25t-16 26z" />
<glyph unicode="|" horiz-adv-x="516" d="M203 -508v2030h108v-2030h-108z" />
<glyph unicode="}" horiz-adv-x="694" d="M88 -391q0 24 47 33q101 20 167.5 88.5t66.5 173.5q0 55 -25 195.5t-25 195.5q0 74 59 143t161 109q11 7 0 14q-112 62 -167 131t-55 156q0 60 30 176t30 176q0 181 -252 252q-9 3 -15 9.5t-6 11.5q0 7 15 11.5t28 4.5q103 0 184 -51.5t122 -131.5t41 -171 q0 -17 -24 -136.5t-24 -167.5q0 -103 29.5 -153.5t110.5 -79.5q25 -9 43 -23t18 -24q0 -5 -9 -13t-13 -8q-189 -41 -189 -200q0 -38 24.5 -205t24.5 -191q0 -135 -112.5 -236t-251.5 -101q-33 0 -33 12z" />
<glyph unicode="~" horiz-adv-x="1064" d="M97.5 338q-1.5 9 0.5 12q34 94 102 154.5t156 60.5q89 0 209 -84q102 -71 160 -71q50 0 89.5 30.5t78.5 110.5q0 2 7.5 9t12.5 7q31 0 48 -24q2 -2 4 -12t0 -15q-83 -207 -254 -207q-86 0 -217 92q-99 70 -152 70q-48 0 -87 -32.5t-81 -110.5q-12 -25 -24 -25 q-16 0 -48 23q-3 3 -4.5 12z" />
<glyph unicode="&#xa1;" horiz-adv-x="483" d="M125 719q0 47 30 79.5t74 32.5t75.5 -32t31.5 -78q0 -42 -31 -77.5t-76 -35.5t-74.5 31.5t-29.5 79.5zM137 -268q0 80 68 618q4 53 24 53t29 -51q6 -46 27.5 -200.5t33.5 -258.5t13 -155q0 -93 -30.5 -134.5t-68.5 -41.5q-49 0 -73.5 54t-22.5 116z" />
<glyph unicode="&#xa2;" d="M121 618q0 105 50 196t140 149q33 23 92.5 45.5t116.5 31.5q8 0 8 11l13 118q0 2 2.5 5.5t5.5 3.5q10 0 22.5 -3.5t12.5 -7.5l-11 -114q0 -11 11 -11q135 -3 184 -41q33 -20 33 -55q0 -18 -18 -39.5t-27 -21.5q-21 0 -72 45q-40 37 -106 57q-4 1 -8.5 -3t-4.5 -7 l-53 -608q0 -4 2.5 -9.5t5.5 -5.5q14 -2 41 -2q108 0 209 84q14 14 24 10q3 -2 3 -6q0 -24 -31 -59q-49 -61 -119.5 -94.5t-138.5 -38.5q-3 0 -5.5 -4.5t-2.5 -7.5l-13 -144q-3 -3 -16.5 -7.5t-19.5 -4.5q-11 0 -11 6l13 150q0 14 -9 14q-87 9 -155 49t-109 102 q-59 91 -59 217zM258 682q0 -223 195 -311q1 -1 4 0.5t5.5 4t2.5 5.5l57 606q0 10 -12 10q-66 -1 -125 -49.5t-93 -121t-34 -144.5z" />
<glyph unicode="&#xa3;" horiz-adv-x="993" d="M10 6q0 35 42.5 87.5t107.5 92.5q5 3 17.5 9.5t17.5 9.5q34 34 53.5 112t27.5 285q0 23 -12 23l-137 -7q-6 0 -14.5 4t-8.5 11q0 9 9.5 19t15.5 12l137 8q13 3 13 14q17 227 73 355.5t142 197.5q38 29 98 48.5t117 19.5q88 0 141 -44.5t53 -107.5q0 -85 -63 -108 q-5 -2 -13 1t-8 7v41q-2 70 -42.5 121t-100.5 51q-33 0 -65.5 -25.5t-66 -84.5t-58 -178t-31.5 -284q0 -10 7 -10h3l240 12q22 0 22 -18q0 -7 -16.5 -18t-22.5 -11l-227 -14q-12 0 -12 -12q-28 -261 -173 -400q-5 -5 -3 -10.5t8 -5.5q68 0 235 -92q152 -78 221 -78 q80 0 117 28t37 109q0 59 -21 117q-3 8 3 15t12 7q26 0 55 -25t29 -71q0 -66 -50.5 -135.5t-133 -116.5t-167.5 -47q-105 0 -258 129q-104 88 -147 88q-6 0 -20 -5.5t-19 -12.5q-11 -13 -37.5 -52.5t-49 -65.5t-38.5 -26q-18 0 -28.5 10.5t-10.5 20.5z" />
<glyph unicode="&#xa4;" d="M100 1018q18 27 33 33q19 10 25 4l96 -113q7 -4 16 0q87 68 187 68q98 0 188 -64q7 -7 21 2l88 88q17 17 28 11q23 -16 35 -41q4 -8 -6 -27l-86 -98q-3 -3 4 -17q70 -103 70 -215q0 -128 -68 -217q-8 -8 -4 -18l82 -103q11 -11 4 -24q-10 -23 -35 -37q-9 -5 -24 2l-92 94 q-5 3 -15 0q-90 -65 -190 -65q-102 0 -191 61q-7 7 -14 2l-92 -98q-3 -4 -13 -5.5t-16 1.5q-11 7 -29 39v18l86 107q4 4 -2 16q-71 89 -71 223q0 120 71 219q8 13 2 19l-77 100q-4 4 -9 17t-2 18zM203 645q0 -117 75.5 -194.5t178.5 -77.5q104 0 180 77.5t76 194.5 q0 116 -76 193t-180 77q-110 0 -182 -74t-72 -196z" />
<glyph unicode="&#xa5;" horiz-adv-x="993" d="M16 1266q0 18 41 18q13 0 68.5 -3t83.5 -3q32 0 93 3t77 3q33 0 33 -12q0 -21 -37 -33q-40 -13 -45 -31t16 -59q62 -130 199 -393q2 -4 7.5 -4.5t8.5 4.5q44 83 144 297q47 107 47 137q0 23 -15 34t-61 23q-7 2 -14 7t-10 9t-3 5q0 16 35 16q21 0 61.5 -3t59.5 -3 q26 -1 74 2.5t67 3.5q31 0 31 -14q0 -4 -11.5 -15t-19.5 -14q-59 -15 -85 -38t-64 -91q-87 -158 -213 -414q-3 -4 0.5 -9t7.5 -5h188q3 0 7 -4t4 -10q0 -7 -3 -19q-1 -4 -7.5 -8t-10.5 -4h-188q-5 0 -9 -8t-4 -15v-112q0 -5 3.5 -10t7.5 -5h198q1 0 3 -2t3.5 -5.5t1.5 -8.5 q0 -4 -4 -16q-1 -4 -8.5 -7.5t-9.5 -3.5l-182 -2q-13 0 -13 -28v-197q0 -44 0.5 -63.5t5 -42.5t10.5 -31t23 -19.5t35 -17t53 -14.5q16 -5 21 -10t4 -15q0 -4 -14 -8t-29 -4q-20 0 -78 3t-100 3q-28 0 -94 -3t-95 -3q-32 0 -32 14q0 22 36 29q61 13 77 38t20 117q1 7 2 39 q0 31 1 99t1 100q0 6 -3.5 10t-6.5 4l-195 2q-3 0 -6.5 4.5t-3.5 10.5q0 10 4 18q7 10 14 10h182q2 0 8.5 4.5t6.5 8.5v119q0 16 -10 16h-181q-8 0 -8 14q0 5 4 21q5 10 12 10l168 2q4 0 7 5.5t0 10.5q-33 83 -226 430q-30 54 -55.5 78t-73.5 37q-37 9 -37 21z" />
<glyph unicode="&#xa6;" horiz-adv-x="516" d="M205 -354v708h106v-708h-106zM205 659v709h106v-709h-106z" />
<glyph unicode="&#xa7;" horiz-adv-x="827" d="M98 682q0 62 22 124.5t45 99.5t62 89q5 36 29 84t59 84q104 99 209 99q47 0 78 -23q16 -13 16 -27q0 -9 -13 -30t-25 -33q-19 -16 -31 -10q-76 32 -123 32q-53 0 -86 -31.5t-33 -90.5q0 -25 14.5 -57t42 -68.5t49.5 -62.5t56.5 -63.5t42.5 -47.5q215 -226 215 -383 q0 -84 -25.5 -171.5t-45.5 -126t-52 -92.5q-72 -121 -194 -190q-69 -37 -127 -37q-47 2 -83 19.5t-36 42.5q0 24 80 84q15 7 43 -13q16 -14 43.5 -24.5t52.5 -10.5q62 -8 96.5 28t34.5 106q0 86 -197 288q-124 127 -171.5 218t-47.5 194zM174 768q0 -47 15 -94.5t32.5 -82 t54.5 -81.5t57.5 -70t65.5 -71q73 -73 130.5 -155t70.5 -142q2 -6 5.5 -7t6.5 5q15 33 27 83t12 83q0 55 -16.5 108.5t-52 108.5t-62 89.5t-74.5 90.5q-115 135 -157 192.5t-56 104.5q-1 4 -8 4q-19 -27 -35 -78.5t-16 -87.5z" />
<glyph unicode="&#xa8;" horiz-adv-x="819" d="M188 1098q0 31 25.5 57.5t52.5 26.5q34 0 57 -22t23 -56q0 -38 -23 -59t-57 -21t-56 22.5t-22 51.5zM477 1094q0 39 23.5 64.5t60.5 25.5q30 0 49 -23t19 -55q0 -31 -23 -55.5t-55 -24.5q-31 0 -52.5 21.5t-21.5 46.5z" />
<glyph unicode="&#xa9;" horiz-adv-x="1507" d="M92 643q0 183 88 337.5t240.5 244.5t333.5 90q144 0 268 -53t209.5 -143.5t134.5 -214t49 -261.5q0 -137 -50 -260t-137 -213.5t-210.5 -143.5t-263.5 -53q-192 0 -344.5 90.5t-235 243t-82.5 336.5zM162 645q0 -127 50 -243t132.5 -198t190.5 -130.5t221 -48.5 q164 0 299 82t211.5 224t76.5 314q0 171 -77 313t-212.5 224t-299.5 82q-159 0 -295 -82t-216.5 -224.5t-80.5 -312.5zM375 649q0 88 34.5 163t98.5 126q111 100 301 100q49 0 131 -14q1 0 35 -6t51 -6q13 0 16 -27q0 -9 4.5 -58.5t4.5 -74.5q0 -27 -11 -27t-20 21 q-39 86 -88 117q-59 36 -148 36q-86 0 -148 -47t-90 -117.5t-28 -152.5q0 -156 89.5 -261.5t211.5 -105.5q67 0 121 31t102 111q8 13 13.5 19t8.5 6.5t9 0.5t8 -7.5t0 -14.5q-3 -30 -15 -68t-24 -59q-11 -14 -55 -31q-124 -33 -188 -33q-164 0 -279 86q-69 54 -107 130 t-38 163z" />
<glyph unicode="&#xaa;" horiz-adv-x="505" d="M47 690q0 70 64 96q23 10 98 31t98 29q8 4 8 16q6 75 2 115q-3 40 -31 62t-67 22q-25 0 -37 -8q-26 -11 -30 -66v-4q-3 -8 -11 -12q-60 -30 -75 -35q-7 -3 -12 2t-5 14q0 32 68 88q34 26 78 49t75 23q69 0 103.5 -51.5t34.5 -116.5q0 -25 -2.5 -102t-2.5 -99 q0 -40 9.5 -64t38.5 -24q18 0 36 9q15 5 15 -5q0 -13 -6 -22q-13 -28 -40.5 -43.5t-56.5 -15.5q-60 0 -86 63q-1 4 -5.5 4t-6.5 -2q-3 -2 -14 -9t-15.5 -9.5t-14.5 -9t-15 -9l-15 -7.5t-16 -7t-15.5 -5.5t-17 -5t-16 -2.5t-17.5 -1q-34 0 -66 33.5t-32 78.5zM147 705 q0 -27 20 -44.5t46 -17.5q48 0 80 25q13 14 16 26q4 36 4 113q0 4 -2 7.5t-6 2.5q-57 -12 -117 -39q-24 -11 -32.5 -28t-8.5 -45z" />
<glyph unicode="&#xab;" horiz-adv-x="1171" d="M123 418q0 5 22 16q81 40 160 90.5t173 118.5t97 70q31 22 50 22q15 0 6 -15q-5 -8 -17 -20q-50 -56 -137.5 -138t-152.5 -136q-11 -9 -2 -18q178 -152 280 -281q9 -11 12.5 -21t1 -16t-9.5 -6q-15 0 -35 18q-257 198 -426 289q-22 11 -22 27zM535 418q0 5 22 16 q81 40 160 90.5t173 118.5t97 70q31 22 49 22q10 0 10 -8q-2 -11 -20 -29q-49 -55 -136 -135t-155 -137q-11 -9 -2 -18q181 -155 281 -281q9 -11 12.5 -21t1 -16t-9.5 -6q-15 0 -35 18q-257 198 -426 289q-22 11 -22 27z" />
<glyph unicode="&#xac;" horiz-adv-x="1064" d="M109 532q0 39 8 58q1 6 8 12t10 6h801q8 0 13 -14t5 -25v-473q0 -20 -16 -26q-26 -11 -61 -11q-9 0 -16 5t-7 10l-8 409q0 9 -6 19t-11 10l-692 2q-10 0 -19 6t-9 12z" />
<glyph unicode="&#xad;" horiz-adv-x="602" d="M82 375q0 33 12 57q3 4 11.5 10.5t11.5 6.5q27 5 186 24.5t199 22.5q8 0 13 -9t5 -16q0 -49 -8 -63q-3 -5 -13 -12t-14 -7q-34 -6 -194 -22.5t-187 -16.5q-9 0 -15.5 8t-6.5 17z" />
<glyph unicode="&#xae;" horiz-adv-x="407" d="M33 1151q0 70 49 121t123 51q76 0 125 -49t49 -123q0 -73 -50 -123.5t-126 -50.5q-69 0 -119.5 50t-50.5 124zM61 1151q0 -61 44 -105.5t100 -44.5q64 0 104.5 43.5t40.5 106.5q0 62 -45.5 105.5t-99.5 43.5q-59 0 -101.5 -42.5t-42.5 -106.5zM120 1078q2 3 9 5 q21 5 21 35v76q0 19 -3.5 24t-17.5 7q-5 0 -7 2.5t-0.5 5.5t7.5 4q66 4 76 4q67 0 67 -47q0 -24 -30 -35v-6q28 -62 53 -72q10 -3 10 -6q0 -8 -18 -8q-33 0 -51 23l-21 32q-15 27 -25 27q-6 0 -6 -4v-25q0 -18 4 -25t17 -10q6 -2 8.5 -5.5t0.5 -6t-9 -2.5t-17.5 1t-17.5 1 q-6 0 -19 -1t-22 -1q-6 0 -8.5 2t-0.5 5zM184 1169q0 -6 9 -6q24 0 32 4q11 5 11 27q0 14 -11 22.5t-24 8.5q-9 0 -13 -2t-4 -6v-48z" />
<glyph unicode="&#xaf;" horiz-adv-x="819" d="M209 1032q0 51 10 68q10 10 14 10l365 4q5 0 9.5 -7.5t4.5 -16.5q0 -20 -12 -56q-3 -12 -22 -12l-355 -8q-6 0 -10 6t-4 12z" />
<glyph unicode="&#xb0;" horiz-adv-x="491" d="M53 1108q0 80 59.5 135t139.5 55q74 0 129 -53.5t55 -136.5q0 -80 -58 -135t-134 -55q-79 0 -135 54t-56 136zM125 1108q0 -60 38.5 -96.5t84.5 -36.5q45 0 79.5 36t34.5 97q0 56 -37 93.5t-85 37.5t-81.5 -37t-33.5 -94z" />
<glyph unicode="&#xb1;" horiz-adv-x="1064" d="M94 -18q0 32 10 55q7 14 15 14l839 -2q5 0 9 -8.5t4 -13.5q0 -43 -8 -56q-6 -12 -21 -12l-819 -2q-29 0 -29 25zM94 547q0 32 10 55q7 14 15 14h350q6 0 10 6t4 9l-2 348q0 4 4 10.5t9 7.5q21 7 73 7q7 0 12 -12.5t5 -24.5v-336q0 -5 5 -10t7 -5l362 -2q5 0 9 -8.5 t4 -13.5q0 -42 -8 -55q-7 -13 -21 -13l-344 -4q-5 0 -9.5 -7t-4.5 -11v-346q0 -18 -17 -25q-24 -8 -63 -8q-8 0 -13.5 6.5t-5.5 15.5l-4 355q0 5 -2 9.5t-4.5 7.5t-3.5 3l-348 2q-29 0 -29 25z" />
<glyph unicode="&#xb2;" horiz-adv-x="610" d="M53 899q0 14 19 33q12 12 37 36t47 46t41 43q74 74 119.5 158t45.5 159q0 59 -36.5 92t-89.5 33q-81 0 -134 -67q-32 -26 -36 -7q0 11 24 48q36 53 89 85.5t114 32.5q79 0 131.5 -55t52.5 -141q0 -88 -94 -191l-193 -203q-3 -5 -0.5 -10.5t7.5 -5.5q38 0 144.5 -2 t107.5 -2q35 5 75 61q20 25 29 25q7 0 7.5 -13t-5.5 -28q-34 -67 -47 -131q-5 -12 -12 -12q-2 0 -123.5 2t-155.5 2h-125q-39 0 -39 12z" />
<glyph unicode="&#xb3;" horiz-adv-x="610" d="M74 891q0 10 13 26.5t26 24.5q12 8 24 -4q50 -45 125 -45q69 0 115.5 45t46.5 125q0 71 -43.5 112.5t-106.5 41.5q-18 0 -32.5 -2t-29.5 -6t-19 -5q-5 -2 -12 -0.5t-7 4.5q0 13 12 25q8 8 52 31q69 36 94.5 65.5t25.5 83.5q0 42 -30 72.5t-76 30.5q-63 0 -121 -54 q-14 -14 -25 -14q-4 0 -4 10t4 17q27 53 83 84.5t116 31.5q70 0 114 -45t44 -92q0 -84 -111 -147q-3 -2 -3.5 -7.5t3.5 -5.5q178 -26 178 -174q0 -75 -51 -139t-141 -109q-79 -43 -162 -43q-35 0 -68.5 19.5t-33.5 42.5z" />
<glyph unicode="&#xb4;" horiz-adv-x="819" d="M358 936q37 113 123 289q10 17 25 26q14 7 42 15t44 8q39 0 0 -64q-35 -59 -97 -148.5t-106 -146.5q-17 -20 -29 -20q-14 0 -2 41z" />
<glyph unicode="&#xb5;" horiz-adv-x="956" d="M143 799q0 21 21 30q18 9 39 9q39 0 90 -37q1 0 5.5 -9.5t8.5 -21t4 -16.5q4 -51 -26 -232q-22 -115 -43 -289q-5 -29 6 -59q14 -28 42.5 -42.5t55.5 -14.5q64 0 136.5 88.5t115.5 195.5q11 28 16 82q23 279 27 299q3 19 16.5 38.5t22.5 19.5q10 0 20.5 -2t18.5 -4.5 t17 -6.5t15 -7.5t13 -8.5t10 -8t8 -7t6 -5q12 -12 9 -72q-7 -66 -45 -196t-68 -199q-16 -27 -16 -62q0 -74 38 -105.5t85 -31.5q75 0 129 61q6 6 12 4t8 -10q2 -13 -6.5 -51t-18.5 -57q-50 -109 -145 -109q-55 0 -92 60t-37 178q0 8 -6 8t-8 -4q-139 -228 -246 -228 q-23 0 -45 14t-42.5 43t-30.5 46.5t-27 48.5q-6 9 -11.5 4.5t-7.5 -16.5q-5 -36 -12.5 -194.5t-1.5 -198.5q4 -27 12.5 -47.5t24.5 -36t28 -25t36.5 -25t37.5 -24.5q4 -2 4 -11.5t-4 -17.5q-2 -5 -7.5 -10t-13.5 -10.5t-14.5 -10t-16 -9.5t-11.5 -7q-31 -14 -56 -14 q-22 0 -41 32q-30 53 -30 191v473q2 33 -2 111q-7 140 -7 516z" />
<glyph unicode="&#xb6;" horiz-adv-x="1077" d="M106 754q0 109 34 184t100 139q140 137 342 152q158 14 311 14h76q25 0 38 -11.5t13 -21.5q0 -9 -7.5 -16.5t-17.5 -7.5h-207q-13 0 -20.5 -19.5t-7.5 -48.5q0 -246 1.5 -513.5t3 -438.5t1.5 -182q0 -52 -1.5 -92.5t-7.5 -91t-16 -88t-28.5 -75.5t-43.5 -62t-62.5 -39 t-84.5 -15q-71 0 -129.5 47t-58.5 135q0 83 45.5 133.5t105.5 50.5q40 0 68.5 -28.5t28.5 -63.5q0 -44 -30 -72t-56 -28q-29 0 -54 18q-20 13 -28 13t-14.5 -9.5t-6.5 -19.5q0 -60 42 -93.5t93 -33.5t87 29t54.5 82.5t26.5 113.5t9 137v314q0 9 -6 16.5t-13 7.5 q-86 0 -168 17.5t-157.5 56.5t-131.5 94.5t-89.5 136.5t-33.5 179z" />
<glyph unicode="&#xb7;" horiz-adv-x="385" d="M88 397q0 44 31.5 79.5t73.5 35.5q45 0 77.5 -33.5t32.5 -79.5t-32 -78t-78 -32q-42 0 -73.5 31.5t-31.5 76.5z" />
<glyph unicode="&#xb8;" horiz-adv-x="819" d="M258 -416q0 6 18 27q18 18 27 14q28 -8 55 -8q31 0 52.5 24t21.5 52q0 37 -30.5 63.5t-73.5 26.5h-27q-6 0 -12 5.5t-6 8.5q0 15 14 29q77 77 152 178h38q-18 -24 -45 -63t-30 -43q-3 -3 -2.5 -8t2.5 -7q104 -42 104 -123q0 -86 -98 -155q-68 -45 -117 -45q-43 0 -43 24z " />
<glyph unicode="&#xb9;" horiz-adv-x="610" d="M145 891q0 19 39 24q51 8 69 28.5t21 60.5q7 96 7 280q0 137 -2 164q-1 15 -6.5 25t-19.5 15.5t-21 7.5t-27 5q-35 8 -35 21q0 4 7 9.5t18 6.5q128 17 190 47q4 3 9 -0.5t5 -7.5l-2 -49q-2 -49 -4 -118.5t-2 -121.5q0 -203 2 -256q3 -65 15.5 -82.5t70.5 -36.5 q27 -9 27 -18q0 -6 -10 -10t-23 -4q-23 0 -66.5 3t-64.5 3q-26 0 -86.5 -4t-77.5 -4q-33 0 -33 12z" />
<glyph unicode="&#xba;" horiz-adv-x="628" d="M49 842q0 114 76.5 192t185.5 78q108 0 188.5 -73t80.5 -187q0 -120 -77.5 -197t-180.5 -77q-112 0 -192.5 75.5t-80.5 188.5zM164 848q0 -92 45 -164t115 -72q72 0 106.5 63.5t36.5 160.5q2 98 -45.5 171.5t-116.5 73.5q-70 0 -105.5 -65t-35.5 -168z" />
<glyph unicode="&#xbb;" horiz-adv-x="1171" d="M126 100q2 10 17 25q101 112 291 270q5 4 5.5 11t-1.5 8q-176 147 -280 278q-23 30 -12 41l8 2q14 0 32 -16q239 -188 428 -289q23 -14 23 -27q0 -5 -23 -16q-63 -31 -134.5 -75t-114.5 -73.5t-107 -76t-74 -53.5q-41 -25 -49 -25q-4 0 -7.5 3t-1.5 13zM538 100 q2 10 17 25q101 112 291 270q5 4 5.5 11t-1.5 8q-179 149 -281 278q-23 30 -12 41l8 2q15 0 33 -16q90 -71 212 -154.5t218 -134.5q21 -13 21 -27q0 -5 -21 -16q-63 -31 -135.5 -75.5t-113.5 -72.5t-109 -77t-74 -53q-41 -25 -49 -25q-4 0 -7.5 3t-1.5 13z" />
<glyph unicode="&#xbc;" horiz-adv-x="1288" d="M145 596q0 20 39 25q51 8 69 28t21 60q7 96 7 280q0 137 -2 164q-1 15 -6.5 25t-19.5 15.5t-21 7.5t-27 5q-35 8 -35 21q0 4 7 9.5t18 6.5q128 17 190 47q4 3 9 -0.5t5 -7.5l-2 -49q-2 -49 -4 -118.5t-2 -121.5q0 -203 2 -256q3 -65 15.5 -82.5t70.5 -36.5q27 -9 27 -18 q0 -6 -10 -10t-23 -4q-23 0 -66.5 3t-64.5 3q-26 0 -86.5 -4t-77.5 -4q-33 0 -33 12zM248 -30q2 7 3.5 11t4.5 9l4 6q121 189 404 633.5t430 673.5q17 24 28 24t29 -18q7 -7 0 -21q-64 -99 -269.5 -416t-336.5 -521.5t-254 -399.5q-8 -8 -15 -8q-12 0 -26 18q-4 2 -2 9z M711 225q0 4 3 8.5t10 12.5t9 10q10 12 147 181t154 188q64 80 84 80q15 0 15 -39q0 -3 0.5 -78.5t1 -164.5t0.5 -126q0 -14 12 -14q46 0 108 4q11 0 11 -13q-2 -7 -5.5 -25t-5.5 -26q-2 -12 -10 -12h-102q-1 0 -3.5 -5t-2.5 -7q0 -31 1 -104.5t1 -86.5q0 -27 -17 -33 q-8 -3 -41 -6.5t-43 -3.5q-14 0 -14 33q0 3 2 78.5t2 116.5q0 18 -8 18q-207 0 -293 -4q-6 0 -11 6.5t-5 11.5zM820.5 293q3.5 -4 8.5 -4q10 -2 189 -8q10 0 10 14q0 136 4 246q0 4 -5 5t-7 -1q-9 -11 -92.5 -110.5t-106.5 -131.5q-4 -6 -0.5 -10z" />
<glyph unicode="&#xbd;" horiz-adv-x="1359" d="M145 596q0 20 39 25q51 8 69 28t21 60q7 96 7 280q0 137 -2 164q-1 15 -6.5 25t-19.5 15.5t-21 7.5t-27 5q-35 8 -35 21q0 4 7 9.5t18 6.5q128 17 190 47q4 3 9 -0.5t5 -7.5l-2 -49q-2 -49 -4 -118.5t-2 -121.5q0 -203 2 -256q3 -65 15.5 -82.5t70.5 -36.5q27 -9 27 -18 q0 -6 -10 -10t-23 -4q-23 0 -66.5 3t-64.5 3q-26 0 -86.5 -4t-77.5 -4q-33 0 -33 12zM248 -30q2 7 3.5 11t4.5 9l4 6q121 189 404 633.5t430 673.5q17 24 28 24t29 -18q7 -7 0 -21q-64 -99 -269.5 -416t-336.5 -521.5t-254 -399.5q-8 -8 -15 -8q-12 0 -26 18q-4 2 -2 9z M801 12q0 15 18 33q12 12 37 36t47 46t41 43q74 74 120 158t46 159q0 59 -37 92t-90 33q-80 0 -133 -67q-29 -29 -36 -13l-1 7q0 8 25 47q36 53 88.5 86t113.5 33q79 0 132 -55.5t53 -141.5q0 -87 -95 -191l-192 -202q-3 -5 -1 -11t7 -6q38 0 144.5 -2t107.5 -2q35 5 76 62 q19 24 28 24q7 0 8 -13t-5 -28q-36 -71 -48 -131q-5 -12 -12 -12q-2 0 -123 2t-155 2h-125q-39 0 -39 12z" />
<glyph unicode="&#xbe;" horiz-adv-x="1226" d="M74 596q0 10 13 26.5t26 24.5q12 8 24 -4q50 -45 125 -45q69 0 115.5 45t46.5 125q0 71 -43.5 112.5t-106.5 41.5q-18 0 -32.5 -2t-29.5 -6t-19 -5q-5 -2 -12 -0.5t-7 4.5q0 13 12 25q8 8 52 31q69 36 94.5 65.5t25.5 83.5q0 42 -30 72.5t-76 30.5q-63 0 -121 -54 q-14 -14 -25 -14q-4 0 -4 9.5t4 17.5q27 53 83 84.5t116 31.5q70 0 114 -45t44 -92q0 -84 -111 -147q-3 -2 -3.5 -7.5t3.5 -5.5q178 -26 178 -174q0 -75 -51 -138t-141 -109q-79 -43 -162 -43q-35 0 -68.5 19t-33.5 42zM223 -29.5q2 6.5 4 10.5t5 9l4 6q126 197 407 639 t426 668q17 24 29 24q10 0 28 -18q7 -7 0 -21q-64 -99 -269.5 -416t-336.5 -521.5t-254 -399.5q-8 -8 -14 -8q-4 0 -13 5.5t-14 12.5q-4 3 -2 9.5zM649 225q0 4 3.5 9t10.5 12t9 10q10 12 147 181t154 188q64 80 84 80q14 0 14 -39q0 -3 0.5 -78.5t1 -164.5t0.5 -126 q0 -14 12 -14q47 0 109 4q10 0 10 -13q-2 -8 -5 -26t-5 -25q-2 -12 -10 -12h-103q-1 0 -3.5 -5t-2.5 -7q0 -31 1 -104.5t1 -86.5q0 -28 -16 -33q-8 -3 -40.5 -6.5t-43.5 -3.5q-14 0 -14 33q0 3 2 78.5t2 116.5q0 18 -9 18q-206 0 -292 -4q-6 0 -11.5 6.5t-5.5 11.5z M759.5 293q3.5 -4 8.5 -4q11 -2 188 -8q11 0 11 14q0 136 4 246q0 4 -5.5 5t-7.5 -1q-17 -22 -62 -75t-82 -98t-54 -69q-4 -6 -0.5 -10z" />
<glyph unicode="&#xbf;" horiz-adv-x="647" d="M90 -27q0 76 18.5 121t57.5 74q32 23 97 56t77 40q31 18 39.5 35.5t11.5 62.5q3 50 21 50t32 -60q23 -90 23 -137q0 -37 -21.5 -62t-66.5 -49q-37 -22 -98 -47q-54 -24 -86.5 -60t-32.5 -77q0 -92 42 -140t140 -48q8 0 42.5 4t55.5 4q26 0 49 -30.5t23 -65.5 q0 -28 -23.5 -49t-52.5 -21q-45 0 -88.5 24.5t-101.5 71.5q-11 9 -33.5 35.5t-52 68t-51 96t-21.5 103.5zM266 715q0 47 30.5 79.5t76.5 32.5q44 0 74 -31.5t30 -78.5q0 -42 -30 -77.5t-74 -35.5q-46 0 -76.5 32t-30.5 79z" />
<glyph unicode="&#xc0;" horiz-adv-x="1327" d="M10 8q0 19 41 27q64 12 96 49t64 113q137 341 364 1015q15 30 15 60v24q0 9 9 20t15 13q12 3 48.5 4t48.5 -2q5 -2 11.5 -10t6.5 -14q3 -21 35 -123q172 -501 366 -985q20 -48 38.5 -77t43.5 -45t42.5 -21.5t56.5 -14.5q39 -11 39 -29q0 -22 -52 -22q-6 0 -89 5t-136 5 q-50 0 -121.5 -2t-89.5 -2q-45 0 -45 22q0 15 43 27q42 12 63 30.5t22 38t-1 42.5q-9 46 -49 164t-61 174q-13 26 -48 26q-339 0 -362 -2q-7 0 -15.5 -9.5t-13.5 -21.5q-18 -43 -59 -182t-41 -174q0 -43 22.5 -62.5t90.5 -31.5q20 -3 30.5 -11.5t10.5 -17.5q0 -18 -52 -18 q-26 0 -69.5 5t-94.5 5q-32 0 -85.5 -5t-79.5 -5q-58 0 -58 18zM393 1595q0 11 33.5 35.5t48.5 24.5q16 0 57 -41q14 -15 160 -195q27 -37 19 -45q-7 -5 -20 -3t-25 9q-36 20 -126 83.5t-114 84.5q-36 28 -33 47zM440 629q-2 -4 1.5 -10t11.5 -7q25 -2 166 -1.5t157 3.5 q13 8 10 21q-67 203 -168 473q-2 7 -8.5 10t-9.5 -4q-10 -23 -78.5 -231.5t-81.5 -253.5z" />
<glyph unicode="&#xc1;" horiz-adv-x="1327" d="M10 8q0 19 41 27q64 12 96 49t64 113q137 341 364 1015q15 30 15 60v24q0 9 9 20t15 13q12 3 48.5 4t48.5 -2q5 -2 11.5 -10t6.5 -14q3 -21 35 -123q172 -501 366 -985q20 -48 38.5 -77t43.5 -45t42.5 -21.5t56.5 -14.5q39 -11 39 -29q0 -22 -52 -22q-6 0 -89 5t-136 5 q-50 0 -121.5 -2t-89.5 -2q-45 0 -45 22q0 15 43 27q42 12 63 30.5t22 38t-1 42.5q-9 46 -49 164t-61 174q-13 26 -48 26q-339 0 -362 -2q-7 0 -15.5 -9.5t-13.5 -21.5q-18 -43 -59 -182t-41 -174q0 -43 22.5 -62.5t90.5 -31.5q20 -3 30.5 -11.5t10.5 -17.5q0 -18 -52 -18 q-26 0 -69.5 5t-94.5 5q-32 0 -85.5 -5t-79.5 -5q-58 0 -58 18zM440 629q-2 -4 1.5 -10t11.5 -7q25 -2 166 -1.5t157 3.5q13 8 10 21q-67 203 -168 473q-2 7 -8.5 10t-9.5 -4q-10 -23 -78.5 -231.5t-81.5 -253.5zM590 1389q-6 4 1 17.5t19 25.5q9 9 63 60t95.5 89t75.5 64 q30 22 49 12q16 -8 37 -28.5t16 -31.5q-7 -17 -28 -32q-126 -83 -273 -164q-47 -19 -55 -12z" />
<glyph unicode="&#xc2;" horiz-adv-x="1327" d="M10 8q0 19 41 27q64 12 96 49t64 113q137 341 364 1015q15 30 15 60v24q0 9 9 20t15 13q12 3 48.5 4t48.5 -2q5 -2 11.5 -10t6.5 -14q3 -21 35 -123q172 -501 366 -985q20 -48 38.5 -77t43.5 -45t42.5 -21.5t56.5 -14.5q39 -11 39 -29q0 -22 -52 -22q-6 0 -89 5t-136 5 q-50 0 -121.5 -2t-89.5 -2q-45 0 -45 22q0 15 43 27q42 12 63 30.5t22 38t-1 42.5q-9 46 -49 164t-61 174q-13 26 -48 26q-339 0 -362 -2q-7 0 -15.5 -9.5t-13.5 -21.5q-18 -43 -59 -182t-41 -174q0 -43 22.5 -62.5t90.5 -31.5q20 -3 30.5 -11.5t10.5 -17.5q0 -18 -52 -18 q-26 0 -69.5 5t-94.5 5q-32 0 -85.5 -5t-79.5 -5q-58 0 -58 18zM424 1394q4 9 10 13q15 15 90 86t94 90q31 31 50 31q14 0 55 -41q17 -19 77.5 -80.5t92.5 -95.5q9 -9 10 -16t-3.5 -10t-10.5 -3q-11 0 -35 12q-67 34 -178 105q-3 3 -11.5 4.5t-11.5 -0.5q-101 -61 -180 -96 q-37 -15 -43 -15q-12 0 -6 16zM440 629q-2 -4 1.5 -10t11.5 -7q25 -2 166 -1.5t157 3.5q13 8 10 21q-67 203 -168 473q-2 7 -8.5 10t-9.5 -4q-10 -23 -78.5 -231.5t-81.5 -253.5z" />
<glyph unicode="&#xc3;" horiz-adv-x="1327" d="M10 8q0 19 41 27q64 12 96 49t64 113q137 341 364 1015q15 30 15 60v24q0 9 9 20t15 13q12 3 48.5 4t48.5 -2q5 -2 11.5 -10t6.5 -14q3 -21 35 -123q172 -501 366 -985q20 -48 38.5 -77t43.5 -45t42.5 -21.5t56.5 -14.5q39 -11 39 -29q0 -22 -52 -22q-6 0 -89 5t-136 5 q-50 0 -121.5 -2t-89.5 -2q-45 0 -45 22q0 15 43 27q42 12 63 30.5t22 38t-1 42.5q-9 46 -49 164t-61 174q-13 26 -48 26q-339 0 -362 -2q-7 0 -15.5 -9.5t-13.5 -21.5q-18 -43 -59 -182t-41 -174q0 -43 22.5 -62.5t90.5 -31.5q20 -3 30.5 -11.5t10.5 -17.5q0 -18 -52 -18 q-26 0 -69.5 5t-94.5 5q-32 0 -85.5 -5t-79.5 -5q-58 0 -58 18zM434 1397q0 3 16.5 27t50 58.5t68.5 55.5q13 9 29 4q79 -22 184 -22q38 0 62.5 15t54.5 48q4 4 11.5 -1t7.5 -7q0 -7 -11 -27q-18 -30 -55 -68.5t-68 -52.5q-10 -6 -28 -6q-10 0 -84.5 11.5t-118.5 11.5 q-15 0 -39 -13t-43 -34q-17 -17 -22 -17q-4 0 -9.5 7t-5.5 10zM440 629q-2 -4 1.5 -10t11.5 -7q25 -2 166 -1.5t157 3.5q13 8 10 21q-67 203 -168 473q-2 7 -8.5 10t-9.5 -4q-10 -23 -78.5 -231.5t-81.5 -253.5z" />
<glyph unicode="&#xc4;" horiz-adv-x="1327" d="M10 8q0 19 41 27q64 12 96 49t64 113q137 341 364 1015q15 30 15 60v24q0 9 9 20t15 13q12 3 48.5 4t48.5 -2q5 -2 11.5 -10t6.5 -14q3 -21 35 -123q172 -501 366 -985q20 -48 38.5 -77t43.5 -45t42.5 -21.5t56.5 -14.5q39 -11 39 -29q0 -22 -52 -22q-6 0 -89 5t-136 5 q-50 0 -121.5 -2t-89.5 -2q-45 0 -45 22q0 15 43 27q42 12 63 30.5t22 38t-1 42.5q-9 46 -49 164t-61 174q-13 26 -48 26q-339 0 -362 -2q-7 0 -15.5 -9.5t-13.5 -21.5q-18 -43 -59 -182t-41 -174q0 -43 22.5 -62.5t90.5 -31.5q20 -3 30.5 -11.5t10.5 -17.5q0 -18 -52 -18 q-26 0 -69.5 5t-94.5 5q-32 0 -85.5 -5t-79.5 -5q-58 0 -58 18zM391 1481q0 34 27 61t59 27q36 0 61 -25t25 -61q0 -41 -26 -64.5t-64 -23.5q-36 0 -59 26.5t-23 59.5zM440 629q-2 -4 1.5 -10t11.5 -7q25 -2 166 -1.5t157 3.5q13 8 10 21q-67 203 -168 473q-2 7 -8.5 10 t-9.5 -4q-10 -23 -78.5 -231.5t-81.5 -253.5zM760 1477q0 34 25.5 63t58.5 29q36 0 61 -25t25 -61q0 -41 -24.5 -64.5t-61.5 -23.5t-60.5 25t-23.5 57z" />
<glyph unicode="&#xc5;" horiz-adv-x="1327" d="M10 8q0 19 41 27q64 12 96 49t64 113q137 341 364 1015q15 30 15 60v24q0 9 9 20t15 13q12 3 48.5 4t48.5 -2q5 -2 11.5 -10t6.5 -14q3 -21 35 -123q172 -501 366 -985q20 -48 38.5 -77t43.5 -45t42.5 -21.5t56.5 -14.5q39 -11 39 -29q0 -22 -52 -22q-6 0 -89 5t-136 5 q-50 0 -121.5 -2t-89.5 -2q-45 0 -45 22q0 15 43 27q42 12 63 30.5t22 38t-1 42.5q-9 46 -49 164t-61 174q-13 26 -48 26q-339 0 -362 -2q-7 0 -15.5 -9.5t-13.5 -21.5q-18 -43 -59 -182t-41 -174q0 -43 22.5 -62.5t90.5 -31.5q20 -3 30.5 -11.5t10.5 -17.5q0 -18 -52 -18 q-26 0 -69.5 5t-94.5 5q-32 0 -85.5 -5t-79.5 -5q-58 0 -58 18zM440 629q-2 -4 1.5 -10t11.5 -7q25 -2 166 -1.5t157 3.5q13 8 10 21q-67 203 -168 473q-2 7 -8.5 10t-9.5 -4q-10 -23 -78.5 -231.5t-81.5 -253.5zM508 1516q0 61 42 107t107 46q61 0 105.5 -45.5t44.5 -105.5 t-44 -105t-108 -45q-65 0 -106 42.5t-41 105.5zM571 1518q0 -42 25.5 -70.5t60.5 -28.5q37 0 62.5 27t25.5 76q0 40 -25.5 67t-62.5 27t-61.5 -28.5t-24.5 -69.5z" />
<glyph unicode="&#xc6;" horiz-adv-x="1830" d="M10 12q0 19 41 27q62 14 107 46t84 93q26 43 146.5 257t257 458t161.5 289q18 36 11 50t-36 21q-21 4 -56.5 13t-51.5 12q-45 8 -45 27q0 16 45 16t125.5 -2t173.5 -2h303q268 0 348 8q7 1 16 -7t9 -13q14 -128 14 -211q1 -13 -4 -25t-10 -12q-18 0 -31 33q-11 31 -20 51 t-25.5 45t-41 40t-56.5 21q-65 10 -363 10q-7 0 -12.5 -6.5t-5.5 -15.5q-4 -168 -4 -524q0 -5 5.5 -13t14.5 -8q211 0 279 4q31 1 49.5 24t44.5 87q12 31 28 31q17 0 17 -33q-1 -37 -3.5 -80.5t-2.5 -56.5q0 -19 8 -158q0 -45 -25 -45q-13 0 -42 63q-1 2 -1.5 3.5t-1.5 3.5 l-2 4q-16 37 -34.5 50.5t-63.5 16.5q-41 4 -252 4q-14 0 -14 -26q-4 -63 -4 -330q0 -60 6 -91t24 -52q42 -46 131 -46q225 0 279 3q70 3 119 47.5t98 134.5q22 39 39 39q10 0 12 -17t-6 -37q-16 -40 -35.5 -120t-23.5 -93q-4 -12 -26.5 -20t-39.5 -8q-60 0 -360 4t-344 4 q-55 0 -117.5 -3t-67.5 -3q-1 0 -10 -0.5t-13 0t-11 2t-10 5.5t-3 11q0 18 41 27q76 20 103 45t36 96q5 53 10.5 184t2.5 214q0 11 -7.5 19.5t-15.5 8.5h-315q-6 0 -19.5 -9.5t-15.5 -14.5q-101 -186 -168 -316q-51 -100 -51 -143q0 -34 16 -46t84 -36q41 -14 41 -27 q0 -9 -12.5 -15.5t-30.5 -6.5q-9 0 -79.5 4t-100.5 4q-51 0 -115.5 -3t-68.5 -3q-56 0 -56 18zM625 715q-5 -8 3 -15.5t21 -7.5q55 -2 256 -2q9 0 14 10t5 23q0 56 3.5 209t4.5 268q2 38 -11 35q-11 -2 -28 -35q-98 -154 -268 -485z" />
<glyph unicode="&#xc7;" horiz-adv-x="1425" d="M94 651q0 168 71 312t220 247q211 146 489 146q39 0 76.5 -3t72.5 -8.5t56.5 -9.5t53.5 -11.5t38 -8.5q56 -17 93 -17q7 0 14.5 -12t5.5 -18q-2 -22 -1 -60t2.5 -60t4 -52t2.5 -37q3 -49 -18 -49q-14 0 -27 41q-22 67 -49.5 103t-75.5 69q-46 36 -124 61t-171 25 q-249 0 -389.5 -160.5t-140.5 -417.5q0 -200 70 -350q59 -123 153 -209t187.5 -122t183.5 -36q132 0 225.5 44t147.5 153q20 42 28 53.5t19 11.5q7 0 10.5 -13t1.5 -25l-10 -140q-1 -13 -17.5 -30.5t-35.5 -26.5q-136 -70 -332 -80q-52 -70 -58 -80q-3 -4 0.5 -9t8.5 -7 q112 -50 112 -133q0 -39 -20.5 -75t-39.5 -53.5t-48 -39.5q-73 -49 -125 -49q-19 0 -32 7t-13 19q0 13 18 31q19 19 31 14q21 -8 59 -8q33 0 55.5 23.5t22.5 52.5q0 40 -32.5 69t-78.5 29h-30q-5 0 -12 8.5t-7 14.5q0 9 15 24q28 28 133 160q-325 -9 -543 162 q-123 93 -186.5 235t-63.5 295z" />
<glyph unicode="&#xc8;" horiz-adv-x="1146" d="M0 4q0 17 51 27q90 18 125.5 51t46.5 125q10 84 10 493q0 363 -4 435q-1 20 -4 36t-6 28t-11 22.5t-12 17t-17 13t-17.5 9.5t-22 7.5t-23 5.5t-26.5 6q-45 10 -45 27q0 16 57 16q15 0 97.5 -3t126.5 -3h245q86 0 154.5 3t94 5.5t70 9t46.5 6.5q6 0 15.5 -11.5t9.5 -18.5 q0 -2 10 -89t10 -118q0 -12 -9 -23.5t-16 -11.5q-15 0 -36 74q-15 54 -48.5 78t-99.5 30q-71 6 -338 6q-17 0 -24 -38q-9 -47 -9 -461q0 -14 5.5 -24.5t11.5 -10.5h112q102 0 149.5 9t71 33.5t37.5 78.5q3 16 11.5 29.5t15.5 13.5q24 0 21 -49q-5 -113 -5 -152q0 -79 9 -176 q0 -20 -6 -30.5t-13 -10.5q-20 0 -33 51q-12 57 -35 86t-77 35q-113 10 -240 10q-19 0 -27 -10t-8 -20v-381q0 -56 5.5 -80.5t19.5 -38.5q25 -24 31 -29t30 -14t53.5 -9.5t94.5 -0.5q70 0 105 0.5t77 1.5t61 5t41 9.5t34 15.5t23.5 21.5t24.5 30.5q38 48 60 94q23 47 39 47 q8 0 12 -14t4 -25q0 -13 -26.5 -106.5t-34.5 -118.5q-14 -44 -49 -41q-160 12 -721 12q-57 0 -138.5 -8t-103.5 -8q-43 0 -43 20zM330 1618q0 11 33.5 35t48.5 24q16 0 57 -41q23 -25 160 -194q27 -36 18 -45q-7 -5 -20 -3t-25 9q-36 20 -126 83.5t-114 84.5q-35 28 -32 47z " />
<glyph unicode="&#xc9;" horiz-adv-x="1146" d="M0 4q0 17 51 27q90 18 125.5 51t46.5 125q10 84 10 493q0 363 -4 435q-1 20 -4 36t-6 28t-11 22.5t-12 17t-17 13t-17.5 9.5t-22 7.5t-23 5.5t-26.5 6q-45 10 -45 27q0 16 57 16q15 0 97.5 -3t126.5 -3h245q86 0 154.5 3t94 5.5t70 9t46.5 6.5q6 0 15.5 -11.5t9.5 -18.5 q0 -2 10 -89t10 -118q0 -12 -9 -23.5t-16 -11.5q-15 0 -36 74q-15 54 -48.5 78t-99.5 30q-71 6 -338 6q-17 0 -24 -38q-9 -47 -9 -461q0 -14 5.5 -24.5t11.5 -10.5h112q102 0 149.5 9t71 33.5t37.5 78.5q3 16 11.5 29.5t15.5 13.5q24 0 21 -49q-5 -113 -5 -152q0 -79 9 -176 q0 -20 -6 -30.5t-13 -10.5q-20 0 -33 51q-12 57 -35 86t-77 35q-113 10 -240 10q-19 0 -27 -10t-8 -20v-381q0 -56 5.5 -80.5t19.5 -38.5q25 -24 31 -29t30 -14t53.5 -9.5t94.5 -0.5q70 0 105 0.5t77 1.5t61 5t41 9.5t34 15.5t23.5 21.5t24.5 30.5q38 48 60 94q23 47 39 47 q8 0 12 -14t4 -25q0 -13 -26.5 -106.5t-34.5 -118.5q-14 -44 -49 -41q-160 12 -721 12q-57 0 -138.5 -8t-103.5 -8q-43 0 -43 20zM492 1393q-6 4 1 17.5t19 25.5q12 11 63.5 60.5t93.5 88t76 64.5q30 22 50 12q16 -8 37 -28t16 -31q-7 -18 -29 -33q-130 -86 -272 -164 q-47 -19 -55 -12z" />
<glyph unicode="&#xca;" horiz-adv-x="1146" d="M0 4q0 17 51 27q90 18 125.5 51t46.5 125q10 84 10 493q0 363 -4 435q-1 20 -4 36t-6 28t-11 22.5t-12 17t-17 13t-17.5 9.5t-22 7.5t-23 5.5t-26.5 6q-45 10 -45 27q0 16 57 16q15 0 97.5 -3t126.5 -3h245q86 0 154.5 3t94 5.5t70 9t46.5 6.5q6 0 15.5 -11.5t9.5 -18.5 q0 -2 10 -89t10 -118q0 -12 -9 -23.5t-16 -11.5q-15 0 -36 74q-15 54 -48.5 78t-99.5 30q-71 6 -338 6q-17 0 -24 -38q-9 -47 -9 -461q0 -14 5.5 -24.5t11.5 -10.5h112q102 0 149.5 9t71 33.5t37.5 78.5q3 16 11.5 29.5t15.5 13.5q24 0 21 -49q-5 -113 -5 -152q0 -79 9 -176 q0 -20 -6 -30.5t-13 -10.5q-20 0 -33 51q-12 57 -35 86t-77 35q-113 10 -240 10q-19 0 -27 -10t-8 -20v-381q0 -56 5.5 -80.5t19.5 -38.5q25 -24 31 -29t30 -14t53.5 -9.5t94.5 -0.5q70 0 105 0.5t77 1.5t61 5t41 9.5t34 15.5t23.5 21.5t24.5 30.5q38 48 60 94q23 47 39 47 q8 0 12 -14t4 -25q0 -13 -26.5 -106.5t-34.5 -118.5q-14 -44 -49 -41q-160 12 -721 12q-57 0 -138.5 -8t-103.5 -8q-43 0 -43 20zM322 1421q4 9 10 13q15 15 90 86t94 90q30 30 49 30q15 0 56 -41q17 -19 77.5 -80.5t92.5 -95.5q9 -9 9.5 -16t-4 -9.5t-10.5 -2.5 q-10 0 -34 12q-80 41 -179 104q-3 3 -11 5t-11 0q-106 -65 -180 -97q-35 -14 -43 -14q-12 0 -6 16z" />
<glyph unicode="&#xcb;" horiz-adv-x="1146" d="M0 4q0 17 51 27q90 18 125.5 51t46.5 125q10 84 10 493q0 363 -4 435q-1 20 -4 36t-6 28t-11 22.5t-12 17t-17 13t-17.5 9.5t-22 7.5t-23 5.5t-26.5 6q-45 10 -45 27q0 16 57 16q15 0 97.5 -3t126.5 -3h245q86 0 154.5 3t94 5.5t70 9t46.5 6.5q6 0 15.5 -11.5t9.5 -18.5 q0 -2 10 -89t10 -118q0 -12 -9 -23.5t-16 -11.5q-15 0 -36 74q-15 54 -48.5 78t-99.5 30q-71 6 -338 6q-17 0 -24 -38q-9 -47 -9 -461q0 -14 5.5 -24.5t11.5 -10.5h112q102 0 149.5 9t71 33.5t37.5 78.5q3 16 11.5 29.5t15.5 13.5q24 0 21 -49q-5 -113 -5 -152q0 -79 9 -176 q0 -20 -6 -30.5t-13 -10.5q-20 0 -33 51q-12 57 -35 86t-77 35q-113 10 -240 10q-19 0 -27 -10t-8 -20v-381q0 -56 5.5 -80.5t19.5 -38.5q25 -24 31 -29t30 -14t53.5 -9.5t94.5 -0.5q70 0 105 0.5t77 1.5t61 5t41 9.5t34 15.5t23.5 21.5t24.5 30.5q38 48 60 94q23 47 39 47 q8 0 12 -14t4 -25q0 -13 -26.5 -106.5t-34.5 -118.5q-14 -44 -49 -41q-160 12 -721 12q-57 0 -138.5 -8t-103.5 -8q-43 0 -43 20zM293 1509q0 34 27 61t59 27q36 0 61 -25t25 -61q0 -41 -26 -64.5t-64 -23.5q-36 0 -59 26.5t-23 59.5zM662 1505q0 35 25 63.5t58 28.5 q36 0 61 -25t25 -61q0 -41 -24.5 -64.5t-61.5 -23.5t-60 25t-23 57z" />
<glyph unicode="&#xcc;" horiz-adv-x="602" d="M51 12q0 13 13.5 21t44.5 16q59 14 79.5 35.5t24.5 77.5q10 127 10 524q0 311 -2 385q-5 110 -13 137q-14 41 -62 56q-16 6 -40 10q-45 7 -45 24q0 21 60 21q27 0 85.5 -1t82.5 -1q38 0 109 1t114 1q41 0 41 -16q0 -17 -41 -25q-67 -14 -86 -33.5t-25 -87.5 q-16 -147 -16 -461q0 -275 16 -526q4 -58 27 -78.5t90 -42.5q8 -3 12 -4q25 -8 32 -15.5t7 -17.5q0 -18 -43 -18q-12 0 -92 3t-141 3q-31 0 -101 -3t-98 -3q-43 0 -43 18zM51 1604q0 11 33.5 35t48.5 24q16 0 57 -41q14 -15 160 -195q27 -37 19 -45q-12 -12 -45 7 q-36 20 -126 83.5t-114 83.5q-36 28 -33 48z" />
<glyph unicode="&#xcd;" horiz-adv-x="602" d="M51 12q0 13 13.5 21t44.5 16q59 14 79.5 35.5t24.5 77.5q10 127 10 524q0 311 -2 385q-5 110 -13 137q-14 41 -62 56q-16 6 -40 10q-45 7 -45 24q0 21 60 21q27 0 85.5 -1t82.5 -1q38 0 109 1t114 1q41 0 41 -16q0 -17 -41 -25q-67 -14 -86 -33.5t-25 -87.5 q-16 -147 -16 -461q0 -275 16 -526q4 -58 27 -78.5t90 -42.5q8 -3 12 -4q25 -8 32 -15.5t7 -17.5q0 -18 -43 -18q-12 0 -92 3t-141 3q-31 0 -101 -3t-98 -3q-43 0 -43 18zM240 1399q-6 4 1 17.5t19 25.5q9 9 63 60t95.5 89t75.5 64q30 22 49 12q16 -8 37 -28t16 -31 q-7 -18 -29 -33q-130 -86 -272 -164q-47 -19 -55 -12z" />
<glyph unicode="&#xce;" horiz-adv-x="602" d="M51 12q0 13 13.5 21t44.5 16q59 14 79.5 35.5t24.5 77.5q10 127 10 524q0 311 -2 385q-5 110 -13 137q-14 41 -62 56q-16 6 -40 10q-45 7 -45 24q0 21 60 21q27 0 85.5 -1t82.5 -1q38 0 109 1t114 1q41 0 41 -16q0 -17 -41 -25q-67 -14 -86 -33.5t-25 -87.5 q-16 -147 -16 -461q0 -275 16 -526q4 -58 27 -78.5t90 -42.5q8 -3 12 -4q25 -8 32 -15.5t7 -17.5q0 -18 -43 -18q-12 0 -92 3t-141 3q-31 0 -101 -3t-98 -3q-43 0 -43 18zM62 1414q3 8 10 13q15 15 90 86.5t94 90.5q30 30 49 30q14 0 55 -41q17 -19 77.5 -80.5t92.5 -95.5 q9 -9 9.5 -16t-3.5 -9.5t-10 -2.5q-10 0 -34 12q-80 41 -179 104q-3 3 -11 4.5t-11 -0.5q-101 -61 -180 -96q-35 -14 -43 -14q-11 0 -6 15z" />
<glyph unicode="&#xcf;" horiz-adv-x="602" d="M31 1507q0 34 27 61t59 27q36 0 61 -25t25 -61q0 -41 -26 -64.5t-64 -23.5q-36 0 -59 26.5t-23 59.5zM51 12q0 13 13.5 21t44.5 16q59 14 79.5 35.5t24.5 77.5q10 127 10 524q0 311 -2 385q-5 110 -13 137q-14 41 -62 56q-16 6 -40 10q-45 7 -45 24q0 21 60 21 q27 0 85.5 -1t82.5 -1q38 0 109 1t114 1q41 0 41 -16q0 -17 -41 -25q-67 -14 -86 -33.5t-25 -87.5q-16 -147 -16 -461q0 -275 16 -526q4 -58 27 -78.5t90 -42.5q8 -3 12 -4q25 -8 32 -15.5t7 -17.5q0 -18 -43 -18q-12 0 -92 3t-141 3q-31 0 -101 -3t-98 -3q-43 0 -43 18z M399 1503q0 34 25.5 63t58.5 29q36 0 61 -25t25 -61q0 -41 -24.5 -64.5t-61.5 -23.5t-60.5 25t-23.5 57z" />
<glyph unicode="&#xd0;" horiz-adv-x="1523" d="M35 18q0 10 10 15t35 10q85 16 112.5 40.5t28.5 102.5q2 125 2 443q0 10 -4.5 18t-9.5 8l-139 2q-5 0 -11 6.5t-6 10.5q0 20 10 37q8 8 15 8l131 4q14 0 14 18q0 295 -10 418q-3 53 -23.5 76t-76.5 35q-50 10 -50 24q0 23 50 23h139q48 0 182.5 9t220.5 9 q147 0 272.5 -28t235.5 -103q120 -80 194.5 -219t74.5 -299q0 -123 -39.5 -233.5t-108 -193.5t-156.5 -144t-190 -95q-129 -43 -313 -43q-64 0 -192.5 11.5t-184.5 11.5q-38 0 -92.5 -2t-69.5 -2q-51 0 -51 22zM393 633q0 -331 23 -457q7 -40 18 -62t39 -38q113 -58 205 -58 q130 0 246 58q151 69 229 220.5t78 362.5q0 83 -41.5 211t-122.5 220q-91 102 -197 152t-247 50q-54 0 -100.5 -6.5t-67 -13t-27.5 -10.5q-9 -6 -13 -10.5t-10 -23.5t-8 -50q-4 -102 -4 -312v-127q0 -18 15 -18h354q14 0 14 -14q0 -25 -12 -41q-7 -7 -27 -7l-336 -4 q-1 0 -3 -2.5t-3.5 -8t-1.5 -11.5z" />
<glyph unicode="&#xd1;" horiz-adv-x="1488" d="M20 1303q0 20 48 20q14 0 113 -3t141 -3q18 0 51 -33q11 -11 47.5 -58.5t71.5 -88.5q684 -808 688 -813q4 -4 10 1.5t6 10.5q4 82 4.5 315.5t-2.5 335.5q-1 31 -1.5 72t-1.5 54t-4.5 35t-10.5 48q-8 29 -40 48t-102 34q-43 10 -43 27q0 16 41 16q4 0 77.5 -2t113.5 -2 t97 2t71 2q49 0 49 -14q0 -19 -43 -29q-65 -16 -88.5 -52.5t-28.5 -109.5q-14 -185 -14 -674q0 -70 2 -216t2 -224q0 -16 -4 -26t-8 -12.5t-7 -2.5q-22 0 -45 23q-7 7 -32 40.5t-73 96t-99 125.5q-103 126 -329.5 399t-350.5 426q-6 6 -9 8.5t-6 3.5t-4 -1.5t-2 -8.5 q-8 -49 -8 -282q0 -402 10 -572q6 -81 32 -112t110 -56q57 -17 57 -33q0 -24 -49 -24q-18 0 -89.5 3t-109.5 3q-42 0 -91.5 -3t-74.5 -3q-55 0 -55 20q0 21 51 33q66 17 89 47t30 109q7 81 14.5 370t7.5 502q0 65 -9 92.5t-38 59.5q-35 37 -121 53q-41 7 -41 23zM506 1405 q0 3 16.5 27t50 58.5t68.5 55.5q13 9 29 4q79 -22 184 -22q38 0 62.5 15t54.5 48q4 4 11 -0.5t7 -7.5q0 -9 -10 -27q-18 -29 -55 -67.5t-68 -52.5q-10 -6 -29 -6q-10 0 -84 11t-118 11q-15 0 -39 -13t-43 -34q-16 -16 -23 -16q-4 0 -9 6.5t-5 9.5z" />
<glyph unicode="&#xd2;" horiz-adv-x="1587" d="M94 672q0 105 28 199.5t73.5 164t91 117.5t94.5 82q179 119 399 119q142 0 272 -50.5t227.5 -138.5t155.5 -217.5t58 -277.5q0 -109 -24.5 -202t-69.5 -163t-93.5 -120t-111.5 -95q-84 -63 -190 -97t-181 -34q-198 0 -364.5 91t-265.5 255.5t-99 366.5zM285 725 q0 -148 54 -292.5t150 -246.5q152 -172 353 -172q82 0 159.5 38.5t137.5 99.5q80 77 120.5 208.5t40.5 266.5q0 95 -24 190.5t-73 183.5t-116.5 155.5t-162.5 108t-203 40.5q-83 0 -159.5 -38t-129.5 -93q-25 -26 -47 -60t-46.5 -87.5t-39 -132t-14.5 -169.5zM537 1638 q0 11 33 35.5t48 24.5q17 0 58 -41q14 -15 160 -195q27 -36 18 -45q-7 -5 -20 -3t-25 9q-36 20 -126 83.5t-114 84.5q-35 28 -32 47z" />
<glyph unicode="&#xd3;" horiz-adv-x="1587" d="M94 672q0 105 28 199.5t73.5 164t91 117.5t94.5 82q179 119 399 119q142 0 272 -50.5t227.5 -138.5t155.5 -217.5t58 -277.5q0 -109 -24.5 -202t-69.5 -163t-93.5 -120t-111.5 -95q-84 -63 -190 -97t-181 -34q-198 0 -364.5 91t-265.5 255.5t-99 366.5zM285 725 q0 -148 54 -292.5t150 -246.5q152 -172 353 -172q82 0 159.5 38.5t137.5 99.5q80 77 120.5 208.5t40.5 266.5q0 95 -24 190.5t-73 183.5t-116.5 155.5t-162.5 108t-203 40.5q-83 0 -159.5 -38t-129.5 -93q-25 -26 -47 -60t-46.5 -87.5t-39 -132t-14.5 -169.5zM690 1419 q-6 4 1.5 17.5t19.5 25.5q12 11 63.5 60.5t93.5 88t76 64.5q31 22 49 13q16 -8 37.5 -28.5t16.5 -31.5q-7 -18 -29 -33q-117 -77 -273 -163q-48 -19 -55 -13z" />
<glyph unicode="&#xd4;" horiz-adv-x="1587" d="M94 672q0 105 28 199.5t73.5 164t91 117.5t94.5 82q179 119 399 119q142 0 272 -50.5t227.5 -138.5t155.5 -217.5t58 -277.5q0 -109 -24.5 -202t-69.5 -163t-93.5 -120t-111.5 -95q-84 -63 -190 -97t-181 -34q-198 0 -364.5 91t-265.5 255.5t-99 366.5zM285 725 q0 -148 54 -292.5t150 -246.5q152 -172 353 -172q82 0 159.5 38.5t137.5 99.5q80 77 120.5 208.5t40.5 266.5q0 95 -24 190.5t-73 183.5t-116.5 155.5t-162.5 108t-203 40.5q-83 0 -159.5 -38t-129.5 -93q-25 -26 -47 -60t-46.5 -87.5t-39 -132t-14.5 -169.5zM553 1425 q3 9 10 13q15 15 90.5 86t94.5 90q31 31 49 31q14 0 55 -41q17 -19 78 -81t92 -96q9 -9 9.5 -16t-3.5 -9.5t-10 -2.5q-11 0 -35 12q-67 34 -178 105q-3 3 -11.5 4.5t-11.5 -0.5q-106 -65 -180 -97q-35 -14 -43 -14q-12 0 -6 16z" />
<glyph unicode="&#xd5;" horiz-adv-x="1587" d="M94 672q0 105 28 199.5t73.5 164t91 117.5t94.5 82q179 119 399 119q142 0 272 -50.5t227.5 -138.5t155.5 -217.5t58 -277.5q0 -109 -24.5 -202t-69.5 -163t-93.5 -120t-111.5 -95q-84 -63 -190 -97t-181 -34q-198 0 -364.5 91t-265.5 255.5t-99 366.5zM285 725 q0 -148 54 -292.5t150 -246.5q152 -172 353 -172q82 0 159.5 38.5t137.5 99.5q80 77 120.5 208.5t40.5 266.5q0 95 -24 190.5t-73 183.5t-116.5 155.5t-162.5 108t-203 40.5q-83 0 -159.5 -38t-129.5 -93q-25 -26 -47 -60t-46.5 -87.5t-39 -132t-14.5 -169.5zM551 1446 q0 3 16.5 27t50 58.5t68.5 55.5q13 9 29 4q79 -22 184 -22q38 0 62.5 15t54.5 48q4 4 11 -1t7 -7q0 -9 -10 -27q-18 -29 -55 -67.5t-68 -52.5q-12 -7 -29 -7q-10 0 -84 11.5t-118 11.5q-15 0 -39 -13t-43 -34q-16 -16 -23 -16q-4 0 -9 6.5t-5 9.5z" />
<glyph unicode="&#xd6;" horiz-adv-x="1587" d="M94 672q0 105 28 199.5t73.5 164t91 117.5t94.5 82q179 119 399 119q142 0 272 -50.5t227.5 -138.5t155.5 -217.5t58 -277.5q0 -109 -24.5 -202t-69.5 -163t-93.5 -120t-111.5 -95q-84 -63 -190 -97t-181 -34q-198 0 -364.5 91t-265.5 255.5t-99 366.5zM285 725 q0 -148 54 -292.5t150 -246.5q152 -172 353 -172q82 0 159.5 38.5t137.5 99.5q80 77 120.5 208.5t40.5 266.5q0 95 -24 190.5t-73 183.5t-116.5 155.5t-162.5 108t-203 40.5q-83 0 -159.5 -38t-129.5 -93q-25 -26 -47 -60t-46.5 -87.5t-39 -132t-14.5 -169.5zM522 1522 q0 34 27 61t59 27q36 0 61 -25t25 -61q0 -41 -26 -64.5t-64 -23.5q-36 0 -59 26.5t-23 59.5zM891 1518q0 34 25.5 63t58.5 29q36 0 61 -25t25 -61q0 -41 -24.5 -64.5t-61.5 -23.5t-60.5 25t-23.5 57z" />
<glyph unicode="&#xd7;" horiz-adv-x="1064" d="M157 746.5q-1 9.5 3 17.5q14 28 33 47q9 6 20.5 4t15.5 -6l293 -295q3 -3 10.5 -3.5t8.5 1.5l290 299q3 3 13.5 5.5t13.5 0.5q11 -8 22.5 -22t14.5 -23q5 -13 -6 -24l-285 -295q-4 -4 -4.5 -12t2.5 -11l303 -309q6 -6 0 -25q-5 -13 -37 -45q-5 -4 -14.5 -2t-15.5 8 l-308 301q-12 12 -24 0l-293 -292q-5 -4 -14.5 -2.5t-14.5 6.5q-19 15 -26 36q-7 16 2 25l286 295q4 5 3.5 11.5t-3.5 8.5l-284 287q-4 4 -5 13.5z" />
<glyph unicode="&#xd8;" horiz-adv-x="1585" d="M94 670q0 85 19 164.5t48.5 139t69 112.5t76 88t74.5 61q78 52 182 86.5t219 34.5q208 0 396 -115q14 -7 24 6q15 20 37 46.5t31 37.5q12 12 22 12q4 0 12 -8t13 -16q1 -3 1 -9.5t-1 -9.5l-68 -88q-11 -15 0 -22q113 -91 178.5 -223t65.5 -289q0 -369 -295 -588 q-84 -62 -192.5 -96.5t-182.5 -34.5q-229 0 -430 133q-5 3 -16 -8q-20 -27 -40 -52t-40 -52q-13 -13 -21 -13q-17 0 -28 19q-7 12 -4 22q48 57 84 107q9 17 4 22q-110 98 -174 237t-64 296zM281 723q0 -122 35.5 -244t103.5 -217q3 -3 10 -2.5t10 4.5q437 557 668 856 q2 3 1.5 11.5t-3.5 11.5q-180 162 -389 162q-83 0 -157.5 -37.5t-127.5 -93.5q-25 -26 -47.5 -60.5t-48 -89t-40.5 -133t-15 -168.5zM474.5 201q-0.5 -8 4.5 -15q81 -86 167.5 -123.5t199.5 -37.5q164 0 295 131q83 80 126.5 203.5t43.5 263.5q0 122 -38 239.5t-108 210.5 q-5 5 -11.5 4.5t-10.5 -4.5l-664 -860q-4 -4 -4.5 -12z" />
<glyph unicode="&#xd9;" horiz-adv-x="1478" d="M31 1307q0 18 49 18q28 0 101.5 -4t111.5 -4q63 0 127 2t78 2q41 0 41 -14q0 -18 -37 -27q-78 -17 -99.5 -46.5t-27.5 -123.5q-8 -105 0 -504q3 -174 33.5 -266.5t105.5 -167.5q54 -52 137 -77t148 -25q82 0 142 15t111 53t84 106.5t50 171.5q24 139 24 532 q0 155 -12 213q-18 92 -141 115q-15 3 -21 4.5t-15 4.5t-12 6.5t-3 8.5q0 21 57 21q40 0 100.5 -2t81.5 -2q38 0 78.5 2t83.5 2q51 0 51 -16q0 -10 -8.5 -15t-32.5 -10q-63 -11 -87 -40t-30 -105q-5 -68 -10 -168.5t-9 -206t-5 -123.5q-4 -78 -10 -133t-17 -116.5 t-28 -107.5t-43 -91.5t-64 -84t-88 -71.5q-50 -32 -127.5 -51t-150.5 -19q-84 0 -187.5 25t-169.5 78q-96 77 -138.5 189.5t-43.5 338.5q-3 291 -14 553q-2 56 -27.5 88t-89.5 45q-47 9 -47 27zM551 1597q0 11 33.5 35.5t48.5 24.5q16 0 57 -41q14 -15 160 -195 q27 -36 18 -45q-7 -5 -20 -3t-25 9q-36 20 -125 83.5t-114 84.5q-36 28 -33 47z" />
<glyph unicode="&#xda;" horiz-adv-x="1478" d="M31 1307q0 18 49 18q28 0 101.5 -4t111.5 -4q63 0 127 2t78 2q41 0 41 -14q0 -18 -37 -27q-78 -17 -99.5 -46.5t-27.5 -123.5q-8 -105 0 -504q3 -174 33.5 -266.5t105.5 -167.5q54 -52 137 -77t148 -25q82 0 142 15t111 53t84 106.5t50 171.5q24 139 24 532 q0 155 -12 213q-18 92 -141 115q-15 3 -21 4.5t-15 4.5t-12 6.5t-3 8.5q0 21 57 21q40 0 100.5 -2t81.5 -2q38 0 78.5 2t83.5 2q51 0 51 -16q0 -10 -8.5 -15t-32.5 -10q-63 -11 -87 -40t-30 -105q-5 -68 -10 -168.5t-9 -206t-5 -123.5q-4 -78 -10 -133t-17 -116.5 t-28 -107.5t-43 -91.5t-64 -84t-88 -71.5q-50 -32 -127.5 -51t-150.5 -19q-84 0 -187.5 25t-169.5 78q-96 77 -138.5 189.5t-43.5 338.5q-3 291 -14 553q-2 56 -27.5 88t-89.5 45q-47 9 -47 27zM682 1389q-6 4 1 17.5t19 25.5q9 9 63 60t95.5 89t75.5 64q30 22 49 12 q16 -8 37 -28.5t16 -31.5q-7 -17 -28 -32q-126 -83 -273 -164q-47 -19 -55 -12z" />
<glyph unicode="&#xdb;" horiz-adv-x="1478" d="M31 1307q0 18 49 18q28 0 101.5 -4t111.5 -4q63 0 127 2t78 2q41 0 41 -14q0 -18 -37 -27q-78 -17 -99.5 -46.5t-27.5 -123.5q-8 -105 0 -504q3 -174 33.5 -266.5t105.5 -167.5q54 -52 137 -77t148 -25q82 0 142 15t111 53t84 106.5t50 171.5q24 139 24 532 q0 155 -12 213q-18 92 -141 115q-15 3 -21 4.5t-15 4.5t-12 6.5t-3 8.5q0 21 57 21q40 0 100.5 -2t81.5 -2q38 0 78.5 2t83.5 2q51 0 51 -16q0 -10 -8.5 -15t-32.5 -10q-63 -11 -87 -40t-30 -105q-5 -68 -10 -168.5t-9 -206t-5 -123.5q-4 -78 -10 -133t-17 -116.5 t-28 -107.5t-43 -91.5t-64 -84t-88 -71.5q-50 -32 -127.5 -51t-150.5 -19q-84 0 -187.5 25t-169.5 78q-96 77 -138.5 189.5t-43.5 338.5q-3 291 -14 553q-2 56 -27.5 88t-89.5 45q-47 9 -47 27zM533 1423q3 9 10 13q15 15 90 86t94 90q30 30 49 30q15 0 55 -40 q17 -19 78 -81t92 -96q9 -9 9.5 -16t-3.5 -9.5t-10 -2.5q-10 0 -34 12q-80 41 -179 104q-3 3 -11 5t-11 0q-106 -65 -180 -97q-35 -14 -43 -14q-12 0 -6 16z" />
<glyph unicode="&#xdc;" horiz-adv-x="1478" d="M31 1307q0 18 49 18q28 0 101.5 -4t111.5 -4q63 0 127 2t78 2q41 0 41 -14q0 -18 -37 -27q-78 -17 -99.5 -46.5t-27.5 -123.5q-8 -105 0 -504q3 -174 33.5 -266.5t105.5 -167.5q54 -52 137 -77t148 -25q82 0 142 15t111 53t84 106.5t50 171.5q24 139 24 532 q0 155 -12 213q-18 92 -141 115q-15 3 -21 4.5t-15 4.5t-12 6.5t-3 8.5q0 21 57 21q40 0 100.5 -2t81.5 -2q38 0 78.5 2t83.5 2q51 0 51 -16q0 -10 -8.5 -15t-32.5 -10q-63 -11 -87 -40t-30 -105q-5 -68 -10 -168.5t-9 -206t-5 -123.5q-4 -78 -10 -133t-17 -116.5 t-28 -107.5t-43 -91.5t-64 -84t-88 -71.5q-50 -32 -127.5 -51t-150.5 -19q-84 0 -187.5 25t-169.5 78q-96 77 -138.5 189.5t-43.5 338.5q-3 291 -14 553q-2 56 -27.5 88t-89.5 45q-47 9 -47 27zM510 1501q0 34 27 61t59 27q36 0 61 -25t25 -61q0 -41 -26 -64.5t-64 -23.5 q-36 0 -59 26.5t-23 59.5zM879 1497q0 34 25.5 63t58.5 29q36 0 61 -25t25 -61q0 -41 -24.5 -64.5t-61.5 -23.5t-60.5 25t-23.5 57z" />
<glyph unicode="&#xdd;" horiz-adv-x="1206" d="M-25 1311q0 16 48 16q21 0 101.5 -5t133.5 -5q50 0 99.5 2t70.5 2q49 0 49 -16q0 -18 -53 -33q-49 -14 -58.5 -34t7.5 -48q7 -14 62 -127.5t108 -218t92 -174.5q2 -4 8.5 -2.5t9.5 6.5q16 23 110 191.5t142 256.5q37 73 28 101t-81 51q-47 15 -47 31t39 16q31 0 97.5 -2 t94.5 -2q44 0 104 2t72 2q39 0 39 -18q0 -10 -10 -17t-43 -14q-38 -7 -67 -20t-53.5 -35.5t-39.5 -41.5t-41 -55q-38 -48 -147.5 -238.5t-165.5 -277.5q-8 -12 -13 -42t-5 -44q0 -235 12 -340q8 -72 29 -91.5t93 -36.5q15 -3 23 -5q49 -12 49 -31q0 -9 -15.5 -15.5 t-33.5 -6.5q-39 0 -110 4t-109 4q-47 0 -130 -4t-105 -4q-52 0 -52 24q0 16 45 27q89 22 110.5 52.5t21.5 117.5q0 287 -2 324q-2 49 -48 143q-49 101 -111 216t-95 181q-52 100 -97.5 144.5t-120.5 62.5q-45 11 -45 27zM584 1389q-6 4 1 17.5t19 25.5q9 9 63 60t95.5 89 t75.5 64q30 22 49 12q16 -8 37 -28.5t16 -31.5q-6 -16 -29 -32q-130 -86 -272 -164q-47 -19 -55 -12z" />
<glyph unicode="&#xde;" horiz-adv-x="1064" d="M51 1303q0 14 53 14h205q19 0 70.5 2t93.5 2q47 0 47 -16q0 -19 -45 -27q-46 -8 -59.5 -24t-20.5 -54q-4 -25 -4 -156q0 -12 23 -12q1 0 47 2t88 2q184 0 299 -82q62 -43 98.5 -115t36.5 -163q0 -121 -62 -208.5t-158.5 -128t-213.5 -40.5q-15 0 -30 2t-26.5 4t-26.5 6.5 t-22.5 6.5t-22.5 7.5t-18 6.5q-5 3 -8.5 -5.5t-3.5 -13.5q0 -64 0.5 -98.5t6 -66.5t10.5 -44.5t21.5 -26t31.5 -18.5t47 -14q47 -12 47 -31q0 -20 -47 -20q-24 0 -76 3t-108 3q-37 0 -116 -3t-106 -3q-43 0 -43 18q0 14 37 27q3 1 10 3q59 20 79 40q38 40 38 162v854 q0 55 -7 87t-27 50.5t-41 25.5t-64 15q-33 5 -33 27zM389 455q0 -74 17 -80q52 -17 104 -17q129 0 213 81t84 216q0 151 -90.5 237.5t-239.5 86.5q-58 0 -74 -16q-14 -14 -14 -89v-419z" />
<glyph unicode="&#xdf;" horiz-adv-x="1009" d="M41 10q0 15 51 25q43 9 59 35t19 96q4 113 4 487q0 7 -5 17t-9 10l-72 6q-4 0 -8 11t2 16q21 21 72 61q18 18 22 33q0 294 119 453q64 87 158 144.5t200 57.5q59 0 109 -19.5t82.5 -50.5t55 -70t32.5 -77t10 -74q0 -54 -19 -99t-33.5 -61.5t-49.5 -47.5l-9 -9 q-16 -15 -73.5 -61.5t-83.5 -69.5q-58 -50 -58 -106q0 -28 18.5 -57t37.5 -46q146 -105 170 -125q50 -42 77 -88.5t27 -121.5q0 -85 -60.5 -155.5t-156.5 -117.5q-64 -35 -125 -35q-21 0 -47 6t-51 24.5t-25 45.5q0 29 41 70q6 4 18 5.5t21 -3.5q83 -53 154 -53 q58 0 85 35.5t27 86.5q0 77 -43 129t-141 119q-85 59 -125.5 104.5t-40.5 100.5q0 25 7.5 47t12.5 28.5t17 22.5q11 15 32.5 34t96.5 78q13 10 19 15q89 74 125 143.5t36 151.5q0 40 -15.5 81t-44 76.5t-75.5 58t-104 22.5q-104 0 -160 -66.5t-86 -208.5q-23 -112 -23 -559 q0 -255 9 -448q1 -34 15.5 -48.5t53.5 -25.5q45 -12 45 -31q0 -18 -45 -18q-13 0 -78 3t-86 3q-31 0 -79 -5t-60 -5q-49 0 -49 20z" />
<glyph unicode="&#xe0;" horiz-adv-x="782" d="M70 154q0 21 4 38.5t12.5 30.5t16.5 23t20.5 18t19.5 12.5t19 10t14 6.5q5 2 41 13.5t100 33t138 47.5q30 11 32 41q5 57 5 172q0 15 -8.5 37t-25.5 46t-48 41t-70 17q-19 0 -30.5 -1t-28.5 -7.5t-27 -18.5t-17.5 -36.5t-7.5 -59.5q0 -2 -7.5 -9.5t-12.5 -10.5 q-7 -5 -58.5 -31t-56.5 -26q-8 0 -14 6.5t-6 11.5q0 32 21.5 66t56 63.5t66 51t63.5 38.5q83 49 137 49q43 0 86 -20t74 -57q24 -27 36 -66.5t13.5 -65.5t1.5 -73v-13v-26q0 -18 -3.5 -120.5t-2.5 -178.5q0 -70 23.5 -99.5t58.5 -29.5q37 0 77 24q4 2 10.5 -2t6.5 -12 q0 -12 -8 -25q-54 -92 -170 -92q-99 0 -134 103q-1 3 -8 4.5t-8 -0.5q-146 -107 -240 -107q-65 0 -113 47.5t-48 135.5zM221 188q0 -53 32 -86.5t87 -33.5q77 0 115 41q28 28 28 227q0 6 -3.5 10t-6.5 4q-122 -29 -187 -66.5t-65 -95.5zM227 1229q1 14 27.5 39.5t36.5 25.5 q22 0 49 -82q45 -128 90 -274q12 -43 -2 -43q-15 0 -31 25q-84 130 -151 260q-19 37 -19 49z" />
<glyph unicode="&#xe1;" horiz-adv-x="782" d="M70 154q0 21 4 38.5t12.5 30.5t16.5 23t20.5 18t19.5 12.5t19 10t14 6.5q5 2 41 13.5t100 33t138 47.5q30 11 32 41q5 57 5 172q0 15 -8.5 37t-25.5 46t-48 41t-70 17q-19 0 -30.5 -1t-28.5 -7.5t-27 -18.5t-17.5 -36.5t-7.5 -59.5q0 -2 -7.5 -9.5t-12.5 -10.5 q-7 -5 -58.5 -31t-56.5 -26q-8 0 -14 6.5t-6 11.5q0 32 21.5 66t56 63.5t66 51t63.5 38.5q83 49 137 49q43 0 86 -20t74 -57q24 -27 36 -66.5t13.5 -65.5t1.5 -73v-13v-26q0 -18 -3.5 -120.5t-2.5 -178.5q0 -70 23.5 -99.5t58.5 -29.5q37 0 77 24q4 2 10.5 -2t6.5 -12 q0 -12 -8 -25q-54 -92 -170 -92q-99 0 -134 103q-1 3 -8 4.5t-8 -0.5q-146 -107 -240 -107q-65 0 -113 47.5t-48 135.5zM221 188q0 -53 32 -86.5t87 -33.5q77 0 115 41q28 28 28 227q0 6 -3.5 10t-6.5 4q-122 -29 -187 -66.5t-65 -95.5zM340 936q37 113 123 289q11 18 24 26 q14 7 42 15t44 8q39 0 0 -64q-94 -155 -202 -295q-17 -20 -29 -20q-14 0 -2 41z" />
<glyph unicode="&#xe2;" horiz-adv-x="782" d="M70 154q0 21 4 38.5t12.5 30.5t16.5 23t20.5 18t19.5 12.5t19 10t14 6.5q5 2 41 13.5t100 33t138 47.5q30 11 32 41q5 57 5 172q0 15 -8.5 37t-25.5 46t-48 41t-70 17q-19 0 -30.5 -1t-28.5 -7.5t-27 -18.5t-17.5 -36.5t-7.5 -59.5q0 -2 -7.5 -9.5t-12.5 -10.5 q-7 -5 -58.5 -31t-56.5 -26q-8 0 -14 6.5t-6 11.5q0 32 21.5 66t56 63.5t66 51t63.5 38.5q83 49 137 49q43 0 86 -20t74 -57q24 -27 36 -66.5t13.5 -65.5t1.5 -73v-13v-26q0 -18 -3.5 -120.5t-2.5 -178.5q0 -70 23.5 -99.5t58.5 -29.5q37 0 77 24q4 2 10.5 -2t6.5 -12 q0 -12 -8 -25q-54 -92 -170 -92q-99 0 -134 103q-1 3 -8 4.5t-8 -0.5q-146 -107 -240 -107q-65 0 -113 47.5t-48 135.5zM190 928q8 21 132 264q28 57 47 57q11 0 47 -67q8 -18 51.5 -101t71.5 -141q5 -15 7.5 -23t3.5 -15t-1.5 -10t-7.5 -3q-15 0 -37 26q-35 41 -131 175 q-3 4 -6.5 5.5t-6 1.5t-2.5 -1l-122 -170q-7 -11 -20 -23t-21 -12q-16 0 -5 37zM221 188q0 -53 32 -86.5t87 -33.5q77 0 115 41q28 28 28 227q0 6 -3.5 10t-6.5 4q-122 -29 -187 -66.5t-65 -95.5z" />
<glyph unicode="&#xe3;" horiz-adv-x="782" d="M70 154q0 21 4 38.5t12.5 30.5t16.5 23t20.5 18t19.5 12.5t19 10t14 6.5q5 2 41 13.5t100 33t138 47.5q30 11 32 41q5 57 5 172q0 15 -8.5 37t-25.5 46t-48 41t-70 17q-19 0 -30.5 -1t-28.5 -7.5t-27 -18.5t-17.5 -36.5t-7.5 -59.5q0 -2 -7.5 -9.5t-12.5 -10.5 q-7 -5 -58.5 -31t-56.5 -26q-8 0 -14 6.5t-6 11.5q0 32 21.5 66t56 63.5t66 51t63.5 38.5q83 49 137 49q43 0 86 -20t74 -57q24 -27 36 -66.5t13.5 -65.5t1.5 -73v-13v-26q0 -18 -3.5 -120.5t-2.5 -178.5q0 -70 23.5 -99.5t58.5 -29.5q37 0 77 24q4 2 10.5 -2t6.5 -12 q0 -12 -8 -25q-54 -92 -170 -92q-99 0 -134 103q-1 3 -8 4.5t-8 -0.5q-146 -107 -240 -107q-65 0 -113 47.5t-48 135.5zM130.5 987q1.5 9 6.5 19q3 7 15 24t42 48t62 50q20 10 31 7q23 -6 90 -16.5t100 -10.5q61 0 115 61q10 9 14 5q3 0 4.5 -5t-1 -15t-9.5 -21 q-15 -26 -49.5 -60.5t-71.5 -54.5q-17 -10 -28 -10q-10 0 -88 14t-119 14q-14 0 -40.5 -17.5t-41.5 -37.5q-10 -14 -25 -14q-4 0 -6 5.5t-0.5 14.5zM221 188q0 -53 32 -86.5t87 -33.5q77 0 115 41q28 28 28 227q0 6 -3.5 10t-6.5 4q-122 -29 -187 -66.5t-65 -95.5z" />
<glyph unicode="&#xe4;" horiz-adv-x="782" d="M70 154q0 21 4 38.5t12.5 30.5t16.5 23t20.5 18t19.5 12.5t19 10t14 6.5q5 2 41 13.5t100 33t138 47.5q30 11 32 41q5 57 5 172q0 15 -8.5 37t-25.5 46t-48 41t-70 17q-19 0 -30.5 -1t-28.5 -7.5t-27 -18.5t-17.5 -36.5t-7.5 -59.5q0 -2 -7.5 -9.5t-12.5 -10.5 q-7 -5 -58.5 -31t-56.5 -26q-8 0 -14 6.5t-6 11.5q0 32 21.5 66t56 63.5t66 51t63.5 38.5q83 49 137 49q43 0 86 -20t74 -57q24 -27 36 -66.5t13.5 -65.5t1.5 -73v-13v-26q0 -18 -3.5 -120.5t-2.5 -178.5q0 -70 23.5 -99.5t58.5 -29.5q37 0 77 24q4 2 10.5 -2t6.5 -12 q0 -12 -8 -25q-54 -92 -170 -92q-99 0 -134 103q-1 3 -8 4.5t-8 -0.5q-146 -107 -240 -107q-65 0 -113 47.5t-48 135.5zM154 1090q0 31 25 57.5t52 26.5q34 0 57 -22t23 -56q0 -38 -23 -59t-57 -21t-55.5 22.5t-21.5 51.5zM221 188q0 -53 32 -86.5t87 -33.5q77 0 115 41 q28 28 28 227q0 6 -3.5 10t-6.5 4q-122 -29 -187 -66.5t-65 -95.5zM442 1085q0 39 24 65t60 26q30 0 49 -23t19 -55q0 -31 -23 -55.5t-55 -24.5q-31 0 -52.5 21t-21.5 46z" />
<glyph unicode="&#xe5;" horiz-adv-x="782" d="M70 154q0 21 4 38.5t12.5 30.5t16.5 23t20.5 18t19.5 12.5t19 10t14 6.5q5 2 41 13.5t100 33t138 47.5q30 11 32 41q5 57 5 172q0 15 -8.5 37t-25.5 46t-48 41t-70 17q-19 0 -30.5 -1t-28.5 -7.5t-27 -18.5t-17.5 -36.5t-7.5 -59.5q0 -2 -7.5 -9.5t-12.5 -10.5 q-7 -5 -58.5 -31t-56.5 -26q-8 0 -14 6.5t-6 11.5q0 32 21.5 66t56 63.5t66 51t63.5 38.5q83 49 137 49q43 0 86 -20t74 -57q24 -27 36 -66.5t13.5 -65.5t1.5 -73v-13v-26q0 -18 -3.5 -120.5t-2.5 -178.5q0 -70 23.5 -99.5t58.5 -29.5q37 0 77 24q4 2 10.5 -2t6.5 -12 q0 -12 -8 -25q-54 -92 -170 -92q-99 0 -134 103q-1 3 -8 4.5t-8 -0.5q-146 -107 -240 -107q-65 0 -113 47.5t-48 135.5zM221 188q0 -53 32 -86.5t87 -33.5q77 0 115 41q28 28 28 227q0 6 -3.5 10t-6.5 4q-122 -29 -187 -66.5t-65 -95.5zM248 1077q0 60 39.5 104t103.5 44 q58 0 99.5 -43t41.5 -101t-40.5 -99.5t-102.5 -41.5q-60 0 -100.5 40t-40.5 97zM307 1081q0 -40 25.5 -67t58.5 -27q35 0 58.5 26t23.5 72q0 38 -23.5 64.5t-58.5 26.5q-36 0 -60 -28t-24 -67z" />
<glyph unicode="&#xe6;" horiz-adv-x="1167" d="M70 156q0 51 22 88t86 65q31 14 68 28.5t103.5 39.5t131.5 51q7 3 16 14.5t9 18.5q4 62 4 90q-3 119 -51 158q-36 36 -111 36q-54 0 -102 -30q-3 -2 -10 -38.5t-7 -60.5q0 -13 -41 -34q-74 -41 -98 -41q-6 0 -12 6t-6 18q0 18 13 47t32 50q63 65 153 115t168 50 q62 0 118 -35t81 -87q7 -14 18 -3q129 125 273 125q94 0 149.5 -50.5t55.5 -123.5q0 -14 -9.5 -30.5t-21.5 -20.5q-261 -86 -434 -156q-17 -7 -17 -30q0 -82 2 -111q3 -54 13 -84.5t36 -60.5q58 -78 195 -78q56 0 121.5 30t99.5 62q6 4 10.5 1t4.5 -7q0 -21 -15 -51 q-37 -59 -129.5 -102.5t-167.5 -43.5q-106 2 -179 35.5t-118 114.5q-2 5 -9.5 7.5t-10.5 -1.5q-193 -156 -283 -156q-56 0 -104 51t-47 134zM215 199q-1 -50 29.5 -82.5t77.5 -32.5q89 0 163 74q12 12 17 53q4 39 4 162q0 5 -3.5 11t-10.5 3q-99 -26 -170 -65 q-104 -55 -107 -123zM651 510q0 -6 7 -11t12 -3q153 49 250 96q24 10 39.5 29.5t15.5 31.5q0 36 -26 70t-81 35q-88 0 -172 -74q-12 -12 -26.5 -36.5t-14.5 -43.5q-4 -46 -4 -94z" />
<glyph unicode="&#xe7;" horiz-adv-x="819" d="M72 371q0 243 184 366q49 35 125 62.5t149 27.5q68 0 127 -14.5t84 -34.5q21 -21 21 -47q0 -20 -14.5 -52t-28.5 -32q-12 0 -55 37q-50 45 -96.5 69.5t-108.5 24.5q-49 0 -99.5 -34.5t-83.5 -77.5q-24 -32 -39.5 -91.5t-15.5 -130.5q0 -56 20.5 -116.5t59 -116.5 t104 -92.5t146.5 -36.5q48 0 86 9t65.5 26.5t41.5 30t32 32.5q6 5 11.5 1t5.5 -9q0 -35 -35 -70q-84 -97 -228 -122l-53 -82q-7 -8 0 -15q103 -43 103 -123q0 -83 -97 -155q-68 -45 -118 -45q-43 0 -43 24q0 6 18 27q18 18 27 14q32 -8 57 -8q31 0 52.5 24t21.5 52 q0 37 -31 63.5t-74 26.5h-28q-6 0 -12.5 5.5t-6.5 8.5q0 15 14 29q48 45 127 147q-10 -2 -34 -2q-161 0 -273 117q-55 56 -81.5 133t-26.5 150z" />
<glyph unicode="&#xe8;" horiz-adv-x="772" d="M72 375q0 76 17.5 145t67 140.5t128.5 117.5q68 45 180 45t182 -67t70 -170q0 -17 -18 -28t-44 -9q-311 13 -419 0q-16 -3 -25 -29q-6 -12 -6 -84q0 -79 38.5 -158t112 -134.5t160.5 -55.5q79 0 122 27t81 80q9 12 17.5 10t8.5 -21q0 -24 -28 -57q-58 -74 -138 -115 t-157 -41q-108 0 -189.5 57.5t-121 148t-39.5 198.5zM223 602q0 -4 3 -9t7 -5q49 0 148 2t119 2q40 5 56 18t15 47q-1 52 -45.5 91.5t-85.5 39.5q-66 0 -127 -51t-90 -135zM266 1229q1 14 27.5 39.5t36.5 25.5q22 0 49 -82q45 -128 90 -274q12 -43 -2 -43q-15 0 -31 25 q-84 130 -151 260q-19 37 -19 49z" />
<glyph unicode="&#xe9;" horiz-adv-x="772" d="M72 375q0 76 17.5 145t67 140.5t128.5 117.5q68 45 180 45t182 -67t70 -170q0 -17 -18 -28t-44 -9q-311 13 -419 0q-16 -3 -25 -29q-6 -12 -6 -84q0 -79 38.5 -158t112 -134.5t160.5 -55.5q79 0 122 27t81 80q9 12 17.5 10t8.5 -21q0 -24 -28 -57q-58 -74 -138 -115 t-157 -41q-108 0 -189.5 57.5t-121 148t-39.5 198.5zM223 602q0 -4 3 -9t7 -5q49 0 148 2t119 2q40 5 56 18t15 47q-1 52 -45.5 91.5t-85.5 39.5q-66 0 -127 -51t-90 -135zM385 936q37 113 123 289q11 18 24 26q14 7 42 15t44 8q39 0 0 -64q-94 -155 -202 -295 q-17 -20 -29 -20q-14 0 -2 41z" />
<glyph unicode="&#xea;" horiz-adv-x="772" d="M72 375q0 76 17.5 145t67 140.5t128.5 117.5q68 45 180 45t182 -67t70 -170q0 -17 -18 -28t-44 -9q-311 13 -419 0q-16 -3 -25 -29q-6 -12 -6 -84q0 -79 38.5 -158t112 -134.5t160.5 -55.5q79 0 122 27t81 80q9 12 17.5 10t8.5 -21q0 -24 -28 -57q-58 -74 -138 -115 t-157 -41q-108 0 -189.5 57.5t-121 148t-39.5 198.5zM223 602q0 -4 3 -9t7 -5q49 0 148 2t119 2q40 5 56 18t15 47q-1 52 -45.5 91.5t-85.5 39.5q-66 0 -127 -51t-90 -135zM258 938q10 28 131 264q28 58 47 58q11 0 47 -68q8 -18 51.5 -101t71.5 -141q5 -15 7.5 -23t3.5 -15 t-1.5 -10t-7.5 -3q-14 0 -37 27q-40 48 -131 174q-3 4 -6.5 5.5t-5.5 1.5t-2 -1l-123 -170q-7 -11 -20 -23t-21 -12q-15 0 -4 37z" />
<glyph unicode="&#xeb;" horiz-adv-x="772" d="M72 375q0 76 17.5 145t67 140.5t128.5 117.5q68 45 180 45t182 -67t70 -170q0 -17 -18 -28t-44 -9q-311 13 -419 0q-16 -3 -25 -29q-6 -12 -6 -84q0 -79 38.5 -158t112 -134.5t160.5 -55.5q79 0 122 27t81 80q9 12 17.5 10t8.5 -21q0 -24 -28 -57q-58 -74 -138 -115 t-157 -41q-108 0 -189.5 57.5t-121 148t-39.5 198.5zM217 1098q0 31 25.5 57.5t52.5 26.5q34 0 57 -22t23 -56q0 -38 -23 -59t-57 -21t-56 22.5t-22 51.5zM223 602q0 -4 3 -9t7 -5q49 0 148 2t119 2q40 5 56 18t15 47q-1 52 -45.5 91.5t-85.5 39.5q-66 0 -127 -51t-90 -135z M506 1094q0 39 23.5 64.5t60.5 25.5q30 0 48.5 -23t18.5 -55q0 -31 -22.5 -55.5t-54.5 -24.5q-31 0 -52.5 21.5t-21.5 46.5z" />
<glyph unicode="&#xec;" horiz-adv-x="479" d="M41 8q0 16 41 25q43 10 64 28t24 54q6 43 6 323q0 103 -6 178q-2 20 -11 35t-18 23t-37 31q-2 1 -7 4t-6 5t-1 7q0 7 10.5 15.5t24.5 13.5q28 11 75 32t77 34t36 13t10.5 -8t4.5 -16q-6 -71 -6 -369q0 -268 4 -321q3 -36 21 -50t71 -26q41 -8 41 -23q0 -22 -47 -22 q-30 0 -82.5 3t-87.5 3q-41 0 -88.5 -5t-71.5 -5q-41 0 -41 18zM61 1229q1 14 27.5 39.5t36.5 25.5q22 0 49 -82q45 -128 90 -274q12 -43 -2 -43q-15 0 -31 25q-84 130 -151 260q-19 37 -19 49z" />
<glyph unicode="&#xed;" horiz-adv-x="479" d="M41 8q0 16 41 25q43 10 64 28t24 54q6 43 6 323q0 103 -6 178q-2 20 -11 35t-18 23t-37 31q-2 1 -7 4t-6 5t-1 7q0 7 10.5 15.5t24.5 13.5q28 11 75 32t77 34t36 13t10.5 -8t4.5 -16q-6 -71 -6 -369q0 -268 4 -321q3 -36 21 -50t71 -26q41 -8 41 -23q0 -22 -47 -22 q-30 0 -82.5 3t-87.5 3q-41 0 -88.5 -5t-71.5 -5q-41 0 -41 18zM211 936q37 113 123 289q11 18 24 26q14 7 42 15t44 8q39 0 0 -64q-94 -155 -202 -295q-17 -20 -29 -20q-14 0 -2 41z" />
<glyph unicode="&#xee;" horiz-adv-x="479" d="M41 8q0 16 41 25q43 10 64 28t24 54q6 43 6 323q0 103 -6 178q-2 20 -11 35t-18 23t-37 31q-2 1 -7 4t-6 5t-1 7q0 7 10.5 15.5t24.5 13.5q28 11 75 32t77 34t36 13t10.5 -8t4.5 -16q-6 -71 -6 -369q0 -268 4 -321q3 -36 21 -50t71 -26q41 -8 41 -23q0 -22 -47 -22 q-30 0 -82.5 3t-87.5 3q-41 0 -88.5 -5t-71.5 -5q-41 0 -41 18zM61 938q8 21 132 264q28 58 47 58q11 0 47 -68q8 -18 51.5 -101t71.5 -141q5 -15 7.5 -23t3.5 -15t-1.5 -10t-7.5 -3q-14 0 -37 27q-40 48 -131 174q-3 4 -6.5 5.5t-6 1.5t-2.5 -1l-123 -170q-23 -35 -40 -35 q-16 0 -5 37z" />
<glyph unicode="&#xef;" horiz-adv-x="479" d="M18 1098q0 31 25.5 57.5t52.5 26.5q34 0 57 -22t23 -56q0 -38 -23 -59t-57 -21t-56 22.5t-22 51.5zM41 8q0 16 41 25q43 10 64 28t24 54q6 43 6 323q0 103 -6 178q-2 20 -11 35t-18 23t-37 31q-2 1 -7 4t-6 5t-1 7q0 7 10.5 15.5t24.5 13.5q28 11 75 32t77 34t36 13 t10.5 -8t4.5 -16q-6 -71 -6 -369q0 -268 4 -321q3 -36 21 -50t71 -26q41 -8 41 -23q0 -22 -47 -22q-30 0 -82.5 3t-87.5 3q-41 0 -88.5 -5t-71.5 -5q-41 0 -41 18zM307 1094q0 39 23.5 64.5t60.5 25.5q30 0 49 -23t19 -55q0 -31 -23 -55.5t-55 -24.5q-31 0 -52.5 21.5 t-21.5 46.5z" />
<glyph unicode="&#xf0;" horiz-adv-x="964" d="M72 397q0 145 80 258q57 75 154.5 123.5t201.5 48.5q96 0 176 -26q5 -2 12 8.5t6 17.5q-42 201 -133 312q-2 3 -7.5 6t-8.5 2q-23 -11 -88 -36.5t-107 -47.5q-13 -7 -24 -4q-3 2 -11 15.5t-8 17.5q0 12 4 14l193 90q6 3 0 14q-150 163 -332 207q-12 4 -25.5 12t-13.5 15 t12 12.5t25 5.5q103 -4 220.5 -62t211.5 -138q15 -11 23 -7q46 23 170 76q4 1 10 -2q12 -16 12 -31q0 -12 -30 -26l-119 -64q-1 0 -2.5 -2t-2 -4.5t2.5 -5.5q104 -126 158.5 -309.5t54.5 -362.5q0 -99 -18 -183t-49 -141t-62 -94.5t-66 -64.5q-88 -70 -225 -70 q-108 0 -199.5 59.5t-143.5 157.5t-52 209zM238 399q0 -65 16 -130t47 -122.5t84.5 -93t120.5 -35.5q97 0 166 123q31 55 47 161t16 196q0 59 -13.5 109t-35.5 75q-47 49 -104 74.5t-99 25.5q-44 0 -93 -30t-83 -90q-69 -112 -69 -263z" />
<glyph unicode="&#xf1;" horiz-adv-x="1007" d="M51 14q0 19 37 27q41 9 56.5 28t17.5 54q14 259 14 446q0 76 -10 104.5t-53 53.5q-17 10 -17 21q0 14 34 22q2 1 3.5 1.5t3.5 0.5q15 3 34.5 11t33.5 14.5t36 17t31 14.5q19 11 31 11q10 0 10 -29q0 -21 -1 -60t-1 -40v-3.5t1 -5t2.5 -3.5t4.5 1q60 48 137 85.5t150 37.5 q59 0 106.5 -22t71.5 -53q38 -46 50.5 -102t15.5 -183l6 -318q2 -52 17 -74t59 -32q37 -12 37 -29q0 -18 -54 -18q-10 0 -65.5 4t-85.5 4q-24 0 -68.5 -3t-64.5 -3q-45 0 -45 22q0 17 55 31q28 7 39.5 21t16 45.5t5.5 107.5l5 185q1 123 -8 176.5t-33 87.5 q-24 30 -65.5 49.5t-86.5 19.5q-113 0 -186 -77q-5 -5 -9 -26.5t-4 -27.5q0 -346 2 -409q2 -88 16 -118t68 -42q39 -8 39 -25q0 -20 -47 -20q-32 0 -83.5 3t-73.5 3q-26 0 -69.5 -3t-66.5 -3q-49 0 -49 20zM263.5 999q1.5 9 6.5 19q4 7 15.5 24.5t41.5 48.5t62 50q18 9 31 6 q23 -6 90 -16.5t100 -10.5q60 0 115 62q9 9 14 4q3 0 4.5 -5t-1 -15t-9.5 -21q-15 -26 -49.5 -60.5t-71.5 -54.5q-17 -10 -28 -10q-10 0 -88 14.5t-119 14.5q-14 0 -40.5 -18t-41.5 -38q-11 -14 -25 -14q-4 0 -6 5.5t-0.5 14.5z" />
<glyph unicode="&#xf2;" horiz-adv-x="976" d="M72 391q0 183 121 307q60 60 138 94.5t152 34.5q174 0 299 -117t125 -296q0 -232 -190 -367q-50 -36 -108 -56t-105 -20q-182 0 -307 120.5t-125 299.5zM238 414q0 -100 30 -188.5t93.5 -148t148.5 -59.5q26 0 67.5 19.5t73.5 62.5q86 115 86 295q0 61 -18.5 127.5 t-51.5 124.5t-85 95.5t-111 37.5q-45 0 -83.5 -20.5t-76.5 -77.5q-73 -99 -73 -268zM336 1229q1 14 27 39.5t36 25.5q23 0 50 -82q45 -128 90 -274q12 -43 -2 -43q-15 0 -31 25q-89 138 -152 260q-18 35 -18 49z" />
<glyph unicode="&#xf3;" horiz-adv-x="976" d="M72 391q0 183 121 307q60 60 138 94.5t152 34.5q174 0 299 -117t125 -296q0 -232 -190 -367q-50 -36 -108 -56t-105 -20q-182 0 -307 120.5t-125 299.5zM238 414q0 -100 30 -188.5t93.5 -148t148.5 -59.5q26 0 67.5 19.5t73.5 62.5q86 115 86 295q0 61 -18.5 127.5 t-51.5 124.5t-85 95.5t-111 37.5q-45 0 -83.5 -20.5t-76.5 -77.5q-73 -99 -73 -268zM436 936q37 113 123 289q10 17 25 26q14 7 42 15t44 8q39 0 0 -64q-35 -59 -97 -148.5t-106 -146.5q-17 -20 -29 -20q-14 0 -2 41z" />
<glyph unicode="&#xf4;" horiz-adv-x="976" d="M72 391q0 183 121 307q60 60 138 94.5t152 34.5q174 0 299 -117t125 -296q0 -232 -190 -367q-50 -36 -108 -56t-105 -20q-182 0 -307 120.5t-125 299.5zM238 414q0 -100 30 -188.5t93.5 -148t148.5 -59.5q26 0 67.5 19.5t73.5 62.5q86 115 86 295q0 61 -18.5 127.5 t-51.5 124.5t-85 95.5t-111 37.5q-45 0 -83.5 -20.5t-76.5 -77.5q-73 -99 -73 -268zM309 938q10 28 131 264q28 58 47 58q12 0 48 -68q8 -19 51.5 -102t70.5 -140q5 -15 7.5 -23t3.5 -15t-1.5 -10t-7.5 -3q-13 0 -36 27q-40 48 -131 174q-3 4 -6.5 5.5t-6 1.5t-2.5 -1 l-123 -170q-7 -11 -20 -23t-21 -12q-15 0 -4 37z" />
<glyph unicode="&#xf5;" horiz-adv-x="976" d="M72 391q0 183 121 307q60 60 138 94.5t152 34.5q174 0 299 -117t125 -296q0 -232 -190 -367q-50 -36 -108 -56t-105 -20q-182 0 -307 120.5t-125 299.5zM238 414q0 -100 30 -188.5t93.5 -148t148.5 -59.5q26 0 67.5 19.5t73.5 62.5q86 115 86 295q0 61 -18.5 127.5 t-51.5 124.5t-85 95.5t-111 37.5q-45 0 -83.5 -20.5t-76.5 -77.5q-73 -99 -73 -268zM247.5 987q1.5 9 6.5 19q3 7 15 24t42 48t62 50q19 10 30 7q23 -6 90.5 -16.5t100.5 -10.5q61 0 115 61q9 9 14 5q3 0 4.5 -5t-1 -15t-9.5 -21q-15 -26 -49.5 -60.5t-71.5 -54.5 q-17 -10 -29 -10q-10 0 -88 14t-119 14q-14 0 -40 -17.5t-41 -37.5q-11 -14 -25 -14q-4 0 -6 5.5t-0.5 14.5z" />
<glyph unicode="&#xf6;" horiz-adv-x="976" d="M72 391q0 183 121 307q60 60 138 94.5t152 34.5q174 0 299 -117t125 -296q0 -232 -190 -367q-50 -36 -108 -56t-105 -20q-182 0 -307 120.5t-125 299.5zM238 414q0 -100 30 -188.5t93.5 -148t148.5 -59.5q26 0 67.5 19.5t73.5 62.5q86 115 86 295q0 61 -18.5 127.5 t-51.5 124.5t-85 95.5t-111 37.5q-45 0 -83.5 -20.5t-76.5 -77.5q-73 -99 -73 -268zM266 1098q0 31 25.5 57.5t52.5 26.5q34 0 57 -22t23 -56q0 -38 -23 -59t-57 -21t-56 22.5t-22 51.5zM555 1094q0 39 23.5 64.5t60.5 25.5q30 0 49 -23t19 -55q0 -31 -23 -55.5t-55 -24.5 q-31 0 -52.5 21.5t-21.5 46.5z" />
<glyph unicode="&#xf7;" horiz-adv-x="1064" d="M94 422q0 30 10 53q7 14 15 14l839 -2q5 0 9 -8.5t4 -13.5q0 -40 -8 -53q-7 -13 -21 -13l-819 -2q-29 0 -29 25zM442 150q0 32 28 61t60 29q37 0 62.5 -26.5t25.5 -59.5q0 -38 -27.5 -67.5t-60.5 -29.5q-38 0 -63 27t-25 66zM444 723q0 40 29 67t57 27q39 0 66 -27.5 t27 -66.5q0 -36 -27 -61t-66 -25q-33 0 -59.5 25.5t-26.5 60.5z" />
<glyph unicode="&#xf8;" horiz-adv-x="974" d="M72 391q0 186 121 307q60 59 138.5 94t151.5 35q122 0 232 -65q9 -6 14 4l49 63q2 3 10.5 5.5t14.5 -0.5t18 -15q8 -8 0 -16l-47 -64q-7 -13 -2 -18q133 -123 133 -303q0 -134 -52 -224.5t-130 -142.5q-107 -80 -223 -80q-133 0 -240 72q-3 3 -12 -6l-62 -80 q-6 -12 -14 -4q-10 6 -18 22q-4 13 2 19l53 69q2 5 1 11t-3 8q-64 58 -99.5 138t-35.5 171zM231 414q0 -129 56 -238q0 -1 1.5 -2t3.5 -0.5t3 2.5q45 60 168 229.5t190 258.5q3 3 2 10t-4 10q-77 98 -164 98q-111 0 -182 -100q-74 -104 -74 -268zM322 115q77 -97 184 -97 q102 0 170 88q67 96 67 291q0 108 -47 215q-3 4 -8 4t-8 -4q-149 -196 -358 -479q-5 -8 0 -18z" />
<glyph unicode="&#xf9;" horiz-adv-x="970" d="M51 782q0 17 43 17q64 0 131 5t80 5q2 0 4.5 -4.5t4.5 -12t1 -14.5q-10 -225 -10 -493q0 -72 13.5 -114t46.5 -65q48 -31 129 -28q14 0 26.5 1.5t22 3t20 6t16.5 6.5t14.5 8t12 7.5t11.5 9t9 9t9 9.5l8 9q23 31 23 101q0 340 -2 424q0 59 -33 69q-16 7 -53 17 q-41 7 -41 28q0 13 36 13q143 0 183 6q24 4 47 4q14 0 14 -57q0 -24 -1.5 -84t-3 -184.5t-1.5 -305.5q0 -71 8.5 -94t34.5 -23q17 0 64.5 9.5t48.5 9.5q4 0 8 -5t4 -9q0 -36 -18 -39q-109 -15 -234 -54q-21 -8 -43 -8q-6 0 -12 12t-6 25q0 25 2 65t2 46q0 3 -5 4.5t-6 -0.5 q-105 -88 -155 -113q-65 -33 -135 -33q-47 0 -91.5 19t-72.5 51q-49 52 -49 160q0 48 1 173t0.5 195.5t-3.5 98.5q-1 7 -2 20t-1.5 16.5t-3 12t-6 11t-11 8t-17.5 9.5t-25 9q-37 14 -37 28zM299 1231q1 14 27 39.5t36 25.5q23 0 50 -82q45 -128 90 -274q12 -43 -2 -43 q-15 0 -31 25q-89 138 -152 260q-18 35 -18 49z" />
<glyph unicode="&#xfa;" horiz-adv-x="970" d="M51 782q0 17 43 17q64 0 131 5t80 5q2 0 4.5 -4.5t4.5 -12t1 -14.5q-10 -225 -10 -493q0 -72 13.5 -114t46.5 -65q48 -31 129 -28q14 0 26.5 1.5t22 3t20 6t16.5 6.5t14.5 8t12 7.5t11.5 9t9 9t9 9.5l8 9q23 31 23 101q0 340 -2 424q0 59 -33 69q-16 7 -53 17 q-41 7 -41 28q0 13 36 13q143 0 183 6q24 4 47 4q14 0 14 -57q0 -24 -1.5 -84t-3 -184.5t-1.5 -305.5q0 -71 8.5 -94t34.5 -23q17 0 64.5 9.5t48.5 9.5q4 0 8 -5t4 -9q0 -36 -18 -39q-109 -15 -234 -54q-21 -8 -43 -8q-6 0 -12 12t-6 25q0 25 2 65t2 46q0 3 -5 4.5t-6 -0.5 q-105 -88 -155 -113q-65 -33 -135 -33q-47 0 -91.5 19t-72.5 51q-49 52 -49 160q0 48 1 173t0.5 195.5t-3.5 98.5q-1 7 -2 20t-1.5 16.5t-3 12t-6 11t-11 8t-17.5 9.5t-25 9q-37 14 -37 28zM432 936q37 113 123 289q10 17 25 26q14 7 42 15t44 8q39 0 0 -64 q-35 -59 -97 -148.5t-106 -146.5q-17 -20 -29 -20q-14 0 -2 41z" />
<glyph unicode="&#xfb;" horiz-adv-x="970" d="M51 782q0 17 43 17q64 0 131 5t80 5q2 0 4.5 -4.5t4.5 -12t1 -14.5q-10 -225 -10 -493q0 -72 13.5 -114t46.5 -65q48 -31 129 -28q14 0 26.5 1.5t22 3t20 6t16.5 6.5t14.5 8t12 7.5t11.5 9t9 9t9 9.5l8 9q23 31 23 101q0 340 -2 424q0 59 -33 69q-16 7 -53 17 q-41 7 -41 28q0 13 36 13q143 0 183 6q24 4 47 4q14 0 14 -57q0 -24 -1.5 -84t-3 -184.5t-1.5 -305.5q0 -71 8.5 -94t34.5 -23q17 0 64.5 9.5t48.5 9.5q4 0 8 -5t4 -9q0 -36 -18 -39q-109 -15 -234 -54q-21 -8 -43 -8q-6 0 -12 12t-6 25q0 25 2 65t2 46q0 3 -5 4.5t-6 -0.5 q-105 -88 -155 -113q-65 -33 -135 -33q-47 0 -91.5 19t-72.5 51q-49 52 -49 160q0 48 1 173t0.5 195.5t-3.5 98.5q-1 7 -2 20t-1.5 16.5t-3 12t-6 11t-11 8t-17.5 9.5t-25 9q-37 14 -37 28zM305 938q10 28 131 264q28 58 47 58q11 0 47 -68q8 -18 51.5 -101t71.5 -141 q5 -15 7.5 -23t3.5 -15t-1.5 -10t-7.5 -3q-15 0 -37 27q-40 48 -131 174q-3 4 -6.5 5.5t-5.5 1.5t-2 -1l-123 -170q-7 -11 -20 -23t-21 -12q-15 0 -4 37z" />
<glyph unicode="&#xfc;" horiz-adv-x="970" d="M51 782q0 17 43 17q64 0 131 5t80 5q2 0 4.5 -4.5t4.5 -12t1 -14.5q-10 -225 -10 -493q0 -72 13.5 -114t46.5 -65q48 -31 129 -28q14 0 26.5 1.5t22 3t20 6t16.5 6.5t14.5 8t12 7.5t11.5 9t9 9t9 9.5l8 9q23 31 23 101q0 340 -2 424q0 59 -33 69q-16 7 -53 17 q-41 7 -41 28q0 13 36 13q143 0 183 6q24 4 47 4q14 0 14 -57q0 -24 -1.5 -84t-3 -184.5t-1.5 -305.5q0 -71 8.5 -94t34.5 -23q17 0 64.5 9.5t48.5 9.5q4 0 8 -5t4 -9q0 -36 -18 -39q-109 -15 -234 -54q-21 -8 -43 -8q-6 0 -12 12t-6 25q0 25 2 65t2 46q0 3 -5 4.5t-6 -0.5 q-105 -88 -155 -113q-65 -33 -135 -33q-47 0 -91.5 19t-72.5 51q-49 52 -49 160q0 48 1 173t0.5 195.5t-3.5 98.5q-1 7 -2 20t-1.5 16.5t-3 12t-6 11t-11 8t-17.5 9.5t-25 9q-37 14 -37 28zM262 1098q0 31 25.5 57.5t52.5 26.5q34 0 57 -22t23 -56q0 -38 -23 -59t-57 -21 t-56 22.5t-22 51.5zM551 1094q0 39 23.5 64.5t60.5 25.5q30 0 48.5 -23t18.5 -55q0 -31 -22.5 -55.5t-54.5 -24.5q-31 0 -52.5 21.5t-21.5 46.5z" />
<glyph unicode="&#xfd;" horiz-adv-x="796" d="M-29 791q0 14 43 14q19 0 76 -3t78 -3q29 0 88 3t72 3q37 0 37 -17q0 -12 -48 -24q-43 -11 -50 -36.5t18 -102.5q1 -3 37.5 -104t72.5 -195.5t49 -118.5q2 -5 6 -6t7 6q90 196 188 452q30 82 -65 103q-41 9 -41 26t41 17q14 0 55 -3t59 -3q14 0 61.5 3t63.5 3 q35 0 35 -21q0 -2 -1 -4t-5 -4t-7 -3t-10.5 -4t-13.5 -5q-35 -13 -55.5 -32t-42.5 -58q-14 -27 -133.5 -297t-155.5 -336q-10 -18 -61 -139q-20 -42 -72 -168t-90 -207q-12 -29 -37 -42t-49 -13q-33 0 -60.5 22.5t-27.5 65.5q0 39 23 63.5t63 24.5q4 0 24 -4t25 -4 q12 0 51 61q20 33 64.5 137t60.5 154q8 24 2 49q-2 5 -9 24t-17 49t-21 64q-12 37 -39 105t-74.5 186t-62.5 156q-26 70 -48 100.5t-63 38.5q-41 9 -41 27zM408 936q39 119 122 289q10 17 25 26q14 7 42 15t44 8q39 0 0 -64q-35 -59 -97 -148.5t-106 -146.5q-17 -20 -28 -20 q-14 0 -2 41z" />
<glyph unicode="&#xfe;" horiz-adv-x="976" d="M25 -516q0 15 43 24q46 9 64.5 32t19.5 77q1 17 3.5 394t2.5 517q0 189 -5 438t-12 320q-2 19 -11 32t-42 38q-25 19 -25 24q0 21 48 31q104 24 149 43q21 8 33 8q15 0 12 -45q-12 -286 -8 -672q0 -4 4.5 -8t9.5 0q135 82 267 82q125 0 231 -106q42 -42 70 -118.5 t28 -139.5q0 -141 -76.5 -250t-197.5 -170q-45 -23 -115 -36t-104 -13q-53 0 -99 4q-6 0 -11 -6t-5 -15q0 -263 6 -346q3 -60 28 -87.5t97 -31.5q45 -3 45 -24q0 -19 -47 -19q-24 0 -98 4.5t-103 4.5t-86 -3.5t-73 -3.5q-43 0 -43 21zM303 649q0 -404 12 -465 q2 -12 11 -33.5t16 -27.5q36 -34 84 -55t94 -21q32 0 92 29q50 23 91.5 125t41.5 192q0 170 -77 250q-32 36 -89.5 62t-127.5 26q-89 0 -125 -20q-8 -6 -15.5 -25t-7.5 -37z" />
<glyph unicode="&#xff;" horiz-adv-x="796" d="M-29 791q0 14 43 14q19 0 76 -3t78 -3q29 0 88 3t72 3q37 0 37 -17q0 -12 -48 -24q-43 -11 -50 -36.5t18 -102.5q1 -3 37.5 -104t72.5 -195.5t49 -118.5q2 -5 6 -6t7 6q90 196 188 452q30 82 -65 103q-41 9 -41 26t41 17q14 0 55 -3t59 -3q14 0 61.5 3t63.5 3 q35 0 35 -21q0 -2 -1 -4t-5 -4t-7 -3t-10.5 -4t-13.5 -5q-35 -13 -55.5 -32t-42.5 -58q-14 -27 -133.5 -297t-155.5 -336q-10 -18 -61 -139q-20 -42 -72 -168t-90 -207q-12 -29 -37 -42t-49 -13q-33 0 -60.5 22.5t-27.5 65.5q0 39 23 63.5t63 24.5q4 0 24 -4t25 -4 q12 0 51 61q20 33 64.5 137t60.5 154q8 24 2 49q-2 5 -9 24t-17 49t-21 64q-12 37 -39 105t-74.5 186t-62.5 156q-26 70 -48 100.5t-63 38.5q-41 9 -41 27zM213 1098q0 31 25.5 57.5t52.5 26.5q34 0 57 -22t23 -56q0 -38 -23 -59t-57 -21t-56 22.5t-22 51.5zM502 1094 q0 39 23.5 64.5t60.5 25.5q30 0 48.5 -23t18.5 -55q0 -31 -23 -55.5t-55 -24.5q-31 0 -52 21.5t-21 46.5z" />
<glyph unicode="&#x152;" horiz-adv-x="2220" d="M94 670q0 91 21 173.5t52 141.5t73.5 111t78.5 83t74 56q183 117 379 117q345 0 541 -234q2 -4 4.5 -6t4 -1t1.5 7q-8 144 -8 170q0 20 3 25.5t13 5.5q33 -2 133 -2h181q86 0 154 3t94 5.5t69.5 9t46.5 6.5q6 0 15.5 -11.5t9.5 -18.5q0 -2 10 -89t10 -118q0 -13 -8.5 -24 t-15.5 -11q-14 0 -37 74q-17 55 -50 78.5t-98 29.5q-67 6 -334 6q-21 0 -28 -38q-4 -23 -7.5 -221t-0.5 -240q3 -35 16 -35h115q101 0 148.5 9t71 33.5t36.5 78.5q3 16 11 29.5t15 13.5q24 0 21 -49q-4 -90 -4 -152q0 -90 8 -176q0 -20 -6 -30.5t-13 -10.5q-19 0 -32 51 q-12 57 -35.5 86t-79.5 35q-107 10 -238 10q-19 0 -26.5 -10t-7.5 -20q-2 -43 -2.5 -174.5t2.5 -206.5q3 -63 7 -84.5t17 -34.5q24 -24 30 -29.5t29.5 -14t53.5 -9t96 -0.5q81 0 119.5 0.5t83.5 3.5t63 7.5t40.5 14.5t34.5 23t28 35q39 58 55 94q23 47 41 47q7 0 11.5 -14.5 t4.5 -24.5q0 -13 -26.5 -104.5t-36.5 -120.5q-5 -19 -17.5 -30.5t-29.5 -10.5q-160 12 -627 12q-18 0 -68.5 -3t-58.5 -3q-10 0 -10 37l4 176q0 5 -3.5 5.5t-8.5 -3.5q-86 -114 -222 -180t-284 -66q-146 0 -277 55.5t-225 150t-149.5 225.5t-55.5 276zM287 705 q0 -94 22 -188.5t69 -183t111.5 -156.5t157 -109t199.5 -41q173 0 307 131q73 70 117.5 207t44.5 313q0 272 -131 424q-81 94 -179 144t-255 50q-91 0 -172.5 -33.5t-128.5 -78.5q-64 -59 -113 -178t-49 -301z" />
<glyph unicode="&#x153;" horiz-adv-x="1486" d="M98 393q0 129 72 238q60 93 155 144.5t205 51.5q89 0 173 -43.5t141 -124.5q1 -3 8 -2t10 5q54 74 136 119.5t178 45.5q101 0 178.5 -66t77.5 -171q0 -14 -4.5 -22.5t-14.5 -12t-18 -4t-23 -0.5h-424q-21 0 -26 -19q-9 -32 -9 -102q0 -145 91 -244.5t221 -99.5 q42 0 73.5 7.5t57.5 26.5t38 30.5t36 39.5q21 26 30 16q2 -3 2 -9q0 -22 -10 -39q-51 -85 -139 -136t-183 -51q-88 0 -164 41.5t-120 108.5q-11 17 -25 -2q-58 -64 -139 -106t-166 -42q-176 0 -297 121.5t-121 300.5zM264 410q0 -66 16.5 -132.5t47.5 -125t84.5 -95.5 t119.5 -37q102 0 175 115q61 104 61 262q0 93 -32.5 182t-91 147t-126.5 58q-109 0 -180 -98q-36 -52 -55 -112.5t-19 -163.5zM934.5 594.5q0.5 -6.5 5.5 -6.5q49 0 151.5 2t120.5 2q41 1 59.5 17.5t16.5 49.5q-2 47 -42 88t-101 41q-65 0 -122.5 -49t-86.5 -135 q-2 -3 -1.5 -9.5z" />
<glyph unicode="&#x178;" horiz-adv-x="1206" d="M-25 1311q0 16 48 16q21 0 101.5 -5t133.5 -5q50 0 99.5 2t70.5 2q49 0 49 -16q0 -18 -53 -33q-49 -14 -58.5 -34t7.5 -48q7 -14 62 -127.5t108 -218t92 -174.5q2 -4 8.5 -2.5t9.5 6.5q16 23 110 191.5t142 256.5q37 73 28 101t-81 51q-47 15 -47 31t39 16q31 0 97.5 -2 t94.5 -2q44 0 104 2t72 2q39 0 39 -18q0 -10 -10 -17t-43 -14q-38 -7 -67 -20t-53.5 -35.5t-39.5 -41.5t-41 -55q-38 -48 -147.5 -238.5t-165.5 -277.5q-8 -12 -13 -42t-5 -44q0 -235 12 -340q8 -72 29 -91.5t93 -36.5q15 -3 23 -5q49 -12 49 -31q0 -9 -15.5 -15.5 t-33.5 -6.5q-39 0 -110 4t-109 4q-47 0 -130 -4t-105 -4q-52 0 -52 24q0 16 45 27q89 22 110.5 52.5t21.5 117.5q0 287 -2 324q-2 49 -48 143q-49 101 -111 216t-95 181q-52 100 -97.5 144.5t-120.5 62.5q-45 11 -45 27zM375 1501q0 34 27 61t59 27q36 0 61 -25t25 -61 q0 -41 -26 -64.5t-64 -23.5q-36 0 -59 26.5t-23 59.5zM743 1497q0 34 25.5 63t58.5 29q36 0 61 -25t25 -61q0 -41 -24.5 -64.5t-61.5 -23.5t-60.5 25t-23.5 57z" />
<glyph unicode="&#x2c6;" horiz-adv-x="819" d="M231 938q10 28 131 264q28 58 48 58q11 0 47 -68q8 -18 51.5 -101t71.5 -141q5 -15 7.5 -23t3.5 -15t-1.5 -10t-7.5 -3q-14 0 -37 27q-40 48 -131 174q-3 4 -6.5 5.5t-6 1.5t-2.5 -1l-123 -170q-23 -35 -40 -35q-16 0 -5 37z" />
<glyph unicode="&#x2dc;" horiz-adv-x="819" d="M169.5 989q1.5 9 6.5 19q3 7 15 24t42 48t62 50q20 10 31 7q23 -6 90 -16.5t100 -10.5q61 0 115 61q9 9 14 5q3 0 4.5 -5t-1 -15t-9.5 -21q-15 -26 -49.5 -60.5t-71.5 -54.5q-17 -10 -29 -10q-10 0 -87.5 14t-118.5 14q-14 0 -40.5 -17.5t-41.5 -37.5q-11 -14 -25 -14 q-4 0 -6 5.5t-0.5 14.5z" />
<glyph unicode="&#x2000;" horiz-adv-x="849" />
<glyph unicode="&#x2001;" horiz-adv-x="1698" />
<glyph unicode="&#x2002;" horiz-adv-x="849" />
<glyph unicode="&#x2003;" horiz-adv-x="1698" />
<glyph unicode="&#x2004;" horiz-adv-x="566" />
<glyph unicode="&#x2005;" horiz-adv-x="424" />
<glyph unicode="&#x2006;" horiz-adv-x="283" />
<glyph unicode="&#x2007;" horiz-adv-x="283" />
<glyph unicode="&#x2008;" horiz-adv-x="212" />
<glyph unicode="&#x2009;" horiz-adv-x="339" />
<glyph unicode="&#x200a;" horiz-adv-x="94" />
<glyph unicode="&#x2010;" horiz-adv-x="602" d="M82 375q0 33 12 57q3 4 11.5 10.5t11.5 6.5q27 5 186 24.5t199 22.5q8 0 13 -9t5 -16q0 -49 -8 -63q-3 -5 -13 -12t-14 -7q-34 -6 -194 -22.5t-187 -16.5q-9 0 -15.5 8t-6.5 17z" />
<glyph unicode="&#x2011;" horiz-adv-x="602" d="M82 375q0 33 12 57q3 4 11.5 10.5t11.5 6.5q27 5 186 24.5t199 22.5q8 0 13 -9t5 -16q0 -49 -8 -63q-3 -5 -13 -12t-14 -7q-34 -6 -194 -22.5t-187 -16.5q-9 0 -15.5 8t-6.5 17z" />
<glyph unicode="&#x2012;" horiz-adv-x="602" d="M82 375q0 33 12 57q3 4 11.5 10.5t11.5 6.5q27 5 186 24.5t199 22.5q8 0 13 -9t5 -16q0 -49 -8 -63q-3 -5 -13 -12t-14 -7q-34 -6 -194 -22.5t-187 -16.5q-9 0 -15.5 8t-6.5 17z" />
<glyph unicode="&#x2013;" horiz-adv-x="1128" d="M102 401q0 26 11 52q6 16 20 16l877 2q8 0 13 -7.5t5 -14.5q0 -20 -10 -50q-1 -6 -8 -11t-13 -5l-876 -4q-8 0 -13.5 6.5t-5.5 15.5z" />
<glyph unicode="&#x2014;" horiz-adv-x="1878" d="M102 401q0 26 11 52q6 16 20 16l1624 2q8 0 13.5 -7.5t5.5 -14.5q0 -17 -11 -50q-2 -6 -8 -11t-12 -5l-1624 -4q-8 0 -13.5 6.5t-5.5 15.5z" />
<glyph unicode="&#x2018;" horiz-adv-x="364" d="M66 1182q0 54 26 100t62.5 72.5t68 41t51.5 17.5q31 3 31 -10q0 -12 -26 -27q-115 -49 -115 -153q0 -35 26 -62t72 -37q11 -3 21 -17t10 -24q0 -32 -22 -51.5t-52 -19.5q-69 0 -111 49t-42 121z" />
<glyph unicode="&#x2019;" horiz-adv-x="364" d="M70 1024q0 10 26 25q107 46 107 153q0 76 -99 98q-11 3 -20.5 17t-9.5 24q0 32 25 53t55 21q64 0 105.5 -50.5t41.5 -121.5q0 -55 -24.5 -101t-60.5 -72t-66 -40.5t-50 -17.5q-30 -3 -30 12z" />
<glyph unicode="&#x201a;" horiz-adv-x="364" d="M63 -195q0 11 29 25q52 27 81.5 69t29.5 87q0 74 -92 96q-16 4 -26.5 17t-10.5 26q0 35 25.5 56.5t58.5 21.5q68 0 106.5 -52t38.5 -126q0 -54 -28 -100.5t-66 -73t-69.5 -41t-45.5 -15.5q-31 -3 -31 10z" />
<glyph unicode="&#x201c;" horiz-adv-x="643" d="M68 1188q0 54 25.5 100t61 71t66.5 39t49 15q25 0 25 -6q0 -19 -21 -29q-118 -59 -118 -155q0 -38 26 -66t68 -39q35 -7 35 -35q0 -31 -21 -51t-51 -20q-65 0 -105 51.5t-40 124.5zM348 1190q0 44 17.5 82.5t43.5 63.5t55.5 43t53 26t37.5 8q23 0 23 -6q0 -13 -25 -25 q-113 -54 -113 -159q0 -82 92 -105q37 -10 37 -43q0 -27 -21 -45t-50 -18q-66 0 -108 52.5t-42 125.5z" />
<glyph unicode="&#x201d;" horiz-adv-x="643" d="M66 1018q0 10 24 22q53 27 83 70.5t30 89.5q0 38 -26 67t-68 38q-35 11 -35 41q0 31 20.5 49t50.5 18q65 0 107.5 -53t42.5 -125q0 -54 -27.5 -100t-64.5 -71.5t-68 -39.5t-45 -14q-24 0 -24 8zM348 1018q0 10 25 22q54 27 84 70t30 90q0 38 -26 67t-66 38 q-19 5 -28 13.5t-9 27.5q0 29 21 48t51 19q65 0 106.5 -53t41.5 -125q0 -44 -18.5 -83t-45 -64t-56 -43.5t-52 -26.5t-33.5 -8q-25 0 -25 8z" />
<glyph unicode="&#x201e;" horiz-adv-x="643" d="M66 -199q0 13 20 23q55 29 86 72.5t31 89.5q0 38 -26 66.5t-68 37.5q-18 5 -26.5 12.5t-8.5 24.5q0 32 23 55t53 23q66 0 105.5 -53.5t39.5 -126.5q0 -55 -28 -102t-65 -73t-68 -40.5t-44 -14.5q-24 0 -24 6zM348 -199q0 13 21 23q56 29 87 72t31 90q0 38 -26 66.5 t-68 37.5q-19 5 -27 12t-8 25q0 32 23 55t53 23q65 0 105.5 -54t40.5 -126q0 -45 -18.5 -84.5t-45.5 -65t-57 -44.5t-52.5 -27.5t-33.5 -8.5q-25 0 -25 6z" />
<glyph unicode="&#x2022;" horiz-adv-x="888" d="M152 397q0 125 88 216.5t202 91.5q119 0 205 -93t86 -215q0 -124 -88.5 -212.5t-204.5 -88.5q-113 0 -200.5 93.5t-87.5 207.5z" />
<glyph unicode="&#x2026;" horiz-adv-x="1361" d="M102 72q0 38 27 69t64 31q42 0 77 -30t35 -68q0 -39 -34.5 -69t-77.5 -30q-39 0 -65 28.5t-26 68.5zM559 72q0 38 27 69t67 31q38 0 65 -28.5t27 -69.5q0 -44 -25 -71.5t-67 -27.5q-36 0 -65 29t-29 68zM1026 72q0 39 26 69.5t66 30.5q39 0 65.5 -27.5t26.5 -70.5 q0 -40 -26 -69.5t-66 -29.5q-39 0 -65.5 28.5t-26.5 68.5z" />
<glyph unicode="&#x202f;" horiz-adv-x="339" />
<glyph unicode="&#x2039;" horiz-adv-x="772" d="M123 418q0 5 22 16q37 19 75.5 40t79 45.5t69.5 42.5t70.5 46t58 39t55.5 38t41 28q31 22 47 22q4 0 7.5 -3t0 -13t-19.5 -25q-94 -104 -291 -268q-11 -9 -2 -18q178 -152 280 -281q23 -29 12 -41q-3 -2 -7 -2q-17 0 -35 18q-84 65 -214 151t-227 138q-22 11 -22 27z" />
<glyph unicode="&#x203a;" horiz-adv-x="772" d="M125 98.5q2 9.5 18 24.5q49 55 136 135t155 137q5 5 4.5 11t-2.5 8q-74 63 -151.5 140.5t-126.5 139.5q-26 33 -10 40q3 1 6 1q14 0 32 -16q80 -63 211 -148.5t232 -140.5q20 -10 20 -27q0 -7 -18 -16q-173 -86 -447 -278q-41 -25 -49 -25q-4 0 -8 2.5t-2 12z" />
<glyph unicode="&#x205f;" horiz-adv-x="424" />
<glyph unicode="&#x20ac;" horiz-adv-x="993" d="M63 580q0 6 8 13.5t23 8.5h53q3 0 6 3.5t3 6.5q0 13 1 51t1 46q0 4 -2.5 10t-5.5 6l-41 2q-19 0 -19 10q0 12 9 20.5t14 8.5h43q12 0 12 8q5 47 20.5 105t52.5 136.5t88.5 141t137 106.5t188.5 44q87 0 174 -31q35 -12 60 -16q7 0 13.5 -24t6.5 -40v-123q0 -47 -20 -47 q-11 0 -21 39q-10 45 -24.5 76.5t-44.5 66.5q-19 19 -62.5 40.5t-89.5 21.5q-85 0 -152 -71.5t-105 -178t-58 -242.5q0 -12 10 -12l358 8q12 0 20.5 -6t8.5 -10q0 -12 -13 -24.5t-20 -12.5l-360 4q-3 0 -6.5 -5.5t-3.5 -8.5q0 -79 2 -95q3 -14 10 -14l336 2q8 0 14 -7.5 t6 -10.5q1 -13 -10 -23t-25 -10l-317 4q-3 0 -6.5 -4.5t-3.5 -7.5q2 -100 24 -192t60.5 -166t99.5 -118t135 -44q160 0 223 161q25 60 37 60q6 0 11 -11.5t4 -25.5q-13 -105 -39 -152q-11 -27 -60 -47q-88 -39 -206 -39q-192 0 -318 161t-145 417q0 10 -8 10l-68 2 q-4 0 -11.5 6t-7.5 13z" />
<glyph unicode="&#x2122;" horiz-adv-x="569" d="M-4 1223q0 3 3.5 24t4.5 37q0 2 6 2t8 -2q6 -6 52 -6h108q31 0 45 8q2 2 7.5 0t5.5 -6q-7 -18 -7 -63q0 -4 -4.5 -8.5t-7.5 -4.5t-6 10q-1 3 -4 11t-5 11.5t-5.5 8.5t-7.5 7.5t-9 2.5q-27 0 -37 -2q-6 0 -6 -10v-119q0 -31 5 -38t30 -15q10 -5 10 -10q0 -6 -16 -6 q-10 0 -28.5 1t-26.5 1t-28.5 -1t-27.5 -1q-12 0 -12 8q0 5 10 8q23 8 28.5 16t6.5 39q4 78 4 121q0 6 -4 6q-8 2 -31 2q-17 0 -25.5 -9t-17.5 -29q-4 -9 -8 -9q-10 0 -10 15zM240 1063q0 4 12 10q2 1 10.5 5.5t12 7t8.5 9t6 15.5q8 52 8 127q0 14 -31 23q-12 6 -12 12 q0 8 16 8q5 0 26 -1t34 -1q15 0 18 -8q43 -89 66 -127q0 -1 2 -1t4 1q14 21 65 123q4 12 13 12q22 0 46 1l25 1q13 0 13 -8q0 -9 -13 -12q-19 -3 -25 -8t-7 -21q-1 -11 -1 -30.5t0.5 -43.5t0.5 -33q0 -28 5 -37t27 -16q3 0 8 -3t5 -5q0 -8 -17 -8q-18 2 -59 2q-9 0 -26 -1 t-19 -1q-12 -3 -12 6q0 7 10 10q19 4 24.5 12.5t5.5 28.5v109q0 3 -2.5 3t-3.5 -3q-39 -77 -71 -156q-3 -7 -9.5 -9t-9.5 5q-7 24 -63 145q-2 5 -6 3q-1 -1 0 -3q-2 -31 -2 -96q0 -26 28 -37q12 -8 12 -12q0 -3 -5 -5t-11 -1q-18 2 -47 2q-7 0 -25 -1t-22 -1q-12 0 -12 8z " />
<glyph unicode="&#x25fc;" horiz-adv-x="808" d="M0 0v809h809v-809h-809z" />
<glyph unicode="&#xfb01;" horiz-adv-x="997" d="M43 10q0 21 61 35q40 9 52.5 33t15.5 92q3 53 4 121.5t1 120.5t-0.5 140t-0.5 136q0 8 -5 15.5t-9 7.5q-12 0 -72 6q-14 0 -14 12t30 31q11 7 29.5 17t20.5 11q20 15 20 33q2 72 15 161t38 148q34 87 95 162.5t131 114.5q97 57 207 57q105 0 161 -47q33 -30 33 -74 q0 -25 -30.5 -52t-51.5 -27q-31 0 -57 30q-76 90 -182 90q-40 0 -78.5 -30t-67.5 -78q-67 -116 -67 -463q0 -8 6.5 -17.5t15.5 -9.5h240q147 0 178 13q46 16 61 16q19 0 19 -76q0 -523 4 -587q3 -61 18.5 -82.5t67.5 -30.5q41 -6 41 -25q0 -20 -45 -20q-18 0 -81 3t-95 3 q-19 0 -66 -3t-70 -3q-17 0 -29 5t-12 13q0 17 41 25q51 12 66 33.5t18 87.5q5 165 5 309q0 159 -3 205q-1 15 -8.5 27t-15.5 12h-344q-7 0 -11 -8.5t-4 -16.5q0 -406 3 -510q3 -74 22.5 -98t77.5 -37q41 -7 41 -29q0 -18 -41 -18q-3 0 -67.5 3t-108.5 3q-35 0 -80.5 -3 t-81.5 -3q-41 0 -41 16z" />
<glyph unicode="&#xfb02;" horiz-adv-x="1009" d="M31 8q0 18 45 27q61 14 76 41.5t18 109.5q8 162 8 488q0 5 -2 8t-6.5 4t-8 2t-9.5 1.5t-9 0.5l-24 2q-17 1 -28 7t-11 12q0 13 29 32l53 31q16 16 16 23q0 72 11.5 160t31.5 149q26 74 70 143t98 113q53 45 121.5 72.5t122.5 27.5q91 0 155 -39q14 -7 21 0q30 35 41 35 q6 0 9.5 -12.5t0.5 -30.5q0 -40 -1 -136t-3 -278.5t-4 -345.5q0 -413 6 -518q2 -33 25.5 -61t62.5 -37q25 -6 34 -12t9 -15q0 -18 -51 -18q-28 0 -77.5 3t-67.5 3q-58 0 -183 -10q-19 -1 -31 4t-12 14q0 14 47 27q53 16 70 35.5t21 79.5q8 84 8 520q0 20 -17 20 q-16 0 -185.5 1t-182.5 1q-1 0 -3.5 -2.5t-5 -7.5t-2.5 -10l2 -533q0 -47 19.5 -68t71.5 -30q43 -6 43 -27q0 -20 -50 -20q-19 0 -78 3t-79 3q-36 0 -97.5 -4t-80.5 -4q-37 0 -37 16zM319 809q0 -9 6.5 -19t12.5 -10l364 -4q11 0 11 21q0 327 -4 413q-5 76 -19 105 q-39 71 -155 71q-55 0 -117 -57q-40 -39 -63.5 -142t-29.5 -192.5t-6 -185.5z" />
</font>
</defs>
</svg>
