<?xml version="1.0" standalone="no"?>
<!DOCTYPE svg PUBLIC "-//W3C//DTD SVG 1.1//EN" "http://www.w3.org/Graphics/SVG/1.1/DTD/svg11.dtd" >
<svg xmlns="http://www.w3.org/2000/svg">
<metadata></metadata>
<defs>
<font id="garamond_premr_proitalic" horiz-adv-x="997" >
<font-face units-per-em="2048" ascent="1485" descent="-563" />
<missing-glyph horiz-adv-x="407" />
<glyph unicode="&#xfb01;" horiz-adv-x="978" d="M-428 -471q0 13 15 43t28 43q36 20 47 6q35 -45 79 -71.5t81 -26.5q33 0 55.5 19.5t54.5 88t76 205.5q12 36 48 163.5t94 334.5t102 360q4 13 5 19.5t-2.5 10t-12.5 3.5h-136q-22 0 -22 21q0 8 18.5 26t36.5 19q122 8 123 8q8 0 17 6t10 12q113 350 280 510q27 27 63 53 t105.5 53t139.5 27q61 0 103.5 -13t61.5 -33.5t26 -36t7 -29.5q0 -36 -33.5 -74.5t-74.5 -38.5q-37 0 -43 47q-6 60 -29 87.5t-80 27.5q-111 0 -211 -152q-85 -135 -168 -428q0 -16 15 -16q25 0 147.5 5t177.5 9q25 2 51 7t49 11t27 7q12 2 19 -5.5t0 -21.5 q-37 -75 -125 -316t-119 -347q-7 -17 -4.5 -26t10.5 -9q29 0 96 53.5t101 87.5q33 33 47 33q8 0 8 -19q0 -22 -37 -69q-66 -82 -175.5 -159t-168.5 -77q-22 0 -37.5 19.5t-15.5 38.5q0 13 22 79q12 31 114.5 308t115.5 309q4 11 -1.5 19t-15.5 8q-54 -1 -177.5 -7t-133.5 -6 q-16 0 -27 -26q-29 -99 -117 -408.5t-110 -380.5q-64 -190 -119.5 -281.5t-150.5 -144.5q-117 -65 -195 -65q-43 0 -89 30t-46 70z" />
<glyph unicode="&#xfb02;" horiz-adv-x="1013" d="M-426 -481q0 54 45 94q8 7 23 10t20 -2q37 -44 83.5 -74t78.5 -30q47 0 83 54.5t77 188.5q43 135 270 945q3 8 0.5 15t-6.5 7h-129q-37 0 -37 16q2 12 18.5 31.5t36.5 22.5q10 1 66.5 3t64.5 3q7 1 14 9.5t9 16.5q32 90 59.5 157.5t68.5 143.5t84.5 130t103 101t128.5 73 q68 28 146 28q97 0 153 -43q17 -12 25 -2q11 11 32.5 24t32.5 13q20 0 2 -51q-79 -206 -235 -668t-207 -629q-6 -18 1 -32.5t17 -14.5q24 0 105 65.5t135 133.5q14 19 29 18q8 -1 8 -10q0 -11 -12 -43q-66 -120 -162 -188t-191 -68q-44 0 -64.5 40t-12.5 69q2 8 7.5 24 t15.5 44t18 53q19 57 83.5 249t96.5 287q3 8 1 11t-3.5 3.5t-5.5 0.5h-2l-322 -11q-4 0 -14 -8.5t-13 -17.5q-204 -720 -217 -764q-99 -342 -256 -443q-126 -77 -219 -77q-51 0 -92 32t-41 60zM434 827q-2 -7 1 -14.5t9 -7.5q12 0 150 5t158 5q26 0 39 19q3 7 30.5 86 t62 180.5t48.5 140.5q5 16 9 40t5 41t0 19q-20 27 -53.5 42.5t-65.5 15.5q-51 0 -94 -22t-96 -87q-110 -149 -203 -463z" />
<glyph unicode="&#xfb03;" horiz-adv-x="1503" d="M-428 -467q0 19 14 43.5t31 38.5q38 26 51 10q81 -90 150 -90q85 0 149 182q25 74 115.5 381.5t175.5 612.5q3 9 -3 12.5t-19 3.5l-125 -4q-10 0 -16.5 5t-6.5 11q1 21 17.5 36.5t29.5 15.5q111 6 131 6q5 0 11.5 4t7.5 10q117 363 317 508q122 90 258 90 q43 0 97.5 -24.5t84.5 -55.5q6 -6 17 2q153 137 307 137q111 0 163 -41.5t52 -97.5q0 -43 -34 -69.5t-66 -26.5q-35 0 -41 41q-8 67 -34 100t-81 33q-63 0 -126 -43.5t-114 -136.5q-67 -126 -147 -387q-2 -8 -0.5 -17.5t4.5 -9.5q33 0 171.5 4t186.5 8q69 7 115 17 q11 2 15 -5t-3 -22q-45 -95 -127.5 -323t-111.5 -334q-6 -31 -4 -38t14 -7q17 0 82.5 48t114.5 105q8 10 12.5 12.5t9 0t6.5 -2.5q13 0 -3 -43q-3 -8 -7 -16q-39 -74 -154.5 -160t-187.5 -86q-22 0 -37.5 16.5t-15.5 49.5q0 21 4.5 40t16 50.5t16.5 46.5q172 459 200 545 q6 26 2.5 30.5t-26.5 4.5q-47 0 -174.5 -5.5t-134.5 -5.5q-15 0 -27 -36q-32 -110 -90.5 -312.5t-98 -338t-51.5 -171.5q-59 -193 -215 -303q-52 -36 -131 -64t-121 -28q-59 0 -110 18t-78 52q-2 2 -8.5 3t-11.5 -3q-62 -59 -139 -93t-134 -34q-65 0 -101 34.5t-34 65.5z M70 -328q-5 -8 4 -20q38 -44 91.5 -63t100.5 -19q66 0 127 55.5t103 192.5q32 106 262 907q2 8 -2 14t-11 6l-319 -12q-17 0 -27 -24q-155 -529 -229 -787q-17 -60 -50.5 -140t-49.5 -110zM434 809.5q2 -6.5 6 -6.5l324 10q18 0 22 14q68 211 162 363q4 6 7 21t1 18 q-41 110 -151 110q-158 0 -254 -194q-49 -93 -117 -324q-2 -5 0 -11.5z" />
<glyph unicode="&#xfb04;" horiz-adv-x="1525" d="M-428 -479q0 26 16.5 55t32.5 39q14 10 31 12t22 -4q84 -90 146 -90q85 0 149 184q12 34 57 188t115.5 397.5t116.5 399.5q2 6 -0.5 12.5t-9.5 6.5l-148 -6q-16 0 -16 14q1 22 15 37.5t26 15.5q3 0 143 9q6 0 12.5 8.5t8.5 15.5q34 93 61 154.5t65.5 132.5t86.5 125.5 t108 97.5q117 84 242 84q112 0 182 -70q11 -10 15.5 -9.5t15.5 11.5q75 60 117 82q90 47 204 47q103 0 156 -53q19 -15 29 0q45 45 63 45q11 0 15.5 -14.5t-2.5 -36.5q-91 -240 -252 -700.5t-199 -591.5q-11 -41 16 -41q35 0 107 54t131 126q17 20 32 17q7 -1 7 -9 q0 -23 -12 -47q-61 -113 -161 -181.5t-198 -68.5q-38 0 -60 21.5t-22 58.5q0 29 54 176q135 388 174 506q3 7 1 18t-8 11l-333 -19q-14 -2 -25 -24q-176 -615 -237 -819q-62 -203 -220 -314q-52 -38 -130.5 -67t-121.5 -29q-60 0 -114.5 20.5t-81.5 57.5q-6 6 -10 2 q-49 -53 -127 -94t-142 -41q-63 0 -104 29.5t-39 58.5zM74.5 -335q1.5 -11 3.5 -13q63 -84 205 -84q61 0 120 67.5t101 204.5q23 80 107 372t147 507q2 5 -1 11.5t-7 6.5l-324 -12q-14 0 -25 -23q-95 -296 -231 -790q-17 -54 -47.5 -126.5t-46.5 -104.5q-3 -5 -1.5 -16z M434 815q-2 -5 0.5 -11.5t5.5 -6.5l328 12q15 0 25 27q78 230 161 364q10 15 11.5 19.5t-2.5 17.5q-39 104 -156 104q-155 0 -248 -184q-69 -133 -125 -342zM936 827q-1 -6 2 -11t8 -5q12 0 166 9t174 9q3 0 12 7.5t9 9.5q3 4 145 403q22 65 0 101q-45 57 -117 57 q-58 0 -104 -18.5t-94 -81.5q-97 -128 -201 -480z" />
<glyph horiz-adv-x="2048" />
<glyph horiz-adv-x="2048" />
<glyph unicode="&#xd;" horiz-adv-x="2048" />
<glyph unicode=" "  horiz-adv-x="407" />
<glyph unicode="&#x09;" horiz-adv-x="407" />
<glyph unicode="&#xa0;" horiz-adv-x="407" />
<glyph unicode="!" horiz-adv-x="571" d="M121 74q0 58 39 96.5t84 38.5q50 0 77 -28.5t27 -80.5q0 -58 -38 -93.5t-87 -35.5q-50 0 -76 30t-26 73zM283 430q10 67 57.5 310t73.5 352q21 84 62 123.5t83 39.5q34 0 51.5 -33t17 -78.5t-15.5 -86.5q-20 -64 -132 -332t-132 -305q-6 -15 -19.5 -26t-25.5 -11 t-17.5 14t-2.5 33z" />
<glyph unicode="&#x22;" horiz-adv-x="598" d="M248.5 997q-0.5 16 5.5 31q88 252 98 328q6 19 23 30q81 50 117 50q26 0 14 -52q-13 -60 -70.5 -174t-107.5 -186q-11 -14 -32 -28.5t-38 -14.5q-9 0 -9.5 16zM543.5 990q-0.5 15 5.5 30q84 245 96 336q0 12 19 28q23 18 61.5 35t62.5 17q10 0 14 -15.5t1 -36.5 q-13 -61 -73 -180t-109 -186q-11 -15 -31 -29t-37 -14q-9 0 -9.5 15z" />
<glyph unicode="#" d="M100 449q11 33 27.5 59.5t28.5 26.5l151 8q16 0 21 14l86 215q3 8 -0.5 15t-10.5 6l-161 -7q0 43 6 66q3 11 20.5 32.5t26.5 22.5l156 6q20 0 24 13l127 321q3 9 24 17t40 8q6 0 12.5 -8.5t3.5 -12.5l-129 -323q-1 -4 0.5 -8.5t3.5 -4.5l199 7q19 0 26 18l140 328 q10 20 61 20q2 0 5 -3t5 -9t-2 -16l-127 -316q-9 -18 4 -18l154 2q5 -38 -4 -54q-1 -3 -6.5 -14t-9 -17.5t-8.5 -15t-9.5 -12.5t-9.5 -4l-150 -6q-3 0 -10 -7.5t-10 -13.5l-92 -217q-2 -5 0 -9t8 -3l164 6q7 0 7.5 -20t-3.5 -29q-9 -24 -24.5 -49t-30.5 -25l-158 -6 q-5 0 -11 -3t-9 -6.5t-3 -4.5l-145 -355q-4 -12 -19 -20t-32 -8q-10 0 -17.5 5.5t-3.5 16.5l139 355q3 7 -1.5 10.5t-10.5 3.5l-196 -4q-3 0 -13 -6.5t-10 -9.5l-151 -359q-4 -10 -23 -16t-29 -6t-16 9.5t-4 16.5l141 348q4 6 2 13.5t-12 7.5l-143 -4q-4 0 -7.5 14.5 t-1.5 18.5zM406 561q-2 -4 1.5 -10.5t8.5 -5.5l194 6q19 0 27 18l88 211q2 7 2.5 12t-1.5 7.5t-7 1.5l-205 -6q-6 0 -11 -5.5t-7 -11.5z" />
<glyph unicode="$" d="M25 98q40 89 94 287q11 49 35 49q23 0 20 -59q-4 -80 8 -136.5t41 -90.5t56 -51t69 -34q17 -6 21 15l153 489q4 11 -6 23q-53 46 -81 73.5t-67.5 75.5t-58 97t-18.5 102q0 157 126.5 255t313.5 83q7 0 14 10l46 127q6 12 24 12q33 0 33 -18l-41 -123q-3 -12 8 -16 q113 -47 125 -54q21 -14 43 -10q10 0 30 5t25 5q6 0 11.5 -13.5t1.5 -20.5q-77 -154 -88 -224q-4 -23 -14 -35t-19 -12q-28 0 -21 60q11 84 -13 141t-97 96q-3 2 -9.5 0t-7.5 -6l-147 -469q-3 -13 8 -24q234 -186 234 -365q0 -82 -51 -160.5t-140 -124.5q-103 -57 -262 -57 q-14 0 -21 -14l-51 -154q-6 -20 -37 -20q-9 0 -15.5 7t-6.5 13l49 160q1 3 -3 8.5t-7 5.5q-45 10 -99 29t-77 35q-22 13 -34.5 12t-35.5 -14q-3 -1 -10 -4t-9.5 -4t-8 -3t-8 -2h-6.5t-7 1t-6 3q-13 13 -6 39zM431 62.5q0 -3.5 3.5 -7.5t9.5 -4q84 1 148 40t94.5 95t30.5 117 q0 95 -129 227q-3 4 -8 2t-7 -8l-141 -456q-1 -2 -1 -5.5zM436 989q0 -22 3.5 -42t13.5 -40t16.5 -32.5t24 -32t23.5 -26.5t27.5 -28t24.5 -24q12 -10 17 4l135 436l1 2v5.5t-0.5 5.5t-2 4.5t-4.5 1.5q-109 11 -194 -55.5t-85 -178.5z" />
<glyph unicode="%" horiz-adv-x="1476" d="M213 772q-2 110 48 228.5t147 209.5q94 82 202 82q88 0 137.5 -70.5t49.5 -164.5q0 -141 -80.5 -274.5t-186.5 -186.5q-65 -35 -137 -35q-84 0 -132 65t-48 146zM242 -25q-3 14 6 23q152 186 321.5 396t389.5 485t313 391q21 24 37 24q9 0 19 -8t15 -18q10 -17 0 -27 q-459 -555 -1034 -1278q-16 -18 -33 -18q-8 0 -19.5 10t-14.5 20zM346 733q0 -29 4.5 -53t22 -45t45.5 -21q53 0 108 74q56 73 104 200t48 232q0 52 -20 86.5t-62 34.5q-52 0 -119 -84q-55 -73 -93.5 -191.5t-37.5 -232.5zM807 188q0 110 48.5 228.5t143.5 208.5 q96 84 203 84q88 0 139.5 -72t51.5 -166q0 -140 -82 -273t-187 -188q-75 -35 -137 -35q-85 0 -132.5 66.5t-47.5 146.5zM940 147q0 -46 15.5 -82t54.5 -36q53 0 110 73q55 72 101.5 199.5t46.5 233.5q0 120 -78 120q-56 0 -121 -82q-54 -73 -92 -193.5t-37 -232.5z" />
<glyph unicode="&#x26;" horiz-adv-x="1626" d="M154 397q0 279 190 463q49 47 115.5 91t111.5 44q47 0 88 -47t48 -135q0 -2 3 -4.5t7.5 -3t9.5 3.5q97 83 175.5 199t78.5 206q0 50 -45 111q-6 7 -6 22.5t8 28.5q13 19 36.5 32t39.5 13q38 0 64 -40t26 -93q0 -67 -34.5 -144t-94 -151.5t-119 -135.5t-129.5 -122 q-60 -54 -140 -112t-167.5 -116t-108.5 -73q-17 -17 -14 -33q15 -140 112 -234.5t230 -94.5q164 0 295 92q122 91 208.5 236t92.5 262q2 20 -6 43q-2 5 -15 11t-39.5 11.5t-56.5 5.5q-133 0 -133 -110q2 -48 31 -111q9 -22 2 -31q-13 -20 -60 -20q-34 0 -66 26.5t-32 59.5 q0 48 24.5 86t86.5 102q116 101 223 101q140 0 276 -127q29 -33 58 -33q15 0 24 14.5t9 36.5q0 31 -13.5 70t-27.5 61q-16 23 -11.5 33t31.5 10q50 0 83.5 -44.5t33.5 -94.5q0 -36 -14.5 -67t-38.5 -38q-3 -1 -142 -73q-25 -10 -31.5 -9t-17.5 11q-46 52 -98 88 q-5 3 -13 -2.5t-8 -12.5q0 -36 -10 -84q-20 -105 -71.5 -214.5t-110.5 -176.5q-114 -128 -248.5 -192t-249.5 -64q-104 0 -185.5 32t-130 81t-80 114t-43 124t-11.5 118zM291 516q0 -8 4.5 -11t11.5 1q36 20 144 96t120 88q4 3 7 7t5 9t3 8.5t1.5 11.5t0.5 11.5v14v14.5 q-2 38 -28.5 82.5t-67.5 44.5q-56 0 -105 -57t-74.5 -144t-21.5 -176z" />
<glyph unicode="'" horiz-adv-x="309" d="M248.5 997q-1.5 16 5.5 31q80 236 92 328q4 18 23 30q25 19 65.5 34.5t65.5 15.5q26 0 14 -52q-13 -60 -72.5 -174.5t-111.5 -185.5q-8 -14 -30.5 -28.5t-39.5 -14.5q-10 0 -11.5 16z" />
<glyph unicode="(" horiz-adv-x="724" d="M188 256q0 372 160.5 686t454.5 506q78 51 117 51q18 0 18 -14q0 -16 -35 -43q-309 -246 -448.5 -546t-139.5 -697q0 -178 36 -340t69 -226q8 -19 4.5 -27.5t-12.5 -8.5q-33 0 -66 47q-12 16 -27 40t-40 80.5t-43.5 121t-33 163.5t-14.5 207z" />
<glyph unicode=")" horiz-adv-x="724" d="M-92 -385q0 13 35 41q310 244 448.5 543.5t138.5 699.5q0 176 -35.5 339t-68.5 226q-7 12 -7 20t3.5 11.5t9.5 3.5q37 0 68 -45q16 -21 36 -59t50 -112.5t49.5 -191t19.5 -249.5q0 -372 -160 -687t-454 -505q-29 -19 -56 -32t-40 -17t-19 -4q-18 0 -18 18z" />
<glyph unicode="*" horiz-adv-x="714" d="M236 971q0 5 9 15.5t23 17.5q34 15 98.5 36t92.5 31q10 3 11.5 6.5t-7.5 14.5q-2 3 -66.5 61t-81.5 88q-14 21 -6.5 33t35.5 2q5 -1 23.5 -12.5t59 -42t87.5 -72.5q18 -14 21 2q13 51 57 168q17 43 39 43q6 0 11.5 -15.5t4.5 -33.5q-4 -37 -24 -172q-2 -13 1.5 -17.5 t16.5 -3.5q113 23 176 31q43 7 43 -18q0 -22 -33 -33q-63 -25 -170 -58q-12 -3 0 -18q25 -25 70 -79.5t55 -65.5q17 -27 17 -45q0 -9 -17 -10.5t-32 7.5q-56 36 -160 140q-13 13 -17 -2q-35 -119 -63 -178q-19 -43 -41 -43q-23 0 -14 57q2 34 18.5 104t18.5 78q2 6 -1.5 8.5 t-15.5 -0.5q-167 -43 -199 -43q-40 -3 -40 19z" />
<glyph unicode="+" horiz-adv-x="1277" d="M154 502q0 22 9 46.5t19 24.5l412 2q14 0 14 15v432q0 11 31.5 20t56.5 9q15 0 25 -8.5t10 -16.5v-432q0 -19 19 -19l417 -2q5 0 11 -9.5t6 -18.5q0 -34 -9.5 -56t-19.5 -22h-407q-17 0 -17 -18l-6 -447q0 -12 -26.5 -22.5t-65.5 -10.5q-8 0 -16.5 8t-8.5 15v452 q0 23 -16 23l-397 2q-26 0 -33.5 5.5t-7.5 27.5z" />
<glyph unicode="," horiz-adv-x="462" d="M-106 -227q0 15 47 41q192 114 192 243q0 33 -22.5 48.5t-59.5 25.5q-9 4 -18.5 14t-9.5 21q0 34 34.5 64t89.5 30q62 0 93.5 -51t31.5 -111q0 -55 -25.5 -106t-62.5 -87.5t-84.5 -67.5t-84.5 -48.5t-70 -28.5q-19 -6 -35 -2t-16 15z" />
<glyph unicode="-" horiz-adv-x="624" d="M88 387q0 17 17 55t28 39q22 4 212 26.5t200 22.5q7 0 13 -9.5t5 -22.5q-4 -30 -22 -61t-43 -34q-49 -8 -210.5 -24.5t-181.5 -16.5q-8 -1 -13 8t-5 17z" />
<glyph unicode="." horiz-adv-x="462" d="M25 76q0 58 40 95.5t85 37.5q49 0 75.5 -29t26.5 -80q0 -58 -38.5 -93.5t-86.5 -35.5q-52 0 -77 30.5t-25 74.5z" />
<glyph unicode="/" horiz-adv-x="692" d="M-57 -92q137 243 411.5 713t403.5 698q16 22 37 22q30 0 45 -6q7 -3 10 -11t-2 -17q-93 -166 -205.5 -362.5t-193 -335t-213.5 -367t-199 -342.5q-20 -35 -41 -35t-41 10q-8 3 -12 14.5t0 18.5z" />
<glyph unicode="0" d="M113 346q0 197 70.5 402.5t176.5 336.5q76 92 171 149.5t194 57.5q67 0 119 -24t83.5 -61.5t51.5 -89t27.5 -100.5t7.5 -102q0 -191 -67.5 -396t-178.5 -345q-168 -199 -354 -199q-71 0 -125.5 24t-87 61.5t-53 88.5t-28 98.5t-7.5 98.5zM279 268q0 -233 133 -233 q36 0 70.5 16t61 39t54 62.5t45.5 71t40 81t32.5 76t27.5 72.5q47 133 78 284t31 273q0 63 -12.5 111t-44 80t-80.5 32q-124 0 -242 -215q-84 -158 -139 -373t-55 -377z" />
<glyph unicode="1" d="M121 12q0 25 65 33q77 10 104.5 36t57.5 97q7 17 17.5 49t28 90.5t34 114t47.5 158t55 184.5q22 70 56 199t37 157q0 9 -6.5 17t-12.5 8q-23 3 -50.5 9.5t-51.5 9.5q-18 4 -31 10t-12 14q0 22 43 27q19 3 70 8.5t81.5 10t68 13t58.5 19.5q31 16 43 16q7 0 10.5 -11 t0.5 -19l-13 -39t-32.5 -99.5t-40.5 -130.5q-3 -10 -55.5 -192t-94 -331.5t-68.5 -260.5q-27 -87 -11 -116t120 -48q41 -8 41 -25q0 -24 -66 -24q-34 0 -94.5 2t-89.5 2q-62 0 -137 -4t-105 -4q-67 0 -67 20z" />
<glyph unicode="2" d="M-8 18q0 8 12 24t25 28q76 51 202.5 158t231.5 206q65 63 106 105t89 99.5t74.5 105.5t44.5 107.5t18 119.5q0 93 -58.5 145.5t-130.5 52.5q-157 0 -274 -120q-40 -43 -56 -43t-16 14q3 25 25 57q67 93 166.5 154t212.5 61q125 0 215 -87.5t90 -223.5q0 -38 -9 -76 t-19.5 -66.5t-35 -64.5t-39.5 -55.5t-50 -55.5t-48.5 -49t-52.5 -49q-93 -89 -270.5 -230.5t-223.5 -180.5q-9 -8 -6 -15.5t10 -7.5q431 0 492 10q20 3 31 6t32.5 13t42 30t41.5 50q14 21 21 25.5t18 4.5q4 0 6.5 -6.5t2 -19t-4.5 -27.5q-10 -44 -43.5 -110.5t-56.5 -92.5 q-19 -22 -59 -22q-8 0 -228.5 4t-275.5 4q-65 0 -138.5 -1t-74.5 -1q-15 0 -21.5 0.5t-12 5.5t-5.5 14z" />
<glyph unicode="3" d="M27 47q7 34 24 37q11 6 41 -18q97 -82 240 -82q153 0 235 65q142 116 142 307q0 120 -66.5 182t-159.5 62q-45 0 -110 -12q-7 -1 -30.5 -7t-29.5 -6q-10 0 -16 5t-6 12q0 11 11.5 28t29.5 25q1 0 76.5 29t126.5 55q231 122 231 293q0 77 -47 128.5t-129 51.5 q-80 0 -147 -57.5t-95 -128.5q-1 -4 -10 -8t-14 -2q-43 26 -43 69q0 7 14 27t35 37q178 153 342 153q62 0 113 -22t83 -56.5t49 -75t17 -79.5q0 -44 -15 -82.5t-47.5 -72t-56.5 -53t-67 -50.5q-25 -17 -72.5 -43.5t-61.5 -34.5q-21 -11 -2 -16q133 -32 219 -136 q58 -66 58 -184q0 -128 -101.5 -243.5t-295.5 -192.5q-137 -53 -273 -53q-89 0 -140.5 37t-51.5 112z" />
<glyph unicode="4" d="M51 379q-10 12 2 31q112 112 315 312.5t351.5 347.5t179.5 179q9 10 41 26.5t49 16.5q7 0 10.5 -12t-0.5 -27q-103 -371 -211 -743q-3 -7 1 -12.5t8 -5.5q27 1 99.5 3.5t94.5 2.5q3 1 6 -1.5t5 -9t2 -16.5q0 -14 -17.5 -41t-25.5 -27q-4 0 -85 -5t-104 -5q-19 0 -22 -16 q-19 -65 -119 -428q-5 -24 -33 -35q-30 -12 -111 -12q-9 0 -22 7.5t-12 14.5q3 12 54 176t79 273q6 14 -11 14q-7 0 -487 -20q-27 0 -37 12zM213 464q3 -6 12 -5q67 1 205.5 9.5t171.5 10.5q18 4 21 19q45 140 101.5 311t76.5 235q4 9 -1 18q-5 8 -14 -3 q-57 -59 -184 -188.5t-225 -230.5t-162 -165q-5 -5 -2 -11z" />
<glyph unicode="5" d="M63 35q0 21 13 37q5 7 17 8.5t26 -6.5q50 -33 117 -54.5t129 -21.5q158 0 257 79.5t99 235.5q0 68 -27 126t-78 104t-107 80t-130 67q-51 22 -81.5 46.5t-37 37t-6.5 21.5q0 25 33 98q32 72 82.5 157.5t97.5 139.5q17 21 39 36t29 15q61 12 240 31.5t210 19.5 q6 0 13.5 -9t7.5 -15q-3 -26 -34 -72.5t-57 -65.5q-12 -11 -49 -18q-45 -4 -360 -4q-5 0 -18 -8t-13 -10q-28 -37 -65 -101t-37 -84q0 -8 10.5 -20.5t26.5 -20.5q21 -11 77.5 -39t101 -52t77.5 -46q104 -69 159.5 -147.5t55.5 -184.5q0 -181 -183 -332 q-79 -66 -208.5 -115.5t-251.5 -49.5q-63 0 -117.5 33t-57.5 104z" />
<glyph unicode="6" d="M135 340q0 156 81 327.5t222 323.5t316 258q107 67 202 105.5t148 38.5q21 0 31 -8.5t10 -16.5v-2t-0.5 -2l-1 -2t-2 -1.5t-2.5 -1.5t-3.5 -2t-4.5 -1.5t-6 -2.5t-7 -3q-206 -86 -367.5 -225t-269.5 -308q-4 -6 0.5 -11t12.5 -3q135 41 213 41q72 0 128.5 -46 t83.5 -111.5t27 -133.5q0 -142 -59 -263.5t-156 -205.5q-134 -113 -289 -113q-130 0 -218.5 92.5t-88.5 276.5zM293 274q0 -126 40.5 -187.5t112.5 -61.5q104 0 187 112q65 86 105 199.5t40 216.5q0 100 -51.5 160.5t-138.5 60.5q-98 0 -164 -80q-50 -63 -90.5 -180 t-40.5 -240z" />
<glyph unicode="7" d="M164 -57q0 21 55 90q426 569 770 1061q5 9 2 14.5t-10 5.5q-36 4 -274 4q-183 0 -275 -6q-15 -1 -29 -4.5t-24 -7t-22.5 -14t-18 -14.5t-18 -19.5t-15.5 -19t-17 -24t-16 -22.5q-25 -35 -45 -35q-27 0 -12 49q4 14 71.5 121.5t88.5 134.5q17 17 33 17q3 0 100 -3t192 -3 q146 0 284 3t159 3q24 0 24 -17q0 -34 -63 -118q-374 -500 -862 -1205q-21 -34 -43 -34q-13 0 -24 12t-11 31z" />
<glyph unicode="8" d="M94 233q0 44 11.5 80.5t36.5 67t46 50t58 48.5q31 24 67.5 49t92.5 61.5t67 43.5q2 2 3.5 8.5t0.5 9.5q-72 78 -115 152.5t-43 157.5q0 78 42 152t118 128q115 78 248 78q129 0 205 -80.5t76 -187.5q0 -110 -107 -201q-85 -72 -227 -160q-7 -7 0 -14q103 -116 133 -161 q65 -94 65 -181q0 -168 -170 -279q-129 -80 -292 -80q-136 0 -226 76t-90 182zM242 268q0 -106 69 -166.5t168 -60.5q107 0 171.5 65t64.5 162q0 68 -43.5 142.5t-139.5 175.5q-16 16 -28 8q-128 -87 -195 -164.5t-67 -161.5zM461 1022q0 -82 45 -152.5t117 -140.5 q13 -8 22 -2q223 162 223 313q0 98 -53 157.5t-137 59.5q-88 0 -152.5 -60t-64.5 -175z" />
<glyph unicode="9" d="M117 -100q-3 9 16 20q151 80 310 234t249 309q3 3 1 10t-11 6q-55 -17 -125 -29t-98 -12q-98 0 -173 82.5t-75 235.5q0 88 44.5 189.5t121.5 178.5q80 82 167.5 125t166.5 43q76 0 135.5 -32t93.5 -84t51 -113t17 -125q0 -139 -61 -294t-161 -290q-59 -77 -136 -151 t-150 -126.5t-124 -85.5t-87 -52q-93 -52 -142 -52q-30 0 -30 13zM377 750q0 -115 55.5 -176.5t136.5 -61.5q125 0 185 92q33 55 67.5 180.5t34.5 223.5q0 227 -160 227q-36 0 -87 -28.5t-107 -96.5q-58 -68 -91.5 -167t-33.5 -193z" />
<glyph unicode=":" horiz-adv-x="542" d="M66 74q0 57 38.5 95t81.5 38q49 0 77 -29t28 -80q0 -57 -38.5 -92t-86.5 -35q-50 0 -75 29t-25 74zM233 657q0 58 38.5 96t82.5 38q49 0 76 -29t27 -80q0 -57 -38.5 -92t-84.5 -35q-51 0 -76 29t-25 73z" />
<glyph unicode=";" horiz-adv-x="542" d="M-66 -227q0 15 48 41q192 114 192 243q0 33 -22.5 48.5t-59.5 25.5q-9 4 -19 14t-10 21q0 34 35 64t88 30q63 0 95 -50.5t32 -111.5q0 -55 -25.5 -106t-62.5 -87.5t-85 -67.5t-85.5 -48.5t-70.5 -28.5q-19 -6 -34.5 -2t-15.5 15zM233 657q0 58 38.5 96t82.5 38 q49 0 76 -29t27 -80q0 -57 -38.5 -92t-84.5 -35q-51 0 -76 29t-25 73z" />
<glyph unicode="&#x3c;" horiz-adv-x="1220" d="M207 508q0 12 14 33q22 31 64 53l669 377q25 8 35 -2q14 -14 25 -30t17 -34.5t-9 -25.5l-631 -342q-4 -2 -5.5 -10t3.5 -13l643 -350q4 -6 3.5 -19.5t-11 -36t-27.5 -38.5q-8 -9 -15 -9t-24 9l-665 372q-54 30 -70 42.5t-16 23.5z" />
<glyph unicode="=" horiz-adv-x="1277" d="M154 307q0 23 9 50.5t19 27.5h971q19 0 25 -5.5t6 -19.5q0 -35 -9.5 -58t-19.5 -23h-960q-27 0 -34 4t-7 24zM154 688q0 22 9 49t19 27h971q19 0 25 -5.5t6 -19.5q0 -34 -9.5 -58t-19.5 -24h-960q-26 0 -33.5 5t-7.5 26z" />
<glyph unicode="&#x3e;" horiz-adv-x="1220" d="M253 891q1 15 11.5 39t26.5 41q13 8 16 7t23 -11q291 -163 667 -377q53 -31 67.5 -42.5t14.5 -21.5q0 -11 -14 -32q-23 -33 -64 -54l-661 -372q-19 -11 -25 -11.5t-14 6.5q-14 13 -26.5 30.5t-18 36t9.5 26.5q279 154 629 342q19 10 4 20q-489 267 -643 352q-4 6 -3 21z " />
<glyph unicode="?" horiz-adv-x="741" d="M199 74q0 58 39 96.5t84 38.5q50 0 77 -28.5t27 -80.5q0 -58 -38.5 -93.5t-86.5 -35.5q-52 0 -77 29.5t-25 73.5zM285 612q3 88 61 146q54 56 252 149q127 60 127 142q0 51 -28.5 88t-100.5 37q-57 0 -86 -60q-14 -25 -27.5 -34t-40.5 -9q-30 0 -49.5 19.5t-19.5 56.5 q0 51 51.5 86t122.5 35q81 0 170 -72q36 -28 64 -88t28 -123q0 -60 -35.5 -113.5t-77.5 -74.5q-57 -41 -213 -133q-67 -41 -71 -115q-2 -56 61 -164q2 -4 -0.5 -10t-10 -9.5t-22.5 1.5q-18 6 -39.5 20.5t-50.5 42.5t-47.5 76t-17.5 106z" />
<glyph unicode="@" horiz-adv-x="1789" d="M135 303q0 182 76 349t200 285t287.5 187.5t333.5 69.5q133 0 245 -32.5t190 -88.5t132.5 -132.5t80.5 -164t26 -182.5q0 -108 -47.5 -211t-127 -181t-191 -125.5t-232.5 -47.5q-66 0 -99.5 23.5t-33.5 49.5q-2 15 14 62l49 141q3 9 -6 9q-7 -1 -12 -7 q-115 -120 -233.5 -199t-202.5 -79q-26 0 -45 26.5t-19 61.5q-2 58 45.5 158t145.5 221q91 107 208.5 197.5t180.5 90.5q13 0 40.5 -10.5t45.5 -23.5q10 0 12 2q25 53 39 92q5 10 20 10q20 1 45.5 -6.5t36.5 -18.5q4 -4 4 -14q-47 -112 -123.5 -319t-95.5 -299q-8 -44 8 -65 t64 -21q73 0 146.5 33t135.5 92.5t101 152.5t39 203q0 164 -78 286t-210.5 184t-301.5 62q-139 0 -262.5 -49t-213 -131t-155.5 -188t-98.5 -222t-32.5 -231q0 -94 21.5 -183t70.5 -171.5t120.5 -144t178.5 -98t238 -36.5q290 0 502 199q5 5 14 9t17 2t8 -11q0 -33 -37 -70 q-97 -105 -246 -161t-297 -56q-111 0 -213.5 25.5t-195.5 81.5t-162 138.5t-109.5 204.5t-40.5 271zM680 190q0 -45 29 -45q65 0 176 103q74 64 148.5 177t115.5 200q4 16 -6 26q-35 35 -101 35q-86 0 -180 -108q-70 -80 -126 -191.5t-56 -196.5z" />
<glyph unicode="A" horiz-adv-x="1302" d="M-127 20q0 8 15 15t36 8q87 1 140.5 28t121.5 101q136 146 327.5 374.5t342.5 415.5t158 195q37 42 61 76q8 16 12 16q27 4 41.5 7.5t38 12t42.5 25.5t36 43q6 9 18 17t19 8q15 0 15 -19q0 -16 -11 -47q-53 -133 -69 -200q-16 -70 -61.5 -259.5t-81.5 -346.5t-52 -252 q-13 -60 -13 -98v-13q3 -40 30 -57.5t98 -26.5q39 -7 39 -27q0 -22 -62 -22q-34 0 -82.5 3t-87.5 3q-90 0 -174 -7t-111 -7q-17 0 -31.5 6.5t-13.5 13.5q0 9 12.5 17.5t28.5 11.5q39 5 68 15.5t45.5 21t29.5 31.5t18.5 35t14.5 42q66 215 91 338q2 7 -4.5 16t-14.5 9 q-28 0 -142.5 -7.5t-148.5 -11.5q-14 -2 -42.5 -19t-49.5 -38t-87 -105.5t-116 -156.5q-34 -52 -34 -88q0 -60 92 -78q14 -6 14 -12q0 -10 -13.5 -20.5t-25.5 -10.5q-42 0 -107 2t-116 2q-24 0 -106 -4t-91 -4q-57 0 -57 28zM642 596q2 -2 5 -2q22 0 123.5 5.5t144.5 10.5 q24 5 37 37q16 40 49 185.5t39 185.5q4 25 6 38q2 12 2 20v4q0 6 -2 6q-2 2 -4 1q-13 0 -47 -36q-70 -76 -354 -439q-3 -5 -3 -9t4 -7z" />
<glyph unicode="B" horiz-adv-x="1189" d="M-63 12q0 21 61 29q104 10 140 44.5t79 160.5q28 80 141 456.5t131 450.5q11 37 11 64q0 9 -2 15q-4 30 -33 32q-8 1 -109 6q-49 3 -49 26t53 23q8 0 93.5 1t134.5 1q4 0 76.5 8t123.5 8q184 0 271 -55q48 -32 78 -85.5t30 -117.5q0 -125 -94 -210t-258 -128 q-6 -2 -8 -10.5t6 -13.5q129 -60 172 -99q98 -90 98 -233q0 -105 -60 -189t-146 -128q-61 -34 -169 -55t-214 -21q-61 0 -155 4t-132 4q-6 0 -91 -5t-126 -5q-23 0 -38 6.5t-15 15.5zM369 188q-4 -15 -4 -28q-1 -19 7 -36q12 -29 36 -44q20 -11 71 -24t66 -13q69 0 143 37 t125 94q86 99 86 215q0 64 -26.5 132t-65.5 100q-98 88 -258 88q-21 0 -39 -45q-27 -63 -71 -213t-70 -263zM545 774q0 -5 6 -11q7 -7 14 -7q164 0 234 32q76 32 136 107t60 170q0 38 -14 74t-42.5 69t-80 53.5t-119.5 20.5q-27 0 -38.5 -15t-34.5 -85q-121 -389 -121 -408z " />
<glyph unicode="C" horiz-adv-x="1347" d="M172 489q0 173 75.5 337.5t207.5 289.5q121 117 275 178.5t314 61.5q149 0 283 -56q29 -12 43 -12.5t41 12.5q37 20 45 15q4 -7 8 -21q2 -7 2 -14t-2 -14q-95 -149 -121 -279q0 -14 -16 -14q-12 0 -22.5 20.5t-8.5 32.5q7 36 7 67q1 22 -3 42q-8 47 -43 84q-40 40 -95 62 t-101 22q-107 0 -227.5 -54t-229.5 -162q-113 -114 -176 -287.5t-63 -332.5q0 -183 81 -291q58 -76 135.5 -112.5t145.5 -36.5q60 0 139.5 29.5t120.5 60.5q2 2 26 23t33.5 29t32 29t36 34.5t31 32.5t30.5 36q12 12 18 12q8 0 8.5 -22.5t-4.5 -44.5q-12 -39 -77 -141.5 t-83 -118.5q-6 -6 -19.5 -11.5t-17.5 -1.5q-41 33 -82 33l-22 -2q-3 -1 -56.5 -13t-101 -19t-88.5 -7q-75 0 -152.5 25t-155.5 86.5t-122 150.5q-49 98 -49 262z" />
<glyph unicode="D" horiz-adv-x="1495" d="M-74 18q0 10 17.5 17.5t40.5 9.5q41 3 62 5.5t47 10t40 18.5t30 31.5t28 50t24 72.5q121 416 268 897q12 39 12 66q0 55 -49 61q-91 11 -110 11q-23 2 -41.5 9t-18.5 17t20.5 17.5t47.5 7.5q19 0 77 -1t87 -1q25 0 134.5 5t160.5 5q277 0 442 -129q205 -156 205 -442 q0 -107 -31.5 -208t-85 -180.5t-116.5 -141t-134 -105.5q-121 -73 -259.5 -102t-311.5 -29q-57 0 -142.5 5t-125.5 5q-47 0 -140 -4t-108 -4q-70 0 -70 26zM391 174v-12q0 -67 43 -86q79 -35 133 -35q98 0 212.5 41t197.5 100q125 87 204 261.5t79 344.5q0 117 -41 224 t-121 170q-54 44 -139.5 67t-172.5 23q-20 0 -55 -10q-17 -4 -35 -37q-45 -88 -184 -551q-75 -258 -98 -351.5t-23 -148.5z" />
<glyph unicode="E" horiz-adv-x="1226" d="M-86 14q0 10 17 18t46 11q61 5 99 15.5t61 33t33.5 45t24.5 66.5q40 119 149.5 466t138.5 433q11 33 15 52.5t2 42t-16.5 36t-44 24.5t-77.5 17q-53 4 -53 29q0 20 66 20q19 0 99.5 -3t139.5 -3h191q242 0 331 3.5t138 16.5h1q3 1 7 -5t5.5 -14.5t0.5 -12.5 q-29 -52 -57 -129.5t-31 -106.5q0 -5 -5 -10.5t-11 -5.5q-12 0 -27 16.5t-16 42.5q-6 86 -15 104q-9 20 -32 29q-22 10 -68.5 12.5t-187.5 2.5q-61 0 -90 -9t-48 -34q-10 -14 -27.5 -58.5t-40 -113.5t-38.5 -119t-39 -124.5t-25 -82.5q-3 -7 6 -18t17 -11l231 8 q56 2 89.5 7.5t58.5 21.5t37.5 30t36.5 48q23 33 45 33q8 0 10 -12t-1.5 -30t-12.5 -34q-62 -113 -97 -266q-11 -41 -30 -41q-11 0 -18.5 14t-6.5 45q1 10 1 19q0 49 -19 67q-22 21 -62 21l-264 -7q-58 0 -70 -39q-17 -49 -34 -111t-36 -137t-28 -108q-10 -37 -10 -65 q0 -33 14 -54q15 -22 28.5 -30t39.5 -9q147 -10 299 -10q86 0 141 37q96 47 174 158q13 19 17 25t11.5 14.5t12.5 11t12 2.5q20 0 8 -55q-12 -50 -41 -111t-55 -90q-39 -42 -57 -45q-54 -12 -92 -12q-45 0 -318 7t-334 7q-65 0 -150.5 -6t-109.5 -6q-26 0 -42.5 7.5 t-16.5 18.5z" />
<glyph unicode="F" horiz-adv-x="1097" d="M-57 10q0 8 14 16t39 11q46 5 77 14t50 20.5t33 33.5t22 43t20 60q4 15 7 23q46 142 147.5 472.5t122.5 404.5q18 54 18 88q0 22 -8 36q-20 34 -129 44q-24 2 -41 9.5t-18 17.5q0 11 17.5 17.5t45.5 6.5q45 0 113 -5t129 -5h166q432 0 492 24q3 1 6 1q5 0 8 -3 q5 -5 7 -17q1 -3 1 -6q0 -8 -4 -13q-22 -30 -53 -113t-39 -119q-3 -19 -7 -24t-14 -5q-7 0 -15 6t-15 23.5t-7 46.5q0 80 -39 112q-40 32 -139 32q-186 0 -217 -7q-15 -2 -23 -6.5t-20 -24t-26 -57.5q-22 -61 -69.5 -220t-59.5 -212q-3 -13 2 -24.5t16 -14.5q38 -10 98 -10 q105 0 158 6q41 6 74.5 22t66.5 58q17 26 27 33.5t22 7.5q4 0 7 -6t1.5 -19.5t-8.5 -31.5q-51 -117 -86 -273q-4 -26 -13.5 -38.5t-18.5 -12.5q-23 0 -23 51q-1 42 -7.5 68.5t-17 37.5t-19 14.5t-21.5 4.5q-50 4 -111 4q-147 0 -170 -4q-17 -3 -31 -39q-3 -11 -22 -76 t-38.5 -135t-29.5 -118q-12 -51 -14 -84.5t3 -54t25 -32t40.5 -16.5t60.5 -10q49 -12 49 -27q0 -24 -61 -24q-31 0 -105 4t-117 4q-42 0 -141.5 -7t-138.5 -7q-22 0 -35.5 8t-13.5 16z" />
<glyph unicode="G" horiz-adv-x="1427" d="M178 485q0 79 22 173t81 212.5t147 210.5q125 133 292.5 204t366.5 71q139 0 259 -35q21 -4 45.5 -4t52.5 4q9 2 24.5 7t20.5 5q7 0 11 -15q2 -6 2 -11q0 -9 -5 -15q-42 -53 -81 -130t-58 -144q-13 -51 -29 -51q-24 0 -24 53v12q1 16 4 47.5t3.5 47.5t-1.5 36t-8 33 q-25 47 -89 78t-153 31q-242 0 -451 -228q-108 -118 -173.5 -287t-65.5 -321q0 -95 22.5 -174.5t68.5 -143t124.5 -99.5t181.5 -36q36 0 57.5 8t48.5 29q22 16 33 35q55 85 119 311q11 38 11 66q0 34 -31 53q-30 17 -93 21q-71 9 -71 30q0 13 22 20t49 7q14 0 81 -3t122 -3 q63 0 136.5 8t86.5 8q52 0 52 -22q-2 -21 -56 -31q-38 -8 -60 -22t-31.5 -28t-26.5 -48q-54 -121 -74 -195q-35 -132 -39 -188q-1 -7 -20.5 -22.5t-32.5 -20.5q-19 -5 -88.5 -25.5t-128.5 -32.5t-113 -12q-122 0 -218 32.5t-156 84t-99 122t-54.5 141t-15.5 146.5z" />
<glyph unicode="H" horiz-adv-x="1587" d="M-47 14q0 9 13.5 17.5t41.5 11.5q83 7 119.5 39.5t71.5 128.5q30 77 146 457t140 471q11 35 11 60q0 23 -9 37q-19 30 -104 40q-51 7 -51 27q0 22 61 22q32 0 105 -4t118 -4q75 0 145 4t75 4q53 0 53 -20q0 -13 -19 -22t-45 -11q-40 -3 -67.5 -13t-43.5 -28t-25.5 -36 t-20.5 -45q-2 -7 -4 -11q-25 -64 -64 -182t-51 -175q-7 -30 -7 -47q0 -19 9 -22q27 -4 174 -4q89 -1 167 -1q194 0 312 7q30 3 39.5 11.5t24.5 47.5q15 42 50.5 163t53.5 196q8 34 8 59q0 30 -12 46q-22 30 -96 40q-47 4 -47 25q0 22 59 22q19 0 97.5 -4t123.5 -4 q44 0 120 4t104 4q19 0 34 -6.5t15 -15.5q-3 -21 -62 -29q-69 -7 -104 -41.5t-64 -106.5q-64 -156 -159 -476t-117 -427q-12 -54 -12 -90q0 -27 7 -43q17 -37 101 -47q28 -5 38.5 -11t10.5 -18q0 -22 -53 -22q-37 0 -130.5 4t-129.5 4q-47 0 -115 -4t-90 -4q-55 0 -55 22 q4 22 57 27t86.5 24t48 41.5t33.5 65.5q47 114 143 438q0 3 -5.5 11t-8.5 8q-34 1 -85 1q-185 0 -583 -9q-20 0 -49 -70q-20 -47 -54.5 -163.5t-45.5 -182.5q-6 -37 -6 -64q0 -37 11 -55q20 -32 99 -45q54 -7 54 -31q0 -10 -17 -17t-47 -7q-15 0 -98.5 7t-132.5 7 q-47 0 -102 -3t-92 -6t-40 -3q-27 0 -42 8t-15 18z" />
<glyph unicode="I" horiz-adv-x="700" d="M-41 12q0 8 15.5 17t37.5 12q89 12 124.5 45.5t72.5 136.5q29 76 126.5 414.5t125.5 458.5q14 58 14 93q0 23 -6 36q-15 34 -84 43q-57 9 -59 30q0 9 14.5 16t42.5 7q39 0 94 -2t88 -2q64 0 147 3t103 3q53 0 53 -18q0 -24 -61 -35q-80 -13 -104.5 -36t-57.5 -108 q-33 -83 -135.5 -448t-122.5 -465q-12 -49 -13.5 -78t10.5 -47t31 -26t56 -15q24 -4 36.5 -13t12.5 -18q0 -22 -59 -22q-39 0 -93 3t-87 3q-46 0 -140.5 -5t-124.5 -5q-57 0 -57 22z" />
<glyph unicode="J" horiz-adv-x="700" d="M-311 -295q0 27 8 46t16.5 25.5t14.5 6.5q8 0 19 -4t20 -8.5t22.5 -14t20.5 -14.5t22 -16.5t18 -14.5q67 -49 119 -49q38 0 71 40t79.5 159.5t113.5 343.5q191 653 246 882q15 53 15 89q0 28 -8 46q-20 41 -109 48q-28 3 -44 12t-16 21q0 8 15.5 14t40.5 6q33 0 106 -3 t109 -3q66 0 139.5 3t97.5 3q56 0 56 -20q0 -7 -4 -12t-14 -9t-16.5 -5.5t-21.5 -4.5q-76 -14 -99.5 -40t-55.5 -122q-45 -129 -246 -848q-46 -176 -107 -319q-38 -92 -97 -165.5t-123 -115.5t-124.5 -64t-111.5 -22q-109 0 -146 47q-26 30 -26 82z" />
<glyph unicode="K" horiz-adv-x="1372" d="M-41 14q0 13 13 18.5t48 12.5q72 15 110 49t65 105q36 89 135 419.5t139 477.5q9 33 12 44.5t8 34.5t4 29.5t-3 20t-9 17.5t-18 11t-26.5 9.5t-37.5 5.5q-57 10 -57 32q0 21 59 21q39 0 96.5 -2t108.5 -2q46 0 115 3t100 3q56 0 56 -20q0 -21 -56 -31q-72 -12 -108 -41.5 t-58 -95.5q-105 -319 -129 -400q-3 -11 2 -18.5t13 -7.5q20 0 61.5 10.5t54.5 19.5q102 63 259 193.5t249 222.5q33 34 38 56.5t-12 34t-56 20.5q-14 5 -24.5 14t-10.5 18q0 19 61 19q15 0 49.5 -1t53.5 -1q74 0 165.5 6t131.5 6q55 0 55 -20q0 -22 -62 -31q-55 -7 -100 -22 t-93.5 -45.5t-76 -51.5t-88.5 -70q-60 -50 -229.5 -183t-204.5 -161q-1 -1 -6.5 -6t-9.5 -9t-7.5 -9.5t-3.5 -9.5q0 -6 15 -50.5t24 -64.5q149 -333 238 -447q46 -51 95.5 -79.5t117.5 -28.5q61 0 61 -27q0 -12 -24 -19t-54 -7q-47 0 -124.5 5t-125.5 5q-38 0 -51 8 q-29 19 -50 49t-58 107q-77 150 -201 438q-32 66 -70 66q-11 0 -18.5 -9.5t-17.5 -38.5q-67 -206 -111 -399q-8 -34 -8 -60q-1 -34 13 -55q24 -37 99 -55q37 -9 48.5 -16.5t11.5 -20.5q0 -9 -16.5 -14.5t-39.5 -5.5q-16 0 -112.5 5t-132.5 5q-28 0 -115 -5t-109 -5 q-26 0 -43.5 7t-17.5 17z" />
<glyph unicode="L" horiz-adv-x="1255" d="M-78 14q0 13 15 18.5t49 8.5q88 9 133 39.5t74 105.5q52 135 153.5 445t140.5 438q17 53 24 84.5t8 54t-11.5 33.5t-28.5 17t-49 12q-32 6 -45.5 14t-13.5 21q0 20 57 20q20 0 79 -4t91 -4q16 0 129 5t166 5q55 0 55 -22q0 -8 -16.5 -17t-38.5 -12q-95 -9 -135.5 -40 t-71.5 -108q-42 -104 -165.5 -478.5t-149.5 -479.5q-3 -18 5 -48t34 -46q53 -29 165 -29q272 0 322 19q118 51 213 227q20 37 30 49t23 12q7 0 9 -8q2 -6 1 -14v-7q-1 -13 -4 -27t-8 -28q-14 -41 -62.5 -135.5t-54.5 -109.5q-5 -11 -17.5 -21.5t-22.5 -11.5 q-40 -10 -207 -10q-55 0 -285 9t-301 9q-44 0 -124 -5t-101 -5q-64 0 -64 24z" />
<glyph unicode="M" horiz-adv-x="1808" d="M-96 12q0 21 59 29q103 12 146 53.5t96 177.5q48 118 184 453.5t143 353.5q23 65 23 103q0 16 -4 26q-13 36 -68 49q-26 8 -102 19q-55 7 -55 27q0 24 63 24q10 0 93.5 -5t125.5 -5q17 0 51 2t37 2q24 0 31 -53q7 -71 39 -285.5t53 -335.5q10 -53 19.5 -107.5t14 -79.5 t9 -49.5t8 -35.5t7.5 -19q11 -21 24 2q96 132 284 378.5t245 307.5q109 114 184 252q16 21 31 21q51 0 148 5t128 5q55 0 55 -20q0 -14 -19.5 -21t-62.5 -12q-41 -4 -69.5 -15.5t-47.5 -35.5t-28 -42t-23 -55q-64 -177 -138 -458t-105 -441q-9 -45 -9 -78q0 -36 11 -57 q21 -40 102 -49q38 -6 50 -12.5t12 -18.5q0 -10 -17.5 -17t-42.5 -7q-17 0 -129.5 6t-161.5 6q-38 0 -92 -6t-84 -6q-55 0 -55 22q0 12 12 19.5t45 13.5q72 11 104 46.5t54 103.5q44 130 264 868q7 21 -3 21.5t-17 -9.5q-96 -103 -276 -340.5t-257 -357.5 q-145 -222 -182 -291q-37 -66 -63 -66q-25 0 -25 70q-9 139 -39 358q-12 80 -32 232t-32 231t-18 97q-12 31 -27 8t-129 -319t-133 -369q-14 -50 -21.5 -82.5t-11 -65.5t2 -53.5t18.5 -37.5t37.5 -26.5t60.5 -13.5q52 -3 52 -29q0 -11 -17 -17.5t-45 -6.5q-16 0 -82 3 t-114 3q-50 0 -128 -6t-106 -6q-24 0 -39.5 8t-15.5 16z" />
<glyph unicode="N" horiz-adv-x="1546" d="M-63 14q0 22 57 29q93 13 144.5 48t78.5 120q267 835 277 874q19 72 19 99q0 5 -1 8q-7 26 -17.5 40t-37.5 21q-9 2 -113 19q-59 10 -59 28q0 23 69 23q28 0 101.5 -3t130.5 -3q64 0 96 4q8 2 22.5 -16t22.5 -45q33 -102 192 -505.5t201 -490.5q4 -10 11 -11.5t10 5.5 q65 185 151 484.5t99 373.5q6 33 6 58q-1 40 -15 58q-24 30 -120 42q-62 7 -62 29t57 22q31 0 100.5 -4t96.5 -4q117 0 219 8q8 1 14 1q9 0 19 -2q14 -3 20.5 -8.5t6.5 -10.5q0 -11 -14 -18t-48 -15q-38 -8 -59.5 -16.5t-48.5 -29.5t-49.5 -60.5t-45.5 -102.5 q-101 -282 -266 -854q-12 -40 -12 -64q0 -56 67 -98q3 -2 9 -5.5t8.5 -5t6.5 -4t5 -5t2.5 -5.5t1.5 -6q0 -22 -45 -22q-15 0 -54 2t-44 2q-74 0 -98 -4q-9 0 -20.5 9.5t-12.5 19.5q-10 66 -60 182q-18 45 -130.5 339.5t-166.5 432.5q-8 19 -19 49t-17.5 47.5t-14 33.5 t-12.5 21q-5 7 -15 0t-14 -16q-42 -118 -128.5 -426t-104.5 -414q-9 -56 -9 -95q-1 -45 11 -69q22 -46 108 -63q38 -7 51 -14.5t13 -18.5q0 -24 -66 -24q-22 0 -95.5 6t-115.5 6q-43 0 -122.5 -6t-106.5 -6q-65 0 -65 26z" />
<glyph unicode="O" horiz-adv-x="1400" d="M156 449q0 122 41 260t128 275.5t203 225.5q192 148 422 148q186 0 307 -138.5t121 -365.5q0 -138 -51.5 -291.5t-152.5 -293.5t-230 -216q-158 -94 -332 -94q-202 0 -317 115q-139 139 -139 375zM330 336q0 -46 7.5 -88.5t27 -85.5t49.5 -74.5t79 -51.5t111 -20 q71 0 139.5 33.5t147.5 104.5q110 98 213.5 338.5t103.5 461.5q0 44 -6.5 87.5t-24.5 91.5t-45.5 84t-74.5 59.5t-107 23.5q-149 0 -295 -137q-152 -144 -238.5 -365.5t-86.5 -461.5z" />
<glyph unicode="P" horiz-adv-x="1167" d="M-45 8q0 23 57 33q41 5 70 15.5t47 21.5t32.5 35t22 42t21.5 58q15 44 68 220t117 392t89 297q10 43 10 70q-1 26 -9 39q-18 27 -85 33q-53 6 -72.5 13.5t-19.5 20.5q0 19 51 19h135q191 14 269 14q212 0 319 -71q68 -44 100.5 -113t32.5 -139q0 -67 -21 -128.5 t-53 -104.5t-74 -79t-78 -57t-71 -35q-58 -24 -122.5 -35.5t-100.5 -11.5q-24 0 -49 7t-25 24q0 13 13 17q3 1 13 2l5 1q81 13 152 41q73 27 126.5 89t77.5 128.5t25 128.5v9q0 84 -35 152q-37 72 -106 97q-64 25 -164 25q-7 0 -18.5 -8.5t-16.5 -22.5q-45 -104 -133.5 -415 t-163.5 -601q-9 -32 -11.5 -57t-2.5 -42.5t9.5 -31t16 -21t27 -15t32 -11t40.5 -10.5q53 -11 53 -33q0 -20 -63 -20q-17 0 -90 5t-113 5q-41 0 -138 -6t-143 -6q-53 0 -53 20z" />
<glyph unicode="Q" horiz-adv-x="1386" d="M-41 -297q-2 9 12 25t49 34q91 47 182.5 87t194.5 81t113 45q27 13 -2 21q-35 9 -76 29.5t-90.5 60t-89 89t-66 124t-26.5 158.5q0 136 41 267t107 231t138 174.5t144 119.5q69 43 171 75t202 32q90 0 162.5 -30t117.5 -76t76 -105.5t43 -114t12 -104.5 q0 -143 -37 -272.5t-103.5 -231.5t-149 -182t-181.5 -142q-118 -73 -237.5 -123.5t-313.5 -119.5q-19 -7 -20 -14q0 -3 8 -3h12q72 0 140 -11q73 -12 120 -25t111.5 -44t88.5 -44.5t87 -51.5q136 -83 211.5 -115t153.5 -32q100 0 162 24t116 70q32 30 44 15q3 -3 3 -9 q0 -16 -28 -51q-65 -84 -161 -129t-206 -45q-70 0 -138 16t-137.5 50.5t-112.5 60t-114 71.5q-63 40 -95 58.5t-93 48t-119.5 42.5t-120.5 13q-152 0 -260 -57q-9 -7 -27 -6t-18 16zM332 379q0 -164 75.5 -253t176.5 -89q66 0 141 45q134 82 243 228t169.5 318t60.5 335 q0 27 -3.5 57.5t-12.5 71t-27.5 76.5t-44 67t-66.5 49.5t-92 18.5q-148 0 -282 -119q-144 -129 -241 -363.5t-97 -441.5z" />
<glyph unicode="R" horiz-adv-x="1265" d="M-37 14q0 24 60 31q43 6 72 16t45.5 26t23 27t14.5 31q44 103 307 981q15 44 15 73q0 24 -10 38q-23 31 -128 31q-19 0 -32 5t-18 10t-5 9q0 25 51 25q16 1 54.5 2t88 2t74.5 2q13 0 93.5 5t119.5 5q217 0 308 -71q98 -76 98 -201q0 -89 -46.5 -167t-131.5 -136 q-9 -7 -23 -14t-33.5 -15t-34.5 -13.5t-42 -16t-41 -15.5q-2 0 -4.5 -5t-4 -12t0.5 -14q20 -103 56.5 -227.5t72.5 -206.5q42 -95 85.5 -134.5t129.5 -49.5q49 -6 49 -27q0 -20 -56 -24q-25 -3 -57 -3q-57 0 -139 9q-74 6 -108 39.5t-72 150.5q-26 74 -62 208.5t-45 162.5 q-10 33 -32.5 63.5t-49.5 30.5q-22 0 -50.5 -1t-33.5 -1q-11 0 -22 -15t-27 -57q-14 -42 -47 -161.5t-45 -178.5q-12 -55 -13 -86.5t12.5 -53t39 -31t74.5 -17.5t49 -27q0 -10 -18.5 -17t-43.5 -7q-48 0 -132.5 4t-112.5 4q-31 0 -107.5 -4t-108.5 -4q-57 0 -57 22zM524 698 q2 -8 8 -8q123 0 213 23q112 35 194.5 127t82.5 209q0 40 -15 78.5t-46.5 73t-89 56t-134.5 21.5q-11 0 -27.5 -16t-21.5 -29q-35 -78 -95 -275.5t-69 -242.5q-2 -5 -2 -10q1 -3 2 -7z" />
<glyph unicode="S" horiz-adv-x="968" d="M20 33q29 59 113 305q18 51 39 51q17 0 17 -38q0 -15 -3 -36q-2 -31 -2 -58q0 -92 29 -132q83 -111 223 -111q97 0 174 64q35 25 55.5 73.5t20.5 94.5q0 84 -39.5 162t-140.5 200q-109 136 -153 215.5t-44 173.5q0 149 111 252q56 52 131 78.5t147 26.5q43 0 87.5 -8 t60 -12.5t57.5 -18.5q59 -19 64 -19q20 -3 55 4q3 1 6 -5q4 -5 6 -13q2 -5 2 -9l-86 -259q-5 -41 -24 -41q-11 0 -19.5 19.5t-7.5 47.5q1 31 1 56.5t-8.5 55t-25.5 58.5q-54 93 -174 93q-61 0 -108 -24.5t-71.5 -62.5t-36 -75.5t-11.5 -71.5q0 -111 76 -213 q12 -17 89.5 -112.5t121.5 -151.5q63 -85 82.5 -140.5t19.5 -125.5q0 -95 -49 -175.5t-129 -125.5q-110 -62 -270 -62q-32 0 -72 7t-60.5 12.5t-66 20t-47.5 15.5q-28 6 -42 4t-61 -18q-4 -3 -16.5 3t-15.5 9q-7 7 -7 12q0 3 2 5z" />
<glyph unicode="T" horiz-adv-x="1331" d="M201 12q0 11 16.5 19t34.5 10q52 8 80 15t55 19t44 34t33 53t34 82q51 141 147.5 457t155.5 526q1 9 -4 17.5t-11 8.5q-60 4 -115 4q-87 0 -159 -10q-57 -8 -115 -54t-102 -120q-26 -45 -55 -45q-24 0 -13 37q2 5 45.5 99t63.5 167q2 7 15.5 19t21.5 12t14 -12 q5 -9 32 -18.5t68 -12.5q53 -2 160 -2h606q174 0 222 22q5 1 12 5t12 4q3 0 8 -6.5t7 -16.5q1 -3 1 -6q0 -7 -4 -14q-34 -55 -67 -128t-45 -133q0 -13 -6 -20.5t-13 -7.5q-11 0 -19.5 14.5t-8.5 34.5q1 16 2 43t1.5 38t0 30t-4 26.5t-9 19t-15 16t-24 9t-33.5 6.5 q-69 7 -139 7q-60 0 -121 -5q-7 0 -17.5 -11t-15.5 -21q-39 -99 -152 -481t-141 -504q-14 -58 -14 -94q0 -29 9 -44q21 -34 120 -53q15 -2 33 -11.5t18 -21.5q0 -22 -55 -22q-16 0 -103 4t-119 4q-70 0 -167.5 -6t-147.5 -6q-57 0 -57 24z" />
<glyph unicode="U" horiz-adv-x="1470" d="M248 277q-4 34 -4 60q0 31 6 50q12 61 44.5 179t86 300t55.5 189q15 48 21 76t6 56t-11.5 42.5t-35.5 25t-64 15.5q-57 8 -57 33q0 20 61 20q35 0 112 -3t105 -3q21 0 96 4t109 4q51 0 51 -22q0 -17 -57 -29q-55 -9 -85.5 -35t-53.5 -86q-43 -112 -176 -594 q-40 -149 -40 -246q0 -73 23 -116q33 -57 115.5 -96.5t163.5 -39.5q281 0 389 248q59 138 139.5 383t104.5 365q8 40 11.5 66.5t5 48.5t-4.5 35.5t-13 24t-23.5 17t-34 10.5t-46.5 9q-57 9 -57 28q0 23 55 23q29 0 81 -1t81 -1q37 0 115.5 4t115.5 4q54 0 54 -22 q2 -9 -14.5 -18t-43.5 -13q-69 -10 -103.5 -49t-80.5 -156q-27 -69 -78 -212.5t-104 -297.5t-62 -178q-3 -7 -18 -47t-19.5 -49.5t-18 -40.5t-23 -45.5t-25.5 -36t-33 -39.5q-48 -49 -102.5 -82t-111.5 -48.5t-106 -21.5t-106 -6q-46 0 -93.5 9t-96.5 28.5t-91.5 55 t-68.5 83.5q-36 62 -45 138z" />
<glyph unicode="V" horiz-adv-x="1288" d="M217 18q1 2 12 50.5t25 111.5t27 125q48 226 133 787q9 47 9 80q-1 10 -1 18q-4 36 -31 54t-96 28q-39 6 -39 31q0 18 59 18q12 0 84 -2t115 -2q49 0 128 3t85 3q53 0 53 -20q0 -23 -55 -31q-68 -14 -93.5 -43.5t-45.5 -120.5q-26 -107 -76.5 -394t-65.5 -401 q-3 -25 16 -13q2 2 5 4l2 1q174 187 382.5 425t297.5 355q44 61 57.5 98.5t-1 58t-58.5 28.5q-51 11 -51 30q0 21 51 21q5 0 52.5 -2t96.5 -2q40 0 127 4t113 4q35 0 35 -22q0 -9 -15.5 -17.5t-37.5 -13.5q-88 -17 -142.5 -54.5t-138.5 -136.5q-102 -120 -387.5 -438 t-403.5 -457q-152 -186 -157 -192q-32 -37 -43 -37q-14 -1 -24 19q-6 11 -6 24q0 9 3 18z" />
<glyph unicode="W" horiz-adv-x="1949" d="M208 -26q-1 5 -1 11q0 11 4 25q35 130 72 332q58 296 116 745q6 43 6 74q0 41 -11 61q-20 34 -95 48q-55 10 -55 30q0 23 63 23q34 0 88 -3t88 -3q35 0 110 4t112 4q21 0 35.5 -5.5t13.5 -14.5q0 -23 -45 -31q-60 -9 -83.5 -29.5t-41.5 -83.5q-20 -63 -82 -425.5 t-62 -401.5q-1 -9 2.5 -12t9 0t9.5 8q159 176 367 434t245 340q19 32 19 55v16q0 41 -14 61q-17 24 -83 34q-21 3 -35 11.5t-14 18.5q2 21 58 21q19 0 82.5 -2t99.5 -2q34 0 122.5 4t106.5 4q22 0 37.5 -5.5t15.5 -14.5q0 -24 -53 -35q-79 -16 -107.5 -36t-43.5 -75 q-22 -77 -58 -449q-30 -305 -29 -384q0 -17 1 -23q3 -12 5.5 -13t16.5 11q107 108 344.5 408.5t282.5 386.5q24 46 34.5 75.5t11 47t-11 26.5t-27.5 13.5t-43 8.5q-6 1 -9 1q-49 9 -49 30q1 13 15 18t46 5q8 0 71.5 -2t108.5 -2t114 4t85 4q18 0 35.5 -5t17.5 -15 q0 -25 -63 -35q-53 -8 -99.5 -38.5t-75.5 -63t-70 -84.5q-2 -4 -3.5 -5.5t-3.5 -4.5t-4 -5q-94 -123 -309.5 -386.5t-311.5 -377.5q-97 -114 -231 -295q-40 -45 -60 -45q-11 0 -16.5 14t-3.5 27q32 226 41 313q56 534 61 639q1 6 -5 6q-14 0 -25 -12q-63 -84 -277 -347.5 t-293 -356.5q-54 -67 -113.5 -148.5t-72.5 -95.5q-39 -45 -68 -45q-11 1 -15 15z" />
<glyph unicode="X" horiz-adv-x="1296" d="M-121 10q0 11 17.5 20.5t42.5 10.5q97 9 159.5 46t165.5 146q32 35 173.5 202.5t176.5 207.5q6 6 10.5 20.5t2.5 22.5q-11 67 -117 385q-40 114 -57 141q-27 43 -85 55q-16 3 -38 5q-64 7 -64 31q0 20 70 20q17 0 85.5 -3t113.5 -3q70 0 135.5 4t72.5 4q54 0 54 -22 q0 -11 -17 -19.5t-43 -11.5q-58 -7 -74 -27q-12 -15 -12 -44q0 -11 2 -25q7 -59 49 -194t64 -189q4 -8 14 0q54 53 181.5 200.5t152.5 194.5q10 17 10 31q0 41 -90 57q-30 8 -30 24q0 21 57 21q17 0 87 -3t89 -3q44 0 112.5 5t84.5 5q57 0 57 -20t-51 -31q-91 -14 -145 -44 t-138 -120q-18 -19 -100 -102.5t-142.5 -148t-109.5 -122.5q-17 -24 -12 -43q10 -50 68.5 -240.5t88.5 -265.5q30 -70 69.5 -101t121.5 -44q59 -8 59 -29q0 -24 -61 -24q-10 0 -121 5t-162 5q-46 0 -101 -5t-69 -5q-22 0 -36 5t-17.5 10.5t-3.5 10.5q0 7 14 15t27 12 q46 14 72 33t31.5 31.5t4.5 23.5q-4 54 -52.5 230.5t-66.5 216.5q-4 16 -12 8q-52 -49 -149 -170.5t-150 -198.5q-22 -33 -34 -58t-15 -49t12 -39.5t49 -21.5q50 -8 50 -24q0 -7 -19 -19t-33 -12q-38 0 -76.5 3t-76.5 3q-63 0 -146 -7t-100 -7q-39 0 -59.5 7t-20.5 17z" />
<glyph unicode="Y" horiz-adv-x="1216" d="M178 16q0 19 62 27q37 4 63.5 9.5t47 18t33 24t25.5 36.5t21 46t21 61l88 266q21 62 26 101q2 16 2 32q0 21 -4 41q-19 143 -102 401q-37 117 -66.5 151t-103.5 44q-51 8 -51 29q3 20 59 20q21 0 100 -3t119 -3q56 0 113 2t69 2q46 0 50 -18q0 -22 -50 -31 q-68 -14 -84 -42q-10 -17 -10 -40q0 -15 4 -33q5 -20 30 -129.5t46.5 -194t36.5 -118.5q4 -8 16 -4q313 359 371 448q23 35 23 60q0 42 -64 55q-49 6 -49 31q0 18 59 18q8 0 59.5 -3t100.5 -3q27 0 105.5 4t91.5 4q51 0 51 -18q0 -21 -62 -35q-81 -16 -121.5 -45 t-156.5 -144q-119 -114 -377 -419q-44 -51 -65 -129q-93 -340 -97 -361q-2 -10 -2.5 -21t4 -30t14.5 -34t34 -28t59 -18q63 -8 63 -31q0 -22 -71 -22q-24 0 -126 5t-118 5q-38 0 -114 -5t-115 -5q-58 0 -58 26z" />
<glyph unicode="Z" horiz-adv-x="1316" d="M-20 19q4 12 16 24q204 194 624.5 652.5t489.5 547.5q3 6 -2 11.5t-10 5.5q-200 0 -412 -9q-100 -5 -149 -18.5t-84 -48.5q-35 -33 -72.5 -84.5t-52.5 -81.5q-21 -43 -39 -43q-17 0 -17 28q0 13 4 33q3 19 21.5 64t44.5 102.5t37 85.5q4 9 19.5 24t25.5 15q5 0 43.5 -5 t54.5 -5q46 -2 86 -2t78 1t57 1q121 0 372.5 5t256.5 5q37 0 37 -16q0 -21 -37 -49q-51 -40 -96.5 -83t-142.5 -145q-134 -144 -436 -477.5t-412 -460.5q-9 -9 -13.5 -20.5t4.5 -16.5q38 -6 465 -6q151 0 234 39q57 26 121 87.5t100 123.5q33 53 45 53q9 0 16 -19t0 -40 q-15 -45 -94 -195q-43 -76 -73 -98q-16 -14 -218 -14q-116 0 -383.5 5t-289.5 5t-100.5 -4t-102.5 -4q-10 0 -14 8q-3 4 -3 9q-1 5 1 10z" />
<glyph unicode="[" horiz-adv-x="710" d="M34.5 -334.5q-4.5 20.5 0.5 37.5l352 1221q116 410 141 489q6 28 25 39q5 4 47 4q70 0 162 1t98 1q45 0 45 -20q0 -12 -17 -22t-44 -15q-11 -1 -43.5 -3.5t-75 -6.5t-57.5 -5q-40 -3 -58 -53q-22 -62 -202 -678q-79 -280 -228 -835q-27 -101 15 -111q27 -8 170 -12 q8 0 17.5 -1.5t19.5 -8.5t10 -17q0 -11 -20.5 -18.5t-41.5 -9.5q-56 -7 -174 -7q-96 0 -127 7q-10 3 -14.5 23.5z" />
<glyph unicode="\" horiz-adv-x="790" d="M342 1319q0 3 10 10.5t13 7.5l43 4q15 0 24 -14q25 -277 143 -1425q0 -3 -6 -10.5t-20 -15t-31 -7.5h-10q-11 0 -16 7.5t-5 14.5q-86 776 -145 1428z" />
<glyph unicode="]" horiz-adv-x="710" d="M-96 -344q0 12 18.5 22t44.5 13q31 6 174 12q22 1 34 14t22 41q53 150 204 682q145 512 230 834q12 51 7 77t-24 29q-23 7 -170 15q-49 8 -47 28q0 11 20.5 19t41.5 10q48 6 176 6q100 0 125 -6q10 -3 14.5 -23.5t-0.5 -39.5l-352 -1223q-38 -134 -73.5 -257t-49 -170.5 t-16.5 -57.5q-9 -29 -25 -39q-7 -4 -51 -4q-69 0 -160.5 -1.5t-95.5 -1.5q-47 0 -47 21z" />
<glyph unicode="^" horiz-adv-x="960" d="M162.5 609q0.5 6 9.5 24l303 598q42 84 76 84q11 0 20 -5t16.5 -15t12 -17.5t12 -22t9.5 -18.5l303 -596q10 -20 10.5 -25t-6.5 -14q-13 -14 -30.5 -26.5t-35 -18t-24.5 9.5l-277 568q-5 9 -11 11t-11 -7l-283 -576q-5 -4 -16.5 -4.5t-31.5 8.5t-36 25q-10 11 -9.5 17z " />
<glyph unicode="_" horiz-adv-x="1013" d="M-123 -254h1014v-100h-1014v100z" />
<glyph unicode="`" horiz-adv-x="819" d="M535 1274q3 19 31.5 43t51.5 24q6 0 12.5 -10.5t11.5 -33.5t7 -54q13 -173 13 -287q0 -18 -7 -35.5t-18 -17.5t-22 15.5t-15 29.5q-25 90 -63 269q-6 32 -2 57z" />
<glyph unicode="a" horiz-adv-x="919" d="M-14 45q0 86 88 223q85 140 204.5 270.5t245.5 217.5q24 17 55 29t42 12q12 0 36.5 -13t44.5 -34q2 -2 8 0.5t9 7.5q4 8 17 29.5t16 27.5q1 4 12 11.5t16 7.5q11 0 36 -9.5t42 -19.5q2 -4 2 -9q0 -9 -6 -20q-35 -80 -120 -299.5t-109 -310.5q-3 -11 -3 -21q0 -34 42 -34 q29 0 73.5 29.5t79.5 68.5q31 36 40 17q1 -3 1 -7q0 -25 -18 -51q-57 -92 -139 -146.5t-152 -54.5q-36 0 -58 21t-24 55q0 10 10.5 40.5t33 87t28.5 73.5q6 12 -3 22q-6 6 -12 0q-43 -46 -94 -92.5t-114 -95.5t-126.5 -80t-111.5 -31q-28 0 -60 25t-32 53zM162 143 q0 -19 13 -39t28 -20q75 0 207 141q133 136 241 365q14 36 14 52q0 8 -3 11q-16 14 -40 24.5t-34 10.5q-52 0 -116.5 -41.5t-121.5 -114.5q-63 -76 -125.5 -198.5t-62.5 -190.5z" />
<glyph unicode="b" horiz-adv-x="937" d="M80 158q0 66 98 370q27 88 130.5 392t115.5 340q10 27 12 44.5t-7.5 31t-18 20t-31.5 20.5q-2 1 -6 4t-5.5 4t-5 3.5t-4.5 4.5t-3 4.5t-2.5 5t-0.5 5.5q0 15 51 27q20 5 120 19.5t114 14.5q3 0 6 -6t3.5 -14t-3.5 -16q-35 -69 -165 -419.5t-179 -498.5q-3 -5 4 -5.5 t10 5.5q42 54 86 103t100.5 99.5t116 80.5t111.5 30q70 0 116 -50.5t46 -121.5q0 -94 -54.5 -211.5t-150.5 -226.5t-207 -174q-131 -76 -225 -76q-71 0 -121.5 48t-50.5 143zM215 123q0 -23 25.5 -60.5t54.5 -37.5q47 0 135 77q109 102 217.5 287.5t108.5 306.5q0 28 -20 46 t-50 18q-44 0 -93.5 -29t-95.5 -79t-84.5 -102t-74.5 -110q-62 -101 -92.5 -185t-30.5 -132z" />
<glyph unicode="c" horiz-adv-x="641" d="M45 170q0 65 23.5 153t66.5 171q116 219 275 299q33 18 79.5 26t71.5 8q52 0 88 -18q23 -9 23 -41q0 -44 -28.5 -79.5t-47.5 -35.5q-20 0 -31 23q-41 90 -90 90q-35 0 -76.5 -42.5t-81.5 -119.5q-53 -96 -87.5 -207t-34.5 -207q0 -37 8.5 -61t25 -33t28.5 -11.5t30 -2.5 q44 0 99 25t106 73q8 6 17 6t9 -6q0 -28 -20 -53q-64 -75 -143.5 -113.5t-151.5 -38.5t-115 62.5t-43 132.5z" />
<glyph unicode="d" horiz-adv-x="987" d="M25 111q0 99 59 230.5t159.5 252.5t209.5 182q31 18 67 30.5t56 16.5t28 4q22 0 58.5 -16t62.5 -39q4 -2 13 0t10 6q6 19 30.5 97.5t54 177t60.5 213.5q7 29 7 46q0 12 -4 19q-8 17 -40 33q-57 23 -57 37q0 5 11.5 15t20.5 11q33 10 119 25.5t119 15.5q9 0 9 -23.5 t-9 -60.5q-16 -57 -45.5 -149.5t-76.5 -238.5t-85 -267q-22 -73 -83.5 -276t-82.5 -277q-5 -18 -5 -30q0 -29 28 -29q30 0 83.5 43t98.5 104q11 13 18 10.5t7 -16.5q0 -15 -8 -39q-29 -86 -130 -171t-174 -85q-19 0 -41 29t-22 49q0 41 74 274q1 4 -2.5 9.5t-8 7.5t-6.5 0 q-112 -168 -235.5 -266.5t-229.5 -98.5q-60 0 -90 33q-28 35 -28 111zM168 111q0 -22 12.5 -37t26.5 -15q51 0 149 70.5t181 181.5q88 123 141 273q19 53 19 94q0 25 -7 47q-18 35 -53 35q-87 0 -221 -148q-107 -118 -177.5 -262t-70.5 -239z" />
<glyph unicode="e" horiz-adv-x="706" d="M51 184q0 111 62 247.5t163 242.5q75 77 152.5 115t136.5 38q43 0 74 -12.5t46.5 -32.5t22.5 -40t7 -40q0 -48 -43 -104t-115 -96q-91 -51 -299 -111q-26 -8 -33 -31q-26 -72 -26 -159q0 -123 108 -123q49 0 103 27.5t98 68.5q31 31 51 31q4 0 8 -4.5t4 -7.5 q0 -20 -24 -52q-52 -60 -144.5 -115t-193.5 -55q-46 0 -102 61.5t-56 151.5zM261 454q-1 -5 1 -9q0 -3 4 -3h2q324 113 324 285q0 51 -35 51q-49 0 -113.5 -56.5t-114 -130t-67.5 -130.5q-1 -2 -1 -7z" />
<glyph unicode="f" horiz-adv-x="520" d="M-434 -475q0 21 33.5 57.5t54.5 36.5q6 2 16.5 -2.5t16.5 -11.5q61 -80 133 -80q24 0 44 9.5t44 35.5t48 83t46 142q174 645 260 924q2 4 -1 10t-11 6l-125 -4q-10 0 -15.5 7t-5.5 14q0 18 13 33.5t26 15.5q19 0 71 1t65 1q7 0 14 14q156 452 342 576q108 75 201 75 q73 0 113 -38.5t38 -90.5q-1 -60 -35.5 -99.5t-64.5 -39.5q-17 0 -17 21q0 5 1 21t1 22v9q0 53 -22 93q-24 43 -64 43q-49 0 -93 -37t-101 -137q-37 -68 -80.5 -183.5t-75.5 -224.5q-1 -5 2.5 -12.5t5.5 -7.5l187 6q7 0 11.5 -10.5t4.5 -16.5q0 -11 -15.5 -28t-33.5 -17 q-21 0 -85 -3t-95 -3q-11 0 -17 -16q-47 -148 -260 -909q-12 -41 -26 -76t-31 -61.5t-30 -45.5t-32.5 -37t-29 -26.5t-29.5 -23t-24 -17.5q-53 -37 -125 -63.5t-105 -26.5q-68 0 -106.5 26.5t-36.5 65.5z" />
<glyph unicode="g" horiz-adv-x="792" d="M-190 -350q0 25 10.5 46.5t35.5 44t37.5 31.5t45.5 31q40 26 121.5 65.5t99.5 49.5q4 2 6.5 5t3 5.5t-1.5 3.5q-51 66 -51 82q0 31 20 62q10 16 23 30t26 26.5t17 17.5q9 18 2 20q-61 27 -92 62t-31 90q0 68 21.5 134t50.5 111.5t67 88.5t62 63t45 35q113 75 223 75 q44 0 108 -28q14 -8 24 -9t34 3q8 1 62 15.5t81 14.5q45 0 45 -57q0 -59 -45 -59q-28 0 -71 10t-70 10q-16 0 -20 -8t-1 -16q11 -40 11 -64q-1 -68 -32 -142.5t-77 -133.5t-99 -104t-98 -62q-21 -9 -137 -33q-7 0 -14 -10q-10 -23 -10 -52q0 -26 19.5 -53t35.5 -39 q31 -22 126 -78.5t116 -70.5q55 -38 86.5 -85.5t31.5 -92.5q0 -28 -30 -73t-72 -71q-184 -110 -385 -110q-137 0 -250 65q-52 29 -81 73t-29 81zM-49 -344q0 -44 49 -78q50 -35 124 -54.5t144 -19.5q54 0 108 14t97 47.5t43 80.5q0 50 -49 88q-36 30 -112 79.5t-115 67.5 q-9 4 -29.5 4.5t-26.5 -2.5q-22 -7 -57.5 -27t-76.5 -49.5t-70 -70.5t-29 -80zM203 303q0 -42 23 -66t53 -24q25 0 92 57q60 54 141.5 190.5t81.5 225.5q0 41 -22 66.5t-46 25.5q-45 0 -100 -51q-87 -77 -155 -209.5t-68 -214.5z" />
<glyph unicode="h" horiz-adv-x="1003" d="M31 31q169 520 381 1224q16 36 5.5 60t-61.5 35q-15 4 -25.5 10.5t-14 12t-3.5 9.5q0 14 37 25q12 3 45.5 12t61 16.5t59 15.5t53.5 12.5t31 4.5q6 0 11.5 -15.5t2.5 -27.5q-43 -137 -122 -374.5t-137 -411.5t-62 -188q-3 -10 -0.5 -14.5t7.5 -4t9 5.5q167 215 289 307 q66 49 109 65.5t92 16.5q35 0 62 -15t41 -38t21 -44t7 -38q0 -142 -73 -317t-144 -254q-48 -52 -133 -111q-74 -49 -103 -49q-47 0 -76 25q-18 20 -18 39q0 9 20.5 38t30.5 35q8 5 12 4q10 -4 31.5 -15t41 -17.5t38.5 -6.5q24 0 41 31q47 66 112.5 273.5t65.5 296.5 q0 81 -59 81q-52 0 -121 -67t-195 -232q-43 -60 -133.5 -212t-126.5 -224q-9 -17 -29 -30t-28 -13q-24 0 -41 22q-13 17 -13 33q0 4 1 9z" />
<glyph unicode="i" horiz-adv-x="548" d="M37 18q0 14 10 37q102 252 254 604q6 13 -1 22.5t-15 6.5q-78 -24 -152 -90q-5 -5 -11.5 -5.5t-11 2.5t-4.5 9q0 20 27 51q36 43 137.5 107.5t151.5 64.5q12 0 29.5 -18t17.5 -31q0 -19 -20 -69q-46 -107 -121 -289t-113 -268q-4 -10 2 -22.5t21 -12.5q22 0 86 47t104 90 q34 39 47 39q10 0 10 -12q0 -32 -36 -74q-74 -86 -182.5 -163t-168.5 -77q-22 0 -41.5 17.5t-19.5 33.5zM377 1128q0 49 41 86q31 25 55 25q32 0 53 -25t21 -57q0 -41 -30 -75.5t-64 -34.5q-16 0 -31 6q-45 25 -45 75z" />
<glyph unicode="j" horiz-adv-x="493" d="M-399 -483q0 16 15 38.5t30 34.5q33 19 53 2q75 -69 137 -69q42 0 69.5 37.5t67.5 126.5q44 105 167.5 503t140.5 469q3 13 -4 21t-19 8q-13 0 -53 -21t-74 -46q-14 -9 -25.5 -12t-17.5 0t-6 9q0 18 24 46q45 49 147.5 112.5t162.5 63.5q18 0 28 -36q6 -20 6 -39 q0 -15 -4 -30q-239 -790 -303 -936q-57 -128 -122 -205t-146 -118q-79 -43 -141 -43q-57 0 -95 29.5t-38 54.5zM356 1130q0 60 47 97q24 18 48 18q75 0 75 -96q0 -41 -32.5 -71.5t-61.5 -30.5q-28 0 -52 25t-24 58z" />
<glyph unicode="k" horiz-adv-x="907" d="M-2 16q0 16 18 68q12 29 163.5 477.5t238.5 714.5q9 23 1.5 34.5t-42.5 24.5q-14 6 -24.5 14t-10.5 11q3 19 31 33q21 12 113.5 33.5t119.5 21.5q3 0 5.5 -6.5t3 -16.5t-2.5 -20q-4 -16 -59 -164t-133 -359t-123 -341q-5 -16 8 -15q14 2 23 15q111 163 260 239 q50 26 81.5 35.5t88.5 9.5q48 0 78 -25t30 -59q0 -38 -44 -103.5t-115 -115.5q-45 -30 -119 -67t-101 -47q-4 -1 -8 -9.5t-4 -11.5q27 -127 68 -221q20 -42 36 -58t37 -16q26 0 73.5 35.5t82.5 81.5q18 24 31 24q22 0 7 -41q-7 -18 -19 -36q-56 -80 -122 -135.5t-116 -55.5 q-64 0 -117 125q-24 55 -71 199q-12 35 -35 56.5t-39 21.5q-33 0 -51 -41q-16 -38 -64 -151t-76 -177q-5 -12 -14.5 -19.5t-15.5 -7.5q-23 0 -47.5 15t-24.5 30zM338 459q-3 -6 -3 -12q0 -7 4 -13q6 -10 16 -10h3q78 5 164.5 52t141.5 109.5t55 110.5q0 43 -68 43 q-44 0 -102 -34q-57 -34 -114 -102t-97 -144z" />
<glyph unicode="l" horiz-adv-x="528" d="M27 45q0 17 67 211q16 44 151 424.5t206 585.5q11 30 13.5 48t-6.5 29t-22 16t-41 11q-49 10 -49 21q0 8 10.5 17.5t26.5 12.5q3 0 49 7.5t89.5 15t62.5 12.5q38 12 59 12q6 0 8 -8q1 -4 1 -9v-9l-3.5 -21t-3.5 -16q-97 -258 -257.5 -709.5t-192.5 -552.5q-10 -28 -7 -57 t19 -29q18 0 71 46t109.5 101t69.5 64q21 15 24 -2q0 -23 -12 -47q-56 -110 -161 -181t-195 -71q-29 0 -57.5 26.5t-28.5 51.5z" />
<glyph unicode="m" horiz-adv-x="1515" d="M43 16q-1 14 7.5 43t17.5 47q24 48 67.5 142.5t104 226.5t90.5 197q6 15 6 25q0 22 -29 22q-36 0 -74.5 -23.5t-91.5 -79.5q-28 -28 -39 -28q-3 0 -6.5 5.5t-4.5 15.5t3 26q20 82 92 137t183 55q49 0 80 -18q10 -7 13 -24.5t-1 -24.5q-8 -24 -46 -116.5t-61 -135.5 q-10 -19 4 -21q16 -3 33 19q1 1 23 26.5t39 44.5t46.5 51t53.5 56t51.5 48t48.5 38q92 57 164 57q42 0 77.5 -30t35.5 -68q0 -16 -3.5 -33.5t-13.5 -45t-15 -40t-22 -52t-20 -46.5q-4 -10 2 -14t14 4q181 213 265 268q39 26 84 41.5t75 15.5q54 0 84.5 -36.5t30.5 -81.5 q0 -26 -9.5 -63t-19.5 -56q-25 -44 -98 -195.5t-104 -222.5q-7 -8 -7.5 -15.5t3.5 -11t8 -2.5q29 4 98 48.5t127 95.5q29 23 39 12l2 -6q0 -28 -27 -64q-60 -78 -196 -170t-203 -92q-27 0 -47 29q-13 13 -4 33q2 5 133 276.5t145 308.5q23 47 23 85q0 7 -1 14q-5 43 -42 43 q-48 0 -134.5 -85.5t-172.5 -205.5q-63 -88 -164 -253.5t-107 -174.5q-22 -35 -47 -52.5t-45 -17.5q-13 0 -24 11t-11 30q0 17 15 60q24 63 91.5 216t121 274.5t55.5 135.5q7 29 -8 48.5t-37 19.5q-57 0 -167.5 -114t-238.5 -310q-29 -45 -103.5 -164t-90.5 -143 q-25 -36 -38.5 -50t-25.5 -14q-16 0 -34.5 13t-22.5 36z" />
<glyph unicode="n" horiz-adv-x="1038" d="M41 23q-1 9 4 27t14.5 41.5t17.5 42t17 38.5l10 21q2 5 91 196.5t124 284.5q16 33 -18 33q-10 0 -20 -1.5t-20 -5.5l-17.5 -7t-18.5 -10.5t-16.5 -11t-17.5 -14t-15.5 -13.5t-16.5 -15.5t-16 -14.5q-20 -20 -26 -20q-4 0 -8.5 7t-4.5 13q0 23 18 57.5t50 70t85.5 60.5 t113.5 25q22 0 43 -12t32 -29q10 -17 -4 -53q-51 -120 -125 -297q-6 -11 6 -13q13 -2 19 11q35 53 120.5 152.5t133.5 138.5q118 102 213 102q55 0 86 -35.5t31 -80.5q0 -49 -29 -121q-30 -80 -97.5 -227t-86.5 -183q-12 -25 -12 -38q0 -17 18 -17q52 0 184 123 q8 7 17.5 10.5t16.5 2t7 -8.5q0 -21 -24 -59q-52 -78 -165.5 -152t-170.5 -74q-36 0 -66 35q-11 11 -11 27q0 17 13 41q33 65 151.5 311.5t131.5 288.5q9 29 9 49q0 11 -3 19q-9 22 -35 22q-86 0 -231 -176q-38 -43 -107 -143.5t-141.5 -212.5t-91.5 -138q-45 -71 -67 -98 t-38 -27q-19 0 -38 21t-19 37z" />
<glyph unicode="o" horiz-adv-x="821" d="M47 186q0 109 70 269.5t188 263.5q124 108 254 108q87 0 140 -73t53 -156q0 -191 -108.5 -354t-248.5 -234q-88 -43 -170 -43q-65 0 -121.5 61t-56.5 158zM190 115q0 -38 20 -64t58 -26q62 0 135 92q74 89 144.5 260t70.5 299q0 98 -75 98q-71 0 -148 -92 q-78 -90 -141.5 -255.5t-63.5 -311.5z" />
<glyph unicode="p" horiz-adv-x="884" d="M-233 -522q0 20 53 30q60 11 85 34t40 69q23 71 172.5 547t175.5 559q0 3 -2 6t-6 2q-106 -30 -176 -70q-16 -8 -28.5 -10t-18 1.5t-5.5 8.5q0 11 10 24.5t21 20.5q77 53 223 105q9 2 17 18q7 19 15 42.5t12 35t10.5 24.5t15.5 23q22 27 88 27q6 0 10 -1t6.5 -3.5t4 -4.5 t2 -6t0.5 -6v-6.5v-5.5q0 -8 -4.5 -24.5t-13.5 -43t-11 -34.5q-1 -4 2 -8.5t6 -4.5q96 0 172.5 -22.5t127 -76.5t50.5 -132q0 -112 -60 -233t-151.5 -214t-191.5 -143q-64 -35 -109 -35q-46 0 -106 27q-25 -76 -44 -139.5t-27 -95.5t-18.5 -78.5t-15.5 -65.5q-4 -15 -4 -27 q0 -25 16 -38q23 -20 87 -33q51 -8 51 -29q0 -9 -17 -16.5t-41 -7.5q-32 0 -74 1t-57 1q-37 0 -121.5 -8t-111.5 -9h-11q-48 0 -48 25zM240 90q11 -24 32 -44.5t31 -20.5q53 0 109 51q107 95 182.5 241.5t75.5 294.5q0 69 -63.5 105.5t-145.5 36.5q-6 0 -15 -6.5t-12 -12.5 q-16 -50 -58.5 -178.5t-75 -232t-62.5 -209.5q-2 -3 -2 -9q0 -11 4 -16z" />
<glyph unicode="q" horiz-adv-x="927" d="M18 102q0 84 42 194.5t120 221.5q120 179 291 266q82 43 154 43q39 0 78.5 -33.5t56.5 -70.5q2 -6 9.5 -5t12.5 7q17 43 54 100q33 49 59 49q10 0 14 -21q2 -8 2 -16q0 -10 -4 -18q-69 -197 -129 -409q-119 -406 -219 -789q-11 -42 8.5 -58.5t63.5 -21.5q55 -8 55 -26 q0 -7 -14 -15.5t-37 -11.5q-269 -29 -367 -53q-10 -3 -20 -3l-18 2q-19 5 -19 17q0 8 12 18t31 17q87 31 113 58t53 106q26 69 97 281.5t122 381.5q3 7 -3 8.5t-9 -2.5q-92 -125 -247.5 -236.5t-252.5 -111.5q-12 0 -28.5 6t-35.5 19.5t-32 41t-13 64.5zM170 127 q0 -68 53 -68q42 0 134 72t173 176q148 197 148 357q0 27 -22.5 68.5t-53.5 41.5q-28 0 -86.5 -39t-120.5 -119q-86 -113 -155.5 -265t-69.5 -224z" />
<glyph unicode="r" horiz-adv-x="724" d="M61 25q147 374 209 567q10 35 10 58q0 38 -30 38q-51 0 -115 -80q-33 -41 -45 -41q-9 0 -11.5 20.5t3.5 39.5q32 89 94 144.5t127 55.5q40 0 63 -28t23 -64q0 -45 -23 -126.5t-44 -135.5q-9 -26 2 -24q13 4 34 38q73 125 162 224q98 116 178 116q41 0 59.5 -25.5 t18.5 -58.5q0 -54 -36.5 -103.5t-59.5 -49.5q-25 0 -25 45q-1 30 -13 53t-26 23q-22 0 -53 -29.5t-82 -110.5q-80 -120 -286 -532q-36 -74 -86 -74q-12 0 -27 8.5t-21 20.5q-3 3 -3 12q0 14 3 19z" />
<glyph unicode="s" horiz-adv-x="573" d="M-33 80q0 12 12.5 38t26.5 44q4 4 14 4.5t17 -4.5q92 -92 180 -92q45 0 77 31.5t32 78.5q0 30 -20.5 69t-69.5 113q-78 119 -78 187q0 58 30 105t82 94q94 79 179 79q29 0 55.5 -11.5t38.5 -24.5q20 -20 20 -46q0 -17 -20 -44t-33 -37q-11 -6 -31 6q-15 9 -40.5 28.5 t-45 29t-43.5 9.5q-23 0 -52.5 -27t-29.5 -69q0 -64 97 -199q81 -130 81 -180q0 -97 -112 -190q-55 -49 -125.5 -75t-112.5 -26q-40 0 -84.5 32t-44.5 77z" />
<glyph unicode="t" horiz-adv-x="612" d="M43 18q0 21 10 52q2 5 43 115t98.5 263.5t96.5 253.5q4 10 2.5 17.5t-6.5 7.5q-15 1 -55 3t-54 3t-23.5 7t-9.5 12q0 10 15 25.5t26 17.5q61 6 125 6q7 0 14 7t9 13q64 122 84 154t42 45.5t54 13.5q13 0 15.5 -9.5t-5.5 -35.5q-3 -14 -25 -86t-24 -82q-2 -5 1 -11.5 t9 -6.5q32 0 191 -6q8 0 8 -17q2 -10 -11.5 -27t-29.5 -18q-124 -8 -190 -8q-13 0 -19 -16q-23 -52 -88 -223.5t-108 -292.5q-8 -23 -8 -37q0 -21 18 -21q29 0 99.5 46.5t105.5 84.5q16 15 29 18.5t16 -12.5q0 -20 -19 -49q-62 -87 -187 -170.5t-196 -83.5q-15 0 -34 17.5 t-19 29.5z" />
<glyph unicode="u" horiz-adv-x="1011" d="M61 80q21 57 108.5 272t121.5 291q7 15 4.5 22t-10.5 7t-34 -15.5t-63 -40.5t-38 -26q-15 -10 -30 -10.5t-16 8.5q0 14 15 33q14 27 70.5 75.5t128.5 89.5t116 41q8 0 19.5 -10t15.5 -22q1 -4 -1 -18.5t-5 -20.5q-30 -57 -121.5 -290t-103.5 -282q-7 -27 -7 -44 q0 -36 27 -36q59 0 183 130t206 268q47 75 156 270q13 23 29.5 39t29.5 16q15 0 37.5 -16.5t22.5 -32.5q0 -22 -27 -84q-166 -410 -203 -524q-14 -41 17 -41q25 0 82.5 38.5t119.5 104.5q20 20 34 14q5 -1 5 -7q0 -14 -16 -46q-27 -54 -94.5 -117.5t-139 -106t-112.5 -42.5 q-17 0 -35 20t-18 36q0 6 8 34q4 13 50.5 134.5t53.5 142.5q10 31 1.5 32t-27.5 -22q-75 -91 -184 -184t-195 -150q-67 -43 -117 -43q-34 0 -55 25q-17 20 -17 47q0 19 8 41z" />
<glyph unicode="v" horiz-adv-x="860" d="M88 582q0 19 21 47q46 64 135.5 131t156.5 67q11 0 22 -11.5t17 -22.5q9 -18 9 -42t-9 -53q-18 -51 -93.5 -249.5t-86.5 -235.5q-8 -27 -8 -47q0 -26 12 -42q21 -28 51 -28q86 0 180 84.5t154 204.5t60 221q0 42 -29 90q-16 26 -16 41q0 28 36 59t68 31q29 0 48.5 -33.5 t19.5 -78.5q0 -109 -72 -257.5t-178 -264.5q-81 -88 -180 -153t-197 -65q-45 0 -72.5 37t-27.5 92q0 60 30 146q23 72 83.5 232.5t68.5 183.5q2 8 -2 15t-10 7q-43 0 -156 -108q-12 -10 -23.5 -9.5t-11.5 11.5z" />
<glyph unicode="w" horiz-adv-x="1296" d="M96 594q0 19 15 43q44 64 142 127t161 63q26 0 37 -32q9 -20 7 -49.5t-14 -51.5q-77 -174 -186 -487q-12 -35 -12 -63q0 -14 2 -26q8 -38 39 -38q53 0 134.5 72.5t151.5 175.5q49 79 52 90q50 173 67 213q22 64 45 90q15 17 52 36t61 19q12 0 20 -4.5t11 -13t4 -18 t-2 -23.5t-5.5 -25t-8.5 -26.5t-9.5 -24t-9 -21.5t-6.5 -16q-16 -31 -41.5 -81.5t-43 -85t-26.5 -54.5q-29 -60 -35 -107q-10 -51 -11 -90q0 -28 6 -50q13 -52 63 -52q32 0 93.5 33t98.5 76q189 217 191 376q1 32 -5.5 58t-15.5 44t-10 23q-4 17 6 37q14 32 53.5 64t67.5 32 q18 0 28.5 -35t10.5 -81q-2 -106 -71 -244t-166 -252t-187 -172q-102 -72 -203 -72q-31 0 -53 31q-20 32 -26 88q-1 13 -2 27q0 47 14 106q1 6 -5.5 6.5t-9.5 -2.5q-43 -45 -101 -100t-77 -68q-62 -45 -109.5 -66.5t-95.5 -21.5q-32 0 -53 38q-20 36 -20 92v5q2 27 17 85.5 t34 105.5q27 68 77.5 200.5t65.5 170.5q9 22 -12 22q-40 0 -176 -110q-6 -5 -13 0t-6 14z" />
<glyph unicode="x" horiz-adv-x="897" d="M-68 35q0 40 27 77.5t51 51.5q13 9 27.5 8.5t15.5 -14.5q8 -39 16 -51.5t31 -12.5q11 0 26.5 9t38.5 30.5t40 38.5t47 50.5t42.5 48t43 50t33.5 39.5q4 5 5 17.5t-1 17.5q-2 7 -36 114t-40 126q-13 45 -35 45q-25 0 -51 -26.5t-63 -80.5q-15 -20 -19 -20q-16 0 -16 27 q0 64 79.5 152.5t143.5 88.5q23 0 41.5 -31.5t28.5 -68.5q6 -24 69 -215q3 -10 15 2q28 32 87.5 105t101.5 118t77 68q12 10 38 19t42 9q44 0 62 -23t18 -54q0 -27 -31.5 -72t-59.5 -45q-18 0 -28 24q-3 10 -14.5 26.5t-24.5 16.5q-17 0 -43.5 -19t-59 -53t-57.5 -63 t-57.5 -68t-40.5 -48q-10 -15 -6 -27q71 -221 77 -236q31 -67 58 -71q22 0 59 42.5t66 90.5q4 8 11 14t11 6q15 0 15 -35q-1 -48 -26 -97t-60 -84t-72.5 -57t-63.5 -22q-70 0 -118 146q-11 32 -31 98.5t-27 87.5q-3 9 -10 2q-158 -198 -234.5 -272t-142.5 -74 q-31 0 -54.5 25.5t-21.5 48.5z" />
<glyph unicode="y" horiz-adv-x="786" d="M-246 -461q0 34 27.5 68.5t56.5 34.5q19 0 25 -9q10 -7 27 -25.5t32.5 -29t34.5 -10.5q46 0 91 29.5t108 101.5q68 80 108.5 238t40.5 342q0 120 -9.5 226.5t-21.5 145.5q-2 5 -5.5 18.5t-6 19.5t-6.5 14.5t-10.5 12t-14.5 3.5q-21 0 -53.5 -42.5t-66.5 -109.5 q-24 -49 -37 -49q-16 0 -19 35v9q0 48 29 106q31 63 88 111t117 48q41 0 71.5 -49.5t38.5 -95.5q28 -142 28 -343q0 -103 -7 -222q-1 -3 3 -3q15 -1 28 19l4 6q81 144 134.5 319.5t57.5 348.5q0 10 13 21.5t20 11.5q23 0 48.5 -31.5t25.5 -50.5q0 -113 -82 -310t-154 -317 q-177 -292 -221 -346q-112 -136 -174 -195q-22 -22 -45 -41q-117 -94 -219 -94q-42 0 -73.5 23.5t-31.5 60.5z" />
<glyph unicode="z" horiz-adv-x="854" d="M-14 23q-3 40 80 120q21 20 173 164.5t239.5 231.5t94.5 104q3 8 -2 8q-13 2 -29 6.5t-40 13t-39 13.5q-18 5 -50.5 14t-48.5 13.5t-40.5 8t-47.5 3.5q-31 0 -53.5 -20.5t-23.5 -51.5q0 -47 12 -84q2 -10 -10 -22q-14 -15 -42.5 -29t-45.5 -14q-14 0 -22.5 19t-8.5 36 q0 33 36.5 89.5t90.5 98.5q110 82 203 82q46 0 139 -39q75 -32 111 -32q42 0 124 63q32 23 45 23q7 0 14.5 -4t6.5 -11q0 -22 -21 -43q-71 -60 -307 -285.5t-291 -287.5q-4 -5 -2 -8.5t7 -3.5q15 -1 30 -4.5t26.5 -7t28 -11t25.5 -12t26.5 -16t24 -15.5t27 -18t25.5 -17 q32 -22 66.5 -33.5t53.5 -11.5q121 0 121 174q0 48 -4 64q0 6 7.5 11t13.5 5q73 0 73 -98q-1 -47 -47.5 -106t-95.5 -95q-62 -43 -97 -56t-87 -13q-45 0 -164 92q-53 41 -79.5 53t-55.5 12q-42 0 -66 -30q-16 -16 -49 -82q-7 -13 -21 -13q-10 0 -22 16t-12 36z" />
<glyph unicode="{" horiz-adv-x="759" d="M170 582q0 9 11 14.5t22 5.5q65 12 108.5 31.5t67.5 49t34 51.5t21 61q8 30 34 187.5t42 209.5q38 134 154 209q51 31 106.5 50t85.5 23.5t51 4.5q43 0 43 -19q0 -15 -26 -22q-60 -19 -98.5 -35t-78.5 -43t-65.5 -66.5t-40.5 -93.5q-20 -66 -29 -195t-22 -176 q-20 -70 -98.5 -138.5t-176.5 -106.5q-5 -2 -6 -6t6 -9q160 -102 121 -264q-11 -44 -27 -84t-37 -84t-30 -65q-6 -16 -17 -41t-17.5 -43t-10.5 -35q-28 -117 18 -190t142 -103q10 -3 16 -8t4 -10q-4 -25 -55 -25q-52 0 -104.5 32.5t-89.5 88t-51.5 129.5t9.5 156 q10 33 52.5 146.5t52.5 143.5q32 105 13.5 153.5t-87.5 72.5q-16 5 -31.5 18t-15.5 25z" />
<glyph unicode="|" horiz-adv-x="589" d="M301 -496v2005h123v-2005h-123z" />
<glyph unicode="}" horiz-adv-x="751" d="M-82 -356q0 16 37 22q38 11 58.5 17.5t52.5 20t51.5 29t42 39t38.5 56t27 74.5q13 47 26.5 181.5t29.5 188.5q22 77 93 146t181 104q5 2 3 8t-7 9q-157 105 -115 262q13 55 46.5 128.5t41.5 96.5q4 14 19.5 57t19.5 62q47 222 -151 297q-25 7 -25 20q0 19 51 19 q69 0 134.5 -54t96.5 -144t-1 -208q-6 -24 -44 -127t-49 -149q-57 -188 82 -234q54 -17 54 -35q0 -8 -10 -15.5t-31 -10.5q-65 -10 -111.5 -30.5t-72.5 -49.5t-38.5 -55.5t-19.5 -59.5q-1 -7 -26 -177.5t-42 -227.5q-35 -134 -149 -205q-71 -43 -143.5 -61.5t-108.5 -18.5 q-18 0 -29.5 7t-11.5 18z" />
<glyph unicode="~" horiz-adv-x="1277" d="M164 393q38 125 115.5 212t185.5 87q44 0 93.5 -24t93.5 -58t85.5 -67.5t82.5 -57.5t71 -24q73 0 113 48.5t88 166.5q8 18 22 18q26 0 52.5 -18.5t19.5 -38.5q-49 -135 -127 -216t-180 -81q-47 0 -97 24t-92 58.5t-82 68.5t-80.5 58t-74.5 24q-56 0 -102 -47.5 t-91 -154.5q-6 -14 -8.5 -19t-7 -8.5t-11.5 -3.5q-18 0 -46 17.5t-23 35.5z" />
<glyph unicode="&#xa1;" horiz-adv-x="575" d="M-33 -328q1 44 15 86q19 59 124.5 310.5t139.5 328.5q6 14 19.5 25.5t25.5 11.5t17.5 -14.5t2.5 -32.5q-11 -69 -56.5 -306.5t-70.5 -346.5q-21 -85 -65.5 -128.5t-85.5 -43.5q-34 0 -50.5 33t-15.5 77zM246 717q0 57 38 93t87 36q50 0 76 -30.5t26 -74.5q0 -57 -40 -96 t-83 -39q-51 0 -77.5 29t-26.5 82z" />
<glyph unicode="&#xa2;" d="M199 473q0 170 98 320t252 223q91 42 168 51q10 3 14 14l41 127q8 13 21 13q10 0 27.5 -9.5t17.5 -17.5l-37 -111q-3 -5 -1.5 -8.5t2.5 -4l5 -2.5l4 -1q80 -13 127 -41q39 -27 39 -57q0 -39 -26 -77t-48 -38q-8 0 -17.5 9.5t-13.5 23.5q-13 41 -36.5 70.5t-47.5 41.5 q-4 1 -9 -2t-7 -8l-225 -690q-1 -7 3 -9.5t11 -0.5q163 20 283 127q9 8 15.5 9.5t9.5 -2t3 -9.5q0 -26 -22 -54q-64 -79 -153 -119.5t-171 -52.5q-13 -4 -18 -12l-51 -135q-4 -8 -6.5 -11.5t-9.5 -6.5t-19 -3q-13 0 -23 6.5t-8 12.5l47 139q8 15 -4 21q-101 19 -168 96.5 t-67 177.5zM365 489q0 -69 33 -117.5t73 -66.5q5 -3 14 6l220 686q4 13 -9 13q-88 -16 -166 -100.5t-121.5 -198.5t-43.5 -222z" />
<glyph unicode="&#xa3;" d="M-63 29q0 40 47.5 85.5t115.5 71.5q2 1 26.5 10t31.5 15q36 27 66 107t61 274q0 6 -5 10t-10 4l-149 -6q-6 0 -8.5 8t0.5 17q3 14 10.5 27t13.5 14l144 10q20 3 22 18q57 232 118.5 347t160.5 184q94 67 227 67q78 0 130 -41.5t52 -97.5q1 -53 -24 -82.5t-62 -38.5 q-13 -4 -20.5 3.5t-7.5 15.5q5 43 4 69q-2 46 -30.5 83.5t-82.5 37.5q-43 0 -79 -25t-71.5 -85t-68.5 -166t-64 -260q-2 -5 0.5 -12t8.5 -7l274 12q6 0 9 -8.5t1 -17.5q-1 -12 -11.5 -25.5t-16.5 -13.5l-271 -15q-3 0 -9 -9.5t-7 -16.5q-43 -150 -88.5 -225t-136.5 -156 q-5 -2 0 -6q2 -2 6 -2q73 -15 184 -64q6 -2 36.5 -13.5t38.5 -14t33 -11.5t36.5 -11.5t30.5 -7t33.5 -6t29.5 -1.5q105 0 151.5 39.5t46.5 117.5q0 42 -22 115q-3 10 8 17.5t18 7.5q27 0 52.5 -28.5t25.5 -80.5q1 -71 -59 -146.5t-150 -124t-172 -48.5q-117 0 -301 123 q-58 38 -90 47q-13 5 -35 -9q-137 -112 -170 -112q-19 0 -25.5 9t-6.5 28z" />
<glyph unicode="&#xa4;" d="M164 963q-8 9 0.5 27.5t19.5 29.5q33 30 52 14l102 -106q3 -3 14.5 -5t14.5 1q88 53 192 53q100 0 195 -57q12 -6 18 2l102 106q21 21 58 -14q18 -14 22 -30.5t-4 -22.5l-100 -111q-6 -10 -2 -23q65 -98 65 -209q0 -106 -71 -208q-2 -2 -3.5 -5t-1.5 -5.5t1 -2.5 l108 -118q7 -6 3.5 -25t-19.5 -33q-7 -7 -23 -13t-20 -1l-123 112q-6 6 -21 -2q-98 -61 -184 -61q-103 0 -188 53q-9 5 -25 -2l-106 -102q-15 -18 -50 10q-15 15 -20 30.5t-3 23t5 12.5l96 104q6 13 0 21q-67 101 -67 210q0 95 69 201q2 2 3 11.5t-3 13.5zM311 616 q0 -111 72.5 -180t175.5 -69q100 0 173 70t73 179q0 104 -76 180t-170 76q-107 0 -177.5 -73t-70.5 -183z" />
<glyph unicode="&#xa5;" d="M117 14q0 28 61 35q79 12 107 41.5t59 128.5l51 174q2 8 -2.5 14.5t-11.5 6.5l-201 -6q-5 0 -7.5 0.5t-4.5 4t-2 11.5q0 10 11.5 28.5t17.5 18.5l208 6q18 6 21 12l33 103q1 4 0.5 8t-2 7t-2.5 3l-215 -6q-15 0 -15 17t10.5 31t22.5 14l195 6q16 0 16 18q-38 243 -80 424 q-11 56 -26.5 75.5t-69.5 37.5q-1 0 -10 2.5t-13.5 4t-11.5 5t-10.5 7.5t-3.5 9q0 19 49 19q15 0 72 -3t83 -3q32 0 85 3t69 3q45 0 45 -19t-45 -28q-39 -11 -53 -30.5t-10 -57.5q46 -341 59 -408q0 -4 8.5 -3.5t11.5 3.5q121 139 246 303q82 103 94 140q2 8 -0.5 16t-18 18 t-44.5 17q-14 2 -26.5 9.5t-12.5 18.5q0 19 51 19q20 0 70.5 -2t68.5 -2q26 -1 76.5 3.5t69.5 4.5q41 0 41 -21q0 -8 -13 -15t-24 -9q-71 -19 -107.5 -46t-99.5 -98q-12 -13 -18 -20q-51 -57 -160.5 -187t-161.5 -190q-15 -18 2 -18l209 4q12 0 12 -23q0 -14 -11 -26.5 t-19 -12.5l-213 -4q-17 0 -21 -12l-28 -104q-1 -6 2 -11.5t8 -5.5l205 4q16 0 16 -22q0 -16 -11 -28.5t-18 -12.5l-207 -4q-22 0 -26 -21q-8 -34 -25.5 -100t-25.5 -100q-20 -82 -6 -107.5t83 -40.5q43 -10 43 -31q0 -20 -61 -20q-20 0 -93.5 3t-115.5 3q-29 0 -91 -3 t-93 -3q-14 0 -29.5 6t-15.5 14z" />
<glyph unicode="&#xa6;" horiz-adv-x="589" d="M301 -354v708h121v-708h-121zM301 659v709h121v-709h-121z" />
<glyph unicode="&#xa7;" horiz-adv-x="841" d="M-31 -137q0 10 9.5 19.5t15.5 6.5q43 -24 96.5 -38.5t93.5 -14.5q84 0 131 38.5t47 94.5q0 99 -90 312q-40 82 -67 174t-27 157q0 225 225 447q14 34 56.5 84t93.5 84q111 78 242 78q42 0 71 -21q9 -6 14 -17.5t3 -19.5t-8 -17.5t-15.5 -19.5t-16 -17t-16 -16t-10.5 -10 q-28 -16 -41 -6q-22 18 -62 31.5t-73 13.5q-38 0 -65.5 -15t-40 -38t-18 -44t-5.5 -40q0 -35 18 -92t35 -96t49 -109q36 -69 68 -163t33 -175q1 -78 -32.5 -165t-68.5 -140.5t-86 -120.5q-87 -111 -218 -195.5t-244 -84.5q-25 0 -49 16.5t-31 32.5q-17 34 -17 86zM287 692 q0 -19 2 -39.5t4.5 -36t9 -41t10 -38t14.5 -44t15 -41.5t18.5 -49.5t18.5 -50.5q66 -175 78 -243q8 -43 6 -74q-1 -6 0 -10t5.5 -3t12.5 9q65 58 94 145t29 174q0 80 -18.5 150t-59.5 168q-103 219 -118 305q-1 11 -8.5 11t-12.5 -7q-100 -110 -100 -285z" />
<glyph unicode="&#xa8;" horiz-adv-x="819" d="M375 1139q0 43 25.5 70.5t60.5 27.5q31 0 51 -24.5t20 -55.5q2 -40 -25.5 -71t-64.5 -31q-32 0 -49.5 24.5t-17.5 59.5zM672 1139q0 42 28.5 70t61.5 28q31 0 50 -24.5t19 -55.5q2 -40 -24 -71t-64 -31q-32 0 -51.5 25t-19.5 59z" />
<glyph unicode="&#xa9;" horiz-adv-x="1417" d="M121 653q0 172 81 317t225.5 230.5t320.5 85.5q180 0 324 -85.5t222 -230t78 -317.5t-80 -317.5t-224 -230t-320 -85.5q-185 0 -329.5 86t-221 229.5t-76.5 317.5zM197 655q0 -156 74 -288t201 -208.5t276 -76.5q151 0 276.5 74.5t197.5 206.5t72 292q0 157 -72 288 t-197.5 206.5t-276.5 75.5q-153 0 -279.5 -75.5t-199 -206.5t-72.5 -288zM397 659q0 90 37.5 154t85.5 102q59 51 132.5 73t133.5 22q67 0 121 -13q13 -2 51 -12t50 -12q15 -5 18 -47q2 -27 2 -90q0 -37 -22 -37q-7 0 -15.5 11t-11.5 21q-19 67 -59 93q-49 34 -125 34 q-111 0 -181.5 -76.5t-70.5 -197.5q0 -86 25.5 -151t66 -99t83 -50.5t85.5 -16.5q42 0 74 9.5t54 28.5t35 36t27 42q12 24 19 32.5t18 8.5q6 0 11.5 -9.5t5.5 -18.5q-3 -43 -27 -111q-4 -10 -20.5 -25t-24.5 -18q-81 -35 -187 -35q-100 0 -179 36.5t-120 82.5 q-92 101 -92 233z" />
<glyph unicode="&#xaa;" horiz-adv-x="645" d="M131 612q0 64 62 166q55 94 134.5 173.5t153.5 123.5q45 25 66 25q32 0 59 -27q3 -2 9.5 -1.5t7.5 3.5q9 19 18.5 31.5t14.5 17t8 4.5q8 0 28.5 -5t30.5 -11q11 -7 4 -25q-118 -258 -156 -397q-8 -26 -4.5 -32.5t19.5 -6.5q24 0 102 64q8 7 16.5 9t10.5 -3q7 -11 -6 -31 q-39 -56 -98.5 -92.5t-106.5 -36.5q-53 0 -53 37q0 10 6.5 30t13 36.5t17 40t12.5 28.5q7 16 -3 16q-8 0 -18 -10q-178 -178 -286 -178q-23 0 -42.5 13t-19.5 38zM258 688q0 -35 25 -35q21 0 56.5 22.5t70.5 57.5q96 90 163 225q14 28 7 39q-6 10 -24 17.5t-32 7.5 q-40 0 -73 -21.5t-74 -72.5q-52 -61 -85.5 -130.5t-33.5 -109.5z" />
<glyph unicode="&#xab;" horiz-adv-x="1312" d="M164 408q0 12 33 26q236 99 553 303q32 21 43 21q16 0 8 -24q-8 -22 -31 -44q-46 -45 -114 -96.5t-113 -81.5t-127 -82l-9 -6l-7.5 -5t-8.5 -5q-9 -4 -11.5 -14.5t3.5 -16.5q67 -71 134 -151t93 -126q5 -8 7.5 -18t-1.5 -18.5t-16 -8.5q-8 0 -14 2.5t-10.5 6t-16.5 14.5 q-68 68 -177 155t-194 140q-9 6 -16.5 15t-7.5 14zM612 408q0 13 31 26q100 40 225.5 108t197.5 113t126 82q28 21 45 21q7 0 9.5 -7t-3.5 -21t-22 -30q-44 -45 -114 -99.5t-117 -87t-130 -87.5q-6 -4 -8.5 -6t-7 -5t-8.5 -5q-16 -12 -7 -23q187 -202 228 -281 q8 -10 7.5 -27.5t-13.5 -17.5q-17 0 -43 23q-66 66 -176.5 153.5t-202.5 147.5q-5 3 -11 11t-6 12z" />
<glyph unicode="&#xac;" horiz-adv-x="1277" d="M154 637q0 23 9 50.5t19 27.5h940q27 0 27 -43v-561q0 -21 -32.5 -31t-65.5 -10q-8 0 -13 1.5t-8.5 8.5t-3.5 20v465q0 24 -7.5 31.5t-27.5 9.5h-796q-27 0 -34 5t-7 26z" />
<glyph unicode="&#xad;" horiz-adv-x="624" d="M88 387q0 17 17 55t28 39q22 4 212 26.5t200 22.5q7 0 13 -9.5t5 -22.5q-4 -30 -22 -61t-43 -34q-49 -8 -210.5 -24.5t-181.5 -16.5q-8 -1 -13 8t-5 17z" />
<glyph unicode="&#xae;" horiz-adv-x="477" d="M233 1094q0 91 66.5 158t161.5 67q96 0 160.5 -64.5t64.5 -160.5q0 -87 -63 -159.5t-166 -72.5q-95 0 -159.5 67t-64.5 165zM279 1094q0 -81 52.5 -136t129.5 -55q81 0 130.5 54t49.5 137q0 81 -52.5 134.5t-127.5 53.5q-77 2 -129.5 -52.5t-52.5 -135.5zM356.5 1191.5 q-1.5 4.5 2 7t8.5 3.5q61 6 98 6q41 0 65.5 -16.5t24.5 -44.5q0 -7 -2.5 -13.5t-5.5 -10.5t-8 -7.5t-8 -5.5t-7.5 -4t-5.5 -2q-4 -4 -2 -8q39 -74 66 -92q10 -5 10 -13q0 -10 -27 -10q-36 0 -55 31q-26 35 -37 59q-3 8 -18 8q-10 0 -12.5 -1.5t-2.5 -6.5v-22 q0 -23 4.5 -28.5t28.5 -14.5q6 -3 7.5 -7.5t-0.5 -8t-7 -3.5h-55h-51q-6 0 -9 7t4 10q15 6 21 13.5t6 22.5v105q0 22 -3.5 27t-16.5 10q-11 5 -12.5 9.5zM440 1114q0 -6 2.5 -7t16.5 -1q22 0 30.5 8.5t8.5 28.5q0 16 -10.5 28.5t-26.5 12.5q-21 0 -21 -8v-62z" />
<glyph unicode="&#xaf;" horiz-adv-x="819" d="M377 1098q4 23 18 45t23 22l364 15q4 0 8 -4.5t7.5 -15.5t1.5 -25q-6 -29 -18 -47.5t-27 -18.5l-363 -8q-9 0 -13 11.5t-1 25.5z" />
<glyph unicode="&#xb0;" horiz-adv-x="614" d="M203 1067q0 97 74.5 166.5t171.5 69.5q95 0 162 -64t67 -172q0 -99 -72 -168.5t-166 -69.5q-97 0 -167 68.5t-70 169.5zM297 1067q0 -74 44 -119t110 -45q56 0 95.5 44t39.5 120q0 71 -42.5 117.5t-109.5 46.5q-56 0 -96.5 -47t-40.5 -117z" />
<glyph unicode="&#xb1;" horiz-adv-x="1277" d="M154 -72q0 24 9 52t19 28h971q19 0 25 -5t6 -19q0 -36 -9.5 -61t-19.5 -25h-960q-27 0 -34 4.5t-7 25.5zM154 616q0 23 9 50.5t19 27.5h402q8 0 16 7.5t8 17.5v397q0 11 33.5 21t58.5 10q22 0 26.5 -6.5t4.5 -34.5v-387q0 -17 4.5 -21t20.5 -4h397q19 0 25 -5t6 -19 q0 -36 -9.5 -60t-19.5 -24h-401q-10 0 -16.5 -9.5t-6.5 -19.5v-387q0 -22 -32.5 -32.5t-65.5 -10.5q-12 0 -18.5 6t-6.5 25v393q0 24 -5 29.5t-25 5.5h-383q-27 0 -34 4.5t-7 25.5z" />
<glyph unicode="&#xb2;" horiz-adv-x="614" d="M203 903q0 6 8.5 17.5t17.5 17.5q83 57 240 192q174 141 174 261q0 51 -25.5 77.5t-66.5 26.5q-32 0 -63.5 -13.5t-47.5 -26.5t-39 -34q-21 -18 -34 -18q-6 0 -10.5 5.5t-4.5 10.5q0 23 35 64q99 104 219 104q64 0 115 -48t51 -122q0 -62 -34.5 -115.5t-106.5 -111.5 q-133 -111 -236 -189q-9 -7 -7 -11.5t11 -4.5q36 0 130.5 3t103.5 5q29 4 74 58q19 26 34 26q10 0 12.5 -17t-5.5 -32q-49 -86 -74 -137q-7 -12 -31 -12q-7 0 -137.5 1t-163.5 1h-86q-53 0 -53 22z" />
<glyph unicode="&#xb3;" horiz-adv-x="614" d="M248 973q0 11 5.5 19.5t12.5 8.5q13 0 25 -10q33 -26 48 -37.5t49.5 -28t62.5 -16.5q61 0 111 55.5t50 125.5q0 63 -33 92.5t-79 29.5q-36 0 -56 -4q-7 -1 -15.5 -1.5t-16 3t-6.5 9.5q0 17 28 34q13 7 50 25t59 29q108 54 108 145q0 34 -19 54t-59 20q-69 0 -133 -105 q-1 -4 -8.5 -4.5t-11.5 2.5q-7 7 -13 24.5t-6 26.5q0 14 25 39q100 78 197 78q74 0 111.5 -42.5t37.5 -88.5q0 -25 -9.5 -46t-33 -40t-37.5 -28.5t-49 -28t-41 -21.5q-14 -10 -2 -12q64 -17 106 -59t42 -109t-65 -133.5t-177 -106.5q-61 -24 -150 -24q-56 0 -83.5 38 t-24.5 87z" />
<glyph unicode="&#xb4;" horiz-adv-x="819" d="M481.5 923.5q0.5 19.5 10.5 34.5q47 84 196 312q15 22 45 22q16 0 31 -32.5t12 -51.5q-3 -22 -28 -53q-67 -79 -197 -217q-26 -35 -57 -35q-13 1 -12.5 20.5z" />
<glyph unicode="&#xb5;" horiz-adv-x="958" d="M-80 -487q-21 76 33 262q36 134 135 397q7 21 17 58t14 51q89 288 168 507q2 6 10.5 16.5t17.5 14.5q17 10 47 10q40 0 78 -38q1 0 3 -10.5t3 -22t0 -15.5q-20 -58 -118 -229q-19 -33 -65 -117.5t-54 -97.5q-28 -46 -25 -94q1 -28 28 -52t52 -24q64 0 149.5 72.5 t155.5 171.5q25 35 43 86q109 269 142 325q9 17 29.5 35.5t29.5 18.5q56 0 90 -43q13 -19 -10 -78q-30 -66 -119 -202.5t-141 -197.5q-29 -38 -31 -77q-3 -71 27 -102.5t71 -31.5q47 0 90.5 28.5t96.5 92.5q6 4 12 5t10 -1.5t4 -7.5q0 -34 -41 -102q-46 -70 -108.5 -116 t-114.5 -46q-128 0 -92 238q3 21 -2 20l-8 -6q-133 -138 -194.5 -188t-110.5 -50q-22 0 -40 17t-28.5 42.5t-16 44t-7.5 32.5q-6 20 -21 2q-22 -31 -65 -172.5t-44 -190.5q-4 -74 15 -111t67 -75q5 -7 4 -19t-6 -20q-11 -18 -33.5 -39t-43.5 -31q-22 -12 -54 -12 q-10 0 -26 21.5t-23 50.5z" />
<glyph unicode="&#xb6;" horiz-adv-x="1175" d="M72 -328q0 95 54 153t124 58q51 0 80.5 -33t29.5 -73q0 -36 -31.5 -62t-68.5 -26q-21 0 -49 20q-15 12 -25 12q-11 0 -23.5 -14t-12.5 -45q0 -49 49 -91t120 -42q43 0 82 17t66 40t53.5 63.5t41.5 69t32 76.5t22.5 67t16.5 58q22 77 41.5 140t28.5 92.5t16 58.5 q2 16 -2.5 26t-16.5 7q-28 -4 -79 -4q-79 0 -151.5 28.5t-132 82.5t-95 141.5t-35.5 195.5q0 146 62.5 256.5t152.5 177.5q170 133 455 144q254 12 393 12q39 0 39 -31q0 -13 -10.5 -27t-22.5 -14q-4 0 -68 4t-84 4q-27 0 -40 -18.5t-31 -77.5q-69 -243 -146.5 -518.5 t-118 -419t-59.5 -207.5q-53 -181 -103 -282.5t-114 -151.5q-48 -38 -92 -56t-111 -18q-114 0 -175.5 59t-61.5 148zM606 442q-9 -62 17 -101.5t75 -39.5q23 0 35 7.5t19 33.5q8 29 55 192t104.5 363t77.5 272q5 17 -7 28t-36 11q-69 0 -131 -96q-58 -96 -121.5 -302 t-87.5 -368z" />
<glyph unicode="&#xb7;" horiz-adv-x="462" d="M111 369q0 57 40.5 95t84.5 38q102 0 102 -111q0 -57 -38 -92t-87 -35t-75.5 30.5t-26.5 74.5z" />
<glyph unicode="&#xb8;" horiz-adv-x="819" d="M70 -410q0 15 4.5 25.5t9 14t8.5 3.5t6 -0.5t5 -2t4.5 -3l6.5 -6.5t9 -8q54 -45 88 -45q21 0 30 7t9 28q0 29 -47 110q-27 52 -27 78q0 34 29 74q25 37 164 139h55q-5 -5 -26 -25t-27 -26t-22 -23t-21.5 -25.5t-14 -22.5t-11.5 -26t-3 -24q0 -27 41 -100q25 -45 25 -84 q0 -28 -31 -64t-72 -61q-51 -31 -80 -31q-38 0 -75 30t-37 68z" />
<glyph unicode="&#xb9;" horiz-adv-x="614" d="M250 897q0 21 65 35q45 9 64.5 22.5t36.5 49.5q25 51 98 284q41 131 49 170q3 17 -12 19q-40 8 -74 8q-49 0 -49 24q0 5 14 14.5t27 10.5q192 29 238 53q10 6 14.5 -1t1.5 -15q-20 -60 -53 -160q-28 -82 -64 -207t-47 -176q-11 -53 0.5 -68.5t65.5 -29.5q29 -8 39 -15 t10 -20q0 -10 -16 -15.5t-37 -5.5q-29 0 -78 3.5t-70 3.5q-44 0 -100 -4.5t-74 -4.5q-15 0 -32 6t-17 19z" />
<glyph unicode="&#xba;" horiz-adv-x="602" d="M172 715q0 76 46.5 174t125.5 166q84 69 176 69q77 0 112.5 -47.5t35.5 -111.5q0 -113 -73.5 -222t-162.5 -153q-64 -29 -123 -29q-61 0 -99 43.5t-38 110.5zM281 684q0 -70 57 -70q42 0 90 58q43 48 93 159.5t50 182.5q0 30 -13.5 47.5t-37.5 17.5q-60 0 -110 -63 q-51 -60 -90 -160.5t-39 -171.5z" />
<glyph unicode="&#xbb;" horiz-adv-x="1353" d="M95.5 78q3.5 17 25.5 39q47 49 121.5 107t127.5 94t136 90q16 12 6 22q-182 197 -227 281q-8 11 -7.5 29t13.5 18q18 0 43 -25q66 -66 176.5 -153.5t200.5 -145.5q6 -3 11 -10t5 -12q0 -15 -29 -27q-100 -41 -225 -109.5t-197 -113.5t-126 -82q-38 -19 -46 -19 q-12 0 -8.5 17zM540 84q8 21 31 43q111 109 379 276q9 4 11.5 15t-3.5 18q-65 67 -133 148t-94 127q-8 11 -8 29t18 18q11 0 18 -4.5t23 -20.5q70 -69 179 -156t192 -139q9 -4 17 -12.5t8 -13.5q0 -13 -33 -27q-246 -103 -553 -305q-28 -19 -43 -19q-17 0 -9 23z" />
<glyph unicode="&#xbc;" horiz-adv-x="1312" d="M160 594q0 21 65 35q46 9 65 22.5t36 48.5q24 50 98 285q41 131 49 170q3 17 -12 19q-40 8 -74 8q-49 0 -49 24q0 5 14 14.5t27 10.5q190 29 237 53q10 6 15 -1t2 -15q-20 -60 -53 -160q-28 -82 -64 -207t-47 -176q-11 -53 0.5 -68.5t65.5 -29.5q29 -8 39 -15t10 -20 q0 -10 -16.5 -15.5t-37.5 -5.5q-29 0 -77.5 3.5t-69.5 3.5q-44 0 -100 -4.5t-74 -4.5q-15 0 -32 6t-17 19zM167 -52.5q-12 19.5 1 36.5q194 236 562 677t517 621q18 21 41 21q17 0 27.5 -6t11 -12.5t-3.5 -12.5q-91 -110 -1104 -1329q-11 -15 -24 -15q-16 0 -28 19.5z M670 227q0 8 39 47q10 12 141 132.5t233 211.5q28 24 35 31q3 2 14.5 10.5t17.5 13t17.5 12t19.5 11.5t16.5 7.5t13.5 3.5q6 0 11.5 -10.5t2.5 -20.5q-1 -3 -23.5 -76t-50 -161.5t-37.5 -123.5q-3 -3 -0.5 -8.5t10.5 -5.5l109 6q4 0 8 -6.5t2 -11.5q-6 -20 -18 -38t-25 -18 q-15 0 -96 -6q-13 0 -16 -14q-44 -161 -62 -209q-3 -16 -26 -24q-8 -4 -39 -8.5t-43 -4.5q-8 0 -12.5 8t-0.5 25q1 3 13 40.5t26.5 82.5t26.5 78q2 5 1 11.5t-5 6.5t-136.5 -7t-146.5 -7q-7 0 -14.5 8t-5.5 14zM806 289.5q-1 -3.5 0.5 -6t4.5 -2.5l182 12q2 0 9 5.5t8 8.5 q48 154 88 258q1 4 -2.5 5t-5.5 -1q-102 -87 -279 -272q-4 -4 -5 -7.5z" />
<glyph unicode="&#xbd;" horiz-adv-x="1390" d="M134 -52.5q-12 19.5 1 36.5q194 236 562 677t517 621q18 21 41 21q17 0 27.5 -6t11 -12.5t-3.5 -12.5q-91 -110 -1104 -1329q-11 -15 -24 -15q-16 0 -28 19.5zM160 594q0 21 65 35q46 9 65 22.5t36 48.5q24 50 98 285q41 131 49 170q3 17 -12 19q-40 8 -74 8 q-49 0 -49 24q0 5 14 14.5t27 10.5q190 29 237 53q10 6 15 -1t2 -15q-20 -60 -53 -160q-28 -82 -64 -207t-47 -176q-11 -53 0.5 -68.5t65.5 -29.5q29 -8 39 -15t10 -20q0 -10 -16.5 -15.5t-37.5 -5.5q-29 0 -77.5 3.5t-69.5 3.5q-44 0 -100 -4.5t-74 -4.5q-15 0 -32 6 t-17 19zM715 23q0 6 8.5 17t17.5 17q77 53 240 193q91 73 132.5 135.5t41.5 124.5q0 51 -25.5 77.5t-66.5 26.5q-32 0 -63.5 -13t-48 -26t-38.5 -34q-22 -19 -34 -19q-6 0 -10.5 6t-4.5 11q0 22 35 63q100 105 219 105q64 0 115 -48t51 -122q0 -62 -34.5 -116t-106.5 -112 q-118 -98 -236 -188q-9 -7 -7 -12t11 -5q35 0 130 3.5t104 5.5q30 4 74 57q19 27 34 27q10 0 12.5 -17.5t-5.5 -32.5q-49 -86 -74 -137q-7 -12 -31 -12q-7 0 -137.5 1t-163.5 1h-86q-53 0 -53 23z" />
<glyph unicode="&#xbe;" horiz-adv-x="1304" d="M158 670q0 11 5.5 19.5t12.5 8.5q13 0 25 -10q1 -1 12 -9.5t14 -11t14 -10.5t15.5 -11t15.5 -10t17.5 -10t16.5 -8t18 -7t17.5 -3.5t18.5 -1.5q61 0 111.5 55t50.5 125q0 63 -33 93t-79 30q-36 0 -56 -4q-5 -1 -11.5 -1.5t-13 0t-11 3.5t-3.5 8q0 17 29 35q13 7 50 25 t59 29q108 54 108 145q0 34 -19 54t-59 20q-69 0 -133 -105q-1 -4 -8.5 -4.5t-11.5 2.5q-7 7 -13 24.5t-6 26.5q0 14 25 39q100 78 196 78q74 0 112 -42.5t38 -88.5q0 -25 -9.5 -46t-33 -40t-37.5 -28.5t-49 -28t-41 -21.5q-14 -10 -2 -12q64 -17 105.5 -59t41.5 -109 q0 -68 -64.5 -134t-176.5 -106q-61 -24 -150 -24q-56 0 -83.5 38t-24.5 87zM169 -52.5q-12 19.5 1 36.5q194 236 562 677t517 621q18 21 41 21q17 0 27.5 -6t11 -12.5t-3.5 -12.5q-91 -110 -1104 -1329q-11 -15 -24 -15q-16 0 -28 19.5zM662 227q0 9 38 47q10 11 141 131.5 t234 212.5q28 24 35 31q2 2 16.5 12.5t22.5 16t21 13.5t22 12t16 4q6 0 12 -10.5t3 -20.5q-1 -3 -23.5 -76t-50 -161.5t-37.5 -123.5q-3 -3 -0.5 -8.5t10.5 -5.5l109 6q4 0 8 -6.5t2 -11.5q-6 -20 -18 -38t-25 -18q-15 0 -96 -6q-14 0 -17 -14q-47 -171 -61 -209 q-3 -16 -27 -24q-8 -4 -39 -8.5t-43 -4.5q-7 0 -11.5 8t-0.5 25q1 3 13 40.5t26.5 82.5t26.5 78q2 5 1 11.5t-5 6.5t-136.5 -7t-146.5 -7q-7 0 -14.5 8t-5.5 14zM798 289.5q-1 -3.5 0.5 -6t4.5 -2.5l182 12q2 0 8.5 5.5t7.5 8.5q44 140 89 258q1 4 -3 5t-6 -1 q-97 -83 -278 -272q-4 -4 -5 -7.5z" />
<glyph unicode="&#xbf;" horiz-adv-x="739" d="M-51 -168q0 59 35.5 113t76.5 75q69 48 213 132q22 13 36 25.5t21 19t10.5 22.5t3.5 19.5t1 27.5q0 57 -61 166q-2 4 0 9.5t9.5 9t22.5 -1.5q18 -7 39.5 -21t50.5 -41.5t48 -76t18 -107.5q-3 -88 -61 -146q-52 -52 -252 -149q-127 -60 -127 -139q0 -50 29 -87.5 t100 -37.5q55 0 86 57q14 27 27 36t40 9q29 0 50.5 -20.5t21.5 -55.5q0 -50 -52.5 -85.5t-123.5 -35.5q-76 0 -166 72q-36 29 -66 89.5t-30 121.5zM332 717q0 57 38.5 93t86.5 36q51 0 76.5 -30t25.5 -75q0 -57 -39.5 -96t-83.5 -39q-49 0 -76.5 29t-27.5 82z" />
<glyph unicode="&#xc0;" horiz-adv-x="1302" d="M-127 20q0 8 15 15t36 8q87 1 140.5 28t121.5 101q136 146 327.5 374.5t342.5 415.5t158 195q37 42 61 76q8 16 12 16q27 4 41.5 7.5t38 12t42.5 25.5t36 43q6 9 18 17t19 8q27 0 4 -66q-53 -133 -69 -200q-16 -70 -61.5 -259.5t-81.5 -346.5t-52 -252q-16 -71 -13 -111 t30 -57.5t98 -26.5q39 -7 39 -27q0 -22 -62 -22q-34 0 -82.5 3t-87.5 3q-90 0 -174 -7t-111 -7q-17 0 -31.5 6.5t-13.5 13.5q0 9 12.5 17.5t28.5 11.5q39 5 68 15.5t45.5 21t29.5 31.5t18.5 35t14.5 42q66 215 91 338q2 7 -4.5 16t-14.5 9q-28 0 -142.5 -7.5t-148.5 -11.5 q-14 -2 -42.5 -19t-49.5 -38t-87 -105.5t-116 -156.5q-89 -137 58 -166q14 -6 14 -12q0 -10 -13.5 -20.5t-25.5 -10.5q-42 0 -107 2t-116 2q-24 0 -106 -4t-91 -4q-57 0 -57 28zM638.5 601q1.5 -4 4 -5.5t4.5 -1.5q22 0 123.5 5.5t144.5 10.5q24 5 37 37q16 40 49 185.5 t39 185.5q4 25 5.5 37.5t2 20.5t-1 9.5t-4.5 1.5q-13 0 -47 -36q-70 -76 -354 -439q-4 -7 -2.5 -11zM985 1616q0 8 14 24.5t35 30.5q24 16 39 12q29 0 74 -51q2 -2 61 -67t88 -103q9 -12 13.5 -30.5t-0.5 -22.5q-12 -8 -30.5 -4t-31.5 14q-84 49 -221 140q-41 33 -41 57z " />
<glyph unicode="&#xc1;" horiz-adv-x="1302" d="M-127 20q0 8 15 15t36 8q87 1 140.5 28t121.5 101q136 146 327.5 374.5t342.5 415.5t158 195q37 42 61 76q8 16 12 16q27 4 41.5 7.5t38 12t42.5 25.5t36 43q6 9 18 17t19 8q27 0 4 -66q-53 -133 -69 -200q-16 -70 -61.5 -259.5t-81.5 -346.5t-52 -252q-16 -71 -13 -111 t30 -57.5t98 -26.5q39 -7 39 -27q0 -22 -62 -22q-34 0 -82.5 3t-87.5 3q-90 0 -174 -7t-111 -7q-17 0 -31.5 6.5t-13.5 13.5q0 9 12.5 17.5t28.5 11.5q39 5 68 15.5t45.5 21t29.5 31.5t18.5 35t14.5 42q66 215 91 338q2 7 -4.5 16t-14.5 9q-28 0 -142.5 -7.5t-148.5 -11.5 q-14 -2 -42.5 -19t-49.5 -38t-87 -105.5t-116 -156.5q-89 -137 58 -166q14 -6 14 -12q0 -10 -13.5 -20.5t-25.5 -10.5q-42 0 -107 2t-116 2q-24 0 -106 -4t-91 -4q-57 0 -57 28zM638.5 601q1.5 -4 4 -5.5t4.5 -1.5q22 0 123.5 5.5t144.5 10.5q24 5 37 37q16 40 49 185.5 t39 185.5q4 25 5.5 37.5t2 20.5t-1 9.5t-4.5 1.5q-13 0 -47 -36q-70 -76 -354 -439q-4 -7 -2.5 -11zM1151 1423q-15 21 27 58q161 136 274 213q11 8 27 11t22 -1q19 -8 43 -32.5t23 -45.5q0 -20 -56 -51q-142 -84 -288 -143q-62 -21 -72 -9z" />
<glyph unicode="&#xc2;" horiz-adv-x="1302" d="M-127 20q0 8 15 15t36 8q87 1 140.5 28t121.5 101q136 146 327.5 374.5t342.5 415.5t158 195q37 42 61 76q8 16 12 16q27 4 41.5 7.5t38 12t42.5 25.5t36 43q6 9 18 17t19 8q27 0 4 -66q-53 -133 -69 -200q-16 -70 -61.5 -259.5t-81.5 -346.5t-52 -252q-16 -71 -13 -111 t30 -57.5t98 -26.5q39 -7 39 -27q0 -22 -62 -22q-34 0 -82.5 3t-87.5 3q-90 0 -174 -7t-111 -7q-17 0 -31.5 6.5t-13.5 13.5q0 9 12.5 17.5t28.5 11.5q39 5 68 15.5t45.5 21t29.5 31.5t18.5 35t14.5 42q66 215 91 338q2 7 -4.5 16t-14.5 9q-28 0 -142.5 -7.5t-148.5 -11.5 q-14 -2 -42.5 -19t-49.5 -38t-87 -105.5t-116 -156.5q-89 -137 58 -166q14 -6 14 -12q0 -10 -13.5 -20.5t-25.5 -10.5q-42 0 -107 2t-116 2q-24 0 -106 -4t-91 -4q-57 0 -57 28zM638.5 601q1.5 -4 4 -5.5t4.5 -1.5q22 0 123.5 5.5t144.5 10.5q24 5 37 37q16 40 49 185.5 t39 185.5q4 25 5.5 37.5t2 20.5t-1 9.5t-4.5 1.5q-13 0 -47 -36q-70 -76 -354 -439q-4 -7 -2.5 -11zM937 1377q0 17 32 38q190 128 250 178q15 14 39 28.5t36 14.5q5 0 9.5 -2t7.5 -4t7.5 -7.5t6 -8t5.5 -9.5t5 -8q29 -55 115 -192q12 -23 8 -34t-18 -11q-20 0 -45 22 q-73 49 -131 107q-12 8 -23 0q-89 -53 -237 -113q-32 -12 -54 -12q-14 0 -13 13z" />
<glyph unicode="&#xc3;" horiz-adv-x="1302" d="M-127 20q0 8 15 15t36 8q87 1 140.5 28t121.5 101q136 146 327.5 374.5t342.5 415.5t158 195q37 42 61 76q8 16 12 16q27 4 41.5 7.5t38 12t42.5 25.5t36 43q6 9 18 17t19 8q27 0 4 -66q-53 -133 -69 -200q-16 -70 -61.5 -259.5t-81.5 -346.5t-52 -252q-16 -71 -13 -111 t30 -57.5t98 -26.5q39 -7 39 -27q0 -22 -62 -22q-34 0 -82.5 3t-87.5 3q-90 0 -174 -7t-111 -7q-17 0 -31.5 6.5t-13.5 13.5q0 9 12.5 17.5t28.5 11.5q39 5 68 15.5t45.5 21t29.5 31.5t18.5 35t14.5 42q66 215 91 338q2 7 -4.5 16t-14.5 9q-28 0 -142.5 -7.5t-148.5 -11.5 q-14 -2 -42.5 -19t-49.5 -38t-87 -105.5t-116 -156.5q-89 -137 58 -166q14 -6 14 -12q0 -10 -13.5 -20.5t-25.5 -10.5q-42 0 -107 2t-116 2q-24 0 -106 -4t-91 -4q-57 0 -57 28zM638.5 601q1.5 -4 4 -5.5t4.5 -1.5q22 0 123.5 5.5t144.5 10.5q24 5 37 37q16 40 49 185.5 t39 185.5q4 25 5.5 37.5t2 20.5t-1 9.5t-4.5 1.5q-13 0 -47 -36q-70 -76 -354 -439q-4 -7 -2.5 -11zM958 1413q0 9 23 51q37 63 72 95q22 22 57 22q29 0 83.5 -0.5t78.5 -0.5t53.5 1.5t46.5 5.5q14 4 27.5 12.5t20 14.5t15 15.5t9.5 10.5q3 2 7 7t7 8.5t6 3.5q12 0 25 -27 q3 -4 0 -14t-10 -16q-15 -17 -49 -62t-39 -51q-12 -12 -29.5 -19.5t-24.5 -7.5q-8 0 -83.5 1t-124 0t-62.5 -5q-21 -6 -68 -67q-3 -9 -12 -9t-19 12.5t-10 18.5z" />
<glyph unicode="&#xc4;" horiz-adv-x="1302" d="M-127 20q0 8 15 15t36 8q87 1 140.5 28t121.5 101q136 146 327.5 374.5t342.5 415.5t158 195q37 42 61 76q8 16 12 16q27 4 41.5 7.5t38 12t42.5 25.5t36 43q6 9 18 17t19 8q27 0 4 -66q-53 -133 -69 -200q-16 -70 -61.5 -259.5t-81.5 -346.5t-52 -252q-16 -71 -13 -111 t30 -57.5t98 -26.5q39 -7 39 -27q0 -22 -62 -22q-34 0 -82.5 3t-87.5 3q-90 0 -174 -7t-111 -7q-17 0 -31.5 6.5t-13.5 13.5q0 9 12.5 17.5t28.5 11.5q39 5 68 15.5t45.5 21t29.5 31.5t18.5 35t14.5 42q66 215 91 338q2 7 -4.5 16t-14.5 9q-28 0 -142.5 -7.5t-148.5 -11.5 q-14 -2 -42.5 -19t-49.5 -38t-87 -105.5t-116 -156.5q-89 -137 58 -166q14 -6 14 -12q0 -10 -13.5 -20.5t-25.5 -10.5q-42 0 -107 2t-116 2q-24 0 -106 -4t-91 -4q-57 0 -57 28zM638.5 601q1.5 -4 4 -5.5t4.5 -1.5q22 0 123.5 5.5t144.5 10.5q24 5 37 37q16 40 49 185.5 t39 185.5q4 25 5.5 37.5t2 20.5t-1 9.5t-4.5 1.5q-13 0 -47 -36q-70 -76 -354 -439q-4 -7 -2.5 -11zM936 1489q3 40 35 69t69 29q38 0 59 -25t19 -65q-3 -38 -36.5 -68t-69.5 -30q-37 0 -57.5 24.5t-18.5 65.5zM1321 1489q3 41 35 69.5t71 28.5q36 0 56 -25t18 -65 q-3 -39 -35 -68.5t-67 -29.5q-38 0 -59 25t-19 65z" />
<glyph unicode="&#xc5;" horiz-adv-x="1302" d="M-127 20q0 8 15 15t36 8q87 1 140.5 28t121.5 101q136 146 327.5 374.5t342.5 415.5t158 195q37 42 61 76q8 16 12 16q27 4 41.5 7.5t38 12t42.5 25.5t36 43q6 9 18 17t19 8q27 0 4 -66q-53 -133 -69 -200q-16 -70 -61.5 -259.5t-81.5 -346.5t-52 -252q-16 -71 -13 -111 t30 -57.5t98 -26.5q39 -7 39 -27q0 -22 -62 -22q-34 0 -82.5 3t-87.5 3q-90 0 -174 -7t-111 -7q-17 0 -31.5 6.5t-13.5 13.5q0 9 12.5 17.5t28.5 11.5q39 5 68 15.5t45.5 21t29.5 31.5t18.5 35t14.5 42q66 215 91 338q2 7 -4.5 16t-14.5 9q-28 0 -142.5 -7.5t-148.5 -11.5 q-14 -2 -42.5 -19t-49.5 -38t-87 -105.5t-116 -156.5q-89 -137 58 -166q14 -6 14 -12q0 -10 -13.5 -20.5t-25.5 -10.5q-42 0 -107 2t-116 2q-24 0 -106 -4t-91 -4q-57 0 -57 28zM638.5 601q1.5 -4 4 -5.5t4.5 -1.5q22 0 123.5 5.5t144.5 10.5q24 5 37 37q16 40 49 185.5 t39 185.5q4 25 5.5 37.5t2 20.5t-1 9.5t-4.5 1.5q-13 0 -47 -36q-70 -76 -354 -439q-4 -7 -2.5 -11zM1063 1575q8 67 60 114.5t126 47.5q71 0 112.5 -53.5t33.5 -120.5q-11 -68 -62 -113t-123 -45q-75 0 -115.5 50.5t-31.5 119.5zM1139 1573q-6 -49 16 -78t59 -29 q43 0 72 26.5t35 80.5q3 41 -21 72.5t-59 31.5q-40 0 -68.5 -30t-33.5 -74z" />
<glyph unicode="&#xc6;" horiz-adv-x="1931" d="M-139 14q0 15 11 23t40 12q174 32 287 158q70 79 465 523t423 476q23 34 -4 39q-9 2 -56 9t-77 12q-17 2 -37 10.5t-20 19.5t21.5 18t48.5 7q4 0 81.5 -1t184 -2t182.5 -1h127q356 0 410 16q6 2 9.5 -5t3 -17.5t-4.5 -18.5q-46 -83 -62 -223q-5 -35 -28 -35q-28 0 -31 58 q-6 82 -20.5 118t-45.5 39q-62 6 -290 6q-64 0 -80 -11t-35 -64q-29 -85 -139 -475q-7 -33 14 -33l244 6q25 1 43.5 2t35.5 5t26.5 5t22 9.5t17 10t16 15.5t14 17t16.5 23t18 26q22 32 41 32q8 0 12.5 -7.5t3.5 -22.5t-10 -35q-50 -99 -97 -291q-5 -20 -16 -29.5t-20 -9.5 q-8 0 -15.5 16t-7.5 39q0 69 -16 92t-58 21l-299 -6q-10 0 -19 -12.5t-11 -22.5q-19 -52 -56.5 -184t-42.5 -160q-20 -89 4 -115q37 -37 250 -37q130 0 185 9.5t114 42.5q49 26 140 151q3 5 8.5 12t8 10.5t6.5 9t6.5 8.5t6 7t6 6t5.5 4t6 2.5t6 0.5q25 0 8 -62 q-13 -42 -43 -112.5t-57 -108.5q-19 -28 -48.5 -36.5t-93.5 -8.5q-45 0 -325.5 3t-341.5 3q-70 0 -146 -3t-77 -3q-23 0 -35 7.5t-12 16.5q0 32 53 37q36 4 61.5 8.5t44.5 16t29 18t21.5 28t15.5 32.5t16 45q77 210 117 366q3 5 0.5 14t-10.5 9q-333 -9 -361 -12 q-28 0 -55 -31q-233 -267 -322 -393q-20 -27 -25.5 -44.5t6 -28.5t26.5 -17t49 -15q39 -11 39 -31q0 -13 -14.5 -19.5t-33.5 -6.5q-1 0 -65 3t-137 3q-49 0 -121 -3t-86 -3q-24 0 -36.5 6.5t-12.5 13.5zM708.5 671q1.5 -5 4 -7t4.5 -2q14 0 157 5t160 5q4 0 8.5 2t10 9.5 t8.5 18.5q1 6 76 250.5t82 276.5q3 25 -29 -5l-14 -14q-106 -112 -251 -274.5t-212 -251.5q-6 -8 -4.5 -13z" />
<glyph unicode="&#xc7;" horiz-adv-x="1347" d="M172 487q0 174 75 338t208 289q121 117 273.5 178.5t311.5 61.5q154 0 283 -54q30 -13 44.5 -14t41.5 12q37 21 49 9q13 -19 0 -43q-29 -51 -61.5 -128t-40.5 -110q-15 -55 -41 -55q-24 0 -17 61q9 60 0 103.5t-41 83.5q-65 84 -202 84q-232 0 -453 -218 q-112 -115 -174.5 -287.5t-62.5 -330.5q0 -97 26 -176t65.5 -127t90 -80.5t95.5 -45.5t85 -13q79 0 150 33.5t114 72.5q159 152 166 158q20 18 39 18t6 -47q-16 -57 -158 -270q-26 -34 -59 -8q-19 17 -35 21.5t-53 -1.5q-2 0 -57.5 -13.5t-96.5 -19.5q-33 -33 -50.5 -52 t-35.5 -48.5t-18 -52.5q0 -16 6.5 -34.5t12.5 -30t24 -44.5q27 -52 27 -88q0 -28 -33.5 -66t-73.5 -61q-55 -37 -86 -37q-40 0 -79.5 35t-39.5 80q0 35 19 35q15 0 43 -25q58 -49 92 -49q21 0 29 9.5t8 33.5q0 40 -49 119q-27 47 -27 78q0 24 6 36.5t27 38.5q34 36 125 117 h-21q-61 0 -124 17.5t-127 58t-114 99t-81 149t-31 200.5z" />
<glyph unicode="&#xc8;" horiz-adv-x="1226" d="M-86 14q0 10 17 18t46 11q61 5 99 15.5t61 33t33.5 45t24.5 66.5q40 119 149.5 466t138.5 433q11 33 15 52.5t2 42t-16.5 36t-44 24.5t-77.5 17q-53 4 -53 29q0 20 66 20q19 0 99.5 -3t139.5 -3h191q242 0 331 3.5t138 16.5q4 1 7.5 -5.5t5.5 -14.5t1 -12 q-29 -52 -57 -129.5t-31 -106.5q0 -5 -5 -10.5t-11 -5.5q-12 0 -27 16.5t-16 42.5q-6 86 -15 104q-9 20 -32 29q-22 10 -68.5 12.5t-187.5 2.5q-61 0 -90 -9t-48 -34q-10 -14 -27.5 -58.5t-40 -113.5t-38.5 -119t-39 -124.5t-25 -82.5q-3 -7 6 -18t17 -11l231 8 q56 2 89.5 7.5t58.5 21.5t37.5 30t36.5 48q23 33 45 33q8 0 10 -12t-1.5 -30t-12.5 -34q-62 -113 -97 -266q-11 -41 -30 -41q-11 0 -18.5 14t-6.5 45q4 65 -18 86t-62 21l-264 -7q-58 0 -70 -39q-17 -49 -34 -111t-36 -137t-28 -108q-21 -82 4 -119q15 -22 28.5 -30t39.5 -9 q147 -10 299 -10q86 0 141 37q96 47 174 158q13 19 17 25t11.5 14.5t12.5 11t12 2.5q20 0 8 -55q-12 -50 -41 -111t-55 -90q-39 -42 -57 -45q-54 -12 -92 -12q-45 0 -318 7t-334 7q-65 0 -150.5 -6t-109.5 -6q-26 0 -42.5 7.5t-16.5 18.5zM676 1616q0 8 14 24.5t35 30.5 q24 16 39 12q29 0 74 -51q2 -2 61 -67t88 -103q9 -12 13 -30.5t-1 -22.5q-12 -8 -29.5 -4t-31.5 14q-84 49 -221 140q-41 33 -41 57z" />
<glyph unicode="&#xc9;" horiz-adv-x="1226" d="M-86 14q0 10 17 18t46 11q61 5 99 15.5t61 33t33.5 45t24.5 66.5q40 119 149.5 466t138.5 433q11 33 15 52.5t2 42t-16.5 36t-44 24.5t-77.5 17q-53 4 -53 29q0 20 66 20q19 0 99.5 -3t139.5 -3h191q242 0 331 3.5t138 16.5q4 1 7.5 -5.5t5.5 -14.5t1 -12 q-29 -52 -57 -129.5t-31 -106.5q0 -5 -5 -10.5t-11 -5.5q-12 0 -27 16.5t-16 42.5q-6 86 -15 104q-9 20 -32 29q-22 10 -68.5 12.5t-187.5 2.5q-61 0 -90 -9t-48 -34q-10 -14 -27.5 -58.5t-40 -113.5t-38.5 -119t-39 -124.5t-25 -82.5q-3 -7 6 -18t17 -11l231 8 q56 2 89.5 7.5t58.5 21.5t37.5 30t36.5 48q23 33 45 33q8 0 10 -12t-1.5 -30t-12.5 -34q-62 -113 -97 -266q-11 -41 -30 -41q-11 0 -18.5 14t-6.5 45q4 65 -18 86t-62 21l-264 -7q-58 0 -70 -39q-17 -49 -34 -111t-36 -137t-28 -108q-21 -82 4 -119q15 -22 28.5 -30t39.5 -9 q147 -10 299 -10q86 0 141 37q96 47 174 158q13 19 17 25t11.5 14.5t12.5 11t12 2.5q20 0 8 -55q-12 -50 -41 -111t-55 -90q-39 -42 -57 -45q-54 -12 -92 -12q-45 0 -318 7t-334 7q-65 0 -150.5 -6t-109.5 -6q-26 0 -42.5 7.5t-16.5 18.5zM756 1425q-16 21 26 58 q157 132 275 213q11 8 27 11t22 -1q19 -8 42.5 -32.5t22.5 -45.5q0 -20 -55 -51q-140 -83 -289 -143q-61 -20 -71 -9z" />
<glyph unicode="&#xca;" horiz-adv-x="1226" d="M-86 14q0 10 17 18t46 11q61 5 99 15.5t61 33t33.5 45t24.5 66.5q40 119 149.5 466t138.5 433q11 33 15 52.5t2 42t-16.5 36t-44 24.5t-77.5 17q-53 4 -53 29q0 20 66 20q19 0 99.5 -3t139.5 -3h191q242 0 331 3.5t138 16.5q4 1 7.5 -5.5t5.5 -14.5t1 -12 q-29 -52 -57 -129.5t-31 -106.5q0 -5 -5 -10.5t-11 -5.5q-12 0 -27 16.5t-16 42.5q-6 86 -15 104q-9 20 -32 29q-22 10 -68.5 12.5t-187.5 2.5q-61 0 -90 -9t-48 -34q-10 -14 -27.5 -58.5t-40 -113.5t-38.5 -119t-39 -124.5t-25 -82.5q-3 -7 6 -18t17 -11l231 8 q56 2 89.5 7.5t58.5 21.5t37.5 30t36.5 48q23 33 45 33q8 0 10 -12t-1.5 -30t-12.5 -34q-62 -113 -97 -266q-11 -41 -30 -41q-11 0 -18.5 14t-6.5 45q4 65 -18 86t-62 21l-264 -7q-58 0 -70 -39q-17 -49 -34 -111t-36 -137t-28 -108q-21 -82 4 -119q15 -22 28.5 -30t39.5 -9 q147 -10 299 -10q86 0 141 37q96 47 174 158q13 19 17 25t11.5 14.5t12.5 11t12 2.5q20 0 8 -55q-12 -50 -41 -111t-55 -90q-39 -42 -57 -45q-54 -12 -92 -12q-45 0 -318 7t-334 7q-65 0 -150.5 -6t-109.5 -6q-26 0 -42.5 7.5t-16.5 18.5zM601 1430q0 17 32 38 q184 124 250 179q15 14 39 28.5t36 14.5q5 0 9.5 -2t7.5 -4t7.5 -7.5t6 -8t5.5 -9.5t5 -8q32 -61 115 -193q12 -23 8 -34t-18 -11q-19 0 -45 23q-77 52 -131 106q-12 8 -23 0q-84 -49 -237 -112q-35 -13 -54 -13q-14 0 -13 13z" />
<glyph unicode="&#xcb;" horiz-adv-x="1226" d="M-86 14q0 10 17 18t46 11q61 5 99 15.5t61 33t33.5 45t24.5 66.5q40 119 149.5 466t138.5 433q11 33 15 52.5t2 42t-16.5 36t-44 24.5t-77.5 17q-53 4 -53 29q0 20 66 20q19 0 99.5 -3t139.5 -3h191q242 0 331 3.5t138 16.5q4 1 7.5 -5.5t5.5 -14.5t1 -12 q-29 -52 -57 -129.5t-31 -106.5q0 -5 -5 -10.5t-11 -5.5q-12 0 -27 16.5t-16 42.5q-6 86 -15 104q-9 20 -32 29q-22 10 -68.5 12.5t-187.5 2.5q-61 0 -90 -9t-48 -34q-10 -14 -27.5 -58.5t-40 -113.5t-38.5 -119t-39 -124.5t-25 -82.5q-3 -7 6 -18t17 -11l231 8 q56 2 89.5 7.5t58.5 21.5t37.5 30t36.5 48q23 33 45 33q8 0 10 -12t-1.5 -30t-12.5 -34q-62 -113 -97 -266q-11 -41 -30 -41q-11 0 -18.5 14t-6.5 45q4 65 -18 86t-62 21l-264 -7q-58 0 -70 -39q-17 -49 -34 -111t-36 -137t-28 -108q-21 -82 4 -119q15 -22 28.5 -30t39.5 -9 q147 -10 299 -10q86 0 141 37q96 47 174 158q13 19 17 25t11.5 14.5t12.5 11t12 2.5q20 0 8 -55q-12 -50 -41 -111t-55 -90q-39 -42 -57 -45q-54 -12 -92 -12q-45 0 -318 7t-334 7q-65 0 -150.5 -6t-109.5 -6q-26 0 -42.5 7.5t-16.5 18.5zM604 1532q3 40 35.5 69t69.5 29 q38 0 58.5 -25t18.5 -65q-3 -38 -36.5 -68t-69.5 -30q-37 0 -57.5 24.5t-18.5 65.5zM989 1532q3 40 35.5 69t71.5 29q36 0 55.5 -24.5t17.5 -65.5q-3 -39 -35 -68.5t-67 -29.5q-38 0 -59 25t-19 65z" />
<glyph unicode="&#xcc;" horiz-adv-x="700" d="M-41 12q0 8 15.5 17t37.5 12q89 12 124.5 45.5t72.5 136.5q29 76 126.5 414.5t125.5 458.5q23 95 8 129t-84 43q-57 9 -59 30q0 9 14.5 16t42.5 7q39 0 94 -2t88 -2q64 0 147 3t103 3q53 0 53 -18q0 -24 -61 -35q-80 -13 -104.5 -36t-57.5 -108q-33 -83 -135.5 -448 t-122.5 -465q-12 -49 -13.5 -78t10.5 -47t31 -26t56 -15q24 -4 36.5 -13t12.5 -18q0 -22 -59 -22q-39 0 -93 3t-87 3q-46 0 -140.5 -5t-124.5 -5q-57 0 -57 22zM389 1616q0 8 14 24.5t35 30.5q24 16 39 12q29 0 74 -51q2 -2 61 -67t88 -103q9 -12 13.5 -30.5t-0.5 -22.5 q-12 -8 -30.5 -4t-31.5 14q-84 49 -221 140q-41 33 -41 57z" />
<glyph unicode="&#xcd;" horiz-adv-x="700" d="M-41 12q0 8 15.5 17t37.5 12q89 12 124.5 45.5t72.5 136.5q29 76 126.5 414.5t125.5 458.5q23 95 8 129t-84 43q-57 9 -59 30q0 9 14.5 16t42.5 7q39 0 94 -2t88 -2q64 0 147 3t103 3q53 0 53 -18q0 -24 -61 -35q-80 -13 -104.5 -36t-57.5 -108q-33 -83 -135.5 -448 t-122.5 -465q-12 -49 -13.5 -78t10.5 -47t31 -26t56 -15q24 -4 36.5 -13t12.5 -18q0 -22 -59 -22q-39 0 -93 3t-87 3q-46 0 -140.5 -5t-124.5 -5q-57 0 -57 22zM539 1407q-15 21 26 57q157 132 275 213q11 8 27 11.5t22 -0.5q19 -8 42.5 -32.5t22.5 -45.5q0 -20 -55 -51 q-145 -86 -289 -144q-61 -20 -71 -8z" />
<glyph unicode="&#xce;" horiz-adv-x="700" d="M-41 12q0 8 15.5 17t37.5 12q89 12 124.5 45.5t72.5 136.5q29 76 126.5 414.5t125.5 458.5q23 95 8 129t-84 43q-57 9 -59 30q0 9 14.5 16t42.5 7q39 0 94 -2t88 -2q64 0 147 3t103 3q53 0 53 -18q0 -24 -61 -35q-80 -13 -104.5 -36t-57.5 -108q-33 -83 -135.5 -448 t-122.5 -465q-12 -49 -13.5 -78t10.5 -47t31 -26t56 -15q24 -4 36.5 -13t12.5 -18q0 -22 -59 -22q-39 0 -93 3t-87 3q-46 0 -140.5 -5t-124.5 -5q-57 0 -57 22zM349 1420q2 18 32 38q190 128 250 178q15 13 39.5 28t36.5 15q5 0 9.5 -2t7.5 -4t7.5 -7.5t6 -8t5.5 -9.5t5 -8 q34 -64 114 -192q12 -23 8 -34t-18 -11q-20 0 -45 22q-73 50 -131 107q-12 8 -23 0q-89 -53 -237 -113q-32 -12 -54 -12q-14 0 -13 13z" />
<glyph unicode="&#xcf;" horiz-adv-x="700" d="M-41 12q0 8 15.5 17t37.5 12q89 12 124.5 45.5t72.5 136.5q29 76 126.5 414.5t125.5 458.5q23 95 8 129t-84 43q-57 9 -59 30q0 9 14.5 16t42.5 7q39 0 94 -2t88 -2q64 0 147 3t103 3q53 0 53 -18q0 -24 -61 -35q-80 -13 -104.5 -36t-57.5 -108q-33 -83 -135.5 -448 t-122.5 -465q-12 -49 -13.5 -78t10.5 -47t31 -26t56 -15q24 -4 36.5 -13t12.5 -18q0 -22 -59 -22q-39 0 -93 3t-87 3q-46 0 -140.5 -5t-124.5 -5q-57 0 -57 22zM352 1522q3 40 35.5 69t69.5 29q38 0 59 -25t19 -65q-3 -37 -37 -67.5t-70 -30.5q-37 0 -57.5 24.5t-18.5 65.5z M737 1522q3 40 35.5 69t71.5 29q36 0 56 -25t18 -65q-3 -39 -35.5 -68.5t-67.5 -29.5q-38 0 -59 25t-19 65z" />
<glyph unicode="&#xd0;" horiz-adv-x="1495" d="M-68 16q0 30 70 33q47 2 76 8.5t50.5 17t37.5 37.5t27.5 56t29.5 86q9 29 47.5 152.5t63.5 205.5q4 31 -10 31l-154 -4q-9 0 -12.5 14t4.5 31q13 29 31 29l157 4q7 0 13 8t8 16q85 283 114 389q32 115 -32 127q-34 7 -115 11q-24 2 -41.5 9t-17.5 17q0 11 20.5 18t54.5 7 q18 0 70.5 -1t81.5 -1q25 0 131.5 6t159.5 6q284 0 450 -129q103 -79 153 -194t50 -250q0 -199 -106 -370.5t-254 -262.5q-121 -72 -256.5 -102.5t-303.5 -30.5q-59 0 -152.5 5t-133.5 5q-46 0 -133.5 -3t-102.5 -3q-76 0 -76 22zM391 195q-6 -38 8 -71.5t41 -47.5 q80 -37 142 -37q73 0 182 33.5t199 95.5q131 95 214 260.5t83 359.5q0 118 -38 224t-116 168q-56 43 -140.5 67.5t-170.5 24.5q-49 0 -69.5 -11t-31.5 -40q-44 -103 -159 -486q-5 -18 8 -18l331 6q22 0 17 -29q-3 -21 -15.5 -32t-23.5 -11l-332 -8q-6 0 -13.5 -10.5 t-10.5 -22.5q-93 -317 -105 -415z" />
<glyph unicode="&#xd1;" horiz-adv-x="1546" d="M-63 14q0 22 57 29q93 13 144.5 48t78.5 120q267 835 277 874q22 85 18 107q-7 26 -17.5 40t-37.5 21q-9 2 -113 19q-59 10 -59 28q0 23 69 23q28 0 101.5 -3t130.5 -3q64 0 96 4q8 2 22.5 -16t22.5 -45q33 -102 192 -505.5t201 -490.5q4 -10 11 -11.5t10 5.5 q65 185 151 484.5t99 373.5q15 85 -8.5 115.5t-120.5 42.5q-62 7 -62 29t57 22q31 0 100.5 -4t96.5 -4q117 0 219 8q19 2 33.5 -1t20.5 -8.5t6 -10.5q0 -11 -14 -18t-48 -15q-38 -8 -59.5 -16.5t-48.5 -29.5t-49.5 -60.5t-45.5 -102.5q-101 -282 -266 -854q-12 -40 -12 -64 q0 -56 67 -98q3 -2 9 -5.5t8.5 -5t6.5 -4t5 -5t2.5 -5.5t1.5 -6q0 -22 -45 -22q-15 0 -54 2t-44 2q-74 0 -98 -4q-9 0 -20.5 9.5t-12.5 19.5q-10 66 -60 182q-18 45 -130.5 339.5t-166.5 432.5q-8 19 -19 49t-17.5 47.5t-14 33.5t-12.5 21q-5 7 -15 0t-14 -16 q-42 -118 -128.5 -426t-104.5 -414q-19 -119 2.5 -164.5t107.5 -62.5q38 -7 51 -14.5t13 -18.5q0 -24 -66 -24q-22 0 -95.5 6t-115.5 6q-43 0 -122.5 -6t-106.5 -6q-65 0 -65 26zM825 1430q0 9 23 51q36 61 72 94q22 22 57 22h68h65.5t50 0.5t46.5 2t32 4.5q14 4 27.5 12.5 t20 14.5t15 15.5t9.5 10.5q3 2 7 7t7 8t6 3q12 0 25 -26q3 -4 0 -14.5t-10 -16.5q-15 -17 -50.5 -63t-38.5 -50q-12 -12 -29 -19t-24 -7q-8 0 -83.5 1t-124 0t-62.5 -5q-20 -6 -68 -68q-3 -8 -12 -8t-19 12.5t-10 18.5z" />
<glyph unicode="&#xd2;" horiz-adv-x="1400" d="M156 449q0 122 41 260t128 275.5t203 225.5q192 148 422 148q186 0 307 -138.5t121 -365.5q0 -138 -51.5 -291.5t-152.5 -293.5t-230 -216q-158 -94 -332 -94q-202 0 -317 115q-139 139 -139 375zM330 336q0 -46 7.5 -88.5t27 -85.5t49.5 -74.5t79 -51.5t111 -20 q71 0 139.5 33.5t147.5 104.5q110 98 213.5 338.5t103.5 461.5q0 44 -6.5 87.5t-24.5 91.5t-45.5 84t-74.5 59.5t-107 23.5q-149 0 -295 -137q-152 -144 -238.5 -365.5t-86.5 -461.5zM811 1636q0 8 14 25t35 31q24 16 39 12q29 0 74 -51q2 -2 61 -67t88 -103 q9 -12 13.5 -30.5t-0.5 -22.5q-12 -8 -30.5 -4t-31.5 14q-96 55 -221 139q-41 33 -41 57z" />
<glyph unicode="&#xd3;" horiz-adv-x="1400" d="M156 449q0 122 41 260t128 275.5t203 225.5q192 148 422 148q186 0 307 -138.5t121 -365.5q0 -138 -51.5 -291.5t-152.5 -293.5t-230 -216q-158 -94 -332 -94q-202 0 -317 115q-139 139 -139 375zM330 336q0 -46 7.5 -88.5t27 -85.5t49.5 -74.5t79 -51.5t111 -20 q71 0 139.5 33.5t147.5 104.5q110 98 213.5 338.5t103.5 461.5q0 44 -6.5 87.5t-24.5 91.5t-45.5 84t-74.5 59.5t-107 23.5q-149 0 -295 -137q-152 -144 -238.5 -365.5t-86.5 -461.5zM860 1427q-15 21 27 58q161 136 274 213q11 8 27 11t22 -1q19 -8 43 -32.5t23 -45.5 q0 -20 -55 -51q-140 -83 -289 -143q-62 -21 -72 -9z" />
<glyph unicode="&#xd4;" horiz-adv-x="1400" d="M156 449q0 122 41 260t128 275.5t203 225.5q192 148 422 148q186 0 307 -138.5t121 -365.5q0 -138 -51.5 -291.5t-152.5 -293.5t-230 -216q-158 -94 -332 -94q-202 0 -317 115q-139 139 -139 375zM330 336q0 -46 7.5 -88.5t27 -85.5t49.5 -74.5t79 -51.5t111 -20 q71 0 139.5 33.5t147.5 104.5q110 98 213.5 338.5t103.5 461.5q0 44 -6.5 87.5t-24.5 91.5t-45.5 84t-74.5 59.5t-107 23.5q-149 0 -295 -137q-152 -144 -238.5 -365.5t-86.5 -461.5zM724 1432q0 17 32 38q184 124 250 179q15 14 39 28.5t36 14.5q5 0 9.5 -2t7.5 -4 t7.5 -7.5t6 -8t5.5 -9.5t5 -8q32 -61 115 -193q12 -23 8 -34t-18 -11q-19 0 -45 23q-77 52 -131 106q-11 8 -23 0q-84 -49 -237 -112q-35 -13 -54 -13q-14 0 -13 13z" />
<glyph unicode="&#xd5;" horiz-adv-x="1400" d="M156 449q0 122 41 260t128 275.5t203 225.5q192 148 422 148q186 0 307 -138.5t121 -365.5q0 -138 -51.5 -291.5t-152.5 -293.5t-230 -216q-158 -94 -332 -94q-202 0 -317 115q-139 139 -139 375zM330 336q0 -46 7.5 -88.5t27 -85.5t49.5 -74.5t79 -51.5t111 -20 q71 0 139.5 33.5t147.5 104.5q110 98 213.5 338.5t103.5 461.5q0 44 -6.5 87.5t-24.5 91.5t-45.5 84t-74.5 59.5t-107 23.5q-149 0 -295 -137q-152 -144 -238.5 -365.5t-86.5 -461.5zM750 1446q0 11 22 51q36 61 72 94q23 23 57 23q29 0 83.5 -0.5t78.5 -0.5t53.5 1.5 t46.5 5.5q14 4 27.5 12.5t20 14.5t15 15.5t9.5 10.5q3 2 7 7t7 8.5t6 3.5q11 0 25 -27q3 -4 0 -14.5t-10 -16.5q-15 -17 -50 -62.5t-38 -49.5q-12 -12 -29.5 -19.5t-24.5 -7.5q-8 0 -83.5 1t-124 0t-62.5 -5q-19 -5 -67 -68q-3 -8 -13 -8q-9 0 -18.5 12.5t-9.5 18.5z" />
<glyph unicode="&#xd6;" horiz-adv-x="1400" d="M156 449q0 122 41 260t128 275.5t203 225.5q192 148 422 148q186 0 307 -138.5t121 -365.5q0 -138 -51.5 -291.5t-152.5 -293.5t-230 -216q-158 -94 -332 -94q-202 0 -317 115q-139 139 -139 375zM330 336q0 -46 7.5 -88.5t27 -85.5t49.5 -74.5t79 -51.5t111 -20 q71 0 139.5 33.5t147.5 104.5q110 98 213.5 338.5t103.5 461.5q0 44 -6.5 87.5t-24.5 91.5t-45.5 84t-74.5 59.5t-107 23.5q-149 0 -295 -137q-152 -144 -238.5 -365.5t-86.5 -461.5zM735 1534q3 40 35.5 69t69.5 29q38 0 59 -25t19 -65q-3 -37 -37 -67.5t-70 -30.5 q-37 0 -57.5 24.5t-18.5 65.5zM1120 1534q3 40 35.5 69t71.5 29q36 0 55.5 -24.5t17.5 -65.5q-3 -39 -35 -68.5t-67 -29.5q-38 0 -59 25t-19 65z" />
<glyph unicode="&#xd7;" horiz-adv-x="1277" d="M242 874q-8 7 7.5 29.5t35.5 42.5q15 15 25.5 15.5t33.5 -19.5l338 -332q4 -4 13 -4t14 4l335 346q22 22 39 5t27 -35t10.5 -27.5t-2.5 -15.5l-340 -355q-12 -12 8 -32l338 -340q13 -11 7.5 -30.5t-15.5 -35t-24 -29.5q-17 -17 -39 5l-361 356q-18 18 -30 0l-330 -330 q-20 -20 -29 -22t-24 12t-25.5 40.5t-3.5 35.5l336 338q15 19 0 34z" />
<glyph unicode="&#xd8;" horiz-adv-x="1400" d="M156 451q0 196 99.5 411.5t272.5 347.5q192 148 416 148q118 0 230 -66q10 -5 20 8l57 80q9 15 33 15q8 0 25 -15t10 -26l-74 -103q-2 -2 -3 -9t3 -11q61 -61 99 -160.5t38 -216.5q0 -146 -54 -303t-152.5 -290.5t-219.5 -205.5q-161 -96 -344 -96q-146 0 -239 57 q-11 8 -23 -4q-14 -19 -41.5 -53t-42.5 -55q-2 -4 -18.5 -3.5t-24.5 7.5q-14 10 -16.5 24t4.5 19q13 19 37.5 53t38.5 53q9 15 2 25q-57 58 -95 152.5t-38 216.5zM326 338q0 -57 32 -160q3 -7 10 -7.5t13 7.5l741 1022q12 17 0 29q-64 71 -172 71q-74 0 -154.5 -35 t-152.5 -102q-156 -147 -236.5 -358.5t-80.5 -466.5zM422 86q74 -70 178 -70q149 0 299 136q52 47 104.5 124t100 177.5t77 228t29.5 254.5q0 39 -9.5 101.5t-22.5 92.5q0 1 -3.5 1t-8.5 -1t-9 -4l-735 -1015q-12 -16 0 -25z" />
<glyph unicode="&#xd9;" horiz-adv-x="1470" d="M248 277q-9 76 2 110q12 61 44.5 179t86 300t55.5 189q15 48 21 76t6 56t-11.5 42.5t-35.5 25t-64 15.5q-57 8 -57 33q0 20 61 20q35 0 112 -3t105 -3q21 0 96 4t109 4q51 0 51 -22q0 -17 -57 -29q-55 -9 -85.5 -35t-53.5 -86q-43 -112 -176 -594q-71 -263 -17 -362 q33 -57 115.5 -96.5t163.5 -39.5q281 0 389 248q59 138 139.5 383t104.5 365q8 40 11.5 66.5t5 48.5t-4.5 35.5t-13 24t-23.5 17t-34 10.5t-46.5 9q-57 9 -57 28q0 23 55 23q29 0 81 -1t81 -1q37 0 115.5 4t115.5 4q54 0 54 -22q2 -9 -14.5 -18t-43.5 -13 q-69 -10 -103.5 -49t-80.5 -156q-27 -69 -78 -212.5t-104 -297.5t-62 -178q-3 -7 -18 -47t-19.5 -49.5t-18 -40.5t-23 -45.5t-25.5 -36t-33 -39.5q-48 -49 -102.5 -82t-111.5 -48.5t-106 -21.5t-106 -6q-46 0 -93.5 9t-96.5 28.5t-91.5 55t-68.5 83.5q-36 62 -45 138z M836 1624q0 8 14 24.5t35 30.5q25 17 39 13q27 0 73 -52q5 -5 63 -69t87 -101q9 -12 13 -30.5t-1 -22.5q-12 -8 -29.5 -4t-31.5 14q-84 49 -221 140q-41 33 -41 57z" />
<glyph unicode="&#xda;" horiz-adv-x="1470" d="M248 277q-9 76 2 110q12 61 44.5 179t86 300t55.5 189q15 48 21 76t6 56t-11.5 42.5t-35.5 25t-64 15.5q-57 8 -57 33q0 20 61 20q35 0 112 -3t105 -3q21 0 96 4t109 4q51 0 51 -22q0 -17 -57 -29q-55 -9 -85.5 -35t-53.5 -86q-43 -112 -176 -594q-71 -263 -17 -362 q33 -57 115.5 -96.5t163.5 -39.5q281 0 389 248q59 138 139.5 383t104.5 365q8 40 11.5 66.5t5 48.5t-4.5 35.5t-13 24t-23.5 17t-34 10.5t-46.5 9q-57 9 -57 28q0 23 55 23q29 0 81 -1t81 -1q37 0 115.5 4t115.5 4q54 0 54 -22q2 -9 -14.5 -18t-43.5 -13 q-69 -10 -103.5 -49t-80.5 -156q-27 -69 -78 -212.5t-104 -297.5t-62 -178q-3 -7 -18 -47t-19.5 -49.5t-18 -40.5t-23 -45.5t-25.5 -36t-33 -39.5q-48 -49 -102.5 -82t-111.5 -48.5t-106 -21.5t-106 -6q-46 0 -93.5 9t-96.5 28.5t-91.5 55t-68.5 83.5q-36 62 -45 138z M928 1407q-15 21 26 57q157 132 275 213q11 8 27 11.5t22 -0.5q19 -8 42.5 -32.5t22.5 -45.5q0 -20 -55 -51q-145 -86 -289 -144q-61 -20 -71 -8z" />
<glyph unicode="&#xdb;" horiz-adv-x="1470" d="M248 277q-9 76 2 110q12 61 44.5 179t86 300t55.5 189q15 48 21 76t6 56t-11.5 42.5t-35.5 25t-64 15.5q-57 8 -57 33q0 20 61 20q35 0 112 -3t105 -3q21 0 96 4t109 4q51 0 51 -22q0 -17 -57 -29q-55 -9 -85.5 -35t-53.5 -86q-43 -112 -176 -594q-71 -263 -17 -362 q33 -57 115.5 -96.5t163.5 -39.5q281 0 389 248q59 138 139.5 383t104.5 365q8 40 11.5 66.5t5 48.5t-4.5 35.5t-13 24t-23.5 17t-34 10.5t-46.5 9q-57 9 -57 28q0 23 55 23q29 0 81 -1t81 -1q37 0 115.5 4t115.5 4q54 0 54 -22q2 -9 -14.5 -18t-43.5 -13 q-69 -10 -103.5 -49t-80.5 -156q-27 -69 -78 -212.5t-104 -297.5t-62 -178q-3 -7 -18 -47t-19.5 -49.5t-18 -40.5t-23 -45.5t-25.5 -36t-33 -39.5q-48 -49 -102.5 -82t-111.5 -48.5t-106 -21.5t-106 -6q-46 0 -93.5 9t-96.5 28.5t-91.5 55t-68.5 83.5q-36 62 -45 138z M787 1432q2 18 32 38q184 124 250 179q15 13 39.5 28t36.5 15q5 0 9.5 -2t7.5 -4t7.5 -7.5t6 -8t5.5 -9.5t5 -8q37 -70 114 -193q12 -23 8 -34t-18 -11q-19 0 -45 23q-77 52 -131 106q-11 7 -22 0q-82 -48 -238 -112q-35 -13 -53 -13q-14 0 -14 13z" />
<glyph unicode="&#xdc;" horiz-adv-x="1470" d="M248 277q-9 76 2 110q12 61 44.5 179t86 300t55.5 189q15 48 21 76t6 56t-11.5 42.5t-35.5 25t-64 15.5q-57 8 -57 33q0 20 61 20q35 0 112 -3t105 -3q21 0 96 4t109 4q51 0 51 -22q0 -17 -57 -29q-55 -9 -85.5 -35t-53.5 -86q-43 -112 -176 -594q-71 -263 -17 -362 q33 -57 115.5 -96.5t163.5 -39.5q281 0 389 248q59 138 139.5 383t104.5 365q8 40 11.5 66.5t5 48.5t-4.5 35.5t-13 24t-23.5 17t-34 10.5t-46.5 9q-57 9 -57 28q0 23 55 23q29 0 81 -1t81 -1q37 0 115.5 4t115.5 4q54 0 54 -22q2 -9 -14.5 -18t-43.5 -13 q-69 -10 -103.5 -49t-80.5 -156q-27 -69 -78 -212.5t-104 -297.5t-62 -178q-3 -7 -18 -47t-19.5 -49.5t-18 -40.5t-23 -45.5t-25.5 -36t-33 -39.5q-48 -49 -102.5 -82t-111.5 -48.5t-106 -21.5t-106 -6q-46 0 -93.5 9t-96.5 28.5t-91.5 55t-68.5 83.5q-36 62 -45 138z M778 1526q3 40 35.5 69t69.5 29q38 0 59 -25t19 -65q-3 -37 -37 -67.5t-70 -30.5q-37 0 -57.5 24.5t-18.5 65.5zM1163 1526q3 40 35.5 69t71.5 29q36 0 55.5 -24.5t17.5 -65.5q-3 -39 -35 -68.5t-67 -29.5q-38 0 -59 25t-19 65z" />
<glyph unicode="&#xdd;" horiz-adv-x="1216" d="M178 16q0 19 62 27q37 4 63.5 9.5t47 18t33 24t25.5 36.5t21 46t21 61l88 266q21 62 26 101t-2 73q-19 143 -102 401q-37 117 -66.5 151t-103.5 44q-51 8 -51 29q3 20 59 20q21 0 100 -3t119 -3q56 0 113 2t69 2q46 0 50 -18q0 -22 -50 -31q-68 -14 -84.5 -42t-5.5 -73 q5 -20 30 -129.5t46.5 -194t36.5 -118.5q4 -8 16 -4q313 359 371 448q61 94 -41 115q-49 6 -49 31q0 18 59 18q8 0 59.5 -3t100.5 -3q27 0 105.5 4t91.5 4q51 0 51 -18q0 -21 -62 -35q-81 -16 -121.5 -45t-156.5 -144q-119 -114 -377 -419q-44 -51 -65 -129 q-93 -340 -97 -361q-2 -10 -2.5 -21t4 -30t14.5 -34t34 -28t59 -18q63 -8 63 -31q0 -22 -71 -22q-24 0 -126 5t-118 5q-38 0 -114 -5t-115 -5q-58 0 -58 26zM799 1425q-16 21 26 58q157 132 275 213q11 8 27 11t22 -1q19 -8 42.5 -32.5t22.5 -45.5q0 -20 -55 -51 q-140 -83 -289 -143q-61 -20 -71 -9z" />
<glyph unicode="&#xde;" horiz-adv-x="1114" d="M-43 16q0 18 63 29q41 7 62.5 14t44 24.5t39 47t35.5 80.5q26 76 125 398t141 464q11 36 15.5 52t10 40t5 33t-3 23.5t-9.5 19.5t-19 12.5t-28.5 11t-40.5 7.5q-51 7 -55 33q0 18 55 18q19 0 78.5 -3t95.5 -3q51 0 153 3t118 3q37 0 37 -20q2 -10 -10.5 -17.5 t-41.5 -11.5q-36 -5 -56.5 -9t-41 -15t-31 -23t-24.5 -40t-23.5 -58.5t-25.5 -84.5q-2 -6 2.5 -11t11.5 -5q8 0 31 1t35 1q183 0 276 -72q60 -47 89.5 -111t29.5 -130q0 -61 -18.5 -116.5t-46 -95.5t-63 -73.5t-66 -53t-58.5 -32.5q-124 -55 -260 -55q-24 0 -40 9.5 t-16 23.5q0 10 11.5 14.5t35.5 8.5q6 0 9 1q138 18 235 121.5t97 245.5q0 126 -67 192t-163 66q-56 0 -74.5 -5.5t-25.5 -25.5q-10 -30 -100.5 -344.5t-106.5 -378.5q-24 -103 -4 -134.5t110 -43.5q50 -6 50 -25q0 -26 -66 -26q-38 0 -122 5t-122 5q-46 0 -119.5 -4 t-91.5 -4q-19 0 -26 0.5t-17.5 2.5t-14 7t-3.5 14z" />
<glyph unicode="&#xdf;" horiz-adv-x="985" d="M-422 -475q0 19 11.5 43t25.5 33q34 24 45 10q35 -32 85.5 -59t82.5 -27q60 0 98 43t62 149q4 18 20 85.5t45.5 195t59.5 258.5q73 324 159 557t205 381q103 125 219.5 196.5t264.5 71.5q63 0 110.5 -13.5t73 -33.5t41 -47t19.5 -49.5t3 -46.5q-1 -46 -37.5 -95 t-72.5 -75q-17 -12 -71.5 -52t-82.5 -59q-134 -87 -182.5 -148.5t-48.5 -140.5q0 -22 58 -143l6.5 -13l6.5 -13t7 -15q37 -79 50.5 -122.5t12.5 -92.5q-2 -44 -33.5 -109t-87.5 -116q-53 -49 -128.5 -80t-121.5 -31q-40 0 -75 28.5t-35 63.5q0 53 51 93q9 6 24 0.5t25 -15.5 q24 -29 65.5 -48t67.5 -19q50 0 87.5 46.5t37.5 90.5q0 29 -10 65.5t-18.5 57t-32.5 73.5q-12 25 -34.5 69t-34 68t-21.5 57t-9 60q0 81 70.5 160t239.5 197q92 64 135.5 118.5t46.5 118.5q2 56 -36.5 97t-125.5 41q-76 0 -139.5 -28t-111 -74.5t-92.5 -124t-78.5 -157 t-73.5 -194.5q-62 -181 -117 -412t-86 -397q-26 -145 -72 -249t-102.5 -164.5t-134.5 -106.5q-98 -60 -168 -60q-52 0 -100 27.5t-48 75.5z" />
<glyph unicode="&#xe0;" horiz-adv-x="919" d="M-14 45q0 86 88 223q85 140 204.5 270.5t245.5 217.5q24 17 55 29t42 12q12 0 36.5 -13t44.5 -34q2 -2 8 0.5t9 7.5q4 8 17 29.5t16 27.5q1 4 12 11.5t16 7.5q11 0 36 -9.5t42 -19.5q6 -11 -4 -29q-35 -80 -120 -299.5t-109 -310.5q-14 -55 39 -55q29 0 73.5 29.5 t79.5 68.5q31 36 40 17q1 -3 1 -7q0 -25 -18 -51q-57 -92 -139 -146.5t-152 -54.5q-36 0 -58 21t-24 55q0 10 10.5 40.5t33 87t28.5 73.5q6 12 -3 22q-6 6 -12 0q-43 -46 -94 -92.5t-114 -95.5t-126.5 -80t-111.5 -31q-28 0 -60 25t-32 53zM162 143q0 -19 13 -39t28 -20 q75 0 207 141q133 136 241 365q21 53 11 63q-16 14 -40 24.5t-34 10.5q-52 0 -116.5 -41.5t-121.5 -114.5q-63 -76 -125.5 -198.5t-62.5 -190.5zM592 1290q3 19 32 43.5t52 24.5q6 0 12.5 -10.5t11.5 -33.5t7 -54q12 -160 12 -287q0 -18 -7 -35.5t-18 -17.5t-22 15.5 t-15 29.5q-26 94 -63 268q-6 32 -2 57z" />
<glyph unicode="&#xe1;" horiz-adv-x="919" d="M-14 45q0 86 88 223q85 140 204.5 270.5t245.5 217.5q24 17 55 29t42 12q12 0 36.5 -13t44.5 -34q2 -2 8 0.5t9 7.5q4 8 17 29.5t16 27.5q1 4 12 11.5t16 7.5q11 0 36 -9.5t42 -19.5q6 -11 -4 -29q-35 -80 -120 -299.5t-109 -310.5q-14 -55 39 -55q29 0 73.5 29.5 t79.5 68.5q31 36 40 17q1 -3 1 -7q0 -25 -18 -51q-57 -92 -139 -146.5t-152 -54.5q-36 0 -58 21t-24 55q0 10 10.5 40.5t33 87t28.5 73.5q6 12 -3 22q-6 6 -12 0q-43 -46 -94 -92.5t-114 -95.5t-126.5 -80t-111.5 -31q-28 0 -60 25t-32 53zM162 143q0 -19 13 -39t28 -20 q75 0 207 141q133 136 241 365q21 53 11 63q-16 14 -40 24.5t-34 10.5q-52 0 -116.5 -41.5t-121.5 -114.5q-63 -76 -125.5 -198.5t-62.5 -190.5zM605.5 923.5q0.5 19.5 10.5 34.5q41 74 197 312q15 22 45 22q16 0 31 -32.5t12 -51.5q-3 -20 -29 -53q-76 -90 -196 -217 q-26 -35 -58 -35q-13 1 -12.5 20.5z" />
<glyph unicode="&#xe2;" horiz-adv-x="919" d="M-14 45q0 86 88 223q85 140 204.5 270.5t245.5 217.5q24 17 55 29t42 12q12 0 36.5 -13t44.5 -34q2 -2 8 0.5t9 7.5q4 8 17 29.5t16 27.5q1 4 12 11.5t16 7.5q11 0 36 -9.5t42 -19.5q6 -11 -4 -29q-35 -80 -120 -299.5t-109 -310.5q-14 -55 39 -55q29 0 73.5 29.5 t79.5 68.5q31 36 40 17q1 -3 1 -7q0 -25 -18 -51q-57 -92 -139 -146.5t-152 -54.5q-36 0 -58 21t-24 55q0 10 10.5 40.5t33 87t28.5 73.5q6 12 -3 22q-6 6 -12 0q-43 -46 -94 -92.5t-114 -95.5t-126.5 -80t-111.5 -31q-28 0 -60 25t-32 53zM162 143q0 -19 13 -39t28 -20 q75 0 207 141q133 136 241 365q21 53 11 63q-16 14 -40 24.5t-34 10.5q-52 0 -116.5 -41.5t-121.5 -114.5q-63 -76 -125.5 -198.5t-62.5 -190.5zM460 919.5q-3 8.5 1.5 22t15.5 27.5q32 34 117 135t115 145q42 44 55 51q7 3 14 3q11 0 18 -18t9 -36q29 -178 39 -288 q2 -18 -6 -34t-21 -16q-7 0 -17.5 16t-15.5 34t-21.5 70.5t-27.5 92.5q-3 14 -18 2q-29 -31 -195 -190q-6 -6 -22 -15.5t-27 -9.5q-10 0 -13 8.5z" />
<glyph unicode="&#xe3;" horiz-adv-x="919" d="M-14 45q0 86 88 223q85 140 204.5 270.5t245.5 217.5q24 17 55 29t42 12q12 0 36.5 -13t44.5 -34q2 -2 8 0.5t9 7.5q4 8 17 29.5t16 27.5q1 4 12 11.5t16 7.5q11 0 36 -9.5t42 -19.5q6 -11 -4 -29q-35 -80 -120 -299.5t-109 -310.5q-14 -55 39 -55q29 0 73.5 29.5 t79.5 68.5q31 36 40 17q1 -3 1 -7q0 -25 -18 -51q-57 -92 -139 -146.5t-152 -54.5q-36 0 -58 21t-24 55q0 10 10.5 40.5t33 87t28.5 73.5q6 12 -3 22q-6 6 -12 0q-43 -46 -94 -92.5t-114 -95.5t-126.5 -80t-111.5 -31q-28 0 -60 25t-32 53zM162 143q0 -19 13 -39t28 -20 q75 0 207 141q133 136 241 365q21 53 11 63q-16 14 -40 24.5t-34 10.5q-52 0 -116.5 -41.5t-121.5 -114.5q-63 -76 -125.5 -198.5t-62.5 -190.5zM473 1040q0 3 17 25t50.5 55.5t67.5 55.5q19 12 35 8q88 -23 154 -23q45 0 65 15q32 26 60 59q4 6 22.5 -8t18.5 -23 q0 -7 -11 -18q-3 -3 -23 -22.5t-41 -41t-42 -42.5l-23 -23q-15 -15 -26 -15t-86 12.5t-123 12.5q-24 0 -66 -47q-12 -12 -20 -12q-4 0 -16.5 14.5t-12.5 17.5z" />
<glyph unicode="&#xe4;" horiz-adv-x="919" d="M-14 45q0 86 88 223q85 140 204.5 270.5t245.5 217.5q24 17 55 29t42 12q12 0 36.5 -13t44.5 -34q2 -2 8 0.5t9 7.5q4 8 17 29.5t16 27.5q1 4 12 11.5t16 7.5q11 0 36 -9.5t42 -19.5q6 -11 -4 -29q-35 -80 -120 -299.5t-109 -310.5q-14 -55 39 -55q29 0 73.5 29.5 t79.5 68.5q31 36 40 17q1 -3 1 -7q0 -25 -18 -51q-57 -92 -139 -146.5t-152 -54.5q-36 0 -58 21t-24 55q0 10 10.5 40.5t33 87t28.5 73.5q6 12 -3 22q-6 6 -12 0q-43 -46 -94 -92.5t-114 -95.5t-126.5 -80t-111.5 -31q-28 0 -60 25t-32 53zM162 143q0 -19 13 -39t28 -20 q75 0 207 141q133 136 241 365q21 53 11 63q-16 14 -40 24.5t-34 10.5q-52 0 -116.5 -41.5t-121.5 -114.5q-63 -76 -125.5 -198.5t-62.5 -190.5zM483 1139q0 43 25.5 70.5t60.5 27.5q31 0 51.5 -24.5t20.5 -55.5q2 -40 -25.5 -71t-64.5 -31q-32 0 -50 24.5t-18 59.5z M780 1139q0 42 28.5 70t61.5 28q31 0 50.5 -24.5t19.5 -55.5q2 -40 -24 -71t-64 -31q-32 0 -52 25t-20 59z" />
<glyph unicode="&#xe5;" horiz-adv-x="919" d="M-14 45q0 86 88 223q85 140 204.5 270.5t245.5 217.5q24 17 55 29t42 12q12 0 36.5 -13t44.5 -34q2 -2 8 0.5t9 7.5q4 8 17 29.5t16 27.5q1 4 12 11.5t16 7.5q11 0 36 -9.5t42 -19.5q6 -11 -4 -29q-35 -80 -120 -299.5t-109 -310.5q-14 -55 39 -55q29 0 73.5 29.5 t79.5 68.5q31 36 40 17q1 -3 1 -7q0 -25 -18 -51q-57 -92 -139 -146.5t-152 -54.5q-36 0 -58 21t-24 55q0 10 10.5 40.5t33 87t28.5 73.5q6 12 -3 22q-6 6 -12 0q-43 -46 -94 -92.5t-114 -95.5t-126.5 -80t-111.5 -31q-28 0 -60 25t-32 53zM162 143q0 -19 13 -39t28 -20 q75 0 207 141q133 136 241 365q21 53 11 63q-16 14 -40 24.5t-34 10.5q-52 0 -116.5 -41.5t-121.5 -114.5q-63 -76 -125.5 -198.5t-62.5 -190.5zM553 1137q9 66 63.5 113.5t126.5 47.5t112.5 -52.5t31.5 -119.5q-11 -66 -64 -112.5t-125 -46.5q-73 0 -113.5 51.5 t-31.5 118.5zM629 1137q-6 -50 16.5 -80.5t61.5 -30.5q89 0 106 104q5 43 -17.5 76t-60.5 33q-39 0 -69.5 -29t-36.5 -73z" />
<glyph unicode="&#xe6;" horiz-adv-x="925" d="M-47 68q0 57 52.5 142.5t129.5 168t155.5 153.5t139.5 113q50 38 96 76q127 106 232 106q64 0 100.5 -37t36.5 -88q0 -46 -25.5 -92.5t-62.5 -82.5t-92 -73t-100.5 -61.5t-100.5 -50.5q-3 -1 -6.5 -12.5t-3.5 -16.5q-11 -227 112 -227q74 0 158 84q14 14 25 14t8 -18 q-2 -50 -104.5 -124.5t-186.5 -74.5q-55 0 -94.5 48.5t-52.5 146.5q0 1 -2 1.5t-5.5 -0.5t-7.5 -5q-72 -72 -161.5 -131.5t-155.5 -59.5q-31 0 -57.5 25.5t-26.5 75.5zM113 150q0 -37 12.5 -51.5t36.5 -14.5q33 0 88 45t90 96q6 9 15.5 33t9.5 31q6 109 59 262q5 16 -3 17 q-3 0 -7 -3q-25 -18 -69 -59t-99 -101t-94 -130t-39 -125zM508 412q0 -6 3 -11t7 -2q81 37 171.5 140.5t90.5 167.5q0 67 -49 67q-43 0 -84 -38.5t-69 -95.5t-46.5 -117.5t-23.5 -110.5z" />
<glyph unicode="&#xe7;" horiz-adv-x="641" d="M-27 -410q0 15 4 25.5t8.5 14t8.5 3.5q5 0 8.5 -1t5 -2.5l7 -7t10.5 -9.5q54 -45 90 -45q21 0 30 7t9 28q0 27 -48 110q-28 48 -28 78q0 8 1.5 15t3 12t5.5 12.5t5.5 10.5t7.5 12l8 12q25 39 133 115q-20 -5 -39 -5q-72 0 -115 62.5t-43 132.5q0 65 23.5 153t66.5 171 q116 219 275 299q33 18 79.5 26t71.5 8q52 0 88 -18q23 -9 23 -41q0 -44 -28.5 -79.5t-47.5 -35.5q-20 0 -31 23q-41 90 -90 90q-35 0 -76.5 -42.5t-81.5 -119.5q-53 -96 -87.5 -207t-34.5 -207q0 -37 8.5 -61t25 -33t28.5 -11.5t30 -2.5q44 0 99 25t106 73q8 6 17 6t9 -6 q0 -28 -20 -53q-47 -61 -142 -117q-74 -42 -114.5 -89t-40.5 -89q0 -29 43 -100q22 -40 22 -84q0 -28 -30.5 -64t-69.5 -61q-51 -31 -82 -31q-37 0 -74 30t-37 68z" />
<glyph unicode="&#xe8;" horiz-adv-x="706" d="M51 184q0 111 62 247.5t163 242.5q75 77 152.5 115t136.5 38q43 0 74 -12.5t46.5 -32.5t22.5 -40t7 -40q0 -48 -43 -104t-115 -96q-91 -51 -299 -111q-26 -8 -33 -31q-26 -72 -26 -159q0 -123 108 -123q49 0 103 27.5t98 68.5q31 31 51 31q4 0 8 -4.5t4 -7.5 q0 -20 -24 -52q-52 -60 -144.5 -115t-193.5 -55q-46 0 -102 61.5t-56 151.5zM261 454q0 -5 1.5 -9t5.5 -3q324 113 324 285q0 51 -35 51q-49 0 -113.5 -56.5t-114 -130t-67.5 -130.5q-1 -2 -1 -7zM496 1274q3 19 32 43t52 24q6 0 12 -10.5t11 -33t7 -54.5q13 -173 13 -287 q0 -18 -7 -35.5t-18 -17.5t-22 15.5t-15 29.5q-25 90 -63 269q-6 32 -2 57z" />
<glyph unicode="&#xe9;" horiz-adv-x="706" d="M51 184q0 111 62 247.5t163 242.5q75 77 152.5 115t136.5 38q43 0 74 -12.5t46.5 -32.5t22.5 -40t7 -40q0 -48 -43 -104t-115 -96q-91 -51 -299 -111q-26 -8 -33 -31q-26 -72 -26 -159q0 -123 108 -123q49 0 103 27.5t98 68.5q31 31 51 31q4 0 8 -4.5t4 -7.5 q0 -20 -24 -52q-52 -60 -144.5 -115t-193.5 -55q-46 0 -102 61.5t-56 151.5zM261 454q0 -5 1.5 -9t5.5 -3q324 113 324 285q0 51 -35 51q-49 0 -113.5 -56.5t-114 -130t-67.5 -130.5q-1 -2 -1 -7zM517.5 923.5q0.5 19.5 10.5 34.5q41 74 197 312q15 22 45 22q16 0 31 -32.5 t12 -51.5q-3 -20 -29 -53q-76 -90 -196 -217q-26 -35 -58 -35q-13 1 -12.5 20.5z" />
<glyph unicode="&#xea;" horiz-adv-x="706" d="M51 184q0 111 62 247.5t163 242.5q75 77 152.5 115t136.5 38q43 0 74 -12.5t46.5 -32.5t22.5 -40t7 -40q0 -48 -43 -104t-115 -96q-91 -51 -299 -111q-26 -8 -33 -31q-26 -72 -26 -159q0 -123 108 -123q49 0 103 27.5t98 68.5q31 31 51 31q4 0 8 -4.5t4 -7.5 q0 -20 -24 -52q-52 -60 -144.5 -115t-193.5 -55q-46 0 -102 61.5t-56 151.5zM261 454q0 -5 1.5 -9t5.5 -3q324 113 324 285q0 51 -35 51q-49 0 -113.5 -56.5t-114 -130t-67.5 -130.5q-1 -2 -1 -7zM360 919.5q-3 8.5 1.5 22t15.5 27.5q31 33 116 134.5t115 145.5 q20 22 28.5 30t20.5 16t21 8q11 0 18 -18t9 -36q27 -164 38 -288q2 -18 -5.5 -34t-20.5 -16q-7 0 -17.5 16t-15.5 34t-21.5 70.5t-27.5 92.5q-4 14 -19 2q-36 -39 -194 -190q-6 -6 -22 -15.5t-27 -9.5q-10 0 -13 8.5z" />
<glyph unicode="&#xeb;" horiz-adv-x="706" d="M51 184q0 111 62 247.5t163 242.5q75 77 152.5 115t136.5 38q43 0 74 -12.5t46.5 -32.5t22.5 -40t7 -40q0 -48 -43 -104t-115 -96q-91 -51 -299 -111q-26 -8 -33 -31q-26 -72 -26 -159q0 -123 108 -123q49 0 103 27.5t98 68.5q31 31 51 31q4 0 8 -4.5t4 -7.5 q0 -20 -24 -52q-52 -60 -144.5 -115t-193.5 -55q-46 0 -102 61.5t-56 151.5zM261 454q0 -5 1.5 -9t5.5 -3q324 113 324 285q0 51 -35 51q-49 0 -113.5 -56.5t-114 -130t-67.5 -130.5q-1 -2 -1 -7zM371 1139q0 43 25.5 70.5t60.5 27.5q31 0 51 -24.5t20 -55.5 q2 -40 -25.5 -71t-64.5 -31q-32 0 -49.5 24.5t-17.5 59.5zM668 1139q0 42 28.5 70t61.5 28q31 0 50 -24.5t19 -55.5q2 -40 -24 -71t-64 -31q-32 0 -51.5 25t-19.5 59z" />
<glyph unicode="&#xec;" horiz-adv-x="548" d="M37 18q0 14 10 37q102 252 254 604q6 13 -1 22.5t-15 6.5q-75 -23 -154 -94q-7 -7 -16 -3t-9 13q0 20 27 51q36 43 137.5 107.5t151.5 64.5q12 0 29.5 -18t17.5 -31q0 -19 -20 -69q-223 -532 -234 -557q-4 -10 2 -22.5t21 -12.5q22 0 85.5 50.5t104.5 96.5q25 29 47 29 q10 0 10 -12q0 -32 -36 -74q-74 -86 -182.5 -163t-168.5 -77q-22 0 -41.5 17.5t-19.5 33.5zM367 1274q3 19 32 43t52 24q6 0 12 -10.5t11 -33t7 -54.5q13 -173 13 -287q0 -18 -7 -35.5t-18 -17.5t-22 15.5t-15 29.5q-25 90 -63 269q-6 32 -2 57z" />
<glyph unicode="&#xed;" horiz-adv-x="548" d="M37 18q0 14 10 37q102 252 254 604q6 13 -1 22.5t-15 6.5q-75 -23 -154 -94q-7 -7 -16 -3t-9 13q0 20 27 51q36 43 137.5 107.5t151.5 64.5q12 0 29.5 -18t17.5 -31q0 -19 -20 -69q-223 -532 -234 -557q-4 -10 2 -22.5t21 -12.5q22 0 85.5 50.5t104.5 96.5q25 29 47 29 q10 0 10 -12q0 -32 -36 -74q-74 -86 -182.5 -163t-168.5 -77q-22 0 -41.5 17.5t-19.5 33.5zM372.5 923.5q0.5 19.5 10.5 34.5q41 74 197 312q15 22 45 22q16 0 31 -32.5t12 -51.5q-3 -20 -29 -53q-67 -79 -197 -217q-26 -35 -57 -35q-13 1 -12.5 20.5z" />
<glyph unicode="&#xee;" horiz-adv-x="548" d="M37 18q0 14 10 37q102 252 254 604q6 13 -1 22.5t-15 6.5q-75 -23 -154 -94q-7 -7 -16 -3t-9 13q0 20 27 51q36 43 137.5 107.5t151.5 64.5q12 0 29.5 -18t17.5 -31q0 -19 -20 -69q-223 -532 -234 -557q-4 -10 2 -22.5t21 -12.5q22 0 85.5 50.5t104.5 96.5q25 29 47 29 q10 0 10 -12q0 -32 -36 -74q-74 -86 -182.5 -163t-168.5 -77q-22 0 -41.5 17.5t-19.5 33.5zM198 919.5q-3 8.5 1.5 22t15.5 27.5q31 33 116 134.5t115 145.5q20 22 28.5 30t20.5 16t21 8q11 0 18 -18t9 -36q29 -178 39 -288q2 -18 -6 -34t-21 -16q-7 0 -17.5 16t-15.5 34 t-21.5 70.5t-27.5 92.5q-3 14 -18 2q-29 -31 -195 -190q-6 -6 -22 -15.5t-27 -9.5q-10 0 -13 8.5z" />
<glyph unicode="&#xef;" horiz-adv-x="548" d="M37 18q0 14 10 37q102 252 254 604q6 13 -1 22.5t-15 6.5q-75 -23 -154 -94q-7 -7 -16 -3t-9 13q0 20 27 51q36 43 137.5 107.5t151.5 64.5q12 0 29.5 -18t17.5 -31q0 -19 -20 -69q-223 -532 -234 -557q-4 -10 2 -22.5t21 -12.5q22 0 85.5 50.5t104.5 96.5q25 29 47 29 q10 0 10 -12q0 -32 -36 -74q-74 -86 -182.5 -163t-168.5 -77q-22 0 -41.5 17.5t-19.5 33.5zM209 1139q0 43 25.5 70.5t60.5 27.5q31 0 51.5 -24.5t20.5 -55.5q1 -40 -26.5 -71t-64.5 -31q-32 0 -49.5 24.5t-17.5 59.5zM506 1139q0 42 28.5 70t61.5 28q31 0 50.5 -24.5 t19.5 -55.5q2 -40 -24 -71t-64 -31q-32 0 -52 25t-20 59z" />
<glyph unicode="&#xf0;" horiz-adv-x="813" d="M53 182q0 68 27 158.5t88 194.5t143 174q133 112 254 112q21 0 45 -6q9 -1 13 4.5t4 16.5q-3 102 -28 189q-20 62 -40 56q-27 -13 -82.5 -38t-83.5 -37q-6 -5 -14.5 -1t-9.5 13q0 35 24 49q10 5 59 26t76 37t23 27q-27 59 -59.5 108.5t-58.5 78t-48 49.5t-33.5 33 t-9.5 18q0 9 10.5 14.5t18.5 5.5q44 0 126.5 -83t137.5 -179q10 -18 24 -8q178 87 179 88q23 12 26 -8q0 -46 -22 -57l-2 -3q-6 -3 -57.5 -26.5t-77.5 -41t-21 -30.5q32 -84 54 -195t22 -208q0 -122 -28.5 -235t-77 -198.5t-106 -149t-120.5 -101.5q-70 -46 -158 -58 q-28 -4 -47 -4q-67 2 -118.5 61.5t-51.5 153.5zM193 123q0 -38 20.5 -66t58.5 -28q71 0 142 88q74 91 144.5 270t70.5 307q0 28 -23 52t-49 24q-55 0 -113 -49q-49 -36 -106.5 -130.5t-101 -225t-43.5 -242.5z" />
<glyph unicode="&#xf1;" horiz-adv-x="1038" d="M41 23q-1 9 4 27t14.5 41.5t17.5 42t17 38.5l10 21q2 5 91 196.5t124 284.5q16 33 -18 33q-10 0 -20 -1.5t-20 -5.5l-17.5 -7t-18.5 -10.5t-16.5 -11t-17.5 -14t-15.5 -13.5t-16.5 -15.5t-16 -14.5q-20 -20 -26 -20q-4 0 -8.5 7t-4.5 13q0 23 18 57.5t50 70t85.5 60.5 t113.5 25q22 0 43 -12t32 -29q10 -17 -4 -53q-51 -120 -125 -297q-6 -11 6 -13q13 -2 19 11q35 53 120.5 152.5t133.5 138.5q118 102 213 102q55 0 86 -35.5t31 -80.5q0 -49 -29 -121q-30 -80 -97.5 -227t-86.5 -183q-27 -55 6 -55q52 0 184 123q8 7 17.5 10.5t16.5 2 t7 -8.5q0 -21 -24 -59q-52 -78 -165.5 -152t-170.5 -74q-36 0 -66 35q-22 22 2 68q33 65 151.5 311.5t131.5 288.5q15 47 6 68.5t-35 21.5q-86 0 -231 -176q-38 -43 -107 -143.5t-141.5 -212.5t-91.5 -138q-45 -71 -67 -98t-38 -27q-19 0 -38 21t-19 37zM449 1026q0 3 17 25 t50.5 55t67.5 55q19 12 34 8q84 -22 154 -22q47 0 66 14q27 22 59 60q4 6 22.5 -8t18.5 -23t-10 -19l-129 -129q-14 -14 -27 -14q-11 0 -86 12.5t-123 12.5q-23 0 -65 -47q-13 -13 -21 -13q-4 0 -16 15t-12 18z" />
<glyph unicode="&#xf2;" horiz-adv-x="821" d="M47 186q0 109 70 269.5t188 263.5q124 108 254 108q87 0 140 -73t53 -156q0 -191 -108.5 -354t-248.5 -234q-88 -43 -170 -43q-65 0 -121.5 61t-56.5 158zM190 115q0 -38 20 -64t58 -26q62 0 135 92q74 89 144.5 260t70.5 299q0 98 -75 98q-71 0 -148 -92 q-78 -90 -141.5 -255.5t-63.5 -311.5zM498 1274q3 19 32 43t52 24q6 0 12 -10.5t11 -33t7 -54.5q13 -173 13 -287q0 -18 -7 -35.5t-18 -17.5t-22 15.5t-15 29.5q-25 90 -63 269q-6 32 -2 57z" />
<glyph unicode="&#xf3;" horiz-adv-x="821" d="M47 186q0 109 70 269.5t188 263.5q124 108 254 108q87 0 140 -73t53 -156q0 -191 -108.5 -354t-248.5 -234q-88 -43 -170 -43q-65 0 -121.5 61t-56.5 158zM190 115q0 -38 20 -64t58 -26q62 0 135 92q74 89 144.5 260t70.5 299q0 98 -75 98q-71 0 -148 -92 q-78 -90 -141.5 -255.5t-63.5 -311.5zM528.5 923.5q0.5 19.5 10.5 34.5q47 84 196 312q15 22 45 22q16 0 31 -32.5t12 -51.5q-3 -22 -28 -53q-67 -79 -197 -217q-26 -35 -57 -35q-13 1 -12.5 20.5z" />
<glyph unicode="&#xf4;" horiz-adv-x="821" d="M47 186q0 109 70 269.5t188 263.5q124 108 254 108q87 0 140 -73t53 -156q0 -191 -108.5 -354t-248.5 -234q-88 -43 -170 -43q-65 0 -121.5 61t-56.5 158zM190 115q0 -38 20 -64t58 -26q62 0 135 92q74 89 144.5 260t70.5 299q0 98 -75 98q-71 0 -148 -92 q-78 -90 -141.5 -255.5t-63.5 -311.5zM364 919.5q-3 8.5 1.5 22t15.5 27.5q31 33 116 134.5t115 145.5q20 22 28.5 30t20.5 16t21 8q11 0 18 -18t9 -36q29 -178 39 -288q2 -18 -6 -34t-21 -16q-7 0 -17.5 16t-15.5 34t-21.5 70.5t-27.5 92.5q-3 14 -18 2q-29 -31 -195 -190 q-6 -6 -22 -15.5t-27 -9.5q-10 0 -13 8.5z" />
<glyph unicode="&#xf5;" horiz-adv-x="821" d="M47 186q0 109 70 269.5t188 263.5q124 108 254 108q87 0 140 -73t53 -156q0 -191 -108.5 -354t-248.5 -234q-88 -43 -170 -43q-65 0 -121.5 61t-56.5 158zM190 115q0 -38 20 -64t58 -26q62 0 135 92q74 89 144.5 260t70.5 299q0 98 -75 98q-71 0 -148 -92 q-78 -90 -141.5 -255.5t-63.5 -311.5zM379 1042q0 3 17 25t50.5 55.5t67.5 55.5q19 12 35 8q88 -23 153 -23q46 0 66 15q29 24 59 59q4 6 22.5 -8t18.5 -23q0 -8 -10 -18l-129 -129q-15 -15 -27 -15q-11 0 -85.5 12.5t-122.5 12.5q-24 0 -66 -47q-12 -12 -20 -12 q-4 0 -16.5 14.5t-12.5 17.5z" />
<glyph unicode="&#xf6;" horiz-adv-x="821" d="M47 186q0 109 70 269.5t188 263.5q124 108 254 108q87 0 140 -73t53 -156q0 -191 -108.5 -354t-248.5 -234q-88 -43 -170 -43q-65 0 -121.5 61t-56.5 158zM190 115q0 -38 20 -64t58 -26q62 0 135 92q74 89 144.5 260t70.5 299q0 98 -75 98q-71 0 -148 -92 q-78 -90 -141.5 -255.5t-63.5 -311.5zM389 1139q0 43 25.5 70.5t60.5 27.5q31 0 51.5 -24.5t20.5 -55.5q2 -40 -25.5 -71t-64.5 -31q-32 0 -50 24.5t-18 59.5zM686 1139q0 42 28.5 70t61.5 28q31 0 50.5 -24.5t19.5 -55.5q2 -40 -24 -71t-64 -31q-32 0 -52 25t-20 59z" />
<glyph unicode="&#xf7;" horiz-adv-x="1277" d="M162 498q0 22 9 48.5t19 26.5h971q19 0 25 -5t6 -19q0 -34 -9.5 -58t-19.5 -24h-960q-27 0 -34 5t-7 26zM569 180q0 41 30.5 73t74.5 32t75 -32t31 -73q0 -48 -30 -80t-76 -32q-45 0 -75 32t-30 80zM573 852q0 44 30.5 76.5t70.5 32.5q48 0 79 -32t31 -77t-30.5 -76 t-79.5 -31q-40 0 -70.5 31.5t-30.5 75.5z" />
<glyph unicode="&#xf8;" horiz-adv-x="854" d="M59 205q0 114 65 264t183 252q62 54 123 82t148 28q46 0 84 -18q8 -4 14 4l26 33q24 27 33 27q14 0 26 -14.5t7 -22.5l-43 -68q-5 -5 4 -14q55 -70 55 -156q0 -192 -105.5 -353.5t-244.5 -230.5q-84 -43 -184 -43q-30 0 -72 21q-8 4 -14 -6q-16 -24 -43 -60 q-10 -10 -19 -10q-13 0 -22.5 21t-3.5 32q8 10 19.5 25t19.5 25q7 13 2 18q-58 69 -58 164zM190 141q-1 -1 1 -2q6 0 10 4q207 289 426 602q2 2 2.5 8t-2.5 9q-22 16 -60 16q-65 0 -151 -86q-92 -95 -159 -247.5t-67 -303.5zM223 59q9 -7 28.5 -13.5t33.5 -6.5q52 0 88 18.5 t80 71.5q75 91 143.5 247.5t69.5 282.5q0 22 -7 24l-2 -1q-164 -234 -430 -602q-10 -15 -4 -21z" />
<glyph unicode="&#xf9;" horiz-adv-x="1011" d="M61 80q21 57 108.5 272t121.5 291q7 15 4.5 22t-10.5 7t-34 -15.5t-63 -40.5t-38 -26q-15 -10 -30 -10.5t-16 8.5q0 14 15 33q14 27 70.5 75.5t128.5 89.5t116 41q8 0 19.5 -10t15.5 -22q1 -4 -1 -18.5t-5 -20.5q-30 -57 -121.5 -290t-103.5 -282q-20 -80 20 -80 q59 0 183 130t206 268q47 75 156 270q13 23 29.5 39t29.5 16q15 0 37.5 -16.5t22.5 -32.5q0 -22 -27 -84q-166 -410 -203 -524q-14 -41 17 -41q25 0 82.5 38.5t119.5 104.5q20 20 34 14q5 -1 5 -7q0 -14 -16 -46q-27 -54 -94.5 -117.5t-139 -106t-112.5 -42.5q-17 0 -35 20 t-18 36q0 6 8 34q4 13 50.5 134.5t53.5 142.5q10 31 1.5 32t-27.5 -22q-75 -91 -184 -184t-195 -150q-67 -43 -117 -43q-34 0 -55 25q-28 33 -9 88zM557 1274q3 19 32 43t52 24q6 0 12.5 -10.5t11.5 -33.5t7 -54q12 -160 12 -287q0 -18 -7 -35.5t-18 -17.5t-21.5 15.5 t-14.5 29.5q-29 106 -64 269q-6 32 -2 57z" />
<glyph unicode="&#xfa;" horiz-adv-x="1011" d="M61 80q21 57 108.5 272t121.5 291q7 15 4.5 22t-10.5 7t-34 -15.5t-63 -40.5t-38 -26q-15 -10 -30 -10.5t-16 8.5q0 14 15 33q14 27 70.5 75.5t128.5 89.5t116 41q8 0 19.5 -10t15.5 -22q1 -4 -1 -18.5t-5 -20.5q-30 -57 -121.5 -290t-103.5 -282q-20 -80 20 -80 q59 0 183 130t206 268q47 75 156 270q13 23 29.5 39t29.5 16q15 0 37.5 -16.5t22.5 -32.5q0 -22 -27 -84q-166 -410 -203 -524q-14 -41 17 -41q25 0 82.5 38.5t119.5 104.5q20 20 34 14q5 -1 5 -7q0 -14 -16 -46q-27 -54 -94.5 -117.5t-139 -106t-112.5 -42.5q-17 0 -35 20 t-18 36q0 6 8 34q4 13 50.5 134.5t53.5 142.5q10 31 1.5 32t-27.5 -22q-75 -91 -184 -184t-195 -150q-67 -43 -117 -43q-34 0 -55 25q-28 33 -9 88zM599.5 923.5q0.5 19.5 10.5 34.5q41 74 197 312q15 22 45 22q16 0 31 -32.5t12 -51.5q-3 -20 -29 -53q-76 -90 -196 -217 q-26 -35 -58 -35q-13 1 -12.5 20.5z" />
<glyph unicode="&#xfb;" horiz-adv-x="1011" d="M61 80q21 57 108.5 272t121.5 291q7 15 4.5 22t-10.5 7t-34 -15.5t-63 -40.5t-38 -26q-15 -10 -30 -10.5t-16 8.5q0 14 15 33q14 27 70.5 75.5t128.5 89.5t116 41q8 0 19.5 -10t15.5 -22q1 -4 -1 -18.5t-5 -20.5q-30 -57 -121.5 -290t-103.5 -282q-20 -80 20 -80 q59 0 183 130t206 268q47 75 156 270q13 23 29.5 39t29.5 16q15 0 37.5 -16.5t22.5 -32.5q0 -22 -27 -84q-166 -410 -203 -524q-14 -41 17 -41q25 0 82.5 38.5t119.5 104.5q20 20 34 14q5 -1 5 -7q0 -14 -16 -46q-27 -54 -94.5 -117.5t-139 -106t-112.5 -42.5q-17 0 -35 20 t-18 36q0 6 8 34q4 13 50.5 134.5t53.5 142.5q10 31 1.5 32t-27.5 -22q-75 -91 -184 -184t-195 -150q-67 -43 -117 -43q-34 0 -55 25q-28 33 -9 88zM452 919.5q-3 8.5 1.5 22t15.5 27.5q31 33 116 134.5t115 145.5q20 22 28.5 30t20.5 16t21 8q11 0 18 -18t9 -36 q29 -178 39 -288q2 -18 -6 -34t-21 -16q-7 0 -17.5 16t-15.5 34t-21.5 70.5t-27.5 92.5q-3 14 -18 2q-29 -31 -195 -190q-6 -6 -22 -15.5t-27 -9.5q-10 0 -13 8.5z" />
<glyph unicode="&#xfc;" horiz-adv-x="1011" d="M61 80q21 57 108.5 272t121.5 291q7 15 4.5 22t-10.5 7t-34 -15.5t-63 -40.5t-38 -26q-15 -10 -30 -10.5t-16 8.5q0 14 15 33q14 27 70.5 75.5t128.5 89.5t116 41q8 0 19.5 -10t15.5 -22q1 -4 -1 -18.5t-5 -20.5q-30 -57 -121.5 -290t-103.5 -282q-20 -80 20 -80 q59 0 183 130t206 268q47 75 156 270q13 23 29.5 39t29.5 16q15 0 37.5 -16.5t22.5 -32.5q0 -22 -27 -84q-166 -410 -203 -524q-14 -41 17 -41q25 0 82.5 38.5t119.5 104.5q20 20 34 14q5 -1 5 -7q0 -14 -16 -46q-27 -54 -94.5 -117.5t-139 -106t-112.5 -42.5q-17 0 -35 20 t-18 36q0 6 8 34q4 13 50.5 134.5t53.5 142.5q10 31 1.5 32t-27.5 -22q-75 -91 -184 -184t-195 -150q-67 -43 -117 -43q-34 0 -55 25q-28 33 -9 88zM436 1139q0 43 25.5 70.5t60.5 27.5q31 0 51.5 -24.5t20.5 -55.5q2 -40 -25.5 -71t-64.5 -31q-32 0 -50 24.5t-18 59.5z M733 1139q0 42 28.5 70t61.5 28q31 0 50.5 -24.5t19.5 -55.5q2 -40 -24 -71t-64 -31q-32 0 -52 25t-20 59z" />
<glyph unicode="&#xfd;" horiz-adv-x="786" d="M-246 -461q0 34 27.5 68.5t56.5 34.5q19 0 25 -9q10 -7 27 -25.5t32.5 -29t34.5 -10.5q46 0 91 29.5t108 101.5q68 80 108.5 238t40.5 342q0 120 -9.5 226.5t-21.5 145.5q-2 5 -5.5 18.5t-6 19.5t-6.5 14.5t-10.5 12t-14.5 3.5q-21 0 -53.5 -42.5t-66.5 -109.5 q-24 -49 -37 -49q-16 0 -19 35q-3 51 28.5 114.5t88.5 111.5t117 48q41 0 71.5 -49.5t38.5 -95.5q43 -214 21 -565q-1 -3 3 -3q15 -1 28 19l4 6q81 144 134.5 319.5t57.5 348.5q0 10 13 21.5t20 11.5q23 0 48.5 -31.5t25.5 -50.5q0 -113 -82 -310t-154 -317 q-177 -292 -221 -346q-112 -136 -174 -195q-22 -22 -45 -41q-117 -94 -219 -94q-42 0 -73.5 23.5t-31.5 60.5zM442.5 923.5q0.5 19.5 10.5 34.5q47 84 196 312q15 22 45 22q16 0 31 -32.5t12 -51.5q-3 -22 -28 -53q-67 -79 -197 -217q-26 -35 -57 -35q-13 1 -12.5 20.5z" />
<glyph unicode="&#xfe;" horiz-adv-x="929" d="M-297 -522q0 3 1 6t4 5.5t6 4t8.5 3.5t9.5 3.5t11.5 4t12.5 3.5q61 16 84 37t39 66q1 4 38 109.5t89 258.5t92 279q93 294 326 1002q9 27 10.5 44.5t-8 31t-17 19.5t-30.5 21q-25 16 -25 23q0 10 13.5 20t31.5 15q20 5 118 19.5t112 14.5q8 0 11.5 -12.5t0.5 -19.5 q-33 -69 -156.5 -411t-171.5 -490q-4 -8 6 -13q5 -2 7 2q223 303 409 303q66 0 105 -39q49 -63 49 -129q0 -105 -63 -230.5t-154 -225.5t-183 -154q-138 -84 -229 -84q-63 0 -102 33q-3 1 -9 -4.5t-8 -9.5q-24 -81 -50 -162t-39 -122.5t-19 -72.5q-10 -47 16 -70.5t88 -33.5 q47 -8 47 -29q1 -12 -15.5 -19t-43.5 -7q-30 0 -91 1t-89 1q-36 0 -105.5 -8.5t-91.5 -8.5t-33.5 8t-11.5 17zM217 139q2 -47 23 -78.5t59 -31.5q50 0 139 80q102 95 211 283t109 304q0 27 -23 45.5t-53 18.5q-39 0 -86.5 -29.5t-92.5 -77.5t-82 -95t-69 -97 q-139 -219 -135 -322z" />
<glyph unicode="&#xff;" horiz-adv-x="786" d="M-246 -461q0 34 27.5 68.5t56.5 34.5q19 0 25 -9q10 -7 27 -25.5t32.5 -29t34.5 -10.5q46 0 91 29.5t108 101.5q68 80 108.5 238t40.5 342q0 120 -9.5 226.5t-21.5 145.5q-2 5 -5.5 18.5t-6 19.5t-6.5 14.5t-10.5 12t-14.5 3.5q-21 0 -53.5 -42.5t-66.5 -109.5 q-24 -49 -37 -49q-16 0 -19 35q-3 51 28.5 114.5t88.5 111.5t117 48q41 0 71.5 -49.5t38.5 -95.5q43 -214 21 -565q-1 -3 3 -3q15 -1 28 19l4 6q81 144 134.5 319.5t57.5 348.5q0 10 13 21.5t20 11.5q23 0 48.5 -31.5t25.5 -50.5q0 -113 -82 -310t-154 -317 q-177 -292 -221 -346q-112 -136 -174 -195q-22 -22 -45 -41q-117 -94 -219 -94q-42 0 -73.5 23.5t-31.5 60.5zM299 1139q0 43 25.5 70.5t60.5 27.5q31 0 51.5 -24.5t20.5 -55.5q2 -40 -25.5 -71t-64.5 -31q-32 0 -50 24.5t-18 59.5zM596 1139q0 42 28.5 70t61.5 28 q31 0 50.5 -24.5t19.5 -55.5q2 -40 -24 -71t-64 -31q-32 0 -52 25t-20 59z" />
<glyph unicode="&#x152;" horiz-adv-x="2025" d="M156 436q0 199 101.5 425t264.5 351q190 146 396 146q121 0 203.5 -61t138.5 -189q3 -9 13 -7.5t13 9.5q26 83 39 166q8 43 29 43q14 0 93 -1t116 -1h168q254 0 335 18q11 1 17 -14.5t2 -24.5q-28 -50 -52 -118t-30 -99q0 -5 -1 -9t-1.5 -6.5t-2.5 -4t-2.5 -2.5t-3 -1.5 t-3 -0.5h-3.5h-4q-14 0 -26.5 14t-13.5 41q-5 72 -14 98t-40 37q-37 15 -250 15q-88 0 -113.5 -13t-47.5 -67q-22 -49 -68.5 -205t-71.5 -252q-3 -13 5 -23t14 -10l241 8q31 1 54.5 3t42 8.5t29 10t24 16.5t18 17.5t18.5 24t19 25.5q24 35 43 35q7 0 11.5 -5t3.5 -21.5 t-13 -41.5q-27 -52 -56.5 -132t-37.5 -118q-16 -63 -37 -63q-8 0 -13 4t-6.5 15t-2 17.5t-0.5 24.5q0 58 -16 80.5t-58 22.5l-274 -5q-39 0 -54 -38q-1 -4 -28 -92t-46.5 -161.5t-23.5 -111.5q-9 -61 -8 -81t18 -38q27 -27 94 -33q110 -8 242 -8q88 3 141 27q102 48 185 164 l6 9q32 42 43 47l8 1q22 0 6 -59q-8 -37 -42.5 -107.5t-63.5 -103.5q-29 -31 -55 -38t-93 -7q-35 0 -244 6.5t-301 7.5q-11 0 -62.5 -2t-66.5 -2q-11 0 -18 8.5t-4 20.5q5 14 12 37t11.5 39t7.5 22q3 14 -4 14.5t-15 -8.5q-194 -170 -418 -170q-173 0 -280 107 q-137 137 -137 370zM330 326q0 -149 70.5 -226t193.5 -77q158 0 301 129q97 89 170 238t106 292.5t33 261.5q0 62 -12.5 118.5t-40.5 110.5t-84 86.5t-133 32.5q-153 0 -283 -127q-164 -156 -242.5 -373.5t-78.5 -465.5z" />
<glyph unicode="&#x153;" horiz-adv-x="1181" d="M45 170q0 84 27.5 173.5t68.5 158.5t79 119t67 73q37 30 60.5 46.5t64 40t83 35t87.5 11.5q64 0 104.5 -43.5t48.5 -107.5q3 -31 21 -10q153 161 311 161q41 0 83 -35.5t42 -93.5q0 -67 -45 -119t-113 -85q-126 -69 -313 -99q-3 0 -14 -6t-15 -10q-14 -29 -27.5 -80 t-13.5 -90q0 -63 33.5 -93t75.5 -30q86 0 211 111q13 12 21.5 10t8.5 -14q0 -17 -14 -37q-52 -76 -141 -128.5t-182 -52.5q-54 0 -93 42t-49 118q-1 6 -7 7.5t-9 -1.5q-66 -68 -151 -119t-169 -51q-48 0 -94.5 57.5t-46.5 141.5zM190 119q0 -28 17 -55t37 -27q77 0 174 123 q79 98 149 260.5t70 277.5q0 25 -19.5 50.5t-52.5 25.5q-29 0 -71.5 -20.5t-79.5 -63.5q-113 -134 -168.5 -284t-55.5 -287zM721.5 459.5q0.5 -4.5 3 -6.5t4.5 -2q20 3 56.5 14t87.5 33t94.5 50t74.5 69t31 85q0 34 -17 51t-40 17q-67 0 -153 -87t-138 -212 q-4 -7 -3.5 -11.5z" />
<glyph unicode="&#x178;" horiz-adv-x="1216" d="M178 16q0 19 62 27q37 4 63.5 9.5t47 18t33 24t25.5 36.5t21 46t21 61l88 266q21 62 26 101t-2 73q-19 143 -102 401q-37 117 -66.5 151t-103.5 44q-51 8 -51 29q3 20 59 20q21 0 100 -3t119 -3q56 0 113 2t69 2q46 0 50 -18q0 -22 -50 -31q-68 -14 -84.5 -42t-5.5 -73 q5 -20 30 -129.5t46.5 -194t36.5 -118.5q4 -8 16 -4q313 359 371 448q61 94 -41 115q-49 6 -49 31q0 18 59 18q8 0 59.5 -3t100.5 -3q27 0 105.5 4t91.5 4q51 0 51 -18q0 -21 -62 -35q-81 -16 -121.5 -45t-156.5 -144q-119 -114 -377 -419q-44 -51 -65 -129 q-93 -340 -97 -361q-2 -10 -2.5 -21t4 -30t14.5 -34t34 -28t59 -18q63 -8 63 -31q0 -22 -71 -22q-24 0 -126 5t-118 5q-38 0 -114 -5t-115 -5q-58 0 -58 26zM670 1534q3 40 35 69t69 29q38 0 59 -25t19 -65q-3 -37 -37 -67.5t-70 -30.5q-37 0 -57 24.5t-18 65.5zM1055 1534 q3 41 35 69.5t71 28.5q36 0 56 -25t18 -65q-3 -39 -35 -68.5t-67 -29.5q-38 0 -59 25t-19 65z" />
<glyph unicode="&#x2c6;" horiz-adv-x="819" d="M358 919.5q-3 8.5 1.5 22t15.5 27.5q31 33 116 134.5t115 145.5q20 22 28.5 30t20.5 16t21 8q20 0 26 -54q29 -178 39 -288q2 -18 -5.5 -34t-20.5 -16q-7 0 -17.5 16t-15.5 34t-21.5 70.5t-27.5 92.5q-4 14 -19 2q-36 -39 -194 -190q-6 -6 -22 -15.5t-27 -9.5 q-10 0 -13 8.5z" />
<glyph unicode="&#x2dc;" horiz-adv-x="819" d="M358 1061q0 3 17 25t51 55t68 55q19 12 34 8q84 -22 154 -22q47 0 66 14q30 24 59 59q4 6 22.5 -7.5t18.5 -22.5t-10 -19l-129 -129q-14 -14 -27 -14q-11 0 -86 12t-123 12q-23 0 -65 -47q-12 -12 -21 -12q-4 0 -16.5 15t-12.5 18z" />
<glyph unicode="&#x2000;" horiz-adv-x="868" />
<glyph unicode="&#x2001;" horiz-adv-x="1737" />
<glyph unicode="&#x2002;" horiz-adv-x="868" />
<glyph unicode="&#x2003;" horiz-adv-x="1737" />
<glyph unicode="&#x2004;" horiz-adv-x="579" />
<glyph unicode="&#x2005;" horiz-adv-x="434" />
<glyph unicode="&#x2006;" horiz-adv-x="289" />
<glyph unicode="&#x2007;" horiz-adv-x="289" />
<glyph unicode="&#x2008;" horiz-adv-x="217" />
<glyph unicode="&#x2009;" horiz-adv-x="347" />
<glyph unicode="&#x200a;" horiz-adv-x="96" />
<glyph unicode="&#x2010;" horiz-adv-x="624" d="M88 387q0 17 17 55t28 39q22 4 212 26.5t200 22.5q7 0 13 -9.5t5 -22.5q-4 -30 -22 -61t-43 -34q-49 -8 -210.5 -24.5t-181.5 -16.5q-8 -1 -13 8t-5 17z" />
<glyph unicode="&#x2011;" horiz-adv-x="624" d="M88 387q0 17 17 55t28 39q22 4 212 26.5t200 22.5q7 0 13 -9.5t5 -22.5q-4 -30 -22 -61t-43 -34q-49 -8 -210.5 -24.5t-181.5 -16.5q-8 -1 -13 8t-5 17z" />
<glyph unicode="&#x2012;" horiz-adv-x="624" d="M88 387q0 17 17 55t28 39q22 4 212 26.5t200 22.5q7 0 13 -9.5t5 -22.5q-4 -30 -22 -61t-43 -34q-49 -8 -210.5 -24.5t-181.5 -16.5q-8 -1 -13 8t-5 17z" />
<glyph unicode="&#x2013;" horiz-adv-x="1130" d="M100 410q0 24 18 49.5t29 25.5l869 4q5 0 9.5 -11t4.5 -19q0 -13 -16 -44.5t-31 -31.5h-864q-4 0 -11.5 9t-7.5 18z" />
<glyph unicode="&#x2014;" horiz-adv-x="1961" d="M100 410q0 24 18 49.5t29 25.5l1704 4q5 0 10 -11.5t5 -18.5q0 -13 -16.5 -44.5t-32.5 -31.5h-1698q-4 0 -11.5 9t-7.5 18z" />
<glyph unicode="&#x2018;" horiz-adv-x="387" d="M289 1149q0 61 33 117t81 91.5t98.5 57t88.5 21.5q10 2 22.5 -3t12.5 -16q0 -19 -39 -39q-70 -25 -116 -71.5t-46 -114.5q0 -39 23.5 -60t56.5 -28q20 -3 20 -29q0 -28 -33.5 -54t-72.5 -26q-65 0 -97 49.5t-32 104.5z" />
<glyph unicode="&#x2019;" horiz-adv-x="387" d="M225 1014q0 19 39 33q71 28 115.5 77.5t44.5 114.5q0 71 -74 90q-6 2 -13 9.5t-7 15.5q0 26 32.5 54t69.5 28q46 0 76.5 -27t41.5 -59t11 -66q0 -63 -32 -119.5t-78.5 -92t-96.5 -56t-90 -21.5q-12 0 -25.5 6t-13.5 13z" />
<glyph unicode="&#x201a;" horiz-adv-x="462" d="M-70 -209q0 17 35 31q75 32 123.5 87t48.5 124q0 68 -80 90q-11 3 -16.5 11t-5.5 16q0 30 35 61t75 31q36 0 64 -16.5t42.5 -42t22 -51.5t7.5 -50q0 -66 -35 -126t-85.5 -97t-103.5 -59t-94 -23q-11 -2 -22 2.5t-11 11.5z" />
<glyph unicode="&#x201c;" horiz-adv-x="692" d="M291 1145q0 77 54.5 147t123 107t121.5 37q33 0 33 -15q0 -9 -7.5 -16t-31.5 -21q-67 -35 -112.5 -85t-45.5 -107q0 -39 23 -61t53 -27q5 0 12.5 -8t7.5 -15q0 -28 -32.5 -57t-69.5 -29q-66 0 -97.5 47.5t-31.5 102.5zM604 1147q0 59 32.5 114.5t80 93t98.5 60t90 23.5 q11 0 23 -4.5t12 -12.5q0 -9 -8 -16t-33 -19q-69 -32 -113.5 -82t-44.5 -112q0 -70 74 -86q7 -1 14 -10t7 -17q0 -28 -31.5 -56t-69.5 -28q-66 0 -98.5 48.5t-32.5 103.5z" />
<glyph unicode="&#x201d;" horiz-adv-x="702" d="M217 1010q0 13 38 31q3 2 5 3q158 81 158 195q0 73 -74 88q-8 2 -15 11t-7 18q0 26 32.5 54t69.5 28q66 0 97.5 -47.5t31.5 -104.5q0 -58 -32 -113.5t-79 -93t-98 -60.5t-90 -24q-12 0 -24.5 4t-12.5 11zM537 1012q0 9 6.5 15.5t31.5 19.5q158 91 158 192q0 40 -24 63 t-52 27q-5 0 -12.5 8.5t-7.5 16.5q0 27 32 55.5t70 28.5q65 0 96 -47.5t31 -102.5q0 -58 -32 -114t-79 -94t-97.5 -61t-88.5 -24q-11 0 -21.5 4.5t-10.5 12.5z" />
<glyph unicode="&#x201e;" horiz-adv-x="794" d="M-70 -209q0 19 35 33q75 32 123.5 86.5t48.5 124.5q0 68 -80 88q-6 2 -14 9.5t-8 14.5q0 32 35 63.5t75 31.5q37 0 65 -16t42.5 -41.5t21.5 -51.5t7 -51q0 -53 -23 -102.5t-58.5 -85t-78.5 -62.5t-84 -40.5t-74 -14.5q-10 -2 -21.5 2t-11.5 12zM256 -209q0 20 37 33 q74 32 122 86.5t48 124.5q0 69 -76 88q-6 2 -15.5 9.5t-9.5 14.5q0 32 35 63.5t74 31.5q49 0 81.5 -28.5t43 -62t10.5 -69.5q0 -53 -22.5 -102.5t-58 -85t-78 -62.5t-83 -40.5t-73.5 -14.5q-35 0 -35 14z" />
<glyph unicode="&#x2022;" horiz-adv-x="935" d="M172 385q0 131 86 220t207 89q124 0 209.5 -89t85.5 -220q0 -129 -88 -217t-211 -88q-119 0 -204 88.5t-85 216.5z" />
<glyph unicode="&#x2026;" horiz-adv-x="1411" d="M25 74q0 57 39 96t83 39q49 0 76 -29t27 -80q0 -57 -38 -93t-85 -36q-51 0 -76.5 29t-25.5 74zM498 76q0 56 39.5 94.5t83.5 38.5q50 0 77 -28.5t27 -80.5q0 -58 -38.5 -93.5t-86.5 -35.5q-50 0 -76 30.5t-26 74.5zM975 76q0 57 39 95t82 38q51 0 78.5 -29t27.5 -80 q0 -58 -39.5 -93.5t-87.5 -35.5q-51 0 -75.5 30t-24.5 75z" />
<glyph unicode="&#x202f;" horiz-adv-x="347" />
<glyph unicode="&#x2039;" horiz-adv-x="933" d="M166 406q0 6 11 15.5t20 12.5q301 122 602 303q31 21 45 21q15 0 9 -23q-8 -23 -32 -45q-36 -32 -95.5 -74t-105 -71t-122.5 -76t-99 -61q-7 -3 -9 -12t3 -15l56.5 -56.5t79 -81t65.5 -75t45 -66.5q6 -14 3 -27.5t-13 -13.5q-12 0 -41 23q-65 56 -189.5 147.5 t-216.5 153.5q-16 12 -16 21z" />
<glyph unicode="&#x203a;" horiz-adv-x="935" d="M78 83q6 22 31 44q21 19 47.5 39.5t61 44.5t60 41.5t70 45t62.5 39t65.5 40.5t54.5 33q7 3 9.5 11.5t-2.5 16.5q-4 4 -35 34.5t-48 48t-48.5 50.5t-50 55.5t-37 48t-25.5 42.5q-6 13 -4 27t12 14q13 0 41 -25q70 -59 196 -151t210 -148q16 -12 16 -20q0 -6 -10.5 -16 t-18.5 -13q-156 -64 -322.5 -149.5t-279.5 -155.5q-38 -19 -47 -19q-14 0 -8 22z" />
<glyph unicode="&#x205f;" horiz-adv-x="434" />
<glyph unicode="&#x20ac;" d="M76 545q0 13 13.5 27t23.5 16h71q9 0 13 12q2 15 18 92q3 17 -2 17h-61q-13 0 -13 14q0 16 14 29.5t23 13.5l51 2q12 0 15 12q36 97 93.5 186t132.5 163t171 118.5t197 44.5q118 0 200 -49q23 -13 34.5 -13.5t37.5 11.5q25 12 29 6q5 -5 8 -15.5t-4 -27.5 q-26 -44 -52.5 -107.5t-35.5 -95.5q-13 -57 -27 -57t-23 16t-6 41q13 112 -28 175q-21 31 -54.5 49t-62.5 18q-63 0 -123 -29.5t-106.5 -76t-87.5 -108t-68.5 -121.5t-46.5 -120q-6 -18 8 -18l403 12q7 0 12 -6.5t3 -11.5q-4 -20 -20.5 -38.5t-30.5 -18.5q-368 4 -383 4 q-18 0 -21 -13q-11 -32 -16 -94q0 -12 12 -12q44 0 170 5t195 5q4 0 9 -7t3 -11q-6 -22 -28 -43t-36 -21q-115 2 -325 2q-14 0 -17 -14q-6 -46 -6 -135q1 -90 19.5 -155t51.5 -100t70.5 -51t81.5 -16q36 0 91.5 32.5t93.5 68.5q16 16 50 52.5t58 59.5q27 27 45 27 q21 0 7 -47q-11 -36 -55.5 -98.5t-82.5 -104.5q-14 -12 -24.5 -16t-30.5 0q-10 3 -19.5 3t-15 -1.5t-19.5 -5.5t-24 -7q-7 -2 -40 -9.5t-54.5 -11t-36.5 -3.5q-143 0 -239 108t-95 320q0 38 4 88q3 13 -8 16l-90 2q-14 0 -14 21z" />
<glyph unicode="&#x2122;" horiz-adv-x="790" d="M266 1159q0 1 2 36.5t2 43.5q2 3 10 5t13 -1q13 -10 37 -12h180q41 0 65 12q4 1 8.5 -1t4.5 -5q-6 -42 -6 -90q0 -11 -11 -11.5t-16 9.5q-1 1 -7 19t-13.5 26t-18.5 8h-55v-176q0 -41 6 -48q5 -5 12 -7l27 -9q12 -4 10.5 -16t-12.5 -12q-9 0 -38.5 1t-39.5 1 q-22 0 -42 -1t-34 -1q-13 0 -15.5 10t11.5 16q4 2 25 9q24 12 24 63v129q0 41 -10 41h-43q-16 0 -24 -5.5t-14.5 -20t-8.5 -17.5q-8 -16 -16 -16q-13 0 -13 20zM608.5 940q-4.5 10 9.5 16q2 1 10.5 4.5t11 5t9 5t8.5 6t5.5 7t5 10t2.5 12.5q12 82 12 149q3 16 -6 31 q-4 5 -7.5 7.5t-6 3.5t-9 2t-12.5 3q-16 5 -19 12.5t3.5 13t13.5 5.5q29 -2 86 -2h18q6 0 29 -45q26 -54 62 -125q5 -10 10 -2q10 19 69 153q7 19 27 19q2 0 45 1t49 1q16 0 16.5 -11t-8.5 -14q-5 -2 -17.5 -4t-16.5 -4q-10 -6 -13 -29q0 -55 4 -149q1 -30 3.5 -38t9.5 -13 q5 -2 14 -5t14 -5q14 -6 11 -17.5t-17 -11.5h-61q-11 0 -31 -1t-27 -1q-15 0 -16.5 11t10.5 15q17 7 21 15.5t6 36.5q2 34 2 157q0 14 -6 2q-7 -14 -22 -50t-32.5 -80t-23.5 -58q-17 -42 -20 -45q-10 -10 -19 0q-4 8 -16 37q-31 70 -76 180q-1 4 -2.5 5t-3 -0.5t-2.5 -4.5 q-1 -17 -2.5 -48t-2.5 -55.5t-1 -41.5q0 -23 18 -32q7 -3 27 -10l8 -3q18 -6 13 -18.5t-21 -12.5q-14 0 -37 1t-37 1q-13 0 -30.5 -1t-22.5 -1q-14 0 -18.5 10z" />
<glyph unicode="&#x25fc;" horiz-adv-x="829" d="M0 0v829h829v-829h-829z" />
</font>
</defs>
</svg>
